<?xml version="1.0" encoding="utf-8"?>
<!-- Generator: Adobe Illustrator 14.0.0, SVG Export Plug-In . SVG Version: 6.00 Build 43363)  -->
<!DOCTYPE svg PUBLIC "-//W3C//DTD SVG 1.1//EN" "http://www.w3.org/Graphics/SVG/1.1/DTD/svg11.dtd">
<svg version="1.1" id="Layer_1" xmlns="http://www.w3.org/2000/svg" xmlns:xlink="http://www.w3.org/1999/xlink" x="0px" y="0px"
	 width="320px" height="160px" viewBox="0 0 320 160" enable-background="new 0 0 320 160" xml:space="preserve">
<g>
	
		<line id="center" fill="none" stroke="#00475B" stroke-width="2.1643" stroke-linecap="square" x1="28.046" y1="84.35" x2="37.787" y2="84.35"/>
	
		<line id="center_1_" fill="none" stroke="#00475B" stroke-width="2.1643" stroke-linecap="square" x1="42.898" y1="84.35" x2="52.638" y2="84.35"/>
	
		<line id="center_2_" fill="none" stroke="#00475B" stroke-width="2.1643" stroke-linecap="square" x1="57.751" y1="84.35" x2="67.492" y2="84.35"/>
	
		<line id="center_3_" fill="none" stroke="#00475B" stroke-width="2.1643" stroke-linecap="square" x1="72.603" y1="84.35" x2="82.344" y2="84.35"/>
	
		<line id="center_4_" fill="none" stroke="#00475B" stroke-width="2.1643" stroke-linecap="square" x1="87.456" y1="84.35" x2="97.196" y2="84.35"/>
	
		<line id="center_5_" fill="none" stroke="#00475B" stroke-width="2.1643" stroke-linecap="square" x1="102.308" y1="84.35" x2="112.049" y2="84.35"/>
	
		<line id="center_6_" fill="none" stroke="#00475B" stroke-width="2.1643" stroke-linecap="square" x1="117.16" y1="84.35" x2="126.901" y2="84.35"/>
	
		<line id="center_7_" fill="none" stroke="#00475B" stroke-width="2.1643" stroke-linecap="square" x1="132.012" y1="84.35" x2="141.754" y2="84.35"/>
	
		<line id="center_8_" fill="none" stroke="#00475B" stroke-width="2.1643" stroke-linecap="square" x1="146.866" y1="84.35" x2="156.606" y2="84.35"/>
	
		<line id="center_9_" fill="none" stroke="#00475B" stroke-width="2.1643" stroke-linecap="square" x1="161.718" y1="84.35" x2="171.457" y2="84.35"/>
	
		<line id="center_10_" fill="none" stroke="#00475B" stroke-width="2.1643" stroke-linecap="square" x1="176.57" y1="84.35" x2="186.309" y2="84.35"/>
	
		<line id="center_11_" fill="none" stroke="#00475B" stroke-width="2.1643" stroke-linecap="square" x1="191.423" y1="84.35" x2="201.163" y2="84.35"/>
	
		<line id="center_12_" fill="none" stroke="#00475B" stroke-width="2.1643" stroke-linecap="square" x1="206.275" y1="84.35" x2="216.014" y2="84.35"/>
	
		<line id="center_13_" fill="none" stroke="#00475B" stroke-width="2.1643" stroke-linecap="square" x1="221.128" y1="84.35" x2="230.868" y2="84.35"/>
	
		<line id="center_14_" fill="none" stroke="#00475B" stroke-width="2.1643" stroke-linecap="square" x1="235.979" y1="84.35" x2="245.719" y2="84.35"/>
	
		<line id="center_15_" fill="none" stroke="#00475B" stroke-width="2.1643" stroke-linecap="square" x1="250.833" y1="84.35" x2="260.57" y2="84.35"/>
	
		<line id="center_16_" fill="none" stroke="#00475B" stroke-width="2.1643" stroke-linecap="square" x1="265.686" y1="84.35" x2="275.426" y2="84.35"/>
	
		<line id="center_17_" fill="none" stroke="#00475B" stroke-width="2.1643" stroke-linecap="square" x1="280.537" y1="84.35" x2="290.277" y2="84.35"/>
</g>
<line id="green" fill="none" stroke="#00ED95" stroke-width="1.6232" x1="111.563" y1="138.161" x2="207.296" y2="138.161"/>
<path id="blue" fill="none" stroke="#698EFF" stroke-width="1.5" stroke-linecap="square" d="M28.046,84.35
	c9.788-40.516,50.788-58.188,83.52-58.188"/>
<g id="bdot">
	<path fill="#698EFF" d="M3.373,0.167c0,1.957-1.587,3.544-3.542,3.544c-1.957,0-3.542-1.587-3.542-3.544
		c0-1.956,1.586-3.541,3.542-3.541C1.786-3.374,3.373-1.789,3.373,0.167"/>
	<circle fill="none" cx="-0.168" cy="0.168" r="3.542"/>
</g>
<g id="bgdot">
	<path fill="#698EFF" d="M3.374,0.168c0,1.957-1.589,3.542-3.542,3.542c-1.956,0-3.542-1.587-3.542-3.542
		c0-1.957,1.586-3.542,3.542-3.542C1.785-3.375,3.374-1.789,3.374,0.168"/>
	<circle fill="none" cx="-0.169" cy="0.168" r="3.542"/>
</g>
<g id="gwdot">
	<path fill="#FFFFFF" d="M3.375,0.168c0,1.957-1.588,3.542-3.541,3.542c-1.958,0-3.544-1.587-3.544-3.542
		c0-1.957,1.587-3.542,3.544-3.542C1.785-3.375,3.375-1.789,3.375,0.168"/>
	<circle fill="none" cx="-0.17" cy="0.168" r="3.542"/>
</g>
<g id="wdot">
	<path fill="#FFFFFF" d="M3.375,0.167c0,1.957-1.588,3.544-3.543,3.544S-3.71,2.124-3.71,0.167c0-1.956,1.588-3.541,3.542-3.541
		C1.785-3.374,3.375-1.789,3.375,0.167"/>
	<circle fill="none" cx="-0.169" cy="0.168" r="3.542"/>
</g>
<path id="white" fill="none" stroke="#FFFFFF" stroke-width="1.5" stroke-linecap="square" d="M207.296,26.162
	C210.5,54.167,235.98,84.35,290.277,84.35"/>
<g id="g1dot">
	<path fill="#698EFF" d="M3.373,0.167c0,1.957-1.587,3.544-3.542,3.544c-1.957,0-3.542-1.587-3.542-3.544
		c0-1.956,1.586-3.541,3.542-3.541C1.786-3.374,3.373-1.789,3.373,0.167"/>
	<circle fill="none" cx="-0.168" cy="0.168" r="3.542"/>
</g>
<g id="g2dot">
	<path fill="#698EFF" d="M3.376,0.167c0,1.958-1.588,3.545-3.543,3.545c-1.958,0-3.543-1.587-3.543-3.545
		c0-1.957,1.586-3.542,3.543-3.542C1.787-3.375,3.376-1.79,3.376,0.167"/>
	<circle fill="none" cx="-0.168" cy="0.167" r="3.543"/>
</g>
</svg>
