<?xml version="1.0" encoding="utf-8"?>
<!-- Generator: Adobe Illustrator 13.0.0, SVG Export Plug-In . SVG Version: 6.00 Build 14948)  -->
<!DOCTYPE svg PUBLIC "-//W3C//DTD SVG 1.1//EN" "http://www.w3.org/Graphics/SVG/1.1/DTD/svg11.dtd">
<svg version="1.1" id="Layer_1" xmlns="http://www.w3.org/2000/svg" xmlns:xlink="http://www.w3.org/1999/xlink" x="0px" y="0px"
	 width="340.157px" height="170.078px" viewBox="0 0 340.157 170.078" enable-background="new 0 0 340.157 170.078"
	 xml:space="preserve">
<g id="off_1_">
	<path fill="#9256D7" d="M160.277,48.119c8.624,0,15.604,6.978,15.604,15.585c0,8.616-6.98,15.606-15.604,15.606
		c-8.608,0-15.586-6.99-15.586-15.606C144.691,55.097,151.669,48.119,160.277,48.119z"/>
	<line fill="none" stroke="#24131D" stroke-width="1.5" x1="152.483" y1="55.912" x2="168.084" y2="71.503"/>
	<line fill="none" stroke="#24131D" stroke-width="1.5" x1="168.084" y1="55.912" x2="152.483" y2="71.503"/>
</g>
<g id="line_1_">
	<path fill="#4D9EFF" d="M160.277,48.119c8.624,0,15.604,6.978,15.604,15.585c0,8.616-6.98,15.606-15.604,15.606
		c-8.608,0-15.586-6.99-15.586-15.606C144.691,55.097,151.669,48.119,160.277,48.119z"/>
	<g>
		<polyline fill="none" stroke="#24131D" stroke-width="1.5" stroke-linecap="square" stroke-linejoin="round" points="
			162.21,65.252 172.413,65.252 173.556,64.43 173.556,63.286 172.413,62.464 162.21,62.464 		"/>
		
			<line fill="none" stroke="#24131D" stroke-width="1.5" stroke-linecap="square" stroke-linejoin="round" x1="168.728" y1="62.464" x2="168.728" y2="65.252"/>
		<polygon fill="none" stroke="#24131D" stroke-width="1.5" stroke-linecap="square" stroke-linejoin="round" points="
			162.21,60.994 162.21,66.722 152.456,66.722 147.806,65.576 147.806,62.14 152.456,60.994 		"/>
		
			<line fill="none" stroke="#24131D" stroke-width="1.5" stroke-linecap="square" stroke-linejoin="round" x1="153.08" y1="66.722" x2="153.08" y2="60.994"/>
	</g>
</g>
<g id="radio_1_">
	<path fill="#00ED95" d="M160.276,48.119c8.624,0,15.604,6.978,15.604,15.585c0,8.616-6.979,15.606-15.604,15.606
		c-8.608,0-15.586-6.99-15.586-15.606C144.69,55.097,151.668,48.119,160.276,48.119z"/>
	<path fill="none" stroke="#000000" stroke-width="1.5" stroke-linecap="round" stroke-linejoin="round" d="M164.354,60.83
		c0,0,1.098-0.685,2.388-0.105c1.292,0.582,2.546,2.648,3.551,4.654c1.982,3.969-3.112,4.431-2.781,1.256
		c0.281-2.679-0.102-5.75-0.771-5.91"/>
	
		<line fill="none" stroke="#000000" stroke-width="1.5" stroke-linecap="square" stroke-linejoin="round" x1="153.507" y1="60.277" x2="163.747" y2="57.08"/>
	
		<circle fill="none" stroke="#000000" stroke-width="1.5" stroke-linecap="round" stroke-linejoin="round" cx="163.792" cy="56.984" r="0.779"/>
	
		<rect x="153.289" y="60.72" fill="none" stroke="#000000" stroke-width="1.5" stroke-linecap="round" width="11.188" height="8.169"/>
	<g>
		<circle stroke="#000000" stroke-width="0.25" cx="157.854" cy="62.964" r="0.615"/>
		<circle stroke="#000000" stroke-width="0.25" cx="159.868" cy="62.964" r="0.616"/>
		<circle stroke="#000000" stroke-width="0.25" cx="157.854" cy="66.654" r="0.615"/>
		<circle stroke="#000000" stroke-width="0.25" cx="159.868" cy="66.654" r="0.616"/>
		<circle stroke="#000000" stroke-width="0.25" cx="156.792" cy="64.809" r="0.615"/>
		<circle stroke="#000000" stroke-width="0.25" cx="158.803" cy="64.809" r="0.615"/>
		<circle stroke="#000000" stroke-width="0.25" cx="160.931" cy="64.809" r="0.615"/>
	</g>
</g>
<g id="whatuhear_1_">
	<path fill="#E6E7FF" d="M160.277,48.119c8.624,0,15.604,6.978,15.604,15.585c0,8.616-6.98,15.606-15.604,15.606
		c-8.608,0-15.586-6.99-15.586-15.606C144.691,55.097,151.669,48.119,160.277,48.119z"/>
	<g>
		<path fill="none" stroke="#24131D" stroke-width="1.5" d="M157.07,61.164c0.193-1.659,1.609-2.95,3.324-2.95
			c1.714,0,3.132,1.291,3.326,2.95l0,0"/>
		<path fill="none" stroke="#24131D" stroke-width="1.5" d="M153.845,61.185c0.203-3.481,3.095-6.251,6.625-6.251
			c3.664,0,6.647,2.976,6.647,6.635c0,2.436-1.208,3.581-2.087,4.417c-0.208,0.195-0.4,0.385-0.518,0.527
			c-0.762,0.94-0.917,2.357-0.917,2.684c0,2.025-1.548,3.695-3.521,3.889l0,0"/>
	</g>
</g>
<g id="mic_1_">
	<path fill="#FF3A5D" d="M160.277,48.118c8.624,0,15.604,6.978,15.604,15.586c0,8.617-6.98,15.608-15.604,15.608
		c-8.608,0-15.587-6.991-15.587-15.608C144.69,55.096,151.668,48.118,160.277,48.118z"/>
	<g>
		<line fill="none" stroke="#24131D" stroke-width="2.5" x1="163.919" y1="60.692" x2="154.821" y2="69.786"/>
		<circle fill="#24131D" stroke="#24131D" stroke-width="2.5" cx="163.919" cy="60.692" r="1.819"/>
	</g>
</g>
</svg>
