<?xml version="1.0" encoding="utf-8"?>
<!-- Generator: Adobe Illustrator 15.0.0, SVG Export Plug-In . SVG Version: 6.00 Build 0)  -->
<!DOCTYPE svg PUBLIC "-//W3C//DTD SVG 1.1//EN" "http://www.w3.org/Graphics/SVG/1.1/DTD/svg11.dtd">
<svg version="1.1" id="Layer_1" xmlns="http://www.w3.org/2000/svg" xmlns:xlink="http://www.w3.org/1999/xlink" x="0px" y="0px"
	 width="340.157px" height="170.078px" viewBox="0 0 340.157 170.078" enable-background="new 0 0 340.157 170.078"
	 xml:space="preserve">
<g id="rect">
	<path fill="#010000" d="M125.272,64.151c0-1.559,1.275-2.834,2.834-2.834h84.367c1.561,0,2.835,1.275,2.835,2.834v36.178
		c0,1.56-1.274,2.835-2.835,2.835h-84.367c-1.559,0-2.834-1.275-2.834-2.835V64.151L125.272,64.151z"/>
</g>
<rect x="140.897" y="72.478" fill="none" stroke="#DFD9FF" stroke-width="2" stroke-linecap="square" stroke-linejoin="round" width="6.395" height="19.772"/>
<rect x="147.29" y="72.478" fill="none" stroke="#DFD9FF" stroke-width="2" stroke-linecap="square" stroke-linejoin="round" width="6.394" height="19.772"/>
<rect x="153.683" y="72.478" fill="none" stroke="#DFD9FF" stroke-width="2" stroke-linecap="square" stroke-linejoin="round" width="6.393" height="19.772"/>
<rect x="160.076" y="72.478" fill="none" stroke="#DFD9FF" stroke-width="2" stroke-linecap="square" stroke-linejoin="round" width="6.394" height="19.772"/>
<rect x="145.16" y="72.478" fill="#DFD9FF" width="4.259" height="11.862"/>
<rect x="151.551" y="72.478" fill="#DFD9FF" width="4.263" height="11.862"/>
<rect x="157.943" y="72.478" fill="#DFD9FF" width="4.262" height="11.862"/>
<g id="text">
	<path fill="none" stroke="#FF3A5D" stroke-width="2" stroke-linecap="square" d="M199.523,92.32h-9.922l8.927-11.906
		c0.623-0.829,0.99-1.859,0.99-2.977c0-2.738-2.221-4.96-4.958-4.96c-2.742,0-4.959,2.222-4.959,4.96"/>
	<line fill="none" stroke="#FF3A5D" stroke-width="2" stroke-linecap="square" x1="173.097" y1="82.398" x2="185.002" y2="82.398"/>
	<line fill="none" stroke="#FF3A5D" stroke-width="2" stroke-linecap="square" x1="179.049" y1="76.446" x2="179.049" y2="88.354"/>
</g>
</svg>
