<?xml version="1.0" encoding="utf-8"?>
<!-- Generator: Adobe Illustrator 14.0.0, SVG Export Plug-In . SVG Version: 6.00 Build 43363)  -->
<!DOCTYPE svg PUBLIC "-//W3C//DTD SVG 1.1//EN" "http://www.w3.org/Graphics/SVG/1.1/DTD/svg11.dtd">
<svg version="1.1" id="Layer_1" xmlns="http://www.w3.org/2000/svg" xmlns:xlink="http://www.w3.org/1999/xlink" x="0px" y="0px"
	 width="320px" height="160px" viewBox="0 0 320 160" enable-background="new 0 0 320 160" xml:space="preserve">
<g id="hbars">
	<line id="h1" fill="none" stroke="#534468" x1="242.704" y1="130.5" x2="50.988" y2="130.5"/>
	<line id="h2" fill="none" stroke="#534468" x1="242.704" y1="121.5" x2="50.988" y2="121.5"/>
	<line id="h3" fill="none" stroke="#534468" x1="242.704" y1="112.5" x2="50.988" y2="112.5"/>
	<line id="h4" fill="none" stroke="#534468" x1="242.704" y1="103.5" x2="50.988" y2="103.5"/>
	<line id="h5" fill="none" stroke="#534468" x1="242.704" y1="94.5" x2="50.988" y2="94.5"/>
	<line id="h6" fill="none" stroke="#534468" x1="242.704" y1="85.5" x2="50.988" y2="85.5"/>
	<line id="h7" fill="none" stroke="#534468" x1="242.704" y1="76.5" x2="50.988" y2="76.5"/>
	<line id="h8" fill="none" stroke="#534468" x1="242.704" y1="67.5" x2="50.988" y2="67.5"/>
	<line id="h9" fill="none" stroke="#534468" x1="242.704" y1="58.5" x2="50.988" y2="58.5"/>
	<line id="h10" fill="none" stroke="#534468" x1="242.704" y1="49.5" x2="50.988" y2="49.5"/>
	<line id="h11" fill="none" stroke="#534468" x1="242.704" y1="40.5" x2="50.988" y2="40.5"/>
	<line id="h12" fill="none" stroke="#534468" x1="242.704" y1="31.5" x2="50.988" y2="31.5"/>
	<line id="h13" fill="none" stroke="#534468" x1="242.704" y1="22.5" x2="50.988" y2="22.5"/>
	<line id="h14" fill="none" stroke="#534468" x1="242.704" y1="13.5" x2="50.988" y2="13.5"/>
</g>
<g id="vbars">
	<line id="v1" fill="none" stroke="#8080BD" x1="50.988" y1="13.5" x2="50.988" y2="130.5"/>
	<line id="v2" fill="none" stroke="#534468" x1="62.988" y1="13.5" x2="62.988" y2="130.5"/>
	<line id="v3" fill="none" stroke="#FFFFFF" x1="74.988" y1="13.5" x2="74.988" y2="130.5"/>
	<line id="v4" fill="none" stroke="#534468" x1="86.988" y1="13.5" x2="86.988" y2="130.5"/>
	<line id="v5" fill="none" stroke="#8080BD" x1="98.988" y1="13.5" x2="98.988" y2="130.5"/>
	<line id="v6" fill="none" stroke="#534468" x1="110.988" y1="13.5" x2="110.988" y2="130.5"/>
	<line id="v7" fill="none" stroke="#534468" x1="122.988" y1="13.5" x2="122.988" y2="130.5"/>
	<line id="v8" fill="none" stroke="#534468" x1="134.988" y1="13.5" x2="134.988" y2="130.5"/>
	<line id="v9" fill="none" stroke="#8080BD" x1="146.988" y1="13.5" x2="146.988" y2="130.5"/>
	<line id="v10" fill="none" stroke="#534468" x1="158.999" y1="13.5" x2="158.999" y2="130.5"/>
	<line id="v11" fill="none" stroke="#534468" x1="171.002" y1="13.5" x2="171.002" y2="130.5"/>
	<line id="v12" fill="none" stroke="#534468" x1="183.002" y1="13.5" x2="183.002" y2="130.5"/>
	<line id="v13" fill="none" stroke="#8080BD" x1="195.002" y1="13.5" x2="195.002" y2="130.5"/>
	<line id="v14" fill="none" stroke="#534468" x1="207.002" y1="13.5" x2="207.002" y2="130.5"/>
	<line id="v15" fill="none" stroke="#534468" x1="219.002" y1="13.5" x2="219.002" y2="130.5"/>
	<line id="v16" fill="none" stroke="#534468" x1="231.002" y1="13.5" x2="231.002" y2="130.5"/>
	<line id="v16_1_" fill="none" stroke="#534468" x1="243.002" y1="13.5" x2="243.002" y2="130.5"/>
</g>
<g id="dots">
	<g id="f2">
		<circle id="x0y0" fill="#FF90A7" cx="50.988" cy="130.5" r="2.5"/>
		<circle id="x1y0" fill="#FF90A7" cx="62.988" cy="130.5" r="2.5"/>
		<circle id="x2y0" fill="#FF90A7" cx="74.988" cy="130.5" r="2.5"/>
		<circle id="x3y0" fill="#FF90A7" cx="86.988" cy="130.5" r="2.5"/>
		<circle id="x4y0" fill="#FF90A7" cx="98.988" cy="130.5" r="2.5"/>
		<circle id="x5y0" fill="#FF90A7" cx="110.988" cy="130.5" r="2.5"/>
		<circle id="x6y0" fill="#FF90A7" cx="122.988" cy="130.5" r="2.5"/>
		<circle id="x7y0" fill="#FF90A7" cx="134.988" cy="130.5" r="2.5"/>
		<circle id="x8y0" fill="#FF90A7" cx="146.988" cy="130.5" r="2.5"/>
		<circle id="x9y0" fill="#FF90A7" cx="158.999" cy="130.5" r="2.5"/>
		<circle id="x10y0" fill="#FF90A7" cx="171.002" cy="130.5" r="2.5"/>
		<circle id="x11y0" fill="#FF90A7" cx="183.002" cy="130.5" r="2.5"/>
		<circle id="x12y0" fill="#FF90A7" cx="195.002" cy="130.5" r="2.5"/>
		<circle id="x13y0" fill="#FF90A7" cx="207.002" cy="130.5" r="2.5"/>
		<circle id="x14y0" fill="#FF90A7" cx="219.002" cy="130.5" r="2.5"/>
		<circle id="x15y0" fill="#FF90A7" cx="231.002" cy="130.5" r="2.5"/>
	</g>
	<g id="g2">
		<circle id="x0y2" fill="#FF90A7" cx="50.988" cy="121.5" r="2.5"/>
		<circle id="x1y2" fill="#FF90A7" cx="62.988" cy="121.5" r="2.5"/>
		<circle id="x2y2" fill="#FF90A7" cx="74.988" cy="121.5" r="2.5"/>
		<circle id="x3y2" fill="#FF90A7" cx="86.988" cy="121.5" r="2.5"/>
		<circle id="x4y2" fill="#FF90A7" cx="98.988" cy="121.5" r="2.5"/>
		<circle id="x5y2" fill="#FF90A7" cx="110.988" cy="121.5" r="2.5"/>
		<circle id="x6y2" fill="#FF90A7" cx="122.988" cy="121.5" r="2.5"/>
		<circle id="x7y2" fill="#FF90A7" cx="134.988" cy="121.5" r="2.5"/>
		<circle id="x8y2" fill="#FF90A7" cx="146.988" cy="121.5" r="2.5"/>
		<circle id="x9y2" fill="#FF90A7" cx="158.999" cy="121.5" r="2.5"/>
		<circle id="x10y2" fill="#FF90A7" cx="171.002" cy="121.5" r="2.5"/>
		<circle id="x11y2" fill="#FF90A7" cx="183.002" cy="121.5" r="2.5"/>
		<circle id="x12y2" fill="#FF90A7" cx="195.002" cy="121.5" r="2.5"/>
		<circle id="x13y2" fill="#FF90A7" cx="207.002" cy="121.5" r="2.5"/>
		<circle id="x14y2" fill="#FF90A7" cx="219.002" cy="121.5" r="2.5"/>
		<circle id="x15y2" fill="#FF90A7" cx="231.002" cy="121.5" r="2.5"/>
	</g>
	<g id="a2">
		<circle id="x0y4" fill="#FF90A7" cx="50.988" cy="112.5" r="2.5"/>
		<circle id="x1y4" fill="#FF90A7" cx="62.988" cy="112.5" r="2.5"/>
		<circle id="x2y4" fill="#FF90A7" cx="74.988" cy="112.5" r="2.5"/>
		<circle id="x3y4" fill="#FF90A7" cx="86.988" cy="112.5" r="2.5"/>
		<circle id="x4y4" fill="#FF90A7" cx="98.988" cy="112.5" r="2.5"/>
		<circle id="x5y4" fill="#FF90A7" cx="110.988" cy="112.5" r="2.5"/>
		<circle id="x6y4" fill="#FF90A7" cx="122.988" cy="112.5" r="2.5"/>
		<circle id="x7y4" fill="#FF90A7" cx="134.988" cy="112.5" r="2.5"/>
		<circle id="x8y4" fill="#FF90A7" cx="146.988" cy="112.5" r="2.5"/>
		<circle id="x9y4" fill="#FF90A7" cx="158.999" cy="112.5" r="2.5"/>
		<circle id="x10y4" fill="#FF90A7" cx="171.002" cy="112.5" r="2.5"/>
		<circle id="x11y4" fill="#FF90A7" cx="183.002" cy="112.5" r="2.5"/>
		<circle id="x12y4" fill="#FF90A7" cx="195.002" cy="112.5" r="2.5"/>
		<circle id="x13y4" fill="#FF90A7" cx="207.002" cy="112.5" r="2.5"/>
		<circle id="x14y4" fill="#FF90A7" cx="219.002" cy="112.5" r="2.5"/>
		<circle id="x15y4" fill="#FF90A7" cx="231.002" cy="112.5" r="2.5"/>
	</g>
	<g id="b2">
		<circle id="x0y6" fill="#FF90A7" cx="50.988" cy="103.5" r="2.5"/>
		<circle id="x1y6" fill="#FF90A7" cx="62.988" cy="103.5" r="2.5"/>
		<circle id="x2y6" fill="#FF90A7" cx="74.988" cy="103.5" r="2.5"/>
		<circle id="x3y6" fill="#FF90A7" cx="86.988" cy="103.5" r="2.5"/>
		<circle id="x4y6" fill="#FF90A7" cx="98.988" cy="103.5" r="2.5"/>
		<circle id="x5y6" fill="#FF90A7" cx="110.988" cy="103.5" r="2.5"/>
		<circle id="x6y6" fill="#FF90A7" cx="122.988" cy="103.5" r="2.5"/>
		<circle id="x7y6" fill="#FF90A7" cx="134.988" cy="103.5" r="2.5"/>
		<circle id="x8y6" fill="#FF90A7" cx="146.988" cy="103.5" r="2.5"/>
		<circle id="x9y6" fill="#FF90A7" cx="158.999" cy="103.5" r="2.5"/>
		<circle id="x10y6" fill="#FF90A7" cx="171.002" cy="103.5" r="2.5"/>
		<circle id="x11y6" fill="#FF90A7" cx="183.002" cy="103.5" r="2.5"/>
		<circle id="x12y6" fill="#FF90A7" cx="195.002" cy="103.5" r="2.5"/>
		<circle id="x13y6" fill="#FF90A7" cx="207.002" cy="103.5" r="2.5"/>
		<circle id="x14y6" fill="#FF90A7" cx="219.002" cy="103.5" r="2.5"/>
		<circle id="x15y6" fill="#FF90A7" cx="231.002" cy="103.5" r="2.5"/>
	</g>
	<g id="c3">
		<circle id="x0y7" fill="#FF90A7" cx="50.988" cy="94.5" r="2.5"/>
		<circle id="x1y7" fill="#FF90A7" cx="62.988" cy="94.5" r="2.5"/>
		<circle id="x2y7" fill="#FF90A7" cx="74.988" cy="94.5" r="2.5"/>
		<circle id="x3y7" fill="#FF90A7" cx="86.988" cy="94.5" r="2.5"/>
		<circle id="x4y7" fill="#FF90A7" cx="98.988" cy="94.5" r="2.5"/>
		<circle id="x5y7" fill="#FF90A7" cx="110.988" cy="94.5" r="2.5"/>
		<circle id="x6y7" fill="#FF90A7" cx="122.988" cy="94.5" r="2.5"/>
		<circle id="x7y7" fill="#FF90A7" cx="134.988" cy="94.5" r="2.5"/>
		<circle id="x8y7" fill="#FF90A7" cx="146.988" cy="94.5" r="2.5"/>
		<circle id="x9y7" fill="#FF90A7" cx="158.999" cy="94.5" r="2.5"/>
		<circle id="x10y7" fill="#FF90A7" cx="171.002" cy="94.5" r="2.5"/>
		<circle id="x11y7" fill="#FF90A7" cx="183.002" cy="94.5" r="2.5"/>
		<circle id="x12y7" fill="#FF90A7" cx="195.002" cy="94.5" r="2.5"/>
		<circle id="x13y7" fill="#FF90A7" cx="207.002" cy="94.5" r="2.5"/>
		<circle id="x14y7" fill="#FF90A7" cx="219.002" cy="94.5" r="2.5"/>
		<circle id="x15y7" fill="#FF90A7" cx="231.002" cy="94.5" r="2.5"/>
	</g>
	<g id="d3">
		<circle id="x0y9" fill="#FF90A7" cx="50.988" cy="85.5" r="2.5"/>
		<circle id="x1y9" fill="#FF90A7" cx="62.988" cy="85.5" r="2.5"/>
		<circle id="x2y9" fill="#FF90A7" cx="74.988" cy="85.5" r="2.5"/>
		<circle id="x3y9" fill="#FF90A7" cx="86.988" cy="85.5" r="2.5"/>
		<circle id="x4y9" fill="#FF90A7" cx="98.988" cy="85.5" r="2.5"/>
		<circle id="x5y9" fill="#FF90A7" cx="110.988" cy="85.5" r="2.5"/>
		<circle id="x6y9" fill="#FF90A7" cx="122.988" cy="85.5" r="2.5"/>
		<circle id="x7y9" fill="#FF90A7" cx="134.988" cy="85.5" r="2.5"/>
		<circle id="x8y9" fill="#FF90A7" cx="146.988" cy="85.5" r="2.5"/>
		<circle id="x9y9" fill="#FF90A7" cx="158.999" cy="85.5" r="2.5"/>
		<circle id="x10y9" fill="#FF90A7" cx="171.002" cy="85.5" r="2.5"/>
		<circle id="x11y9" fill="#FF90A7" cx="183.002" cy="85.5" r="2.5"/>
		<circle id="x12y9" fill="#FF90A7" cx="195.002" cy="85.5" r="2.5"/>
		<circle id="x13y9" fill="#FF90A7" cx="207.002" cy="85.5" r="2.5"/>
		<circle id="x14y9" fill="#FF90A7" cx="219.002" cy="85.5" r="2.5"/>
		<circle id="x15y9" fill="#FF90A7" cx="231.002" cy="85.5" r="2.5"/>
	</g>
	<g id="e3">
		<circle id="x0y11" fill="#FF90A7" cx="50.988" cy="77" r="2.5"/>
		<circle id="x1y11" fill="#FF90A7" cx="62.988" cy="77" r="2.5"/>
		<circle id="x2y11" fill="#FF90A7" cx="74.988" cy="77" r="2.5"/>
		<circle id="x3y11" fill="#FF90A7" cx="86.988" cy="77" r="2.5"/>
		<circle id="x4y11" fill="#FF90A7" cx="98.988" cy="77" r="2.5"/>
		<circle id="x5y11" fill="#FF90A7" cx="110.988" cy="77" r="2.5"/>
		<circle id="x6y11" fill="#FF90A7" cx="122.988" cy="77" r="2.5"/>
		<circle id="x7y11" fill="#FF90A7" cx="134.988" cy="77" r="2.5"/>
		<circle id="x8y11" fill="#FF90A7" cx="146.988" cy="77" r="2.5"/>
		<circle id="x9y11" fill="#FF90A7" cx="158.999" cy="77" r="2.5"/>
		<circle id="x10y11" fill="#FF90A7" cx="171.002" cy="77" r="2.5"/>
		<circle id="x11y11" fill="#FF90A7" cx="183.002" cy="77" r="2.5"/>
		<circle id="x12y11" fill="#FF90A7" cx="195.002" cy="77" r="2.5"/>
		<circle id="x13y11" fill="#FF90A7" cx="207.002" cy="77" r="2.5"/>
		<circle id="x14y11" fill="#FF90A7" cx="219.002" cy="77" r="2.5"/>
		<circle id="x15y11" fill="#FF90A7" cx="231.002" cy="77" r="2.5"/>
	</g>
	<g id="f3">
		<circle id="x0y12" fill="#FF90A7" cx="50.988" cy="67.5" r="2.5"/>
		<circle id="x1y12" fill="#FF90A7" cx="62.988" cy="67.5" r="2.5"/>
		<circle id="x2y12" fill="#FF90A7" cx="74.988" cy="67.5" r="2.5"/>
		<circle id="x3y12" fill="#FF90A7" cx="86.988" cy="67.5" r="2.5"/>
		<circle id="x4y12" fill="#FF90A7" cx="98.988" cy="67.5" r="2.5"/>
		<circle id="x5y12" fill="#FF90A7" cx="110.988" cy="67.5" r="2.5"/>
		<circle id="x6y12" fill="#FF90A7" cx="122.988" cy="67.5" r="2.5"/>
		<circle id="x7y12" fill="#FF90A7" cx="134.988" cy="67.5" r="2.5"/>
		<circle id="x8y12" fill="#FF90A7" cx="146.988" cy="67.5" r="2.5"/>
		<circle id="x9y12" fill="#FF90A7" cx="158.999" cy="67.5" r="2.5"/>
		<circle id="x10y12" fill="#FF90A7" cx="171.002" cy="67.5" r="2.5"/>
		<circle id="x11y12" fill="#FF90A7" cx="183.002" cy="67.5" r="2.5"/>
		<circle id="x12y12" fill="#FF90A7" cx="195.002" cy="67.5" r="2.5"/>
		<circle id="x13y12" fill="#FF90A7" cx="207.002" cy="67.5" r="2.5"/>
		<circle id="x14y12" fill="#FF90A7" cx="219.002" cy="67.5" r="2.5"/>
		<circle id="x15y12" fill="#FF90A7" cx="231.002" cy="67.5" r="2.5"/>
	</g>
	<g id="g3">
		<circle id="x0y14" fill="#FF90A7" cx="50.988" cy="58.5" r="2.5"/>
		<circle id="x1y14" fill="#FF90A7" cx="62.988" cy="58.5" r="2.5"/>
		<circle id="x2y14" fill="#FF90A7" cx="74.988" cy="58.5" r="2.5"/>
		<circle id="x3y14" fill="#FF90A7" cx="86.988" cy="58.5" r="2.5"/>
		<circle id="x4y14" fill="#FF90A7" cx="98.988" cy="58.5" r="2.5"/>
		<circle id="x5y14" fill="#FF90A7" cx="110.988" cy="58.5" r="2.5"/>
		<circle id="x6y14" fill="#FF90A7" cx="122.988" cy="58.5" r="2.5"/>
		<circle id="x7y14" fill="#FF90A7" cx="134.988" cy="58.5" r="2.5"/>
		<circle id="x8y14" fill="#FF90A7" cx="146.988" cy="58.5" r="2.5"/>
		<circle id="x9y14" fill="#FF90A7" cx="158.999" cy="58.5" r="2.5"/>
		<circle id="x10y14" fill="#FF90A7" cx="171.002" cy="58.5" r="2.5"/>
		<circle id="x11y14" fill="#FF90A7" cx="183.002" cy="58.5" r="2.5"/>
		<circle id="x12y14" fill="#FF90A7" cx="195.002" cy="58.5" r="2.5"/>
		<circle id="x13y14" fill="#FF90A7" cx="207.002" cy="58.5" r="2.5"/>
		<circle id="x14y14" fill="#FF90A7" cx="219.002" cy="58.5" r="2.5"/>
		<circle id="x15y14" fill="#FF90A7" cx="231.002" cy="58.5" r="2.5"/>
	</g>
	<g id="a3">
		<circle id="x0y16" fill="#FF90A7" cx="50.988" cy="49.5" r="2.5"/>
		<circle id="x1y16" fill="#FF90A7" cx="62.988" cy="49.5" r="2.5"/>
		<circle id="x2y16" fill="#FF90A7" cx="74.988" cy="49.5" r="2.5"/>
		<circle id="x3y16" fill="#FF90A7" cx="86.988" cy="49.5" r="2.5"/>
		<circle id="x4y16" fill="#FF90A7" cx="98.988" cy="49.5" r="2.5"/>
		<circle id="x5y16" fill="#FF90A7" cx="110.988" cy="49.5" r="2.5"/>
		<circle id="x6y16" fill="#FF90A7" cx="122.988" cy="49.5" r="2.5"/>
		<circle id="x7y16" fill="#FF90A7" cx="134.988" cy="49.5" r="2.5"/>
		<circle id="x8y16" fill="#FF90A7" cx="146.988" cy="49.5" r="2.5"/>
		<circle id="x9y16" fill="#FF90A7" cx="158.999" cy="49.5" r="2.5"/>
		<circle id="x10y16" fill="#FF90A7" cx="171.002" cy="49.5" r="2.5"/>
		<circle id="x11y16" fill="#FF90A7" cx="183.002" cy="49.5" r="2.5"/>
		<circle id="x12y16" fill="#FF90A7" cx="195.002" cy="49.5" r="2.5"/>
		<circle id="x13y16" fill="#FF90A7" cx="207.002" cy="49.5" r="2.5"/>
		<circle id="x14y16" fill="#FF90A7" cx="219.002" cy="49.5" r="2.5"/>
		<circle id="x15y16" fill="#FF90A7" cx="231.002" cy="49.5" r="2.5"/>
	</g>
	<g id="b3">
		<circle id="x0y18" fill="#FF90A7" cx="50.988" cy="40.5" r="2.5"/>
		<circle id="x1y18" fill="#FF90A7" cx="62.988" cy="40.5" r="2.5"/>
		<circle id="x2y18" fill="#FF90A7" cx="74.988" cy="40.5" r="2.5"/>
		<circle id="x3y18" fill="#FF90A7" cx="86.988" cy="40.5" r="2.5"/>
		<circle id="x4y18" fill="#FF90A7" cx="98.988" cy="40.5" r="2.5"/>
		<circle id="x5y18" fill="#FF90A7" cx="110.988" cy="40.5" r="2.5"/>
		<circle id="x6y18" fill="#FF90A7" cx="122.988" cy="40.5" r="2.5"/>
		<circle id="x7y18" fill="#FF90A7" cx="134.988" cy="40.5" r="2.5"/>
		<circle id="x8y18" fill="#FF90A7" cx="146.988" cy="40.5" r="2.5"/>
		<circle id="x9y18" fill="#FF90A7" cx="158.999" cy="40.5" r="2.5"/>
		<circle id="x10y18" fill="#FF90A7" cx="171.002" cy="40.5" r="2.5"/>
		<circle id="x11y18" fill="#FF90A7" cx="183.002" cy="40.5" r="2.5"/>
		<circle id="x12y18" fill="#FF90A7" cx="195.002" cy="40.5" r="2.5"/>
		<circle id="x13y18" fill="#FF90A7" cx="207.002" cy="40.5" r="2.5"/>
		<circle id="x14y18" fill="#FF90A7" cx="219.002" cy="40.5" r="2.5"/>
		<circle id="x15y18" fill="#FF90A7" cx="231.002" cy="40.5" r="2.5"/>
	</g>
	<g id="c4">
		<circle id="x0y19" fill="#FF90A7" cx="50.988" cy="31.5" r="2.5"/>
		<circle id="x1y19" fill="#FF90A7" cx="62.988" cy="31.5" r="2.5"/>
		<circle id="x2y19" fill="#FF90A7" cx="74.988" cy="31.5" r="2.5"/>
		<circle id="x3y19" fill="#FF90A7" cx="86.988" cy="31.5" r="2.5"/>
		<circle id="x4y19" fill="#FF90A7" cx="98.988" cy="31.5" r="2.5"/>
		<circle id="x5y19" fill="#FF90A7" cx="110.988" cy="31.5" r="2.5"/>
		<circle id="x6y19" fill="#FF90A7" cx="122.988" cy="31.5" r="2.5"/>
		<circle id="x7y19" fill="#FF90A7" cx="134.988" cy="31.5" r="2.5"/>
		<circle id="x8y19" fill="#FF90A7" cx="146.988" cy="31.5" r="2.5"/>
		<circle id="x9y19" fill="#FF90A7" cx="158.999" cy="31.5" r="2.5"/>
		<circle id="x10y19" fill="#FF90A7" cx="171.002" cy="31.5" r="2.5"/>
		<circle id="x11y19" fill="#FF90A7" cx="183.002" cy="31.5" r="2.5"/>
		<circle id="x12y19" fill="#FF90A7" cx="195.002" cy="31.5" r="2.5"/>
		<circle id="x13y19" fill="#FF90A7" cx="207.002" cy="31.5" r="2.5"/>
		<circle id="x14y19" fill="#FF90A7" cx="219.002" cy="31.5" r="2.5"/>
		<circle id="x15y19" fill="#FF90A7" cx="231.002" cy="31.5" r="2.5"/>
	</g>
	<g id="d4">
		<circle id="x0y21" fill="#FF90A7" cx="50.988" cy="22.5" r="2.5"/>
		<circle id="x1y21" fill="#FF90A7" cx="62.988" cy="22.5" r="2.5"/>
		<circle id="x2y21" fill="#FF90A7" cx="74.988" cy="22.5" r="2.5"/>
		<circle id="x3y21" fill="#FF90A7" cx="86.988" cy="22.5" r="2.5"/>
		<circle id="x4y21" fill="#FF90A7" cx="98.988" cy="22.5" r="2.5"/>
		<circle id="x5y21" fill="#FF90A7" cx="110.988" cy="22.5" r="2.5"/>
		<circle id="x6y21" fill="#FF90A7" cx="122.988" cy="22.5" r="2.5"/>
		<circle id="x7y21" fill="#FF90A7" cx="134.988" cy="22.5" r="2.5"/>
		<circle id="x8y21" fill="#FF90A7" cx="146.988" cy="22.5" r="2.5"/>
		<circle id="x9y21" fill="#FF90A7" cx="158.999" cy="22.5" r="2.5"/>
		<circle id="x10y21" fill="#FF90A7" cx="171.002" cy="22.5" r="2.5"/>
		<circle id="x11y21" fill="#FF90A7" cx="183.002" cy="22.5" r="2.5"/>
		<circle id="x12y21" fill="#FF90A7" cx="195.002" cy="22.5" r="2.5"/>
		<circle id="x13y21" fill="#FF90A7" cx="207.002" cy="22.5" r="2.5"/>
		<circle id="x14y21" fill="#FF90A7" cx="219.002" cy="22.5" r="2.5"/>
		<circle id="x15y21" fill="#FF90A7" cx="231.002" cy="22.5" r="2.5"/>
	</g>
	<g id="e4">
		<circle id="x0y23" fill="#FF90A7" cx="50.988" cy="13.5" r="2.5"/>
		<circle id="x1y23" fill="#FF90A7" cx="62.988" cy="13.5" r="2.5"/>
		<circle id="x2y23" fill="#FF90A7" cx="74.988" cy="13.5" r="2.5"/>
		<circle id="x3y23" fill="#FF90A7" cx="86.988" cy="13.5" r="2.5"/>
		<circle id="x4y23" fill="#FF90A7" cx="98.988" cy="13.5" r="2.5"/>
		<circle id="x5y23" fill="#FF90A7" cx="110.988" cy="13.5" r="2.5"/>
		<circle id="x6y23" fill="#FF90A7" cx="122.988" cy="13.5" r="2.5"/>
		<circle id="x7y23" fill="#FF90A7" cx="134.988" cy="13.5" r="2.5"/>
		<circle id="x8y23" fill="#FF90A7" cx="146.988" cy="13.5" r="2.5"/>
		<circle id="x9y23" fill="#FF90A7" cx="158.999" cy="13.5" r="2.5"/>
		<circle id="x10y23" fill="#FF90A7" cx="171.002" cy="13.5" r="2.5"/>
		<circle id="x11y23" fill="#FF90A7" cx="183.002" cy="13.5" r="2.5"/>
		<circle id="x12y23" fill="#FF90A7" cx="195.002" cy="13.5" r="2.5"/>
		<circle id="x13y23" fill="#FF90A7" cx="207.002" cy="13.5" r="2.5"/>
		<circle id="x14y23" fill="#FF90A7" cx="219.002" cy="13.5" r="2.5"/>
		<circle id="x15y23" fill="#FF90A7" cx="231.002" cy="13.5" r="2.5"/>
	</g>
</g>
<g id="sharp">
	<g id="f_x23_2">
		<circle id="x0y1" fill="#FFFFFF" cx="50.988" cy="126.5" r="2.5"/>
		<circle id="x1y1" fill="#FFFFFF" cx="62.988" cy="126.5" r="2.5"/>
		<circle id="x2y1" fill="#FFFFFF" cx="74.988" cy="126.5" r="2.5"/>
		<circle id="x3y1" fill="#FFFFFF" cx="86.988" cy="126.5" r="2.5"/>
		<circle id="x4y1" fill="#FFFFFF" cx="98.988" cy="126.5" r="2.5"/>
		<circle id="x5y1" fill="#FFFFFF" cx="110.988" cy="126.5" r="2.5"/>
		<circle id="x6y1" fill="#FFFFFF" cx="122.988" cy="126.5" r="2.5"/>
		<circle id="x7y1" fill="#FFFFFF" cx="134.988" cy="126.5" r="2.5"/>
		<circle id="x8y1" fill="#FFFFFF" cx="146.988" cy="126.5" r="2.5"/>
		<circle id="x9y1" fill="#FFFFFF" cx="158.999" cy="126.5" r="2.5"/>
		<circle id="x10y1" fill="#FFFFFF" cx="171.002" cy="126.5" r="2.5"/>
		<circle id="x11y1" fill="#FFFFFF" cx="183.002" cy="126.5" r="2.5"/>
		<circle id="x12y1" fill="#FFFFFF" cx="195.002" cy="126.5" r="2.5"/>
		<circle id="x13y1" fill="#FFFFFF" cx="207.002" cy="126.5" r="2.5"/>
		<circle id="x14y1" fill="#FFFFFF" cx="219.002" cy="126.5" r="2.5"/>
		<circle id="x15y1" fill="#FFFFFF" cx="231.002" cy="126.5" r="2.5"/>
	</g>
	<g id="g_x23_2">
		<circle id="x0y3" fill="#FFFFFF" cx="50.988" cy="117.5" r="2.5"/>
		<circle id="x1y3" fill="#FFFFFF" cx="62.988" cy="117.5" r="2.5"/>
		<circle id="x2y3" fill="#FFFFFF" cx="74.988" cy="117.5" r="2.5"/>
		<circle id="x3y3" fill="#FFFFFF" cx="86.988" cy="117.5" r="2.5"/>
		<circle id="x4y3" fill="#FFFFFF" cx="98.988" cy="117.5" r="2.5"/>
		<circle id="x5y3" fill="#FFFFFF" cx="110.988" cy="117.5" r="2.5"/>
		<circle id="x6y3" fill="#FFFFFF" cx="122.988" cy="117.5" r="2.5"/>
		<circle id="x7y3" fill="#FFFFFF" cx="134.988" cy="117.5" r="2.5"/>
		<circle id="x8y3" fill="#FFFFFF" cx="146.988" cy="117.5" r="2.5"/>
		<circle id="x9y3" fill="#FFFFFF" cx="158.999" cy="117.5" r="2.5"/>
		<circle id="x10y3" fill="#FFFFFF" cx="171.002" cy="117.5" r="2.5"/>
		<circle id="x11y3" fill="#FFFFFF" cx="183.002" cy="117.5" r="2.5"/>
		<circle id="x12y3" fill="#FFFFFF" cx="195.002" cy="117.5" r="2.5"/>
		<circle id="x13y3" fill="#FFFFFF" cx="207.002" cy="117.5" r="2.5"/>
		<circle id="x14y3" fill="#FFFFFF" cx="219.002" cy="117.5" r="2.5"/>
		<circle id="x15y3" fill="#FFFFFF" cx="231.002" cy="117.5" r="2.5"/>
	</g>
	<g id="a_x23_2">
		<circle id="x0y5" fill="#FFFFFF" cx="50.988" cy="108.5" r="2.5"/>
		<circle id="x1y5" fill="#FFFFFF" cx="62.988" cy="108.5" r="2.5"/>
		<circle id="x2y5" fill="#FFFFFF" cx="74.988" cy="108.5" r="2.5"/>
		<circle id="x3y5" fill="#FFFFFF" cx="86.988" cy="108.5" r="2.5"/>
		<circle id="x4y5" fill="#FFFFFF" cx="98.988" cy="108.5" r="2.5"/>
		<circle id="x5y5" fill="#FFFFFF" cx="110.988" cy="108.5" r="2.5"/>
		<circle id="x6y5" fill="#FFFFFF" cx="122.988" cy="108.5" r="2.5"/>
		<circle id="x7y5" fill="#FFFFFF" cx="134.988" cy="108.5" r="2.5"/>
		<circle id="x8y5" fill="#FFFFFF" cx="146.988" cy="108.5" r="2.5"/>
		<circle id="x9y5" fill="#FFFFFF" cx="158.999" cy="108.5" r="2.5"/>
		<circle id="x10y5" fill="#FFFFFF" cx="171.002" cy="108.5" r="2.5"/>
		<circle id="x11y5" fill="#FFFFFF" cx="183.002" cy="108.5" r="2.5"/>
		<circle id="x12y5" fill="#FFFFFF" cx="195.002" cy="108.5" r="2.5"/>
		<circle id="x13y5" fill="#FFFFFF" cx="207.002" cy="108.5" r="2.5"/>
		<circle id="x14y5" fill="#FFFFFF" cx="219.002" cy="108.5" r="2.5"/>
		<circle id="x15y5" fill="#FFFFFF" cx="231.002" cy="108.5" r="2.5"/>
	</g>
	<g id="c_x23_3">
		<circle id="x0y8" fill="#FFFFFF" cx="50.988" cy="90.5" r="2.5"/>
		<circle id="x1y8" fill="#FFFFFF" cx="62.988" cy="90.5" r="2.5"/>
		<circle id="x2y8" fill="#FFFFFF" cx="74.988" cy="90.5" r="2.5"/>
		<circle id="x3y8" fill="#FFFFFF" cx="86.988" cy="90.5" r="2.5"/>
		<circle id="x4y8" fill="#FFFFFF" cx="98.988" cy="90.5" r="2.5"/>
		<circle id="x5y8" fill="#FFFFFF" cx="110.988" cy="90.5" r="2.5"/>
		<circle id="x6y8" fill="#FFFFFF" cx="122.988" cy="90.5" r="2.5"/>
		<circle id="x7y8" fill="#FFFFFF" cx="134.988" cy="90.5" r="2.5"/>
		<circle id="x8y8" fill="#FFFFFF" cx="146.988" cy="90.5" r="2.5"/>
		<circle id="x9y8" fill="#FFFFFF" cx="158.999" cy="90.5" r="2.5"/>
		<circle id="x10y8" fill="#FFFFFF" cx="171.002" cy="90.5" r="2.5"/>
		<circle id="x11y8" fill="#FFFFFF" cx="183.002" cy="90.5" r="2.5"/>
		<circle id="x12y8" fill="#FFFFFF" cx="195.002" cy="90.5" r="2.5"/>
		<circle id="x13y8" fill="#FFFFFF" cx="207.002" cy="90.5" r="2.5"/>
		<circle id="x14y8" fill="#FFFFFF" cx="219.002" cy="90.5" r="2.5"/>
		<circle id="x15y8" fill="#FFFFFF" cx="231.002" cy="90.5" r="2.5"/>
	</g>
	<g id="d_x23_3">
		<circle id="x0y10" fill="#FFFFFF" cx="50.988" cy="82" r="2.5"/>
		<circle id="x1y10" fill="#FFFFFF" cx="62.988" cy="82" r="2.5"/>
		<circle id="x2y10" fill="#FFFFFF" cx="74.988" cy="82" r="2.5"/>
		<circle id="x3y10" fill="#FFFFFF" cx="86.988" cy="82" r="2.5"/>
		<circle id="x4y10" fill="#FFFFFF" cx="98.988" cy="82" r="2.5"/>
		<circle id="x5y10" fill="#FFFFFF" cx="110.988" cy="82" r="2.5"/>
		<circle id="x6y10" fill="#FFFFFF" cx="122.988" cy="82" r="2.5"/>
		<circle id="x7y10" fill="#FFFFFF" cx="134.988" cy="82" r="2.5"/>
		<circle id="x8y10" fill="#FFFFFF" cx="146.988" cy="82" r="2.5"/>
		<circle id="x9y10" fill="#FFFFFF" cx="158.999" cy="82" r="2.5"/>
		<circle id="x10y10" fill="#FFFFFF" cx="171.002" cy="82" r="2.5"/>
		<circle id="x11y10" fill="#FFFFFF" cx="183.002" cy="82" r="2.5"/>
		<circle id="x12y10" fill="#FFFFFF" cx="195.002" cy="82" r="2.5"/>
		<circle id="x13y10" fill="#FFFFFF" cx="207.002" cy="82" r="2.5"/>
		<circle id="x14y10" fill="#FFFFFF" cx="219.002" cy="82" r="2.5"/>
		<circle id="x15y10" fill="#FFFFFF" cx="231.002" cy="82" r="2.5"/>
	</g>
	<g id="f_x23_3">
		<circle id="x0y13" fill="#FFFFFF" cx="50.988" cy="63.5" r="2.5"/>
		<circle id="x1y13" fill="#FFFFFF" cx="62.988" cy="63.5" r="2.5"/>
		<circle id="x2y13" fill="#FFFFFF" cx="74.988" cy="63.5" r="2.5"/>
		<circle id="x3y13" fill="#FFFFFF" cx="86.988" cy="63.5" r="2.5"/>
		<circle id="x4y13" fill="#FFFFFF" cx="98.988" cy="63.5" r="2.5"/>
		<circle id="x5y13" fill="#FFFFFF" cx="110.988" cy="63.5" r="2.5"/>
		<circle id="x6y13" fill="#FFFFFF" cx="122.988" cy="63.5" r="2.5"/>
		<circle id="x7y13" fill="#FFFFFF" cx="134.988" cy="63.5" r="2.5"/>
		<circle id="x8y13" fill="#FFFFFF" cx="146.988" cy="63.5" r="2.5"/>
		<circle id="x9y13" fill="#FFFFFF" cx="158.999" cy="63.5" r="2.5"/>
		<circle id="x10y13" fill="#FFFFFF" cx="171.002" cy="63.5" r="2.5"/>
		<circle id="x11y13" fill="#FFFFFF" cx="183.002" cy="63.5" r="2.5"/>
		<circle id="x12y13" fill="#FFFFFF" cx="195.002" cy="63.5" r="2.5"/>
		<circle id="x13y13" fill="#FFFFFF" cx="207.002" cy="63.5" r="2.5"/>
		<circle id="x14y13" fill="#FFFFFF" cx="219.002" cy="63.5" r="2.5"/>
		<circle id="x15y13" fill="#FFFFFF" cx="231.002" cy="63.5" r="2.5"/>
	</g>
	<g id="g_x23_3">
		<circle id="x0y15" fill="#FFFFFF" cx="50.988" cy="54.5" r="2.5"/>
		<circle id="x1y15" fill="#FFFFFF" cx="62.988" cy="54.5" r="2.5"/>
		<circle id="x2y15" fill="#FFFFFF" cx="74.988" cy="54.5" r="2.5"/>
		<circle id="x3y15" fill="#FFFFFF" cx="86.988" cy="54.5" r="2.5"/>
		<circle id="x4y15" fill="#FFFFFF" cx="98.988" cy="54.5" r="2.5"/>
		<circle id="x5y15" fill="#FFFFFF" cx="110.988" cy="54.5" r="2.5"/>
		<circle id="x6y15" fill="#FFFFFF" cx="122.988" cy="54.5" r="2.5"/>
		<circle id="x7y15" fill="#FFFFFF" cx="134.988" cy="54.5" r="2.5"/>
		<circle id="x8y15" fill="#FFFFFF" cx="146.988" cy="54.5" r="2.5"/>
		<circle id="x9y15" fill="#FFFFFF" cx="158.999" cy="54.5" r="2.5"/>
		<circle id="x10y15" fill="#FFFFFF" cx="171.002" cy="54.5" r="2.5"/>
		<circle id="x11y15" fill="#FFFFFF" cx="183.002" cy="54.5" r="2.5"/>
		<circle id="x12y15" fill="#FFFFFF" cx="195.002" cy="54.5" r="2.5"/>
		<circle id="x13y15" fill="#FFFFFF" cx="207.002" cy="54.5" r="2.5"/>
		<circle id="x14y15" fill="#FFFFFF" cx="219.002" cy="54.5" r="2.5"/>
		<circle id="x15y15" fill="#FFFFFF" cx="231.002" cy="54.5" r="2.5"/>
	</g>
	<g id="a_x23_3">
		<circle id="x0y17" fill="#FFFFFF" cx="50.988" cy="45.5" r="2.5"/>
		<circle id="x1y17" fill="#FFFFFF" cx="62.988" cy="45.5" r="2.5"/>
		<circle id="x2y17" fill="#FFFFFF" cx="74.988" cy="45.5" r="2.5"/>
		<circle id="x3y17" fill="#FFFFFF" cx="86.988" cy="45.5" r="2.5"/>
		<circle id="x4y17" fill="#FFFFFF" cx="98.988" cy="45.5" r="2.5"/>
		<circle id="x5y17" fill="#FFFFFF" cx="110.988" cy="45.5" r="2.5"/>
		<circle id="x6y17" fill="#FFFFFF" cx="122.988" cy="45.5" r="2.5"/>
		<circle id="x7y17" fill="#FFFFFF" cx="134.988" cy="45.5" r="2.5"/>
		<circle id="x8y17" fill="#FFFFFF" cx="146.988" cy="45.5" r="2.5"/>
		<circle id="x9y17" fill="#FFFFFF" cx="158.999" cy="45.5" r="2.5"/>
		<circle id="x10y17" fill="#FFFFFF" cx="171.002" cy="45.5" r="2.5"/>
		<circle id="x11y17" fill="#FFFFFF" cx="183.002" cy="45.5" r="2.5"/>
		<circle id="x12y17" fill="#FFFFFF" cx="195.002" cy="45.5" r="2.5"/>
		<circle id="x13y17" fill="#FFFFFF" cx="207.002" cy="45.5" r="2.5"/>
		<circle id="x14y17" fill="#FFFFFF" cx="219.002" cy="45.5" r="2.5"/>
		<circle id="x15y17" fill="#FFFFFF" cx="231.002" cy="45.5" r="2.5"/>
	</g>
	<g id="c_x23_4">
		<circle id="x0y20" fill="#FFFFFF" cx="50.988" cy="27.5" r="2.5"/>
		<circle id="x1y20" fill="#FFFFFF" cx="62.988" cy="27.5" r="2.5"/>
		<circle id="x2y20" fill="#FFFFFF" cx="74.988" cy="27.5" r="2.5"/>
		<circle id="x3y20" fill="#FFFFFF" cx="86.988" cy="27.5" r="2.5"/>
		<circle id="x4y20" fill="#FFFFFF" cx="98.988" cy="27.5" r="2.5"/>
		<circle id="x5y20" fill="#FFFFFF" cx="110.988" cy="27.5" r="2.5"/>
		<circle id="x6y20" fill="#FFFFFF" cx="122.988" cy="27.5" r="2.5"/>
		<circle id="x7y20" fill="#FFFFFF" cx="134.988" cy="27.5" r="2.5"/>
		<circle id="x8y20" fill="#FFFFFF" cx="146.988" cy="27.5" r="2.5"/>
		<circle id="x9y20" fill="#FFFFFF" cx="158.999" cy="27.5" r="2.5"/>
		<circle id="x10y20" fill="#FFFFFF" cx="171.002" cy="27.5" r="2.5"/>
		<circle id="x11y20" fill="#FFFFFF" cx="183.002" cy="27.5" r="2.5"/>
		<circle id="x12y20" fill="#FFFFFF" cx="195.002" cy="27.5" r="2.5"/>
		<circle id="x13y20" fill="#FFFFFF" cx="207.002" cy="27.5" r="2.5"/>
		<circle id="x14y20" fill="#FFFFFF" cx="219.002" cy="27.5" r="2.5"/>
		<circle id="x15y20" fill="#FFFFFF" cx="231.002" cy="27.5" r="2.5"/>
	</g>
	<g id="d_x23_4">
		<circle id="x0y22" fill="#FFFFFF" cx="50.988" cy="18.5" r="2.5"/>
		<circle id="x1y22" fill="#FFFFFF" cx="62.988" cy="18.5" r="2.5"/>
		<circle id="x2y22" fill="#FFFFFF" cx="74.988" cy="18.5" r="2.5"/>
		<circle id="x3y22" fill="#FFFFFF" cx="86.988" cy="18.5" r="2.5"/>
		<circle id="x4y22" fill="#FFFFFF" cx="98.988" cy="18.5" r="2.5"/>
		<circle id="x5y22" fill="#FFFFFF" cx="110.988" cy="18.5" r="2.5"/>
		<circle id="x6y22" fill="#FFFFFF" cx="122.988" cy="18.5" r="2.5"/>
		<circle id="x7y22" fill="#FFFFFF" cx="134.988" cy="18.5" r="2.5"/>
		<circle id="x8y22" fill="#FFFFFF" cx="146.988" cy="18.5" r="2.5"/>
		<circle id="x9y22" fill="#FFFFFF" cx="158.999" cy="18.5" r="2.5"/>
		<circle id="x10y22" fill="#FFFFFF" cx="171.002" cy="18.5" r="2.5"/>
		<circle id="x11y22" fill="#FFFFFF" cx="183.002" cy="18.5" r="2.5"/>
		<circle id="x12y22" fill="#FFFFFF" cx="195.002" cy="18.5" r="2.5"/>
		<circle id="x13y22" fill="#FFFFFF" cx="207.002" cy="18.5" r="2.5"/>
		<circle id="x14y22" fill="#FFFFFF" cx="219.002" cy="18.5" r="2.5"/>
		<circle id="x15y22" fill="#FFFFFF" cx="231.002" cy="18.5" r="2.5"/>
	</g>
</g>
<g id="hold">
	<path id="d_8_" fill="none" stroke="#FF3A5D" stroke-width="1.5" stroke-linecap="square" d="M289.744,63.999
		c1.531,0,2.771-1.24,2.771-2.771v-5.543c0-1.531-1.24-2.771-2.771-2.771h-2.77v11.084L289.744,63.999L289.744,63.999z"/>
	<path id="o_20_" fill="none" stroke="#FF3A5D" stroke-width="1.5" stroke-linecap="square" d="M270.9,55.963v4.988
		c0,1.684,1.365,3.049,3.049,3.049c1.686,0,3.051-1.365,3.051-3.049l0,0l0,0v-4.988c0-1.685-1.365-3.049-3.051-3.049
		C272.266,52.915,270.9,54.279,270.9,55.963L270.9,55.963L270.9,55.963L270.9,55.963z"/>
	<g id="h_9_">
		<line fill="none" stroke="#FF3A5D" stroke-width="1.5" stroke-linecap="square" x1="262.586" y1="52.915" x2="262.586" y2="64"/>
		<line fill="none" stroke="#FF3A5D" stroke-width="1.5" stroke-linecap="square" x1="268.129" y1="52.915" x2="268.129" y2="64"/>
		
			<line fill="none" stroke="#FF3A5D" stroke-width="1.5" stroke-linecap="square" x1="262.586" y1="58.458" x2="268.129" y2="58.458"/>
	</g>
	<polyline id="l_15_" fill="none" stroke="#FF3A5D" stroke-width="1.5" stroke-linecap="square" points="279.768,52.915 
		279.768,63.999 284.756,63.999 	"/>
	
		<rect x="258.154" y="49.588" fill="none" stroke="#FF3A5D" stroke-width="1.5" stroke-linecap="square" width="38.795" height="17.735"/>
</g>
<g id="rubber">
	<polyline fill="none" stroke="#698EFF" stroke-width="1.5" points="14.724,22.309 23.649,13.383 35.767,13.383 35.767,21.957 
		26.843,30.882 	"/>
	<line fill="none" stroke="#698EFF" stroke-width="1.5" x1="35.767" y1="13.383" x2="26.843" y2="22.309"/>
	<rect x="14.724" y="22.309" fill="none" stroke="#698EFF" stroke-width="1.5" width="12.118" height="8.573"/>
</g>
<g id="swing">
	<path fill="none" stroke="#00ED95" stroke-width="1.5" stroke-linecap="square" d="M268.5,13.508h-13.326V33.5
		c0-3.681,2.984-6.664,6.664-6.664c3.684,0,6.662,2.983,6.662,6.664c0,3.68-2.979,6.663-6.662,6.663h-6.664"/>
	<path fill="none" stroke="#00ED95" stroke-width="1.5" stroke-linecap="square" d="M285.826,13.508H272.5V33.5
		c0-3.681,2.982-6.664,6.664-6.664c3.684,0,6.662,2.983,6.662,6.664c0,3.68-2.979,6.663-6.662,6.663H272.5"/>
	<polyline fill="none" stroke="#00ED95" stroke-width="1.5" stroke-linecap="square" points="289.824,40.164 289.824,38.832 
		304.486,14.842 304.486,13.508 	"/>
	<path fill="none" stroke="#00ED95" stroke-width="1.5" stroke-linecap="square" d="M295.393,22.885c0,1.732-1.396,3.137-3.14,3.137
		c-1.729,0-3.14-1.404-3.14-3.137V16.61c0-1.733,1.404-3.138,3.14-3.138s3.14,1.404,3.14,3.138V22.885z"/>
	<path fill="none" stroke="#00ED95" stroke-width="1.5" stroke-linecap="square" d="M304.666,37.252
		c0,1.732-1.402,3.137-3.139,3.137c-1.734,0-3.146-1.403-3.146-3.137v-6.276c0-1.734,1.402-3.14,3.146-3.14
		c1.729,0,3.139,1.402,3.139,3.14V37.252z"/>
</g>
<g id="editptr">
	<polyline fill="none" stroke="#FFFFFF" stroke-width="1.5" stroke-linecap="square" points="37.068,17.753 37.705,17.753 
		42.614,13.5 37.705,9.249 37.068,9.249 	"/>
	<line fill="none" stroke="#FFFFFF" stroke-width="1.5" stroke-linecap="square" x1="38.165" y1="13.5" x2="28.049" y2="13.5"/>
</g>
<g id="pm_1_">
	<g id="rev_1_">
		<path fill="none" stroke="#FF3A5D" stroke-width="1.5" stroke-linecap="square" d="M288.166,99.758V77.082h-17.01
			c-2.818,0-5.102,2.537-5.102,5.672l0,0c0,3.131,2.274,5.668,5.102,5.668h15.988"/>
		<polyline fill="none" stroke="#FF3A5D" stroke-width="1.5" stroke-linecap="square" points="276.828,88.818 266.68,98.895 
			266.68,99.758 		"/>
	</g>
	<g id="fwd_1_">
		<polyline fill="none" stroke="#FF3A5D" stroke-width="1.5" stroke-linecap="square" points="282.041,96.926 282.605,96.926 
			291.453,88.422 282.605,79.915 281.758,79.915 		"/>
		
			<line fill="none" stroke="#FF3A5D" stroke-width="1.5" stroke-linecap="square" x1="262.766" y1="88.422" x2="282.605" y2="88.422"/>
	</g>
	<g id="cycle_1_">
		<polyline fill="none" stroke="#FF3A5D" stroke-width="1.5" stroke-linecap="square" points="270.332,77.08 269.482,77.08 
			262.936,82.75 269.482,88.42 270.332,88.42 		"/>
		<polyline fill="none" stroke="#FF3A5D" stroke-width="1.5" stroke-linecap="square" points="283.889,99.76 284.736,99.76 
			291.283,94.09 284.736,88.42 283.889,88.42 		"/>
		
			<line fill="none" stroke="#FF3A5D" stroke-width="1.5" stroke-linecap="square" x1="268.605" y1="82.75" x2="282.779" y2="82.75"/>
		
			<line fill="none" stroke="#FF3A5D" stroke-width="1.5" stroke-linecap="square" x1="285.613" y1="94.09" x2="268.605" y2="94.09"/>
	</g>
</g>
</svg>
