<?xml version="1.0" encoding="utf-8"?>
<!-- Generator: Adobe Illustrator 14.0.0, SVG Export Plug-In . SVG Version: 6.00 Build 43363)  -->
<!DOCTYPE svg PUBLIC "-//W3C//DTD SVG 1.1//EN" "http://www.w3.org/Graphics/SVG/1.1/DTD/svg11.dtd">
<svg version="1.1" id="Layer_1" xmlns="http://www.w3.org/2000/svg" xmlns:xlink="http://www.w3.org/1999/xlink" x="0px" y="0px"
	 width="320px" height="160px" viewBox="0 0 320 160" enable-background="new 0 0 320 160" xml:space="preserve">
<g id="static">
	<polyline fill="none" stroke="#698EFF" stroke-width="1.7725" stroke-linecap="square" points="27.5,30.8 27.5,30.1 28.9,25.5 
		35.2,25.5 36.5,30.1 36.5,30.8 	"/>
	<polyline fill="none" stroke="#698EFF" stroke-width="1.7725" stroke-linecap="square" points="35.2,25.5 32.9,17.5 31.2,17.5 
		28.9,25.5 	"/>
	<polyline fill="none" stroke="#FF3A5D" stroke-width="1.3338" stroke-linecap="square" points="243.9,17.7 239,24.3 244.8,24.3 
		239.9,31 	"/>
	<polyline fill="none" stroke="#FF3A5D" stroke-width="1.3338" stroke-linecap="square" points="284.199,17.7 284.199,18.3 
		287.9,31 288.6,31 292.199,18.3 292.199,17.7 	"/>
</g>
<g id="left_1_">
	<path id="r_1_" fill="#00ED95" d="M77.7,90.2c-1.8-1-2.5-3.2-1.6-5c1-1.8,3.2-2.5,5-1.601c1.8,1,2.5,3.196,1.6,5
		C81.8,90.5,79.5,91.2,77.7,90.2"/>
	<line fill="none" stroke="#00ED95" stroke-width="1.5" stroke-linecap="square" x1="79.4" y1="72.8" x2="79.4" y2="58.6"/>
	<line fill="none" stroke="#00ED95" stroke-width="1.5" stroke-linecap="square" x1="86.5" y1="65.7" x2="72.4" y2="65.7"/>
</g>
<g id="right">
	<path id="l_1_" fill="#00ED95" d="M233.5,90.2c-1.8-1-2.5-3.2-1.6-5c1-1.8,3.199-2.5,5-1.601c1.799,1,2.5,3.196,1.6,5
		C237.5,90.5,235.3,91.2,233.5,90.2"/>
	<line fill="none" stroke="#00ED95" stroke-width="1.5" stroke-linecap="square" x1="242.301" y1="65.7" x2="228.1" y2="65.7"/>
</g>
<g id="volts_1_">
	<path fill="none" stroke="#FF3A5D" stroke-width="1.3338" stroke-linecap="square" d="M278,27.7c0,1.8-1.5,3.3-3.301,3.3
		c-1.799,0-3.299-1.5-3.299-3.3V21c0-1.8,1.5-3.3,3.299-3.3C276.5,17.7,278,19.2,278,21V27.7z"/>
	<circle fill="none" stroke="#FF3A5D" stroke-width="1.3338" stroke-linecap="square" cx="264.8" cy="21" r="3.3"/>
	<circle fill="none" stroke="#FF3A5D" stroke-width="1.3338" stroke-linecap="square" cx="264.8" cy="27.7" r="3.3"/>
	<line fill="none" stroke="#FF3A5D" stroke-width="1.3338" stroke-linecap="square" x1="257.5" y1="17.7" x2="257.5" y2="31"/>
</g>
<line id="ampbase_1_" fill="none" stroke="#000000" stroke-width="2" stroke-linecap="square" x1="61" y1="44.4" x2="61" y2="44.4"/>
<line id="amp_1_" fill="none" stroke="#FF3A5D" stroke-width="1.417" stroke-linecap="square" x1="61.5" y1="12.3" x2="61.5" y2="46"/>
<line fill="none" stroke="#698EFF" stroke-width="1.883" stroke-linecap="square" x1="78.2" y1="31.1" x2="44.7" y2="31.1"/>
<rect x="38.1" y="10.9" fill="#010101" width="50" height="9.6"/>
<polygon fill="#010101" points="43.4,31.6 80.4,31.6 80.1,49.5 43.1,49.5 "/>
</svg>
