<?xml version="1.0" encoding="utf-8"?>
<!-- Generator: Adobe Illustrator 14.0.0, SVG Export Plug-In . SVG Version: 6.00 Build 43363)  -->
<!DOCTYPE svg PUBLIC "-//W3C//DTD SVG 1.1//EN" "http://www.w3.org/Graphics/SVG/1.1/DTD/svg11.dtd">
<svg version="1.1" id="Layer_1" xmlns="http://www.w3.org/2000/svg" xmlns:xlink="http://www.w3.org/1999/xlink" x="0px" y="0px"
	 width="320px" height="160px" viewBox="0 0 320 160" enable-background="new 0 0 320 160" xml:space="preserve">
<g id="static">
	<path fill="none" stroke="#698EFF" stroke-width="1.5" stroke-linecap="square" d="M91.087,31.27c0,0,1.173-2.042,2.656-2.214
		c1.022-0.118,1.391,0.108,1.778,0.509c0,0-0.104,0.739-1.198,0.972c-0.966,0.205-1.561-0.318-1.898-0.627"/>
	<path fill="none" stroke="#656579" stroke-width="1.5" d="M100.251,41.24c0,0,8.162,0.206,13.2,4.823
		c6.611,6.061,11.431,13.562,19.749,10.297"/>
	<path fill="none" stroke="#656579" stroke-width="1.5" d="M99.452,46.015c0,0,7.022,0.03,11.916,5.222
		c2.374,2.52,8.348,13.953,19.354,16.953c3.518,0.959,3.518,0.959,6.927,3.839"/>
	<path fill="none" stroke="#FF3A5D" stroke-width="1.5" stroke-linecap="square" d="M199.359,59.594h7.703
		c1.436,0,2.6-1.164,2.6-2.604l0.021-8.069c0-1.438,1.168-2.602,2.604-2.602c1.439,0,2.605,1.164,2.605,2.602v8.069
		c0,1.439,1.166,2.604,2.604,2.604s2.604-1.164,2.604-2.604l0.062-8.069c0-1.438,1.167-2.602,2.604-2.602
		c1.438,0,2.604,1.164,2.604,2.602v8.069c0,1.439,1.165,2.604,2.604,2.604c1.438,0,2.604-1.164,2.604-2.604l-0.021-8.177
		c0-1.437,1.17-2.601,2.604-2.601h5.114"/>
	<g>
		<path fill="none" stroke="#698EFF" stroke-width="1.5" stroke-linecap="square" d="M22.991,15.011v-8.16h2.177
			c1.125,0,2.039,0.913,2.039,2.04c0,1.126-0.914,2.041-2.039,2.041h-1.297l2.928,3.876v0.204"/>
		<polyline fill="none" stroke="#698EFF" stroke-width="1.5" stroke-linecap="square" points="32.785,15.012 29.655,15.012 
			29.655,6.853 32.785,6.853 		"/>
		
			<line fill="none" stroke="#698EFF" stroke-width="1.5" stroke-linecap="square" x1="29.927" y1="10.931" x2="32.378" y2="10.931"/>
		<polyline fill="none" stroke="#698EFF" stroke-width="1.5" stroke-linecap="square" points="17.083,15.012 17.083,6.853 
			20.543,6.853 		"/>
		
			<line fill="none" stroke="#698EFF" stroke-width="1.5" stroke-linecap="square" x1="17.083" y1="10.931" x2="20.135" y2="10.931"/>
		<path fill="none" stroke="#698EFF" stroke-width="1.5" stroke-linecap="square" d="M37.774,15.012
			c1.239,0,2.245-1.004,2.245-2.244v0.001v-0.001V9.097c0-1.24-1.005-2.243-2.245-2.243H37.34c-1.235,0-2.241,1.003-2.241,2.243
			v3.671c0,1.24,1.006,2.244,2.241,2.244H37.774z"/>
		<polyline fill="none" stroke="#698EFF" stroke-width="1.5" stroke-linecap="square" points="38.387,13.176 38.387,13.38 
			40.02,14.833 40.02,15.012 		"/>
	</g>
	<g>
		
			<line fill="none" stroke="#8A5E4F" stroke-width="1.5" stroke-linecap="square" x1="29.247" y1="21.556" x2="29.247" y2="25.591"/>
		
			<line fill="none" stroke="#8A5E4F" stroke-width="1.5" stroke-linecap="square" x1="46.058" y1="38.367" x2="42.023" y2="38.367"/>
		
			<line fill="none" stroke="#8A5E4F" stroke-width="1.5" stroke-linecap="square" x1="12.435" y1="38.367" x2="16.471" y2="38.367"/>
		<line fill="none" stroke="#8A5E4F" stroke-width="1.5" stroke-linecap="square" x1="41.133" y1="26.479" x2="38.28" y2="29.334"/>
		<line fill="none" stroke="#8A5E4F" stroke-width="1.5" stroke-linecap="square" x1="17.36" y1="26.479" x2="20.213" y2="29.333"/>
	</g>
	<g>
		<path fill="none" stroke="#9256D7" stroke-width="1.5" stroke-linecap="square" d="M15.898,59.171c1.127,0,2.04-0.915,2.04-2.039
			V53.05c0-1.125-0.913-2.04-2.04-2.04h-2.04v8.161H15.898z"/>
		<polyline fill="none" stroke="#9256D7" stroke-width="1.5" stroke-linecap="square" points="38.593,51.011 38.593,51.418 
			40.919,55.498 43.244,51.418 43.244,51.011 		"/>
		
			<line fill="none" stroke="#9256D7" stroke-width="1.5" stroke-linecap="square" x1="40.919" y1="55.499" x2="40.919" y2="59.171"/>
		<polyline fill="none" stroke="#9256D7" stroke-width="1.5" stroke-linecap="square" points="24.738,59.171 21.065,59.171 
			21.065,51.011 24.738,51.011 		"/>
		<line fill="none" stroke="#9256D7" stroke-width="1.5" stroke-linecap="square" x1="21.065" y1="55.09" x2="24.329" y2="55.09"/>
		<polyline fill="none" stroke="#9256D7" stroke-width="1.5" stroke-linecap="square" points="27.729,51.011 27.729,59.171 
			31.808,59.171 		"/>
		<polyline fill="none" stroke="#9256D7" stroke-width="1.5" stroke-linecap="square" points="32.469,59.171 32.469,58.967 
			34.713,51.011 35.122,51.011 37.365,58.967 37.365,59.171 		"/>
		
			<line fill="none" stroke="#9256D7" stroke-width="1.5" stroke-linecap="square" x1="33.558" y1="56.315" x2="36.277" y2="56.315"/>
	</g>
	<g>
		<polyline fill="none" stroke="#8A5E4F" stroke-width="1.5" stroke-linecap="square" points="29.352,112.795 29.352,112.591 
			31.595,104.634 32.005,104.634 34.248,112.591 34.248,112.795 		"/>
		
			<line fill="none" stroke="#8A5E4F" stroke-width="1.5" stroke-linecap="square" x1="30.439" y1="109.938" x2="33.16" y2="109.938"/>
		<path fill="none" stroke="#8A5E4F" stroke-width="1.5" stroke-linecap="square" d="M19.238,112.795
			c1.126,0,2.041-0.914,2.041-2.042v-4.08c0-1.126-0.914-2.039-2.041-2.039h-2.04v8.161H19.238L19.238,112.795z"/>
		<path fill="none" stroke="#8A5E4F" stroke-width="1.5" stroke-linecap="square" d="M40.309,110.753
			c0,1.128-0.914,2.042-2.04,2.042s-2.04-0.914-2.04-2.042v-4.08c0-1.126,0.914-2.039,2.04-2.039s2.04,0.913,2.04,2.039"/>
		<polyline fill="none" stroke="#8A5E4F" stroke-width="1.5" stroke-linecap="square" points="10.915,112.795 10.915,104.634 
			14.587,104.634 		"/>
		
			<line fill="none" stroke="#8A5E4F" stroke-width="1.5" stroke-linecap="square" x1="10.915" y1="108.713" x2="14.178" y2="108.713"/>
		<path fill="none" stroke="#8A5E4F" stroke-width="1.5" stroke-linecap="square" d="M23.771,112.795v-8.16h1.633
			c1.126,0,2.04,0.913,2.04,2.039c0,1.127-0.914,2.04-2.04,2.04h-1.633"/>
		<path fill="none" stroke="#8A5E4F" stroke-width="1.5" stroke-linecap="square" d="M23.771,108.713h1.633
			c1.126,0,2.04,0.914,2.04,2.041s-0.914,2.041-2.04,2.041h-1.633"/>
		
			<line fill="none" stroke="#8A5E4F" stroke-width="1.5" stroke-linecap="square" x1="42.931" y1="104.634" x2="42.931" y2="112.795"/>
		<polyline fill="none" stroke="#8A5E4F" stroke-width="1.5" stroke-linecap="square" points="47.011,104.634 47.011,104.839 
			43.266,109.717 		"/>
		<polyline fill="none" stroke="#8A5E4F" stroke-width="1.5" stroke-linecap="square" points="44.155,108.51 47.418,112.591 
			47.419,112.793 		"/>
	</g>
	<g>
		
			<rect x="257.811" y="6.852" fill="none" stroke="#FF3A5D" stroke-width="1.5" stroke-linecap="square" width="53.85" height="13.601"/>
		
			<line fill="none" stroke="#FF3A5D" stroke-width="1.5" stroke-linecap="square" x1="268.418" y1="9.572" x2="268.418" y2="17.733"/>
		<path fill="none" stroke="#FF3A5D" stroke-width="1.5" stroke-linecap="square" d="M261.598,15.692c0,1.126,0.914,2.04,2.041,2.04
			s2.035-0.914,2.035-2.04c0-0.459-0.311-1.083-0.876-1.431c-0.485-0.304-1.89-0.889-2.374-1.199c-0.6-0.384-0.826-0.99-0.826-1.448
			c0-1.127,0.911-2.04,2.041-2.04c1.127,0,2.035,0.913,2.035,2.04"/>
		<path fill="none" stroke="#FF3A5D" stroke-width="1.5" stroke-linecap="square" d="M305.829,17.733
			c1.126,0,2.041-0.914,2.041-2.04v-4.08c0-1.126-0.915-2.04-2.041-2.04h-2.04v8.16H305.829z"/>
		<path fill="none" stroke="#FF3A5D" stroke-width="1.5" stroke-linecap="square" d="M273.33,17.733c1.125,0,2.041-0.914,2.041-2.04
			v-4.08c0-1.126-0.915-2.04-2.041-2.04h-2.04v8.16H273.33z"/>
		<polyline fill="none" stroke="#FF3A5D" stroke-width="1.5" stroke-linecap="square" points="281.6,17.733 277.925,17.733 
			277.925,9.572 281.6,9.572 		"/>
		
			<line fill="none" stroke="#FF3A5D" stroke-width="1.5" stroke-linecap="square" x1="277.925" y1="13.652" x2="281.189" y2="13.652"/>
		<polyline fill="none" stroke="#FF3A5D" stroke-width="1.5" stroke-linecap="square" points="296.934,17.733 296.934,9.572 
			297.34,9.572 300.604,17.733 301.01,17.733 301.01,9.572 		"/>
		<polyline fill="none" stroke="#FF3A5D" stroke-width="1.5" stroke-linecap="square" points="289.702,17.733 289.702,17.529 
			291.945,9.573 292.354,9.573 294.598,17.529 294.598,17.733 		"/>
		
			<line fill="none" stroke="#FF3A5D" stroke-width="1.5" stroke-linecap="square" x1="290.52" y1="14.876" x2="293.781" y2="14.876"/>
		<path fill="none" stroke="#FF3A5D" stroke-width="1.5" stroke-linecap="square" d="M283.995,17.733v-8.16h1.633
			c1.127,0,2.042,0.913,2.042,2.04c0,1.126-0.915,2.04-2.042,2.04h-1.633"/>
		<path fill="none" stroke="#FF3A5D" stroke-width="1.5" stroke-linecap="square" d="M283.995,13.652h1.633
			c1.127,0,2.042,0.914,2.042,2.04s-0.915,2.04-2.042,2.04h-1.633"/>
	</g>
	<path fill="none" stroke="#656579" stroke-width="1.5" d="M201.086,61.651c0.499,1.985,0.768,4.063,0.768,6.202
		c0,14.023-11.365,25.391-25.395,25.391c-6.688,0-12.771-2.587-17.308-6.814"/>
	<path fill="none" stroke="#656579" stroke-width="1.5" d="M159.458,48.999c4.501-4.061,10.462-6.533,17.001-6.533
		c10.189,0,18.98,6.005,23.023,14.669"/>
	<circle fill="none" stroke="#FF3A5D" stroke-width="1.5" stroke-linecap="square" cx="215.536" cy="75.693" r="9.999"/>
	<g>
		
			<line id="m5" fill="none" stroke="#00ED95" stroke-width="1.5" stroke-linecap="square" x1="176.629" y1="49.8" x2="176.629" y2="53.943"/>
		
			<line id="m6" fill="none" stroke="#698EFF" stroke-width="1.5" stroke-linecap="square" x1="176.629" y1="60.362" x2="176.629" y2="64.504"/>
		
			<line id="m7" fill="none" stroke="#00ED95" stroke-width="1.5" stroke-linecap="square" x1="176.629" y1="70.922" x2="176.629" y2="75.065"/>
		
			<line id="m12" fill="none" stroke="#FF3A5D" stroke-width="1.5" stroke-linecap="square" x1="191.266" y1="60.362" x2="191.266" y2="64.504"/>
		
			<line id="m13" fill="none" stroke="#698EFF" stroke-width="1.5" stroke-linecap="square" x1="191.266" y1="70.922" x2="191.266" y2="75.065"/>
		
			<line id="m0" fill="none" stroke="#698EFF" stroke-width="1.5" stroke-linecap="square" x1="162.602" y1="60.362" x2="162.602" y2="64.504"/>
		
			<line id="m1" fill="none" stroke="#FF3A5D" stroke-width="1.5" stroke-linecap="square" x1="162.602" y1="70.922" x2="162.602" y2="75.065"/>
		
			<line id="m8" fill="none" stroke="#FF3A5D" stroke-width="1.5" stroke-linecap="square" x1="176.629" y1="81.484" x2="176.629" y2="85.626"/>
		
			<line id="m2" fill="none" stroke="#F1F1F2" stroke-width="1.5" stroke-linecap="square" x1="169.328" y1="54.772" x2="169.328" y2="58.915"/>
		
			<line id="m3" fill="none" stroke="#00ED95" stroke-width="1.5" stroke-linecap="square" x1="169.328" y1="65.333" x2="169.328" y2="69.476"/>
		
			<line id="m4" fill="none" stroke="#698EFF" stroke-width="1.5" stroke-linecap="square" x1="169.328" y1="75.894" x2="169.328" y2="80.036"/>
		
			<line id="m9" fill="none" stroke="#698EFF" stroke-width="1.5" stroke-linecap="square" x1="184.225" y1="54.772" x2="184.225" y2="58.915"/>
		
			<line id="m10" fill="none" stroke="#00ED95" stroke-width="1.5" stroke-linecap="square" x1="184.225" y1="65.333" x2="184.225" y2="69.476"/>
		
			<line id="m11" fill="none" stroke="#F1F1F2" stroke-width="1.5" stroke-linecap="square" x1="184.225" y1="75.894" x2="184.225" y2="80.036"/>
	</g>
	<line fill="none" stroke="#656579" stroke-width="1.5" x1="200.975" y1="70.782" x2="207.273" y2="72.027"/>
	<line fill="none" stroke="#656579" stroke-width="1.5" x1="200.615" y1="73.382" x2="206.91" y2="74.627"/>
	<g>
		
			<line fill="none" stroke="#698EFF" stroke-width="1.5" stroke-linecap="square" x1="157.997" y1="77.966" x2="162.195" y2="77.966"/>
		
			<line fill="none" stroke="#698EFF" stroke-width="1.5" stroke-linecap="square" x1="157.997" y1="80.771" x2="162.195" y2="80.771"/>
		<circle fill="none" stroke="#698EFF" stroke-width="1.5" stroke-linecap="square" cx="148.762" cy="78.788" r="9.998"/>
	</g>
	<g>
		<circle fill="none" stroke="#00ED95" stroke-width="1.5" stroke-linecap="square" cx="148.762" cy="55.723" r="9.998"/>
		
			<line fill="none" stroke="#00ED95" stroke-width="1.5" stroke-linecap="square" x1="147.123" y1="70.232" x2="147.123" y2="66.035"/>
		
			<line fill="none" stroke="#00ED95" stroke-width="1.5" stroke-linecap="square" x1="149.927" y1="70.232" x2="149.927" y2="66.035"/>
	</g>
	<line fill="none" stroke="#000000" stroke-width="1.5" x1="200.695" y1="72.079" x2="206.992" y2="73.324"/>
	<line fill="none" stroke="#000000" stroke-width="1.5" x1="148.521" y1="70.232" x2="148.521" y2="66.035"/>
	<line fill="none" stroke="#000000" stroke-width="1.5" x1="157.997" y1="79.363" x2="162.195" y2="79.363"/>
	<g>
		<line fill="none" stroke="#9256D7" x1="285.383" y1="59.706" x2="293.742" y2="59.706"/>
		<line fill="none" stroke="#9256D7" x1="285.383" y1="65.401" x2="293.742" y2="65.401"/>
		<line fill="none" stroke="#9256D7" x1="285.383" y1="71.096" x2="293.742" y2="71.096"/>
		<line fill="none" stroke="#9256D7" x1="285.383" y1="76.793" x2="293.742" y2="76.793"/>
		<line fill="none" stroke="#9256D7" x1="285.383" y1="82.488" x2="293.742" y2="82.488"/>
		<line fill="none" stroke="#9256D7" x1="285.383" y1="88.186" x2="293.742" y2="88.186"/>
		<line fill="none" stroke="#9256D7" x1="285.383" y1="93.883" x2="293.742" y2="93.883"/>
		<line fill="none" stroke="#9256D7" x1="285.383" y1="99.578" x2="293.742" y2="99.578"/>
		<line fill="none" stroke="#9256D7" x1="285.383" y1="105.275" x2="293.742" y2="105.275"/>
		<line fill="none" stroke="#9256D7" x1="285.383" y1="110.971" x2="293.742" y2="110.971"/>
	</g>
	<g>
		
			<line id="r9" fill="none" stroke="#FF3A5D" stroke-width="1.5" stroke-linecap="square" x1="285.336" y1="59.655" x2="293.695" y2="59.655"/>
		
			<line id="r8" fill="none" stroke="#FF3A5D" stroke-width="1.5" stroke-linecap="square" x1="285.336" y1="65.351" x2="293.695" y2="65.351"/>
		
			<line id="r7" fill="none" stroke="#FF3A5D" stroke-width="1.5" stroke-linecap="square" x1="285.336" y1="71.046" x2="293.695" y2="71.046"/>
		
			<line id="r6" fill="none" stroke="#FF3A5D" stroke-width="1.5" stroke-linecap="square" x1="285.336" y1="76.743" x2="293.695" y2="76.743"/>
		
			<line id="r5" fill="none" stroke="#FF3A5D" stroke-width="1.5" stroke-linecap="square" x1="285.336" y1="82.438" x2="293.695" y2="82.438"/>
		
			<line id="r4" fill="none" stroke="#FF3A5D" stroke-width="1.5" stroke-linecap="square" x1="285.336" y1="88.136" x2="293.695" y2="88.136"/>
		
			<line id="r3" fill="none" stroke="#FF3A5D" stroke-width="1.5" stroke-linecap="square" x1="285.336" y1="93.832" x2="293.695" y2="93.832"/>
		
			<line id="r2" fill="none" stroke="#FF3A5D" stroke-width="1.5" stroke-linecap="square" x1="285.336" y1="99.527" x2="293.695" y2="99.527"/>
		
			<line id="r1" fill="none" stroke="#FF3A5D" stroke-width="1.5" stroke-linecap="square" x1="285.336" y1="105.225" x2="293.695" y2="105.225"/>
		
			<line id="r0" fill="none" stroke="#FF3A5D" stroke-width="1.5" stroke-linecap="square" x1="285.336" y1="110.921" x2="293.695" y2="110.921"/>
	</g>
	<g>
		<line fill="none" stroke="#698EFF" stroke-width="1.5" stroke-linecap="square" x1="218.74" y1="82.57" x2="212.334" y2="82.57"/>
		
			<line fill="none" stroke="#698EFF" stroke-width="1.5" stroke-linecap="square" x1="209.167" y1="79.819" x2="221.907" y2="79.819"/>
		
			<line fill="none" stroke="#698EFF" stroke-width="1.5" stroke-linecap="square" x1="208.074" y1="77.067" x2="222.999" y2="77.067"/>
		
			<line fill="none" stroke="#698EFF" stroke-width="1.5" stroke-linecap="square" x1="212.334" y1="68.814" x2="218.74" y2="68.814"/>
		
			<line fill="none" stroke="#698EFF" stroke-width="1.5" stroke-linecap="square" x1="221.907" y1="71.565" x2="209.167" y2="71.565"/>
		
			<line fill="none" stroke="#698EFF" stroke-width="1.5" stroke-linecap="square" x1="208.074" y1="74.317" x2="222.999" y2="74.317"/>
	</g>
	<g>
		
			<line id="rr0" fill="none" stroke="#FF3A5D" stroke-width="1.5" stroke-linecap="square" x1="218.74" y1="82.57" x2="212.334" y2="82.57"/>
		
			<line id="rr1" fill="none" stroke="#FF3A5D" stroke-width="1.5" stroke-linecap="square" x1="209.167" y1="79.819" x2="221.907" y2="79.819"/>
		
			<line id="rr2" fill="none" stroke="#FF3A5D" stroke-width="1.5" stroke-linecap="square" x1="208.074" y1="77.068" x2="222.999" y2="77.068"/>
		
			<line id="rr3" fill="none" stroke="#FF3A5D" stroke-width="1.5" stroke-linecap="square" x1="208.074" y1="74.317" x2="222.999" y2="74.317"/>
		
			<line id="rr4" fill="none" stroke="#FF3A5D" stroke-width="1.5" stroke-linecap="square" x1="221.907" y1="71.565" x2="209.167" y2="71.565"/>
		
			<line id="rr5" fill="none" stroke="#FF3A5D" stroke-width="1.5" stroke-linecap="square" x1="212.334" y1="68.814" x2="218.74" y2="68.814"/>
	</g>
</g>
<g id="cwo">
	<path fill="none" stroke="#8A5E4F" stroke-width="1.5" d="M98.167,48.661c0,0-4.021,3.653-8.192,3.754
		c-4.174,0.102-4.375-1.119-7.526-0.712c-3.153,0.407-3.866,0.814-4.781,1.322c-0.916,0.508-3.052,0.813-3.866,0
		c-0.812-0.813-1.477-1.668-2.192-2.055c-0.718-0.386-2.434-0.166-2.434-2.155c0-1.989-0.055-2.763-0.771-3.647
		c-0.716-0.884-1.438-2.208,0-3.259c1.436-1.051,6.242-5.027,8.062-6.852c1.824-1.824,3.813-4.972,4.035-6.188
		c0.225-1.217-0.179-4.156,1.381-5.857c1.22-1.326,2.652-1.382,3.538-1.382c0.886,0,1.712-0.608,2.27-1.325
		c0.551-0.719,2.149-2.875,2.596-3.481c0.599-0.824,1.931-1.142,3.15-1.11c2.152,0.055,4.42,0.391,5.415,1.166
		c0.992,0.773,2.542,3.15,3.203,3.867c0.66,0.718,2.268,1.437,2.814,2.377"/>
	<path fill="none" stroke="#8A5E4F" stroke-width="1.5" d="M87.571,29.917c0,0,2.819-3.48,4.035-4.145
		c1.216-0.662,2.376-0.497,3.479,0"/>
	<path fill="none" stroke="#8A5E4F" stroke-width="1.5" d="M86.466,24.779c0,0-0.991,2.707-2.099,4.311"/>
	<path fill="none" stroke="#8A5E4F" stroke-width="1.5" d="M82.984,36.106c0,0-4.752,6.133-5.028,6.74"/>
	<path fill="none" stroke="#8A5E4F" stroke-width="1.5" d="M71.325,42.847c0,0,1.328,1.512,4.092,1.401"/>
	<path fill="none" stroke="#8A5E4F" stroke-width="1.5" d="M77.073,45.887c0,0,2.377,1.547-0.828,3.149"/>
	<path fill="none" stroke="#8A5E4F" stroke-width="1.5" d="M84.367,21.697c0,0-0.718-1.312-3.537-1.479
		c-2.813-0.166-4.271,1.028-6.133,1.479c-2.416,0.585-1.327,2.457-0.416,3.639c0.913,1.182,3.675,3.397,6.188,2.291"/>
	<path fill="none" stroke="#8A5E4F" stroke-width="1.5" d="M76.297,23.619c0,0,2.979-1.54,5.956-0.968"/>
	<path fill="none" stroke="#8A5E4F" stroke-width="1.5" d="M101.135,24.779c0,0,4.496-2.2,6.566-1.455
		c2.072,0.747,2.229,1.373,2.486,2.012c0.646,1.596-0.271,3.088-0.768,3.751c-0.498,0.664-1.737,2.238-2.151,3.149
		c-0.415,0.914-0.746,2.653-1.99,2.736c-1.243,0.082-2.072-0.58-2.403-1.326"/>
	<path fill="none" stroke="#8A5E4F" stroke-width="1.5" d="M103.872,26.067c0,0,2.742-1.583,3.489-0.008
		c0.745,1.575-0.945,3.067-1.443,4.144"/>
	<path fill="none" stroke="#8A5E4F" stroke-width="1.5" d="M103.374,27.973c0,0,0.499,0.37,0.499,1.115
		c0,0.746-0.548,1.504-0.548,1.504s0.502,0.836,1.248,1.084"/>
	<path fill="none" stroke="#8A5E4F" stroke-width="1.5" d="M96.034,50.186c0,0,6.809,12.588,8.468,15.656
		c1.659,3.07,3.039,3.888,3.064,5.114c0.022,1.228,1.049,9.206,2.479,12.683c1.438,3.479,4.805,10.903,7.365,12.688
		c2.021,1.401,3.752,2.317,6.208,2.725"/>
	<path fill="none" stroke="#8A5E4F" stroke-width="1.5" d="M110.258,28.075c0,0,7.977,4.328,10.636,5.091
		c2.656,0.763,11.457,1.787,12.889,1.378c1.431-0.411,5.931-1.228,9,0c3.069,1.227,10.228,0.188,17.594,0.092
		c7.363-0.094,45.006,0.688,49.301,0.5c4.297-0.184,9.616-2.267,12.479-1.636c2.862,0.632,5.933-1.822,10.228-1.209
		c4.299,0.614,11.051,1.842,12.895,8.491c1.841,6.647,1.841,20.763,1.229,25.47c-0.612,4.704-1.312,23.729,0.366,26.186
		c1.68,2.455,2.904,6.877,2.904,13.502c0,2.66-1.229,2.66-1.229,2.66s-1.771-2.129-3.479-3.68c-1.396-1.271-2.658-5.938-2.252-9.004
		c0.41-3.068,1.229-5.115,1.229-5.729c0-0.614-1.021-14.653-0.613-16.942c0.404-2.289-0.61-13.745-0.406-17.222
		c0.205-3.478-1.644-14.115-4.092-17.184"/>
	<path fill="none" stroke="#8A5E4F" stroke-width="1.5" d="M119.188,82.861c0,0,2.513,3.873,3.77,11.307
		c1.256,7.434,3.035,13.475,3.246,14.432c0.209,0.959,0.313,2.109,0,2.842c-0.312,0.733,0.523,5.445,0.837,7.854
		s0.033,11.216-0.28,12.683c-0.312,1.467-1.425,3.354-1.425,5.234c0,0.73-1.812,0.945-2.352,1.467
		c-2.135,2.062-2.787,3.881-3.195,4.814c-0.315,0.73-0.104,1.361,1.151,1.361h8.794c0.628,0,1.314-0.838,1.632-1.256
		c0.054-0.072,0.117-0.16,0.185-0.267c0.048-0.062,0.095-0.135,0.144-0.209c0.304-0.479,0.646-1.13,0.722-1.729
		c0.105-0.834,0-2.193,0-2.193s0-1.678,1.57-1.678c1.571,0,1.204-0.521,1.204-1.203s-1.521-3.09-1.623-4.348
		c-0.104-1.259-0.143-10.479,0.594-12.475c0.733-1.987,1.152-2.614,1.046-4.501c-0.104-1.888,0.075-12.877,0.927-16.542
		c0.854-3.665,1.168-4.5,1.482-5.34c0.312-0.838,0.459-1.771,0-3.455c-0.967-3.541-4.397-6.282-5.025-6.809"/>
	<path fill="none" stroke="#8A5E4F" stroke-width="1.5" d="M131.627,144.844h6.854c0.511,0,0.716-0.408,1.072-0.767
		c0.355-0.357,1.445-4.406,1.445-5.326c0-0.922-0.052-2.558,0-2.967c0.05-0.41,0.818-1.28,1.075-1.382
		c0.254-0.104,0.92,0.562,1.328,0.205c0.409-0.358,0.357-1.229-0.357-3.375c-0.717-2.148-1.599-11.535-1.752-12.562
		c-0.149-1.021-0.102-4.346,0.613-6.597c0.716-2.251,1.889-10.812,1.685-15.16"/>
	<path fill="none" stroke="#8A5E4F" stroke-width="1.5" d="M134.566,134.686c0,0,1.017-1.172,1.373-1.634
		c0.354-0.459,0.149-0.716,0-1.892c-0.153-1.178,0.755-9.93,0.602-10.694c-0.15-0.769-1.144-2.796-1.365-4.134"/>
	<path fill="none" stroke="#8A5E4F" stroke-width="1.5" d="M136.449,97.434c0,0,6.508-1.057,9.577-0.438
		c3.069,0.609,9.95,3.015,11.48,3.424c1.535,0.409,10.643,3.171,15.143,3.066c4.502-0.104,9.615-1.021,10.845-1.021
		c1.228,0,3.376-0.511,5.627,0.514c2.25,1.021,6.2,5.015,12.271,7.029c0.396,0.137,0.396,3.807,0.795,5.125
		c0.396,1.323,3.234,1.725,2.904-0.658c-0.326-2.384-0.542-3.758,0.025-4.09c0.57-0.328,1.562-1.058,2.287-0.988
		c0.729,0.062,3.324,0.52,7.127-0.438c0.615-0.15,0.922,0,1.125,0.46c0.205,0.462,2.353,4.19,2.812,4.449
		c0.466,0.257,0.517,0.407,1.278,0.309"/>
	<path fill="none" stroke="#8A5E4F" stroke-width="1.5" d="M204.982,113.643c0,0,0.953,0.993,2.293,0.299
		c1.436-0.736,0.184-2.125,0.854-4.363"/>
	<path fill="none" stroke="#8A5E4F" stroke-width="1.5" d="M213.462,91.62c0.31,0.614,0.204,4.808,1.125,6.956
		c0.921,2.146,4.81,8.867,5.165,10.673c0.357,1.808,0.255,6.308,0,9.683c-0.258,3.375-0.869,8.079-1.178,9.104
		c-0.307,1.022-2.354,4.296-2.967,5.317c-0.612,1.021-1.33,2.859-1.438,3.684c-0.104,0.816-0.92,1.736-1.527,1.736
		c-0.611,0-1.916,0.332-2.658,1.229c-0.688,0.821-1.42,1.778-2.084,3.07c-0.399,0.779-0.715,1.637,1.127,1.736
		c1.843,0.103,8.012,0,9.24,0c1.227,0,1.938-1.127,2.353-1.736c0.409-0.614-0.103-1.459,0-2.314
		c0.104-0.854,0.312-2.186,1.229-2.084c0.918,0.104,2.353,0.514,2.353-1.638c0-2.146-0.41-5.626,0.715-8.39
		c1.123-2.766,2.454-7.158,2.865-9.207c0.409-2.045,2.557-6.16,3.478-7.633c0.924-1.475,1.942-2.289,1.023-4.851
		c-0.922-2.562-1.844-3.89-1.844-5.315c0-1.435-0.92-5.625-1.328-6.646c-0.409-1.021,0-7.364,1.228-11.146
		c1.229-3.787,4.397-12.583,6.037-16.062c1.636-3.479,4.5-9.104,4.604-12.889c0.101-3.784,0.471-6.788,0.799-8.508"/>
	<path fill="none" stroke="#8A5E4F" stroke-width="1.5" d="M230.383,100.832c0,0,4.973-5.223,6.399-9.212
		c1.432-3.989,2.968-10.843,3.478-11.969c0.516-1.124,1.69-6.464-1.559-16.887"/>
	<path fill="none" stroke="#8A5E4F" stroke-width="1.5" d="M243.049,59.706c0,0-2.053,6.666-2.83,9.01"/>
	<path fill="none" stroke="#8A5E4F" stroke-width="1.5" d="M231.184,99.951c0,0,6.623,7.111,7.543,13.865
		c0.92,6.75,1.252,13.797,1.252,15.434s0.106,3.271,0.004,4.091c-0.105,0.818-0.615,2.659-1.438,3.272
		c-0.814,0.613-4.604,4.91-5.011,5.729c-0.413,0.819-1.024,2.354,1.432,2.354h9.927c1.119,0,1.526-1.229,1.842-1.638
		c0.308-0.41,0.408-1.644,0-2.147c-0.409-0.511-0.482-1.535,0.27-1.841c0.754-0.312,2.188-0.206,1.773-1.229
		c-0.407-1.022-2.562-5.524-2.862-7.058c-0.308-1.534-0.231-16.152,1.104-20.651c0.451-1.532,0.812-2.243,0.812-2.243"/>
	<path fill="none" stroke="#8A5E4F" stroke-width="1.5" d="M238.839,84.666c0,0-0.808,4.807,0,6.545
		c0.812,1.737,2.899,3.691,3.896,5.938"/>
	<path fill="none" stroke="#8A5E4F" stroke-width="1.5" d="M71.043,49.893c0,0,0.479,0.82,1.237,1.58"/>
	<path fill="none" stroke="#8A5E4F" stroke-width="1.5" d="M77.705,46.54c0,0-0.779,0.287-0.623,1.613"/>
</g>
<line fill="none" stroke="#00ED95" stroke-width="1.5" stroke-linecap="square" x1="57.573" y1="144.889" x2="307.066" y2="144.889"/>
<g id="white">
	<polyline fill="none" stroke="#F1F1F2" stroke-width="1.5" stroke-linecap="square" points="28.148,138.691 11.826,138.691 
		11.826,137.331 22.707,119.65 24.068,119.65 24.068,146.852 	"/>
	<path fill="none" stroke="#F1F1F2" stroke-width="1.5" stroke-linecap="square" d="M45.285,119.65h-13.6v20.396
		c0-3.756,3.043-6.802,6.8-6.802c3.757,0,6.8,3.046,6.8,6.802c0,3.761-3.044,6.806-6.8,6.806h-6.8"/>
</g>
<g id="green_1_">
	<path fill="none" stroke="#00ED95" stroke-width="1.5" stroke-linecap="square" d="M38.75,87.092c0,3.758-3.043,6.801-6.799,6.801
		c-3.756,0-6.8-3.043-6.8-6.801v-13.6c0-3.756,3.044-6.801,6.8-6.801c3.756,0,6.799,3.044,6.799,6.801V87.092z"/>
	<line fill="none" stroke="#00ED95" stroke-width="1.5" stroke-linecap="square" x1="18.625" y1="66.69" x2="18.625" y2="93.893"/>
</g>
<path id="b0" fill="none" stroke="#698EFF" stroke-width="1.5" d="M102.854,43.894c-0.77-0.14-1.542-0.233-2.314-0.28"/>
<path id="b2" fill="none" stroke="#698EFF" stroke-width="1.5" d="M111.107,47.527c-0.078-0.062-0.157-0.124-0.235-0.187
	c-0.558-0.44-1.165-0.849-1.812-1.221"/>
<path id="b4" fill="none" stroke="#698EFF" stroke-width="1.5" d="M117.809,54.5c-0.438-0.552-0.872-1.112-1.346-1.687"/>
<g id="b6">
	<path fill="none" stroke="#698EFF" stroke-width="1.5" d="M132.675,62.359h-3.092c-1.392,0-3.893-0.32-6.942-2.727"/>
	<polygon fill="none" stroke="#698EFF" stroke-width="1.5" stroke-linecap="square" points="131.187,61.164 132.781,62.283 
		131.187,63.401 	"/>
</g>
<path id="b5" fill="none" stroke="#698EFF" stroke-width="1.5" d="M120.804,57.985c-0.562-0.565-1.063-1.12-1.533-1.675"/>
<path id="b3" fill="none" stroke="#698EFF" stroke-width="1.5" d="M114.856,50.973c-0.561-0.597-1.178-1.212-1.885-1.858"/>
<path id="b1" fill="none" stroke="#698EFF" stroke-width="1.5" d="M107.265,45.242c-0.692-0.287-1.686-0.672-2.417-0.883"/>
<g id="ggroup">
	<path fill="#00ED95" d="M144.139,80.825c-1.125,0-2.039-0.91-2.039-2.037c0-1.129,0.914-2.04,2.039-2.04
		c1.129,0,2.036,0.914,2.036,2.04C146.177,79.915,145.266,80.825,144.139,80.825"/>
	<path fill="#DFD9FF" d="M153.162,80.825c-1.126,0-2.04-0.91-2.04-2.037c0-1.129,0.914-2.04,2.04-2.04s2.039,0.914,2.039,2.04
		C155.201,79.915,154.29,80.825,153.162,80.825"/>
	<path fill="#1B75BB" d="M146.612,74.276c0-1.125,0.916-2.04,2.039-2.04c1.129,0,2.037,0.915,2.037,2.04
		c0,1.128-0.908,2.039-2.037,2.039C147.526,76.315,146.612,75.404,146.612,74.276"/>
	<path fill="#FF3A5D" d="M146.612,83.299c0-1.127,0.916-2.037,2.039-2.037c1.129,0,2.037,0.91,2.037,2.037
		c0,1.129-0.908,2.041-2.037,2.041C147.526,85.34,146.612,84.424,146.612,83.299"/>
</g>
<line id="blue_1_" fill="none" stroke="#698EFF" stroke-width="1.652" stroke-linecap="square" x1="12.598" y1="38.348" x2="28.639" y2="38.346"/>
<path id="bluecenter" fill="#698EFF" d="M27.976,40.165c-1.005-0.529-1.394-1.773-0.861-2.779c0.529-1.005,1.772-1.392,2.778-0.863
	c1.004,0.529,1.391,1.773,0.859,2.778C30.226,40.306,28.981,40.691,27.976,40.165"/>
<line id="xx12" fill="none" stroke="#00ED95" stroke-width="1.5" stroke-linecap="square" x1="57.414" y1="144.818" x2="57.414" y2="140.02"/>
<line id="xx11" fill="none" stroke="#00ED95" stroke-width="1.5" stroke-linecap="square" x1="57.388" y1="144.818" x2="57.388" y2="140.02"/>
<line id="xx10" fill="none" stroke="#00ED95" stroke-width="1.5" stroke-linecap="square" x1="57.466" y1="144.818" x2="57.466" y2="140.02"/>
<line id="xx9" fill="none" stroke="#00ED95" stroke-width="1.5" stroke-linecap="square" x1="57.469" y1="144.818" x2="57.469" y2="140.02"/>
<line id="xx8" fill="none" stroke="#00ED95" stroke-width="1.5" stroke-linecap="square" x1="57.379" y1="144.818" x2="57.379" y2="140.02"/>
<line id="xx7" fill="none" stroke="#00ED95" stroke-width="1.5" stroke-linecap="square" x1="57.565" y1="144.818" x2="57.565" y2="141.507"/>
<line id="xx6" fill="none" stroke="#00ED95" stroke-width="1.5" stroke-linecap="square" x1="57.238" y1="144.818" x2="57.238" y2="141.507"/>
<line id="xx5" fill="none" stroke="#00ED95" stroke-width="1.5" stroke-linecap="square" x1="57.524" y1="144.818" x2="57.524" y2="141.507"/>
<line id="xx4" fill="none" stroke="#00ED95" stroke-width="1.5" stroke-linecap="square" x1="57.591" y1="144.818" x2="57.591" y2="141.507"/>
<line id="xx3" fill="none" stroke="#00ED95" stroke-width="1.5" stroke-linecap="square" x1="57.498" y1="144.818" x2="57.498" y2="141.507"/>
<line id="xx2" fill="none" stroke="#00ED95" stroke-width="1.5" stroke-linecap="square" x1="57.537" y1="144.818" x2="57.537" y2="141.507"/>
<line id="xx1" fill="none" stroke="#00ED95" stroke-width="1.5" stroke-linecap="square" x1="57.562" y1="144.818" x2="57.562" y2="141.507"/>
<line id="xx0" fill="none" stroke="#00ED95" stroke-width="1.5" stroke-linecap="square" x1="57.385" y1="144.818" x2="57.385" y2="141.507"/>
<circle id="white_1_" fill="none" stroke="#F1F1F2" stroke-width="1.5" stroke-linecap="square" cx="148.76" cy="55.723" r="6.746"/>
</svg>
