<?xml version="1.0" encoding="utf-8"?>
<!-- Generator: Adobe Illustrator 14.0.0, SVG Export Plug-In . SVG Version: 6.00 Build 43363)  -->
<!DOCTYPE svg PUBLIC "-//W3C//DTD SVG 1.1//EN" "http://www.w3.org/Graphics/SVG/1.1/DTD/svg11.dtd">
<svg version="1.1" id="Layer_1" xmlns="http://www.w3.org/2000/svg" xmlns:xlink="http://www.w3.org/1999/xlink" x="0px" y="0px"
	 width="320px" height="160px" viewBox="0 0 320 160" enable-background="new 0 0 320 160" xml:space="preserve">
<g id="static">
	<path fill="none" d="M318.15,86.863"/>
	<path fill="none" d="M-1.814,86.863"/>
	<line fill="none" stroke="#555566" stroke-width="2" stroke-linecap="square" x1="61.364" y1="13.48" x2="61.364" y2="16.68"/>
	<line fill="none" stroke="#555566" stroke-width="2" stroke-linecap="square" x1="74.697" y1="26.813" x2="71.497" y2="26.813"/>
	<line fill="none" stroke="#555566" stroke-width="2" stroke-linecap="square" x1="61.363" y1="40.146" x2="61.363" y2="36.947"/>
	<line fill="none" stroke="#555566" stroke-width="2" stroke-linecap="square" x1="48.03" y1="26.813" x2="51.229" y2="26.813"/>
	<line fill="none" stroke="#555566" stroke-width="2" stroke-linecap="square" x1="125.92" y1="13.48" x2="125.92" y2="16.68"/>
	<line fill="none" stroke="#555566" stroke-width="2" stroke-linecap="square" x1="139.253" y1="26.813" x2="136.053" y2="26.813"/>
	<line fill="none" stroke="#555566" stroke-width="2" stroke-linecap="square" x1="125.92" y1="40.146" x2="125.92" y2="36.947"/>
	<line fill="none" stroke="#555566" stroke-width="2" stroke-linecap="square" x1="112.587" y1="26.813" x2="115.786" y2="26.813"/>
	<line fill="none" stroke="#555566" stroke-width="2" stroke-linecap="square" x1="190.441" y1="13.48" x2="190.441" y2="16.68"/>
	<line fill="none" stroke="#555566" stroke-width="2" stroke-linecap="square" x1="203.775" y1="26.813" x2="200.574" y2="26.813"/>
	<line fill="none" stroke="#555566" stroke-width="2" stroke-linecap="square" x1="190.441" y1="40.146" x2="190.441" y2="36.947"/>
	<line fill="none" stroke="#555566" stroke-width="2" stroke-linecap="square" x1="177.107" y1="26.813" x2="180.309" y2="26.813"/>
	<line fill="none" stroke="#555566" stroke-width="2" stroke-linecap="square" x1="254.999" y1="13.48" x2="254.999" y2="16.68"/>
	<line fill="none" stroke="#555566" stroke-width="2" stroke-linecap="square" x1="268.332" y1="26.813" x2="265.132" y2="26.813"/>
	<line fill="none" stroke="#555566" stroke-width="2" stroke-linecap="square" x1="254.999" y1="40.146" x2="254.999" y2="36.947"/>
	<line fill="none" stroke="#555566" stroke-width="2" stroke-linecap="square" x1="241.665" y1="26.813" x2="244.865" y2="26.813"/>
</g>
<g id="curves_1_">
	<path id="off3" fill="none" stroke="#33253D" stroke-width="1.5" d="M310.707,83.973c0,0-18.75-3.121-26.786-13.696
		c-8.035-10.574-10.81-25.86-20.089-27.022c-9.375-1.176-13.395,3.524-25.445,18.797c-12.055,15.274-26.787,19.976-52.232,19.976
		c-25.438,0-25.436,0.863-25.436,0.863"/>
	<path id="off2" fill="none" stroke="#844E5B" stroke-width="1.5" d="M160.707,92.654c0,0,18.736-2.008,26.773-20.551
		c8.035-18.543,10.809-45.349,20.088-47.388c9.375-2.06,13.395,6.181,25.447,32.966c12.055,26.784,26.776,35.024,52.229,35.024
		s25.459,0.873,25.459,0.873"/>
	<path id="off1" fill="none" stroke="#4F317A" stroke-width="1.5" d="M160.719,102.421c0,0,18.738-1.748,26.773-12.321
		c8.035-10.573,10.809-25.854,20.09-27.021c9.375-1.174,13.393,3.525,25.445,18.803c12.055,15.271,26.787,19.974,52.229,19.974
		c25.447,0,25.447,1.34,25.447,1.34"/>
	<path id="off0" fill="none" stroke="#FF3A5D" stroke-width="1.5" d="M159.394,114.352H265.5"/>
</g>
<g id="curves">
	<path id="on3" fill="none" stroke="#5F4270" stroke-width="1.5" d="M160.494,82.88c0,0-18.75-3.121-26.786-13.695
		c-8.035-10.574-10.809-25.86-20.089-27.023c-9.375-1.175-13.395,3.525-25.446,18.798C76.119,76.233,61.386,80.936,35.94,80.936
		c-25.446,0-25.435,0.862-25.435,0.862"/>
	<path id="on2" fill="none" stroke="#FF90A7" stroke-width="1.5" d="M10.5,91.562c0,0,18.737-2.008,26.773-20.561
		c8.036-18.54,10.808-45.345,20.089-47.384c9.375-2.06,13.393,6.181,25.446,32.966c12.055,26.785,26.786,35.021,52.232,35.021
		c25.446,0,25.459,0.873,25.459,0.873"/>
	<path id="on1" fill="none" stroke="#9256D7" stroke-width="1.5" d="M10.507,101.329c0,0,18.737-1.748,26.772-12.322
		c8.036-10.572,10.809-25.857,20.089-27.021c9.375-1.174,13.394,3.525,25.447,18.803c12.054,15.271,26.786,19.973,52.231,19.973
		c25.446,0,25.446,1.34,25.446,1.34"/>
	<path id="on0" fill="none" stroke="#FF3A5D" stroke-width="1.5" d="M10.5,113.745c5.333,0,7.342,0,10.119-5.453
		c2.776-5.453,3.734-13.34,6.94-13.938c3.239-0.604,4.627,1.816,8.791,9.696c4.164,7.878,9.253,10.302,18.044,10.302H160.5"/>
</g>
<g id="knobs">
	<g id="dots">
		<path id="base0_1_" fill="#4D9EFF" d="M58.317,26.408c0-1.571,1.273-2.845,2.845-2.845c1.571,0,2.845,1.273,2.845,2.845
			c0,1.576-1.274,2.855-2.845,2.855C59.59,29.263,58.317,27.983,58.317,26.408"/>
		<path id="base1_1_" fill="#00ED95" d="M122.873,26.408c0-1.571,1.273-2.845,2.845-2.845c1.571,0,2.845,1.273,2.845,2.845
			c0,1.576-1.273,2.855-2.845,2.855C124.146,29.263,122.873,27.983,122.873,26.408"/>
		<path id="base2_1_" fill="#FFFFFF" d="M187.406,26.408c0-1.571,1.273-2.845,2.846-2.845c1.574,0,2.846,1.273,2.846,2.845
			c0,1.576-1.271,2.855-2.846,2.855C188.68,29.263,187.406,27.983,187.406,26.408"/>
		<path id="base3_1_" fill="#FF3A5D" d="M251.961,26.408c0-1.571,1.271-2.845,2.848-2.845c1.568,0,2.844,1.273,2.844,2.845
			c0,1.576-1.271,2.855-2.844,2.855C253.234,29.263,251.961,27.983,251.961,26.408"/>
	</g>
	
		<line id="bar3" fill="none" stroke="#FF3A5D" stroke-width="2" stroke-linecap="square" stroke-linejoin="bevel" x1="254.999" y1="26.813" x2="245.904" y2="35.729"/>
	
		<line id="bar1" fill="none" stroke="#00ED95" stroke-width="2" stroke-linecap="square" stroke-linejoin="bevel" x1="125.92" y1="26.813" x2="115.918" y2="36.866"/>
	
		<line id="bar0" fill="none" stroke="#4D9EFF" stroke-width="2" stroke-linecap="square" stroke-linejoin="bevel" x1="61.364" y1="26.813" x2="52.062" y2="36.297"/>
	
		<line id="bar2" fill="none" stroke="#FFFFFF" stroke-width="2" stroke-linecap="square" stroke-linejoin="bevel" x1="190.441" y1="26.813" x2="181.102" y2="35.918"/>
</g>
</svg>
