<?xml version="1.0" encoding="utf-8"?>
<!-- Generator: Adobe Illustrator 14.0.0, SVG Export Plug-In . SVG Version: 6.00 Build 43363)  -->
<!DOCTYPE svg PUBLIC "-//W3C//DTD SVG 1.1//EN" "http://www.w3.org/Graphics/SVG/1.1/DTD/svg11.dtd">
<svg version="1.1" id="Layer_1" xmlns="http://www.w3.org/2000/svg" xmlns:xlink="http://www.w3.org/1999/xlink" x="0px" y="0px"
	 width="340.156px" height="170.079px" viewBox="0 0 340.156 170.079" enable-background="new 0 0 340.156 170.079"
	 xml:space="preserve">
<rect id="green" x="36.848" y="31.181" fill="#00ED95" width="19.843" height="19.843"/>
<rect id="lightgreen" x="4.166" y="31.181" fill="#80FFAF" width="19.843" height="19.843"/>
<rect id="blue" x="36.848" y="59.528" fill="#698EFF" width="19.843" height="19.843"/>
<rect id="lightblue" x="4.405" y="59.528" fill="#BFD8FF" width="19.844" height="19.843"/>
<rect id="white" x="36.848" y="87.875" fill="#FFFFFF" width="19.843" height="19.842"/>
<rect id="orange" x="36.848" y="116.221" fill="#FF423F" width="19.843" height="19.843"/>
<rect id="lightorange" x="4.166" y="116.221" fill="#FFB3B3" width="19.843" height="19.843"/>
<rect id="grey" x="136.06" y="87.875" fill="#7C7990" width="19.843" height="19.842"/>
<rect id="darkblue" x="70.863" y="59.528" fill="#383572" width="19.846" height="19.843"/>
<rect id="purplegrey" x="70.863" y="87.875" fill="#AEB1DC" width="19.846" height="19.842"/>
<rect id="lightpurplegrey" x="36.566" y="87.875" fill="#E6E7FF" width="19.846" height="19.842"/>
<rect id="purple" x="136.06" y="116.221" fill="#5F4270" width="19.842" height="19.843"/>
<rect id="offgreen" x="104.879" y="31.181" fill="#002826" width="19.847" height="19.843"/>
<rect id="darkgreen" x="70.863" y="31.181" fill="#00475B" width="19.846" height="19.843"/>
<rect id="offblue" x="104.879" y="59.528" fill="#1D2040" width="19.847" height="19.843"/>
<rect id="offgrey" x="104.879" y="87.875" fill="#353238" width="19.847" height="19.842"/>
<rect id="offred" x="104.879" y="116.221" fill="#4E2832" width="19.847" height="19.843"/>
<rect id="red" x="70.863" y="116.221" fill="#FF3A5D" width="19.846" height="19.843"/>
<rect id="black" x="174.848" y="32.181" fill="#010000" width="19.844" height="19.843"/>
<rect id="pink" x="174.848" y="59.181" fill="#FF90A7" width="19.844" height="19.843"/>
</svg>
