<?xml version="1.0" encoding="utf-8"?>
<!-- Generator: Adobe Illustrator 14.0.0, SVG Export Plug-In . SVG Version: 6.00 Build 43363)  -->
<!DOCTYPE svg PUBLIC "-//W3C//DTD SVG 1.1//EN" "http://www.w3.org/Graphics/SVG/1.1/DTD/svg11.dtd">
<svg version="1.1" id="Layer_1" xmlns="http://www.w3.org/2000/svg" xmlns:xlink="http://www.w3.org/1999/xlink" x="0px" y="0px"
	 width="320px" height="160px" viewBox="0 0 320 160" enable-background="new 0 0 320 160" xml:space="preserve">
<g id="static">
	
		<line fill="none" stroke="#656579" stroke-width="1.4811" stroke-linecap="square" x1="183.279" y1="104.195" x2="183.279" y2="16.157"/>
	<polyline fill="none" stroke="#4D9EFF" stroke-width="1.5" stroke-linecap="square" points="138.621,122.727 138.621,136.898 
		151.237,136.898 	"/>
	<polyline fill="none" stroke="#656579" stroke-width="1.5" stroke-linecap="square" points="15.73,123.109 15.73,137.281 
		28.347,137.281 	"/>
	<g>
		<path fill="none" stroke="#656579" stroke-width="1.4811" stroke-linecap="square" d="M64.573,137.281v-14.172H74.5
			c1.957,0,3.543,1.586,3.543,3.543l0,0c0,1.957-1.586,3.543-3.543,3.543h-9.927"/>
		<polyline fill="none" stroke="#656579" stroke-width="1.4811" stroke-linecap="square" points="78.043,137.281 78.043,136.928 
			71.309,130.195 70.6,130.195 		"/>
	</g>
	
		<line fill="none" stroke="#656579" stroke-width="1.4811" stroke-linecap="square" x1="145.58" y1="104.195" x2="145.58" y2="16.157"/>
	
		<line fill="none" stroke="#333459" stroke-width="0.9735" stroke-linecap="square" x1="15.73" y1="32.348" x2="28.347" y2="32.348"/>
	
		<line fill="none" stroke="#333459" stroke-width="0.9735" stroke-linecap="square" x1="15.73" y1="17.872" x2="28.347" y2="17.872"/>
	
		<line fill="none" stroke="#333459" stroke-width="0.9735" stroke-linecap="square" x1="15.73" y1="11.239" x2="28.347" y2="11.239"/>
	
		<line fill="none" stroke="#333459" stroke-width="0.9735" stroke-linecap="square" x1="15.73" y1="24.957" x2="28.347" y2="24.957"/>
	
		<line fill="none" stroke="#333459" stroke-width="0.9735" stroke-linecap="square" x1="15.73" y1="39.125" x2="28.347" y2="39.125"/>
	
		<line fill="none" stroke="#333459" stroke-width="0.9735" stroke-linecap="square" x1="15.73" y1="46.208" x2="28.347" y2="46.208"/>
	
		<line fill="none" stroke="#333459" stroke-width="0.9735" stroke-linecap="square" x1="15.73" y1="53.293" x2="28.347" y2="53.293"/>
	
		<line fill="none" stroke="#333459" stroke-width="0.9735" stroke-linecap="square" x1="15.73" y1="60.376" x2="28.347" y2="60.376"/>
	
		<line fill="none" stroke="#333459" stroke-width="0.9735" stroke-linecap="square" x1="15.73" y1="67.461" x2="28.347" y2="67.461"/>
	
		<line fill="none" stroke="#333459" stroke-width="0.9735" stroke-linecap="square" x1="15.73" y1="74.545" x2="28.347" y2="74.545"/>
	
		<line fill="none" stroke="#333459" stroke-width="0.9735" stroke-linecap="square" x1="15.73" y1="81.632" x2="28.347" y2="81.632"/>
	
		<line fill="none" stroke="#333459" stroke-width="0.9735" stroke-linecap="square" x1="15.73" y1="88.714" x2="28.347" y2="88.714"/>
	
		<line fill="none" stroke="#333459" stroke-width="0.9735" stroke-linecap="square" x1="15.73" y1="95.799" x2="28.347" y2="95.799"/>
	
		<line fill="none" stroke="#333459" stroke-width="0.9735" stroke-linecap="square" x1="15.73" y1="102.883" x2="28.347" y2="102.883"/>
	
		<line fill="none" stroke="#333459" stroke-width="0.9735" stroke-linecap="square" x1="15.73" y1="109.969" x2="28.347" y2="109.969"/>
	
		<line fill="none" stroke="#333459" stroke-width="0.9735" stroke-linecap="square" x1="36.73" y1="32.348" x2="49.347" y2="32.348"/>
	
		<line fill="none" stroke="#333459" stroke-width="0.9735" stroke-linecap="square" x1="36.73" y1="17.872" x2="49.347" y2="17.872"/>
	
		<line fill="none" stroke="#333459" stroke-width="0.9735" stroke-linecap="square" x1="36.73" y1="11.239" x2="49.347" y2="11.239"/>
	
		<line fill="none" stroke="#333459" stroke-width="0.9735" stroke-linecap="square" x1="36.73" y1="24.957" x2="49.347" y2="24.957"/>
	
		<line fill="none" stroke="#333459" stroke-width="0.9735" stroke-linecap="square" x1="36.73" y1="39.125" x2="49.347" y2="39.125"/>
	
		<line fill="none" stroke="#333459" stroke-width="0.9735" stroke-linecap="square" x1="36.73" y1="46.208" x2="49.347" y2="46.208"/>
	
		<line fill="none" stroke="#333459" stroke-width="0.9735" stroke-linecap="square" x1="36.73" y1="53.293" x2="49.347" y2="53.293"/>
	
		<line fill="none" stroke="#333459" stroke-width="0.9735" stroke-linecap="square" x1="36.73" y1="60.376" x2="49.347" y2="60.376"/>
	
		<line fill="none" stroke="#333459" stroke-width="0.9735" stroke-linecap="square" x1="36.73" y1="67.461" x2="49.347" y2="67.461"/>
	
		<line fill="none" stroke="#333459" stroke-width="0.9735" stroke-linecap="square" x1="36.73" y1="74.545" x2="49.347" y2="74.545"/>
	
		<line fill="none" stroke="#333459" stroke-width="0.9735" stroke-linecap="square" x1="36.73" y1="81.632" x2="49.347" y2="81.632"/>
	
		<line fill="none" stroke="#333459" stroke-width="0.9735" stroke-linecap="square" x1="36.73" y1="88.714" x2="49.347" y2="88.714"/>
	
		<line fill="none" stroke="#333459" stroke-width="0.9735" stroke-linecap="square" x1="36.73" y1="95.799" x2="49.347" y2="95.799"/>
	
		<line fill="none" stroke="#333459" stroke-width="0.9735" stroke-linecap="square" x1="36.73" y1="102.883" x2="49.347" y2="102.883"/>
	
		<line fill="none" stroke="#333459" stroke-width="0.9735" stroke-linecap="square" x1="36.73" y1="109.969" x2="49.347" y2="109.969"/>
	
		<line fill="none" stroke="#333459" stroke-width="0.9735" stroke-linecap="square" x1="64.553" y1="32.348" x2="77.17" y2="32.348"/>
	
		<line fill="none" stroke="#333459" stroke-width="0.9735" stroke-linecap="square" x1="64.553" y1="17.872" x2="77.17" y2="17.872"/>
	
		<line fill="none" stroke="#333459" stroke-width="0.9735" stroke-linecap="square" x1="64.553" y1="11.239" x2="77.17" y2="11.239"/>
	
		<line fill="none" stroke="#333459" stroke-width="0.9735" stroke-linecap="square" x1="64.553" y1="24.957" x2="77.17" y2="24.957"/>
	
		<line fill="none" stroke="#333459" stroke-width="0.9735" stroke-linecap="square" x1="64.553" y1="39.125" x2="77.17" y2="39.125"/>
	
		<line fill="none" stroke="#333459" stroke-width="0.9735" stroke-linecap="square" x1="64.553" y1="46.208" x2="77.17" y2="46.208"/>
	
		<line fill="none" stroke="#333459" stroke-width="0.9735" stroke-linecap="square" x1="64.553" y1="53.293" x2="77.17" y2="53.293"/>
	
		<line fill="none" stroke="#333459" stroke-width="0.9735" stroke-linecap="square" x1="64.553" y1="60.376" x2="77.17" y2="60.376"/>
	
		<line fill="none" stroke="#333459" stroke-width="0.9735" stroke-linecap="square" x1="64.553" y1="67.461" x2="77.17" y2="67.461"/>
	
		<line fill="none" stroke="#333459" stroke-width="0.9735" stroke-linecap="square" x1="64.553" y1="74.545" x2="77.17" y2="74.545"/>
	
		<line fill="none" stroke="#333459" stroke-width="0.9735" stroke-linecap="square" x1="64.553" y1="81.632" x2="77.17" y2="81.632"/>
	
		<line fill="none" stroke="#333459" stroke-width="0.9735" stroke-linecap="square" x1="64.553" y1="88.714" x2="77.17" y2="88.714"/>
	
		<line fill="none" stroke="#333459" stroke-width="0.9735" stroke-linecap="square" x1="64.553" y1="95.799" x2="77.17" y2="95.799"/>
	
		<line fill="none" stroke="#333459" stroke-width="0.9735" stroke-linecap="square" x1="64.553" y1="102.883" x2="77.17" y2="102.883"/>
	
		<line fill="none" stroke="#333459" stroke-width="0.9735" stroke-linecap="square" x1="64.573" y1="109.969" x2="77.19" y2="109.969"/>
	
		<line fill="none" stroke="#333459" stroke-width="0.9735" stroke-linecap="square" x1="85.573" y1="32.348" x2="98.19" y2="32.348"/>
	
		<line fill="none" stroke="#333459" stroke-width="0.9735" stroke-linecap="square" x1="85.573" y1="17.872" x2="98.19" y2="17.872"/>
	
		<line fill="none" stroke="#333459" stroke-width="0.9735" stroke-linecap="square" x1="85.573" y1="24.957" x2="98.19" y2="24.957"/>
	
		<line fill="none" stroke="#333459" stroke-width="0.9735" stroke-linecap="square" x1="85.573" y1="39.125" x2="98.19" y2="39.125"/>
	
		<line fill="none" stroke="#333459" stroke-width="0.9735" stroke-linecap="square" x1="85.573" y1="46.208" x2="98.19" y2="46.208"/>
	
		<line fill="none" stroke="#333459" stroke-width="0.9735" stroke-linecap="square" x1="85.573" y1="53.293" x2="98.19" y2="53.293"/>
	
		<line fill="none" stroke="#333459" stroke-width="0.9735" stroke-linecap="square" x1="85.573" y1="60.376" x2="98.19" y2="60.376"/>
	
		<line fill="none" stroke="#333459" stroke-width="0.9735" stroke-linecap="square" x1="85.573" y1="67.461" x2="98.19" y2="67.461"/>
	
		<line fill="none" stroke="#333459" stroke-width="0.9735" stroke-linecap="square" x1="85.573" y1="74.545" x2="98.19" y2="74.545"/>
	
		<line fill="none" stroke="#333459" stroke-width="0.9735" stroke-linecap="square" x1="85.573" y1="81.632" x2="98.19" y2="81.632"/>
	
		<line fill="none" stroke="#333459" stroke-width="0.9735" stroke-linecap="square" x1="85.573" y1="88.714" x2="98.19" y2="88.714"/>
	
		<line fill="none" stroke="#333459" stroke-width="0.9735" stroke-linecap="square" x1="85.573" y1="95.799" x2="98.19" y2="95.799"/>
	
		<line fill="none" stroke="#333459" stroke-width="0.9735" stroke-linecap="square" x1="85.573" y1="102.883" x2="98.19" y2="102.883"/>
	
		<line fill="none" stroke="#333459" stroke-width="0.9735" stroke-linecap="square" x1="85.573" y1="109.969" x2="98.19" y2="109.969"/>
	<g>
		<path id="s_7_" fill="none" stroke="#656579" stroke-width="1.5" stroke-linecap="square" d="M288.314,94.059
			c0,1.957,1.586,3.543,3.543,3.543s3.543-1.586,3.543-3.543c0-0.798-0.541-1.884-1.521-2.479c-0.852-0.521-3.277-1.543-4.125-2.083
			c-1.041-0.666-1.438-1.726-1.438-2.521c0-1.953,1.586-3.537,3.543-3.537s3.543,1.584,3.543,3.537"/>
		<g id="a_10_">
			<polyline fill="none" stroke="#656579" stroke-width="1.5" stroke-linecap="square" points="277.544,97.955 277.543,97.602 
				281.441,83.792 282.15,83.792 286.047,97.602 286.047,97.955 			"/>
			
				<line fill="none" stroke="#656579" stroke-width="1.5" stroke-linecap="square" x1="278.961" y1="92.994" x2="284.631" y2="92.994"/>
		</g>
		<path id="r_8_" fill="none" stroke="#656579" stroke-width="1.5" stroke-linecap="square" d="M239.562,97.6V83.438h2.836
			c1.955,0,3.543,1.584,3.543,3.539l0,0c0,1.953-1.588,3.537-3.543,3.537h-2.127l4.961,6.729v0.354"/>
		<g id="e_14_">
			<polyline fill="none" stroke="#656579" stroke-width="1.5" stroke-linecap="square" points="255.578,97.602 249.199,97.602 
				249.199,83.438 255.578,83.438 			"/>
			
				<line fill="none" stroke="#656579" stroke-width="1.5" stroke-linecap="square" x1="249.199" y1="90.516" x2="254.869" y2="90.516"/>
		</g>
		<g id="e_17_">
			<polyline fill="none" stroke="#656579" stroke-width="1.5" stroke-linecap="square" points="274.568,97.602 268.189,97.602 
				268.189,83.438 274.568,83.438 			"/>
			
				<line fill="none" stroke="#656579" stroke-width="1.5" stroke-linecap="square" x1="268.189" y1="90.516" x2="273.859" y2="90.516"/>
		</g>
		<g id="e_18_">
			<polyline fill="none" stroke="#656579" stroke-width="1.5" stroke-linecap="square" points="305.038,97.602 298.659,97.602 
				298.659,83.438 305.038,83.438 			"/>
			
				<line fill="none" stroke="#656579" stroke-width="1.5" stroke-linecap="square" x1="298.659" y1="90.516" x2="304.33" y2="90.516"/>
		</g>
		<polyline id="l_8_" fill="none" stroke="#656579" stroke-width="1.5" stroke-linecap="square" points="259.264,83.438 
			259.264,97.602 265.641,97.602 		"/>
	</g>
	<path id="r_7_" fill="none" stroke="#656579" stroke-linecap="square" d="M87.016,130.193v-7.086h1.417
		c0.979,0,1.771,0.793,1.771,1.771l0,0c0,0.979-0.799,1.771-1.771,1.771h-1.062l2.479,3.365v0.178"/>
	<g id="g_6_">
		<path fill="none" stroke="#656579" stroke-linecap="square" d="M47.272,128.423c0,0.979-0.795,1.771-1.771,1.771
			c-0.979,0-1.771-0.793-1.771-1.771v-3.543c0-0.979,0.794-1.772,1.772-1.772s1.771,0.793,1.771,1.771"/>
		<polyline fill="none" stroke="#656579" stroke-linecap="square" points="45.714,126.65 47.272,126.65 47.272,130.193 		"/>
	</g>
	<g id="g_5_">
		<path fill="none" stroke="#656579" stroke-linecap="square" d="M95.944,128.423c0,0.979-0.794,1.771-1.771,1.771
			c-0.979,0-1.771-0.793-1.771-1.771v-3.543c0-0.979,0.795-1.772,1.771-1.772c0.979,0,1.771,0.793,1.771,1.771"/>
		<polyline fill="none" stroke="#656579" stroke-linecap="square" points="94.385,126.65 95.944,126.65 95.944,130.193 		"/>
	</g>
	<polyline id="l_7_" fill="none" stroke="#656579" stroke-linecap="square" points="38.978,123.107 38.978,130.193 42.168,130.193 	
		"/>
	
		<line fill="none" stroke="#656579" stroke-width="1.1645" stroke-linecap="square" x1="142.542" y1="60.046" x2="148.763" y2="60.046"/>
	
		<line fill="none" stroke="#656579" stroke-width="1.1548" stroke-linecap="square" x1="180.177" y1="60.046" x2="186.295" y2="60.046"/>
	
		<rect x="134.103" y="119.266" fill="none" stroke="#4D9EFF" stroke-width="1.5" stroke-linecap="square" width="21.576" height="21.574"/>
	
		<rect x="11.565" y="119.266" fill="none" stroke="#656579" stroke-width="1.5" stroke-linecap="square" width="21.576" height="21.574"/>
	
		<rect x="60.298" y="119.266" fill="none" stroke="#656579" stroke-width="1.5" stroke-linecap="square" width="21.575" height="21.574"/>
	
		<rect x="173.617" y="119.266" fill="none" stroke="#00ED95" stroke-width="1.5" stroke-linecap="square" width="21.574" height="21.574"/>
	
		<line fill="none" stroke="#333459" stroke-width="0.9735" stroke-linecap="square" x1="85.573" y1="11.239" x2="98.19" y2="11.239"/>
</g>
<g id="drive">
	
		<line id="i_4_" fill="none" stroke="#656579" stroke-width="1.5" stroke-linecap="square" x1="260.678" y1="10.501" x2="260.678" y2="24.673"/>
	<path id="d_5_" fill="none" stroke="#656579" stroke-width="1.5" stroke-linecap="square" d="M243.105,24.673
		c1.957,0,3.545-1.586,3.545-3.543v-7.087c0-1.957-1.588-3.543-3.545-3.543h-3.543v14.173H243.105L243.105,24.673z"/>
	<path id="r_9_" fill="none" stroke="#656579" stroke-width="1.5" stroke-linecap="square" d="M250.475,24.673V10.501h2.834
		c1.957,0,3.545,1.586,3.545,3.543l0,0c0,1.957-1.588,3.543-3.545,3.543h-2.125l4.961,6.732v0.354"/>
	<g id="e_19_">
		<polyline fill="none" stroke="#656579" stroke-width="1.5" stroke-linecap="square" points="283.215,24.673 276.836,24.673 
			276.836,10.501 283.215,10.501 		"/>
		
			<line fill="none" stroke="#656579" stroke-width="1.5" stroke-linecap="square" x1="276.836" y1="17.587" x2="282.506" y2="17.587"/>
	</g>
	<polyline id="v_6_" fill="none" stroke="#656579" stroke-width="1.5" stroke-linecap="square" points="264.079,10.5 
		264.078,10.855 268.331,24.673 269.039,24.673 273.293,10.855 273.293,10.5 	"/>
</g>
<line id="rightpeakhold" fill="none" stroke="#FFFFFF" stroke-width="1.4418" stroke-linecap="square" x1="64.573" y1="110.105" x2="77.19" y2="110.105"/>
<line id="leftpeakhold" fill="none" stroke="#FFFFFF" stroke-width="1.4418" stroke-linecap="square" x1="15.73" y1="109.434" x2="28.347" y2="109.434"/>
<g id="textrightknob">
	<polyline fill="none" stroke="#00ED95" stroke-width="1.5" stroke-linecap="square" points="203.057,107.498 194.552,107.498 
		194.552,106.789 200.221,97.576 200.93,97.576 200.93,111.75 	"/>
	<path fill="none" stroke="#00ED95" stroke-width="1.5" stroke-linecap="square" d="M213.119,97.576h-7.086v10.63
		c0-1.956,1.586-3.543,3.543-3.543s3.543,1.587,3.543,3.543c0,1.957-1.586,3.544-3.543,3.544h-3.543"/>
</g>
<g>
	<path fill="none" stroke="#00ED95" stroke-width="1.5" stroke-linecap="square" d="M177.971,136.898v-14.174h9.926
		c1.957,0,3.543,1.588,3.543,3.545l0,0c0,1.957-1.586,3.543-3.543,3.543h-9.926"/>
	<polyline fill="none" stroke="#00ED95" stroke-width="1.5" stroke-linecap="square" points="191.438,136.898 191.438,136.545 
		184.707,129.812 183.998,129.812 	"/>
</g>
<g id="textleftknob">
	<path fill="none" stroke="#4D9EFF" stroke-width="1.5" stroke-linecap="square" d="M134.043,107.318
		c0,1.957-1.586,3.545-3.543,3.545s-3.544-1.588-3.544-3.545v-7.086c0-1.957,1.587-3.545,3.544-3.545s3.543,1.588,3.543,3.545
		V107.318z"/>
	<path fill="none" stroke="#4D9EFF" stroke-width="1.5" stroke-linecap="square" d="M123.177,110.863h-7.087l6.378-8.504
		c0.444-0.592,0.709-1.328,0.709-2.127c0-1.957-1.587-3.545-3.544-3.545c-1.956,0-3.543,1.588-3.543,3.545"/>
</g>
<g id="rightknob">
	
		<line fill="none" stroke="#00ED95" stroke-width="1.5" stroke-linecap="square" x1="189.113" y1="104.176" x2="177.561" y2="104.176"/>
	<circle fill="none" stroke="#00ED95" stroke-width="1.5" stroke-linecap="square" cx="183.279" cy="104.177" r="1.417"/>
</g>
<g id="leftknob">
	
		<line fill="none" stroke="#4D9EFF" stroke-width="1.5" stroke-linecap="square" x1="151.367" y1="103.812" x2="139.774" y2="103.812"/>
	<circle fill="#4D9EFF" stroke="#4D9EFF" stroke-width="1.5" stroke-linecap="square" cx="145.579" cy="103.813" r="1.417"/>
</g>
<g id="textreleaseknob">
	<path fill="none" stroke="#FF3A5D" stroke-width="1.5" stroke-linecap="square" d="M282.641,132.029c0,4.4-3.562,7.971-7.974,7.971
		c-4.405,0-7.974-3.566-7.974-7.971v-15.946c0-4.401,3.562-7.974,7.974-7.974c4.403,0,7.974,3.563,7.974,7.974V132.029z"/>
	<path fill="none" stroke="#FF3A5D" stroke-width="1.5" stroke-linecap="square" d="M303.641,132.029c0,4.4-3.562,7.971-7.974,7.971
		c-4.405,0-7.974-3.566-7.974-7.971v-15.946c0-4.401,3.562-7.974,7.974-7.974c4.403,0,7.974,3.563,7.974,7.974V132.029z"/>
	<line fill="none" stroke="#FF3A5D" stroke-width="1.5" stroke-linecap="square" x1="239.562" y1="108.109" x2="239.562" y2="140"/>
	<path fill="none" stroke="#FF3A5D" stroke-width="1.5" stroke-linecap="square" d="M245.698,108.109h15.944v1.596l-7.979,14.352
		c4.399,0,7.979,3.567,7.979,7.979c0,4.396-3.569,7.972-7.979,7.972c-4.396,0-7.978-3.564-7.978-7.972"/>
</g>
<g id="textdriveknob">
	<g>
		<path fill="none" stroke="#FFFFFF" stroke-width="1.5" stroke-linecap="square" d="M276.305,42.262c0-4.629-3.753-8.38-8.382-8.38
			s-8.379,3.751-8.379,8.38V59.02"/>
		<path fill="none" stroke="#FFFFFF" stroke-width="1.5" stroke-linecap="square" d="M276.305,59.02
			c0,4.629-3.753,8.384-8.382,8.384s-8.379-3.755-8.379-8.384c0-4.627,3.75-8.379,8.379-8.379S276.305,54.392,276.305,59.02z"/>
	</g>
	<polyline fill="none" stroke="#FFFFFF" stroke-width="1.5" stroke-linecap="square" points="239.562,33.881 256.322,33.881 
		239.562,67.403 	"/>
</g>
<line id="leftpeak" fill="none" stroke="#4D9EFF" stroke-width="1.4418" stroke-linecap="square" x1="15.73" y1="109.434" x2="28.347" y2="109.434"/>
<line id="leftgr" fill="none" stroke="#4D9EFF" stroke-width="1.4418" stroke-linecap="square" x1="36.73" y1="10.789" x2="49.347" y2="10.789"/>
<line id="rightpeak" fill="none" stroke="#00ED95" stroke-width="1.4602" stroke-linecap="square" x1="64.573" y1="109.749" x2="77.19" y2="109.749"/>
<line id="rightgr" fill="none" stroke="#00ED95" stroke-width="1.4418" stroke-linecap="square" x1="85.573" y1="10.789" x2="98.19" y2="10.789"/>
</svg>
