<?xml version="1.0" encoding="utf-8"?>
<!-- Generator: Adobe Illustrator 14.0.0, SVG Export Plug-In . SVG Version: 6.00 Build 43363)  -->
<!DOCTYPE svg PUBLIC "-//W3C//DTD SVG 1.1//EN" "http://www.w3.org/Graphics/SVG/1.1/DTD/svg11.dtd">
<svg version="1.1" id="Layer_1" xmlns="http://www.w3.org/2000/svg" xmlns:xlink="http://www.w3.org/1999/xlink" x="0px" y="0px"
	 width="320px" height="160px" viewBox="0 0 320 160" enable-background="new 0 0 320 160" xml:space="preserve">
<g id="static">
	<g>
		<path id="s_75_" fill="none" stroke="#383572" stroke-width="1.5" stroke-linecap="square" d="M198.177,130.291
			c0,1.174,0.952,2.125,2.128,2.125c1.174,0,2.125-0.951,2.125-2.125c0-0.479-0.324-1.131-0.912-1.492
			c-0.514-0.314-1.971-0.926-2.477-1.25c-0.625-0.398-0.864-1.029-0.864-1.51c0-1.174,0.952-2.127,2.128-2.127
			c1.174,0,2.125,0.953,2.125,2.127"/>
		<g id="t_106_">
			
				<line fill="none" stroke="#383572" stroke-width="1.5" stroke-linecap="square" x1="204.148" y1="123.912" x2="209.465" y2="123.912"/>
			
				<line fill="none" stroke="#383572" stroke-width="1.5" stroke-linecap="square" x1="206.914" y1="123.912" x2="206.914" y2="132.416"/>
		</g>
		<path id="d_59_" fill="none" stroke="#383572" stroke-width="1.5" stroke-linecap="square" d="M187.203,132.416
			c1.174,0,2.125-0.951,2.125-2.125v-4.252c0-1.174-0.951-2.127-2.125-2.127h-2.127v8.504H187.203L187.203,132.416z"/>
		<g id="e_151_">
			<polyline fill="none" stroke="#383572" stroke-width="1.5" stroke-linecap="square" points="195.984,132.416 192.156,132.416 
				192.156,123.912 195.984,123.912 			"/>
			
				<line fill="none" stroke="#383572" stroke-width="1.5" stroke-linecap="square" x1="192.156" y1="128.164" x2="195.559" y2="128.164"/>
		</g>
	</g>
	<g>
		<g id="a_88_">
			<polyline fill="none" stroke="#383572" stroke-width="1.5" stroke-linecap="square" points="97.949,132.416 97.949,132.205 
				100.288,123.912 100.713,123.912 103.051,132.205 103.051,132.416 			"/>
			
				<line fill="none" stroke="#383572" stroke-width="1.5" stroke-linecap="square" x1="98.8" y1="129.439" x2="102.201" y2="129.439"/>
		</g>
		<g id="t_105_">
			
				<line fill="none" stroke="#383572" stroke-width="1.5" stroke-linecap="square" x1="132.598" y1="123.912" x2="137.913" y2="123.912"/>
			
				<line fill="none" stroke="#383572" stroke-width="1.5" stroke-linecap="square" x1="135.362" y1="123.912" x2="135.362" y2="132.416"/>
		</g>
		<polyline id="m_39_" fill="none" stroke="#383572" stroke-width="1.5" stroke-linecap="square" points="105.319,132.416 
			105.319,123.912 105.744,123.912 107.657,129.016 108.082,129.016 109.996,123.912 110.421,123.912 110.421,132.416 		"/>
		<g id="u_28_">
			<path fill="none" stroke="#383572" stroke-width="1.5" stroke-linecap="square" d="M119.915,123.912v6.379
				c0,1.176,0.952,2.125,2.126,2.125s2.125-0.949,2.125-2.125v-6.379"/>
		</g>
		<polyline id="n_79_" fill="none" stroke="#383572" stroke-width="1.5" stroke-linecap="square" points="126.717,132.416 
			126.717,123.912 127.142,123.912 130.544,132.416 130.969,132.416 130.969,123.912 		"/>
		<path id="o_89_" fill="none" stroke="#383572" stroke-width="1.5" stroke-linecap="square" d="M112.971,126.252v3.826
			c0,1.291,1.047,2.338,2.338,2.338s2.338-1.047,2.338-2.338l0,0l0,0v-3.826c0-1.293-1.046-2.34-2.338-2.34
			C114.018,123.912,112.971,124.959,112.971,126.252L112.971,126.252L112.971,126.252L112.971,126.252z"/>
	</g>
	<g>
		<path id="p_57_" fill="none" stroke="#383572" stroke-width="1.5" stroke-linecap="square" d="M263.602,132.416v-8.504h1.703
			c1.172,0,2.125,0.953,2.125,2.127l0,0c0,1.174-0.953,2.125-2.125,2.125h-1.703"/>
		<path id="s_73_" fill="none" stroke="#383572" stroke-width="1.5" stroke-linecap="square" d="M285.703,130.291
			c0,1.174,0.951,2.125,2.126,2.125c1.174,0,2.126-0.951,2.126-2.125c0-0.479-0.325-1.131-0.913-1.492
			c-0.512-0.314-1.968-0.926-2.476-1.25c-0.625-0.398-0.863-1.029-0.863-1.51c0-1.174,0.951-2.127,2.126-2.127
			s2.126,0.953,2.126,2.127"/>
		<g id="t_85_">
			
				<line fill="none" stroke="#383572" stroke-width="1.5" stroke-linecap="square" x1="291.532" y1="123.912" x2="296.848" y2="123.912"/>
			
				<line fill="none" stroke="#383572" stroke-width="1.5" stroke-linecap="square" x1="294.297" y1="123.912" x2="294.297" y2="132.416"/>
		</g>
		<path id="d_57_" fill="none" stroke="#383572" stroke-width="1.5" stroke-linecap="square" d="M274.727,132.416
			c1.174,0,2.127-0.951,2.127-2.125v-4.252c0-1.174-0.953-2.127-2.127-2.127h-2.125v8.504H274.727L274.727,132.416z"/>
		<g id="e_150_">
			<polyline fill="none" stroke="#383572" stroke-width="1.5" stroke-linecap="square" points="283.508,132.416 279.682,132.416 
				279.682,123.912 283.508,123.912 			"/>
			
				<line fill="none" stroke="#383572" stroke-width="1.5" stroke-linecap="square" x1="279.682" y1="128.164" x2="283.084" y2="128.164"/>
		</g>
		
			<line fill="none" stroke="#383572" stroke-width="1.5" stroke-linecap="square" x1="268.795" y1="131.812" x2="268.795" y2="132.379"/>
	</g>
	
		<line fill="none" stroke="#ADADFF" stroke-width="1.5" stroke-linecap="square" x1="145.695" y1="74.537" x2="163.162" y2="74.537"/>
	<line fill="none" stroke="#ADADFF" stroke-width="1.5" stroke-linecap="square" x1="66.318" y1="74.537" x2="90.823" y2="74.537"/>
	<circle fill="none" stroke="#383572" stroke-width="1.5" stroke-linecap="square" cx="259.617" cy="74.534" r="6.289"/>
</g>
<g id="reda">
	<circle fill="#698EFF" cx="259.617" cy="74.535" r="2.836"/>
	<circle fill="#FFFFFF" cx="298.284" cy="74.534" r="2.835"/>
	<circle fill="#FF3A5D" cx="278.951" cy="55.201" r="2.835"/>
	<circle fill="#00ED95" cx="278.951" cy="93.87" r="2.835"/>
</g>
<g id="redb">
	<circle fill="#00475B" cx="292.622" cy="88.207" r="2.836"/>
	<circle fill="#512132" cx="265.277" cy="60.867" r="2.835"/>
	<circle fill="#383572" cx="265.277" cy="88.206" r="2.835"/>
	<circle fill="#656579" cx="292.622" cy="60.865" r="2.836"/>
</g>
<circle id="redbase" fill="#FF3A5D" cx="278.951" cy="74.871" r="2.835"/>
<path fill="none" stroke="#698EFF" stroke-width="1.5" stroke-linecap="square" d="M88.802,79.812"/>
<g id="whiteanim">
	<polyline fill="none" stroke="#383572" stroke-width="1.5" stroke-linecap="square" points="218.848,52.332 223.365,52.332 
		223.365,105.334 170.365,105.334 170.365,101.271 	"/>
	<polyline fill="none" stroke="#383572" stroke-width="1.5" stroke-linecap="square" points="223.598,56.457 227.49,56.457 
		227.49,109.459 174.49,109.459 174.49,105.521 	"/>
	
		<rect x="166.033" y="48.037" fill="none" stroke="#383572" stroke-width="1.5" stroke-linecap="square" width="53" height="53.002"/>
</g>
<rect id="blueanim" x="13.365" y="48.037" fill="none" stroke="#383572" stroke-width="1.5" stroke-linecap="square" width="52.999" height="53.002"/>
<polygon id="greenanim" fill="none" stroke="#00ED95" stroke-width="1.5" stroke-linecap="square" points="92.155,43.624 
	145.697,74.537 92.155,105.451 "/>
<circle fill="#ADADFF" cx="145.696" cy="74.533" r="2.591"/>
<circle fill="#ADADFF" cx="92.044" cy="74.575" r="2.591"/>
<circle fill="#ADADFF" cx="165.598" cy="74.533" r="2.59"/>
<circle fill="#ADADFF" cx="218.559" cy="74.533" r="2.591"/>
<circle fill="#ADADFF" cx="66.599" cy="74.533" r="2.591"/>
<g id="fx">
	<polyline fill="none" stroke="#698EFF" stroke-width="1.5" stroke-linecap="square" points="180.902,85.092 180.902,63.819 
		190.469,63.819 	"/>
	<line fill="none" stroke="#698EFF" stroke-width="1.5" stroke-linecap="square" x1="180.902" y1="74.45" x2="189.404" y2="74.45"/>
	<polyline fill="none" stroke="#698EFF" stroke-width="1.5" stroke-linecap="square" points="193.656,63.819 193.656,64.883 
		205.35,84.029 205.35,86.137 	"/>
	<polyline fill="none" stroke="#698EFF" stroke-width="1.5" stroke-linecap="square" points="193.656,85.092 193.656,84.029 
		205.35,64.883 205.35,63.819 	"/>
</g>
<g id="speed">
	<path id="s_1_" fill="none" stroke="#383572" stroke-width="1.5" stroke-linecap="square" d="M24.779,130.291
		c0,1.174,0.952,2.125,2.125,2.125c1.174,0,2.126-0.951,2.126-2.125c0-0.479-0.325-1.131-0.913-1.492
		c-0.512-0.314-1.968-0.926-2.475-1.25c-0.625-0.398-0.864-1.029-0.864-1.51c0-1.174,0.952-2.127,2.126-2.127
		c1.174,0,2.126,0.953,2.126,2.127"/>
	<path id="p_1_" fill="none" stroke="#383572" stroke-width="1.5" stroke-linecap="square" d="M31.584,132.416v-8.504h1.703
		c1.173,0,2.126,0.953,2.126,2.127l0,0c0,1.174-0.953,2.125-2.126,2.125h-1.703"/>
	<path id="d_1_" fill="none" stroke="#383572" stroke-width="1.5" stroke-linecap="square" d="M52.389,132.416
		c1.174,0,2.127-0.951,2.127-2.125v-4.252c0-1.174-0.953-2.127-2.127-2.127h-2.125v8.504H52.389L52.389,132.416z"/>
	<g id="e_2_">
		<polyline fill="none" stroke="#383572" stroke-width="1.5" stroke-linecap="square" points="47.758,132.416 43.93,132.416 
			43.93,123.912 47.758,123.912 		"/>
		
			<line fill="none" stroke="#383572" stroke-width="1.5" stroke-linecap="square" x1="43.93" y1="128.164" x2="47.333" y2="128.164"/>
	</g>
	<g id="e_1_">
		<polyline fill="none" stroke="#383572" stroke-width="1.5" stroke-linecap="square" points="41.414,132.416 37.586,132.416 
			37.586,123.912 41.414,123.912 		"/>
		
			<line fill="none" stroke="#383572" stroke-width="1.5" stroke-linecap="square" x1="37.586" y1="128.164" x2="40.988" y2="128.164"/>
	</g>
</g>
<path id="synth_1_" fill="none" stroke="#698EFF" stroke-width="1.5" d="M211.208,69.122c0-1.662-1.351-3.004-3.006-3.004
	c-1.66,0-3.013,1.344-3.013,3.004l0.021,11.711c0,1.661-1.354,3.005-3.01,3.005c-1.662,0-3.013-1.346-3.013-3.005V69.122
	c0-1.662-1.354-3.004-3.017-3.004c-1.653,0-3.01,1.344-3.01,3.004l-0.063,11.711c0,1.661-1.353,3.005-3.013,3.005
	c-1.655,0-3.01-1.346-3.01-3.005V69.122c0-1.662-1.354-3.004-3.019-3.004c-1.658,0-3.008,1.344-3.008,3.004l-0.021,11.711
	c0,1.661-1.352,3.005-3.006,3.005c-1.662,0-3.012-1.346-3.012-3.005"/>
<g id="drum">
	<circle fill="none" stroke="#00ED95" stroke-width="1.5" cx="193.126" cy="74.192" r="8.861"/>
	<path fill="#00ED95" d="M194.882,75.859c0,0.968-0.784,1.753-1.756,1.753c-0.969,0-1.754-0.871-1.754-1.841
		c0-0.969,0.785-1.666,1.754-1.666C194.096,74.105,194.882,74.892,194.882,75.859"/>
	<path fill="none" stroke="#00ED95" stroke-width="1.5" d="M194.882,75.859c0,0.968-0.784,1.753-1.756,1.753
		c-0.969,0-1.754-0.871-1.754-1.841c0-0.969,0.785-1.666,1.754-1.666C194.096,74.105,194.882,74.892,194.882,75.859z"/>
	<line fill="none" stroke="#00ED95" stroke-width="1.5" x1="193.126" y1="87.174" x2="193.126" y2="75.946"/>
</g>
<line fill="none" stroke="#ADADFF" stroke-width="1.5" stroke-linecap="square" x1="219.693" y1="74.537" x2="247.411" y2="74.537"/>
<circle id="redanim" fill="none" stroke="#383572" stroke-width="1.5" stroke-linecap="square" cx="278.95" cy="74.535" r="28.348"/>
<line fill="none" stroke="#000000" stroke-width="1.5" stroke-linecap="square" x1="223.365" y1="72.894" x2="227.49" y2="72.894"/>
<g id="adsr">
	<path fill="none" stroke="#DFD9FF" stroke-width="1.5" d="M193.021,73.106h8.594c0,0,0.871,6.51,6.74,6.51"/>
	<path fill="none" stroke="#DFD9FF" stroke-width="1.5" d="M178.355,79.616c0,0,0.33-9.839,8.146-14.334
		c0,0-0.326,7.824,6.521,7.824"/>
</g>
<g id="dynaenv">
	<path fill="none" stroke="#00ED95" stroke-width="1.5" stroke-linecap="square" d="M192.021,74.106h8.594c0,0,0.871,6.51,6.74,6.51
		"/>
	<path fill="none" stroke="#00ED95" stroke-width="1.5" stroke-linecap="square" d="M177.355,80.616c0,0,0.33-9.839,8.146-14.334
		c0,0-0.326,7.824,6.521,7.824"/>
</g>
<g id="gforce">
	<path fill="none" stroke="#698EFF" stroke-width="1.5" d="M43.132,78.432c0,1.957-1.586,3.541-3.543,3.541
		s-3.544-1.583-3.544-3.541v-7.087c0-1.957,1.587-3.544,3.544-3.544s3.543,1.587,3.543,3.544"/>
	<polyline fill="none" stroke="#698EFF" stroke-width="1.5" points="38.88,74.888 43.132,74.888 43.132,81.973 	"/>
</g>
<g id="input">
	<path fill="none" stroke="#698EFF" stroke-width="1.5" d="M51.492,74.648c0,2.171-1.756,3.928-3.922,3.928
		c-2.167,0-3.928-1.757-3.928-3.928c0-2.167,1.761-3.924,3.928-3.924C49.736,70.725,51.492,72.481,51.492,74.648z"/>
	<path fill="none" stroke="#698EFF" stroke-width="1.5" d="M48.019,78.576h-4.376c-2.176,0-3.941-1.757-3.941-3.928
		c0-2.168,1.765-3.924,3.941-3.924h4.376"/>
	<path fill="none" stroke="#698EFF" stroke-width="1.5" d="M42.663,78.455l-5.257-1.617c-1.087-0.238-1.87-0.979-1.87-2.189
		c0-1.208,0.807-1.91,1.87-2.185l5.356-1.642"/>
	<path fill="none" stroke="#698EFF" stroke-width="1.5" d="M37.392,76.837h-8.714c-1.207,0-2.185-0.979-2.185-2.189
		c0-1.208,0.979-2.185,2.185-2.185h8.714"/>
	<path fill="none" stroke="#698EFF" stroke-width="1.5" d="M46.15,74.304c0.195,0.195,0.195,0.514,0,0.71
		c-0.195,0.196-0.513,0.197-0.708,0c-0.195-0.197-0.196-0.515,0-0.71C45.638,74.109,45.954,74.108,46.15,74.304"/>
	<path fill="none" stroke="#698EFF" stroke-width="1.5" d="M48.04,72.413c0.197,0.196,0.197,0.513,0.001,0.708
		c-0.195,0.196-0.513,0.196-0.708,0c-0.195-0.195-0.195-0.513,0-0.708C47.528,72.218,47.846,72.218,48.04,72.413"/>
	<path fill="none" stroke="#698EFF" stroke-width="1.5" d="M48.04,76.201c0.197,0.195,0.197,0.514,0,0.709
		c-0.194,0.195-0.512,0.195-0.708,0c-0.197-0.196-0.195-0.514,0-0.709C47.528,76.004,47.846,76.004,48.04,76.201"/>
	<path fill="none" stroke="#698EFF" stroke-width="1.5" d="M49.932,74.304c0.195,0.195,0.195,0.514,0,0.709
		c-0.196,0.197-0.514,0.197-0.709,0c-0.195-0.196-0.195-0.514,0-0.709C49.418,74.108,49.735,74.108,49.932,74.304"/>
</g>
<g id="other">
	<g id="_x3C_path_x3E__1_">
		<path fill="none" stroke="#DFD9FF" stroke-width="1.5" d="M182.732,76.994c1.41,0,2.553,1.143,2.553,2.553
			c0,1.414-1.143,2.562-2.553,2.562c-1.409,0-2.553-1.148-2.553-2.562C180.182,78.137,181.323,76.994,182.732,76.994z"/>
		<line fill="none" stroke="#DFD9FF" stroke-width="1.5" x1="185.283" y1="79.547" x2="185.283" y2="65.089"/>
	</g>
	<g id="_x3C_path_x3E_">
		<polygon fill="none" stroke="#DFD9FF" stroke-width="1.5" points="203.254,66.841 203.254,81.02 197.562,77.488 197.562,70.787 		
			"/>
		<rect x="191.83" y="70.787" fill="none" stroke="#DFD9FF" stroke-width="1.5" width="5.73" height="6.701"/>
	</g>
</g>
<g id="adsrin">
	<path fill="none" stroke="#698EFF" stroke-width="1.5" d="M40.021,74.106h8.594c0,0,0.871,6.51,6.74,6.51"/>
	<path fill="none" stroke="#698EFF" stroke-width="1.5" d="M25.355,80.616c0,0,0.33-9.839,8.146-14.334c0,0-0.326,7.824,6.521,7.824
		"/>
</g>
<polyline id="otherin" fill="none" stroke="#698EFF" stroke-width="1.5" points="47.889,65.312 47.889,63.587 31.214,63.587 
	31.214,64.786 42.714,74.511 42.714,75.663 31.214,85.438 31.214,86.587 47.889,86.587 47.889,84.861 "/>
<g id="neggreen">
	<g id="negg">
		<path fill="none" stroke="#00ED95" stroke-width="1.2857" stroke-linecap="square" d="M102.723,67.772h6.803v0.683l-3.402,6.122
			c1.879,0,3.402,1.522,3.402,3.4c0,1.88-1.523,3.4-3.402,3.4s-3.402-1.52-3.402-3.4"/>
		<polyline fill="none" stroke="#00ED95" stroke-width="1.2857" stroke-linecap="square" points="120.265,77.297 112.101,77.297 
			112.101,76.616 117.544,67.772 118.224,67.772 118.224,81.379 		"/>
	</g>
</g>
<g id="green_1_">
	<g id="g">
		<path fill="none" stroke="#00ED95" stroke-width="1.2857" stroke-linecap="square" d="M100.046,66.071h8.504v0.852l-4.253,7.652
			c2.349,0,4.253,1.904,4.253,4.252c0,2.35-1.904,4.252-4.253,4.252c-2.349,0-4.252-1.902-4.252-4.252"/>
		<polyline fill="none" stroke="#00ED95" stroke-width="1.2857" stroke-linecap="square" points="121.974,77.977 111.769,77.977 
			111.769,77.125 118.571,66.071 119.423,66.071 119.423,83.078 		"/>
	</g>
</g>
<line fill="none" stroke="#000000" stroke-width="1.5" stroke-linecap="square" x1="223.365" y1="76.087" x2="227.49" y2="76.087"/>
</svg>
