<?xml version="1.0" encoding="utf-8"?>
<!-- Generator: Adobe Illustrator 14.0.0, SVG Export Plug-In . SVG Version: 6.00 Build 43363)  -->
<!DOCTYPE svg PUBLIC "-//W3C//DTD SVG 1.1//EN" "http://www.w3.org/Graphics/SVG/1.1/DTD/svg11.dtd">
<svg version="1.1" id="Layer_1" xmlns="http://www.w3.org/2000/svg" xmlns:xlink="http://www.w3.org/1999/xlink" x="0px" y="0px"
	 width="320px" height="160px" viewBox="0 0 320 160" enable-background="new 0 0 320 160" xml:space="preserve">
<g id="static">
	<circle fill="#698EFF" cx="283.26" cy="75.21" r="2.835"/>
	<circle fill="#00ED95" cx="291.439" cy="67.006" r="2.834"/>
	<circle fill="#DFD9FF" cx="291.419" cy="83.06" r="2.835"/>
	<circle fill="#FF3A5D" cx="299.479" cy="75.21" r="2.835"/>
	<line fill="none" stroke="#383572" stroke-width="1.5" stroke-linecap="square" x1="68.317" y1="75.21" x2="87.007" y2="75.21"/>
	<line fill="none" stroke="#383572" stroke-width="1.5" stroke-linecap="square" x1="157.167" y1="75.21" x2="263.945" y2="75.21"/>
	<circle fill="#383572" cx="68.599" cy="75.21" r="2.835"/>
	<polygon fill="#383572" stroke="#383572" stroke-width="1.5" stroke-linecap="square" points="264.305,70.958 271.668,75.209 
		264.305,79.461 	"/>
	<line fill="none" stroke="#00475B" stroke-width="1.5" x1="93.481" y1="35.446" x2="150.276" y2="35.446"/>
	<g>
		<g id="a_87_">
			<polyline fill="none" stroke="#383572" stroke-width="1.5" stroke-linecap="square" points="282.67,104.5 282.67,104.287 
				285.01,95.996 285.434,95.996 287.773,104.287 287.773,104.5 			"/>
			
				<line fill="none" stroke="#383572" stroke-width="1.5" stroke-linecap="square" x1="283.521" y1="101.523" x2="286.924" y2="101.523"/>
		</g>
		<polyline id="l_53_" fill="none" stroke="#383572" stroke-width="1.5" stroke-linecap="square" points="290.598,95.996 
			290.598,104.5 294.426,104.5 		"/>
		<polyline id="l_52_" fill="none" stroke="#383572" stroke-width="1.5" stroke-linecap="square" points="297.34,95.996 
			297.34,104.5 301.166,104.5 		"/>
	</g>
	<g>
		<path id="s_77_" fill="none" stroke="#383572" stroke-width="1.5" stroke-linecap="square" d="M107.193,125.048
			c0,1.175,0.951,2.126,2.125,2.126c1.174,0,2.126-0.951,2.126-2.126c0-0.479-0.325-1.13-0.913-1.491
			c-0.513-0.312-1.969-0.927-2.476-1.25c-0.625-0.396-0.863-1.031-0.863-1.511c0-1.174,0.951-2.126,2.126-2.126
			c1.174,0,2.126,0.952,2.126,2.126"/>
		<path id="p_59_" fill="none" stroke="#383572" stroke-width="1.5" stroke-linecap="square" d="M113.856,127.174v-8.504h1.702
			c1.174,0,2.126,0.953,2.126,2.127l0,0c0,1.174-0.952,2.125-2.126,2.125h-1.702"/>
		<path id="d_62_" fill="none" stroke="#383572" stroke-width="1.5" stroke-linecap="square" d="M134.095,127.174
			c1.174,0,2.126-0.951,2.126-2.125v-4.252c0-1.175-0.952-2.127-2.126-2.127h-2.126v8.504H134.095L134.095,127.174z"/>
		<g id="e_156_">
			<polyline fill="none" stroke="#383572" stroke-width="1.5" stroke-linecap="square" points="123.594,127.174 119.766,127.174 
				119.766,118.67 123.594,118.67 			"/>
			
				<line fill="none" stroke="#383572" stroke-width="1.5" stroke-linecap="square" x1="119.766" y1="122.922" x2="123.169" y2="122.922"/>
		</g>
		<g id="e_155_">
			<polyline fill="none" stroke="#383572" stroke-width="1.5" stroke-linecap="square" points="129.718,127.174 125.89,127.174 
				125.89,118.67 129.718,118.67 			"/>
			
				<line fill="none" stroke="#383572" stroke-width="1.5" stroke-linecap="square" x1="125.89" y1="122.922" x2="129.293" y2="122.922"/>
		</g>
	</g>
	<g>
		<g id="a_89_">
			<polyline fill="none" stroke="#383572" stroke-width="1.5" stroke-linecap="square" points="21.153,127.174 21.153,126.961 
				23.491,118.67 23.916,118.67 26.255,126.961 26.255,127.174 			"/>
			
				<line fill="none" stroke="#383572" stroke-width="1.5" stroke-linecap="square" x1="22.004" y1="124.197" x2="25.405" y2="124.197"/>
		</g>
		<g id="t_107_">
			
				<line fill="none" stroke="#383572" stroke-width="1.5" stroke-linecap="square" x1="55.802" y1="118.67" x2="61.116" y2="118.67"/>
			
				<line fill="none" stroke="#383572" stroke-width="1.5" stroke-linecap="square" x1="58.566" y1="118.67" x2="58.566" y2="127.174"/>
		</g>
		<polyline id="m_40_" fill="none" stroke="#383572" stroke-width="1.5" stroke-linecap="square" points="28.523,127.174 
			28.523,118.67 28.948,118.67 30.861,123.771 31.286,123.771 33.199,118.67 33.624,118.67 33.624,127.174 		"/>
		<g id="u_29_">
			<path fill="none" stroke="#383572" stroke-width="1.5" stroke-linecap="square" d="M43.119,118.67v6.378
				c0,1.175,0.952,2.126,2.126,2.126c1.174,0,2.125-0.951,2.125-2.126v-6.378"/>
		</g>
		<polyline id="n_81_" fill="none" stroke="#383572" stroke-width="1.5" stroke-linecap="square" points="49.92,127.174 
			49.92,118.67 50.346,118.67 53.747,127.174 54.173,127.174 54.173,118.67 		"/>
		<path id="o_90_" fill="none" stroke="#383572" stroke-width="1.5" stroke-linecap="square" d="M36.175,121.01v3.825
			c0,1.292,1.048,2.339,2.339,2.339s2.338-1.047,2.338-2.339l0,0l0,0v-3.825c0-1.293-1.046-2.34-2.338-2.34
			S36.175,119.717,36.175,121.01L36.175,121.01L36.175,121.01L36.175,121.01z"/>
	</g>
	<g>
		<path id="s_75_" fill="none" stroke="#383572" stroke-width="1.5" stroke-linecap="square" d="M253.721,38.521
			c0,1.174,0.952,2.125,2.129,2.125c1.174,0,2.125-0.951,2.125-2.125c0-0.479-0.324-1.131-0.912-1.492
			c-0.515-0.315-1.972-0.926-2.478-1.25c-0.625-0.399-0.864-1.03-0.864-1.51c0-1.174,0.952-2.127,2.129-2.127
			c1.174,0,2.125,0.953,2.125,2.127"/>
		<g id="t_106_">
			
				<line fill="none" stroke="#383572" stroke-width="1.5" stroke-linecap="square" x1="259.691" y1="32.144" x2="265.009" y2="32.144"/>
			
				<line fill="none" stroke="#383572" stroke-width="1.5" stroke-linecap="square" x1="262.458" y1="32.144" x2="262.458" y2="40.646"/>
		</g>
		<path id="d_59_" fill="none" stroke="#383572" stroke-width="1.5" stroke-linecap="square" d="M242.747,40.646
			c1.174,0,2.125-0.951,2.125-2.125V34.27c0-1.174-0.951-2.127-2.125-2.127h-2.127v8.504L242.747,40.646L242.747,40.646z"/>
		<g id="e_151_">
			<polyline fill="none" stroke="#383572" stroke-width="1.5" stroke-linecap="square" points="251.527,40.646 247.7,40.646 
				247.7,32.144 251.527,32.144 			"/>
			
				<line fill="none" stroke="#383572" stroke-width="1.5" stroke-linecap="square" x1="247.7" y1="36.395" x2="251.104" y2="36.395"/>
		</g>
	</g>
	<g>
		<g id="e_154_">
			<polyline fill="none" stroke="#383572" stroke-width="1.5" stroke-linecap="square" points="243.436,127.174 239.609,127.174 
				239.609,118.67 243.436,118.67 			"/>
			
				<line fill="none" stroke="#383572" stroke-width="1.5" stroke-linecap="square" x1="239.609" y1="122.922" x2="243.012" y2="122.922"/>
		</g>
		<polyline id="n_80_" fill="none" stroke="#383572" stroke-width="1.5" stroke-linecap="square" points="245.469,127.174 
			245.469,118.67 245.895,118.67 249.296,127.174 249.721,127.174 249.721,118.67 		"/>
		<polyline id="v_14_" fill="none" stroke="#383572" stroke-width="1.5" stroke-linecap="square" points="252.12,118.67 
			252.12,118.883 254.671,127.174 255.096,127.174 257.646,118.883 257.646,118.67 		"/>
	</g>
	<circle fill="#383572" cx="204.941" cy="75.21" r="2.834"/>
</g>
<circle id="graphstart" fill="#00ED95" cx="86.4" cy="75.21" r="2.835"/>
<g id="blue">
	<path fill="none" stroke="#698EFF" stroke-width="1.5" stroke-linecap="square" d="M22.717,66.535h8.504v0.851l-4.253,7.652
		c2.349,0,4.253,1.904,4.253,4.252c0,2.351-1.904,4.253-4.253,4.253c-2.348,0-4.251-1.902-4.251-4.253"/>
	<polyline fill="none" stroke="#698EFF" stroke-width="1.5" stroke-linecap="square" points="44.643,78.441 34.438,78.441 
		34.438,77.59 41.241,66.535 42.093,66.535 42.093,83.543 	"/>
</g>
<polygon id="blueanim" fill="none" stroke="#383572" stroke-width="1.5" stroke-linecap="square" points="15.057,44.297 
	68.598,75.21 15.057,106.123 "/>
<path fill="none" stroke="#DFD9FF" stroke-width="1.5" stroke-linecap="square" d="M156.434,74.322"/>
<circle id="graphend" fill="#00ED95" cx="157.059" cy="75.21" r="2.835"/>
<line id="greenline" fill="none" stroke="#00ED95" stroke-width="1.5" stroke-linecap="square" x1="93.481" y1="35.446" x2="150.276" y2="35.446"/>
<circle id="greendot" fill="#00ED95" cx="0.284" cy="-0.54" r="2.835"/>
<g id="whiteanim">
	<polyline fill="none" stroke="#383572" stroke-width="1.5" stroke-linecap="square" points="224.447,14.563 228.061,14.563 
		228.061,56.963 185.661,56.963 185.661,53.713 	"/>
	<polyline fill="none" stroke="#383572" stroke-width="1.5" stroke-linecap="square" points="228.248,17.862 231.361,17.862 
		231.361,60.264 188.961,60.264 188.961,57.114 	"/>
</g>
<rect x="182.195" y="11.126" fill="none" stroke="#DFD9FF" stroke-width="1.5" width="42.4" height="42.401"/>
<g id="fx">
	<polyline fill="none" stroke="#698EFF" stroke-width="1.5" stroke-linecap="square" points="194.811,40.77 194.811,23.752 
		202.464,23.752 	"/>
	
		<line fill="none" stroke="#698EFF" stroke-width="1.5" stroke-linecap="square" x1="194.811" y1="32.257" x2="201.611" y2="32.257"/>
	<polyline fill="none" stroke="#698EFF" stroke-width="1.5" stroke-linecap="square" points="205.012,23.752 205.012,24.604 
		214.368,39.92 214.368,41.606 	"/>
	<polyline fill="none" stroke="#698EFF" stroke-width="1.5" stroke-linecap="square" points="205.012,40.77 205.012,39.92 
		214.368,24.604 214.368,23.752 	"/>
</g>
<path id="synth_1_" fill="none" stroke="#698EFF" stroke-width="1.5" d="M218.611,27.994c0-1.33-1.082-2.402-2.404-2.402
	c-1.328,0-2.411,1.074-2.411,2.402l0.021,9.369c0,1.328-1.08,2.404-2.405,2.404c-1.329,0-2.406-1.077-2.406-2.404v-9.369
	c0-1.33-1.079-2.402-2.401-2.402c-1.33,0-2.408,1.074-2.408,2.402l-0.06,9.369c0,1.328-1.073,2.404-2.401,2.404
	c-1.33,0-2.408-1.077-2.408-2.404v-9.369c0-1.33-1.077-2.402-2.407-2.402c-1.329,0-2.405,1.074-2.405,2.402l-0.02,9.369
	c0,1.328-1.076,2.404-2.401,2.404c-1.331,0-2.407-1.077-2.407-2.404"/>
<g id="drum">
	<circle fill="none" stroke="#00ED95" stroke-width="1.5" cx="204.148" cy="31.881" r="7.089"/>
	<path fill="#00ED95" d="M205.553,33.214c0,0.775-0.629,1.403-1.404,1.403c-0.771,0-1.399-0.696-1.399-1.474
		c0-0.774,0.628-1.332,1.399-1.332C204.924,31.811,205.553,32.44,205.553,33.214"/>
	<path fill="none" stroke="#00ED95" stroke-width="1.5" d="M205.553,33.214c0,0.775-0.629,1.403-1.404,1.403
		c-0.771,0-1.399-0.696-1.399-1.474c0-0.774,0.628-1.332,1.399-1.332C204.924,31.811,205.553,32.44,205.553,33.214z"/>
	<line fill="none" stroke="#00ED95" stroke-width="1.5" x1="204.148" y1="42.267" x2="204.148" y2="33.284"/>
</g>
<circle id="envstart" fill="#FF3A5D" cx="190.578" cy="97.845" r="2.835"/>
<circle id="envend" fill="#FF3A5D" cx="219.177" cy="97.845" r="2.835"/>
<line id="env_1_" fill="none" stroke="#FF3A5D" stroke-width="1.5" stroke-linecap="square" stroke-linejoin="bevel" x1="191.115" y1="123.639" x2="219.177" y2="97.607"/>
<rect id="redanim" x="182.195" y="89.493" fill="none" stroke="#383572" stroke-width="1.5" stroke-linecap="square" width="44.826" height="42.399"/>
<line fill="none" stroke="#383572" stroke-width="1.5" stroke-linecap="square" x1="204.934" y1="55.114" x2="204.934" y2="89.406"/>
<line fill="none" stroke="#000000" stroke-width="1.5" stroke-linecap="square" x1="203.441" y1="56.963" x2="203.441" y2="60.264"/>
<line fill="none" stroke="#000000" stroke-width="1.5" stroke-linecap="square" x1="206.346" y1="56.963" x2="206.346" y2="60.264"/>
<g id="adsr">
	<path fill="none" stroke="#DFD9FF" stroke-width="1.5" d="M203.021,30.106h8.594c0,0,0.871,6.51,6.74,6.51"/>
	<path fill="none" stroke="#DFD9FF" stroke-width="1.5" d="M188.355,36.616c0,0,0.33-9.839,8.146-14.334
		c0,0-0.326,7.824,6.521,7.824"/>
</g>
<g id="dynaenv">
	<path fill="none" stroke="#00ED95" stroke-width="1.5" stroke-linecap="square" d="M203.021,30.106h8.594c0,0,0.871,6.51,6.74,6.51
		"/>
	<path fill="none" stroke="#00ED95" stroke-width="1.5" stroke-linecap="square" d="M188.355,36.616c0,0,0.33-9.839,8.146-14.334
		c0,0-0.326,7.824,6.521,7.824"/>
</g>
</svg>
