<?xml version="1.0" encoding="utf-8"?>
<!-- Generator: Adobe Illustrator 14.0.0, SVG Export Plug-In . SVG Version: 6.00 Build 43363)  -->
<!DOCTYPE svg PUBLIC "-//W3C//DTD SVG 1.1//EN" "http://www.w3.org/Graphics/SVG/1.1/DTD/svg11.dtd">
<svg version="1.1" id="Layer_1" xmlns="http://www.w3.org/2000/svg" xmlns:xlink="http://www.w3.org/1999/xlink" x="0px" y="0px"
	 width="320px" height="160px" viewBox="0 0 320 160" enable-background="new 0 0 320 160" xml:space="preserve">
<line id="endline" fill="none" stroke="#272F66" stroke-width="1.5" stroke-dasharray="4,2" x1="18.371" y1="39.951" x2="18.371" y2="137.031"/>
<line id="loopoutline" fill="none" stroke="#272F66" stroke-width="1.5" stroke-dasharray="4,2" x1="18.371" y1="39.45" x2="18.371" y2="136.533"/>
<line id="loopinline" fill="none" stroke="#272F66" stroke-width="1.5" stroke-dasharray="4,2" x1="18.371" y1="39.45" x2="18.371" y2="136.533"/>
<line id="startline" fill="none" stroke="#272F66" stroke-width="1.5" stroke-dasharray="4,2" x1="18.371" y1="39.45" x2="18.371" y2="136.533"/>
<g id="overview">
	<path fill="none" stroke="#272F66" stroke-width="1.5" stroke-linecap="square" d="M88.416,26.76h-0.924
		c-0.509,0-1.021-0.066-1.137-0.148c-0.116-0.081-0.738-1.163-1.381-2.406c-0.644-1.243-1.327-2.349-1.521-2.461
		c-0.194-0.11-0.545-0.26-0.779-0.331c-0.232-0.071-0.585-0.062-0.778,0.018c-0.194,0.081-0.562,0.197-0.812,0.257
		c-0.253,0.061-0.796,0.061-1.205,0c-0.409-0.061-0.919-0.201-1.134-0.312c-0.215-0.111-0.66-0.136-0.991-0.055
		c-0.331,0.082-0.938,0.331-1.347,0.551c-0.407,0.223-0.869,0.619-1.025,0.882c-0.153,0.263-0.729,0.692-1.272,0.956
		c-0.546,0.262-1.312,0.477-1.7,0.477c-0.388,0-1.042-0.43-1.451-0.955s-1.046-1.005-1.416-1.066s-0.77-0.333-0.887-0.606
		c-0.116-0.272-0.355-0.562-0.53-0.643c-0.176-0.08-0.479-0.51-0.675-0.955c-0.193-0.446-0.607-0.933-0.921-1.083
		c-0.312-0.151-1.604,0.102-2.87,0.562c-1.268,0.461-2.306,1.553-2.306,2.427v3.175c0,0.872-4.148,1.587-9.222,1.587h-9.22"/>
	<path fill="none" stroke="#272F66" stroke-width="1.5" stroke-linecap="square" d="M153.548,19.228c0,0-0.765,0.08-1.699,0.177
		c-0.937,0.095-2.466,0.492-3.398,0.882c-0.936,0.388-2.006,1.021-2.381,1.409c-0.375,0.388-0.985,0.866-1.358,1.059
		c-0.374,0.194-1.14,0.432-1.701,0.529c-0.562,0.097-1.632,0.176-2.38,0.176c-0.749,0-1.974,0.083-2.721,0.187
		c-0.748,0.104-1.819,0.822-2.38,1.598c-0.562,0.775-3.297,1.41-6.079,1.41h-5.06"/>
	<path fill="none" stroke="#272F66" stroke-width="1.5" stroke-linecap="square" d="M153.548,19.228c0,0,1.037-0.477,2.307-1.061
		c1.269-0.583,3.342-1.774,4.608-2.646c1.271-0.873,2.309-0.873,2.309,0v3.174c0,0.874,1.037,2.302,2.31,3.176
		c1.271,0.873,3.342,2.301,4.604,3.175c1.271,0.873,4.379,1.587,6.916,1.587c2.532,0,5.646-0.715,6.914-1.587
		c1.271-0.874,3.344-0.874,4.607,0c1.271,0.873,4.379,1.587,6.914,1.587h6.915h2.305"/>
	<path fill="none" stroke="#272F66" stroke-width="1.5" stroke-linecap="square" d="M307.955,26.653H296.4
		c-5.865,0-10.77-0.19-10.879-0.423c-0.115-0.231-0.322-0.587-0.461-0.788c-0.144-0.202-0.773-0.64-1.416-0.974
		c-0.646-0.333-1.479-0.697-1.848-0.809c-0.365-0.111-1.216,0.012-1.878,0.273c-0.657,0.261-1.532-0.095-1.942-0.792
		c-0.408-0.697-1.062-1.367-1.451-1.487c-0.389-0.122-0.979-0.914-1.312-1.763c-0.33-0.848-0.92-2.029-1.312-2.626
		c-0.387-0.595-0.883-1.215-1.096-1.377c-0.218-0.161-0.601-0.435-0.854-0.605c-0.252-0.173-0.508-0.478-0.562-0.68
		c-0.062-0.202-0.268-0.492-0.461-0.643c-0.195-0.151-0.703-0.333-1.135-0.404c-0.43-0.07-0.982,0.022-1.236,0.202
		c-0.258,0.182-0.639,0.645-0.854,1.029c-0.215,0.382-1.025,1.218-1.809,1.854c-0.777,0.637-1.562,1.281-1.732,1.433
		c-0.176,0.151-0.621,0.334-0.992,0.404c-0.367,0.072-0.861,0.493-1.098,0.938c-0.234,0.444-0.648,1.328-0.924,1.965
		c-0.271,0.637-0.688,1.297-0.92,1.469c-0.23,0.171-0.838,0.337-1.353,0.367c-0.504,0.03-1.146,0.179-1.416,0.331
		c-0.271,0.151-0.521,0.498-0.562,0.772c-0.039,0.272-0.531,0.934-1.104,1.469c-0.562,0.535-2.57,0.974-4.464,0.974
		c-1.892,0-3.524-0.066-3.646-0.148c-0.115-0.081-0.736-1.163-1.383-2.406c-0.648-1.243-1.326-2.349-1.521-2.461
		c-0.188-0.11-0.543-0.26-0.772-0.331c-0.233-0.071-0.589-0.062-0.778,0.018c-0.191,0.081-0.562,0.197-0.812,0.257
		c-0.254,0.061-0.795,0.061-1.205,0c-0.403-0.061-0.918-0.201-1.133-0.312c-0.215-0.111-0.66-0.136-0.989-0.055
		c-0.328,0.082-0.938,0.331-1.349,0.551c-0.41,0.223-0.871,0.619-1.021,0.882c-0.156,0.263-0.729,0.693-1.272,0.956
		c-0.548,0.262-1.312,0.477-1.699,0.477c-0.394,0-1.043-0.43-1.451-0.955c-0.405-0.525-1.049-1.005-1.418-1.066
		c-0.366-0.061-0.771-0.333-0.885-0.606c-0.117-0.272-0.354-0.562-0.531-0.643c-0.176-0.08-0.479-0.51-0.674-0.955
		c-0.192-0.446-0.604-0.933-0.92-1.083c-0.312-0.151-1.604,0.102-2.871,0.562c-1.271,0.461-2.308,1.553-2.308,2.427v3.175
		c0,0.873-4.147,1.587-9.221,1.587h-9.226"/>
	<path fill="none" stroke="#272F66" stroke-width="1.5" stroke-linecap="square" d="M16.956,22.057c0,0,0.096-0.223,0.212-0.496
		C17.285,21.29,17.523,21,17.7,20.918c0.175-0.08,0.479-0.51,0.672-0.955c0.194-0.446,0.609-0.933,0.921-1.083
		c0.312-0.151,1.604,0.102,2.872,0.562c1.269,0.461,2.307,1.553,2.307,2.427v3.175c0,0.873,4.146,1.587,9.22,1.587h9.22"/>
	<path fill="none" stroke="#698EFF" stroke-width="1.5" stroke-linecap="square" d="M124.388,26.653c0,0-0.097-0.19-0.214-0.423
		c-0.116-0.231-0.323-0.587-0.461-0.788c-0.137-0.202-0.771-0.64-1.416-0.974c-0.644-0.333-1.472-0.697-1.842-0.809
		c-0.371-0.111-1.215,0.012-1.878,0.273c-0.663,0.261-1.538-0.095-1.947-0.792c-0.406-0.697-1.062-1.367-1.45-1.487
		c-0.391-0.122-0.979-0.914-1.312-1.763c-0.332-0.848-0.922-2.029-1.312-2.626c-0.391-0.595-0.884-1.215-1.1-1.377
		c-0.214-0.161-0.596-0.435-0.85-0.605c-0.253-0.173-0.508-0.478-0.565-0.68c-0.06-0.202-0.266-0.492-0.46-0.643
		c-0.193-0.151-0.705-0.333-1.134-0.404c-0.429-0.07-0.985,0.022-1.239,0.202c-0.253,0.182-0.635,0.645-0.849,1.029
		c-0.215,0.382-1.027,1.218-1.807,1.854c-0.779,0.637-1.562,1.281-1.735,1.433c-0.176,0.151-0.621,0.334-0.991,0.404
		c-0.371,0.072-0.865,0.493-1.099,0.938c-0.232,0.444-0.647,1.328-0.921,1.965c-0.271,0.637-0.688,1.297-0.92,1.469
		c-0.232,0.171-0.841,0.337-1.347,0.367c-0.506,0.03-1.145,0.179-1.417,0.331c-0.271,0.151-0.526,0.498-0.564,0.772
		c-0.039,0.272-0.531,0.934-1.1,1.469c-0.562,0.535-2.155,0.974-3.539,0.974h-2.511"/>
</g>
<g id="magnified">
	<path fill="none" stroke="#272F66" stroke-width="1.5" stroke-linecap="square" d="M65.481,111.066H64.37
		c-0.614,0-1.114,1.535-1.114,3.41c0,1.877-0.667,3.403-1.479,3.403c-0.813,0-1.48-1.799-1.48-4v-9.872c0-2.195-0.954-4-2.118-4
		c-1.167,0-2.12-1.642-2.12-3.646c0-2.01-0.872-3.646-1.938-3.646c-1.063,0-1.937,0.688-1.937,1.527
		c0,0.838-0.747,1.521-1.661,1.521s-1.664-1.799-1.664-4V67.81c0-2.2-0.934-4-2.076-4c-1.141,0-2.076,1.8-2.076,4v8.463
		c0,2.201-0.685,4-1.521,4c-0.838,0-1.522-1.798-1.522-4V55.108c0-2.201-0.685-4-1.521-4s-1.523,0.793-1.523,1.764
		c0,0.971-0.747,1.764-1.662,1.764c-0.913,0-1.661-1.799-1.661-4v-9.168c0-2.2-0.684-4-1.519-4c-0.84,0-1.523,1.8-1.523,4v4.465
		c0,2.2-0.623,4-1.387,4c-0.761,0-1.384,1.8-1.384,4v74.75c0,2.192-1.826,4-4.056,4h-5.736"/>
	<path fill="none" stroke="#698EFF" stroke-width="1.5" stroke-linecap="square" d="M231.1,86.289v42.396c0,2.194-1.826,4-4.056,4
		h-4.364c-2.231,0-4.06-0.265-4.06-0.576c0-0.317-1.433-0.579-3.183-0.579s-3.184-0.479-3.184-1.062
		c0-0.579-0.749-1.059-1.661-1.059c-0.915,0-1.661-1.062-1.661-2.354c0-1.291-0.871-2.354-1.938-2.354
		c-1.062,0-1.935,1.219-1.935,2.705c0,1.482-1.058,2.703-2.35,2.703c-1.296,0-2.354-0.479-2.354-1.062s-0.748-1.061-1.662-1.061
		c-0.911,0-1.658,1.056-1.658,2.343c0,1.289-1.748,2.343-3.876,2.343c-2.132,0-3.877-1.003-3.877-2.224
		c0-1.229-0.808-2.229-1.802-2.229c-0.989,0-1.805,1.004-1.805,2.229c0,1.221-1.822,2.224-4.054,2.224h-1.576
		c-2.229,0-4.058-1.802-4.058-4v-0.441c0-2.197-1.245-4-2.766-4c-1.522,0-2.768,1.061-2.768,2.354c0,1.295-0.746,2.354-1.66,2.354
		c-0.915,0-1.661-1.801-1.661-4v-5.877c0-2.196-0.809-4-1.802-4c-0.994,0-1.803,1.644-1.803,3.646s-0.873,3.646-1.934,3.646
		s-1.938-1.804-1.938-4v-7.76c0-2.197-1.056-4-2.351-4c-1.295,0-2.354,1.48-2.354,3.295c0,1.812-0.748,3.293-1.662,3.293
		c-0.913,0-1.66-1.434-1.66-3.18s-0.872-3.174-1.938-3.174s-1.938-1.805-1.938-4v-5.17c0-2.199-0.808-4-1.8-4
		c-0.991,0-1.802,1.801-1.802,4v2.107c0,2.198-0.623,4-1.382,4c-0.761,0-1.384-1.802-1.384-4V77.839c0-2.2-0.936-4-2.077-4
		c-1.142,0-2.078-1.801-2.078-4v-0.467c0-2.2-0.875-4-1.936-4c-1.065,0-1.937,1.8-1.937,4v33.31c0,2.198-0.623,4-1.384,4
		c-0.764,0-1.387-1.802-1.387-4v-21.55c0-2.2-0.809-4-1.799-4c-0.99,0-1.802,1.8-1.802,4v47.548c0,2.198-0.184,4-0.4,4h-4.46h-3.887
		c-2.231,0-4.057-0.685-4.057-1.519c0-0.836-0.685-1.521-1.519-1.521c-0.839,0-1.522,0.685-1.522,1.521
		c0,0.834-1.557,1.519-3.462,1.519c-1.901,0-3.46-0.418-3.46-0.933c0-0.513-0.685-0.931-1.523-0.931c-0.835,0-1.52,0.418-1.52,0.931
		c0,0.515-1.247,0.933-2.768,0.933c-1.522,0-2.768-0.685-2.768-1.519c0-0.836-0.685-1.521-1.523-1.521
		c-0.836,0-1.52,0.685-1.52,1.521c0,0.834-0.935,1.519-2.079,1.519c-1.141,0-2.076-1.158-2.076-2.576s-0.685-2.578-1.521-2.578
		s-1.521-1.801-1.521-4v-3.986c0-2.199-0.684-4-1.522-4c-0.837,0-1.52,0.848-1.52,1.883c0,1.033-0.624,1.881-1.387,1.881
		c-0.763,0-1.385-1.801-1.385-4v-4.229c0-2.198-0.623-4-1.386-4c-0.76,0-1.384,0.83-1.384,1.853c0,1.021-0.748,1.853-1.663,1.853
		c-0.913,0-1.66-1.414-1.66-3.146c0-1.729-0.685-3.146-1.522-3.146c-0.838,0-1.522,1.806-1.522,4v5.878c0,2.198-0.746,4-1.661,4
		c-0.912,0-1.66-1.646-1.66-3.646s-0.372-3.646-0.825-3.646H65.48"/>
	<path fill="none" stroke="#272F66" stroke-width="1.5" stroke-linecap="square" d="M310.081,132.684h-5.163
		c-2.227,0-4.054-1.801-4.054-4v-6.199c0-2.192-0.812-4-1.804-4s-1.804,0.931-1.804,2.06s-0.933,2.06-2.073,2.06
		c-1.145,0-2.076-1.806-2.076-4V117.9c0-2.201-0.75-4-1.664-4c-0.911,0-1.657,1.061-1.657,2.354s-0.749,2.354-1.668,2.354
		c-0.913,0-1.657-0.896-1.657-2c0-1.1-0.809-1.998-1.803-1.998c-0.993,0-1.803,0.527-1.803,1.181c0,0.646-0.871,1.178-1.937,1.178
		c-1.063,0-1.937-1.479-1.937-3.293c0-1.812-0.811-3.293-1.803-3.293c-0.988,0-1.802,1.062-1.802,2.354s-0.875,2.354-1.938,2.354
		c-1.06,0-1.934-1.799-1.934-4v-0.699c0-2.197-0.688-4-1.523-4c-0.834,0-1.518,1.375-1.518,3.061c0,1.683-0.875,3.06-1.938,3.06
		c-1.063,0-1.938-1.802-1.938-4V90.145c0-2.199-0.746-1.168-1.659-1.168c-0.914,0-1.662-1.031-1.662,1.168v1.879
		c0,2.199-0.934,4-2.076,4c-1.142,0-2.075-1.588-2.075-3.522s-0.999-3.522-2.218-3.522c-1.22,0-2.215,1.479-2.215,3.293
		c0,1.812-0.871,3.293-1.937,3.293c-1.062,0-1.937-1.806-1.937-4V78.393c0-2.2-0.809-4-1.804-4c-0.991,0-1.804,1.8-1.804,4v5.641
		c0,2.2-0.684,4-1.516,4c-0.845,0-1.523-1.322-1.523-2.938c0-1.617-0.872-2.938-1.938-2.938c-1.066,0-1.938,1.588-1.938,3.527
		c0,1.938-0.745,2.104-1.66,2.104c-0.911,0-1.659-0.383-1.659-2.584V65.86c0-2.201-0.873-4-1.935-4c-1.065,0-1.938,1.799-1.938,4
		v20.428"/>
</g>
<g id="end">
	<ellipse id="endring" fill="none" stroke="#FF3A5D" stroke-width="1.5" cx="18.574" cy="132.779" rx="6.795" ry="6.666"/>
	<path fill="#FF3A5D" d="M21.292,132.779c0,1.477-1.217,2.666-2.718,2.666s-2.719-1.189-2.719-2.666
		c0-1.473,1.218-2.666,2.719-2.666S21.292,131.307,21.292,132.779"/>
</g>
<g id="loopin">
	<ellipse id="loopinring" fill="none" stroke="#00ED95" stroke-width="1.5" cx="18.539" cy="132.634" rx="6.796" ry="6.667"/>
	<path fill="#00ED95" d="M21.258,132.634c0,1.474-1.218,2.667-2.718,2.667c-1.502,0-2.719-1.193-2.719-2.667
		s1.217-2.666,2.719-2.666C20.04,129.968,21.258,131.162,21.258,132.634"/>
</g>
<g id="loopout">
	<path fill="#FFFFFF" d="M21.186,132.797c0,1.475-1.221,2.668-2.72,2.668c-1.501,0-2.72-1.193-2.72-2.668
		c0-1.473,1.219-2.664,2.72-2.664S21.186,131.324,21.186,132.797"/>
	<ellipse id="loopoutring" fill="none" stroke="#FFFFFF" stroke-width="1.5" cx="18.468" cy="132.797" rx="6.798" ry="6.668"/>
</g>
<g id="start">
	<ellipse id="startring" fill="none" stroke="#698EFF" stroke-width="1.5" cx="18.574" cy="132.779" rx="6.795" ry="6.666"/>
	<path fill="#698EFF" d="M21.292,132.779c0,1.477-1.217,2.666-2.718,2.666s-2.719-1.189-2.719-2.666
		c0-1.473,1.218-2.666,2.719-2.666S21.292,131.307,21.292,132.779"/>
</g>
<g id="shifted">
	<path id="play_x5F_rev" fill="none" stroke="#698EFF" stroke-width="1.5" d="M44.732,25.089c0,1.054-0.742,1.483-1.652,0.955
		l-12.844-7.429c-0.908-0.526-0.908-1.39,0-1.913L43.08,9.285c0.91-0.524,1.652-0.093,1.652,0.955V25.089z"/>
	<path id="play_x5F_fwd" fill="none" stroke="#698EFF" stroke-width="1.5" d="M32.141,10.047c0-1.052,0.747-1.482,1.657-0.955
		l12.843,7.411c0.909,0.522,0.909,1.386,0,1.908l-12.843,7.416c-0.91,0.522-1.657,0.094-1.657-0.954V10.047z"/>
	<g id="gain">
		<path fill="none" stroke="#FF3A5D" stroke-width="1.5" d="M292.357,27.598h-10l9-12c0.629-0.835,1-1.875,1-3c0-2.76-2.238-5-5-5
			s-5,2.24-5,5"/>
	</g>
</g>
</svg>
