<?xml version="1.0" encoding="utf-8"?>
<!-- Generator: Adobe Illustrator 14.0.0, SVG Export Plug-In . SVG Version: 6.00 Build 43363)  -->
<!DOCTYPE svg PUBLIC "-//W3C//DTD SVG 1.1//EN" "http://www.w3.org/Graphics/SVG/1.1/DTD/svg11.dtd">
<svg version="1.1" id="Layer_1" xmlns="http://www.w3.org/2000/svg" xmlns:xlink="http://www.w3.org/1999/xlink" x="0px" y="0px"
	 width="320px" height="160px" viewBox="0 0 320 160" enable-background="new 0 0 320 160" xml:space="preserve">
<g id="dots">
	<g>
		<line fill="none" stroke="#525261" stroke-linecap="square" x1="6.8" y1="6.9" x2="6.9" y2="6.9"/>
		<line fill="none" stroke="#525261" stroke-linecap="square" x1="16.7" y1="6.9" x2="16.7" y2="6.9"/>
		<line fill="none" stroke="#525261" stroke-linecap="square" x1="26.5" y1="6.9" x2="26.6" y2="6.9"/>
		<line fill="none" stroke="#525261" stroke-linecap="square" x1="36.4" y1="6.9" x2="36.5" y2="6.9"/>
		<line fill="none" stroke="#525261" stroke-linecap="square" x1="46.3" y1="6.9" x2="46.3" y2="6.9"/>
		<line fill="none" stroke="#525261" stroke-linecap="square" x1="56.1" y1="6.9" x2="56.2" y2="6.9"/>
		<line fill="none" stroke="#525261" stroke-linecap="square" x1="66" y1="6.9" x2="66.1" y2="6.9"/>
		<line fill="none" stroke="#525261" stroke-linecap="square" x1="75.8" y1="6.9" x2="75.9" y2="6.9"/>
		<line fill="none" stroke="#525261" stroke-linecap="square" x1="85.7" y1="6.9" x2="85.8" y2="6.9"/>
		<line fill="none" stroke="#525261" stroke-linecap="square" x1="95.6" y1="6.9" x2="95.7" y2="6.9"/>
		<line fill="none" stroke="#525261" stroke-linecap="square" x1="105.4" y1="6.9" x2="105.5" y2="6.9"/>
		<line fill="none" stroke="#525261" stroke-linecap="square" x1="115.3" y1="6.9" x2="115.4" y2="6.9"/>
		<line fill="none" stroke="#525261" stroke-linecap="square" x1="125.2" y1="6.9" x2="125.2" y2="6.9"/>
		<line fill="none" stroke="#525261" stroke-linecap="square" x1="135" y1="6.9" x2="135.1" y2="6.9"/>
		<line fill="none" stroke="#525261" stroke-linecap="square" x1="144.9" y1="6.9" x2="145" y2="6.9"/>
		<line fill="none" stroke="#525261" stroke-linecap="square" x1="154.8" y1="6.9" x2="154.8" y2="6.9"/>
		<line fill="none" stroke="#525261" stroke-linecap="square" x1="164.6" y1="6.9" x2="164.7" y2="6.9"/>
		<line fill="none" stroke="#525261" stroke-linecap="square" x1="174.5" y1="6.9" x2="174.6" y2="6.9"/>
		<line fill="none" stroke="#525261" stroke-linecap="square" x1="184.3" y1="6.9" x2="184.4" y2="6.9"/>
		<line fill="none" stroke="#525261" stroke-linecap="square" x1="194.2" y1="6.9" x2="194.3" y2="6.9"/>
		<line fill="none" stroke="#525261" stroke-linecap="square" x1="204.1" y1="6.9" x2="204.2" y2="6.9"/>
		<line fill="none" stroke="#525261" stroke-linecap="square" x1="213.9" y1="6.9" x2="214" y2="6.9"/>
		<line fill="none" stroke="#525261" stroke-linecap="square" x1="223.8" y1="6.9" x2="223.9" y2="6.9"/>
		<line fill="none" stroke="#525261" stroke-linecap="square" x1="233.7" y1="6.9" x2="233.8" y2="6.9"/>
		<line fill="none" stroke="#525261" stroke-linecap="square" x1="243.5" y1="6.9" x2="243.6" y2="6.9"/>
		<line fill="none" stroke="#525261" stroke-linecap="square" x1="253.4" y1="6.9" x2="253.5" y2="6.9"/>
		<line fill="none" stroke="#525261" stroke-linecap="square" x1="263.3" y1="6.9" x2="263.3" y2="6.9"/>
		<line fill="none" stroke="#525261" stroke-linecap="square" x1="273.1" y1="6.9" x2="273.2" y2="6.9"/>
		<line fill="none" stroke="#525261" stroke-linecap="square" x1="283" y1="6.9" x2="283.1" y2="6.9"/>
		<line fill="none" stroke="#525261" stroke-linecap="square" x1="292.8" y1="6.9" x2="292.9" y2="6.9"/>
		<line fill="none" stroke="#525261" stroke-linecap="square" x1="302.7" y1="6.9" x2="302.8" y2="6.9"/>
		<line fill="none" stroke="#525261" stroke-linecap="square" x1="312.6" y1="6.9" x2="312.7" y2="6.9"/>
	</g>
	<g>
		<line fill="none" stroke="#525261" stroke-linecap="square" x1="6.8" y1="16.8" x2="6.9" y2="16.8"/>
		<line fill="none" stroke="#525261" stroke-linecap="square" x1="16.7" y1="16.8" x2="16.7" y2="16.8"/>
		<line fill="none" stroke="#525261" stroke-linecap="square" x1="26.5" y1="16.8" x2="26.6" y2="16.8"/>
		<line fill="none" stroke="#525261" stroke-linecap="square" x1="36.4" y1="16.8" x2="36.5" y2="16.8"/>
		<line fill="none" stroke="#525261" stroke-linecap="square" x1="46.3" y1="16.8" x2="46.3" y2="16.8"/>
		<line fill="none" stroke="#525261" stroke-linecap="square" x1="56.1" y1="16.8" x2="56.2" y2="16.8"/>
		<line fill="none" stroke="#525261" stroke-linecap="square" x1="66" y1="16.8" x2="66.1" y2="16.8"/>
		<line fill="none" stroke="#525261" stroke-linecap="square" x1="75.8" y1="16.8" x2="75.9" y2="16.8"/>
		<line fill="none" stroke="#525261" stroke-linecap="square" x1="85.7" y1="16.8" x2="85.8" y2="16.8"/>
		<line fill="none" stroke="#525261" stroke-linecap="square" x1="95.6" y1="16.8" x2="95.7" y2="16.8"/>
		<line fill="none" stroke="#525261" stroke-linecap="square" x1="105.4" y1="16.8" x2="105.5" y2="16.8"/>
		<line fill="none" stroke="#525261" stroke-linecap="square" x1="115.3" y1="16.8" x2="115.4" y2="16.8"/>
		<line fill="none" stroke="#525261" stroke-linecap="square" x1="125.2" y1="16.8" x2="125.2" y2="16.8"/>
		<line fill="none" stroke="#525261" stroke-linecap="square" x1="135" y1="16.8" x2="135.1" y2="16.8"/>
		<line fill="none" stroke="#525261" stroke-linecap="square" x1="144.9" y1="16.8" x2="145" y2="16.8"/>
		<line fill="none" stroke="#525261" stroke-linecap="square" x1="154.8" y1="16.8" x2="154.8" y2="16.8"/>
		<line fill="none" stroke="#525261" stroke-linecap="square" x1="164.6" y1="16.8" x2="164.7" y2="16.8"/>
		<line fill="none" stroke="#525261" stroke-linecap="square" x1="174.5" y1="16.8" x2="174.6" y2="16.8"/>
		<line fill="none" stroke="#525261" stroke-linecap="square" x1="184.3" y1="16.8" x2="184.4" y2="16.8"/>
		<line fill="none" stroke="#525261" stroke-linecap="square" x1="194.2" y1="16.8" x2="194.3" y2="16.8"/>
		<line fill="none" stroke="#525261" stroke-linecap="square" x1="204.1" y1="16.8" x2="204.2" y2="16.8"/>
		<line fill="none" stroke="#525261" stroke-linecap="square" x1="213.9" y1="16.8" x2="214" y2="16.8"/>
		<line fill="none" stroke="#525261" stroke-linecap="square" x1="223.8" y1="16.8" x2="223.9" y2="16.8"/>
		<line fill="none" stroke="#525261" stroke-linecap="square" x1="233.7" y1="16.8" x2="233.8" y2="16.8"/>
		<line fill="none" stroke="#525261" stroke-linecap="square" x1="243.5" y1="16.8" x2="243.6" y2="16.8"/>
		<line fill="none" stroke="#525261" stroke-linecap="square" x1="253.4" y1="16.8" x2="253.5" y2="16.8"/>
		<line fill="none" stroke="#525261" stroke-linecap="square" x1="263.3" y1="16.8" x2="263.3" y2="16.8"/>
		<line fill="none" stroke="#525261" stroke-linecap="square" x1="273.1" y1="16.8" x2="273.2" y2="16.8"/>
		<line fill="none" stroke="#525261" stroke-linecap="square" x1="283" y1="16.8" x2="283.1" y2="16.8"/>
		<line fill="none" stroke="#525261" stroke-linecap="square" x1="292.8" y1="16.8" x2="292.9" y2="16.8"/>
		<line fill="none" stroke="#525261" stroke-linecap="square" x1="302.7" y1="16.8" x2="302.8" y2="16.8"/>
		<line fill="none" stroke="#525261" stroke-linecap="square" x1="312.6" y1="16.8" x2="312.7" y2="16.8"/>
	</g>
	<g>
		<line fill="none" stroke="#525261" stroke-linecap="square" x1="6.8" y1="26.6" x2="6.9" y2="26.6"/>
		<line fill="none" stroke="#525261" stroke-linecap="square" x1="16.7" y1="26.6" x2="16.7" y2="26.6"/>
		<line fill="none" stroke="#525261" stroke-linecap="square" x1="26.5" y1="26.6" x2="26.6" y2="26.6"/>
		<line fill="none" stroke="#525261" stroke-linecap="square" x1="36.4" y1="26.6" x2="36.5" y2="26.6"/>
		<line fill="none" stroke="#525261" stroke-linecap="square" x1="46.3" y1="26.6" x2="46.3" y2="26.6"/>
		<line fill="none" stroke="#525261" stroke-linecap="square" x1="56.1" y1="26.6" x2="56.2" y2="26.6"/>
		<line fill="none" stroke="#525261" stroke-linecap="square" x1="66" y1="26.6" x2="66.1" y2="26.6"/>
		<line fill="none" stroke="#525261" stroke-linecap="square" x1="75.8" y1="26.6" x2="75.9" y2="26.6"/>
		<line fill="none" stroke="#525261" stroke-linecap="square" x1="85.7" y1="26.6" x2="85.8" y2="26.6"/>
		<line fill="none" stroke="#525261" stroke-linecap="square" x1="95.6" y1="26.6" x2="95.7" y2="26.6"/>
		<line fill="none" stroke="#525261" stroke-linecap="square" x1="105.4" y1="26.6" x2="105.5" y2="26.6"/>
		<line fill="none" stroke="#525261" stroke-linecap="square" x1="115.3" y1="26.6" x2="115.4" y2="26.6"/>
		<line fill="none" stroke="#525261" stroke-linecap="square" x1="125.2" y1="26.6" x2="125.2" y2="26.6"/>
		<line fill="none" stroke="#525261" stroke-linecap="square" x1="135" y1="26.6" x2="135.1" y2="26.6"/>
		<line fill="none" stroke="#525261" stroke-linecap="square" x1="144.9" y1="26.6" x2="145" y2="26.6"/>
		<line fill="none" stroke="#525261" stroke-linecap="square" x1="154.8" y1="26.6" x2="154.8" y2="26.6"/>
		<line fill="none" stroke="#525261" stroke-linecap="square" x1="164.6" y1="26.6" x2="164.7" y2="26.6"/>
		<line fill="none" stroke="#525261" stroke-linecap="square" x1="174.5" y1="26.6" x2="174.6" y2="26.6"/>
		<line fill="none" stroke="#525261" stroke-linecap="square" x1="184.3" y1="26.6" x2="184.4" y2="26.6"/>
		<line fill="none" stroke="#525261" stroke-linecap="square" x1="194.2" y1="26.6" x2="194.3" y2="26.6"/>
		<line fill="none" stroke="#525261" stroke-linecap="square" x1="204.1" y1="26.6" x2="204.2" y2="26.6"/>
		<line fill="none" stroke="#525261" stroke-linecap="square" x1="213.9" y1="26.6" x2="214" y2="26.6"/>
		<line fill="none" stroke="#525261" stroke-linecap="square" x1="223.8" y1="26.6" x2="223.9" y2="26.6"/>
		<line fill="none" stroke="#525261" stroke-linecap="square" x1="233.7" y1="26.6" x2="233.8" y2="26.6"/>
		<line fill="none" stroke="#525261" stroke-linecap="square" x1="243.5" y1="26.6" x2="243.6" y2="26.6"/>
		<line fill="none" stroke="#525261" stroke-linecap="square" x1="253.4" y1="26.6" x2="253.5" y2="26.6"/>
		<line fill="none" stroke="#525261" stroke-linecap="square" x1="263.3" y1="26.6" x2="263.3" y2="26.6"/>
		<line fill="none" stroke="#525261" stroke-linecap="square" x1="273.1" y1="26.6" x2="273.2" y2="26.6"/>
		<line fill="none" stroke="#525261" stroke-linecap="square" x1="283" y1="26.6" x2="283.1" y2="26.6"/>
		<line fill="none" stroke="#525261" stroke-linecap="square" x1="292.8" y1="26.6" x2="292.9" y2="26.6"/>
		<line fill="none" stroke="#525261" stroke-linecap="square" x1="302.7" y1="26.6" x2="302.8" y2="26.6"/>
		<line fill="none" stroke="#525261" stroke-linecap="square" x1="312.6" y1="26.6" x2="312.7" y2="26.6"/>
	</g>
	<g>
		<line fill="none" stroke="#525261" stroke-linecap="square" x1="6.8" y1="36.5" x2="6.9" y2="36.5"/>
		<line fill="none" stroke="#525261" stroke-linecap="square" x1="16.7" y1="36.5" x2="16.7" y2="36.5"/>
		<line fill="none" stroke="#525261" stroke-linecap="square" x1="26.5" y1="36.5" x2="26.6" y2="36.5"/>
		<line fill="none" stroke="#525261" stroke-linecap="square" x1="36.4" y1="36.5" x2="36.5" y2="36.5"/>
		<line fill="none" stroke="#525261" stroke-linecap="square" x1="46.3" y1="36.5" x2="46.3" y2="36.5"/>
		<line fill="none" stroke="#525261" stroke-linecap="square" x1="56.1" y1="36.5" x2="56.2" y2="36.5"/>
		<line fill="none" stroke="#525261" stroke-linecap="square" x1="66" y1="36.5" x2="66.1" y2="36.5"/>
		<line fill="none" stroke="#525261" stroke-linecap="square" x1="75.8" y1="36.5" x2="75.9" y2="36.5"/>
		<line fill="none" stroke="#525261" stroke-linecap="square" x1="85.7" y1="36.5" x2="85.8" y2="36.5"/>
		<line fill="none" stroke="#525261" stroke-linecap="square" x1="95.6" y1="36.5" x2="95.7" y2="36.5"/>
		<line fill="none" stroke="#525261" stroke-linecap="square" x1="105.4" y1="36.5" x2="105.5" y2="36.5"/>
		<line fill="none" stroke="#525261" stroke-linecap="square" x1="115.3" y1="36.5" x2="115.4" y2="36.5"/>
		<line fill="none" stroke="#525261" stroke-linecap="square" x1="125.2" y1="36.5" x2="125.2" y2="36.5"/>
		<line fill="none" stroke="#525261" stroke-linecap="square" x1="135" y1="36.5" x2="135.1" y2="36.5"/>
		<line fill="none" stroke="#525261" stroke-linecap="square" x1="144.9" y1="36.5" x2="145" y2="36.5"/>
		<line fill="none" stroke="#525261" stroke-linecap="square" x1="154.8" y1="36.5" x2="154.8" y2="36.5"/>
		<line fill="none" stroke="#525261" stroke-linecap="square" x1="164.6" y1="36.5" x2="164.7" y2="36.5"/>
		<line fill="none" stroke="#525261" stroke-linecap="square" x1="174.5" y1="36.5" x2="174.6" y2="36.5"/>
		<line fill="none" stroke="#525261" stroke-linecap="square" x1="184.3" y1="36.5" x2="184.4" y2="36.5"/>
		<line fill="none" stroke="#525261" stroke-linecap="square" x1="194.2" y1="36.5" x2="194.3" y2="36.5"/>
		<line fill="none" stroke="#525261" stroke-linecap="square" x1="204.1" y1="36.5" x2="204.2" y2="36.5"/>
		<line fill="none" stroke="#525261" stroke-linecap="square" x1="213.9" y1="36.5" x2="214" y2="36.5"/>
		<line fill="none" stroke="#525261" stroke-linecap="square" x1="223.8" y1="36.5" x2="223.9" y2="36.5"/>
		<line fill="none" stroke="#525261" stroke-linecap="square" x1="233.7" y1="36.5" x2="233.8" y2="36.5"/>
		<line fill="none" stroke="#525261" stroke-linecap="square" x1="243.5" y1="36.5" x2="243.6" y2="36.5"/>
		<line fill="none" stroke="#525261" stroke-linecap="square" x1="253.4" y1="36.5" x2="253.5" y2="36.5"/>
		<line fill="none" stroke="#525261" stroke-linecap="square" x1="263.3" y1="36.5" x2="263.3" y2="36.5"/>
		<line fill="none" stroke="#525261" stroke-linecap="square" x1="273.1" y1="36.5" x2="273.2" y2="36.5"/>
		<line fill="none" stroke="#525261" stroke-linecap="square" x1="283" y1="36.5" x2="283.1" y2="36.5"/>
		<line fill="none" stroke="#525261" stroke-linecap="square" x1="292.8" y1="36.5" x2="292.9" y2="36.5"/>
		<line fill="none" stroke="#525261" stroke-linecap="square" x1="302.7" y1="36.5" x2="302.8" y2="36.5"/>
		<line fill="none" stroke="#525261" stroke-linecap="square" x1="312.6" y1="36.5" x2="312.7" y2="36.5"/>
	</g>
	<g>
		<line fill="none" stroke="#525261" stroke-linecap="square" x1="6.8" y1="46.4" x2="6.9" y2="46.4"/>
		<line fill="none" stroke="#525261" stroke-linecap="square" x1="16.7" y1="46.4" x2="16.7" y2="46.4"/>
		<line fill="none" stroke="#525261" stroke-linecap="square" x1="26.5" y1="46.4" x2="26.6" y2="46.4"/>
		<line fill="none" stroke="#525261" stroke-linecap="square" x1="36.4" y1="46.4" x2="36.5" y2="46.4"/>
		<line fill="none" stroke="#525261" stroke-linecap="square" x1="46.3" y1="46.4" x2="46.3" y2="46.4"/>
		<line fill="none" stroke="#525261" stroke-linecap="square" x1="56.1" y1="46.4" x2="56.2" y2="46.4"/>
		<line fill="none" stroke="#525261" stroke-linecap="square" x1="66" y1="46.4" x2="66.1" y2="46.4"/>
		<line fill="none" stroke="#525261" stroke-linecap="square" x1="75.8" y1="46.4" x2="75.9" y2="46.4"/>
		<line fill="none" stroke="#525261" stroke-linecap="square" x1="85.7" y1="46.4" x2="85.8" y2="46.4"/>
		<line fill="none" stroke="#525261" stroke-linecap="square" x1="95.6" y1="46.4" x2="95.7" y2="46.4"/>
		<line fill="none" stroke="#525261" stroke-linecap="square" x1="105.4" y1="46.4" x2="105.5" y2="46.4"/>
		<line fill="none" stroke="#525261" stroke-linecap="square" x1="115.3" y1="46.4" x2="115.4" y2="46.4"/>
		<line fill="none" stroke="#525261" stroke-linecap="square" x1="125.2" y1="46.4" x2="125.2" y2="46.4"/>
		<line fill="none" stroke="#525261" stroke-linecap="square" x1="135" y1="46.4" x2="135.1" y2="46.4"/>
		<line fill="none" stroke="#525261" stroke-linecap="square" x1="144.9" y1="46.4" x2="145" y2="46.4"/>
		<line fill="none" stroke="#525261" stroke-linecap="square" x1="154.8" y1="46.4" x2="154.8" y2="46.4"/>
		<line fill="none" stroke="#525261" stroke-linecap="square" x1="164.6" y1="46.4" x2="164.7" y2="46.4"/>
		<line fill="none" stroke="#525261" stroke-linecap="square" x1="174.5" y1="46.4" x2="174.6" y2="46.4"/>
		<line fill="none" stroke="#525261" stroke-linecap="square" x1="184.3" y1="46.4" x2="184.4" y2="46.4"/>
		<line fill="none" stroke="#525261" stroke-linecap="square" x1="194.2" y1="46.4" x2="194.3" y2="46.4"/>
		<line fill="none" stroke="#525261" stroke-linecap="square" x1="204.1" y1="46.4" x2="204.2" y2="46.4"/>
		<line fill="none" stroke="#525261" stroke-linecap="square" x1="213.9" y1="46.4" x2="214" y2="46.4"/>
		<line fill="none" stroke="#525261" stroke-linecap="square" x1="223.8" y1="46.4" x2="223.9" y2="46.4"/>
		<line fill="none" stroke="#525261" stroke-linecap="square" x1="233.7" y1="46.4" x2="233.8" y2="46.4"/>
		<line fill="none" stroke="#525261" stroke-linecap="square" x1="243.5" y1="46.4" x2="243.6" y2="46.4"/>
		<line fill="none" stroke="#525261" stroke-linecap="square" x1="253.4" y1="46.4" x2="253.5" y2="46.4"/>
		<line fill="none" stroke="#525261" stroke-linecap="square" x1="263.3" y1="46.4" x2="263.3" y2="46.4"/>
		<line fill="none" stroke="#525261" stroke-linecap="square" x1="273.1" y1="46.4" x2="273.2" y2="46.4"/>
		<line fill="none" stroke="#525261" stroke-linecap="square" x1="283" y1="46.4" x2="283.1" y2="46.4"/>
		<line fill="none" stroke="#525261" stroke-linecap="square" x1="292.8" y1="46.4" x2="292.9" y2="46.4"/>
		<line fill="none" stroke="#525261" stroke-linecap="square" x1="302.7" y1="46.4" x2="302.8" y2="46.4"/>
		<line fill="none" stroke="#525261" stroke-linecap="square" x1="312.6" y1="46.4" x2="312.7" y2="46.4"/>
	</g>
	<g>
		<line fill="none" stroke="#525261" stroke-linecap="square" x1="6.8" y1="56.3" x2="6.9" y2="56.3"/>
		<line fill="none" stroke="#525261" stroke-linecap="square" x1="16.7" y1="56.3" x2="16.7" y2="56.3"/>
		<line fill="none" stroke="#525261" stroke-linecap="square" x1="26.5" y1="56.3" x2="26.6" y2="56.3"/>
		<line fill="none" stroke="#525261" stroke-linecap="square" x1="36.4" y1="56.3" x2="36.5" y2="56.3"/>
		<line fill="none" stroke="#525261" stroke-linecap="square" x1="46.3" y1="56.3" x2="46.3" y2="56.3"/>
		<line fill="none" stroke="#525261" stroke-linecap="square" x1="56.1" y1="56.3" x2="56.2" y2="56.3"/>
		<line fill="none" stroke="#525261" stroke-linecap="square" x1="66" y1="56.3" x2="66.1" y2="56.3"/>
		<line fill="none" stroke="#525261" stroke-linecap="square" x1="75.8" y1="56.3" x2="75.9" y2="56.3"/>
		<line fill="none" stroke="#525261" stroke-linecap="square" x1="85.7" y1="56.3" x2="85.8" y2="56.3"/>
		<line fill="none" stroke="#525261" stroke-linecap="square" x1="95.6" y1="56.3" x2="95.7" y2="56.3"/>
		<line fill="none" stroke="#525261" stroke-linecap="square" x1="105.4" y1="56.3" x2="105.5" y2="56.3"/>
		<line fill="none" stroke="#525261" stroke-linecap="square" x1="115.3" y1="56.3" x2="115.4" y2="56.3"/>
		<line fill="none" stroke="#525261" stroke-linecap="square" x1="125.2" y1="56.3" x2="125.2" y2="56.3"/>
		<line fill="none" stroke="#525261" stroke-linecap="square" x1="135" y1="56.3" x2="135.1" y2="56.3"/>
		<line fill="none" stroke="#525261" stroke-linecap="square" x1="144.9" y1="56.3" x2="145" y2="56.3"/>
		<line fill="none" stroke="#525261" stroke-linecap="square" x1="154.8" y1="56.3" x2="154.8" y2="56.3"/>
		<line fill="none" stroke="#525261" stroke-linecap="square" x1="164.6" y1="56.3" x2="164.7" y2="56.3"/>
		<line fill="none" stroke="#525261" stroke-linecap="square" x1="174.5" y1="56.3" x2="174.6" y2="56.3"/>
		<line fill="none" stroke="#525261" stroke-linecap="square" x1="184.3" y1="56.3" x2="184.4" y2="56.3"/>
		<line fill="none" stroke="#525261" stroke-linecap="square" x1="194.2" y1="56.3" x2="194.3" y2="56.3"/>
		<line fill="none" stroke="#525261" stroke-linecap="square" x1="204.1" y1="56.3" x2="204.2" y2="56.3"/>
		<line fill="none" stroke="#525261" stroke-linecap="square" x1="213.9" y1="56.3" x2="214" y2="56.3"/>
		<line fill="none" stroke="#525261" stroke-linecap="square" x1="223.8" y1="56.3" x2="223.9" y2="56.3"/>
		<line fill="none" stroke="#525261" stroke-linecap="square" x1="233.7" y1="56.3" x2="233.8" y2="56.3"/>
		<line fill="none" stroke="#525261" stroke-linecap="square" x1="243.5" y1="56.3" x2="243.6" y2="56.3"/>
		<line fill="none" stroke="#525261" stroke-linecap="square" x1="253.4" y1="56.3" x2="253.5" y2="56.3"/>
		<line fill="none" stroke="#525261" stroke-linecap="square" x1="263.3" y1="56.3" x2="263.3" y2="56.3"/>
		<line fill="none" stroke="#525261" stroke-linecap="square" x1="273.1" y1="56.3" x2="273.2" y2="56.3"/>
		<line fill="none" stroke="#525261" stroke-linecap="square" x1="283" y1="56.3" x2="283.1" y2="56.3"/>
		<line fill="none" stroke="#525261" stroke-linecap="square" x1="292.8" y1="56.3" x2="292.9" y2="56.3"/>
		<line fill="none" stroke="#525261" stroke-linecap="square" x1="302.7" y1="56.3" x2="302.8" y2="56.3"/>
		<line fill="none" stroke="#525261" stroke-linecap="square" x1="312.6" y1="56.3" x2="312.7" y2="56.3"/>
	</g>
	<g>
		<line fill="none" stroke="#525261" stroke-linecap="square" x1="6.8" y1="66.2" x2="6.9" y2="66.2"/>
		<line fill="none" stroke="#525261" stroke-linecap="square" x1="16.7" y1="66.2" x2="16.7" y2="66.2"/>
		<line fill="none" stroke="#525261" stroke-linecap="square" x1="26.5" y1="66.2" x2="26.6" y2="66.2"/>
		<line fill="none" stroke="#525261" stroke-linecap="square" x1="36.4" y1="66.2" x2="36.5" y2="66.2"/>
		<line fill="none" stroke="#525261" stroke-linecap="square" x1="46.3" y1="66.2" x2="46.3" y2="66.2"/>
		<line fill="none" stroke="#525261" stroke-linecap="square" x1="56.1" y1="66.2" x2="56.2" y2="66.2"/>
		<line fill="none" stroke="#525261" stroke-linecap="square" x1="66" y1="66.2" x2="66.1" y2="66.2"/>
		<line fill="none" stroke="#525261" stroke-linecap="square" x1="75.8" y1="66.2" x2="75.9" y2="66.2"/>
		<line fill="none" stroke="#525261" stroke-linecap="square" x1="85.7" y1="66.2" x2="85.8" y2="66.2"/>
		<line fill="none" stroke="#525261" stroke-linecap="square" x1="95.6" y1="66.2" x2="95.7" y2="66.2"/>
		<line fill="none" stroke="#525261" stroke-linecap="square" x1="105.4" y1="66.2" x2="105.5" y2="66.2"/>
		<line fill="none" stroke="#525261" stroke-linecap="square" x1="115.3" y1="66.2" x2="115.4" y2="66.2"/>
		<line fill="none" stroke="#525261" stroke-linecap="square" x1="125.2" y1="66.2" x2="125.2" y2="66.2"/>
		<line fill="none" stroke="#525261" stroke-linecap="square" x1="135" y1="66.2" x2="135.1" y2="66.2"/>
		<line fill="none" stroke="#525261" stroke-linecap="square" x1="144.9" y1="66.2" x2="145" y2="66.2"/>
		<line fill="none" stroke="#525261" stroke-linecap="square" x1="154.8" y1="66.2" x2="154.8" y2="66.2"/>
		<line fill="none" stroke="#525261" stroke-linecap="square" x1="164.6" y1="66.2" x2="164.7" y2="66.2"/>
		<line fill="none" stroke="#525261" stroke-linecap="square" x1="174.5" y1="66.2" x2="174.6" y2="66.2"/>
		<line fill="none" stroke="#525261" stroke-linecap="square" x1="184.3" y1="66.2" x2="184.4" y2="66.2"/>
		<line fill="none" stroke="#525261" stroke-linecap="square" x1="194.2" y1="66.2" x2="194.3" y2="66.2"/>
		<line fill="none" stroke="#525261" stroke-linecap="square" x1="204.1" y1="66.2" x2="204.2" y2="66.2"/>
		<line fill="none" stroke="#525261" stroke-linecap="square" x1="213.9" y1="66.2" x2="214" y2="66.2"/>
		<line fill="none" stroke="#525261" stroke-linecap="square" x1="223.8" y1="66.2" x2="223.9" y2="66.2"/>
		<line fill="none" stroke="#525261" stroke-linecap="square" x1="233.7" y1="66.2" x2="233.8" y2="66.2"/>
		<line fill="none" stroke="#525261" stroke-linecap="square" x1="243.5" y1="66.2" x2="243.6" y2="66.2"/>
		<line fill="none" stroke="#525261" stroke-linecap="square" x1="253.4" y1="66.2" x2="253.5" y2="66.2"/>
		<line fill="none" stroke="#525261" stroke-linecap="square" x1="263.3" y1="66.2" x2="263.3" y2="66.2"/>
		<line fill="none" stroke="#525261" stroke-linecap="square" x1="273.1" y1="66.2" x2="273.2" y2="66.2"/>
		<line fill="none" stroke="#525261" stroke-linecap="square" x1="283" y1="66.2" x2="283.1" y2="66.2"/>
		<line fill="none" stroke="#525261" stroke-linecap="square" x1="292.8" y1="66.2" x2="292.9" y2="66.2"/>
		<line fill="none" stroke="#525261" stroke-linecap="square" x1="302.7" y1="66.2" x2="302.8" y2="66.2"/>
		<line fill="none" stroke="#525261" stroke-linecap="square" x1="312.6" y1="66.2" x2="312.7" y2="66.2"/>
	</g>
	<g>
		<line fill="none" stroke="#525261" stroke-linecap="square" x1="6.8" y1="76.1" x2="6.9" y2="76.1"/>
		<line fill="none" stroke="#525261" stroke-linecap="square" x1="16.7" y1="76.1" x2="16.7" y2="76.1"/>
		<line fill="none" stroke="#525261" stroke-linecap="square" x1="26.5" y1="76.1" x2="26.6" y2="76.1"/>
		<line fill="none" stroke="#525261" stroke-linecap="square" x1="36.4" y1="76.1" x2="36.5" y2="76.1"/>
		<line fill="none" stroke="#525261" stroke-linecap="square" x1="46.3" y1="76.1" x2="46.3" y2="76.1"/>
		<line fill="none" stroke="#525261" stroke-linecap="square" x1="56.1" y1="76.1" x2="56.2" y2="76.1"/>
		<line fill="none" stroke="#525261" stroke-linecap="square" x1="66" y1="76.1" x2="66.1" y2="76.1"/>
		<line fill="none" stroke="#525261" stroke-linecap="square" x1="75.8" y1="76.1" x2="75.9" y2="76.1"/>
		<line fill="none" stroke="#525261" stroke-linecap="square" x1="85.7" y1="76.1" x2="85.8" y2="76.1"/>
		<line fill="none" stroke="#525261" stroke-linecap="square" x1="95.6" y1="76.1" x2="95.7" y2="76.1"/>
		<line fill="none" stroke="#525261" stroke-linecap="square" x1="105.4" y1="76.1" x2="105.5" y2="76.1"/>
		<line fill="none" stroke="#525261" stroke-linecap="square" x1="115.3" y1="76.1" x2="115.4" y2="76.1"/>
		<line fill="none" stroke="#525261" stroke-linecap="square" x1="125.2" y1="76.1" x2="125.2" y2="76.1"/>
		<line fill="none" stroke="#525261" stroke-linecap="square" x1="135" y1="76.1" x2="135.1" y2="76.1"/>
		<line fill="none" stroke="#525261" stroke-linecap="square" x1="144.9" y1="76.1" x2="145" y2="76.1"/>
		<line fill="none" stroke="#525261" stroke-linecap="square" x1="154.8" y1="76.1" x2="154.8" y2="76.1"/>
		<line fill="none" stroke="#525261" stroke-linecap="square" x1="164.6" y1="76.1" x2="164.7" y2="76.1"/>
		<line fill="none" stroke="#525261" stroke-linecap="square" x1="174.5" y1="76.1" x2="174.6" y2="76.1"/>
		<line fill="none" stroke="#525261" stroke-linecap="square" x1="184.3" y1="76.1" x2="184.4" y2="76.1"/>
		<line fill="none" stroke="#525261" stroke-linecap="square" x1="194.2" y1="76.1" x2="194.3" y2="76.1"/>
		<line fill="none" stroke="#525261" stroke-linecap="square" x1="204.1" y1="76.1" x2="204.2" y2="76.1"/>
		<line fill="none" stroke="#525261" stroke-linecap="square" x1="213.9" y1="76.1" x2="214" y2="76.1"/>
		<line fill="none" stroke="#525261" stroke-linecap="square" x1="223.8" y1="76.1" x2="223.9" y2="76.1"/>
		<line fill="none" stroke="#525261" stroke-linecap="square" x1="233.7" y1="76.1" x2="233.8" y2="76.1"/>
		<line fill="none" stroke="#525261" stroke-linecap="square" x1="243.5" y1="76.1" x2="243.6" y2="76.1"/>
		<line fill="none" stroke="#525261" stroke-linecap="square" x1="253.4" y1="76.1" x2="253.5" y2="76.1"/>
		<line fill="none" stroke="#525261" stroke-linecap="square" x1="263.3" y1="76.1" x2="263.3" y2="76.1"/>
		<line fill="none" stroke="#525261" stroke-linecap="square" x1="273.1" y1="76.1" x2="273.2" y2="76.1"/>
		<line fill="none" stroke="#525261" stroke-linecap="square" x1="283" y1="76.1" x2="283.1" y2="76.1"/>
		<line fill="none" stroke="#525261" stroke-linecap="square" x1="292.8" y1="76.1" x2="292.9" y2="76.1"/>
		<line fill="none" stroke="#525261" stroke-linecap="square" x1="302.7" y1="76.1" x2="302.8" y2="76.1"/>
		<line fill="none" stroke="#525261" stroke-linecap="square" x1="312.6" y1="76.1" x2="312.7" y2="76.1"/>
	</g>
	<g>
		<line fill="none" stroke="#525261" stroke-linecap="square" x1="6.8" y1="85.9" x2="6.9" y2="85.9"/>
		<line fill="none" stroke="#525261" stroke-linecap="square" x1="16.7" y1="85.9" x2="16.7" y2="85.9"/>
		<line fill="none" stroke="#525261" stroke-linecap="square" x1="26.5" y1="85.9" x2="26.6" y2="85.9"/>
		<line fill="none" stroke="#525261" stroke-linecap="square" x1="36.4" y1="85.9" x2="36.5" y2="85.9"/>
		<line fill="none" stroke="#525261" stroke-linecap="square" x1="46.3" y1="85.9" x2="46.3" y2="85.9"/>
		<line fill="none" stroke="#525261" stroke-linecap="square" x1="56.1" y1="85.9" x2="56.2" y2="85.9"/>
		<line fill="none" stroke="#525261" stroke-linecap="square" x1="66" y1="85.9" x2="66.1" y2="85.9"/>
		<line fill="none" stroke="#525261" stroke-linecap="square" x1="75.8" y1="85.9" x2="75.9" y2="85.9"/>
		<line fill="none" stroke="#525261" stroke-linecap="square" x1="85.7" y1="85.9" x2="85.8" y2="85.9"/>
		<line fill="none" stroke="#525261" stroke-linecap="square" x1="95.6" y1="85.9" x2="95.7" y2="85.9"/>
		<line fill="none" stroke="#525261" stroke-linecap="square" x1="105.4" y1="85.9" x2="105.5" y2="85.9"/>
		<line fill="none" stroke="#525261" stroke-linecap="square" x1="115.3" y1="85.9" x2="115.4" y2="85.9"/>
		<line fill="none" stroke="#525261" stroke-linecap="square" x1="125.2" y1="85.9" x2="125.2" y2="85.9"/>
		<line fill="none" stroke="#525261" stroke-linecap="square" x1="135" y1="85.9" x2="135.1" y2="85.9"/>
		<line fill="none" stroke="#525261" stroke-linecap="square" x1="144.9" y1="85.9" x2="145" y2="85.9"/>
		<line fill="none" stroke="#525261" stroke-linecap="square" x1="154.8" y1="85.9" x2="154.8" y2="85.9"/>
		<line fill="none" stroke="#525261" stroke-linecap="square" x1="164.6" y1="85.9" x2="164.7" y2="85.9"/>
		<line fill="none" stroke="#525261" stroke-linecap="square" x1="174.5" y1="85.9" x2="174.6" y2="85.9"/>
		<line fill="none" stroke="#525261" stroke-linecap="square" x1="184.3" y1="85.9" x2="184.4" y2="85.9"/>
		<line fill="none" stroke="#525261" stroke-linecap="square" x1="194.2" y1="85.9" x2="194.3" y2="85.9"/>
		<line fill="none" stroke="#525261" stroke-linecap="square" x1="204.1" y1="85.9" x2="204.2" y2="85.9"/>
		<line fill="none" stroke="#525261" stroke-linecap="square" x1="213.9" y1="85.9" x2="214" y2="85.9"/>
		<line fill="none" stroke="#525261" stroke-linecap="square" x1="223.8" y1="85.9" x2="223.9" y2="85.9"/>
		<line fill="none" stroke="#525261" stroke-linecap="square" x1="233.7" y1="85.9" x2="233.8" y2="85.9"/>
		<line fill="none" stroke="#525261" stroke-linecap="square" x1="243.5" y1="85.9" x2="243.6" y2="85.9"/>
		<line fill="none" stroke="#525261" stroke-linecap="square" x1="253.4" y1="85.9" x2="253.5" y2="85.9"/>
		<line fill="none" stroke="#525261" stroke-linecap="square" x1="263.3" y1="85.9" x2="263.3" y2="85.9"/>
		<line fill="none" stroke="#525261" stroke-linecap="square" x1="273.1" y1="85.9" x2="273.2" y2="85.9"/>
		<line fill="none" stroke="#525261" stroke-linecap="square" x1="283" y1="85.9" x2="283.1" y2="85.9"/>
		<line fill="none" stroke="#525261" stroke-linecap="square" x1="292.8" y1="85.9" x2="292.9" y2="85.9"/>
		<line fill="none" stroke="#525261" stroke-linecap="square" x1="302.7" y1="85.9" x2="302.8" y2="85.9"/>
		<line fill="none" stroke="#525261" stroke-linecap="square" x1="312.6" y1="85.9" x2="312.7" y2="85.9"/>
	</g>
	<g>
		<line fill="none" stroke="#525261" stroke-linecap="square" x1="6.8" y1="95.8" x2="6.9" y2="95.8"/>
		<line fill="none" stroke="#525261" stroke-linecap="square" x1="16.7" y1="95.8" x2="16.7" y2="95.8"/>
		<line fill="none" stroke="#525261" stroke-linecap="square" x1="26.5" y1="95.8" x2="26.6" y2="95.8"/>
		<line fill="none" stroke="#525261" stroke-linecap="square" x1="36.4" y1="95.8" x2="36.5" y2="95.8"/>
		<line fill="none" stroke="#525261" stroke-linecap="square" x1="46.3" y1="95.8" x2="46.3" y2="95.8"/>
		<line fill="none" stroke="#525261" stroke-linecap="square" x1="56.1" y1="95.8" x2="56.2" y2="95.8"/>
		<line fill="none" stroke="#525261" stroke-linecap="square" x1="66" y1="95.8" x2="66.1" y2="95.8"/>
		<line fill="none" stroke="#525261" stroke-linecap="square" x1="75.8" y1="95.8" x2="75.9" y2="95.8"/>
		<line fill="none" stroke="#525261" stroke-linecap="square" x1="85.7" y1="95.8" x2="85.8" y2="95.8"/>
		<line fill="none" stroke="#525261" stroke-linecap="square" x1="95.6" y1="95.8" x2="95.7" y2="95.8"/>
		<line fill="none" stroke="#525261" stroke-linecap="square" x1="105.4" y1="95.8" x2="105.5" y2="95.8"/>
		<line fill="none" stroke="#525261" stroke-linecap="square" x1="115.3" y1="95.8" x2="115.4" y2="95.8"/>
		<line fill="none" stroke="#525261" stroke-linecap="square" x1="125.2" y1="95.8" x2="125.2" y2="95.8"/>
		<line fill="none" stroke="#525261" stroke-linecap="square" x1="135" y1="95.8" x2="135.1" y2="95.8"/>
		<line fill="none" stroke="#525261" stroke-linecap="square" x1="144.9" y1="95.8" x2="145" y2="95.8"/>
		<line fill="none" stroke="#525261" stroke-linecap="square" x1="154.8" y1="95.8" x2="154.8" y2="95.8"/>
		<line fill="none" stroke="#525261" stroke-linecap="square" x1="164.6" y1="95.8" x2="164.7" y2="95.8"/>
		<line fill="none" stroke="#525261" stroke-linecap="square" x1="174.5" y1="95.8" x2="174.6" y2="95.8"/>
		<line fill="none" stroke="#525261" stroke-linecap="square" x1="184.3" y1="95.8" x2="184.4" y2="95.8"/>
		<line fill="none" stroke="#525261" stroke-linecap="square" x1="194.2" y1="95.8" x2="194.3" y2="95.8"/>
		<line fill="none" stroke="#525261" stroke-linecap="square" x1="204.1" y1="95.8" x2="204.2" y2="95.8"/>
		<line fill="none" stroke="#525261" stroke-linecap="square" x1="213.9" y1="95.8" x2="214" y2="95.8"/>
		<line fill="none" stroke="#525261" stroke-linecap="square" x1="223.8" y1="95.8" x2="223.9" y2="95.8"/>
		<line fill="none" stroke="#525261" stroke-linecap="square" x1="233.7" y1="95.8" x2="233.8" y2="95.8"/>
		<line fill="none" stroke="#525261" stroke-linecap="square" x1="243.5" y1="95.8" x2="243.6" y2="95.8"/>
		<line fill="none" stroke="#525261" stroke-linecap="square" x1="253.4" y1="95.8" x2="253.5" y2="95.8"/>
		<line fill="none" stroke="#525261" stroke-linecap="square" x1="263.3" y1="95.8" x2="263.3" y2="95.8"/>
		<line fill="none" stroke="#525261" stroke-linecap="square" x1="273.1" y1="95.8" x2="273.2" y2="95.8"/>
		<line fill="none" stroke="#525261" stroke-linecap="square" x1="283" y1="95.8" x2="283.1" y2="95.8"/>
		<line fill="none" stroke="#525261" stroke-linecap="square" x1="292.8" y1="95.8" x2="292.9" y2="95.8"/>
		<line fill="none" stroke="#525261" stroke-linecap="square" x1="302.7" y1="95.8" x2="302.8" y2="95.8"/>
		<line fill="none" stroke="#525261" stroke-linecap="square" x1="312.6" y1="95.8" x2="312.7" y2="95.8"/>
	</g>
	<g>
		<line fill="none" stroke="#525261" stroke-linecap="square" x1="6.8" y1="105.7" x2="6.9" y2="105.7"/>
		<line fill="none" stroke="#525261" stroke-linecap="square" x1="16.7" y1="105.7" x2="16.7" y2="105.7"/>
		<line fill="none" stroke="#525261" stroke-linecap="square" x1="26.5" y1="105.7" x2="26.6" y2="105.7"/>
		<line fill="none" stroke="#525261" stroke-linecap="square" x1="36.4" y1="105.7" x2="36.5" y2="105.7"/>
		<line fill="none" stroke="#525261" stroke-linecap="square" x1="46.3" y1="105.7" x2="46.3" y2="105.7"/>
		<line fill="none" stroke="#525261" stroke-linecap="square" x1="56.1" y1="105.7" x2="56.2" y2="105.7"/>
		<line fill="none" stroke="#525261" stroke-linecap="square" x1="66" y1="105.7" x2="66.1" y2="105.7"/>
		<line fill="none" stroke="#525261" stroke-linecap="square" x1="75.8" y1="105.7" x2="75.9" y2="105.7"/>
		<line fill="none" stroke="#525261" stroke-linecap="square" x1="85.7" y1="105.7" x2="85.8" y2="105.7"/>
		<line fill="none" stroke="#525261" stroke-linecap="square" x1="95.6" y1="105.7" x2="95.7" y2="105.7"/>
		<line fill="none" stroke="#525261" stroke-linecap="square" x1="105.4" y1="105.7" x2="105.5" y2="105.7"/>
		<line fill="none" stroke="#525261" stroke-linecap="square" x1="115.3" y1="105.7" x2="115.4" y2="105.7"/>
		<line fill="none" stroke="#525261" stroke-linecap="square" x1="125.2" y1="105.7" x2="125.2" y2="105.7"/>
		<line fill="none" stroke="#525261" stroke-linecap="square" x1="135" y1="105.7" x2="135.1" y2="105.7"/>
		<line fill="none" stroke="#525261" stroke-linecap="square" x1="144.9" y1="105.7" x2="145" y2="105.7"/>
		<line fill="none" stroke="#525261" stroke-linecap="square" x1="154.8" y1="105.7" x2="154.8" y2="105.7"/>
		<line fill="none" stroke="#525261" stroke-linecap="square" x1="164.6" y1="105.7" x2="164.7" y2="105.7"/>
		<line fill="none" stroke="#525261" stroke-linecap="square" x1="174.5" y1="105.7" x2="174.6" y2="105.7"/>
		<line fill="none" stroke="#525261" stroke-linecap="square" x1="184.3" y1="105.7" x2="184.4" y2="105.7"/>
		<line fill="none" stroke="#525261" stroke-linecap="square" x1="194.2" y1="105.7" x2="194.3" y2="105.7"/>
		<line fill="none" stroke="#525261" stroke-linecap="square" x1="204.1" y1="105.7" x2="204.2" y2="105.7"/>
		<line fill="none" stroke="#525261" stroke-linecap="square" x1="213.9" y1="105.7" x2="214" y2="105.7"/>
		<line fill="none" stroke="#525261" stroke-linecap="square" x1="223.8" y1="105.7" x2="223.9" y2="105.7"/>
		<line fill="none" stroke="#525261" stroke-linecap="square" x1="233.7" y1="105.7" x2="233.8" y2="105.7"/>
		<line fill="none" stroke="#525261" stroke-linecap="square" x1="243.5" y1="105.7" x2="243.6" y2="105.7"/>
		<line fill="none" stroke="#525261" stroke-linecap="square" x1="253.4" y1="105.7" x2="253.5" y2="105.7"/>
		<line fill="none" stroke="#525261" stroke-linecap="square" x1="263.3" y1="105.7" x2="263.3" y2="105.7"/>
		<line fill="none" stroke="#525261" stroke-linecap="square" x1="273.1" y1="105.7" x2="273.2" y2="105.7"/>
		<line fill="none" stroke="#525261" stroke-linecap="square" x1="283" y1="105.7" x2="283.1" y2="105.7"/>
		<line fill="none" stroke="#525261" stroke-linecap="square" x1="292.8" y1="105.7" x2="292.9" y2="105.7"/>
		<line fill="none" stroke="#525261" stroke-linecap="square" x1="302.7" y1="105.7" x2="302.8" y2="105.7"/>
		<line fill="none" stroke="#525261" stroke-linecap="square" x1="312.6" y1="105.7" x2="312.7" y2="105.7"/>
	</g>
	<g>
		<line fill="none" stroke="#525261" stroke-linecap="square" x1="6.8" y1="115.6" x2="6.9" y2="115.6"/>
		<line fill="none" stroke="#525261" stroke-linecap="square" x1="16.7" y1="115.6" x2="16.7" y2="115.6"/>
		<line fill="none" stroke="#525261" stroke-linecap="square" x1="26.5" y1="115.6" x2="26.6" y2="115.6"/>
		<line fill="none" stroke="#525261" stroke-linecap="square" x1="36.4" y1="115.6" x2="36.5" y2="115.6"/>
		<line fill="none" stroke="#525261" stroke-linecap="square" x1="46.3" y1="115.6" x2="46.3" y2="115.6"/>
		<line fill="none" stroke="#525261" stroke-linecap="square" x1="56.1" y1="115.6" x2="56.2" y2="115.6"/>
		<line fill="none" stroke="#525261" stroke-linecap="square" x1="66" y1="115.6" x2="66.1" y2="115.6"/>
		<line fill="none" stroke="#525261" stroke-linecap="square" x1="75.8" y1="115.6" x2="75.9" y2="115.6"/>
		<line fill="none" stroke="#525261" stroke-linecap="square" x1="85.7" y1="115.6" x2="85.8" y2="115.6"/>
		<line fill="none" stroke="#525261" stroke-linecap="square" x1="95.6" y1="115.6" x2="95.7" y2="115.6"/>
		<line fill="none" stroke="#525261" stroke-linecap="square" x1="105.4" y1="115.6" x2="105.5" y2="115.6"/>
		<line fill="none" stroke="#525261" stroke-linecap="square" x1="115.3" y1="115.6" x2="115.4" y2="115.6"/>
		<line fill="none" stroke="#525261" stroke-linecap="square" x1="125.2" y1="115.6" x2="125.2" y2="115.6"/>
		<line fill="none" stroke="#525261" stroke-linecap="square" x1="135" y1="115.6" x2="135.1" y2="115.6"/>
		<line fill="none" stroke="#525261" stroke-linecap="square" x1="144.9" y1="115.6" x2="145" y2="115.6"/>
		<line fill="none" stroke="#525261" stroke-linecap="square" x1="154.8" y1="115.6" x2="154.8" y2="115.6"/>
		<line fill="none" stroke="#525261" stroke-linecap="square" x1="164.6" y1="115.6" x2="164.7" y2="115.6"/>
		<line fill="none" stroke="#525261" stroke-linecap="square" x1="174.5" y1="115.6" x2="174.6" y2="115.6"/>
		<line fill="none" stroke="#525261" stroke-linecap="square" x1="184.3" y1="115.6" x2="184.4" y2="115.6"/>
		<line fill="none" stroke="#525261" stroke-linecap="square" x1="194.2" y1="115.6" x2="194.3" y2="115.6"/>
		<line fill="none" stroke="#525261" stroke-linecap="square" x1="204.1" y1="115.6" x2="204.2" y2="115.6"/>
		<line fill="none" stroke="#525261" stroke-linecap="square" x1="213.9" y1="115.6" x2="214" y2="115.6"/>
		<line fill="none" stroke="#525261" stroke-linecap="square" x1="223.8" y1="115.6" x2="223.9" y2="115.6"/>
		<line fill="none" stroke="#525261" stroke-linecap="square" x1="233.7" y1="115.6" x2="233.8" y2="115.6"/>
		<line fill="none" stroke="#525261" stroke-linecap="square" x1="243.5" y1="115.6" x2="243.6" y2="115.6"/>
		<line fill="none" stroke="#525261" stroke-linecap="square" x1="253.4" y1="115.6" x2="253.5" y2="115.6"/>
		<line fill="none" stroke="#525261" stroke-linecap="square" x1="263.3" y1="115.6" x2="263.3" y2="115.6"/>
		<line fill="none" stroke="#525261" stroke-linecap="square" x1="273.1" y1="115.6" x2="273.2" y2="115.6"/>
		<line fill="none" stroke="#525261" stroke-linecap="square" x1="283" y1="115.6" x2="283.1" y2="115.6"/>
		<line fill="none" stroke="#525261" stroke-linecap="square" x1="292.8" y1="115.6" x2="292.9" y2="115.6"/>
		<line fill="none" stroke="#525261" stroke-linecap="square" x1="302.7" y1="115.6" x2="302.8" y2="115.6"/>
		<line id="grid_x5F_dot" fill="none" stroke="#525261" stroke-linecap="square" x1="312.6" y1="115.6" x2="312.7" y2="115.6"/>
	</g>
</g>
<g id="mult_x5F_times">
	<polyline fill="none" stroke="#00ED95" stroke-width="1.423" stroke-linecap="square" points="99.1,126.2 99.1,126.6 111.9,139.7 
		111.9,140.4 	"/>
	<polyline fill="none" stroke="#00ED95" stroke-width="1.423" stroke-linecap="square" points="99.1,140.4 99.1,139.7 111.9,127 
		111.9,126.2 	"/>
</g>
<g id="mult_x5F_div">
	<polyline fill="none" stroke="#00ED95" stroke-width="1.423" stroke-linecap="square" points="99.1,140.4 99.1,139.7 111.9,127 
		111.9,126.2 	"/>
</g>
<g id="mult_x5F_num">
	<circle fill="none" stroke="#00ED95" stroke-width="1.423" stroke-linecap="square" cx="122.1" cy="129.8" r="3.5"/>
	<circle fill="none" stroke="#00ED95" stroke-width="1.423" stroke-linecap="square" cx="122.1" cy="136.9" r="3.5"/>
</g>
<path id="line_x5F_grey" fill="none" stroke="#A1A1BF" stroke-linecap="square" d="M6.8,51.4c0,0,22.7-2,44.7-11.7
	c22-9.7,26.6-8.1,34.3-3.2"/>
<circle id="dot_x5F_white" fill="#F4F2FF" cx="0.1" cy="0" r="2.8"/>
<g id="hold">
	<path id="d_8_" fill="none" stroke="#FF3A5D" stroke-width="1.5" stroke-linecap="square" d="M293.6,138.9
		c1.5,0,2.801-1.2,2.801-2.801v-5.5c0-1.5-1.199-2.801-2.801-2.801h-2.8V138.9H293.6L293.6,138.9z"/>
	<path id="o_20_" fill="none" stroke="#FF3A5D" stroke-width="1.5" stroke-linecap="square" d="M274.7,130.8v5c0,1.7,1.399,3,3,3
		c1.6,0,3-1.399,3-3l0,0l0,0v-5c0-1.7-1.4-3-3-3C276.1,127.8,274.7,129.2,274.7,130.8L274.7,130.8L274.7,130.8L274.7,130.8z"/>
	<g id="h_9_">
		<line fill="none" stroke="#FF3A5D" stroke-width="1.5" stroke-linecap="square" x1="266.4" y1="127.8" x2="266.4" y2="138.9"/>
		<line fill="none" stroke="#FF3A5D" stroke-width="1.5" stroke-linecap="square" x1="272" y1="127.8" x2="272" y2="138.9"/>
		<line fill="none" stroke="#FF3A5D" stroke-width="1.5" stroke-linecap="square" x1="266.4" y1="133.3" x2="272" y2="133.3"/>
	</g>
	<polyline id="l_15_" fill="none" stroke="#FF3A5D" stroke-width="1.5" stroke-linecap="square" points="283.6,127.8 283.6,138.9 
		288.6,138.9 	"/>
	<rect x="262" y="124.5" fill="none" stroke="#FF3A5D" stroke-width="1.5" stroke-linecap="square" width="38.8" height="17.7"/>
</g>
<g id="grid_x5F_icon">
	
		<rect x="179.1" y="124.8" fill="none" stroke="#808099" stroke-width="1.5" stroke-linecap="square" stroke-linejoin="round" width="8.5" height="8.5"/>
	<polyline fill="none" stroke="#808099" stroke-width="1.5" stroke-linecap="square" stroke-linejoin="round" points="187.6,124.8 
		196.1,124.8 196.1,133.3 187.6,133.3 	"/>
	
		<rect x="196.1" y="124.8" fill="none" stroke="#808099" stroke-width="1.5" stroke-linecap="square" stroke-linejoin="round" width="8.5" height="8.5"/>
	<polyline fill="none" stroke="#808099" stroke-width="1.5" stroke-linecap="square" stroke-linejoin="round" points="204.6,124.8 
		213.1,124.8 213.1,133.3 204.6,133.3 	"/>
	<polyline fill="none" stroke="#808099" stroke-width="1.5" stroke-linecap="square" stroke-linejoin="round" points="187.6,133.3 
		187.6,141.8 179.1,141.8 179.1,133.3 	"/>
	<path fill="none" stroke="#808099" stroke-width="1.5" stroke-linecap="square" stroke-linejoin="round" d="M187.6,133.3"/>
	<polyline fill="none" stroke="#808099" stroke-width="1.5" stroke-linecap="square" stroke-linejoin="round" points="196.1,133.3 
		196.1,141.8 187.6,141.8 	"/>
	<path fill="none" stroke="#808099" stroke-width="1.5" stroke-linecap="square" stroke-linejoin="round" d="M196.1,133.3"/>
	<polyline fill="none" stroke="#808099" stroke-width="1.5" stroke-linecap="square" stroke-linejoin="round" points="204.6,133.3 
		204.6,141.8 196.1,141.8 	"/>
	<path fill="none" stroke="#808099" stroke-width="1.5" stroke-linecap="square" stroke-linejoin="round" d="M204.6,133.3"/>
	<polyline fill="none" stroke="#808099" stroke-width="1.5" stroke-linecap="square" stroke-linejoin="round" points="213.1,133.3 
		213.1,141.8 204.6,141.8 	"/>
</g>
<g id="erase">
	<path fill="none" stroke="#698EFF" stroke-width="1.5" stroke-linecap="square" d="M41.5,133.5"/>
	<path fill="none" stroke="#698EFF" stroke-width="1.5" stroke-linecap="square" d="M50.4,124.6"/>
	<polygon fill="none" stroke="#698EFF" stroke-width="1.5" stroke-linecap="square" points="29.3,133.5 38.3,124.6 50.4,124.6 
		50.4,133.2 41.5,142.1 41.5,142.1 29.3,142.1 	"/>
	<path fill="none" stroke="#698EFF" stroke-width="1.5" stroke-linecap="square" d="M41.5,133.5"/>
	<line fill="none" stroke="#698EFF" stroke-width="1.5" stroke-linecap="square" x1="49.8" y1="125.1" x2="41.5" y2="133.5"/>
	<line fill="none" stroke="#698EFF" stroke-width="1.5" stroke-linecap="square" x1="41.5" y1="133.5" x2="41.5" y2="141.5"/>
	<line fill="none" stroke="#698EFF" stroke-width="1.5" stroke-linecap="square" x1="29.9" y1="133.5" x2="41.5" y2="133.5"/>
</g>
<line id="pos_x5F_mark" fill="none" stroke="#41414D" stroke-width="1.5" stroke-linecap="square" x1="50.4" y1="6.9" x2="50.4" y2="115.6"/>
<circle id="dotblue" fill="#F4F2FF" cx="50.4" cy="40.1" r="1.7"/>
</svg>
