<?xml version="1.0" encoding="utf-8"?>
<!-- Generator: Adobe Illustrator 14.0.0, SVG Export Plug-In . SVG Version: 6.00 Build 43363)  -->
<!DOCTYPE svg PUBLIC "-//W3C//DTD SVG 1.1//EN" "http://www.w3.org/Graphics/SVG/1.1/DTD/svg11.dtd">
<svg version="1.1" id="Layer_1" xmlns="http://www.w3.org/2000/svg" xmlns:xlink="http://www.w3.org/1999/xlink" x="0px" y="0px"
	 width="320px" height="160px" viewBox="0 0 320 160" enable-background="new 0 0 320 160" xml:space="preserve">
<path id="r" fill="none" stroke="#698EFF" stroke-width="1.9458" d="M222.044,72.208c0,0,22.556,63.782,71.698,63.782"/>
<line id="s" fill="none" stroke="#698EFF" stroke-width="1.9458" x1="171.529" y1="72.208" x2="222.044" y2="72.208"/>
<path id="a" fill="none" stroke="#698EFF" stroke-width="1.9458" d="M27.003,135.988c0,0,17.128-78.51,77.127-114.292"/>
<g id="srdot">
	<path fill="#FF423F" d="M3.604,0.181c0,1.957-1.584,3.542-3.541,3.542c-1.958,0-3.543-1.585-3.543-3.542
		c0-1.958,1.585-3.542,3.543-3.542C2.018-3.361,3.604-1.777,3.604,0.181"/>
	<circle fill="none" cx="0.063" cy="0.181" r="3.543"/>
</g>
<path id="d" fill="none" stroke="#698EFF" stroke-width="1.9458" d="M104.131,21.696c0,0,3.788,50.512,67.398,50.512"/>
<g id="addot">
	<path fill="#698EFF" d="M3.206,21.895c0,1.956-1.587,3.541-3.542,3.541c-1.956,0-3.543-1.585-3.543-3.541s1.587-3.544,3.543-3.544
		C1.619,18.351,3.206,19.939,3.206,21.895"/>
	<circle fill="none" cx="-0.335" cy="21.895" r="3.542"/>
</g>
<g id="dsdot">
	<path fill="#00ED95" d="M3.584,0.181c0,1.946-1.576,3.52-3.521,3.52c-1.943,0-3.521-1.577-3.521-3.52
		c0-1.943,1.577-3.518,3.521-3.518C2.008-3.34,3.584-1.762,3.584,0.181"/>
	<circle fill="none" cx="0.062" cy="0.181" r="3.519"/>
</g>
<g id="rdot">
	<path fill="#698EFF" d="M297.284,135.99c0,1.955-1.587,3.542-3.542,3.542c-1.958,0-3.544-1.586-3.544-3.542
		c0-1.958,1.586-3.545,3.544-3.545C295.693,132.445,297.284,134.033,297.284,135.99"/>
	<circle fill="none" cx="293.742" cy="135.989" r="3.543"/>
</g>
<g id="adot">
	<path fill="#698EFF" d="M30.545,135.989c0,1.956-1.586,3.542-3.542,3.542s-3.543-1.586-3.543-3.542
		c0-1.959,1.587-3.544,3.543-3.544C28.958,132.445,30.545,134.032,30.545,135.989"/>
	<circle fill="none" cx="27.003" cy="135.989" r="3.542"/>
</g>
</svg>
