<?xml version="1.0" encoding="utf-8"?>
<!-- Generator: Adobe Illustrator 14.0.0, SVG Export Plug-In . SVG Version: 6.00 Build 43363)  -->
<!DOCTYPE svg PUBLIC "-//W3C//DTD SVG 1.1//EN" "http://www.w3.org/Graphics/SVG/1.1/DTD/svg11.dtd">
<svg version="1.1" id="Layer_1" xmlns="http://www.w3.org/2000/svg" xmlns:xlink="http://www.w3.org/1999/xlink" x="0px" y="0px"
	 width="320px" height="160px" viewBox="0 0 320 160" enable-background="new 0 0 320 160" xml:space="preserve">
<g id="static">
	
		<rect x="95.332" y="8.867" fill="none" stroke="#AEB1DC" stroke-width="1.5" stroke-linecap="square" width="133.668" height="104.633"/>
	<path fill="none" stroke="#435569" stroke-width="1.5" d="M195.008,60.582c0,26.104-21.165,47.268-47.273,47.268
		c-26.109,0-47.271-21.164-47.271-47.268c0-26.108,21.16-47.274,47.271-47.274C173.844,13.308,195.008,34.474,195.008,60.582z"/>
	<g>
		<path fill="none" stroke="#435569" stroke-width="1.5" d="M190.129,60.582c0,23.41-18.98,42.389-42.395,42.389
			c-23.415,0-42.392-18.979-42.392-42.389c0-23.413,18.977-42.395,42.392-42.395C171.148,18.187,190.129,37.168,190.129,60.582z"/>
		<circle fill="none" stroke="#435569" stroke-width="1.5" cx="147.736" cy="60.582" r="39.795"/>
		<circle fill="none" stroke="#435569" stroke-width="1.5" cx="147.736" cy="60.581" r="37.197"/>
		<circle fill="none" stroke="#435569" stroke-width="1.5" cx="147.735" cy="60.581" r="34.599"/>
		<circle fill="none" stroke="#435569" stroke-width="1.5" cx="147.735" cy="60.581" r="32.001"/>
		<circle fill="none" stroke="#435569" stroke-width="1.5" cx="147.736" cy="60.581" r="29.403"/>
		<circle fill="none" stroke="#435569" stroke-width="1.5" cx="147.735" cy="60.581" r="26.804"/>
		<circle fill="none" stroke="#435569" stroke-width="1.5" cx="147.736" cy="60.581" r="24.207"/>
		<circle fill="none" stroke="#435569" stroke-width="1.5" cx="147.736" cy="60.58" r="21.609"/>
		<path fill="none" stroke="#435569" stroke-width="1.5" d="M166.746,60.58c0,10.498-8.512,19.009-19.011,19.009
			c-10.5,0-19.01-8.511-19.01-19.009c0-10.499,8.51-19.01,19.01-19.01C158.234,41.57,166.746,50.082,166.746,60.58z"/>
	</g>
	<circle fill="none" stroke="#313F4D" stroke-width="1.5" cx="105.984" cy="19.005" r="1.718"/>
	<circle fill="none" stroke="#313F4D" stroke-width="1.5" cx="105.984" cy="19.005" r="5.584"/>
	<rect x="98.767" y="101.303" fill="none" stroke="#313F4D" stroke-width="1.5" width="11.512" height="8.764"/>
	<rect x="113.484" y="108.346" fill="none" stroke="#313F4D" stroke-width="1.5" width="5.463" height="1.721"/>
	<rect x="121.654" y="108.346" fill="none" stroke="#313F4D" stroke-width="1.5" width="5.462" height="1.721"/>
	<path fill="none" stroke="#313F4D" stroke-width="1.5" d="M214.398,108.002c0,0.95-0.771,1.721-1.729,1.721
		c-0.938,0-1.717-0.771-1.717-1.721c0-0.947,0.771-1.717,1.717-1.717C213.63,106.285,214.398,107.055,214.398,108.002z"/>
	<circle fill="none" stroke="#313F4D" stroke-width="1.5" cx="220.411" cy="108.002" r="1.718"/>
	<line fill="none" stroke="#313F4D" stroke-width="1.5" x1="212.833" y1="97.352" x2="215.755" y2="97.352"/>
	<line fill="none" stroke="#313F4D" stroke-width="1.5" x1="212.833" y1="93.229" x2="215.755" y2="93.229"/>
	<line fill="none" stroke="#313F4D" stroke-width="1.5" x1="212.833" y1="89.104" x2="215.755" y2="89.104"/>
	<line fill="none" stroke="#313F4D" stroke-width="1.5" x1="212.833" y1="84.98" x2="215.755" y2="84.98"/>
	<line fill="none" stroke="#313F4D" stroke-width="1.5" x1="212.833" y1="80.857" x2="215.755" y2="80.857"/>
	<line fill="none" stroke="#313F4D" stroke-width="1.5" x1="212.833" y1="76.733" x2="215.755" y2="76.733"/>
	<line fill="none" stroke="#313F4D" stroke-width="1.5" x1="212.833" y1="72.611" x2="215.755" y2="72.611"/>
	<line fill="none" stroke="#313F4D" stroke-width="1.5" x1="212.833" y1="68.488" x2="215.755" y2="68.488"/>
	<line fill="none" stroke="#313F4D" stroke-width="1.5" x1="220.375" y1="66.768" x2="220.375" y2="99.756"/>
	<rect x="217.625" y="79.139" stroke="#837CC7" stroke-width="1.5" width="5.499" height="6.357"/>
	<circle fill="none" stroke="#435569" stroke-width="1.5" cx="220.919" cy="34.634" r="2.362"/>
	<path fill="none" stroke="#435569" stroke-width="1.5" d="M216.158,34.635c0-1.59,0.787-2.988,1.984-3.854
		c-1.545-3.99-5.414-6.823-9.947-6.823c-5.896,0-10.678,4.779-10.678,10.677c0,5.896,4.773,10.676,10.678,10.676
		c4.537,0,8.402-2.834,9.947-6.824C216.945,37.622,216.158,36.224,216.158,34.635z"/>
	<path fill="none" stroke="#435569" stroke-width="1.5" d="M216.158,34.635c0-2.322,1.665-4.251,3.865-4.671
		c-1.863-4.714-6.451-8.054-11.828-8.054c-7.027,0-12.725,5.697-12.725,12.725c0,7.028,5.688,12.723,12.725,12.723
		c5.377,0,9.966-3.34,11.828-8.054C217.823,38.883,216.158,36.956,216.158,34.635z"/>
	<path fill="none" stroke="#313F4D" stroke-width="1.5" d="M180.734,108.002c0,1.068-0.867,1.938-1.938,1.938h-4.649
		c-1.066,0-1.938-0.859-1.938-1.938l0,0c0-1.066,0.861-1.936,1.938-1.936h4.649C179.867,106.066,180.734,106.936,180.734,108.002
		L180.734,108.002z"/>
	<circle fill="none" stroke="#AEB1DC" stroke-width="1.5" stroke-linecap="square" cx="174.26" cy="107.99" r="1.266"/>
	<circle fill="none" stroke="#313F4D" stroke-width="1.5" cx="101.773" cy="92.343" r="4.017"/>
	<g>
		
			<line fill="none" stroke="#AEB1DC" stroke-width="1.5" stroke-linecap="square" x1="276.982" y1="14.242" x2="276.982" y2="22.17"/>
		<path fill="none" stroke="#AEB1DC" stroke-width="1.5" stroke-linecap="square" d="M270.062,20.173
			c0,1.095,0.888,1.983,1.979,1.983c1.102,0,1.982-0.888,1.982-1.983c0-0.445-0.312-1.052-0.854-1.391
			c-0.479-0.294-1.836-0.863-2.312-1.165c-0.58-0.374-0.811-0.962-0.811-1.407c0-1.095,0.893-1.983,1.979-1.983
			c1.1,0,1.98,0.888,1.98,1.983"/>
		<path fill="none" stroke="#AEB1DC" stroke-width="1.5" stroke-linecap="square" d="M282.123,22.227c1.094,0,1.98-0.887,1.98-1.982
			v-3.963c0-1.095-0.896-1.982-1.98-1.982h-1.979v7.928L282.123,22.227L282.123,22.227z"/>
		<polyline fill="none" stroke="#AEB1DC" stroke-width="1.5" stroke-linecap="square" points="290.592,22.227 287.023,22.227 
			287.023,14.299 290.592,14.299 		"/>
		
			<line fill="none" stroke="#AEB1DC" stroke-width="1.5" stroke-linecap="square" x1="287.023" y1="18.263" x2="290.195" y2="18.263"/>
	</g>
</g>
<circle id="arm_x5F_c" fill="none" stroke="#435569" stroke-width="1.5" cx="208.195" cy="34.635" r="3.946"/>
<circle id="turn_x5F_c" fill="#010101" stroke="#AEB1DC" stroke-width="1.5" stroke-linecap="square" cx="147.734" cy="60.583" r="1.546"/>
<g id="arm">
	
		<rect x="206.609" y="17.002" transform="matrix(-0.994 -0.109 0.109 -0.994 417.256 62.2447)" fill="#010101" stroke="#698EFF" stroke-width="1.5" width="7.439" height="5.44"/>
	<line fill="none" stroke="#698EFF" stroke-width="1.5" x1="208.773" y1="18.648" x2="208.657" y2="19.591"/>
	<line fill="none" stroke="#698EFF" stroke-width="1.5" x1="210.492" y1="18.838" x2="210.376" y2="19.777"/>
	<line fill="none" stroke="#698EFF" stroke-width="1.5" x1="212.214" y1="19.027" x2="212.098" y2="19.968"/>
	<polyline fill="none" stroke="#698EFF" stroke-width="1.5" points="208.923,16.737 209.189,14.286 212.543,14.653 212.273,17.104 	
		"/>
	<polygon fill="#010101" stroke="#698EFF" stroke-width="1.5" points="214.146,24.804 211.329,25.755 207.704,25.394 
		205.438,23.843 205.648,21.958 214.416,22.919 	"/>
	<circle fill="#698EFF" cx="208.672" cy="33.588" r="1.099"/>
	<polygon fill="#010101" stroke="#698EFF" stroke-width="1.5" points="210.936,29.321 209.791,39.664 209.195,42.498 
		206.262,42.249 206.262,39.365 207.361,28.967 207.713,28.917 207.76,28.575 207.463,28.469 207.704,25.394 211.329,25.755 
		210.984,28.824 210.637,28.874 210.594,29.229 	"/>
	<path fill="#010101" stroke="#698EFF" stroke-width="1.5" d="M206.561,42.498c-0.248,1.642,0,4.534,0,4.534l2.342-0.392
		c0,0-0.148-0.91,0.043-3.993"/>
	<polyline fill="#010101" stroke="#698EFF" stroke-width="1.5" points="201.049,90.324 203.8,86.284 206.826,88.273 204.094,92.262 
			"/>
	<polygon fill="#010101" stroke="#00ED95" stroke-width="1.5" points="196.686,105.917 191.332,102.363 194.544,97.416 
		195.714,97.305 200.573,89.99 204.48,92.613 199.672,99.811 199.827,101.094 	"/>
	<polyline fill="none" stroke="#00ED95" stroke-width="1.5" points="192.999,103.662 192.948,104.537 194.286,105.424 
		195.121,105.059 	"/>
	<circle fill="none" stroke="#00ED95" stroke-width="1.5" cx="204.904" cy="102.474" r="0.781"/>
	<line fill="none" stroke="#00ED95" stroke-width="1.5" x1="200.331" y1="99.238" x2="204.229" y2="101.834"/>
	<path fill="#00ED95" d="M198.268,100.713c0.271,0.174,0.354,0.535,0.178,0.811l-1.377,2.168c-0.176,0.272-0.53,0.354-0.812,0.187
		l0,0c-0.272-0.183-0.354-0.536-0.183-0.812l1.38-2.168C197.629,100.62,197.993,100.539,198.268,100.713L198.268,100.713z"/>
	<path fill="#00ED95" d="M195.379,98.825c0.273,0.173,0.354,0.534,0.182,0.808l-1.379,2.17c-0.175,0.271-0.535,0.354-0.81,0.18l0,0
		c-0.271-0.174-0.354-0.527-0.181-0.811l1.377-2.167C194.745,98.73,195.104,98.648,195.379,98.825L195.379,98.825z"/>
	<circle fill="#00ED95" cx="199.68" cy="95.656" r="1.173"/>
	<circle fill="#00ED95" cx="201.411" cy="93.005" r="1.173"/>
	<path fill="#010101" stroke="#698EFF" stroke-width="1.5" d="M206.157,88.137l-2.072-1.32c0.028-0.043,2.672-4.188,3.573-5.61
		c0.982-1.561,3.146-5.997,2.057-13.479c-1.154-7.938-2.882-18.635-2.896-18.742l2.431-0.393c0.021,0.107,1.744,10.822,2.901,18.781
		c1.209,8.292-1.277,13.354-2.407,15.146C208.832,83.943,206.182,88.096,206.157,88.137L206.157,88.137z"/>
	<line fill="none" stroke="#698EFF" stroke-width="1.5" x1="205.598" y1="89.167" x2="204.92" y2="90.139"/>
	<line fill="none" stroke="#698EFF" stroke-width="1.5" x1="203.512" y1="87.625" x2="202.835" y2="88.598"/>
</g>
<g id="side">
	
		<line id="_x31__1_" fill="none" stroke="#435569" stroke-width="1.5" stroke-linecap="square" x1="276.848" y1="129.154" x2="276.848" y2="142.07"/>
	<path id="s_1_" fill="none" stroke="#435569" stroke-width="1.5" stroke-linecap="square" d="M266.088,138.846
		c0,1.782,1.444,3.225,3.229,3.225c1.785,0,3.23-1.438,3.23-3.225c0-0.727-0.494-1.718-1.39-2.269
		c-0.774-0.478-2.989-1.405-3.761-1.897c-0.951-0.609-1.312-1.568-1.312-2.295c0-1.783,1.446-3.229,3.23-3.229
		c1.783,0,3.229,1.445,3.229,3.229"/>
	<path id="d_1_" fill="none" stroke="#435569" stroke-width="1.5" stroke-linecap="square" d="M284.701,142.07
		c1.785,0,3.232-1.443,3.232-3.229v-6.46c0-1.781-1.447-3.229-3.232-3.229h-3.229v12.916h3.229V142.07z"/>
	<g id="e_1_">
		<polyline fill="none" stroke="#435569" stroke-width="1.5" stroke-linecap="square" points="297.986,142.07 292.171,142.07 
			292.171,129.154 297.986,129.154 		"/>
		
			<line fill="none" stroke="#435569" stroke-width="1.5" stroke-linecap="square" x1="292.171" y1="135.615" x2="297.34" y2="135.615"/>
	</g>
</g>
<g id="s0">
	
		<rect x="266.668" y="28.612" fill="none" stroke="#AEB1DC" stroke-width="1.5" stroke-linecap="square" width="28.082" height="28.08"/>
	<polyline fill="none" stroke="#AEB1DC" stroke-width="1.5" stroke-linecap="square" points="271.204,52.608 271.204,51.613 
		280.154,32.696 281.646,32.696 290.594,51.613 290.594,52.608 	"/>
	
		<line fill="none" stroke="#AEB1DC" stroke-width="1.5" stroke-linecap="square" x1="274.188" y1="45.639" x2="287.611" y2="45.639"/>
</g>
<g id="s1">
	
		<rect x="266.668" y="62.825" fill="none" stroke="#514959" stroke-width="1.5" stroke-linecap="square" width="28.082" height="28.081"/>
	<path fill="none" stroke="#514959" stroke-width="1.5" stroke-linecap="square" d="M271.221,86.82V66.91h13.694
		c2.749,0,4.979,2.229,4.979,4.978c0,2.75-2.229,4.978-4.979,4.978h-13.694"/>
	<path fill="none" stroke="#514959" stroke-width="1.5" stroke-linecap="square" d="M271.221,76.865h13.694
		c2.749,0,4.979,2.229,4.979,4.979s-2.229,4.979-4.979,4.979h-13.694"/>
</g>
<g id="t0_1_">
	
		<rect x="24.313" y="50.873" fill="none" stroke="#FF3A5D" stroke-width="1.5" stroke-linecap="square" width="8.534" height="8.533"/>
	<polyline fill="none" stroke="#FF3A5D" stroke-width="1.5" stroke-linecap="square" points="26.545,57.27 26.545,57.057 
		28.463,53.009 28.782,53.009 30.698,57.057 30.698,57.27 	"/>
	<line fill="none" stroke="#FF3A5D" stroke-width="1.5" stroke-linecap="square" x1="27.185" y1="55.777" x2="30.058" y2="55.777"/>
</g>
<g id="t1_1_">
	
		<rect x="24.313" y="62.195" fill="none" stroke="#514959" stroke-width="1.5" stroke-linecap="square" width="8.535" height="8.533"/>
	<path fill="none" stroke="#514959" stroke-width="1.5" stroke-linecap="square" d="M26.672,68.463v-4.001h2.753
		c0.553,0,1,0.448,1,1.001c0,0.553-0.447,1-1,1h-2.753"/>
	<path fill="none" stroke="#514959" stroke-width="1.5" stroke-linecap="square" d="M26.672,66.463h2.753c0.553,0,1,0.447,1,1
		c0,0.553-0.447,0.999-1,0.999h-2.753"/>
</g>
<g id="nr">
	<path id="timemin" fill="none" stroke="#AEB1DC" stroke-width="1.5" stroke-linecap="square" d="M47.868,64.58
		c0,2.227-1.808,4.033-4.035,4.033s-4.031-1.808-4.031-4.033v-8.068c0-2.229,1.808-4.033,4.031-4.033
		c2.229,0,4.035,1.805,4.035,4.033V64.58z"/>
	<path id="timesec0" fill="none" stroke="#AEB1DC" stroke-width="1.5" stroke-linecap="square" d="M76.707,64.58
		c0,2.227-1.809,4.033-4.033,4.033c-2.227,0-4.031-1.808-4.031-4.033v-8.068c0-2.229,1.809-4.033,4.031-4.033
		c2.228,0,4.033,1.805,4.033,4.033V64.58z"/>
	<path id="timesec1_1_" fill="none" stroke="#AEB1DC" stroke-width="1.5" stroke-linecap="square" d="M65.01,68.615h-8.067
		l7.263-9.684c0.508-0.677,0.808-1.515,0.808-2.422c0-2.229-1.806-4.033-4.032-4.033c-2.228,0-4.034,1.807-4.034,4.033"/>
</g>
<g id="turnb">
	<path fill="none" stroke="#837CC7" stroke-width="1.5" d="M140.654,69.009V52.137h11.592c2.326,0,4.213,1.887,4.213,4.213
		c0,2.336-1.886,4.231-4.213,4.231h-11.592"/>
	<path fill="none" stroke="#837CC7" stroke-width="1.5" d="M140.654,60.581h11.592c2.326,0,4.213,1.889,4.213,4.216
		s-1.886,4.214-4.213,4.214h-11.592"/>
</g>
<g id="turna">
	<polyline fill="none" stroke="#837CC7" stroke-width="1.5" points="139.062,68.742 139.06,67.822 147.28,50.354 148.655,50.352 
		156.949,67.785 156.951,68.703 	"/>
	<line fill="none" stroke="#837CC7" stroke-width="1.5" x1="141.8" y1="62.306" x2="154.185" y2="62.278"/>
</g>
<g display="none">
	<g id="turn0" display="inline">
		<circle fill="none" stroke="#837CC7" stroke-width="1.5" cx="147.734" cy="60.487" r="44.727"/>
		<circle fill="none" stroke="#837CC7" stroke-width="1.5" cx="147.734" cy="60.488" r="16.2"/>
	</g>
	<g id="turn1" display="inline">
		<path fill="none" stroke="#837CC7" stroke-width="1.5" d="M169.634,94.223c-13.891,16.219-34.96,14.27-47.057-4.367
			c-12.098-18.625-10.638-46.877,3.254-63.103c13.896-16.221,34.96-14.27,47.06,4.363C184.986,49.748,183.527,78.002,169.634,94.223
			z"/>
		<g>
			<polyline fill="none" stroke="#837CC7" stroke-width="1.5" points="141.396,68.809 141.38,67.89 147.249,50.261 148.274,50.23 
				154.717,67.492 154.733,68.412 			"/>
			<line fill="none" stroke="#837CC7" stroke-width="1.5" x1="143.342" y1="62.318" x2="152.576" y2="62.044"/>
		</g>
		<path fill="none" stroke="#837CC7" stroke-width="1.5" d="M155.666,72.707c-5.032,5.875-12.663,5.167-17.044-1.582
			c-4.382-6.749-3.854-16.981,1.179-22.855c5.032-5.876,12.665-5.171,17.047,1.579C161.227,56.598,160.697,66.832,155.666,72.707z"
			/>
	</g>
	<g id="turn2" display="inline">
		<path fill="none" stroke="#837CC7" stroke-width="1.5" d="M165.255,94.225c-11.11,16.217-27.967,14.271-37.644-4.367
			c-9.679-18.626-8.511-46.878,2.604-63.104c11.116-16.221,27.972-14.27,37.646,4.363C177.537,49.748,176.371,78.002,165.255,94.225
			z"/>
		<g>
			<polyline fill="none" stroke="#837CC7" stroke-width="1.5" points="142.666,68.81 142.653,67.891 147.348,50.262 148.168,50.231 
				153.323,67.493 153.334,68.413 			"/>
			<line fill="none" stroke="#837CC7" stroke-width="1.5" x1="144.222" y1="62.319" x2="151.61" y2="62.045"/>
		</g>
		<path fill="none" stroke="#837CC7" stroke-width="1.5" d="M154.081,72.708c-4.024,5.875-10.13,5.167-13.636-1.582
			c-3.506-6.749-3.083-16.981,0.943-22.855c4.025-5.876,10.132-5.171,13.638,1.579C158.531,56.599,158.108,66.832,154.081,72.708z"
			/>
	</g>
	<g id="turn3" display="inline">
		<path fill="none" stroke="#837CC7" stroke-width="1.5" d="M160.874,94.225c-8.332,16.217-20.975,14.271-28.231-4.367
			c-7.26-18.626-6.385-46.878,1.953-63.104c8.336-16.221,20.979-14.27,28.233,4.363C170.086,49.748,169.212,78.002,160.874,94.225z"
			/>
		<g>
			<polyline fill="none" stroke="#837CC7" stroke-width="1.5" points="143.934,68.81 143.923,67.891 147.445,50.262 148.061,50.231 
				151.926,67.493 151.936,68.413 			"/>
			<line fill="none" stroke="#837CC7" stroke-width="1.5" x1="145.101" y1="62.319" x2="150.642" y2="62.045"/>
		</g>
		<path fill="none" stroke="#837CC7" stroke-width="1.5" d="M152.495,72.708c-3.019,5.875-7.598,5.167-10.227-1.582
			s-2.312-16.981,0.707-22.855c3.019-5.876,7.599-5.171,10.229,1.579C155.833,56.599,155.515,66.832,152.495,72.708z"/>
	</g>
	<g id="turn4" display="inline">
		<path fill="none" stroke="#837CC7" stroke-width="1.5" d="M156.496,94.225c-5.556,16.217-13.984,14.271-18.822-4.367
			c-4.839-18.626-4.256-46.878,1.303-63.104c5.557-16.221,13.984-14.27,18.823,4.363C162.635,49.748,162.052,78.002,156.496,94.225z
			"/>
		<g>
			<polyline fill="none" stroke="#837CC7" stroke-width="1.5" points="145.201,68.81 145.194,67.891 147.542,50.262 147.952,50.231 
				150.53,67.493 150.535,68.413 			"/>
			<line fill="none" stroke="#837CC7" stroke-width="1.5" x1="145.979" y1="62.319" x2="149.673" y2="62.045"/>
		</g>
		<path fill="none" stroke="#837CC7" stroke-width="1.5" d="M150.909,72.708c-2.013,5.875-5.066,5.167-6.818-1.582
			s-1.541-16.981,0.472-22.855c2.013-5.876,5.066-5.171,6.818,1.579C153.133,56.599,152.922,66.832,150.909,72.708z"/>
	</g>
	<g id="turn5" display="inline">
		<path fill="none" stroke="#837CC7" stroke-width="1.5" d="M152.116,94.225c-2.778,16.217-6.993,14.271-9.412-4.367
			c-2.42-18.626-2.127-46.878,0.651-63.104c2.777-16.221,6.993-14.27,9.412,4.363C155.186,49.748,154.895,78.002,152.116,94.225z"/>
		<g>
			<polyline fill="none" stroke="#837CC7" stroke-width="1.5" points="146.468,68.81 146.464,67.891 147.638,50.262 147.843,50.231 
				149.132,67.493 149.135,68.413 			"/>
			<line fill="none" stroke="#837CC7" stroke-width="1.5" x1="146.857" y1="62.319" x2="148.704" y2="62.045"/>
		</g>
		<path fill="none" stroke="#837CC7" stroke-width="1.5" d="M149.322,72.708c-1.007,5.875-2.533,5.167-3.409-1.582
			s-0.77-16.981,0.235-22.855c1.007-5.876,2.534-5.171,3.41,1.579C150.434,56.599,150.328,66.832,149.322,72.708z"/>
	</g>
	<g id="turn6" display="inline">
		<path fill="none" stroke="#837CC7" stroke-width="1.5" d="M147.954,94.225c-0.139,16.217-0.349,14.271-0.47-4.367
			c-0.121-18.626-0.106-46.878,0.032-63.104c0.139-16.221,0.349-14.27,0.471,4.363C148.107,49.748,148.093,78.002,147.954,94.225z"
			/>
		<g>
			<polyline fill="none" stroke="#837CC7" stroke-width="1.5" points="147.671,68.81 147.671,67.891 147.73,50.262 147.74,50.231 
				147.805,67.493 147.805,68.413 			"/>
			<line fill="none" stroke="#837CC7" stroke-width="1.5" x1="147.691" y1="62.319" x2="147.784" y2="62.045"/>
		</g>
		<path fill="none" stroke="#837CC7" stroke-width="1.5" d="M147.814,72.708c-0.05,5.875-0.126,5.167-0.17-1.582
			s-0.039-16.981,0.012-22.855c0.051-5.876,0.127-5.171,0.17,1.579C147.87,56.599,147.865,66.832,147.814,72.708z"/>
	</g>
	<g id="turn7" display="inline">
		<path fill="none" stroke="#837CC7" stroke-width="1.5" d="M152.116,94.225c-2.778,16.217-6.993,14.271-9.412-4.367
			c-2.42-18.626-2.127-46.878,0.651-63.104c2.777-16.221,6.993-14.27,9.412,4.363C155.186,49.748,154.895,78.002,152.116,94.225z"/>
		<g>
			<polyline fill="none" stroke="#837CC7" stroke-width="1.5" points="146.468,68.81 146.464,67.891 147.638,50.262 147.843,50.231 
				149.132,67.493 149.135,68.413 			"/>
			<line fill="none" stroke="#837CC7" stroke-width="1.5" x1="146.857" y1="62.319" x2="148.704" y2="62.045"/>
		</g>
		<path fill="none" stroke="#837CC7" stroke-width="1.5" d="M149.322,72.708c-1.007,5.875-2.533,5.167-3.409-1.582
			s-0.77-16.981,0.235-22.855c1.007-5.876,2.534-5.171,3.41,1.579C150.434,56.599,150.328,66.832,149.322,72.708z"/>
	</g>
	<g id="turn8" display="inline">
		<path fill="none" stroke="#837CC7" stroke-width="1.5" d="M156.496,94.225c-5.556,16.217-13.984,14.271-18.822-4.367
			c-4.839-18.626-4.256-46.878,1.303-63.104c5.557-16.221,13.984-14.27,18.823,4.363C162.635,49.748,162.052,78.002,156.496,94.225z
			"/>
		<g>
			<polyline fill="none" stroke="#837CC7" stroke-width="1.5" points="145.201,68.81 145.194,67.891 147.542,50.262 147.952,50.231 
				150.53,67.493 150.535,68.413 			"/>
			<line fill="none" stroke="#837CC7" stroke-width="1.5" x1="145.979" y1="62.319" x2="149.673" y2="62.045"/>
		</g>
		<path fill="none" stroke="#837CC7" stroke-width="1.5" d="M150.909,72.708c-2.013,5.875-5.066,5.167-6.818-1.582
			s-1.541-16.981,0.472-22.855c2.013-5.876,5.066-5.171,6.818,1.579C153.133,56.599,152.922,66.832,150.909,72.708z"/>
	</g>
	<g id="turn9" display="inline">
		<path fill="none" stroke="#837CC7" stroke-width="1.5" d="M160.874,94.225c-8.332,16.217-20.975,14.271-28.231-4.367
			c-7.26-18.626-6.385-46.878,1.953-63.104c8.336-16.221,20.979-14.27,28.233,4.363C170.086,49.748,169.212,78.002,160.874,94.225z"
			/>
		<g>
			<polyline fill="none" stroke="#837CC7" stroke-width="1.5" points="143.934,68.81 143.923,67.891 147.445,50.262 148.061,50.231 
				151.926,67.493 151.936,68.413 			"/>
			<line fill="none" stroke="#837CC7" stroke-width="1.5" x1="145.101" y1="62.319" x2="150.642" y2="62.045"/>
		</g>
		<path fill="none" stroke="#837CC7" stroke-width="1.5" d="M152.495,72.708c-3.019,5.875-7.598,5.167-10.227-1.582
			s-2.312-16.981,0.707-22.855c3.019-5.876,7.599-5.171,10.229,1.579C155.833,56.599,155.515,66.832,152.495,72.708z"/>
	</g>
	<g id="turn10" display="inline">
		<path fill="none" stroke="#837CC7" stroke-width="1.5" d="M165.255,94.225c-11.11,16.217-27.967,14.271-37.644-4.367
			c-9.679-18.626-8.511-46.878,2.604-63.104c11.116-16.221,27.972-14.27,37.646,4.363C177.537,49.748,176.371,78.002,165.255,94.225
			z"/>
		<g>
			<polyline fill="none" stroke="#837CC7" stroke-width="1.5" points="142.666,68.81 142.653,67.891 147.348,50.262 148.168,50.231 
				153.323,67.493 153.334,68.413 			"/>
			<line fill="none" stroke="#837CC7" stroke-width="1.5" x1="144.222" y1="62.319" x2="151.61" y2="62.045"/>
		</g>
		<path fill="none" stroke="#837CC7" stroke-width="1.5" d="M154.081,72.708c-4.024,5.875-10.13,5.167-13.636-1.582
			c-3.506-6.749-3.083-16.981,0.943-22.855c4.025-5.876,10.132-5.171,13.638,1.579C158.531,56.599,158.108,66.832,154.081,72.708z"
			/>
	</g>
	<g id="turn11" display="inline">
		<path fill="none" stroke="#837CC7" stroke-width="1.5" d="M169.634,94.223c-13.891,16.219-34.96,14.27-47.057-4.367
			c-12.098-18.625-10.638-46.877,3.254-63.103c13.896-16.221,34.96-14.27,47.06,4.363C184.986,49.748,183.527,78.002,169.634,94.223
			z"/>
		<g>
			<polyline fill="none" stroke="#837CC7" stroke-width="1.5" points="141.396,68.809 141.38,67.89 147.249,50.261 148.274,50.23 
				154.717,67.492 154.733,68.412 			"/>
			<line fill="none" stroke="#837CC7" stroke-width="1.5" x1="143.342" y1="62.318" x2="152.576" y2="62.044"/>
		</g>
		<path fill="none" stroke="#837CC7" stroke-width="1.5" d="M155.666,72.707c-5.032,5.875-12.663,5.167-17.044-1.582
			c-4.382-6.749-3.854-16.981,1.179-22.855c5.032-5.876,12.665-5.171,17.047,1.579C161.227,56.598,160.697,66.832,155.666,72.707z"
			/>
	</g>
</g>
<circle id="rec_x5F_dot" fill="none" stroke="#FF3A5D" stroke-width="1.5" cx="105.91" cy="60.801" r="0.782"/>
<g id="box">
	<rect x="19.558" y="46.962" fill="none" stroke="#FF3A5D" stroke-width="1.5" width="63.488" height="27.241"/>
	<line fill="none" stroke="#FF3A5D" stroke-width="1.5" x1="83.056" y1="60.801" x2="105.129" y2="60.801"/>
	<circle fill="none" stroke="#FF3A5D" stroke-width="1.5" stroke-linecap="square" cx="52.577" cy="65.333" r="0.679"/>
	<circle fill="none" stroke="#FF3A5D" stroke-width="1.5" stroke-linecap="square" cx="52.577" cy="57.757" r="0.679"/>
</g>
<g id="play">
	<path id="p_76_" fill="none" stroke="#435569" stroke-width="1.5" stroke-linecap="square" d="M102.454,142.127v-13.031h2.611
		c1.799,0,3.26,1.459,3.26,3.26l0,0c0,1.805-1.461,3.267-3.26,3.267h-2.611"/>
	<g id="a_98_">
		<polyline fill="none" stroke="#435569" stroke-width="1.5" stroke-linecap="square" points="118.595,142.127 118.595,141.803 
			122.182,129.096 122.834,129.096 126.419,141.803 126.419,142.127 		"/>
		
			<line fill="none" stroke="#435569" stroke-width="1.5" stroke-linecap="square" x1="119.9" y1="137.57" x2="125.115" y2="137.57"/>
	</g>
	<g id="y_19_">
		<polyline fill="none" stroke="#435569" stroke-width="1.5" stroke-linecap="square" points="127.654,129.096 127.654,129.747 
			130.913,136.266 134.173,129.747 134.173,129.096 		"/>
		
			<line fill="none" stroke="#435569" stroke-width="1.5" stroke-linecap="square" x1="130.913" y1="136.266" x2="130.913" y2="142.129"/>
	</g>
	<polyline id="l_66_" fill="none" stroke="#435569" stroke-width="1.5" stroke-linecap="square" points="111.882,129.096 
		111.882,142.127 117.75,142.127 	"/>
</g>
<g id="stop">
	<path id="s_100_" fill="none" stroke="#435569" stroke-width="1.5" stroke-linecap="square" d="M185.27,138.875
		c0,1.797,1.459,3.254,3.26,3.254c1.804,0,3.263-1.457,3.263-3.254c0-0.734-0.497-1.732-1.396-2.287
		c-0.781-0.484-3.021-1.42-3.795-1.918c-0.957-0.611-1.322-1.58-1.322-2.312c0-1.801,1.459-3.262,3.26-3.262
		c1.802,0,3.263,1.461,3.263,3.262"/>
	<g id="t_128_">
		
			<line fill="none" stroke="#435569" stroke-width="1.5" stroke-linecap="square" x1="193.746" y1="129.096" x2="201.896" y2="129.096"/>
		
			<line fill="none" stroke="#435569" stroke-width="1.5" stroke-linecap="square" x1="197.984" y1="129.096" x2="197.984" y2="142.129"/>
	</g>
	<path id="o_116_" fill="none" stroke="#435569" stroke-width="1.5" stroke-linecap="square" d="M203.475,132.682v5.867
		c0,1.977,1.604,3.58,3.588,3.58c1.979,0,3.584-1.604,3.584-3.58v0.002v-0.002v-5.867c0-1.979-1.604-3.586-3.584-3.586
		C205.083,129.096,203.475,130.701,203.475,132.682L203.475,132.682L203.475,132.682L203.475,132.682z"/>
	<path id="p_79_" fill="none" stroke="#435569" stroke-width="1.5" stroke-linecap="square" d="M214.51,142.129v-13.033h2.608
		c1.802,0,3.263,1.461,3.263,3.26l0,0c0,1.805-1.461,3.267-3.263,3.267h-2.608"/>
</g>
<g id="rec">
	<g id="c_30_">
		<path fill="none" stroke="#AEB1DC" stroke-width="1.5" stroke-linecap="square" d="M45.293,139.475
			c0,1.799-1.46,3.258-3.259,3.258c-1.8,0-3.26-1.459-3.26-3.258v-6.518c0-1.801,1.46-3.26,3.26-3.26
			c1.799,0,3.259,1.459,3.259,3.26"/>
	</g>
	<path id="r_32_" fill="none" stroke="#AEB1DC" stroke-width="1.5" stroke-linecap="square" d="M21.283,142.732v-13.037h2.608
		c1.799,0,3.259,1.461,3.259,3.262l0,0c0,1.8-1.46,3.259-3.259,3.259h-1.956l4.563,6.19v0.326"/>
	<g id="e_108_">
		<polyline fill="none" stroke="#AEB1DC" stroke-width="1.5" stroke-linecap="square" points="36.277,142.732 30.409,142.732 
			30.409,129.697 36.277,129.697 		"/>
		
			<line fill="none" stroke="#AEB1DC" stroke-width="1.5" stroke-linecap="square" x1="30.409" y1="136.216" x2="35.625" y2="136.216"/>
	</g>
</g>
<g>
	
		<ellipse id="trace15" transform="matrix(-0.9986 -0.0538 0.0538 -0.9986 207.9021 123.05)" fill="none" stroke="#FF3A5D" stroke-width="1.5" cx="105.606" cy="58.729" rx="0.563" ry="2.274"/>
	
		<ellipse id="trace14" transform="matrix(-0.9935 -0.1134 0.1134 -0.9935 206.7562 127.7038)" fill="none" stroke="#FF3A5D" stroke-width="1.5" cx="107.01" cy="57.971" rx="0.648" ry="2.33"/>
	<ellipse id="trace13" fill="none" stroke="#FF3A5D" stroke-width="1.5" cx="105.18" cy="58.849" rx="0.586" ry="1.471"/>
	
		<ellipse id="trace12" transform="matrix(-0.9959 -0.0901 0.0901 -0.9959 205.4906 127.7214)" fill="none" stroke="#FF3A5D" stroke-width="1.5" cx="105.627" cy="59.224" rx="0.58" ry="1.907"/>
	<ellipse id="trace11" fill="none" stroke="#FF3A5D" stroke-width="1.5" cx="105.221" cy="59.956" rx="0.557" ry="1.394"/>
	<ellipse id="trace10" fill="none" stroke="#FF3A5D" stroke-width="1.5" cx="105.625" cy="60.363" rx="0.575" ry="1.823"/>
	
		<ellipse id="trace9" transform="matrix(-0.9963 -0.0859 0.0859 -0.9963 205.8336 125.9804)" fill="none" stroke="#FF3A5D" stroke-width="1.5" cx="105.626" cy="58.563" rx="0.58" ry="1.667"/>
	
		<ellipse id="trace8" transform="matrix(-0.9898 -0.1424 0.1424 -0.9898 203.8526 133.7467)" fill="none" stroke="#FF3A5D" stroke-width="1.5" cx="106.714" cy="59.577" rx="0.634" ry="1.667"/>
	<ellipse id="trace7_1_" fill="none" stroke="#FF3A5D" stroke-width="1.5" cx="105.828" cy="57.681" rx="0.782" ry="2.274"/>
	<ellipse id="trace6_1_" fill="none" stroke="#FF3A5D" stroke-width="1.5" cx="106.828" cy="57.721" rx="0.782" ry="1.521"/>
	<ellipse id="trace5_1_" fill="none" stroke="#FF3A5D" stroke-width="1.5" cx="104.828" cy="57.789" rx="0.782" ry="1.471"/>
	<ellipse id="trace4_1_" fill="none" stroke="#FF3A5D" stroke-width="1.5" cx="105.828" cy="58.188" rx="0.782" ry="1.907"/>
	<ellipse id="trace3_1_" fill="none" stroke="#FF3A5D" stroke-width="1.5" cx="104.828" cy="58.896" rx="0.782" ry="1.394"/>
	<ellipse id="trace2_1_" fill="none" stroke="#FF3A5D" stroke-width="1.5" cx="105.828" cy="59.302" rx="0.782" ry="1.823"/>
	<ellipse id="trace1_2_" fill="none" stroke="#FF3A5D" stroke-width="1.5" cx="105.828" cy="57.519" rx="0.782" ry="1.667"/>
	<ellipse id="trace0_1_" fill="none" stroke="#FF3A5D" stroke-width="1.5" cx="106.828" cy="58.519" rx="0.782" ry="1.667"/>
</g>
</svg>
