<?xml version="1.0" encoding="utf-8"?>
<!-- Generator: Adobe Illustrator 14.0.0, SVG Export Plug-In . SVG Version: 6.00 Build 43363)  -->
<!DOCTYPE svg PUBLIC "-//W3C//DTD SVG 1.1//EN" "http://www.w3.org/Graphics/SVG/1.1/DTD/svg11.dtd">
<svg version="1.1" id="Layer_1" xmlns="http://www.w3.org/2000/svg" xmlns:xlink="http://www.w3.org/1999/xlink" x="0px" y="0px"
	 width="320px" height="160px" viewBox="0 0 320 160" enable-background="new 0 0 320 160" xml:space="preserve">
<g id="static">
	<circle fill="none" stroke="#AEB1DC" stroke-width="2" cx="203.208" cy="80.116" r="19.955"/>
</g>
<g id="dots">
	<circle fill="#FF3A5D" cx="127.896" cy="79.76" r="2.835"/>
	<circle fill="#656579" cx="116.251" cy="107.022" r="2.835"/>
	<circle fill="#FFFFFF" cx="88.741" cy="118.066" r="2.834"/>
	<circle fill="#00475B" cx="61.479" cy="106.422" r="2.834"/>
	<circle fill="#00ED95" cx="50.437" cy="78.911" r="2.834"/>
	<circle fill="#383572" cx="62.079" cy="51.649" r="2.835"/>
	<circle fill="#698EFF" cx="89.59" cy="40.605" r="2.835"/>
	<circle fill="#512132" cx="116.852" cy="52.25" r="2.835"/>
</g>
<circle fill="none" stroke="#ADADFF" stroke-width="1.5" stroke-linecap="square" cx="89.638" cy="40.606" r="6.289"/>
<path id="white" fill="none" stroke="#FFFFFF" stroke-width="2" d="M299.261,26c0,2.76-2.241,5-5.003,5c-2.761,0-5.005-2.24-5.005-5
	V16c0-2.762,2.242-5,5.005-5c2.758,0,5.003,2.238,5.003,5V26z"/>
<circle id="lower_x5F_stop" fill="none" stroke="#AEB1DC" stroke-width="2" cx="174.6" cy="87.7" r="3"/>
<circle id="upper_x5F_stop" fill="none" stroke="#AEB1DC" stroke-width="2" cx="174.6" cy="72.119" r="3"/>
<g id="bend">
	<circle fill="none" stroke="#FF3A5D" stroke-width="2" stroke-linecap="square" cx="254.234" cy="79.932" r="19.955"/>
	<path fill="#010101" stroke="#FF3A5D" stroke-width="2" stroke-linecap="square" d="M167.68,82.768
		c-1.561-0.004-2.82-1.269-2.826-2.833c0-1.561,1.271-2.831,2.824-2.834l72.243,0.004c1.563,0.001,2.832,1.268,2.833,2.83
		c0.002,1.568-1.268,2.833-2.834,2.833H167.68z"/>
	
		<circle id="rcenter" fill="#010101" stroke="#FF3A5D" stroke-width="2" stroke-linecap="square" cx="203.208" cy="79.932" r="12.595"/>
	<path fill="none" stroke="#FF3A5D" stroke-width="2" stroke-linecap="square" d="M205.559,74.297
		c0.905-0.904,2.373-0.904,3.285,0.001c0.903,0.905,0.903,2.378,0,3.284l-7.986,7.982c-0.897,0.896-2.375,0.896-3.272,0.002
		c-0.91-0.908-0.909-2.379,0-3.285L205.559,74.297z"/>
</g>
<g id="fx">
	<polyline fill="none" stroke="#698EFF" stroke-width="1.5" stroke-linecap="square" points="77.76,89.129 77.76,67.855 
		87.326,67.855 	"/>
	<line fill="none" stroke="#698EFF" stroke-width="1.5" stroke-linecap="square" x1="77.76" y1="78.487" x2="86.262" y2="78.487"/>
	<polyline fill="none" stroke="#698EFF" stroke-width="1.5" stroke-linecap="square" points="90.514,67.855 90.514,68.92 
		102.207,88.066 102.207,90.174 	"/>
	<polyline fill="none" stroke="#698EFF" stroke-width="1.5" stroke-linecap="square" points="90.514,89.129 90.514,88.066 
		102.207,68.92 102.207,67.855 	"/>
</g>
<path id="synth" fill="none" stroke="#698EFF" stroke-width="1.5" d="M108.066,73.16c0-1.662-1.351-3.005-3.006-3.005
	c-1.658,0-3.013,1.345-3.013,3.005l0.022,11.711c0,1.654-1.353,3.004-3.011,3.004c-1.662,0-3.01-1.352-3.01-3.004V73.16
	c0-1.662-1.353-3.005-3.011-3.005c-1.659,0-3.01,1.345-3.01,3.005l-0.07,11.711c0,1.654-1.346,3.004-3.006,3.004
	c-1.662,0-3.01-1.352-3.01-3.004V73.16c0-1.662-1.35-3.005-3.012-3.005c-1.662,0-3.009,1.345-3.009,3.005l-0.021,11.711
	c0,1.654-1.354,3.004-3.008,3.004c-1.662,0-3.012-1.352-3.012-3.004"/>
<g id="drum">
	<circle fill="none" stroke="#00ED95" stroke-width="1.5" cx="89.984" cy="78.229" r="8.86"/>
	<path fill="#00ED95" d="M91.74,79.896c0,0.968-0.783,1.752-1.756,1.752c-0.97,0-1.755-0.871-1.755-1.84
		c0-0.971,0.785-1.666,1.755-1.666C90.953,78.143,91.74,78.93,91.74,79.896"/>
	<path fill="none" stroke="#00ED95" stroke-width="1.5" d="M91.74,79.896c0,0.968-0.783,1.752-1.756,1.752
		c-0.97,0-1.755-0.871-1.755-1.84c0-0.971,0.785-1.666,1.755-1.666C90.953,78.143,91.74,78.93,91.74,79.896z"/>
	<line fill="none" stroke="#00ED95" stroke-width="1.5" x1="89.984" y1="91.211" x2="89.984" y2="79.982"/>
</g>
<g id="adsr">
	<path fill="none" stroke="#DFD9FF" stroke-width="1.5" d="M89.879,77.143h8.594c0,0,0.871,6.511,6.74,6.511"/>
	<path fill="none" stroke="#DFD9FF" stroke-width="1.5" d="M75.213,83.652c0,0,0.329-9.838,8.146-14.333
		c0,0-0.326,7.823,6.521,7.823"/>
</g>
<g id="dynaenv">
	<path fill="none" stroke="#00ED95" stroke-width="1.5" stroke-linecap="square" d="M88.879,78.143h8.594
		c0,0,0.871,6.511,6.74,6.511"/>
	<path fill="none" stroke="#00ED95" stroke-width="1.5" stroke-linecap="square" d="M74.213,84.652c0,0,0.329-9.838,8.146-14.333
		c0,0-0.326,7.823,6.521,7.823"/>
</g>
<g id="other">
	<g id="_x3C_path_x3E__1_">
		<path fill="none" stroke="#DFD9FF" stroke-width="1.5" d="M78.893,81.43c1.409,0,2.553,1.146,2.553,2.553
			c0,1.414-1.144,2.562-2.553,2.562c-1.409,0-2.554-1.148-2.554-2.562C76.341,82.572,77.484,81.43,78.893,81.43z"/>
		<line fill="none" stroke="#DFD9FF" stroke-width="1.5" x1="81.444" y1="83.982" x2="81.444" y2="69.525"/>
	</g>
	<g id="_x3C_path_x3E_">
		<polygon fill="none" stroke="#DFD9FF" stroke-width="1.5" points="99.416,71.275 99.416,85.455 93.723,81.924 93.723,75.223 		"/>
		<rect x="87.991" y="75.223" fill="none" stroke="#DFD9FF" stroke-width="1.5" width="5.729" height="6.701"/>
	</g>
</g>
<g id="negwhite">
	<path fill="none" stroke="#FFFFFF" stroke-width="2" d="M288.032,13.873h8v0.803l-4,7.199c2.209,0,4,1.79,4,3.998
		c0,2.211-1.791,3.998-4,3.998s-4-1.787-4-3.998"/>
</g>
</svg>
