<?xml version="1.0" encoding="utf-8"?>
<!-- Generator: Adobe Illustrator 15.0.0, SVG Export Plug-In . SVG Version: 6.00 Build 0)  -->
<!DOCTYPE svg PUBLIC "-//W3C//DTD SVG 1.1//EN" "http://www.w3.org/Graphics/SVG/1.1/DTD/svg11.dtd">
<svg version="1.1" id="Layer_1" xmlns="http://www.w3.org/2000/svg" xmlns:xlink="http://www.w3.org/1999/xlink" x="0px" y="0px"
	 width="320px" height="160px" viewBox="0 0 320 160" enable-background="new 0 0 320 160" xml:space="preserve">
<g id="static">
	<g>
		<polyline id="m_67_" fill="none" stroke="#DED7FF" stroke-width="1.5" stroke-linecap="square" points="203.977,13.464 
			203.977,7.192 204.29,7.192 205.701,10.956 206.016,10.956 207.427,7.192 207.738,7.192 207.738,13.464 		"/>
		<path id="d_93_" fill="none" stroke="#DED7FF" stroke-width="1.5" stroke-linecap="square" d="M216.316,13.464
			c0.865,0,1.562-0.702,1.562-1.568V8.761c0-0.866-0.696-1.568-1.562-1.568h-1.569v6.271H216.316L216.316,13.464z"/>
		<g id="e_185_">
			<polyline fill="none" stroke="#DED7FF" stroke-width="1.5" stroke-linecap="square" points="222.366,13.464 219.545,13.464 
				219.545,7.192 222.366,7.192 			"/>
			
				<line fill="none" stroke="#DED7FF" stroke-width="1.5" stroke-linecap="square" x1="219.545" y1="10.328" x2="222.052" y2="10.328"/>
		</g>
		<path id="o_127_" fill="none" stroke="#DED7FF" stroke-width="1.5" stroke-linecap="square" d="M209.812,8.918v2.821
			c0,0.952,0.771,1.725,1.726,1.725c0.952,0,1.729-0.772,1.729-1.725l0,0l0,0V8.918c0-0.953-0.771-1.726-1.729-1.726
			S209.812,7.965,209.812,8.918L209.812,8.918L209.812,8.918L209.812,8.918z"/>
	</g>
	<circle fill="#638BFF" stroke="#638BFF" stroke-width="1.2483" stroke-linecap="square" cx="55.744" cy="16.001" r="1.957"/>
	
		<line fill="none" stroke="#638BFF" stroke-width="1.2483" stroke-linecap="square" x1="57.702" y1="14.918" x2="57.702" y2="7.874"/>
	<g>
		
			<line id="i_31_" fill="none" stroke="#DED7FF" stroke-width="1.5" stroke-linecap="square" x1="292.977" y1="7.218" x2="292.977" y2="13.49"/>
		<g id="t_126_">
			
				<line fill="none" stroke="#DED7FF" stroke-width="1.5" stroke-linecap="square" x1="298.024" y1="7.218" x2="301.944" y2="7.218"/>
			
				<line fill="none" stroke="#DED7FF" stroke-width="1.5" stroke-linecap="square" x1="300.062" y1="7.218" x2="300.062" y2="13.49"/>
		</g>
		<path id="r_86_" fill="none" stroke="#DED7FF" stroke-width="1.5" stroke-linecap="square" d="M308.578,13.49V7.218h1.257
			c0.866,0,1.566,0.704,1.566,1.569l0,0c0,0.864-0.7,1.567-1.566,1.567h-0.938l2.188,2.979v0.156"/>
		<g id="e_184_">
			<polyline fill="none" stroke="#DED7FF" stroke-width="1.5" stroke-linecap="square" points="306.638,13.49 303.817,13.49 
				303.817,7.218 306.638,7.218 			"/>
			
				<line fill="none" stroke="#DED7FF" stroke-width="1.5" stroke-linecap="square" x1="303.817" y1="10.354" x2="306.326" y2="10.354"/>
		</g>
		<g id="f_39_">
			<polyline fill="none" stroke="#DED7FF" stroke-width="1.5" stroke-linecap="square" points="288.123,13.49 288.123,7.218 
				291.26,7.218 			"/>
			
				<line fill="none" stroke="#DED7FF" stroke-width="1.5" stroke-linecap="square" x1="288.123" y1="10.354" x2="290.947" y2="10.354"/>
		</g>
		<polyline id="l_65_" fill="none" stroke="#DED7FF" stroke-width="1.5" stroke-linecap="square" points="295.12,7.218 
			295.12,13.49 297.939,13.49 		"/>
	</g>
	<g>
		
			<rect id="k0_1_" x="267.573" y="116.163" fill="none" stroke="#FF7D70" stroke-width="1.5" stroke-linecap="square" width="5.719" height="4.833"/>
		
			<rect id="k1_1_" x="275.953" y="116.163" fill="none" stroke="#8D5141" stroke-width="1.5" stroke-linecap="square" width="5.72" height="4.833"/>
		
			<rect id="k2_1_" x="284.335" y="116.163" fill="none" stroke="#8D5141" stroke-width="1.5" stroke-linecap="square" width="5.722" height="4.833"/>
		
			<rect id="k3_1_" x="292.716" y="116.163" fill="none" stroke="#8D5141" stroke-width="1.5" stroke-linecap="square" width="5.719" height="4.833"/>
		
			<rect id="k4" x="301.096" y="116.163" fill="none" stroke="#8D5141" stroke-width="1.5" stroke-linecap="square" width="5.727" height="4.833"/>
		
			<rect id="k5" x="309.477" y="116.163" fill="none" stroke="#8D5141" stroke-width="1.5" stroke-linecap="square" width="5.726" height="4.833"/>
	</g>
	<g>
		
			<rect id="k6" x="267.573" y="123.527" fill="none" stroke="#8D5141" stroke-width="1.5" stroke-linecap="square" width="5.719" height="4.834"/>
		
			<rect id="k7" x="275.953" y="123.527" fill="none" stroke="#8D5141" stroke-width="1.5" stroke-linecap="square" width="5.72" height="4.834"/>
		
			<rect id="k8" x="284.335" y="123.527" fill="none" stroke="#8D5141" stroke-width="1.5" stroke-linecap="square" width="5.722" height="4.834"/>
		
			<rect id="k9" x="292.716" y="123.527" fill="none" stroke="#8D5141" stroke-width="1.5" stroke-linecap="square" width="5.719" height="4.834"/>
		
			<rect id="k10" x="301.096" y="123.527" fill="none" stroke="#8D5141" stroke-width="1.5" stroke-linecap="square" width="5.727" height="4.834"/>
		
			<rect id="k11" x="309.477" y="123.527" fill="none" stroke="#8D5141" stroke-width="1.5" stroke-linecap="square" width="5.726" height="4.834"/>
	</g>
	<g>
		
			<rect id="k12" x="267.573" y="130.895" fill="none" stroke="#8D5141" stroke-width="1.5" stroke-linecap="square" width="5.719" height="4.834"/>
		
			<rect id="k13" x="275.953" y="130.895" fill="none" stroke="#8D5141" stroke-width="1.5" stroke-linecap="square" width="5.72" height="4.834"/>
		
			<rect id="k14" x="284.335" y="130.895" fill="none" stroke="#8D5141" stroke-width="1.5" stroke-linecap="square" width="5.722" height="4.834"/>
		
			<rect id="k15" x="292.716" y="130.895" fill="none" stroke="#8D5141" stroke-width="1.5" stroke-linecap="square" width="5.719" height="4.834"/>
		
			<rect id="k16" x="301.096" y="130.895" fill="none" stroke="#8D5141" stroke-width="1.5" stroke-linecap="square" width="5.727" height="4.834"/>
		
			<rect id="k17" x="309.477" y="130.895" fill="none" stroke="#8D5141" stroke-width="1.5" stroke-linecap="square" width="5.726" height="4.834"/>
	</g>
	<g>
		
			<rect id="k18" x="267.573" y="138.26" fill="none" stroke="#8D5141" stroke-width="1.5" stroke-linecap="square" width="5.719" height="4.833"/>
		
			<rect id="k19" x="275.953" y="138.26" fill="none" stroke="#8D5141" stroke-width="1.5" stroke-linecap="square" width="5.72" height="4.833"/>
		
			<rect id="k20" x="284.335" y="138.26" fill="none" stroke="#8D5141" stroke-width="1.5" stroke-linecap="square" width="5.722" height="4.833"/>
		
			<rect id="k21" x="292.716" y="138.26" fill="none" stroke="#8D5141" stroke-width="1.5" stroke-linecap="square" width="5.719" height="4.833"/>
		
			<rect id="k22" x="301.096" y="138.26" fill="none" stroke="#8D5141" stroke-width="1.5" stroke-linecap="square" width="5.727" height="4.833"/>
		
			<rect id="k23" x="309.477" y="138.26" fill="none" stroke="#8D5141" stroke-width="1.5" stroke-linecap="square" width="5.726" height="4.833"/>
	</g>
	<g>
		
			<line fill="none" stroke="#514959" stroke-width="1.5" stroke-linecap="square" x1="26.769" y1="20.944" x2="28.271" y2="25.069"/>
		<line fill="none" stroke="#514959" stroke-width="1.5" stroke-linecap="square" x1="20.731" y1="24.43" x2="23.555" y2="27.79"/>
		<line fill="none" stroke="#514959" stroke-width="1.5" stroke-linecap="square" x1="16.252" y1="29.77" x2="20.055" y2="31.963"/>
		
			<line fill="none" stroke="#514959" stroke-width="1.5" stroke-linecap="square" x1="13.867" y1="36.319" x2="18.192" y2="37.081"/>
		
			<line fill="none" stroke="#514959" stroke-width="1.5" stroke-linecap="square" x1="13.867" y1="43.291" x2="18.192" y2="42.526"/>
		
			<line fill="none" stroke="#514959" stroke-width="1.5" stroke-linecap="square" x1="16.252" y1="49.841" x2="20.055" y2="47.645"/>
		
			<line fill="none" stroke="#DED7FF" stroke-width="1.5" stroke-linecap="square" x1="20.733" y1="55.181" x2="23.555" y2="51.815"/>
		
			<line fill="none" stroke="#DED7FF" stroke-width="1.5" stroke-linecap="square" x1="46.539" y1="55.179" x2="43.713" y2="51.818"/>
		
			<line fill="none" stroke="#514959" stroke-width="1.5" stroke-linecap="square" x1="51.018" y1="49.839" x2="47.215" y2="47.646"/>
		
			<line fill="none" stroke="#514959" stroke-width="1.5" stroke-linecap="square" x1="53.401" y1="43.287" x2="49.078" y2="42.526"/>
		
			<line fill="none" stroke="#514959" stroke-width="1.5" stroke-linecap="square" x1="53.401" y1="36.317" x2="49.078" y2="37.081"/>
		
			<line fill="none" stroke="#514959" stroke-width="1.5" stroke-linecap="square" x1="51.017" y1="29.767" x2="47.216" y2="31.963"/>
		<line fill="none" stroke="#514959" stroke-width="1.5" stroke-linecap="square" x1="46.536" y1="24.426" x2="43.715" y2="27.79"/>
		
			<line fill="none" stroke="#514959" stroke-width="1.5" stroke-linecap="square" x1="40.498" y1="20.941" x2="38.999" y2="25.068"/>
		<path id="o_124_" fill="none" stroke="#DED7FF" stroke-width="1.5" stroke-linecap="square" d="M31.909,19.574v2.821
			c0,0.952,0.773,1.727,1.725,1.727c0.952,0,1.725-0.774,1.725-1.727v0.002v-0.002v-2.821c0-0.952-0.771-1.725-1.725-1.725
			C32.682,17.85,31.909,18.622,31.909,19.574L31.909,19.574L31.909,19.574L31.909,19.574z"/>
	</g>
	<g>
		<line fill="none" stroke="#DED7FF" stroke-width="1.5" stroke-linecap="square" x1="34.739" y1="92.37" x2="34.739" y2="96.761"/>
		
			<line fill="none" stroke="#514959" stroke-width="1.5" stroke-linecap="square" x1="27.875" y1="93.581" x2="29.376" y2="97.707"/>
		
			<line fill="none" stroke="#514959" stroke-width="1.5" stroke-linecap="square" x1="21.838" y1="97.064" x2="24.661" y2="100.43"/>
		
			<line fill="none" stroke="#514959" stroke-width="1.5" stroke-linecap="square" x1="17.357" y1="102.407" x2="21.161" y2="104.602"/>
		
			<line fill="none" stroke="#514959" stroke-width="1.5" stroke-linecap="square" x1="14.973" y1="108.957" x2="19.297" y2="109.718"/>
		
			<line fill="none" stroke="#514959" stroke-width="1.5" stroke-linecap="square" x1="14.973" y1="115.93" x2="19.297" y2="115.165"/>
		
			<line fill="none" stroke="#514959" stroke-width="1.5" stroke-linecap="square" x1="17.357" y1="122.479" x2="21.161" y2="120.28"/>
		
			<line fill="none" stroke="#DED7FF" stroke-width="1.5" stroke-linecap="square" x1="21.838" y1="127.818" x2="24.661" y2="124.454"/>
		
			<line fill="none" stroke="#DED7FF" stroke-width="1.5" stroke-linecap="square" x1="47.644" y1="127.814" x2="44.819" y2="124.454"/>
		
			<line fill="none" stroke="#514959" stroke-width="1.5" stroke-linecap="square" x1="52.124" y1="122.477" x2="48.32" y2="120.283"/>
		
			<line fill="none" stroke="#514959" stroke-width="1.5" stroke-linecap="square" x1="54.507" y1="115.927" x2="50.184" y2="115.164"/>
		
			<line fill="none" stroke="#514959" stroke-width="1.5" stroke-linecap="square" x1="54.507" y1="108.955" x2="50.184" y2="109.718"/>
		
			<line fill="none" stroke="#514959" stroke-width="1.5" stroke-linecap="square" x1="52.123" y1="102.402" x2="48.321" y2="104.602"/>
		
			<line fill="none" stroke="#514959" stroke-width="1.5" stroke-linecap="square" x1="47.642" y1="97.062" x2="44.821" y2="100.43"/>
		<line fill="none" stroke="#514959" stroke-width="1.5" stroke-linecap="square" x1="41.604" y1="93.58" x2="40.104" y2="97.705"/>
	</g>
	<line fill="none" stroke="#DED7FF" stroke-width="1.5" stroke-linecap="square" x1="55.74" y1="134.35" x2="55.74" y2="140.621"/>
	<g>
		
			<line fill="none" stroke="#DED7FF" stroke-width="1.5" stroke-linecap="square" x1="55.457" y1="61.972" x2="55.457" y2="68.242"/>
		
			<line fill="none" stroke="#DED7FF" stroke-width="1.5" stroke-linecap="square" x1="52.323" y1="65.106" x2="58.593" y2="65.106"/>
	</g>
	<line fill="none" stroke="#DED7FF" stroke-width="1.5" stroke-linecap="square" x1="9.895" y1="65.107" x2="16.166" y2="65.107"/>
	<polyline id="m_66_" fill="none" stroke="#638BFF" stroke-width="1.5" stroke-linecap="square" points="52.41,88.328 52.41,78.921 
		52.876,78.921 55.528,84.564 55.999,84.564 58.649,78.921 59.121,78.921 59.121,88.328 	"/>
	
		<line fill="none" stroke="#DED7FF" stroke-width="1.5" stroke-linecap="square" x1="220.509" y1="87.902" x2="227.671" y2="83.768"/>
	
		<line fill="none" stroke="#38354D" stroke-width="1.5" stroke-linecap="square" x1="217.457" y1="81.762" x2="225.229" y2="78.934"/>
	
		<line fill="none" stroke="#38354D" stroke-width="1.5" stroke-linecap="square" x1="215.521" y1="75.182" x2="223.666" y2="73.746"/>
	
		<line fill="none" stroke="#38354D" stroke-width="1.5" stroke-linecap="square" x1="214.755" y1="68.367" x2="223.023" y2="68.367"/>
	<g>
		
			<line fill="none" stroke="#38354D" stroke-width="1.5" stroke-linecap="square" x1="228.992" y1="90.585" x2="227.814" y2="91.741"/>
		
			<line fill="none" stroke="#38354D" stroke-width="1.5" stroke-linecap="square" x1="232.432" y1="95.727" x2="233.389" y2="94.383"/>
		
			<line fill="none" stroke="#38354D" stroke-width="1.5" stroke-linecap="square" x1="233.389" y1="94.383" x2="232.432" y2="95.727"/>
		
			<line fill="none" stroke="#38354D" stroke-width="1.5" stroke-linecap="square" x1="236.71" y1="98.84" x2="237.421" y2="97.352"/>
		
			<line fill="none" stroke="#DED7FF" stroke-width="1.5" stroke-linecap="square" x1="242.482" y1="101.982" x2="242.926" y2="100.393"/>
	</g>
	
		<line fill="none" stroke="#DED7FF" stroke-width="1.5" stroke-linecap="square" x1="215.184" y1="61.521" x2="223.329" y2="62.956"/>
	
		<line fill="none" stroke="#38354D" stroke-width="1.5" stroke-linecap="square" x1="216.794" y1="54.855" x2="224.566" y2="57.683"/>
	
		<line fill="none" stroke="#38354D" stroke-width="1.5" stroke-linecap="square" x1="219.539" y1="48.568" x2="226.701" y2="52.704"/>
	
		<line fill="none" stroke="#38354D" stroke-width="1.5" stroke-linecap="square" x1="223.333" y1="42.853" x2="229.669" y2="48.169"/>
	
		<line fill="none" stroke="#DED7FF" stroke-width="1.5" stroke-linecap="square" x1="228.062" y1="37.887" x2="233.378" y2="44.222"/>
	
		<line fill="none" stroke="#38354D" stroke-width="1.5" stroke-linecap="square" x1="233.582" y1="33.816" x2="237.716" y2="40.977"/>
	
		<line fill="none" stroke="#38354D" stroke-width="1.5" stroke-linecap="square" x1="239.725" y1="30.765" x2="242.555" y2="38.536"/>
	
		<line fill="none" stroke="#38354D" stroke-width="1.5" stroke-linecap="square" x1="246.302" y1="28.827" x2="247.741" y2="36.972"/>
	
		<line fill="none" stroke="#DED7FF" stroke-width="1.5" stroke-linecap="square" x1="253.119" y1="28.06" x2="253.121" y2="36.331"/>
	
		<line fill="none" stroke="#38354D" stroke-width="1.5" stroke-linecap="square" x1="259.965" y1="28.492" x2="258.529" y2="36.634"/>
	
		<line fill="none" stroke="#38354D" stroke-width="1.5" stroke-linecap="square" x1="266.633" y1="30.101" x2="263.805" y2="37.872"/>
	
		<line fill="none" stroke="#38354D" stroke-width="1.5" stroke-linecap="square" x1="272.919" y1="32.846" x2="268.783" y2="40.008"/>
	
		<line fill="none" stroke="#DED7FF" stroke-width="1.5" stroke-linecap="square" x1="278.633" y1="36.641" x2="273.314" y2="42.975"/>
	<line fill="none" stroke="#38354D" stroke-width="1.5" stroke-linecap="square" x1="283.6" y1="41.37" x2="277.264" y2="46.685"/>
	
		<line fill="none" stroke="#38354D" stroke-width="1.5" stroke-linecap="square" x1="287.671" y1="46.889" x2="280.509" y2="51.024"/>
	
		<line fill="none" stroke="#38354D" stroke-width="1.5" stroke-linecap="square" x1="290.721" y1="53.033" x2="282.951" y2="55.862"/>
	
		<line fill="none" stroke="#DED7FF" stroke-width="1.5" stroke-linecap="square" x1="292.659" y1="59.612" x2="284.516" y2="61.047"/>
	
		<line fill="none" stroke="#38354D" stroke-width="1.5" stroke-linecap="square" x1="293.424" y1="66.428" x2="285.154" y2="66.429"/>
	
		<line fill="none" stroke="#38354D" stroke-width="1.5" stroke-linecap="square" x1="292.996" y1="73.273" x2="284.852" y2="71.837"/>
	
		<line fill="none" stroke="#38354D" stroke-width="1.5" stroke-linecap="square" x1="291.385" y1="79.939" x2="283.611" y2="77.112"/>
	
		<line fill="none" stroke="#DED7FF" stroke-width="1.5" stroke-linecap="square" x1="288.641" y1="86.225" x2="281.477" y2="82.09"/>
	<path fill="none" stroke="#DED7FF" stroke-width="1.5" stroke-linecap="square" d="M152.609,18.855"/>
	<path fill="none" stroke="#FF395A" stroke-width="1.5" stroke-linecap="square" d="M214.218,99.512
		c0,0.992-0.803,1.793-1.791,1.793h-9.271c-0.99,0-1.793-0.801-1.793-1.793v-8.959c0-0.986,0.803-1.791,1.793-1.791h9.271
		c0.988,0,1.791,0.805,1.791,1.791V99.512z"/>
	<path fill="none" stroke="#FF395A" stroke-width="1.5" stroke-linecap="square" d="M307.729,99.512
		c0,0.992-0.805,1.793-1.782,1.793h-9.273c-0.983,0-1.791-0.801-1.791-1.793v-8.959c0-0.986,0.808-1.791,1.791-1.791h9.273
		c0.979,0,1.782,0.805,1.782,1.791V99.512z"/>
	<path fill="none" stroke="#FF395A" stroke-width="1.5" stroke-linecap="square" d="M208.629,65.508c0,0.99-0.804,1.791-1.792,1.791
		h-9.271c-0.99,0-1.791-0.801-1.791-1.791v-8.96c0-0.99,0.801-1.792,1.791-1.792h9.271c0.988,0,1.792,0.802,1.792,1.792V65.508z"/>
	<path fill="none" stroke="#FF395A" stroke-width="1.5" stroke-linecap="square" d="M311.122,65.508c0,0.99-0.804,1.791-1.792,1.791
		h-9.271c-0.981,0-1.791-0.801-1.791-1.791v-8.96c0-0.99,0.81-1.792,1.791-1.792h9.271c0.988,0,1.792,0.802,1.792,1.792V65.508z"/>
	<path fill="none" stroke="#FF395A" stroke-width="1.5" stroke-linecap="square" d="M222.143,36.904c0,0.99-0.805,1.792-1.791,1.792
		h-9.271c-0.991,0-1.792-0.802-1.792-1.792v-8.96c0-0.99,0.801-1.792,1.792-1.792h9.271c0.986,0,1.791,0.802,1.791,1.792V36.904z"/>
	<path fill="none" stroke="#FF395A" stroke-width="1.5" stroke-linecap="square" d="M297.143,36.904c0,0.99-0.805,1.792-1.791,1.792
		h-9.271c-0.99,0-1.792-0.802-1.792-1.792v-8.96c0-0.99,0.802-1.792,1.792-1.792h9.271c0.986,0,1.791,0.802,1.791,1.792V36.904z"/>
	<path fill="none" stroke="#FF395A" stroke-width="1.5" stroke-linecap="square" d="M259.543,21.709c0,0.99-0.804,1.791-1.792,1.791
		h-9.271c-0.99,0-1.791-0.801-1.791-1.791v-8.961c0-0.99,0.801-1.791,1.791-1.791h9.271c0.988,0,1.792,0.801,1.792,1.791V21.709z"/>
	<polyline fill="none" stroke="#FF395A" stroke-width="1.5" stroke-linecap="square" points="208.627,98.105 208.627,91.852 
		208.314,91.852 205.48,92.79 	"/>
	<path fill="none" stroke="#FF395A" stroke-width="1.5" stroke-linecap="square" d="M212.977,34.131
		c0,0.863,0.699,1.563,1.562,1.563h2.611c0.856,0,1.562-0.7,1.562-1.563c0-0.862-0.701-1.704-1.562-1.704h-1.25v-0.156l2.812-2.659
		V29.3h-5.737"/>
	<polyline fill="none" stroke="#FF395A" stroke-width="1.5" stroke-linecap="square" points="256.232,18.48 249.896,18.48 
		249.896,17.458 254.98,14.104 255.607,14.104 255.607,20.356 	"/>
	<g>
		<path fill="none" stroke="#FF395A" stroke-width="1.5" stroke-linecap="square" d="M302.01,62.023v-2.498
			c0-0.864,0.697-1.563,1.562-1.563h3.688"/>
		<path fill="none" stroke="#FF395A" stroke-width="1.5" stroke-linecap="square" d="M303.573,61.087
			c-0.861,0-1.562,0.698-1.562,1.562c0,0.865,0.697,1.564,1.562,1.564h2.607c0.862,0,1.562-0.699,1.562-1.564
			c0-0.863-0.698-1.562-1.562-1.562H303.573L303.573,61.087z"/>
	</g>
	<polyline fill="none" stroke="#FF395A" stroke-width="1.5" stroke-linecap="square" points="298.454,91.984 304.191,91.984 
		304.191,92.609 299.032,98.081 299.032,98.239 	"/>
	<path fill="none" stroke="#FF395A" stroke-width="1.5" stroke-linecap="square" d="M199.535,59.357
		c0-0.864,0.699-1.564,1.562-1.564h2.323c0.863,0,1.562,0.7,1.562,1.564c0,0.351,0,0.624-0.474,1.094l-4.989,2.97v0.626h5.455"/>
	<g>
		<path fill="none" stroke="#FF395A" stroke-width="1.5" stroke-linecap="square" d="M288.037,35.453h3.752
			c0.863,0,1.562-0.701,1.562-1.566l0,0c0-0.862-0.699-1.528-1.562-1.528h-2.188"/>
		<path fill="none" stroke="#FF395A" stroke-width="1.5" stroke-linecap="square" d="M293.354,29.199h-5.312l0.003,3.16"/>
	</g>
	<g>
		<polyline fill="none" stroke="#514959" stroke-width="1.5" stroke-linecap="square" points="152.519,24.121 152.519,19.732 
			152.519,11.756 156.454,11.756 		"/>
		<polyline fill="none" stroke="#514959" stroke-width="1.5" stroke-linecap="square" points="142.441,51.682 139.619,55.181 
			139.619,58.716 		"/>
		<polyline fill="none" stroke="#514959" stroke-width="1.5" stroke-linecap="square" points="162.6,51.683 165.424,55.179 
			165.424,58.716 		"/>
	</g>
	<g>
		<g id="a_100_">
			<polyline fill="none" stroke="#514959" stroke-width="1.5" stroke-linecap="square" points="139.385,14.378 139.385,14.244 
				140.853,9.046 141.119,9.046 142.586,14.244 142.586,14.378 			"/>
			
				<line fill="none" stroke="#514959" stroke-width="1.5" stroke-linecap="square" x1="139.919" y1="12.911" x2="142.052" y2="12.911"/>
		</g>
		<path id="d_94_" fill="none" stroke="#514959" stroke-width="1.5" stroke-linecap="square" d="M127.121,14.378
			c0.737,0,1.334-0.598,1.334-1.332v-2.668c0-0.735-0.597-1.332-1.334-1.332h-1.333v5.332H127.121L127.121,14.378z"/>
		<g id="y_20_">
			<polyline fill="none" stroke="#514959" stroke-width="1.5" stroke-linecap="square" points="143.652,9.046 143.652,9.312 
				144.986,11.978 146.319,9.312 146.319,9.046 			"/>
			
				<line fill="none" stroke="#514959" stroke-width="1.5" stroke-linecap="square" x1="144.986" y1="11.978" x2="144.986" y2="14.378"/>
		</g>
		<g id="c_55_">
			<path fill="none" stroke="#514959" stroke-width="1.5" stroke-linecap="square" d="M137.653,13.046
				c0,0.734-0.597,1.332-1.333,1.332c-0.737,0-1.333-0.598-1.333-1.332v-2.668c0-0.737,0.596-1.332,1.333-1.332
				c0.736,0,1.333,0.595,1.333,1.332"/>
		</g>
		<g id="e_186_">
			<polyline fill="none" stroke="#514959" stroke-width="1.5" stroke-linecap="square" points="132.987,14.378 130.586,14.378 
				130.586,9.046 132.987,9.046 			"/>
			
				<line fill="none" stroke="#514959" stroke-width="1.5" stroke-linecap="square" x1="130.586" y1="11.712" x2="132.72" y2="11.712"/>
		</g>
	</g>
	<path fill="none" stroke="#38354D" stroke-width="1.5" stroke-linecap="square" d="M316.455,106.666
		c0,2.945-2.388,5.334-5.333,5.334H195.12c-2.945,0-5.332-2.389-5.332-5.334V8.001c0-2.946,2.387-5.334,5.332-5.334h116.002
		c2.945,0,5.333,2.388,5.333,5.334V106.666L316.455,106.666z"/>
	<path fill="none" stroke="#38354D" stroke-width="1.5" stroke-linecap="square" d="M263.25,139.284
		c0,2.944-2.391,5.333-5.334,5.333H195.12c-2.945,0-5.332-2.389-5.332-5.333V120c0-2.945,2.387-5.334,5.332-5.334h62.796
		c2.943,0,5.334,2.389,5.334,5.334V139.284z"/>
	<g>
		<line fill="none" stroke="#DED7FF" stroke-width="1.5" stroke-linecap="square" x1="88.527" y1="13.78" x2="93.728" y2="13.78"/>
		
			<line fill="none" stroke="#514959" stroke-width="1.5" stroke-linecap="square" x1="88.581" y1="18.928" x2="93.728" y2="18.928"/>
		
			<line fill="none" stroke="#514959" stroke-width="1.5" stroke-linecap="square" x1="88.581" y1="24.072" x2="93.728" y2="24.072"/>
		
			<line fill="none" stroke="#514959" stroke-width="1.5" stroke-linecap="square" x1="88.581" y1="29.218" x2="93.728" y2="29.218"/>
		
			<line fill="none" stroke="#514959" stroke-width="1.5" stroke-linecap="square" x1="88.581" y1="34.364" x2="93.728" y2="34.364"/>
		
			<line fill="none" stroke="#DED7FF" stroke-width="1.5" stroke-linecap="square" x1="88.581" y1="39.511" x2="93.728" y2="39.511"/>
		
			<line fill="none" stroke="#514959" stroke-width="1.5" stroke-linecap="square" x1="88.581" y1="44.657" x2="93.728" y2="44.657"/>
		
			<line fill="none" stroke="#514959" stroke-width="1.5" stroke-linecap="square" x1="88.581" y1="49.803" x2="93.728" y2="49.803"/>
		
			<line fill="none" stroke="#514959" stroke-width="1.5" stroke-linecap="square" x1="88.581" y1="54.947" x2="93.728" y2="54.947"/>
		
			<line fill="none" stroke="#514959" stroke-width="1.5" stroke-linecap="square" x1="88.581" y1="60.095" x2="93.728" y2="60.095"/>
		
			<line fill="none" stroke="#DED7FF" stroke-width="1.5" stroke-linecap="square" x1="88.527" y1="65.244" x2="93.728" y2="65.244"/>
		
			<line fill="none" stroke="#DED7FF" stroke-width="1.5" stroke-linecap="square" x1="101.885" y1="13.78" x2="107.086" y2="13.78"/>
		
			<line fill="none" stroke="#514959" stroke-width="1.5" stroke-linecap="square" x1="101.885" y1="18.928" x2="107.033" y2="18.928"/>
		
			<line fill="none" stroke="#514959" stroke-width="1.5" stroke-linecap="square" x1="101.885" y1="24.072" x2="107.033" y2="24.072"/>
		
			<line fill="none" stroke="#514959" stroke-width="1.5" stroke-linecap="square" x1="101.885" y1="29.218" x2="107.033" y2="29.218"/>
		
			<line fill="none" stroke="#514959" stroke-width="1.5" stroke-linecap="square" x1="101.885" y1="34.364" x2="107.033" y2="34.364"/>
		
			<line fill="none" stroke="#DED7FF" stroke-width="1.5" stroke-linecap="square" x1="101.885" y1="39.511" x2="107.033" y2="39.511"/>
		
			<line fill="none" stroke="#514959" stroke-width="1.5" stroke-linecap="square" x1="101.885" y1="44.657" x2="107.033" y2="44.657"/>
		
			<line fill="none" stroke="#514959" stroke-width="1.5" stroke-linecap="square" x1="101.885" y1="49.803" x2="107.033" y2="49.803"/>
		
			<line fill="none" stroke="#514959" stroke-width="1.5" stroke-linecap="square" x1="101.885" y1="54.947" x2="107.033" y2="54.947"/>
		
			<line fill="none" stroke="#514959" stroke-width="1.5" stroke-linecap="square" x1="101.885" y1="60.095" x2="107.033" y2="60.095"/>
		
			<line fill="none" stroke="#DED7FF" stroke-width="1.5" stroke-linecap="square" x1="101.885" y1="65.244" x2="107.086" y2="65.244"/>
		<line fill="none" stroke="#38354D" stroke-width="1.5" stroke-linecap="square" x1="97.744" y1="13.78" x2="97.744" y2="65.723"/>
	</g>
	<g>
		<path fill="none" stroke="#38354D" stroke-width="1.5" stroke-linecap="square" d="M187,69.498c0,1.565-1.27,2.834-2.835,2.834
			H7.334c-1.564,0-2.834-1.269-2.834-2.834V5.752c0-1.565,1.27-2.834,2.834-2.834h176.831c1.565,0,2.835,1.269,2.835,2.834V69.498z"
			/>
		
			<line fill="none" stroke="#38354D" stroke-width="1.5" stroke-linecap="square" x1="119.121" y1="5.659" x2="119.121" y2="69.298"/>
		<line fill="none" stroke="#38354D" stroke-width="1.5" stroke-linecap="square" x1="65.788" y1="5.659" x2="65.788" y2="69.298"/>
	</g>
	<g>
		<path fill="none" stroke="#38354D" stroke-width="1.5" stroke-linecap="square" d="M187,141.656c0,1.562-1.27,2.834-2.835,2.834
			H7.334c-1.564,0-2.834-1.271-2.834-2.834V77.91c0-1.565,1.27-2.834,2.834-2.834h176.831c1.565,0,2.835,1.269,2.835,2.834V141.656z
			"/>
		
			<line fill="none" stroke="#38354D" stroke-width="1.5" stroke-linecap="square" x1="119.121" y1="77.816" x2="119.121" y2="141.456"/>
		
			<line fill="none" stroke="#38354D" stroke-width="1.5" stroke-linecap="square" x1="65.788" y1="77.816" x2="65.788" y2="141.456"/>
	</g>
	<path id="o_122_" fill="none" stroke="#DED7FF" stroke-width="1.5" stroke-linecap="square" d="M252.302,101.797v2.821
		c0,0.952,0.771,1.728,1.728,1.728c0.951,0,1.729-0.771,1.729-1.728l0,0l0,0v-2.821c0-0.953-0.771-1.727-1.729-1.727
		C253.073,100.073,252.302,100.844,252.302,101.797L252.302,101.797L252.302,101.797L252.302,101.797z"/>
	<path id="o_123_" fill="none" stroke="#DED7FF" stroke-width="1.5" stroke-linecap="square" d="M11.525,136.073v2.821
		c0,0.953,0.771,1.727,1.724,1.727s1.726-0.771,1.726-1.727l0,0l0,0v-2.821c0-0.951-0.771-1.726-1.726-1.726
		C12.298,134.35,11.525,135.121,11.525,136.073L11.525,136.073L11.525,136.073L11.525,136.073z"/>
</g>
<line id="filtline" fill="none" stroke="#FF395A" stroke-width="1.5" stroke-linecap="square" x1="253.525" y1="56.902" x2="253.525" y2="64.761"/>
<circle id="r1_1_" fill="#522132" stroke="#522132" stroke-linecap="square" cx="197.395" cy="10.328" r="1.417"/>
<circle id="o10_1_" fill="#522132" stroke="#522132" stroke-linecap="square" cx="130.764" cy="44.999" r="1.417"/>
<circle id="o11_1_" fill="#522132" stroke="#522132" stroke-linecap="square" cx="130.764" cy="38.999" r="1.417"/>
<circle id="o12_1_" fill="#522132" stroke="#522132" stroke-linecap="square" cx="130.764" cy="33.001" r="1.417"/>
<circle id="o13_1_" fill="#522132" stroke="#522132" stroke-linecap="square" cx="130.764" cy="27.002" r="1.417"/>
<circle id="o20_1_" fill="#522132" stroke="#522132" stroke-linecap="square" cx="130.764" cy="117.317" r="1.417"/>
<circle id="o21_1_" fill="#522132" stroke="#522132" stroke-linecap="square" cx="130.764" cy="111.319" r="1.417"/>
<circle id="o22_1_" fill="#522132" stroke="#522132" stroke-linecap="square" cx="130.764" cy="105.319" r="1.417"/>
<circle id="o23_1_" fill="#522132" stroke="#522132" stroke-linecap="square" cx="130.764" cy="99.323" r="1.417"/>
<circle id="r2_1_" fill="#522132" stroke="#522132" stroke-linecap="square" cx="281.281" cy="10.356" r="1.417"/>
<g id="pitch">
	<line fill="none" stroke="#698EFF" stroke-width="1.5" stroke-linecap="square" x1="40.229" y1="9.486" x2="40.229" y2="12.712"/>
	<line fill="none" stroke="#698EFF" stroke-width="1.5" stroke-linecap="square" x1="38.617" y1="11.1" x2="41.842" y2="11.1"/>
	<path fill="none" stroke="#698EFF" stroke-width="1.5" stroke-linecap="square" d="M49.608,12.712c0,0.892-0.722,1.613-1.613,1.613
		s-1.613-0.723-1.613-1.613V9.486c0-0.892,0.723-1.612,1.613-1.612c0.892,0,1.613,0.721,1.613,1.612V12.712z"/>
	<line fill="none" stroke="#698EFF" stroke-width="1.5" stroke-linecap="square" x1="44.062" y1="7.875" x2="44.062" y2="14.326"/>
</g>
<polyline id="o1w1" fill="none" stroke="#514959" stroke-width="1.5" stroke-linecap="square" points="73.878,40.953 73.878,36.836 
	77.992,36.836 77.992,40.953 82.109,40.953 82.109,36.836 "/>
<g>
	
		<circle id="p1ring_1_" fill="none" stroke="#638BFF" stroke-width="1.5" stroke-linecap="square" cx="33.635" cy="39.803" r="10.976"/>
	
		<line id="p1line_1_" fill="none" stroke="#638BFF" stroke-width="1.5" stroke-linecap="square" x1="33.634" y1="31.021" x2="33.634" y2="37.607"/>
</g>
<g>
	
		<circle id="p2ring_1_" fill="none" stroke="#514959" stroke-width="1.5" stroke-linecap="square" cx="34.74" cy="112.291" r="10.977"/>
	
		<line id="p2line_1_" fill="none" stroke="#638BFF" stroke-width="1.5" stroke-linecap="square" x1="34.739" y1="103.514" x2="34.739" y2="110.098"/>
</g>
<g>
	
		<circle id="redring_1_" fill="none" stroke="#38354D" stroke-width="1.5" stroke-linecap="square" cx="253.695" cy="68.542" r="13.787"/>
	
		<circle id="modering" fill="none" stroke="#DED7FF" stroke-width="1.5" stroke-linecap="square" cx="253.7" cy="68.542" r="27.57"/>
	
		<line id="funkline_1_" fill="none" stroke="#FF395A" stroke-width="1.5" stroke-linecap="square" x1="253.525" y1="43.902" x2="253.525" y2="51.761"/>
</g>
<polyline id="o2w1" fill="none" stroke="#00676C" stroke-width="1.5" stroke-linecap="square" points="73.878,113.296 
	73.878,109.182 77.992,109.182 77.992,113.296 82.109,113.296 82.109,109.182 "/>
<line id="w2line_1_" fill="none" stroke="#DED7FF" stroke-width="1.5" stroke-linecap="square" x1="152.519" y1="103.514" x2="152.519" y2="110.098"/>
<path fill="none" stroke="#514959" stroke-width="1.5" stroke-linecap="square" d="M152.609,91.199"/>
<line id="w1line_1_" fill="none" stroke="#DED7FF" stroke-width="1.5" stroke-linecap="square" x1="152.519" y1="31.023" x2="152.519" y2="37.607"/>
<g id="w1_1_">
	
		<line fill="none" stroke="#DED7FF" stroke-width="1.7522" stroke-linecap="square" x1="12.454" y1="8.625" x2="12.454" y2="17.958"/>
	<g>
		<g id="g_26_">
			<path fill="none" stroke="#DED7FF" stroke-width="1.5" stroke-linecap="square" d="M177.45,13.044
				c0,0.736-0.599,1.334-1.332,1.334c-0.737,0-1.336-0.598-1.336-1.334v-2.666c0-0.735,0.599-1.332,1.336-1.332
				c0.733,0,1.332,0.597,1.332,1.332"/>
			<polyline fill="none" stroke="#DED7FF" stroke-width="1.5" stroke-linecap="square" points="176.783,12.244 177.45,12.244 
				177.45,14.378 			"/>
		</g>
		<polyline id="n_89_" fill="none" stroke="#DED7FF" stroke-width="1.5" stroke-linecap="square" points="169.984,14.378 
			169.984,9.046 170.251,9.046 172.385,14.378 172.65,14.378 172.65,9.046 		"/>
		<path id="o_126_" fill="none" stroke="#DED7FF" stroke-width="1.5" stroke-linecap="square" d="M164.919,10.512v2.399
			c0,0.811,0.656,1.467,1.472,1.467c0.812,0,1.465-0.656,1.465-1.467l0,0l0,0v-2.399c0-0.811-0.65-1.466-1.465-1.466
			C165.575,9.046,164.919,9.701,164.919,10.512L164.919,10.512L164.919,10.512L164.919,10.512z"/>
		<polyline id="l_66_" fill="none" stroke="#DED7FF" stroke-width="1.5" stroke-linecap="square" points="160.652,9.046 
			160.652,14.378 163.052,14.378 		"/>
	</g>
	<g>
		<g id="a_101_">
			<polyline fill="none" stroke="#DED7FF" stroke-width="1.5" stroke-linecap="square" points="156.91,67.772 156.91,67.64 
				158.376,62.44 158.643,62.44 160.11,67.64 160.11,67.772 			"/>
			
				<line fill="none" stroke="#DED7FF" stroke-width="1.5" stroke-linecap="square" x1="157.442" y1="66.308" x2="159.576" y2="66.308"/>
		</g>
		<g id="a_99_">
			<polyline fill="none" stroke="#DED7FF" stroke-width="1.5" stroke-linecap="square" points="168.91,67.772 168.91,67.64 
				170.376,62.44 170.643,62.44 172.107,67.64 172.107,67.772 			"/>
			
				<line fill="none" stroke="#DED7FF" stroke-width="1.5" stroke-linecap="square" x1="169.441" y1="66.308" x2="171.576" y2="66.308"/>
		</g>
		<g id="t_129_">
			
				<line fill="none" stroke="#DED7FF" stroke-width="1.5" stroke-linecap="square" x1="160.91" y1="62.44" x2="164.243" y2="62.44"/>
			
				<line fill="none" stroke="#DED7FF" stroke-width="1.5" stroke-linecap="square" x1="162.643" y1="62.44" x2="162.643" y2="67.772"/>
		</g>
		<g id="t_128_">
			
				<line fill="none" stroke="#DED7FF" stroke-width="1.5" stroke-linecap="square" x1="164.775" y1="62.44" x2="168.109" y2="62.44"/>
			
				<line fill="none" stroke="#DED7FF" stroke-width="1.5" stroke-linecap="square" x1="166.51" y1="62.44" x2="166.51" y2="67.772"/>
		</g>
		<g id="c_56_">
			<path fill="none" stroke="#DED7FF" stroke-width="1.5" stroke-linecap="square" d="M176.375,66.439
				c0,0.737-0.598,1.333-1.332,1.333c-0.732,0-1.334-0.596-1.334-1.333v-2.667c0-0.735,0.602-1.332,1.334-1.332
				c0.734,0,1.332,0.597,1.332,1.332"/>
		</g>
		<g id="k_16_">
			
				<line fill="none" stroke="#DED7FF" stroke-width="1.5" stroke-linecap="square" stroke-linejoin="round" x1="178.374" y1="62.44" x2="178.374" y2="67.772"/>
			<polyline fill="none" stroke="#DED7FF" stroke-width="1.5" stroke-linecap="square" stroke-linejoin="round" points="
				181.042,62.44 181.042,62.574 178.416,65.852 			"/>
			<polyline fill="none" stroke="#DED7FF" stroke-width="1.5" stroke-linecap="square" stroke-linejoin="round" points="
				179.175,64.974 181.309,67.64 181.309,67.772 			"/>
		</g>
	</g>
	<g>
		<path id="s_95_" fill="none" stroke="#DED7FF" stroke-width="1.5" stroke-linecap="square" stroke-linejoin="round" d="
			M126.058,66.439c0,0.737,0.597,1.334,1.333,1.334c0.734,0,1.333-0.597,1.333-1.334c0-0.299-0.204-0.708-0.572-0.935
			c-0.32-0.198-1.234-0.581-1.551-0.785c-0.395-0.25-0.542-0.646-0.542-0.946c0-0.736,0.597-1.334,1.333-1.334
			c0.735,0,1.333,0.598,1.333,1.334"/>
		<g id="t_127_">
			
				<line fill="none" stroke="#DED7FF" stroke-width="1.5" stroke-linecap="square" stroke-linejoin="round" x1="144.548" y1="62.439" x2="147.882" y2="62.439"/>
			
				<line fill="none" stroke="#DED7FF" stroke-width="1.5" stroke-linecap="square" stroke-linejoin="round" x1="146.282" y1="62.439" x2="146.282" y2="67.773"/>
		</g>
		<path id="r_88_" fill="none" stroke="#DED7FF" stroke-width="1.5" stroke-linecap="square" stroke-linejoin="round" d="
			M140.416,67.772v-5.333h1.067c0.734,0,1.333,0.598,1.333,1.334l0,0c0,0.736-0.599,1.333-1.333,1.333h-0.8l1.865,2.533v0.134"/>
		<g id="h_36_">
			
				<line fill="none" stroke="#DED7FF" stroke-width="1.5" stroke-linecap="square" stroke-linejoin="round" x1="130.685" y1="62.44" x2="130.685" y2="67.773"/>
			
				<line fill="none" stroke="#DED7FF" stroke-width="1.5" stroke-linecap="square" stroke-linejoin="round" x1="133.352" y1="62.44" x2="133.352" y2="67.773"/>
			
				<line fill="none" stroke="#DED7FF" stroke-width="1.5" stroke-linecap="square" stroke-linejoin="round" x1="130.685" y1="65.107" x2="133.352" y2="65.107"/>
		</g>
		<path id="o_125_" fill="none" stroke="#DED7FF" stroke-width="1.5" stroke-linecap="square" stroke-linejoin="round" d="
			M135.351,63.908v2.399c0,0.811,0.655,1.466,1.467,1.466c0.81,0,1.466-0.655,1.466-1.466l0,0l0,0v-2.399
			c0-0.811-0.657-1.468-1.466-1.468C136.007,62.44,135.351,63.098,135.351,63.908L135.351,63.908L135.351,63.908L135.351,63.908z"/>
	</g>
	
		<circle id="w1ring" fill="none" stroke="#DED7FF" stroke-width="1.5" stroke-linecap="square" cx="152.521" cy="39.802" r="10.975"/>
</g>
<g id="w2_1_">
	<g>
		<path fill="none" stroke="#514959" stroke-width="2.0465" stroke-linecap="square" d="M8.924,82.109
			c0-1.738,1.408-3.151,3.151-3.151h2.444c1.723,0,3.121,1.371,3.121,3.091c0,1.396-0.786,2.481-2.188,2.975L8.924,87.83v0.467
			h8.863"/>
	</g>
	<g>
		<g id="g_1_">
			<path fill="none" stroke="#514959" stroke-width="1.5" stroke-linecap="square" d="M177.45,85.386
				c0,0.737-0.599,1.334-1.332,1.334c-0.737,0-1.336-0.597-1.336-1.334V82.72c0-0.735,0.599-1.331,1.336-1.331
				c0.733,0,1.332,0.596,1.332,1.331"/>
			<polyline fill="none" stroke="#514959" stroke-width="1.5" stroke-linecap="square" points="176.783,84.587 177.45,84.587 
				177.45,86.72 			"/>
		</g>
		<polyline id="n_1_" fill="none" stroke="#514959" stroke-width="1.5" stroke-linecap="square" points="169.984,86.72 
			169.984,81.389 170.251,81.389 172.385,86.72 172.65,86.72 172.65,81.389 		"/>
		<path id="o_2_" fill="none" stroke="#514959" stroke-width="1.5" stroke-linecap="square" d="M164.919,82.854v2.398
			c0,0.811,0.656,1.465,1.472,1.465c0.812,0,1.465-0.654,1.465-1.465l0,0l0,0v-2.398c0-0.812-0.65-1.467-1.465-1.467
			C165.575,81.389,164.919,82.043,164.919,82.854L164.919,82.854L164.919,82.854L164.919,82.854z"/>
		<polyline id="l_1_" fill="none" stroke="#514959" stroke-width="1.5" stroke-linecap="square" points="160.652,81.389 
			160.652,86.72 163.052,86.72 		"/>
	</g>
	<g>
		<path id="s_1_" fill="none" stroke="#514959" stroke-width="1.5" stroke-linecap="square" d="M126.058,138.816
			c0,0.738,0.597,1.334,1.333,1.334c0.734,0,1.333-0.596,1.333-1.334c0-0.299-0.204-0.707-0.572-0.938
			c-0.32-0.194-1.234-0.578-1.551-0.78c-0.395-0.255-0.542-0.646-0.542-0.947c0-0.729,0.597-1.334,1.333-1.334
			c0.735,0,1.333,0.604,1.333,1.334"/>
		<g id="t_1_">
			
				<line fill="none" stroke="#514959" stroke-width="1.5" stroke-linecap="square" x1="144.548" y1="134.816" x2="147.882" y2="134.816"/>
			
				<line fill="none" stroke="#514959" stroke-width="1.5" stroke-linecap="square" x1="146.282" y1="134.816" x2="146.282" y2="140.15"/>
		</g>
		<path id="r_1_" fill="none" stroke="#514959" stroke-width="1.5" stroke-linecap="square" d="M140.416,140.148v-5.332h1.067
			c0.734,0,1.333,0.6,1.333,1.334l0,0c0,0.729-0.599,1.332-1.333,1.332h-0.8l1.865,2.535v0.133"/>
		<g id="h_1_">
			
				<line fill="none" stroke="#514959" stroke-width="1.5" stroke-linecap="square" x1="130.685" y1="134.816" x2="130.685" y2="140.15"/>
			
				<line fill="none" stroke="#514959" stroke-width="1.5" stroke-linecap="square" x1="133.352" y1="134.816" x2="133.352" y2="140.15"/>
			
				<line fill="none" stroke="#514959" stroke-width="1.5" stroke-linecap="square" x1="130.685" y1="137.484" x2="133.352" y2="137.484"/>
		</g>
		<path id="o_1_" fill="none" stroke="#514959" stroke-width="1.5" stroke-linecap="square" d="M135.351,136.287v2.398
			c0,0.811,0.655,1.465,1.467,1.465c0.81,0,1.466-0.654,1.466-1.465l0,0l0,0v-2.398c0-0.812-0.657-1.471-1.466-1.471
			C136.007,134.816,135.351,135.479,135.351,136.287L135.351,136.287L135.351,136.287L135.351,136.287z"/>
	</g>
	<g>
		<g id="a_3_">
			<polyline fill="none" stroke="#514959" stroke-width="1.5" stroke-linecap="square" points="156.91,140.15 156.91,140.021 
				158.376,134.816 158.643,134.816 160.11,140.021 160.11,140.15 			"/>
			
				<line fill="none" stroke="#514959" stroke-width="1.5" stroke-linecap="square" x1="157.442" y1="138.688" x2="159.576" y2="138.688"/>
		</g>
		<g id="a_1_">
			<polyline fill="none" stroke="#514959" stroke-width="1.5" stroke-linecap="square" points="168.91,140.15 168.91,140.021 
				170.376,134.816 170.643,134.816 172.107,140.021 172.107,140.15 			"/>
			
				<line fill="none" stroke="#514959" stroke-width="1.5" stroke-linecap="square" x1="169.441" y1="138.688" x2="171.576" y2="138.688"/>
		</g>
		<g id="t_3_">
			
				<line fill="none" stroke="#514959" stroke-width="1.5" stroke-linecap="square" x1="160.91" y1="134.816" x2="164.243" y2="134.816"/>
			
				<line fill="none" stroke="#514959" stroke-width="1.5" stroke-linecap="square" x1="162.643" y1="134.816" x2="162.643" y2="140.15"/>
		</g>
		<g id="t_2_">
			
				<line fill="none" stroke="#514959" stroke-width="1.5" stroke-linecap="square" x1="164.775" y1="134.816" x2="168.109" y2="134.816"/>
			
				<line fill="none" stroke="#514959" stroke-width="1.5" stroke-linecap="square" x1="166.51" y1="134.816" x2="166.51" y2="140.15"/>
		</g>
		<g id="c_2_">
			<path fill="none" stroke="#514959" stroke-width="1.5" stroke-linecap="square" d="M176.375,138.816
				c0,0.738-0.598,1.334-1.332,1.334c-0.732,0-1.334-0.596-1.334-1.334v-2.666c0-0.734,0.602-1.334,1.334-1.334
				c0.734,0,1.332,0.6,1.332,1.334"/>
		</g>
		<g id="k_1_">
			
				<line fill="none" stroke="#514959" stroke-width="1.5" stroke-linecap="square" x1="178.374" y1="134.816" x2="178.374" y2="140.15"/>
			<polyline fill="none" stroke="#514959" stroke-width="1.5" stroke-linecap="square" points="181.042,134.816 181.042,134.953 
				178.416,138.229 			"/>
			<polyline fill="none" stroke="#514959" stroke-width="1.5" stroke-linecap="square" points="179.175,137.354 181.309,140.021 
				181.309,140.15 			"/>
		</g>
	</g>
	
		<circle id="w2ring" fill="none" stroke="#514959" stroke-width="1.5" stroke-linecap="square" cx="152.52" cy="112.291" r="10.977"/>
</g>
<g>
	<g id="a_2_">
		<polyline fill="none" stroke="#514959" stroke-width="1.5" stroke-linecap="square" points="139.385,86.72 139.385,86.587 
			140.853,81.389 141.119,81.389 142.586,86.587 142.586,86.72 		"/>
		
			<line fill="none" stroke="#514959" stroke-width="1.5" stroke-linecap="square" x1="139.919" y1="85.255" x2="142.052" y2="85.255"/>
	</g>
	<path id="d_1_" fill="none" stroke="#514959" stroke-width="1.5" stroke-linecap="square" d="M127.121,86.72
		c0.737,0,1.334-0.598,1.334-1.331V82.72c0-0.733-0.597-1.331-1.334-1.331h-1.333v5.331H127.121L127.121,86.72z"/>
	<g id="y_1_">
		<polyline fill="none" stroke="#514959" stroke-width="1.5" stroke-linecap="square" points="143.652,81.389 143.652,81.652 
			144.986,84.318 146.319,81.652 146.319,81.389 		"/>
		
			<line fill="none" stroke="#514959" stroke-width="1.5" stroke-linecap="square" x1="144.986" y1="84.318" x2="144.986" y2="86.72"/>
	</g>
	<g id="c_1_">
		<path fill="none" stroke="#514959" stroke-width="1.5" stroke-linecap="square" d="M137.653,85.389
			c0,0.733-0.597,1.331-1.333,1.331c-0.737,0-1.333-0.598-1.333-1.331V82.72c0-0.735,0.596-1.331,1.333-1.331
			c0.736,0,1.333,0.596,1.333,1.331"/>
	</g>
	<g id="e_1_">
		<polyline fill="none" stroke="#514959" stroke-width="1.5" stroke-linecap="square" points="132.987,86.72 130.586,86.72 
			130.586,81.389 132.987,81.389 		"/>
		
			<line fill="none" stroke="#514959" stroke-width="1.5" stroke-linecap="square" x1="130.586" y1="84.055" x2="132.72" y2="84.055"/>
	</g>
</g>
<g>
	<polyline fill="none" stroke="#514959" stroke-width="1.5" stroke-linecap="square" points="152.519,96.465 152.519,92.075 
		152.519,84.1 156.967,84.1 	"/>
	<polyline fill="none" stroke="#514959" stroke-width="1.5" stroke-linecap="square" points="142.441,124.023 139.619,127.521 
		139.619,131.061 	"/>
	<polyline fill="none" stroke="#514959" stroke-width="1.5" stroke-linecap="square" points="162.6,124.023 165.424,127.521 
		165.424,131.061 	"/>
</g>
<g>
	<line fill="none" stroke="#DED7FF" stroke-width="1.5" stroke-linecap="square" x1="88.527" y1="86.123" x2="93.728" y2="86.123"/>
	<line fill="none" stroke="#514959" stroke-width="1.5" stroke-linecap="square" x1="88.581" y1="91.271" x2="93.728" y2="91.271"/>
	<line fill="none" stroke="#514959" stroke-width="1.5" stroke-linecap="square" x1="88.581" y1="96.414" x2="93.728" y2="96.414"/>
	
		<line fill="none" stroke="#514959" stroke-width="1.5" stroke-linecap="square" x1="88.581" y1="101.562" x2="93.728" y2="101.562"/>
	
		<line fill="none" stroke="#514959" stroke-width="1.5" stroke-linecap="square" x1="88.581" y1="106.707" x2="93.728" y2="106.707"/>
	
		<line fill="none" stroke="#DED7FF" stroke-width="1.5" stroke-linecap="square" x1="88.581" y1="111.854" x2="93.728" y2="111.854"/>
	<line fill="none" stroke="#514959" stroke-width="1.5" stroke-linecap="square" x1="88.581" y1="117" x2="93.728" y2="117"/>
	
		<line fill="none" stroke="#514959" stroke-width="1.5" stroke-linecap="square" x1="88.581" y1="122.146" x2="93.728" y2="122.146"/>
	<line fill="none" stroke="#514959" stroke-width="1.5" stroke-linecap="square" x1="88.581" y1="127.29" x2="93.728" y2="127.29"/>
	
		<line fill="none" stroke="#514959" stroke-width="1.5" stroke-linecap="square" x1="88.581" y1="132.438" x2="93.728" y2="132.438"/>
	
		<line fill="none" stroke="#DED7FF" stroke-width="1.5" stroke-linecap="square" x1="88.527" y1="137.587" x2="93.728" y2="137.587"/>
	
		<line fill="none" stroke="#DED7FF" stroke-width="1.5" stroke-linecap="square" x1="101.885" y1="86.123" x2="107.086" y2="86.123"/>
	
		<line fill="none" stroke="#514959" stroke-width="1.5" stroke-linecap="square" x1="101.885" y1="91.271" x2="107.033" y2="91.271"/>
	
		<line fill="none" stroke="#514959" stroke-width="1.5" stroke-linecap="square" x1="101.885" y1="96.414" x2="107.033" y2="96.414"/>
	
		<line fill="none" stroke="#514959" stroke-width="1.5" stroke-linecap="square" x1="101.885" y1="101.562" x2="107.033" y2="101.562"/>
	
		<line fill="none" stroke="#514959" stroke-width="1.5" stroke-linecap="square" x1="101.885" y1="106.707" x2="107.033" y2="106.707"/>
	
		<line fill="none" stroke="#DED7FF" stroke-width="1.5" stroke-linecap="square" x1="101.885" y1="111.854" x2="107.033" y2="111.854"/>
	<line fill="none" stroke="#514959" stroke-width="1.5" stroke-linecap="square" x1="101.885" y1="117" x2="107.033" y2="117"/>
	
		<line fill="none" stroke="#514959" stroke-width="1.5" stroke-linecap="square" x1="101.885" y1="122.146" x2="107.033" y2="122.146"/>
	
		<line fill="none" stroke="#514959" stroke-width="1.5" stroke-linecap="square" x1="101.885" y1="127.29" x2="107.033" y2="127.29"/>
	
		<line fill="none" stroke="#514959" stroke-width="1.5" stroke-linecap="square" x1="101.885" y1="132.438" x2="107.033" y2="132.438"/>
	
		<line fill="none" stroke="#DED7FF" stroke-width="1.5" stroke-linecap="square" x1="101.885" y1="137.587" x2="107.086" y2="137.587"/>
	
		<line fill="none" stroke="#38354D" stroke-width="1.5" stroke-linecap="square" x1="97.744" y1="86.123" x2="97.744" y2="138.064"/>
</g>
<g id="g2_1_">
	
		<rect x="89.946" y="133.206" fill="none" stroke="#010101" stroke-width="1.5" stroke-linecap="square" width="15.591" height="8.504"/>
	
		<rect id="g2ls" x="91.662" y="134.639" fill="#010101" stroke="#00676C" stroke-width="1.5" stroke-linecap="square" width="12.264" height="5.938"/>
	
		<line fill="none" stroke="#00676C" stroke-width="1.5" stroke-linecap="square" x1="94.729" y1="137.604" x2="100.861" y2="137.604"/>
</g>
<g id="g1_1_">
	
		<rect x="89.946" y="60.722" fill="none" stroke="#010101" stroke-width="1.5" stroke-linecap="square" width="15.591" height="8.504"/>
	
		<rect id="g1ls" x="91.662" y="61.992" fill="#010101" stroke="#00EE92" stroke-width="1.5" stroke-linecap="square" width="12.264" height="5.937"/>
	<line fill="none" stroke="#00EE92" stroke-width="1.5" stroke-linecap="square" x1="94.729" y1="64.96" x2="100.861" y2="64.96"/>
</g>
<path id="o1w0" fill="none" stroke="#514959" stroke-width="1.5" stroke-linecap="square" d="M81.787,65.723
	c0,1.139-0.924,2.06-2.06,2.06l0,0c-1.139,0-2.061-0.921-2.061-2.06l0,0c0-1.138-0.921-2.059-2.058-2.059l0,0
	c-1.139,0-2.062,0.921-2.062,2.059l0,0"/>
<polyline id="o1w2" fill="none" stroke="#00EE92" stroke-width="1.5" stroke-linecap="square" points="74.061,16.394 74.061,12.278 
	82.292,16.394 "/>
<path id="o2w0" fill="none" stroke="#514959" stroke-width="1.5" stroke-linecap="square" d="M81.786,137.623
	c0,1.138-0.924,2.061-2.06,2.061l0,0c-1.139,0-2.061-0.923-2.061-2.061l0,0c0-1.137-0.921-2.059-2.058-2.059l0,0
	c-1.14,0-2.062,0.922-2.062,2.059l0,0"/>
<polyline id="o2w2" fill="none" stroke="#00EE92" stroke-width="1.5" stroke-linecap="square" points="74.06,87.832 74.06,83.718 
	82.292,83.718 82.292,87.832 "/>
</svg>
