<?xml version="1.0" encoding="utf-8"?>
<!-- Generator: Adobe Illustrator 14.0.0, SVG Export Plug-In . SVG Version: 6.00 Build 43363)  -->
<!DOCTYPE svg PUBLIC "-//W3C//DTD SVG 1.1//EN" "http://www.w3.org/Graphics/SVG/1.1/DTD/svg11.dtd">
<svg version="1.1" id="Layer_1" xmlns="http://www.w3.org/2000/svg" xmlns:xlink="http://www.w3.org/1999/xlink" x="0px" y="0px"
	 width="320px" height="160px" viewBox="0 0 320 160" enable-background="new 0 0 320 160" xml:space="preserve">
<g id="static">
	<g>
		<path fill="none" stroke="#825B99" stroke-width="1.5" stroke-linecap="square" d="M237.223,88.352
			c0,1.959,1.586,3.543,3.541,3.543c1.959,0,3.543-1.584,3.543-3.543c0-0.797-0.541-1.883-1.521-2.481
			c-0.854-0.521-3.281-1.543-4.126-2.084c-1.041-0.666-1.438-1.722-1.438-2.519c0-1.957,1.586-3.542,3.543-3.542
			s3.545,1.588,3.545,3.542"/>
		<path fill="none" stroke="#825B99" stroke-width="1.5" stroke-linecap="square" d="M247.71,91.895V77.725h2.837
			c1.956,0,3.543,1.586,3.543,3.542c0,1.955-1.587,3.543-3.543,3.543h-2.837"/>
		<path fill="none" stroke="#825B99" stroke-width="1.5" stroke-linecap="square" d="M279.312,91.895
			c1.957,0,3.541-1.584,3.541-3.543v-7.084c0-1.957-1.584-3.542-3.541-3.542h-3.543v14.168H279.312L279.312,91.895z"/>
		<polyline fill="none" stroke="#825B99" stroke-width="1.5" stroke-linecap="square" points="263.584,91.896 257.206,91.896 
			257.206,77.725 263.584,77.725 		"/>
		
			<line fill="none" stroke="#825B99" stroke-width="1.5" stroke-linecap="square" x1="257.206" y1="84.811" x2="262.876" y2="84.811"/>
		<polyline fill="none" stroke="#825B99" stroke-width="1.5" stroke-linecap="square" points="273.077,91.896 266.699,91.896 
			266.699,77.725 273.077,77.725 		"/>
		
			<line fill="none" stroke="#825B99" stroke-width="1.5" stroke-linecap="square" x1="266.699" y1="84.811" x2="272.369" y2="84.811"/>
	</g>
	<g>
		<path fill="none" stroke="#825B99" stroke-width="1.5" stroke-linecap="square" d="M251.234,19.654
			c1.955,0,3.545-1.586,3.545-3.543V9.024c0-1.957-1.59-3.543-3.545-3.543h-3.545v14.173H251.234z"/>
		<polyline fill="none" stroke="#825B99" stroke-width="1.5" stroke-linecap="square" points="238.052,19.654 238.052,5.481 
			244.432,5.481 		"/>
		
			<line fill="none" stroke="#825B99" stroke-width="1.5" stroke-linecap="square" x1="238.052" y1="12.567" x2="243.723" y2="12.567"/>
		<path fill="none" stroke="#825B99" stroke-width="1.5" stroke-linecap="square" d="M258.462,19.654V5.481h2.835
			c1.956,0,3.544,1.587,3.544,3.544s-1.588,3.543-3.544,3.543h-2.835"/>
		<path fill="none" stroke="#825B99" stroke-width="1.5" stroke-linecap="square" d="M258.462,12.567h2.835
			c1.956,0,3.544,1.586,3.544,3.544c0,1.956-1.588,3.543-3.544,3.543h-2.835"/>
	</g>
	<path fill="none" stroke="#5F4270" stroke-width="1.5" stroke-linecap="square" d="M94.678,18.152V9.648h5.956
		c1.175,0,2.126,0.952,2.126,2.126c0,1.174-0.951,2.126-2.126,2.126h-5.956"/>
	<polyline fill="none" stroke="#5F4270" stroke-width="1.5" stroke-linecap="square" points="102.76,18.152 102.76,17.94 
		98.72,13.9 98.294,13.9 	"/>
	<rect x="89.442" y="5.027" fill="none" stroke="#5F4270" stroke-width="1.5" width="138.906" height="138.897"/>
</g>
<path id="off0" fill="none" stroke="#34477D" stroke-width="1.5" stroke-linecap="square" d="M190.469,91.826
	c0,5.125-4.152,9.283-9.281,9.283c-5.123,0-9.278-4.156-9.278-9.283c0-5.123,4.155-9.289,9.278-9.289
	C186.312,82.539,190.469,86.701,190.469,91.826z"/>
<path id="off1" fill="none" stroke="#34477D" stroke-width="1.5" stroke-linecap="square" d="M208.502,91.83
	c0,15.078-12.234,27.312-27.318,27.312c-15.078,0-27.312-12.234-27.312-27.312c0-15.08,12.229-27.326,27.312-27.326
	C196.268,64.506,208.502,76.744,208.502,91.83z"/>
<path id="off2_1_" fill="none" stroke="#34477D" stroke-width="1.5" stroke-linecap="square" d="M223.596,90.061
	c0,24.455-19.849,44.308-44.316,44.308c-24.445,0-44.296-19.853-44.296-44.308c0-24.473,19.851-44.315,44.296-44.315
	C203.746,45.741,223.596,65.588,223.596,90.061z"/>
<path id="off3_1_" fill="none" stroke="#34477D" stroke-width="1.5" stroke-linecap="square" d="M226.064,82.035
	c0,31.375-25.461,56.834-56.854,56.834c-31.375,0-56.838-25.461-56.838-56.834c0-31.396,25.461-56.858,56.838-56.858
	C200.604,25.178,226.064,50.64,226.064,82.035z"/>
<path id="off4" fill="none" stroke="#34477D" stroke-width="1.5" stroke-linecap="square" d="M228.619,74.463
	c0,38.336-31.109,69.434-69.458,69.434c-38.329,0-69.438-31.104-69.438-69.434C89.723,36.106,120.831,5,159.161,5
	C197.512,5,228.619,36.108,228.619,74.463z"/>
<g id="white">
	<polyline fill="none" stroke="#DFD9FF" stroke-width="1.5" stroke-linecap="square" points="265.134,56.876 239.62,56.876 
		239.62,54.751 256.629,27.113 258.754,27.113 258.754,69.633 	"/>
	<path fill="none" stroke="#DFD9FF" stroke-width="1.5" stroke-linecap="square" d="M291.923,27.113h-21.261v31.89
		c0-5.871,4.759-10.63,10.632-10.63c5.87,0,10.629,4.759,10.629,10.63s-4.759,10.63-10.629,10.63h-10.632"/>
</g>
<g id="green">
	<polyline fill="none" stroke="#00ED95" stroke-width="1.5" stroke-linecap="square" points="265.134,130.271 239.62,130.271 
		239.62,128.146 256.629,100.508 258.754,100.508 258.754,143.027 	"/>
	<path fill="none" stroke="#00ED95" stroke-width="1.5" stroke-linecap="square" d="M291.923,100.508h-21.261v31.891
		c0-5.871,4.759-10.631,10.632-10.631c5.87,0,10.629,4.76,10.629,10.631s-4.759,10.629-10.629,10.629h-10.632"/>
</g>
<g id="red">
	<polyline fill="none" stroke="#4E2832" stroke-width="1.5" stroke-linecap="square" points="34.008,5.668 17,5.668 17,4.252 
		28.338,-14.174 29.755,-14.174 29.755,14.172 	"/>
	<path fill="none" stroke="#4E2832" stroke-width="1.5" stroke-linecap="square" d="M53.285-14.174H39.114v21.26
		C39.114,3.172,42.285,0,46.2,0c3.914,0,7.085,3.172,7.085,7.086s-3.171,7.088-7.085,7.088h-7.088"/>
</g>
<g id="input">
	<line fill="none" stroke="#FF3A5D" stroke-width="1.5" stroke-linecap="square" x1="22.449" y1="-3.402" x2="22.449" y2="5.101"/>
	<path fill="none" stroke="#FF3A5D" stroke-width="1.5" stroke-linecap="square" d="M34.595,5.101v-8.503h1.701
		c1.174,0,2.126,0.951,2.126,2.125c0,1.175-0.952,2.127-2.126,2.127h-1.701"/>
	<line fill="none" stroke="#FF3A5D" stroke-width="1.5" stroke-linecap="square" x1="48.522" y1="-3.402" x2="53.836" y2="-3.402"/>
	<line fill="none" stroke="#FF3A5D" stroke-width="1.5" stroke-linecap="square" x1="51.286" y1="-3.402" x2="51.286" y2="5.1"/>
	<path fill="none" stroke="#FF3A5D" stroke-width="1.5" stroke-linecap="square" d="M41.754-3.402v6.377
		c0,1.175,0.952,2.127,2.126,2.127c1.175,0,2.126-0.952,2.126-2.127v-6.377"/>
	<polyline fill="none" stroke="#FF3A5D" stroke-width="1.5" stroke-linecap="square" points="26.635,5.101 26.635,-3.402 
		27.06,-3.402 30.463,5.101 30.887,5.101 30.887,-3.402 	"/>
</g>
<line id="vert" fill="none" stroke="#5F4270" stroke-width="1.5" x1="89.442" y1="0" x2="228.296" y2="0"/>
<line id="hor" fill="none" stroke="#5F4270" stroke-width="1.5" x1="0" y1="5.047" x2="0" y2="143.9"/>
<path id="ring0" fill="none" stroke="#698EFF" stroke-width="1.5" stroke-linecap="square" d="M190.469,91.826
	c0,5.125-4.152,9.283-9.281,9.283c-5.123,0-9.278-4.156-9.278-9.283c0-5.123,4.155-9.289,9.278-9.289
	C186.312,82.539,190.469,86.701,190.469,91.826z"/>
<path id="ring1" fill="none" stroke="#698EFF" stroke-width="1.5" stroke-linecap="square" d="M208.502,91.83
	c0,15.078-12.234,27.312-27.318,27.312c-15.078,0-27.312-12.234-27.312-27.312c0-15.08,12.229-27.326,27.312-27.326
	C196.268,64.506,208.502,76.744,208.502,91.83z"/>
<path id="ring2" fill="none" stroke="#698EFF" stroke-width="1.5" stroke-linecap="square" d="M223.596,90.061
	c0,24.455-19.849,44.308-44.316,44.308c-24.445,0-44.296-19.853-44.296-44.308c0-24.473,19.851-44.315,44.296-44.315
	C203.746,45.741,223.596,65.588,223.596,90.061z"/>
<path id="ring3" fill="none" stroke="#698EFF" stroke-width="1.5" stroke-linecap="square" d="M226.064,82.035
	c0,31.375-25.461,56.834-56.854,56.834c-31.375,0-56.838-25.461-56.838-56.834c0-31.396,25.461-56.858,56.838-56.858
	C200.604,25.178,226.064,50.64,226.064,82.035z"/>
<path id="ring4" fill="none" stroke="#698EFF" stroke-width="1.5" stroke-linecap="square" d="M228.619,74.463
	c0,38.336-31.109,69.434-69.458,69.434c-38.329,0-69.438-31.104-69.438-69.434C89.723,36.106,120.831,5,159.161,5
	C197.512,5,228.619,36.108,228.619,74.463z"/>
<path id="cdot" fill="#FF3A5D" d="M0-2.48c1.369,0,2.479,1.109,2.479,2.479C2.479,1.37,1.371,2.478,0,2.478
	c-1.369,0-2.479-1.108-2.479-2.479C-2.48-1.371-1.37-2.48,0-2.48"/>
<line id="rbgnd" fill="none" stroke="#FF3A5D" stroke-width="1.5" x1="-95" y1="-0.001" x2="0" y2="-0.001"/>
<rect x="63.598" y="71.625" fill="#010101" width="25" height="26.143"/>
</svg>
