<?xml version="1.0" encoding="utf-8"?>
<!-- Generator: Adobe Illustrator 14.0.0, SVG Export Plug-In . SVG Version: 6.00 Build 43363)  -->
<!DOCTYPE svg PUBLIC "-//W3C//DTD SVG 1.1//EN" "http://www.w3.org/Graphics/SVG/1.1/DTD/svg11.dtd">
<svg version="1.1" id="Layer_1" xmlns="http://www.w3.org/2000/svg" xmlns:xlink="http://www.w3.org/1999/xlink" x="0px" y="0px"
	 width="320px" height="160px" viewBox="0 0 320 160" enable-background="new 0 0 320 160" xml:space="preserve">
<g id="static_x5F_bg">
	<path fill="#698EFF" stroke="#698EFF" d="M53.328,25.597c0,1.657-1.343,3-3,3c-1.657,0-3-1.342-3-3c0-1.658,1.343-3.001,3-3.001
		C51.985,22.596,53.328,23.94,53.328,25.597"/>
	<circle fill="none" stroke="#698EFF" stroke-width="1.5" cx="50.328" cy="25.597" r="3"/>
	<line fill="none" stroke="#698EFF" stroke-width="1.5" x1="53.328" y1="25.597" x2="53.328" y2="8.597"/>
</g>
<line id="loopoutbar" fill="none" stroke="#00475B" stroke-width="1.5" stroke-dasharray="4,2" x1="16.589" y1="50.425" x2="16.589" y2="134.18"/>
<line id="loopinbar" display="none" fill="none" stroke="#00475B" stroke-width="1.5" stroke-dasharray="4,2" x1="16.829" y1="50.425" x2="16.829" y2="134.18"/>
<g id="pitch">
	<line fill="none" stroke="#698EFF" stroke-width="1.5" x1="65.329" y1="13.598" x2="65.329" y2="23.598"/>
	<line fill="none" stroke="#698EFF" stroke-width="1.5" x1="60.329" y1="18.597" x2="70.329" y2="18.597"/>
	<path fill="none" stroke="#698EFF" stroke-width="1.5" d="M91.329,23.598c0,2.761-2.238,5-5,5c-2.762,0-5-2.24-5-5v-10
		c0-2.763,2.238-5.001,5-5.001c2.762,0,5,2.239,5,5.001V23.598z"/>
	<line fill="none" stroke="#698EFF" stroke-width="1.5" x1="76.329" y1="8.597" x2="76.329" y2="28.598"/>
</g>
<g id="overview">
	<polyline fill="none" stroke="#00475B" stroke-width="1.5" stroke-linecap="square" points="141.812,27.539 140.743,27.539 
		140.498,27.244 139.145,22.727 138.735,22.323 138.244,22.065 137.834,22.359 137.302,22.58 136.442,22.359 135.991,21.955 
		135.295,22.249 134.435,23.058 134.106,24.013 132.959,24.967 132.14,24.967 131.279,23.058 130.501,22.837 130.255,21.845 
		129.888,21.551 129.477,19.934 128.823,19.385 126.156,21.06 126.156,24.236 126.156,27.412 115.488,27.412 	"/>
	<polyline fill="none" stroke="#00475B" stroke-width="1.5" stroke-linecap="square" points="179.486,20.007 177.521,20.358 
		175.553,21.769 174.768,23.181 173.98,23.886 172.801,24.237 171.227,24.237 169.652,24.613 168.475,27.433 162.62,27.433 	"/>
	<polyline fill="none" stroke="#00475B" stroke-width="1.5" stroke-linecap="square" points="179.486,20.007 182.154,17.886 
		184.82,14.712 184.82,17.886 184.82,21.06 187.486,24.236 190.154,27.412 195.486,27.412 198.154,24.236 200.82,27.412 
		206.154,27.412 208.823,27.412 	"/>
	<polyline fill="none" stroke="#00475B" stroke-width="1.5" stroke-linecap="square" points="268.809,27.433 255.953,27.433 
		255.707,26.588 255.421,25.854 254.068,24.642 253.29,24.237 251.896,25.187 251.036,22.652 250.218,22.212 249.521,19.126 
		248.702,16.959 248.251,16.371 247.718,15.748 247.596,15.014 247.188,14.461 246.285,14.205 245.752,14.867 245.302,16.261 
		243.663,18.576 243.295,19.126 242.516,19.385 242.023,21.001 241.45,23.315 240.958,23.939 239.895,24.05 239.32,24.599 
		239.238,25.591 238.05,27.539 234.076,27.539 233.829,27.245 232.479,22.727 232.068,22.323 231.578,22.065 231.168,22.359 
		230.635,22.58 229.775,22.359 229.324,21.955 228.628,22.249 227.768,23.058 227.438,24.013 226.292,24.967 225.473,24.967 
		224.613,23.058 223.834,22.837 223.59,21.845 223.221,21.551 222.809,19.934 222.154,19.385 219.486,21.06 219.486,24.236 
		219.486,27.412 208.82,27.412 	"/>
	<polyline fill="none" stroke="#00475B" stroke-width="1.5" stroke-linecap="square" points="100.475,22.837 100.721,21.845 
		101.089,21.551 101.5,19.934 102.156,19.385 104.823,21.06 104.823,24.236 104.823,27.412 115.488,27.412 	"/>
	<polyline fill="none" stroke="#00ED95" stroke-width="1.5" stroke-linecap="square" points="162.62,27.433 162.375,26.588 
		162.089,25.854 160.734,24.642 159.957,24.237 158.563,25.187 157.703,22.652 156.884,22.212 156.188,19.126 155.368,16.959 
		154.917,16.371 154.385,15.748 154.262,15.014 153.853,14.461 152.952,14.205 152.418,14.867 151.968,16.261 150.33,18.576 
		149.961,19.126 149.183,19.385 148.69,21.001 148.117,23.315 147.626,23.939 146.562,24.05 145.986,24.599 145.904,25.591 
		144.717,27.539 141.812,27.539 	"/>
</g>
<g id="rootnote">
	<path fill="none" stroke="#FFFFFF" stroke-width="1.5" d="M35.358,28.597h-10l9-12c0.628-0.835,1-1.875,1-3c0-2.76-2.239-5-5-5
		c-2.762,0-5.001,2.24-5.001,5"/>
	<path fill="none" stroke="#FFFFFF" stroke-width="1.5" stroke-linecap="square" d="M19.358,23.597c0,2.762-2.238,5-5,5
		c-2.761,0-5-2.239-5-5v-9.999c0-2.761,2.239-5.001,5-5.001c2.762,0,5,2.24,5,5.001"/>
</g>
<g id="magnified">
	<path fill="none" stroke="#00475B" stroke-width="1.5" stroke-linecap="square" d="M219.566,63.374
		c0.842,0,1.522,1.019,1.522,2.264v5.257c0,1.246,0.524,2.265,1.183,2.265c0.646,0,1.176-1.02,1.176-2.265V55.652
		c0-1.245,0.74-2.263,1.646-2.263c0.904,0,1.646,1.018,1.646,2.263v2.661c0,1.246,0.798,2.266,1.769,2.266
		c0.974,0,1.769,1.018,1.769,2.263v44.014c0,1.246,0.525,2.266,1.183,2.266c0.646,0,1.176-1.02,1.176-2.266V102.8
		c0-1.25,0.688-2.266,1.522-2.266c0.846,0,1.527,1.016,1.527,2.266v6.654c0,1.245,0.736,2.266,1.646,2.266
		c0.899,0,1.646,1.015,1.646,2.265v0.865c0,1.248,0.637,2.265,1.405,2.265c0.771,0,1.411-1.017,1.411-2.265v-1.062
		c0-1.248,0.896-2.265,1.999-2.265c1.104,0,1.999,1.017,1.999,2.265v8.854c0,1.248,0.732,2.267,1.646,2.267
		c0.896,0,1.646-1.019,1.646-2.267v-1.662c0-1.246,0.688-2.265,1.522-2.265c0.848,0,1.523,1.019,1.523,2.265v7.256
		c0,1.246,0.635,2.267,1.411,2.267c0.771,0,1.411-0.899,1.411-1.999c0-1.102,1.059-1.999,2.352-1.999
		c1.299,0,2.354,1.021,2.354,2.265v2.264c0,1.244,1.193,3.162,2.664,3.162h2.896c1.467,0,2.666-1.659,2.666-2.598
		s0.688-1.697,1.528-1.697c0.84,0,1.526,0.812,1.526,1.801c0,0.984,1.195,2.494,2.666,2.494h1.252c1.467,0,2.668-1.551,2.668-2.598
		c0-1.046,0.637-1.895,1.408-1.895s1.41,0.404,1.41,0.898c0,0.493,0.896,0.901,1.996,0.901c1.104,0,2-1.021,2-2.267v-0.063
		c0-1.246,0.736-2.264,1.646-2.264c0.897,0,1.646,0.899,1.646,2c0,1.098,0.64,1.999,1.411,1.999s1.41,0.404,1.41,0.898
		c0,0.493,1.197,0.899,2.666,0.899h0.076c1.467,0,2.666,1.167,2.666,1.495c0,0.335,1.194,0,2.668,0h8.715"/>
	<path fill="none" stroke="#00475B" stroke-width="1.5" stroke-linecap="square" d="M16.853,134.18h19.899
		c1.467,0,2.667-0.984,2.667-2.23v-27.176c0-1.242,0.601-2.264,1.333-2.264s1.333,1.021,1.333,2.264v11.324
		c0,1.244,1.2,2.268,2.667,2.268c1.468,0,2.666-1.021,2.666-2.268V86.658c0-1.248,1.201-2.27,2.667-2.27
		c1.468,0,2.666,1.021,2.666,2.27v13.587"/>
	<path fill="none" stroke="#00AB6B" stroke-width="1.5" stroke-linecap="square" d="M52.753,100.245c0,1.247,1.2,2.265,2.667,2.265
		c1.468,0,2.667-1.018,2.667-2.265V82.121c0-1.247,0.602-2.266,1.333-2.266c0.732,0,1.333-1.021,1.333-2.264v-2.266
		c0-1.245,0.898-2.263,2-2.263c1.101,0,2,1.018,2,2.263v8.556c0,1.246,0.677,2.271,1.501,2.271c0.826,0,1.5-1.022,1.5-2.271V70.233
		c0-1.246,0.583-2.265,1.293-2.265c0.712,0,1.294,1.019,1.294,2.265v25.238c0,1.248,0.688,2.27,1.528,2.27
		c0.84,0,1.528-1.021,1.528-2.27V62.044c0-1.245,0.529-2.264,1.177-2.264c0.648,0,1.176-1.021,1.176-2.265v-6.056
		c0-1.246,0.582-2.266,1.293-2.266c0.712,0,1.293,1.02,1.293,2.266v10.05c0,1.245,0.637,2.266,1.411,2.266
		c0.775,0,1.411-0.675,1.411-1.499c0-0.824,0.583-1.499,1.293-1.499c0.712,0,1.293,1.02,1.293,2.266v20.239
		c0,1.248,0.583,2.269,1.293,2.269c0.712,0,1.293-1.021,1.293-2.269v-9.455c0-1.246,0.794-2.264,1.765-2.264
		c0.971,0,1.764,1.019,1.764,2.264v26.239c0,1.242,0.637,2.263,1.411,2.263c0.775,0,1.411-0.585,1.411-1.296
		c0-0.717,0.741-1.299,1.646-1.299c0.905,0,1.646,1.02,1.646,2.264v1.663c0,1.243,0.812,2.265,1.801,2.265
		c0.991,0,1.802,1.02,1.802,2.264v10.648c0,1.247,0.564,2.266,1.257,2.266c0.691,0,1.257-1.019,1.257-2.266v-1.262
		c0-1.245,0.741-2.264,1.646-2.264c0.906,0,1.646,1.019,1.646,2.264v1.663c0,1.245,0.637,2.265,1.411,2.265
		c0.775,0,1.411-1.02,1.411-2.265v-7.257c0-1.243,0.583-2.263,1.293-2.263c0.712,0,1.293,1.02,1.293,2.263v0.811
		c0,1.246,0.635,2.266,1.411,2.266c0.775,0,1.41-0.707,1.41-1.567c0-0.866,0.529-1.573,1.177-1.573c0.646,0,1.176,1.018,1.176,2.27
		v5.854c0,1.245,0.529,2.266,1.177,2.266c0.646,0,1.176-0.719,1.176-1.599c0-0.879,0.582-1.601,1.293-1.601
		c0.711,0,1.293,1.021,1.293,2.268v5.656c0,1.242,0.582,2.267,1.293,2.267c0.712,0,1.295,0.938,1.295,2.097
		c0,1.151,0.794,2.099,1.764,2.099c0.971,0,1.765-0.541,1.765-1.197c0-0.657,0.582-1.198,1.294-1.198
		c0.711,0,1.293,0.541,1.293,1.198c0,0.656,1.059,1.197,2.353,1.197s2.353-0.313,2.353-0.698s0.582-0.691,1.293-0.691
		s1.293,0.357,1.293,0.799c0,0.44,1.2,0.797,2.666,0.797h0.547c1.467,0,2.667-0.584,2.667-1.301c0-0.713,0.582-1.295,1.293-1.295
		c0.711,0,1.293,0.496,1.293,1.102s0.952,1.1,2.117,1.1c1.164,0,2.117-1.018,2.117-2.265v-5.256c0-1.246,0.635-2.267,1.41-2.267
		c0.775,0,1.411,1.021,1.411,2.267v1.467c0,1.246,0.74,2.269,1.646,2.269c0.906,0,1.646-1.021,1.646-2.269v-7.745
		c0-1.248,0.688-2.266,1.528-2.266c0.84,0,1.529,0.785,1.529,1.746c0,0.959,0.794,1.742,1.765,1.742c0.97,0,1.764-1.019,1.764-2.267
		V115.6c0-1.248,0.638-2.264,1.411-2.264s1.411,0.898,1.411,2c0,1.098,0.635,2,1.41,2c0.771,0,1.409-0.762,1.409-1.699
		c0-0.936,0.688-1.697,1.521-1.697c0.851,0,1.529,0.447,1.529,1.006c0,0.551,0.731,0.996,1.646,0.996
		c0.898,0,1.646-1.018,1.646-2.266v-1.066c0-1.248,0.688-2.266,1.521-2.266c0.844,0,1.524,0.898,1.524,1.998
		c0,1.098,0.739,2,1.646,2c0.904,0,1.646-1.018,1.646-2.268v-2.857c0-1.246,0.58-2.261,1.293-2.261c0.715,0,1.295,1.015,1.295,2.261
		v0.662c0,1.244,0.738,2.266,1.646,2.266c0.896,0,1.646-1.021,1.646-2.266V92.012c0-1.244,0.638-2.264,1.41-2.264
		s1.409,1.02,1.409,2.264v3.86c0,1.244,0.796,2.263,1.768,2.263c0.971,0,1.766-1.019,1.766-2.263v-1.465
		c0-1.244,0.854-2.263,1.89-2.263c1.026,0,1.881,1.019,1.881,2.263v1.063c0,1.244,0.741,2.266,1.646,2.266
		c0.9,0,1.646-1.021,1.646-2.266V78.42c0-1.245,0.688-2.263,1.521-2.263c0.847,0,1.525,1.017,1.525,2.263v7.062
		c0,1.248,0.581,2.269,1.293,2.269c0.714,0,1.295-1.024,1.295-2.269v-0.465c0-1.252,0.739-2.271,1.646-2.271
		c0.9,0,1.646,1.02,1.646,2.271v1.465c0,1.246,0.64,2.266,1.41,2.266s1.407-1.02,1.407-2.266V78.02c0-1.245,0.738-2.262,1.646-2.262
		c0.902,0,1.646,1.018,1.646,2.262v18.052c0,1.242,0.688,2.265,1.522,2.265c0.84,0,1.526-1.021,1.526-2.265V65.638
		c0-1.245,0.688-2.264,1.522-2.264"/>
</g>
<g id="loopin">
	<path fill="#00AB6B" d="M19.101,133.57c0,1.254-1.015,2.269-2.267,2.269c-1.253,0-2.268-1.015-2.268-2.269
		c0-1.252,1.015-2.269,2.268-2.269C18.085,131.305,19.101,132.318,19.101,133.57"/>
	
		<ellipse id="loopinring" fill="none" stroke="#00AB6B" stroke-width="1.5" stroke-linecap="square" cx="16.833" cy="133.57" rx="5.669" ry="5.669"/>
</g>
<g id="loopout">
	<path fill="#FFFFFF" d="M19.111,133.557c0,1.254-1.014,2.27-2.266,2.27c-1.255,0-2.27-1.016-2.27-2.27
		c0-1.252,1.015-2.267,2.27-2.267C18.096,131.292,19.111,132.305,19.111,133.557"/>
	<ellipse id="loopoutring" fill="none" stroke="#FFFFFF" stroke-width="1.5" cx="16.844" cy="133.56" rx="5.669" ry="5.669"/>
</g>
<g id="pm">
	<g id="loop">
		<path fill="none" stroke="#FF3A5D" stroke-width="1.5" d="M297.811,13.483h5.909c3.872,0,7.021,3.138,7.021,7.013
			c0,3.871-3.146,7.009-7.021,7.009h-19.995c-3.875,0-7.018-3.138-7.018-7.009c0-3.875,3.143-7.015,7.018-7.015h2.104"/>
		<polygon fill="#FF3A5D" points="298.318,17.497 291.371,13.483 298.318,9.473 		"/>
		<polygon fill="none" stroke="#FF3A5D" stroke-width="1.5" points="298.318,17.497 291.371,13.483 298.318,9.473 		"/>
	</g>
	<g id="gate">
		<polygon fill="#FF3A5D" points="301.548,16.209 308.932,20.474 301.548,24.738 		"/>
		<polygon fill="none" stroke="#FF3A5D" stroke-width="1.5" points="301.548,16.209 308.932,20.474 301.548,24.738 		"/>
		<line fill="none" x1="278.122" y1="20.472" x2="300.799" y2="20.472"/>
		<line fill="none" stroke="#FF3A5D" stroke-width="1.5" x1="278.122" y1="20.472" x2="300.799" y2="20.472"/>
	</g>
	<g id="oneshot">
		<polygon fill="#FF3A5D" points="295.415,16.247 302.799,20.513 295.415,24.776 		"/>
		<polygon fill="none" stroke="#FF3A5D" stroke-width="1.5" points="295.415,16.247 302.799,20.513 295.415,24.776 		"/>
		<line fill="none" stroke="#FF3A5D" stroke-width="1.5" x1="278.029" y1="20.512" x2="294.665" y2="20.512"/>
		<line fill="none" stroke="#FF3A5D" stroke-width="1.5" x1="308.839" y1="13.425" x2="308.839" y2="27.598"/>
	</g>
</g>
<g id="gain">
	<path fill="none" stroke="#FF3A5D" stroke-width="1.5" d="M297.623,13.531h5.909c3.873,0,7.021,3.138,7.021,7.013
		c0,3.871-3.146,7.009-7.021,7.009h-19.995c-3.875,0-7.018-3.138-7.018-7.009c0-3.875,3.143-7.015,7.018-7.015h2.104"/>
	<polygon fill="#FF3A5D" points="298.131,17.545 291.184,13.531 298.131,9.521 	"/>
	<polygon fill="none" stroke="#FF3A5D" stroke-width="1.5" points="298.131,17.545 291.184,13.531 298.131,9.521 	"/>
</g>
<g id="reverse">
	<path id="play_x5F_rev" fill="none" stroke="#698EFF" stroke-width="1.5" d="M83.732,26.089c0,1.054-0.742,1.483-1.652,0.955
		l-12.844-7.429c-0.908-0.525-0.908-1.389,0-1.913l12.844-7.417c0.91-0.524,1.652-0.093,1.652,0.955V26.089z"/>
	<path id="play_x5F_fwd" fill="none" stroke="#698EFF" stroke-width="1.5" d="M71.141,11.047c0-1.052,0.747-1.482,1.657-0.955
		l12.843,7.411c0.909,0.522,0.909,1.386,0,1.908l-12.843,7.416c-0.91,0.522-1.657,0.094-1.657-0.954V11.047z"/>
</g>
<g id="pm_x5F_rev">
	<g id="loop_x5F_rev">
		<path fill="none" stroke="#FF3A5D" stroke-width="1.5" d="M301.62,13.481h2.104c3.875,0,7.019,3.14,7.019,7.015
			c0,3.871-3.144,7.009-7.019,7.009h-19.995c-3.875,0-7.021-3.138-7.021-7.009c0-3.875,3.149-7.013,7.021-7.013h5.91"/>
		<polygon fill="#FF3A5D" points="289.131,9.473 296.078,13.483 289.131,17.497 		"/>
		<polygon fill="none" stroke="#FF3A5D" stroke-width="1.5" points="289.131,9.473 296.078,13.483 289.131,17.497 		"/>
	</g>
	<g id="gate_x5F_rev">
		<polygon fill="#FF3A5D" points="285.9,24.738 278.518,20.475 285.9,16.209 		"/>
		<polygon fill="none" stroke="#FF3A5D" stroke-width="1.5" points="285.9,24.738 278.518,20.475 285.9,16.209 		"/>
		<line fill="none" x1="286.65" y1="20.473" x2="309.327" y2="20.473"/>
		<line fill="none" stroke="#FF3A5D" stroke-width="1.5" x1="286.65" y1="20.473" x2="309.327" y2="20.473"/>
	</g>
	<g id="oneshot_x5F_rev">
		<polygon fill="#FF3A5D" points="292.034,24.775 284.65,20.514 292.034,16.247 		"/>
		<polygon fill="none" stroke="#FF3A5D" stroke-width="1.5" points="292.034,24.775 284.65,20.514 292.034,16.247 		"/>
		<line fill="none" stroke="#FF3A5D" stroke-width="1.5" x1="292.784" y1="20.512" x2="309.42" y2="20.512"/>
		<line fill="none" stroke="#FF3A5D" stroke-width="1.5" x1="278.609" y1="27.598" x2="278.609" y2="13.425"/>
	</g>
</g>
</svg>
