<?xml version="1.0" encoding="utf-8"?>
<!-- Generator: Adobe Illustrator 14.0.0, SVG Export Plug-In . SVG Version: 6.00 Build 43363)  -->
<!DOCTYPE svg PUBLIC "-//W3C//DTD SVG 1.1//EN" "http://www.w3.org/Graphics/SVG/1.1/DTD/svg11.dtd">
<svg version="1.1" id="Layer_1" xmlns="http://www.w3.org/2000/svg" xmlns:xlink="http://www.w3.org/1999/xlink" x="0px" y="0px"
	 width="320px" height="160px" viewBox="0 0 320 160" enable-background="new 0 0 320 160" xml:space="preserve">
<g id="static">
	<polyline id="m_66_" fill="none" stroke="#638BFF" stroke-width="1.5" stroke-linecap="square" points="52.393,88.357 
		52.393,78.947 52.893,78.947 55.493,84.652 55.993,84.652 58.592,78.947 59.092,78.947 59.092,88.357 	"/>
	
		<line id="line163" fill="none" stroke="#DED7FF" stroke-width="1.5" stroke-linecap="square" x1="55.692" y1="134.507" x2="55.692" y2="140.713"/>
	<g id="g357">
		<g id="a_100_">
			<polyline id="polyline360" fill="none" stroke="#514959" stroke-width="1.5" stroke-linecap="square" points="139.381,14.379 
				139.381,14.179 140.88,8.974 141.081,8.974 142.581,14.179 142.581,14.379 			"/>
			
				<line id="line362" fill="none" stroke="#514959" stroke-width="1.5" stroke-linecap="square" x1="139.881" y1="12.877" x2="142.08" y2="12.877"/>
		</g>
		<path id="d_94_" fill="none" stroke="#514959" stroke-width="1.5" stroke-linecap="square" d="M127.083,14.379
			c0.7,0,1.3-0.601,1.3-1.301v-2.703c0-0.701-0.6-1.301-1.3-1.301h-1.3v5.306L127.083,14.379L127.083,14.379z"/>
		<g id="y_20_">
			<polyline id="polyline366" fill="none" stroke="#514959" stroke-width="1.5" stroke-linecap="square" points="143.68,8.974 
				143.68,9.273 144.979,11.977 146.28,9.273 146.28,8.974 			"/>
			
				<line id="line368" fill="none" stroke="#514959" stroke-width="1.5" stroke-linecap="square" x1="144.979" y1="11.977" x2="144.979" y2="14.379"/>
		</g>
		<g id="c_55_">
			<path id="path371" fill="none" stroke="#514959" stroke-width="1.5" stroke-linecap="square" d="M137.681,12.978
				c0,0.701-0.6,1.301-1.299,1.301c-0.7,0-1.3-0.6-1.3-1.301v-2.703c0-0.701,0.6-1.301,1.3-1.301c0.699,0,1.299,0.601,1.299,1.301"
				/>
		</g>
		<g id="e_186_">
			<polyline id="polyline374" fill="none" stroke="#514959" stroke-width="1.5" stroke-linecap="square" points="132.981,14.379 
				130.582,14.379 130.582,8.974 132.981,8.974 			"/>
			
				<line id="line376" fill="none" stroke="#514959" stroke-width="1.5" stroke-linecap="square" x1="130.582" y1="11.676" x2="132.682" y2="11.676"/>
		</g>
	</g>
	<path id="path279" fill="none" stroke="#DED7FF" stroke-width="1.5" stroke-linecap="square" d="M152.579,18.884"/>
	<g id="g14">
		<polyline id="m_67_" fill="none" stroke="#DED7FF" stroke-width="1.5" stroke-linecap="square" points="203.973,13.478 
			203.973,7.171 204.271,7.171 205.671,10.975 205.971,10.975 207.371,7.171 207.671,7.171 207.671,13.478 		"/>
		<path id="d_93_" fill="none" stroke="#DED7FF" stroke-width="1.5" stroke-linecap="square" d="M216.27,13.478
			c0.899,0,1.604-0.7,1.604-1.602V8.773c0-0.902-0.7-1.603-1.604-1.603h-1.6v6.307L216.27,13.478L216.27,13.478z"/>
		<g id="e_185_">
			<polyline id="polyline19" fill="none" stroke="#DED7FF" stroke-width="1.5" stroke-linecap="square" points="222.368,13.478 
				219.469,13.478 219.469,7.171 222.368,7.171 			"/>
			
				<line id="line21" fill="none" stroke="#DED7FF" stroke-width="1.5" stroke-linecap="square" x1="219.469" y1="10.275" x2="222.068" y2="10.275"/>
		</g>
		<path id="o_127_" fill="none" stroke="#DED7FF" stroke-width="1.5" stroke-linecap="square" d="M209.771,8.873v2.803
			c0,1.001,0.799,1.702,1.699,1.702c1,0,1.694-0.801,1.694-1.702l0,0l0,0V8.873c0-1.001-0.8-1.702-1.694-1.702
			C210.57,7.171,209.771,7.972,209.771,8.873L209.771,8.873L209.771,8.873L209.771,8.873z"/>
	</g>
	<g id="g447">
		<g id="a_2_">
			<polyline id="polyline450" fill="none" stroke="#514959" stroke-width="1.5" stroke-linecap="square" points="139.381,86.756 
				139.381,86.655 140.88,81.45 141.081,81.45 142.581,86.655 142.581,86.756 			"/>
			
				<line id="line452" fill="none" stroke="#514959" stroke-width="1.5" stroke-linecap="square" x1="139.881" y1="85.354" x2="142.08" y2="85.354"/>
		</g>
		<path id="d_1_" fill="none" stroke="#514959" stroke-width="1.5" stroke-linecap="square" d="M127.083,86.756
			c0.7,0,1.3-0.601,1.3-1.302v-2.702c0-0.701-0.6-1.302-1.3-1.302h-1.3v5.307L127.083,86.756L127.083,86.756z"/>
		<g id="y_1_">
			<polyline id="polyline456" fill="none" stroke="#514959" stroke-width="1.5" stroke-linecap="square" points="143.68,81.45 
				143.68,81.75 144.979,84.354 146.28,81.75 146.28,81.45 			"/>
			
				<line id="line458" fill="none" stroke="#514959" stroke-width="1.5" stroke-linecap="square" x1="144.979" y1="84.354" x2="144.979" y2="86.756"/>
		</g>
		<g id="c_1_">
			<path id="path461" fill="none" stroke="#514959" stroke-width="1.5" stroke-linecap="square" d="M137.681,85.454
				c0,0.701-0.6,1.302-1.299,1.302c-0.7,0-1.3-0.601-1.3-1.302v-2.703c0-0.7,0.6-1.301,1.3-1.301c0.699,0,1.299,0.601,1.299,1.301"
				/>
		</g>
		<g id="e_1_">
			<polyline id="polyline464" fill="none" stroke="#514959" stroke-width="1.5" stroke-linecap="square" points="132.981,86.756 
				130.582,86.756 130.582,81.45 132.981,81.45 			"/>
			
				<line id="line466" fill="none" stroke="#514959" stroke-width="1.5" stroke-linecap="square" x1="130.582" y1="84.152" x2="132.682" y2="84.152"/>
		</g>
	</g>
	<g id="g38">
		
			<line id="i_31_" fill="none" stroke="#DED7FF" stroke-width="1.5" stroke-linecap="square" x1="292.958" y1="7.171" x2="292.958" y2="13.478"/>
		<g id="t_126_">
			
				<line id="line42" fill="none" stroke="#DED7FF" stroke-width="1.5" stroke-linecap="square" x1="297.957" y1="7.171" x2="301.857" y2="7.171"/>
			
				<line id="line44" fill="none" stroke="#DED7FF" stroke-width="1.5" stroke-linecap="square" x1="300.058" y1="7.171" x2="300.058" y2="13.478"/>
		</g>
		<path id="r_86_" fill="none" stroke="#DED7FF" stroke-width="1.5" stroke-linecap="square" d="M308.556,13.478V7.171h1.306
			c0.896,0,1.601,0.701,1.601,1.603l0,0c0,0.9-0.7,1.601-1.601,1.601h-0.899l2.199,3.004v0.2"/>
		<g id="e_184_">
			<polyline id="polyline48" fill="none" stroke="#DED7FF" stroke-width="1.5" stroke-linecap="square" points="306.556,13.478 
				303.757,13.478 303.757,7.171 306.556,7.171 			"/>
			
				<line id="line50" fill="none" stroke="#DED7FF" stroke-width="1.5" stroke-linecap="square" x1="303.757" y1="10.375" x2="306.257" y2="10.375"/>
		</g>
		<g id="f_39_">
			<polyline id="polyline53" fill="none" stroke="#DED7FF" stroke-width="1.5" stroke-linecap="square" points="288.059,13.478 
				288.059,7.171 291.259,7.171 			"/>
			
				<line id="line55" fill="none" stroke="#DED7FF" stroke-width="1.5" stroke-linecap="square" x1="288.059" y1="10.375" x2="290.857" y2="10.375"/>
		</g>
		<polyline id="l_65_" fill="none" stroke="#DED7FF" stroke-width="1.5" stroke-linecap="square" points="295.059,7.171 
			295.059,13.478 297.857,13.478 		"/>
	</g>
	<g id="g130">
		
			<line id="line132" fill="none" stroke="#DED7FF" stroke-width="1.5" stroke-linecap="square" x1="34.696" y1="92.462" x2="34.696" y2="96.866"/>
		
			<line id="line134" fill="none" stroke="#514959" stroke-width="1.5" stroke-linecap="square" x1="27.897" y1="93.663" x2="29.397" y2="97.768"/>
		
			<line id="line136" fill="none" stroke="#514959" stroke-width="1.5" stroke-linecap="square" x1="21.797" y1="97.166" x2="24.697" y2="100.47"/>
		
			<line id="line138" fill="none" stroke="#514959" stroke-width="1.5" stroke-linecap="square" x1="17.398" y1="102.473" x2="21.198" y2="104.675"/>
		
			<line id="line140" fill="none" stroke="#514959" stroke-width="1.5" stroke-linecap="square" x1="14.999" y1="109.079" x2="19.298" y2="109.78"/>
		
			<line id="line142" fill="none" stroke="#514959" stroke-width="1.5" stroke-linecap="square" x1="14.999" y1="115.986" x2="19.298" y2="115.286"/>
		
			<line id="line144" fill="none" stroke="#514959" stroke-width="1.5" stroke-linecap="square" x1="17.398" y1="122.594" x2="21.198" y2="120.393"/>
		
			<line id="line146" fill="none" stroke="#DED7FF" stroke-width="1.5" stroke-linecap="square" x1="21.797" y1="127.898" x2="24.697" y2="124.596"/>
		
			<line id="line148" fill="none" stroke="#DED7FF" stroke-width="1.5" stroke-linecap="square" x1="47.594" y1="127.898" x2="44.794" y2="124.596"/>
		
			<line id="line150" fill="none" stroke="#514959" stroke-width="1.5" stroke-linecap="square" x1="52.093" y1="122.594" x2="48.294" y2="120.393"/>
		
			<line id="line152" fill="none" stroke="#514959" stroke-width="1.5" stroke-linecap="square" x1="54.493" y1="115.986" x2="50.193" y2="115.286"/>
		
			<line id="line154" fill="none" stroke="#514959" stroke-width="1.5" stroke-linecap="square" x1="54.493" y1="109.079" x2="50.193" y2="109.78"/>
		
			<line id="line156" fill="none" stroke="#514959" stroke-width="1.5" stroke-linecap="square" x1="52.093" y1="102.473" x2="48.294" y2="104.675"/>
		
			<line id="line158" fill="none" stroke="#514959" stroke-width="1.5" stroke-linecap="square" x1="47.594" y1="97.166" x2="44.794" y2="100.47"/>
		
			<line id="line160" fill="none" stroke="#514959" stroke-width="1.5" stroke-linecap="square" x1="41.595" y1="93.663" x2="40.095" y2="97.768"/>
	</g>
	<path id="path283" fill="none" stroke="#514959" stroke-width="1.5" stroke-linecap="square" d="M152.579,91.261"/>
	<g id="g476">
		
			<line id="line478" fill="none" stroke="#DED7FF" stroke-width="1.5" stroke-linecap="square" x1="88.488" y1="86.155" x2="93.687" y2="86.155"/>
		
			<line id="line480" fill="none" stroke="#514959" stroke-width="1.5" stroke-linecap="square" x1="88.587" y1="91.361" x2="93.687" y2="91.361"/>
		
			<line id="line482" fill="none" stroke="#514959" stroke-width="1.5" stroke-linecap="square" x1="88.587" y1="96.466" x2="93.687" y2="96.466"/>
		
			<line id="line484" fill="none" stroke="#514959" stroke-width="1.5" stroke-linecap="square" x1="88.587" y1="101.672" x2="93.687" y2="101.672"/>
		
			<line id="line486" fill="none" stroke="#514959" stroke-width="1.5" stroke-linecap="square" x1="88.587" y1="106.777" x2="93.687" y2="106.777"/>
		
			<line id="line488" fill="none" stroke="#DED7FF" stroke-width="1.5" stroke-linecap="square" x1="88.587" y1="111.982" x2="93.687" y2="111.982"/>
		
			<line id="line490" fill="none" stroke="#514959" stroke-width="1.5" stroke-linecap="square" x1="88.587" y1="117.088" x2="93.687" y2="117.088"/>
		
			<line id="line492" fill="none" stroke="#514959" stroke-width="1.5" stroke-linecap="square" x1="88.587" y1="122.193" x2="93.687" y2="122.193"/>
		
			<line id="line494" fill="none" stroke="#514959" stroke-width="1.5" stroke-linecap="square" x1="88.587" y1="127.398" x2="93.687" y2="127.398"/>
		
			<line id="line496" fill="none" stroke="#514959" stroke-width="1.5" stroke-linecap="square" x1="88.587" y1="132.504" x2="93.687" y2="132.504"/>
		
			<line id="line498" fill="none" stroke="#DED7FF" stroke-width="1.5" stroke-linecap="square" x1="88.488" y1="137.71" x2="93.687" y2="137.71"/>
		
			<line id="line500" fill="none" stroke="#DED7FF" stroke-width="1.5" stroke-linecap="square" x1="101.886" y1="86.155" x2="107.085" y2="86.155"/>
		
			<line id="line502" fill="none" stroke="#514959" stroke-width="1.5" stroke-linecap="square" x1="101.886" y1="91.361" x2="106.986" y2="91.361"/>
		
			<line id="line504" fill="none" stroke="#514959" stroke-width="1.5" stroke-linecap="square" x1="101.886" y1="96.466" x2="106.986" y2="96.466"/>
		
			<line id="line506" fill="none" stroke="#514959" stroke-width="1.5" stroke-linecap="square" x1="101.886" y1="101.672" x2="106.986" y2="101.672"/>
		
			<line id="line508" fill="none" stroke="#514959" stroke-width="1.5" stroke-linecap="square" x1="101.886" y1="106.777" x2="106.986" y2="106.777"/>
		
			<line id="line510" fill="none" stroke="#DED7FF" stroke-width="1.5" stroke-linecap="square" x1="101.886" y1="111.982" x2="106.986" y2="111.982"/>
		
			<line id="line512" fill="none" stroke="#514959" stroke-width="1.5" stroke-linecap="square" x1="101.886" y1="117.088" x2="106.986" y2="117.088"/>
		
			<line id="line514" fill="none" stroke="#514959" stroke-width="1.5" stroke-linecap="square" x1="101.886" y1="122.193" x2="106.986" y2="122.193"/>
		
			<line id="line516" fill="none" stroke="#514959" stroke-width="1.5" stroke-linecap="square" x1="101.886" y1="127.398" x2="106.986" y2="127.398"/>
		
			<line id="line518" fill="none" stroke="#514959" stroke-width="1.5" stroke-linecap="square" x1="101.886" y1="132.504" x2="106.986" y2="132.504"/>
		
			<line id="line520" fill="none" stroke="#DED7FF" stroke-width="1.5" stroke-linecap="square" x1="101.886" y1="137.71" x2="107.085" y2="137.71"/>
		
			<line id="line522" fill="none" stroke="#3854A5" stroke-width="1.5" stroke-linecap="square" x1="97.687" y1="86.155" x2="97.687" y2="138.211"/>
	</g>
	<g id="g530">
		
			<line id="line532" fill="none" stroke="#DED7FF" stroke-width="1.5" stroke-linecap="square" x1="88.488" y1="14.779" x2="93.687" y2="14.779"/>
		
			<line id="line534" fill="none" stroke="#514959" stroke-width="1.5" stroke-linecap="square" x1="88.587" y1="19.885" x2="93.687" y2="19.885"/>
		
			<line id="line536" fill="none" stroke="#514959" stroke-width="1.5" stroke-linecap="square" x1="88.587" y1="25.091" x2="93.687" y2="25.091"/>
		
			<line id="line538" fill="none" stroke="#514959" stroke-width="1.5" stroke-linecap="square" x1="88.587" y1="30.196" x2="93.687" y2="30.196"/>
		
			<line id="line540" fill="none" stroke="#514959" stroke-width="1.5" stroke-linecap="square" x1="88.587" y1="35.401" x2="93.687" y2="35.401"/>
		
			<line id="line542" fill="none" stroke="#DED7FF" stroke-width="1.5" stroke-linecap="square" x1="88.587" y1="40.507" x2="93.687" y2="40.507"/>
		
			<line id="line544" fill="none" stroke="#514959" stroke-width="1.5" stroke-linecap="square" x1="88.587" y1="45.712" x2="93.687" y2="45.712"/>
		
			<line id="line546" fill="none" stroke="#514959" stroke-width="1.5" stroke-linecap="square" x1="88.587" y1="50.818" x2="93.687" y2="50.818"/>
		
			<line id="line548" fill="none" stroke="#514959" stroke-width="1.5" stroke-linecap="square" x1="88.587" y1="55.923" x2="93.687" y2="55.923"/>
		
			<line id="line550" fill="none" stroke="#514959" stroke-width="1.5" stroke-linecap="square" x1="88.587" y1="61.129" x2="93.687" y2="61.129"/>
		
			<line id="line552" fill="none" stroke="#DED7FF" stroke-width="1.5" stroke-linecap="square" x1="88.488" y1="66.234" x2="93.687" y2="66.234"/>
		
			<line id="line554" fill="none" stroke="#DED7FF" stroke-width="1.5" stroke-linecap="square" x1="101.886" y1="14.779" x2="107.085" y2="14.779"/>
		
			<line id="line556" fill="none" stroke="#514959" stroke-width="1.5" stroke-linecap="square" x1="101.886" y1="19.885" x2="106.986" y2="19.885"/>
		
			<line id="line558" fill="none" stroke="#514959" stroke-width="1.5" stroke-linecap="square" x1="101.886" y1="25.091" x2="106.986" y2="25.091"/>
		
			<line id="line560" fill="none" stroke="#514959" stroke-width="1.5" stroke-linecap="square" x1="101.886" y1="30.196" x2="106.986" y2="30.196"/>
		
			<line id="line562" fill="none" stroke="#514959" stroke-width="1.5" stroke-linecap="square" x1="101.886" y1="35.401" x2="106.986" y2="35.401"/>
		
			<line id="line564" fill="none" stroke="#DED7FF" stroke-width="1.5" stroke-linecap="square" x1="101.886" y1="40.507" x2="106.986" y2="40.507"/>
		
			<line id="line566" fill="none" stroke="#514959" stroke-width="1.5" stroke-linecap="square" x1="101.886" y1="45.712" x2="106.986" y2="45.712"/>
		
			<line id="line568" fill="none" stroke="#514959" stroke-width="1.5" stroke-linecap="square" x1="101.886" y1="50.818" x2="106.986" y2="50.818"/>
		
			<line id="line570" fill="none" stroke="#514959" stroke-width="1.5" stroke-linecap="square" x1="101.886" y1="55.923" x2="106.986" y2="55.923"/>
		
			<line id="line572" fill="none" stroke="#514959" stroke-width="1.5" stroke-linecap="square" x1="101.886" y1="61.129" x2="106.986" y2="61.129"/>
		
			<line id="line574" fill="none" stroke="#DED7FF" stroke-width="1.5" stroke-linecap="square" x1="101.886" y1="66.234" x2="107.085" y2="66.234"/>
		
			<line id="line576" fill="none" stroke="#3854A5" stroke-width="1.5" stroke-linecap="square" x1="97.687" y1="14.779" x2="97.687" y2="66.735"/>
	</g>
	<g id="w2_1_">
		<g id="g383">
			<path id="path385" fill="none" stroke="#514959" stroke-width="2.0465" stroke-linecap="square" d="M8.899,82.15
				c0-1.701,1.4-3.203,3.2-3.203h2.399c1.7,0,3.1,1.4,3.1,3.104c0,1.402-0.8,2.504-2.2,3.004l-6.499,2.803v0.5h8.898"/>
		</g>
		<g id="g387">
			<g id="g_1_">
				<path id="path390" fill="none" stroke="#514959" stroke-width="1.5" stroke-linecap="square" d="M177.375,85.454
					c0,0.701-0.6,1.302-1.3,1.302s-1.3-0.601-1.3-1.302v-2.703c0-0.7,0.6-1.301,1.3-1.301s1.3,0.601,1.3,1.301"/>
				<polyline id="polyline392" fill="none" stroke="#514959" stroke-width="1.5" stroke-linecap="square" points="176.775,84.652 
					177.375,84.652 177.375,86.756 				"/>
			</g>
			<polyline id="n_1_" fill="none" stroke="#514959" stroke-width="1.5" stroke-linecap="square" points="169.977,86.756 
				169.977,81.45 170.275,81.45 172.376,86.756 172.576,86.756 172.576,81.45 			"/>
			<path id="o_2_" fill="none" stroke="#514959" stroke-width="1.5" stroke-linecap="square" d="M164.877,82.951v2.402
				c0,0.802,0.7,1.502,1.5,1.502c0.799,0,1.499-0.7,1.499-1.502l0,0l0,0v-2.402c0-0.801-0.7-1.501-1.499-1.501
				C165.577,81.45,164.877,82.051,164.877,82.951L164.877,82.951L164.877,82.951L164.877,82.951z"/>
			<polyline id="l_1_" fill="none" stroke="#514959" stroke-width="1.5" stroke-linecap="square" points="160.678,81.45 
				160.678,86.756 163.077,86.756 			"/>
		</g>
		<g id="g397">
			<path id="s_1_" fill="none" stroke="#514959" stroke-width="1.5" stroke-linecap="square" d="M126.083,138.911
				c0,0.7,0.6,1.301,1.299,1.301c0.7,0,1.3-0.601,1.3-1.301c0-0.302-0.2-0.7-0.6-0.901c-0.3-0.199-1.2-0.601-1.6-0.801
				c-0.4-0.3-0.5-0.602-0.5-0.9c0-0.701,0.6-1.302,1.3-1.302c0.699,0,1.3,0.601,1.3,1.302"/>
			<g id="t_1_">
				
					<line id="line401" fill="none" stroke="#514959" stroke-width="1.5" stroke-linecap="square" x1="144.479" y1="134.907" x2="147.879" y2="134.907"/>
				
					<line id="line403" fill="none" stroke="#514959" stroke-width="1.5" stroke-linecap="square" x1="146.28" y1="134.907" x2="146.28" y2="140.213"/>
			</g>
			<path id="r_1_" fill="none" stroke="#514959" stroke-width="1.5" stroke-linecap="square" d="M140.38,140.213v-5.306h1.1
				c0.7,0,1.3,0.601,1.3,1.301l0,0c0,0.701-0.6,1.301-1.3,1.301h-0.8l1.9,2.503v0.104"/>
			<g id="h_1_">
				
					<line id="line407" fill="none" stroke="#514959" stroke-width="1.5" stroke-linecap="square" x1="130.682" y1="134.907" x2="130.682" y2="140.213"/>
				
					<line id="line409" fill="none" stroke="#514959" stroke-width="1.5" stroke-linecap="square" x1="133.381" y1="134.907" x2="133.381" y2="140.213"/>
				
					<line id="line411" fill="none" stroke="#514959" stroke-width="1.5" stroke-linecap="square" x1="130.682" y1="137.609" x2="133.381" y2="137.609"/>
			</g>
			<path id="o_1_" fill="none" stroke="#514959" stroke-width="1.5" stroke-linecap="square" d="M135.381,136.408v2.402
				c0,0.801,0.7,1.502,1.5,1.502c0.8,0,1.5-0.701,1.5-1.502l0,0l0,0v-2.402c0-0.801-0.7-1.501-1.5-1.501
				C135.981,134.907,135.381,135.607,135.381,136.408L135.381,136.408L135.381,136.408L135.381,136.408z"/>
		</g>
		<g id="g414">
			<g id="a_3_">
				<polyline id="polyline417" fill="none" stroke="#514959" stroke-width="1.5" stroke-linecap="square" points="156.878,140.213 
					156.878,140.111 158.378,134.907 158.578,134.907 160.078,140.111 160.078,140.213 				"/>
				
					<line id="line419" fill="none" stroke="#514959" stroke-width="1.5" stroke-linecap="square" x1="157.378" y1="138.811" x2="159.578" y2="138.811"/>
			</g>
			<g id="a_1_">
				<polyline id="polyline422" fill="none" stroke="#514959" stroke-width="1.5" stroke-linecap="square" points="168.877,140.213 
					168.877,140.111 170.376,134.907 170.576,134.907 172.076,140.111 172.076,140.213 				"/>
				
					<line id="line424" fill="none" stroke="#514959" stroke-width="1.5" stroke-linecap="square" x1="169.376" y1="138.811" x2="171.576" y2="138.811"/>
			</g>
			<g id="t_3_">
				
					<line id="line427" fill="none" stroke="#514959" stroke-width="1.5" stroke-linecap="square" x1="160.878" y1="134.907" x2="164.177" y2="134.907"/>
				
					<line id="line429" fill="none" stroke="#514959" stroke-width="1.5" stroke-linecap="square" x1="162.577" y1="134.907" x2="162.577" y2="140.213"/>
			</g>
			<g id="t_2_">
				
					<line id="line432" fill="none" stroke="#514959" stroke-width="1.5" stroke-linecap="square" x1="164.775" y1="134.907" x2="168.076" y2="134.907"/>
				
					<line id="line434" fill="none" stroke="#514959" stroke-width="1.5" stroke-linecap="square" x1="166.477" y1="134.907" x2="166.477" y2="140.213"/>
			</g>
			<g id="c_2_">
				<path id="path437" fill="none" stroke="#514959" stroke-width="1.5" stroke-linecap="square" d="M176.375,138.911
					c0,0.7-0.6,1.301-1.3,1.301c-0.699,0-1.3-0.601-1.3-1.301v-2.703c0-0.7,0.601-1.301,1.3-1.301c0.7,0,1.3,0.601,1.3,1.301"/>
			</g>
			<g id="k_1_">
				
					<line id="line440" fill="none" stroke="#514959" stroke-width="1.5" stroke-linecap="square" x1="178.375" y1="134.907" x2="178.375" y2="140.213"/>
				<polyline id="polyline442" fill="none" stroke="#514959" stroke-width="1.5" stroke-linecap="square" points="180.975,134.907 
					180.975,135.107 178.375,138.311 				"/>
				<polyline id="polyline444" fill="none" stroke="#514959" stroke-width="1.5" stroke-linecap="square" points="179.175,137.51 
					181.273,140.111 181.273,140.213 				"/>
			</g>
		</g>
	</g>
	<g id="g596">
		<path id="path598" fill="none" stroke="#3854A5" stroke-width="1.5" stroke-linecap="square" d="M186.975,141.814
			c0,1.602-1.3,2.803-2.8,2.803H7.3c-1.6,0-2.8-1.301-2.8-2.803V77.947c0-1.604,1.3-2.803,2.8-2.803h176.773
			c1.601,0,2.8,1.301,2.8,2.803L186.975,141.814L186.975,141.814z"/>
		
			<line id="line600" fill="none" stroke="#3854A5" stroke-width="1.5" stroke-linecap="square" x1="119.083" y1="77.846" x2="119.083" y2="141.613"/>
		
			<line id="line602" fill="none" stroke="#3854A5" stroke-width="1.5" stroke-linecap="square" x1="65.791" y1="77.846" x2="65.791" y2="141.613"/>
	</g>
	<g id="g588">
		<path id="path590" fill="none" stroke="#3854A5" stroke-width="1.5" stroke-linecap="square" d="M186.975,69.538
			c0,1.602-1.3,2.803-2.8,2.803H7.3c-1.6,0-2.8-1.301-2.8-2.803V5.77c0-1.602,1.3-2.803,2.8-2.803h176.773
			c1.601,0,2.8,1.301,2.8,2.803L186.975,69.538L186.975,69.538z"/>
		
			<line id="line592" fill="none" stroke="#3854A5" stroke-width="1.5" stroke-linecap="square" x1="119.083" y1="5.67" x2="119.083" y2="69.337"/>
		
			<line id="line594" fill="none" stroke="#3854A5" stroke-width="1.5" stroke-linecap="square" x1="65.791" y1="5.67" x2="65.791" y2="69.337"/>
	</g>
	<g id="g174">
		
			<line id="line179" fill="none" stroke="#DED7FF" stroke-width="1.5" stroke-linecap="square" x1="220.469" y1="87.957" x2="227.668" y2="83.854"/>
		
			<line id="line181" fill="none" stroke="#38354D" stroke-width="1.5" stroke-linecap="square" x1="217.471" y1="81.852" x2="225.168" y2="78.947"/>
		
			<line id="line183" fill="none" stroke="#38354D" stroke-width="1.5" stroke-linecap="square" x1="215.471" y1="75.244" x2="223.668" y2="73.742"/>
		
			<line id="line185" fill="none" stroke="#38354D" stroke-width="1.5" stroke-linecap="square" x1="214.77" y1="68.437" x2="222.969" y2="68.437"/>
		<g id="g187">
			
				<line id="line189" fill="none" stroke="#38354D" stroke-width="1.5" stroke-linecap="square" x1="228.968" y1="90.66" x2="227.768" y2="91.761"/>
			
				<line id="line191" fill="none" stroke="#3854A5" stroke-width="1.5" stroke-linecap="square" x1="232.367" y1="95.766" x2="233.367" y2="94.464"/>
			
				<line id="line193" fill="none" stroke="#38354D" stroke-width="1.5" stroke-linecap="square" x1="233.367" y1="94.464" x2="232.367" y2="95.766"/>
			
				<line id="line195" fill="none" stroke="#38354D" stroke-width="1.5" stroke-linecap="square" x1="236.666" y1="98.869" x2="237.366" y2="97.467"/>
			
				<line id="line197" fill="none" stroke="#DED7FF" stroke-width="1.5" stroke-linecap="square" x1="242.466" y1="102.072" x2="242.865" y2="100.47"/>
		</g>
		
			<line id="line199" fill="none" stroke="#DED7FF" stroke-width="1.5" stroke-linecap="square" x1="215.17" y1="61.529" x2="223.27" y2="63.03"/>
		
			<line id="line201" fill="none" stroke="#38354D" stroke-width="1.5" stroke-linecap="square" x1="216.77" y1="54.922" x2="224.568" y2="57.725"/>
		
			<line id="line203" fill="none" stroke="#38354D" stroke-width="1.5" stroke-linecap="square" x1="219.469" y1="48.615" x2="226.667" y2="52.72"/>
		
			<line id="line205" fill="none" stroke="#38354D" stroke-width="1.5" stroke-linecap="square" x1="223.27" y1="42.909" x2="229.667" y2="48.215"/>
		
			<line id="line207" fill="none" stroke="#DED7FF" stroke-width="1.5" stroke-linecap="square" x1="228.066" y1="37.904" x2="233.367" y2="44.21"/>
		
			<line id="line209" fill="none" stroke="#38354D" stroke-width="1.5" stroke-linecap="square" x1="233.566" y1="33.799" x2="237.666" y2="41.007"/>
		
			<line id="line211" fill="none" stroke="#38354D" stroke-width="1.5" stroke-linecap="square" x1="239.666" y1="30.796" x2="242.564" y2="38.504"/>
		
			<line id="line213" fill="none" stroke="#38354D" stroke-width="1.5" stroke-linecap="square" x1="246.266" y1="28.794" x2="247.665" y2="37.003"/>
		
			<line id="line215" fill="none" stroke="#DED7FF" stroke-width="1.5" stroke-linecap="square" x1="253.064" y1="28.093" x2="253.064" y2="36.303"/>
		
			<line id="line217" fill="none" stroke="#38354D" stroke-width="1.5" stroke-linecap="square" x1="259.963" y1="28.494" x2="258.463" y2="36.602"/>
		
			<line id="line219" fill="none" stroke="#38354D" stroke-width="1.5" stroke-linecap="square" x1="266.562" y1="30.096" x2="263.764" y2="37.904"/>
		
			<line id="line221" fill="none" stroke="#38354D" stroke-width="1.5" stroke-linecap="square" x1="272.861" y1="32.799" x2="268.762" y2="40.006"/>
		
			<line id="line223" fill="none" stroke="#DED7FF" stroke-width="1.5" stroke-linecap="square" x1="278.561" y1="36.602" x2="273.262" y2="43.009"/>
		
			<line id="line225" fill="none" stroke="#38354D" stroke-width="1.5" stroke-linecap="square" x1="283.561" y1="41.407" x2="277.261" y2="46.714"/>
		
			<line id="line227" fill="none" stroke="#38354D" stroke-width="1.5" stroke-linecap="square" x1="287.659" y1="46.914" x2="280.46" y2="51.018"/>
		
			<line id="line229" fill="none" stroke="#38354D" stroke-width="1.5" stroke-linecap="square" x1="290.658" y1="53.021" x2="282.96" y2="55.923"/>
		
			<line id="line231" fill="none" stroke="#DED7FF" stroke-width="1.5" stroke-linecap="square" x1="292.658" y1="59.627" x2="284.46" y2="61.028"/>
		
			<line id="line233" fill="none" stroke="#38354D" stroke-width="1.5" stroke-linecap="square" x1="293.357" y1="66.435" x2="285.159" y2="66.435"/>
		
			<line id="line235" fill="none" stroke="#38354D" stroke-width="1.5" stroke-linecap="square" x1="292.958" y1="73.341" x2="284.859" y2="71.84"/>
		
			<line id="line237" fill="none" stroke="#38354D" stroke-width="1.5" stroke-linecap="square" x1="291.357" y1="79.948" x2="283.561" y2="77.146"/>
		
			<line id="line239" fill="none" stroke="#DED7FF" stroke-width="1.5" stroke-linecap="square" x1="288.559" y1="86.256" x2="281.46" y2="82.15"/>
		<path id="o_122_" fill="none" stroke="#DED7FF" stroke-width="1.5" stroke-linecap="square" d="M252.264,101.872v2.803
			c0,1.001,0.801,1.702,1.7,1.702c1,0,1.7-0.801,1.7-1.702l0,0l0,0v-2.803c0-1.001-0.801-1.702-1.7-1.702
			S252.264,100.871,252.264,101.872L252.264,101.872L252.264,101.872L252.264,101.872z"/>
		<path id="path244" fill="none" stroke="#FF395A" stroke-width="1.5" stroke-linecap="square" d="M307.656,99.568
			c0,1.002-0.8,1.803-1.799,1.803h-9.299c-1,0-1.806-0.801-1.806-1.803v-9.01c0-1,0.806-1.807,1.806-1.807h9.299
			c0.999,0,1.799,0.807,1.799,1.807V99.568z"/>
		<path id="path246" fill="none" stroke="#FF395A" stroke-width="1.5" stroke-linecap="square" d="M208.57,65.533
			c0,1.001-0.801,1.802-1.801,1.802h-9.297c-1,0-1.806-0.801-1.806-1.802v-9.009c0-1.001,0.806-1.801,1.806-1.801h9.297
			c1,0,1.801,0.801,1.801,1.801V65.533z"/>
		<path id="path248" fill="none" stroke="#FF395A" stroke-width="1.5" stroke-linecap="square" d="M311.056,65.533
			c0,1.001-0.799,1.802-1.8,1.802h-9.299c-0.999,0-1.8-0.801-1.8-1.802v-9.009c0-1.001,0.801-1.801,1.8-1.801h9.299
			c1,0,1.8,0.801,1.8,1.801V65.533L311.056,65.533z"/>
		<path id="path250" fill="none" stroke="#FF395A" stroke-width="1.5" stroke-linecap="square" d="M222.068,36.903
			c0,1.001-0.799,1.802-1.799,1.802h-9.299c-1,0-1.806-0.801-1.806-1.802v-9.01c0-1.001,0.806-1.802,1.806-1.802h9.299
			c1,0,1.799,0.801,1.799,1.802V36.903z"/>
		<path id="path252" fill="none" stroke="#FF395A" stroke-width="1.5" stroke-linecap="square" d="M297.059,36.903
			c0,1.001-0.801,1.802-1.801,1.802h-9.299c-1,0-1.799-0.801-1.799-1.802v-9.01c0-1.001,0.799-1.802,1.799-1.802h9.299
			c1,0,1.801,0.801,1.801,1.802V36.903L297.059,36.903z"/>
		<path id="path254" fill="none" stroke="#FF395A" stroke-width="1.5" stroke-linecap="square" d="M259.463,21.687
			c0,1.001-0.8,1.802-1.799,1.802h-9.299c-1,0-1.801-0.801-1.801-1.802v-9.009c0-1.001,0.801-1.802,1.801-1.802h9.299
			c0.999,0,1.799,0.801,1.799,1.802V21.687z"/>
		<polyline id="polyline256" fill="none" stroke="#FF395A" stroke-width="1.5" stroke-linecap="square" points="208.57,98.168 
			208.57,91.961 208.271,91.961 205.471,92.861 		"/>
		<path id="path258" fill="none" stroke="#FF395A" stroke-width="1.5" stroke-linecap="square" d="M212.971,34.1
			c0,0.902,0.699,1.602,1.6,1.602h2.604c0.896,0,1.604-0.7,1.604-1.602c0-0.901-0.7-1.701-1.604-1.701h-1.194v-0.2l2.801-2.703v-0.3
			h-5.801"/>
		<polyline id="polyline260" fill="none" stroke="#FF395A" stroke-width="1.5" stroke-linecap="square" points="256.164,18.483 
			249.864,18.483 249.864,17.482 254.964,14.079 255.562,14.079 255.562,20.385 		"/>
		<g id="g262">
			<path id="path264" fill="none" stroke="#FF395A" stroke-width="1.5" stroke-linecap="square" d="M301.957,62.03v-2.502
				c0-0.901,0.7-1.602,1.6-1.602h3.699"/>
			<path id="path266" fill="none" stroke="#FF395A" stroke-width="1.5" stroke-linecap="square" d="M303.557,61.129
				c-0.896,0-1.6,0.701-1.6,1.602s0.7,1.602,1.6,1.602h2.604c0.896,0,1.6-0.701,1.6-1.602s-0.7-1.602-1.6-1.602H303.557z"/>
		</g>
		<polyline id="polyline268" fill="none" stroke="#FF395A" stroke-width="1.5" stroke-linecap="square" points="298.457,92.062 
			304.156,92.062 304.156,92.662 298.958,98.168 298.958,98.268 		"/>
		<path id="path270" fill="none" stroke="#FF395A" stroke-width="1.5" stroke-linecap="square" d="M199.473,59.427
			c0-0.901,0.699-1.602,1.604-1.602h2.3c0.896,0,1.604,0.7,1.604,1.602c0,0.4,0,0.601-0.5,1.101l-4.998,3.003v0.501h5.498"/>
		<g id="g272">
			<path id="path274" fill="none" stroke="#FF395A" stroke-width="1.5" stroke-linecap="square" d="M287.959,35.501h3.8
				c0.9,0,1.601-0.701,1.601-1.602l0,0c0-0.901-0.694-1.501-1.601-1.501h-2.198"/>
			<path id="path276" fill="none" stroke="#FF395A" stroke-width="1.5" stroke-linecap="square" d="M293.357,29.195h-5.398v3.204"/>
		</g>
	</g>
	<path id="o_123_" fill="none" stroke="#DED7FF" stroke-width="1.5" stroke-linecap="square" d="M11.5,136.208v2.803
		c0,1.001,0.8,1.702,1.7,1.702c0.899,0,1.699-0.801,1.699-1.702l0,0l0,0v-2.803c0-1.001-0.8-1.701-1.699-1.701
		C12.299,134.507,11.5,135.207,11.5,136.208L11.5,136.208L11.5,136.208L11.5,136.208z"/>
	
		<ellipse id="w2ring" fill="none" stroke="#514959" stroke-width="1.5" stroke-linecap="square" cx="152.479" cy="112.383" rx="11" ry="11.012"/>
</g>
<circle id="r1_1_" fill="#522132" stroke="#522132" stroke-linecap="square" cx="197.372" cy="10.275" r="1.401"/>
<circle id="o10_1_" fill="#514959" stroke="#514A5A" cx="130.782" cy="45.011" r="1.401"/>
<circle id="o11_1_" fill="#514959" stroke="#514A5A" cx="130.782" cy="39.005" r="1.401"/>
<circle id="o12_1_" fill="#514959" stroke="#514A5A" cx="130.782" cy="32.999" r="1.402"/>
<circle id="o13_1_" fill="#514959" stroke="#514A5A" cx="130.782" cy="26.993" r="1.401"/>
<circle id="o20_1_" fill="#514959" stroke="#514A5A" cx="130.782" cy="117.388" r="1.402"/>
<circle id="o21_1_" fill="#514959" stroke="#514A5A" cx="130.782" cy="111.382" r="1.401"/>
<circle id="o22_1_" fill="#514959" stroke="#514A5A" cx="130.782" cy="105.375" r="1.4"/>
<circle id="o23_1_" fill="#514959" stroke="#514A5A" cx="130.782" cy="99.369" r="1.402"/>
<circle id="r2_1_" fill="#522132" stroke="#522132" stroke-linecap="square" cx="281.26" cy="10.375" r="1.401"/>
<polyline id="o1w1" fill="none" stroke="#514959" stroke-width="1.5" stroke-linecap="square" points="73.89,41.007 73.89,36.803 
	77.989,36.803 77.989,41.007 82.089,41.007 82.089,36.803 "/>
<g id="g126">
	
		<ellipse id="p2ring_1_" fill="none" stroke="#514959" stroke-width="1.5" stroke-linecap="square" cx="34.696" cy="112.383" rx="10.999" ry="11.012"/>
	
		<line id="p2line_1_" fill="none" stroke="#638BFF" stroke-width="1.5" stroke-linecap="square" x1="34.696" y1="103.573" x2="34.696" y2="110.182"/>
</g>
<ellipse id="modering" fill="none" stroke="#DED7FF" stroke-width="1.5" stroke-linecap="square" cx="253.664" cy="68.537" rx="27.596" ry="27.629"/>
<ellipse id="redring_1_" fill="none" stroke="#38354D" stroke-width="1.5" stroke-linecap="square" cx="253.664" cy="68.536" rx="13.798" ry="13.814"/>
<path id="path242" fill="none" stroke="#FF395A" stroke-width="1.5" stroke-linecap="square" d="M214.17,99.568
	c0,1.002-0.8,1.803-1.8,1.803h-9.3c-1,0-1.799-0.801-1.799-1.803v-9.01c0-1,0.799-1.807,1.799-1.807h9.3c1,0,1.8,0.807,1.8,1.807
	V99.568z"/>
<line id="funkline_1_" fill="none" stroke="#FF395A" stroke-width="1.5" stroke-linecap="square" x1="253.464" y1="43.911" x2="253.464" y2="51.819"/>
<line id="filtline" fill="none" stroke="#FF395A" stroke-width="1.5" stroke-linecap="square" x1="253.464" y1="56.924" x2="253.464" y2="64.833"/>
<polyline id="o2w1" fill="none" stroke="#00676C" stroke-width="1.5" stroke-linecap="square" points="73.89,113.384 73.89,109.279 
	77.989,109.279 77.989,113.384 82.089,113.384 82.089,109.279 "/>
<line id="w2line_1_" fill="none" stroke="#DED7FF" stroke-width="1.5" stroke-linecap="square" x1="152.479" y1="103.573" x2="152.479" y2="110.182"/>
<line id="w1line_1_" fill="none" stroke="#DED7FF" stroke-width="1.5" stroke-linecap="square" x1="152.479" y1="30.996" x2="152.479" y2="37.604"/>
<g id="w1_1_">
	
		<line id="line287" fill="none" stroke="#638BFF" stroke-width="1.5" stroke-linecap="square" x1="12.499" y1="8.573" x2="12.499" y2="17.983"/>
	<g id="g289">
		<g id="g_26_">
			<path id="path292" fill="none" stroke="#DED7FF" stroke-width="1.5" stroke-linecap="square" d="M177.375,12.978
				c0,0.701-0.6,1.301-1.3,1.301s-1.3-0.6-1.3-1.301v-2.703c0-0.701,0.6-1.301,1.3-1.301s1.3,0.601,1.3,1.301"/>
			<polyline id="polyline294" fill="none" stroke="#DED7FF" stroke-width="1.5" stroke-linecap="square" points="176.775,12.177 
				177.375,12.177 177.375,14.379 			"/>
		</g>
		<polyline id="n_89_" fill="none" stroke="#DED7FF" stroke-width="1.5" stroke-linecap="square" points="169.977,14.379 
			169.977,8.974 170.275,8.974 172.376,14.379 172.576,14.379 172.576,8.974 		"/>
		<path id="o_126_" fill="none" stroke="#DED7FF" stroke-width="1.5" stroke-linecap="square" d="M164.877,10.475v2.402
			c0,0.801,0.7,1.501,1.5,1.501c0.799,0,1.499-0.701,1.499-1.501l0,0l0,0v-2.402c0-0.801-0.7-1.502-1.499-1.502
			C165.577,8.974,164.877,9.674,164.877,10.475L164.877,10.475L164.877,10.475L164.877,10.475z"/>
		<polyline id="l_66_" fill="none" stroke="#DED7FF" stroke-width="1.5" stroke-linecap="square" points="160.678,8.974 
			160.678,14.379 163.077,14.379 		"/>
	</g>
	<g id="g299">
		<g id="a_101_">
			<polyline id="polyline302" fill="none" stroke="#DED7FF" stroke-width="1.5" stroke-linecap="square" points="156.878,67.836 
				156.878,67.636 158.378,62.43 158.578,62.43 160.078,67.636 160.078,67.836 			"/>
			
				<line id="line304" fill="none" stroke="#DED7FF" stroke-width="1.5" stroke-linecap="square" x1="157.378" y1="66.334" x2="159.578" y2="66.334"/>
		</g>
		<g id="a_99_">
			<polyline id="polyline307" fill="none" stroke="#DED7FF" stroke-width="1.5" stroke-linecap="square" points="168.877,67.836 
				168.877,67.636 170.376,62.43 170.576,62.43 172.076,67.636 172.076,67.836 			"/>
			
				<line id="line309" fill="none" stroke="#DED7FF" stroke-width="1.5" stroke-linecap="square" x1="169.376" y1="66.334" x2="171.576" y2="66.334"/>
		</g>
		<g id="t_129_">
			
				<line id="line312" fill="none" stroke="#DED7FF" stroke-width="1.5" stroke-linecap="square" x1="160.878" y1="62.43" x2="164.177" y2="62.43"/>
			
				<line id="line314" fill="none" stroke="#DED7FF" stroke-width="1.5" stroke-linecap="square" x1="162.577" y1="62.43" x2="162.577" y2="67.836"/>
		</g>
		<g id="t_128_">
			
				<line id="line317" fill="none" stroke="#DED7FF" stroke-width="1.5" stroke-linecap="square" x1="164.775" y1="62.43" x2="168.076" y2="62.43"/>
			
				<line id="line319" fill="none" stroke="#DED7FF" stroke-width="1.5" stroke-linecap="square" x1="166.477" y1="62.43" x2="166.477" y2="67.836"/>
		</g>
		<g id="c_56_">
			<path id="path322" fill="none" stroke="#DED7FF" stroke-width="1.5" stroke-linecap="square" d="M176.375,66.435
				c0,0.701-0.6,1.301-1.3,1.301c-0.699,0-1.3-0.6-1.3-1.301v-2.703c0-0.701,0.601-1.301,1.3-1.301c0.7,0,1.3,0.6,1.3,1.301"/>
		</g>
		<g id="k_16_">
			
				<line id="line325" fill="none" stroke="#DED7FF" stroke-width="1.5" stroke-linecap="square" x1="178.375" y1="62.43" x2="178.375" y2="67.836"/>
			<polyline id="polyline327" fill="none" stroke="#DED7FF" stroke-width="1.5" stroke-linecap="square" points="180.975,62.43 
				180.975,62.63 178.375,65.934 			"/>
			<polyline id="polyline329" fill="none" stroke="#DED7FF" stroke-width="1.5" stroke-linecap="square" points="179.175,65.033 
				181.273,67.636 181.273,67.836 			"/>
		</g>
	</g>
	<g id="g331">
		<path id="s_95_" fill="none" stroke="#DED7FF" stroke-width="1.5" stroke-linecap="square" d="M126.083,66.435
			c0,0.701,0.6,1.301,1.299,1.301c0.7,0,1.3-0.6,1.3-1.301c0-0.301-0.2-0.701-0.6-0.901c-0.3-0.2-1.2-0.6-1.6-0.801
			c-0.4-0.2-0.5-0.601-0.5-0.901c0-0.7,0.6-1.301,1.3-1.301c0.699,0,1.3,0.6,1.3,1.301"/>
		<g id="t_127_">
			
				<line id="line335" fill="none" stroke="#DED7FF" stroke-width="1.5" stroke-linecap="square" x1="144.479" y1="62.43" x2="147.879" y2="62.43"/>
			
				<line id="line337" fill="none" stroke="#DED7FF" stroke-width="1.5" stroke-linecap="square" x1="146.28" y1="62.43" x2="146.28" y2="67.836"/>
		</g>
		<path id="r_88_" fill="none" stroke="#DED7FF" stroke-width="1.5" stroke-linecap="square" d="M140.38,67.836v-5.305h1.1
			c0.7,0,1.3,0.6,1.3,1.301l0,0c0,0.701-0.6,1.302-1.3,1.302h-0.8l1.9,2.502v0.1"/>
		<g id="h_36_">
			
				<line id="line341" fill="none" stroke="#DED7FF" stroke-width="1.5" stroke-linecap="square" x1="130.682" y1="62.43" x2="130.682" y2="67.836"/>
			
				<line id="line343" fill="none" stroke="#DED7FF" stroke-width="1.5" stroke-linecap="square" x1="133.381" y1="62.43" x2="133.381" y2="67.836"/>
			
				<line id="line345" fill="none" stroke="#DED7FF" stroke-width="1.5" stroke-linecap="square" x1="130.682" y1="65.133" x2="133.381" y2="65.133"/>
		</g>
		<path id="o_125_" fill="none" stroke="#DED7FF" stroke-width="1.5" stroke-linecap="square" d="M135.381,63.932v2.403
			c0,0.801,0.7,1.501,1.5,1.501c0.8,0,1.5-0.701,1.5-1.501l0,0l0,0v-2.403c0-0.801-0.7-1.501-1.5-1.501
			C135.981,62.43,135.381,63.131,135.381,63.932L135.381,63.932L135.381,63.932L135.381,63.932z"/>
	</g>
	
		<ellipse id="w1ring" fill="none" stroke="#DED7FF" stroke-width="1.5" stroke-linecap="square" cx="152.479" cy="39.806" rx="10.998" ry="11.011"/>
</g>
<g id="g349">
	<polyline id="polyline351" fill="none" stroke="#514959" stroke-width="1.5" stroke-linecap="square" points="152.479,24.089 
		152.479,19.685 152.479,11.776 156.479,11.776 	"/>
	<polyline id="polyline353" fill="none" stroke="#514959" stroke-width="1.5" stroke-linecap="square" points="142.38,51.719 
		139.581,55.223 139.581,58.726 	"/>
	<polyline id="polyline355" fill="none" stroke="#514959" stroke-width="1.5" stroke-linecap="square" points="162.577,51.719 
		165.377,55.223 165.377,58.726 	"/>
</g>
<path id="path378" fill="none" stroke="#3854A5" stroke-width="1.5" stroke-linecap="square" d="M316.455,106.777
	c0,2.902-2.4,5.306-5.3,5.306H195.173c-2.899,0-5.3-2.403-5.3-5.306V7.972c0-2.903,2.398-5.305,5.3-5.305h115.982
	c2.896,0,5.3,2.402,5.3,5.305V106.777L316.455,106.777z"/>
<path id="path378_1_" fill="none" stroke="#3854A5" stroke-width="1.5" stroke-linecap="square" d="M316.455,139.111
	c0,2.902-2.4,5.306-5.3,5.306H195.173c-2.899,0-5.3-2.401-5.3-5.306v-19.221c0-2.902,2.398-5.312,5.3-5.312h115.982
	c2.896,0,5.3,2.397,5.3,5.312V139.111L316.455,139.111z"/>
<g id="g468">
	<polyline id="polyline470" fill="none" stroke="#514959" stroke-width="1.5" stroke-linecap="square" points="152.479,96.566 
		152.479,92.161 152.479,84.152 156.978,84.152 	"/>
	<polyline id="polyline472" fill="none" stroke="#514959" stroke-width="1.5" stroke-linecap="square" points="142.38,124.095 
		139.581,127.6 139.581,131.203 	"/>
	<polyline id="polyline474" fill="none" stroke="#514959" stroke-width="1.5" stroke-linecap="square" points="162.577,124.095 
		165.377,127.6 165.377,131.203 	"/>
</g>
<g id="g2_1_">
	
		<rect id="rect525" x="89.888" y="133.307" stroke="#010101" stroke-width="1.5" stroke-linecap="square" width="15.598" height="8.508"/>
	
		<rect id="g2ls" x="91.688" y="134.706" fill="#010101" stroke="#00676C" stroke-width="1.5" stroke-linecap="square" width="12.298" height="5.907"/>
	
		<line id="line528" fill="none" stroke="#00676C" stroke-width="1.5" stroke-linecap="square" x1="94.687" y1="137.71" x2="100.886" y2="137.71"/>
</g>
<g id="g1_1_">
	
		<rect id="rect579" x="89.888" y="60.729" fill="none" stroke="#010101" stroke-width="1.5" stroke-linecap="square" width="15.598" height="8.509"/>
	
		<rect id="g1ls" x="91.688" y="62.03" fill="#010101" stroke="#00EE92" stroke-width="1.5" stroke-linecap="square" width="12.298" height="5.906"/>
	
		<line id="line582" fill="none" stroke="#00EE92" stroke-width="1.5" stroke-linecap="square" x1="94.687" y1="65.033" x2="100.886" y2="65.033"/>
</g>
<path id="o1w0" fill="none" stroke="#514959" stroke-width="1.5" stroke-linecap="square" d="M81.789,65.733
	c0,1.102-0.899,2.103-2.1,2.103l0,0c-1.1,0-2.099-0.901-2.099-2.103l0,0c0-1.101-0.9-2.102-2.1-2.102l0,0
	c-1.1,0-2.1,0.901-2.1,2.102l0,0"/>
<polyline id="o1w2" fill="none" stroke="#00EE92" stroke-width="1.5" stroke-linecap="square" points="74.09,16.381 74.09,12.277 
	82.289,16.381 "/>
<path id="o2w0" fill="none" stroke="#514959" stroke-width="1.5" stroke-linecap="square" d="M81.789,137.71
	c0,1.101-0.899,2.103-2.1,2.103l0,0c-1.1,0-2.099-0.896-2.099-2.103l0,0c0-1.103-0.9-2.103-2.1-2.103l0,0
	c-1.1,0-2.1,0.896-2.1,2.103l0,0"/>
<polyline id="o2w2" fill="none" stroke="#00EE92" stroke-width="1.5" stroke-linecap="square" points="74.09,87.855 74.09,83.752 
	82.289,83.752 82.289,87.855 "/>
<polyline id="osc2env" fill="none" stroke="#638BFF" stroke-width="1.5" stroke-linecap="square" points="14.799,55.422 
	22.397,55.422 35.296,39.606 48.194,55.422 55.493,55.422 "/>
<line id="osc1env" fill="none" stroke="#514959" stroke-width="1.5" stroke-linecap="square" x1="14.799" y1="36.002" x2="55.493" y2="36.002"/>
</svg>
