<?xml version="1.0" encoding="utf-8"?>
<!-- Generator: Adobe Illustrator 14.0.0, SVG Export Plug-In . SVG Version: 6.00 Build 43363)  -->
<!DOCTYPE svg PUBLIC "-//W3C//DTD SVG 1.1//EN" "http://www.w3.org/Graphics/SVG/1.1/DTD/svg11.dtd">
<svg version="1.1" id="Layer_1" xmlns="http://www.w3.org/2000/svg" xmlns:xlink="http://www.w3.org/1999/xlink" x="0px" y="0px"
	 width="320px" height="160px" viewBox="0 0 320 160" enable-background="new 0 0 320 160" xml:space="preserve">
<g id="static">
	
		<line fill="none" stroke="#383572" stroke-width="1.5" stroke-linecap="square" x1="79.164" y1="76.713" x2="101.933" y2="76.713"/>
	<circle fill="#383572" cx="103.156" cy="76.712" r="2.591"/>
	<circle fill="#383572" cx="79.447" cy="76.712" r="2.591"/>
	
		<line fill="none" stroke="#383572" stroke-width="1.5" stroke-linecap="square" x1="217.193" y1="39.019" x2="237.833" y2="39.019"/>
	<circle fill="#383572" cx="239.055" cy="39.018" r="2.591"/>
	<circle fill="#383572" cx="217.477" cy="39.018" r="2.591"/>
	<polyline fill="none" stroke="#383572" stroke-width="1.5" stroke-linecap="square" points="130.752,39.13 102.929,39.13 
		102.929,112.831 130.752,112.831 	"/>
	<polyline fill="none" stroke="#383572" stroke-width="1.5" stroke-linecap="square" points="192.039,112.829 217.361,112.829 
		217.361,39.128 192.039,39.128 	"/>
	<polygon fill="none" stroke="#00ED95" stroke-width="1.5" stroke-linecap="square" points="133.587,7.948 187.128,38.861 
		133.587,69.773 	"/>
	<path id="s_76_" fill="none" stroke="#383572" stroke-width="1.5" stroke-linecap="square" d="M37.947,122.689
		c0,1.174,0.951,2.125,2.125,2.125c1.174,0,2.126-0.951,2.126-2.125c0-0.479-0.325-1.131-0.913-1.492
		c-0.513-0.314-1.969-0.926-2.476-1.25c-0.625-0.398-0.863-1.03-0.863-1.51c0-1.174,0.951-2.127,2.126-2.127
		c1.174,0,2.126,0.953,2.126,2.127"/>
	<path id="p_58_" fill="none" stroke="#383572" stroke-width="1.5" stroke-linecap="square" d="M44.609,124.814v-8.504h1.703
		c1.174,0,2.126,0.953,2.126,2.127l0,0c0,1.174-0.952,2.125-2.126,2.125h-1.703"/>
	<path id="d_61_" fill="none" stroke="#383572" stroke-width="1.5" stroke-linecap="square" d="M64.848,124.814
		c1.174,0,2.126-0.951,2.126-2.125v-4.252c0-1.174-0.952-2.127-2.126-2.127h-2.126v8.504H64.848L64.848,124.814z"/>
	<g id="e_153_">
		<polyline fill="none" stroke="#383572" stroke-width="1.5" stroke-linecap="square" points="54.346,124.814 50.519,124.814 
			50.519,116.312 54.346,116.312 		"/>
		
			<line fill="none" stroke="#383572" stroke-width="1.5" stroke-linecap="square" x1="50.519" y1="120.562" x2="53.922" y2="120.562"/>
	</g>
	<g id="e_152_">
		<polyline fill="none" stroke="#383572" stroke-width="1.5" stroke-linecap="square" points="60.471,124.814 56.644,124.814 
			56.644,116.312 60.471,116.312 		"/>
		
			<line fill="none" stroke="#383572" stroke-width="1.5" stroke-linecap="square" x1="56.644" y1="120.562" x2="60.046" y2="120.562"/>
	</g>
	<path id="p_61_" fill="none" stroke="#383572" stroke-width="1.5" stroke-linecap="square" d="M147.614,80.234v-8.502h1.702
		c1.174,0,2.126,0.952,2.126,2.126l0,0c0,1.174-0.952,2.126-2.126,2.126h-1.702"/>
	<path id="s_79_" fill="none" stroke="#383572" stroke-width="1.5" stroke-linecap="square" d="M169.714,78.109
		c0,1.174,0.951,2.127,2.126,2.127c1.176,0,2.126-0.953,2.126-2.127c0-0.479-0.323-1.129-0.911-1.493
		c-0.514-0.314-1.97-0.926-2.478-1.25c-0.624-0.399-0.863-1.031-0.863-1.51c0-1.174,0.951-2.126,2.126-2.126
		c1.178,0,2.126,0.952,2.126,2.126"/>
	<g id="t_109_">
		
			<line fill="none" stroke="#383572" stroke-width="1.5" stroke-linecap="square" x1="175.543" y1="71.732" x2="180.857" y2="71.732"/>
		
			<line fill="none" stroke="#383572" stroke-width="1.5" stroke-linecap="square" x1="178.307" y1="71.732" x2="178.307" y2="80.236"/>
	</g>
	<path id="d_64_" fill="none" stroke="#383572" stroke-width="1.5" stroke-linecap="square" d="M158.739,80.234
		c1.174,0,2.126-0.951,2.126-2.125v-4.251c0-1.174-0.952-2.126-2.126-2.126h-2.126v8.502H158.739L158.739,80.234z"/>
	<g id="e_159_">
		<polyline fill="none" stroke="#383572" stroke-width="1.5" stroke-linecap="square" points="167.518,80.234 163.691,80.234 
			163.691,71.732 167.518,71.732 		"/>
		
			<line fill="none" stroke="#383572" stroke-width="1.5" stroke-linecap="square" x1="163.691" y1="75.984" x2="167.094" y2="75.984"/>
	</g>
	
		<line fill="none" stroke="#383572" stroke-width="1.5" stroke-linecap="square" x1="152.806" y1="79.631" x2="152.806" y2="80.197"/>
	<g id="e_154_">
		<polyline fill="none" stroke="#383572" stroke-width="1.5" stroke-linecap="square" points="261.141,79.624 257.314,79.624 
			257.314,71.12 261.141,71.12 		"/>
		
			<line fill="none" stroke="#383572" stroke-width="1.5" stroke-linecap="square" x1="257.314" y1="75.372" x2="260.717" y2="75.372"/>
	</g>
	<polyline id="n_80_" fill="none" stroke="#383572" stroke-width="1.5" stroke-linecap="square" points="263.175,79.624 
		263.175,71.12 263.6,71.12 267.001,79.624 267.427,79.624 267.427,71.12 	"/>
	<polyline id="v_14_" fill="none" stroke="#383572" stroke-width="1.5" stroke-linecap="square" points="269.825,71.12 
		269.825,71.333 272.376,79.624 272.802,79.624 275.352,71.333 275.352,71.12 	"/>
	
		<line fill="none" stroke="#383572" stroke-width="1.5" stroke-linecap="square" x1="217.193" y1="112.824" x2="237.833" y2="112.824"/>
	<circle fill="#383572" cx="239.055" cy="112.823" r="2.591"/>
	<circle fill="#383572" cx="217.477" cy="112.823" r="2.591"/>
	<g id="_x3C_path_x3E_">
		<polygon fill="none" stroke="#DFD9FF" stroke-width="1.5" stroke-linecap="square" points="194.561,89.539 194.561,103.712 
			188.869,100.186 188.869,93.484 		"/>
		
			<rect x="183.137" y="93.484" fill="none" stroke="#DFD9FF" stroke-width="1.5" stroke-linecap="square" width="5.73" height="6.701"/>
	</g>
	<polygon fill="none" stroke="#DFD9FF" stroke-width="1.5" stroke-linecap="square" points="133.587,82.188 187.128,113.1 
		133.587,144.012 	"/>
</g>
<line id="env_1_" fill="none" stroke="#FF3A5D" stroke-width="1.5" stroke-linecap="square" stroke-linejoin="bevel" x1="249.607" y1="54.494" x2="284.588" y2="22.157"/>
<circle id="envstart" fill="#FF3A5D" cx="249.607" cy="22.157" r="3.377"/>
<circle id="envend" fill="#FF3A5D" cx="284.588" cy="22.156" r="3.377"/>
<rect id="redanim" x="238.811" y="12.519" fill="none" stroke="#383572" stroke-width="1.5" stroke-linecap="square" width="56.032" height="53"/>
<g id="negwhite">
	<g id="negw">
		<path fill="none" stroke="#DFD9FF" stroke-width="1.5" stroke-linecap="square" d="M144.139,106.027h6.805v0.682l-3.402,6.122
			c1.879,0,3.402,1.522,3.402,3.401s-1.523,3.396-3.402,3.396c-1.88,0-3.402-1.521-3.402-3.396"/>
		<polyline fill="none" stroke="#DFD9FF" stroke-width="1.5" stroke-linecap="square" points="161.682,115.553 153.517,115.553 
			153.517,114.87 158.959,106.027 159.64,106.027 159.64,119.635 		"/>
	</g>
</g>
<g id="white_1_">
	<g id="w">
		<path fill="none" stroke="#DFD9FF" stroke-width="1.5" stroke-linecap="square" d="M141.948,104.736h8.504v0.851l-4.253,7.651
			c2.349,0,4.253,1.904,4.253,4.252c0,2.352-1.904,4.254-4.253,4.254c-2.35,0-4.252-1.902-4.252-4.254"/>
		<polyline fill="none" stroke="#DFD9FF" stroke-width="1.5" stroke-linecap="square" points="163.874,116.643 153.669,116.643 
			153.669,115.791 160.472,104.736 161.323,104.736 161.323,121.744 		"/>
	</g>
</g>
<g id="neggreen">
	<g id="negg">
		<path fill="none" stroke="#00ED95" stroke-width="1.2857" stroke-linecap="square" d="M144.139,32.263h6.803v0.681l-3.401,6.123
			c1.879,0,3.401,1.523,3.401,3.401c0,1.88-1.522,3.4-3.401,3.4s-3.402-1.521-3.402-3.4"/>
		<polyline fill="none" stroke="#00ED95" stroke-width="1.2857" stroke-linecap="square" points="161.682,41.787 153.518,41.787 
			153.518,41.105 158.961,32.263 159.64,32.263 159.64,45.869 		"/>
	</g>
</g>
<g id="green">
	<g id="g">
		<path fill="none" stroke="#00ED95" stroke-width="1.2857" stroke-linecap="square" d="M141.948,30.562h8.504v0.851l-4.253,7.653
			c2.349,0,4.253,1.904,4.253,4.252c0,2.35-1.904,4.252-4.253,4.252c-2.35,0-4.252-1.903-4.252-4.252"/>
		<polyline fill="none" stroke="#00ED95" stroke-width="1.2857" stroke-linecap="square" points="163.874,42.467 153.669,42.467 
			153.669,41.616 160.472,30.562 161.323,30.562 161.323,47.569 		"/>
	</g>
</g>
<g id="speedb">
	<circle id="bluebase" fill="#698EFF" cx="52.865" cy="76.85" r="3.377"/>
	<path fill="none" stroke="#383572" stroke-width="1.5" stroke-linecap="square" d="M54.191,97.688c0,0.731-0.596,1.324-1.327,1.324
		c-0.731,0-1.324-0.593-1.324-1.324V95.04c0-0.729,0.593-1.325,1.324-1.325c0.731,0,1.327,0.596,1.327,1.325V97.688z"/>
	<line fill="none" stroke="#383572" stroke-width="1.5" stroke-linecap="square" x1="75.048" y1="76.85" x2="69.725" y2="76.85"/>
	<line fill="none" stroke="#383572" stroke-width="1.5" stroke-linecap="square" x1="52.865" y1="54.667" x2="52.865" y2="59.989"/>
	<line fill="none" stroke="#383572" stroke-width="1.5" stroke-linecap="square" x1="30.682" y1="76.85" x2="36.006" y2="76.85"/>
	<line fill="none" stroke="#383572" stroke-width="1.5" stroke-linecap="square" x1="68.551" y1="61.163" x2="64.786" y2="64.926"/>
	<line fill="none" stroke="#383572" stroke-width="1.5" stroke-linecap="square" x1="37.18" y1="92.535" x2="40.944" y2="88.771"/>
	<line fill="none" stroke="#383572" stroke-width="1.5" stroke-linecap="square" x1="37.18" y1="61.163" x2="40.944" y2="64.928"/>
	<line fill="none" stroke="#383572" stroke-width="1.5" stroke-linecap="square" x1="68.551" y1="92.535" x2="64.786" y2="88.771"/>
	
		<line id="blue_1_" fill="none" stroke="#698EFF" stroke-width="1.5" stroke-linecap="square" stroke-linejoin="bevel" x1="52.865" y1="76.85" x2="52.833" y2="97.834"/>
</g>
<rect id="blueanim" x="26.365" y="50.352" fill="none" stroke="#383572" stroke-width="1.5" stroke-linecap="square" width="52.998" height="53.001"/>
<g id="vib">
	<circle fill="#00ED95" stroke="#00ED95" stroke-width="2" cx="193.422" cy="26.288" r="2.552"/>
	<line fill="none" stroke="#00ED95" stroke-width="2" x1="195.973" y1="26.288" x2="195.973" y2="11.831"/>
</g>
<path id="trem2" fill="none" stroke="#DFD9FF" stroke-width="1.5" stroke-linecap="square" d="M203.331,90.895
	c1.078,1.646,1.705,3.615,1.705,5.73c0,2.322-0.757,4.471-2.037,6.208"/>
<path id="trem1" fill="none" stroke="#DFD9FF" stroke-width="1.5" stroke-linecap="square" d="M200.648,92.137
	c0.865,1.28,1.371,2.825,1.371,4.488c0,1.816-0.604,3.492-1.621,4.838"/>
<path id="trem0" fill="none" stroke="#DFD9FF" stroke-width="1.5" stroke-linecap="square" d="M198.016,93.529
	c0.604,0.884,0.943,1.947,0.943,3.096c0,1.146-0.352,2.212-0.943,3.096"/>
<line id="speeda" fill="none" stroke="#698EFF" stroke-width="1.5" stroke-linecap="square" stroke-linejoin="bevel" x1="52.764" y1="68.498" x2="52.764" y2="85.505"/>
<rect id="redanimshift" x="238.811" y="86.324" fill="none" stroke="#383572" stroke-width="1.5" stroke-linecap="square" width="56.032" height="53"/>
<path id="sin" fill="none" stroke="#FF3A5D" stroke-width="1.5" stroke-linecap="square" stroke-linejoin="bevel" d="
	M248.607,112.923v-11.545c0-2.179,3.99-3.304,8.744-3.241c4.399-0.003,8.68-0.062,8.746,4.651v23.004
	c-0.066,4.714,3.969,4.653,8.74,4.649c4.703,0.062,8.747-1.062,8.747-3.239v-0.616v-10.99"/>
<g id="saw">
	
		<line id="env_2_" fill="none" stroke="#FF3A5D" stroke-width="1.5" stroke-linecap="square" stroke-linejoin="bevel" x1="248.607" y1="130.494" x2="283.588" y2="98.157"/>
	
		<line id="env_3_" fill="none" stroke="#FF3A5D" stroke-width="1.5" stroke-linecap="square" stroke-linejoin="bevel" x1="283.588" y1="130.494" x2="283.588" y2="98.157"/>
</g>
<g id="sqr">
	
		<line id="env_4_" fill="none" stroke="#FF3A5D" stroke-width="1.5" stroke-linecap="square" stroke-linejoin="bevel" x1="248.607" y1="130.494" x2="248.607" y2="98.157"/>
	
		<line id="env_5_" fill="none" stroke="#FF3A5D" stroke-width="1.5" stroke-linecap="square" stroke-linejoin="bevel" x1="265.802" y1="98.157" x2="248.607" y2="98.158"/>
	
		<line id="env_6_" fill="none" stroke="#FF3A5D" stroke-width="1.5" stroke-linecap="square" stroke-linejoin="bevel" x1="265.802" y1="130.494" x2="265.802" y2="98.157"/>
	
		<line id="env_8_" fill="none" stroke="#FF3A5D" stroke-width="1.5" stroke-linecap="square" stroke-linejoin="bevel" x1="283.557" y1="130.493" x2="266.361" y2="130.494"/>
</g>
<g id="exp">
	
		<line id="env_7_" fill="none" stroke="#FF3A5D" stroke-width="1.5" stroke-linecap="square" stroke-linejoin="bevel" x1="283.588" y1="130.494" x2="283.588" y2="98.157"/>
	<path fill="none" stroke="#FF3A5D" stroke-width="1.5" stroke-linecap="square" stroke-linejoin="bevel" d="M283.588,98.157
		c-8.255,18-15.646,32.337-34.98,32.337"/>
</g>
<g id="blip">
	
		<line id="env_12_" fill="none" stroke="#FF3A5D" stroke-width="1.5" stroke-linecap="square" stroke-linejoin="bevel" x1="248.607" y1="130.493" x2="248.607" y2="98.157"/>
	
		<line id="env_11_" fill="none" stroke="#FF3A5D" stroke-width="1.5" stroke-linecap="square" stroke-linejoin="bevel" x1="253.934" y1="98.157" x2="248.607" y2="98.157"/>
	
		<line id="env_10_" fill="none" stroke="#FF3A5D" stroke-width="1.5" stroke-linecap="square" stroke-linejoin="bevel" x1="253.934" y1="130.493" x2="253.934" y2="98.157"/>
	
		<line id="env_9_" fill="none" stroke="#FF3A5D" stroke-width="1.5" stroke-linecap="square" stroke-linejoin="bevel" x1="283.557" y1="130.493" x2="253.934" y2="130.493"/>
</g>
</svg>
