<?xml version="1.0" encoding="utf-8"?>
<!-- Generator: Adobe Illustrator 14.0.0, SVG Export Plug-In . SVG Version: 6.00 Build 43363)  -->
<!DOCTYPE svg PUBLIC "-//W3C//DTD SVG 1.1//EN" "http://www.w3.org/Graphics/SVG/1.1/DTD/svg11.dtd">
<svg version="1.1" id="Layer_1" xmlns="http://www.w3.org/2000/svg" xmlns:xlink="http://www.w3.org/1999/xlink" x="0px" y="0px"
	 width="320px" height="160px" viewBox="0 0 320 160" enable-background="new 0 0 320 160" xml:space="preserve">
<g id="euclidean">
	<path id="e11" fill="#FFFFFF" d="M11.143,43.708c0.806,0,1.459,0.652,1.459,1.46c0,0.806-0.652,1.458-1.459,1.458
		c-0.81,0-1.459-0.652-1.459-1.458C9.686,44.36,10.336,43.708,11.143,43.708"/>
	<path id="e21" fill="#40404D" d="M16.747,43.708c0.807,0,1.459,0.652,1.459,1.46c0,0.806-0.65,1.458-1.459,1.458
		c-0.807,0-1.458-0.652-1.458-1.458C15.289,44.36,15.941,43.708,16.747,43.708"/>
	<path id="e31" fill="#40404D" d="M22.351,43.708c0.807,0,1.459,0.652,1.459,1.46c0,0.806-0.652,1.458-1.459,1.458
		c-0.808,0-1.458-0.652-1.458-1.458C20.893,44.36,21.545,43.708,22.351,43.708"/>
	<path id="e41" fill="#40404D" d="M27.956,43.708c0.807,0,1.459,0.652,1.459,1.46c0,0.806-0.652,1.458-1.459,1.458
		s-1.46-0.652-1.46-1.458C26.496,44.36,27.149,43.708,27.956,43.708"/>
	<path id="e51" fill="#FFFFFF" d="M33.558,43.708c0.807,0,1.458,0.652,1.458,1.46c0,0.806-0.651,1.458-1.458,1.458
		c-0.809,0-1.459-0.652-1.459-1.458C32.1,44.36,32.753,43.708,33.558,43.708"/>
	<path id="e61" fill="#40404D" d="M39.163,43.708c0.808,0,1.458,0.652,1.458,1.46c0,0.806-0.65,1.458-1.458,1.458
		c-0.807,0-1.459-0.652-1.459-1.458C37.704,44.36,38.356,43.708,39.163,43.708"/>
	<path id="e71" fill="#40404D" d="M44.766,43.708c0.809,0,1.459,0.652,1.459,1.46c0,0.806-0.651,1.458-1.459,1.458
		c-0.807,0-1.459-0.652-1.459-1.458C43.307,44.36,43.96,43.708,44.766,43.708"/>
	<path id="e81" fill="#40404D" d="M50.372,43.708c0.807,0,1.459,0.652,1.459,1.46c0,0.806-0.652,1.458-1.459,1.458
		c-0.809,0-1.46-0.652-1.46-1.458C48.912,44.36,49.563,43.708,50.372,43.708"/>
	<path id="e12" fill="#40404D" d="M11.143,49.07c0.806,0,1.459,0.652,1.459,1.459c0,0.806-0.652,1.458-1.459,1.458
		c-0.81,0-1.459-0.652-1.459-1.458C9.684,49.722,10.336,49.07,11.143,49.07"/>
	<path id="e22" fill="#FFFFFF" d="M16.747,49.07c0.807,0,1.459,0.652,1.459,1.459c0,0.806-0.65,1.458-1.459,1.458
		c-0.807,0-1.458-0.652-1.458-1.458C15.289,49.722,15.941,49.07,16.747,49.07"/>
	<path id="e32" fill="#40404D" d="M22.351,49.07c0.807,0,1.459,0.652,1.459,1.459c0,0.806-0.652,1.458-1.459,1.458
		c-0.808,0-1.458-0.652-1.458-1.458C20.893,49.722,21.545,49.07,22.351,49.07"/>
	<path id="e42" fill="#40404D" d="M27.956,49.07c0.807,0,1.459,0.652,1.459,1.459c0,0.806-0.652,1.458-1.459,1.458
		s-1.46-0.652-1.46-1.458C26.496,49.722,27.149,49.07,27.956,49.07"/>
	<path id="e52" fill="#40404D" d="M33.558,49.07c0.807,0,1.458,0.652,1.458,1.459c0,0.806-0.651,1.458-1.458,1.458
		c-0.809,0-1.459-0.652-1.459-1.458C32.099,49.722,32.753,49.07,33.558,49.07"/>
	<path id="e62" fill="#FFFFFF" d="M39.163,49.07c0.808,0,1.458,0.652,1.458,1.459c0,0.806-0.65,1.458-1.458,1.458
		c-0.807,0-1.459-0.652-1.459-1.458C37.704,49.722,38.356,49.07,39.163,49.07"/>
	<path id="e72" fill="#40404D" d="M44.766,49.07c0.809,0,1.459,0.652,1.459,1.459c0,0.806-0.651,1.458-1.459,1.458
		c-0.807,0-1.459-0.652-1.459-1.458C43.307,49.722,43.96,49.07,44.766,49.07"/>
	<path id="e82" fill="#40404D" d="M50.372,49.07c0.807,0,1.459,0.652,1.459,1.459c0,0.806-0.652,1.458-1.459,1.458
		c-0.809,0-1.46-0.652-1.46-1.458C48.912,49.722,49.563,49.07,50.372,49.07"/>
	<path id="e13" fill="#40404D" d="M11.143,54.43c0.806,0,1.459,0.653,1.459,1.46s-0.652,1.459-1.459,1.459
		c-0.81,0-1.459-0.652-1.459-1.459S10.336,54.43,11.143,54.43"/>
	<path id="e23" fill="#40404D" d="M16.747,54.43c0.807,0,1.459,0.653,1.459,1.46s-0.65,1.459-1.459,1.459
		c-0.807,0-1.458-0.652-1.458-1.459S15.941,54.43,16.747,54.43"/>
	<path id="e33" fill="#FFFFFF" d="M22.351,54.43c0.807,0,1.459,0.653,1.459,1.46s-0.652,1.459-1.459,1.459
		c-0.808,0-1.458-0.652-1.458-1.459S21.545,54.43,22.351,54.43"/>
	<path id="e43" fill="#40404D" d="M27.956,54.43c0.807,0,1.459,0.653,1.459,1.46s-0.652,1.459-1.459,1.459s-1.46-0.652-1.46-1.459
		S27.149,54.43,27.956,54.43"/>
	<path id="e53" fill="#40404D" d="M33.558,54.43c0.807,0,1.458,0.653,1.458,1.46s-0.651,1.459-1.458,1.459
		c-0.809,0-1.459-0.652-1.459-1.459S32.753,54.43,33.558,54.43"/>
	<path id="e63" fill="#40404D" d="M39.163,54.43c0.808,0,1.458,0.653,1.458,1.46s-0.65,1.459-1.458,1.459
		c-0.807,0-1.459-0.652-1.459-1.459S38.356,54.43,39.163,54.43"/>
	<path id="e73" fill="#FFFFFF" d="M44.766,54.43c0.809,0,1.459,0.653,1.459,1.46s-0.651,1.459-1.459,1.459
		c-0.807,0-1.459-0.652-1.459-1.459S43.96,54.43,44.766,54.43"/>
	<path id="e83" fill="#40404D" d="M50.372,54.43c0.807,0,1.459,0.653,1.459,1.46s-0.652,1.459-1.459,1.459
		c-0.809,0-1.46-0.652-1.46-1.459S49.563,54.43,50.372,54.43"/>
	<path id="e14" fill="#40404D" d="M11.143,59.792c0.806,0,1.459,0.653,1.459,1.46s-0.652,1.46-1.459,1.46
		c-0.81,0-1.459-0.653-1.459-1.46S10.336,59.792,11.143,59.792"/>
	<path id="e24" fill="#40404D" d="M16.747,59.792c0.807,0,1.459,0.653,1.459,1.46s-0.65,1.46-1.459,1.46
		c-0.807,0-1.458-0.653-1.458-1.46S15.941,59.792,16.747,59.792"/>
	<path id="e34" fill="#40404D" d="M22.351,59.792c0.807,0,1.459,0.653,1.459,1.46s-0.652,1.46-1.459,1.46
		c-0.808,0-1.458-0.653-1.458-1.46S21.545,59.792,22.351,59.792"/>
	<path id="e44" fill="#FFFFFF" d="M27.956,59.792c0.807,0,1.459,0.653,1.459,1.46s-0.652,1.46-1.459,1.46s-1.46-0.653-1.46-1.46
		S27.149,59.792,27.956,59.792"/>
	<path id="e54" fill="#40404D" d="M33.558,59.792c0.807,0,1.458,0.653,1.458,1.46s-0.651,1.46-1.458,1.46
		c-0.809,0-1.459-0.653-1.459-1.46S32.753,59.792,33.558,59.792"/>
	<path id="e64" fill="#40404D" d="M39.163,59.792c0.808,0,1.458,0.653,1.458,1.46s-0.65,1.46-1.458,1.46
		c-0.807,0-1.459-0.653-1.459-1.46S38.356,59.792,39.163,59.792"/>
	<path id="e74" fill="#40404D" d="M44.766,59.792c0.809,0,1.459,0.653,1.459,1.46s-0.651,1.46-1.459,1.46
		c-0.807,0-1.459-0.653-1.459-1.46S43.96,59.792,44.766,59.792"/>
	<path id="e84" fill="#FFFFFF" d="M50.372,59.792c0.807,0,1.459,0.653,1.459,1.46s-0.652,1.46-1.459,1.46
		c-0.809,0-1.46-0.653-1.46-1.46S49.563,59.792,50.372,59.792"/>
	<path id="e15" fill="#40404D" d="M11.143,65.154c0.806,0,1.459,0.652,1.459,1.459c0,0.808-0.652,1.461-1.459,1.461
		c-0.81,0-1.459-0.653-1.459-1.461C9.686,65.806,10.336,65.154,11.143,65.154"/>
	<path id="e25" fill="#40404D" d="M16.747,65.154c0.807,0,1.459,0.652,1.459,1.459c0,0.808-0.65,1.461-1.459,1.461
		c-0.807,0-1.458-0.653-1.458-1.461C15.289,65.806,15.941,65.154,16.747,65.154"/>
	<path id="e35" fill="#40404D" d="M22.351,65.154c0.807,0,1.459,0.652,1.459,1.459c0,0.808-0.652,1.461-1.459,1.461
		c-0.808,0-1.458-0.653-1.458-1.461C20.893,65.806,21.545,65.154,22.351,65.154"/>
	<path id="e45" fill="#40404D" d="M27.956,65.154c0.807,0,1.459,0.652,1.459,1.459c0,0.808-0.652,1.461-1.459,1.461
		s-1.46-0.653-1.46-1.461C26.496,65.806,27.149,65.154,27.956,65.154"/>
	<path id="e55" fill="#FFFFFF" d="M33.558,65.154c0.807,0,1.458,0.652,1.458,1.459c0,0.808-0.651,1.461-1.458,1.461
		c-0.809,0-1.459-0.653-1.459-1.461C32.1,65.806,32.753,65.154,33.558,65.154"/>
	<path id="e65" fill="#40404D" d="M39.163,65.154c0.808,0,1.458,0.652,1.458,1.459c0,0.808-0.65,1.461-1.458,1.461
		c-0.807,0-1.459-0.653-1.459-1.461C37.704,65.806,38.356,65.154,39.163,65.154"/>
	<path id="e75" fill="#40404D" d="M44.766,65.154c0.809,0,1.459,0.652,1.459,1.459c0,0.808-0.651,1.461-1.459,1.461
		c-0.807,0-1.459-0.653-1.459-1.461C43.307,65.806,43.96,65.154,44.766,65.154"/>
	<path id="e85" fill="#40404D" d="M50.372,65.154c0.807,0,1.459,0.652,1.459,1.459c0,0.808-0.652,1.461-1.459,1.461
		c-0.809,0-1.46-0.653-1.46-1.461C48.912,65.806,49.563,65.154,50.372,65.154"/>
</g>
<g id="stepcount">
	<polyline fill="none" stroke="#FF3A5D" stroke-width="2" points="153.013,88.643 82.932,88.643 82.932,82.8 129.652,6.878 
		135.492,6.878 135.492,123.682 	"/>
	<polyline fill="none" stroke="#FF3A5D" stroke-width="2" points="228.232,88.643 158.153,88.643 158.153,82.8 204.873,6.878 
		210.713,6.878 210.713,123.682 	"/>
</g>
<g id="timing">
	<line fill="none" stroke="#698EFF" stroke-width="1.5" stroke-linecap="square" x1="11.009" y1="6.483" x2="11.009" y2="33.137"/>
	<circle fill="none" stroke="#698EFF" stroke-width="1.5" stroke-linecap="square" cx="37.662" cy="13.146" r="6.664"/>
	<circle fill="none" stroke="#698EFF" stroke-width="1.5" stroke-linecap="square" cx="37.662" cy="26.474" r="6.664"/>
	<polyline fill="none" stroke="#698EFF" stroke-width="1.5" stroke-linecap="square" points="15.009,33.138 15.009,31.805 
		28.334,7.817 28.334,6.483 	"/>
</g>
<g id="swing">
	<path fill="none" stroke="#00ED95" stroke-width="1.5" stroke-linecap="square" d="M273.544,6.481h-13.326v19.992
		c0-3.681,2.983-6.664,6.664-6.664c3.683,0,6.662,2.983,6.662,6.664c0,3.679-2.979,6.663-6.662,6.663h-6.664"/>
	<path fill="none" stroke="#00ED95" stroke-width="1.5" stroke-linecap="square" d="M290.869,6.481h-13.326v19.992
		c0-3.681,2.982-6.664,6.664-6.664c3.684,0,6.662,2.983,6.662,6.664c0,3.679-2.979,6.663-6.662,6.663h-6.664"/>
	<polyline fill="none" stroke="#00ED95" stroke-width="1.5" stroke-linecap="square" points="294.868,33.137 294.868,31.804 
		309.529,7.815 309.529,6.481 	"/>
	<path fill="none" stroke="#00ED95" stroke-width="1.5" stroke-linecap="square" d="M300.436,15.858
		c0,1.732-1.396,3.137-3.139,3.137c-1.73,0-3.139-1.404-3.139-3.137V9.583c0-1.733,1.404-3.138,3.139-3.138
		c1.735,0,3.139,1.404,3.139,3.138V15.858z"/>
	<path fill="none" stroke="#00ED95" stroke-width="1.5" stroke-linecap="square" d="M309.709,30.224
		c0,1.733-1.403,3.138-3.138,3.138c-1.735,0-3.146-1.404-3.146-3.138v-6.276c0-1.734,1.402-3.139,3.146-3.139
		c1.729,0,3.138,1.402,3.138,3.139V30.224z"/>
</g>
<g id="shiftkey">
	
		<rect x="185.959" y="55.409" fill="none" stroke="#DFD9FF" stroke-width="1.5" stroke-linecap="square" width="6.059" height="20.188"/>
	
		<rect x="192.016" y="55.409" fill="none" stroke="#DFD9FF" stroke-width="1.5" stroke-linecap="square" width="6.062" height="20.188"/>
	<polyline fill="none" stroke="#DFD9FF" stroke-width="1.5" stroke-linecap="square" points="198.07,75.598 198.07,55.409 
		204.128,55.409 204.128,75.598 	"/>
	
		<rect x="204.128" y="55.409" fill="none" stroke="#DFD9FF" stroke-width="1.5" stroke-linecap="square" width="6.062" height="20.188"/>
	<rect x="189.996" y="55.409" fill="#DFD9FF" width="4.037" height="12.112"/>
	<rect x="196.053" y="55.409" fill="#DFD9FF" width="4.035" height="12.112"/>
	<rect x="202.109" y="55.409" fill="#DFD9FF" width="4.037" height="12.112"/>
	<path fill="none" stroke="#DFD9FF" stroke-width="1.5" d="M206.775,86.958V81.48c0-0.942-0.771-1.708-1.705-1.708
		c-0.942,0-1.707,0.765-1.707,1.708v5.478"/>
	<path fill="none" stroke="#DFD9FF" stroke-width="1.5" d="M210.193,86.958V81.48c-0.002-0.943-0.764-1.708-1.707-1.708
		s-1.711,0.766-1.711,1.708v5.478"/>
	<path fill="none" stroke="#DFD9FF" stroke-width="1.5" d="M213.609,93.747V82.762c0-0.943-0.771-1.707-1.709-1.707
		c-0.943,0-1.707,0.764-1.707,1.707v4.196"/>
	<path fill="none" stroke="#DFD9FF" stroke-width="1.5" d="M203.363,82.762v-8.968c0-1.179-0.956-2.134-2.135-2.134
		c-1.188,0-2.076,0.955-2.076,2.134v16.257l-4.527-4.529c-0.832-0.832-2.186-0.832-3.02,0.002c-0.834,0.832-0.834,2.188,0,3.021
		L199.091,96"/>
	<path fill="none" stroke="#DFD9FF" stroke-width="1.5" stroke-linecap="square" stroke-linejoin="bevel" d="M101.912,70.401
		c0,2.761,2.237,4.998,4.997,4.998c2.76,0,4.998-2.237,4.998-4.998c0-1.124-0.765-2.654-2.146-3.505
		c-1.202-0.744-4.629-2.179-5.817-2.938c-1.469-0.942-2.031-2.426-2.031-3.55c0-2.762,2.237-4.999,4.997-4.999
		c2.76,0,4.998,2.237,4.998,4.999"/>
	
		<line fill="none" stroke="#DFD9FF" stroke-width="1.5" stroke-linecap="square" x1="131.499" y1="55.41" x2="131.499" y2="75.399"/>
	
		<line fill="none" stroke="#DFD9FF" stroke-width="1.5" stroke-linecap="square" x1="149.09" y1="55.409" x2="161.585" y2="55.409"/>
	
		<line fill="none" stroke="#DFD9FF" stroke-width="1.5" stroke-linecap="square" stroke-linejoin="round" x1="155.588" y1="55.409" x2="155.588" y2="75.399"/>
	<polyline fill="none" stroke="#DFD9FF" stroke-width="1.5" stroke-linecap="square" points="136.531,75.399 136.531,55.409 
		145.525,55.409 	"/>
	
		<line fill="none" stroke="#DFD9FF" stroke-width="1.5" stroke-linecap="square" x1="136.531" y1="65.404" x2="144.525" y2="65.404"/>
	
		<line fill="none" stroke="#DFD9FF" stroke-width="1.5" stroke-linecap="square" x1="116.438" y1="55.409" x2="116.438" y2="75.398"/>
	
		<line fill="none" stroke="#DFD9FF" stroke-width="1.5" stroke-linecap="square" x1="126.435" y1="55.409" x2="126.435" y2="75.398"/>
	
		<line fill="none" stroke="#DFD9FF" stroke-width="1.5" stroke-linecap="square" x1="116.438" y1="65.404" x2="126.435" y2="65.404"/>
	<line fill="none" stroke="#DFD9FF" stroke-width="1.5" stroke-linecap="square" x1="172.08" y1="60.406" x2="172.08" y2="70.401"/>
	
		<line fill="none" stroke="#DFD9FF" stroke-width="1.5" stroke-linecap="square" x1="167.082" y1="65.404" x2="177.076" y2="65.404"/>
</g>
<g id="playmodes">
	<g id="rev">
		<path fill="none" stroke="#FF3A5D" stroke-width="1.5" stroke-linecap="square" d="M294.379,66.881V44.207h-17.01
			c-2.818,0-5.102,2.537-5.102,5.67l0,0c0,3.131,2.275,5.668,5.102,5.668h15.988"/>
		<polyline fill="none" stroke="#FF3A5D" stroke-width="1.5" stroke-linecap="square" points="283.041,55.941 272.893,66.018 
			272.893,66.881 		"/>
	</g>
	<g id="fwd">
		<polyline fill="none" stroke="#FF3A5D" stroke-width="1.5" stroke-linecap="square" points="288.256,64.049 288.82,64.049 
			297.668,55.545 288.82,47.041 287.971,47.041 		"/>
		
			<line fill="none" stroke="#FF3A5D" stroke-width="1.5" stroke-linecap="square" x1="268.979" y1="55.545" x2="288.82" y2="55.545"/>
	</g>
	<g id="pingpong">
		<polyline fill="none" stroke="#FF3A5D" stroke-width="1.5" stroke-linecap="square" points="276.545,44.207 275.695,44.207 
			269.148,49.876 275.695,55.545 276.545,55.545 		"/>
		<polyline fill="none" stroke="#FF3A5D" stroke-width="1.5" stroke-linecap="square" points="290.1,66.884 290.949,66.884 
			297.496,61.215 290.949,55.545 290.1,55.545 		"/>
		
			<line fill="none" stroke="#FF3A5D" stroke-width="1.5" stroke-linecap="square" x1="274.818" y1="49.876" x2="288.992" y2="49.876"/>
		
			<line fill="none" stroke="#FF3A5D" stroke-width="1.5" stroke-linecap="square" x1="291.826" y1="61.215" x2="274.818" y2="61.215"/>
	</g>
	<path id="rnd" fill="none" stroke="#FF3A5D" stroke-width="1.5" stroke-linecap="square" d="M300.915,51.973
		c0-1.611-1.312-2.923-2.927-2.923c-1.613,0-2.928,1.312-2.928,2.923l0.021,9.812c0,1.618-1.312,2.926-2.927,2.926
		c-1.616,0-2.932-1.308-2.932-2.926V54.21c0-1.612-1.312-2.923-2.927-2.923c-1.616,0-2.962,1.311-2.962,2.923v0.862
		c0,1.618-1.348,2.928-2.962,2.928c-1.615,0-2.931-1.31-2.931-2.928v-5.336c0-1.613-1.31-2.924-2.926-2.924
		c-1.619,0-2.931,1.311-2.931,2.924l-0.021,7.574c0,1.617-1.312,2.926-2.926,2.926c-1.615,0-2.928-1.309-2.928-2.926"/>
	<g id="rnd4">
		<path fill="none" stroke="#FF3A5D" stroke-width="1.5" stroke-linecap="square" d="M300.915,52.061
			c0-1.611-1.312-2.923-2.927-2.923c-1.613,0-2.928,1.312-2.928,2.923l0.021,9.812c0,1.617-1.312,2.926-2.927,2.926
			c-1.616,0-2.932-1.309-2.932-2.926v-7.575c0-1.612-1.312-2.923-2.927-2.923c-1.616,0-2.962,1.311-2.962,2.923v0.862
			c0,1.617-1.348,2.928-2.962,2.928c-1.615,0-2.931-1.311-2.931-2.928v-5.336c0-1.613-1.31-2.924-2.926-2.924
			c-1.619,0-2.931,1.311-2.931,2.924l-0.021,7.574c0,1.616-1.312,2.926-2.926,2.926c-1.615,0-2.928-1.31-2.928-2.926"/>
		<g>
			<polyline fill="none" stroke="#FF3A5D" stroke-width="1.5" points="315.299,59.969 304.418,59.969 304.418,59.062 
				311.672,47.273 312.579,47.273 312.579,65.409 			"/>
		</g>
	</g>
</g>
<g id="hold">
	<path id="d_8_" fill="none" stroke="#FF3A5D" stroke-width="1.5" stroke-linecap="square" d="M296.634,61.576
		c1.531,0,2.771-1.241,2.771-2.771v-5.543c0-1.531-1.24-2.771-2.771-2.771h-2.771v11.085H296.634L296.634,61.576z"/>
	<path id="o_20_" fill="none" stroke="#FF3A5D" stroke-width="1.5" stroke-linecap="square" d="M277.79,53.54v4.988
		c0,1.684,1.364,3.049,3.049,3.049s3.05-1.365,3.05-3.049l0,0l0,0V53.54c0-1.684-1.365-3.049-3.05-3.049S277.79,51.856,277.79,53.54
		L277.79,53.54L277.79,53.54L277.79,53.54z"/>
	<g id="h_9_">
		
			<line fill="none" stroke="#FF3A5D" stroke-width="1.5" stroke-linecap="square" x1="269.475" y1="50.491" x2="269.475" y2="61.577"/>
		
			<line fill="none" stroke="#FF3A5D" stroke-width="1.5" stroke-linecap="square" x1="275.018" y1="50.491" x2="275.018" y2="61.577"/>
		
			<line fill="none" stroke="#FF3A5D" stroke-width="1.5" stroke-linecap="square" x1="269.475" y1="56.034" x2="275.018" y2="56.034"/>
	</g>
	<polyline id="l_15_" fill="none" stroke="#FF3A5D" stroke-width="1.5" stroke-linecap="square" points="286.657,50.491 
		286.657,61.576 291.645,61.576 	"/>
	
		<rect x="265.043" y="47.166" fill="none" stroke="#FF3A5D" stroke-width="1.5" stroke-linecap="square" width="38.796" height="17.735"/>
</g>
<g id="crank">
	<g>
		<polyline fill="none" stroke="#AEB1DC" stroke-linecap="round" points="14.784,20.263 14.23,19.915 13.729,19.542 13.282,19.147 
			12.892,18.733 12.565,18.3 12.299,17.854 12.098,17.396 11.963,16.931 11.896,16.461 11.896,15.989 11.963,15.519 12.098,15.054 
			12.299,14.596 12.565,14.149 12.892,13.718 13.282,13.302 13.729,12.907 14.23,12.534 14.784,12.188 		"/>
		<line fill="none" stroke="#AEB1DC" stroke-linecap="round" x1="14.784" y1="21.759" x2="14.784" y2="20.263"/>
		<line fill="none" stroke="#AEB1DC" stroke-linecap="round" x1="30.922" y1="29.577" x2="14.784" y2="20.263"/>
		<line fill="none" stroke="#AEB1DC" stroke-linecap="round" x1="15.216" y1="19.517" x2="31.352" y2="28.832"/>
		<polyline fill="none" stroke="#AEB1DC" stroke-linecap="round" points="28.341,11.938 27.743,11.624 27.102,11.339 26.418,11.088 
			25.699,10.872 24.953,10.692 24.179,10.553 23.388,10.452 22.585,10.39 21.778,10.37 20.969,10.39 20.166,10.452 19.375,10.553 
			18.604,10.692 17.855,10.872 17.136,11.088 16.455,11.339 15.811,11.624 15.216,11.938 14.668,12.284 14.175,12.654 13.74,13.048 
			13.367,13.464 13.056,13.896 12.812,14.341 12.637,14.797 12.532,15.261 12.496,15.728 12.532,16.194 12.637,16.658 
			12.812,17.114 13.056,17.561 13.367,17.992 13.74,18.407 14.175,18.801 14.668,19.172 15.216,19.517 		"/>
		<line fill="none" stroke="#AEB1DC" stroke-linecap="round" x1="25.582" y1="16.782" x2="17.975" y2="16.782"/>
		<polyline fill="none" stroke="#AEB1DC" stroke-linecap="round" points="17.975,16.782 17.619,16.761 17.274,16.702 16.96,16.604 
			16.683,16.474 16.455,16.313 16.287,16.131 16.182,15.933 16.148,15.728 16.182,15.522 16.287,15.324 16.455,15.142 
			16.683,14.982 16.96,14.852 17.274,14.754 17.619,14.694 17.975,14.675 		"/>
		<line fill="none" stroke="#AEB1DC" stroke-linecap="round" x1="17.975" y1="14.675" x2="25.582" y2="14.675"/>
		<polyline fill="none" stroke="#AEB1DC" stroke-linecap="round" points="25.582,14.675 25.938,14.694 26.28,14.754 26.596,14.852 
			26.873,14.982 27.1,15.142 27.267,15.324 27.372,15.522 27.406,15.728 27.372,15.933 27.267,16.131 27.1,16.313 26.873,16.474 
			26.596,16.604 26.28,16.702 25.938,16.761 25.582,16.782 		"/>
		<polyline fill="none" stroke="#AEB1DC" stroke-linecap="round" points="30.922,31.069 31.523,31.389 32.169,31.679 32.853,31.937 
			33.572,32.16 34.32,32.351 35.094,32.503 35.887,32.62 36.692,32.696 37.507,32.736 38.325,32.736 39.139,32.696 39.944,32.62 
			40.739,32.503 41.51,32.351 42.259,32.16 42.978,31.937 43.662,31.679 44.307,31.389 44.908,31.069 45.462,30.722 45.963,30.349 
			46.41,29.953 46.8,29.539 47.128,29.106 47.394,28.661 47.595,28.204 47.729,27.737 47.796,27.267 47.805,27.032 		"/>
		<polyline fill="none" stroke="#AEB1DC" stroke-linecap="round" points="46.077,22.317 46.41,22.618 46.8,23.033 47.128,23.466 
			47.394,23.913 47.595,24.37 47.729,24.835 47.796,25.304 47.796,25.776 47.729,26.247 47.595,26.713 47.394,27.171 47.128,27.616 
			46.8,28.05 46.41,28.463 45.963,28.858 45.462,29.229 44.908,29.577 44.307,29.898 43.662,30.188 42.978,30.446 42.259,30.67 
			41.51,30.858 40.739,31.013 39.944,31.13 39.139,31.206 38.325,31.245 37.507,31.245 36.692,31.206 35.887,31.13 35.094,31.013 
			34.32,30.858 33.572,30.67 32.853,30.446 32.169,30.188 31.523,29.898 30.922,29.577 		"/>
		<polyline fill="none" stroke="#AEB1DC" stroke-linecap="round" points="31.352,28.832 31.949,29.148 32.591,29.433 33.274,29.685 
			33.994,29.9 34.74,30.079 35.514,30.22 36.304,30.32 37.107,30.382 37.915,30.401 38.724,30.382 39.526,30.32 40.317,30.22 
			41.089,30.079 41.837,29.9 42.556,29.685 43.238,29.433 43.882,29.148 44.479,28.832 45.025,28.488 45.52,28.118 45.953,27.724 
			46.326,27.309 46.636,26.876 46.88,26.432 47.056,25.975 47.161,25.511 47.197,25.044 47.161,24.576 47.056,24.113 46.88,23.657 
			46.636,23.212 46.326,22.78 46.012,22.424 		"/>
		<polyline fill="none" stroke="#AEB1DC" stroke-linecap="round" points="11.894,27.829 11.903,28.175 11.976,28.634 12.11,29.089 
			12.301,29.536 12.551,29.971 12.859,30.396 13.221,30.802 13.639,31.192 14.104,31.562 14.62,31.905 14.863,32.053 15.163,32.219 
			15.761,32.511 16.394,32.776 17.061,33.008 17.757,33.209 18.476,33.378 19.214,33.513 19.969,33.613 20.734,33.679 
			21.505,33.709 22.279,33.704 23.049,33.663 23.812,33.587 24.561,33.478 25.294,33.332 26.007,33.153 26.695,32.942 
			27.352,32.698 27.976,32.427 28.561,32.126 29.108,31.798 29.609,31.441 30.062,31.063 30.375,30.753 		"/>
		<line fill="none" stroke="#AEB1DC" stroke-linecap="round" x1="11.888" y1="16.226" x2="11.888" y2="27.841"/>
		<line fill="none" stroke="#AEB1DC" stroke-linecap="round" x1="30.922" y1="31.069" x2="30.922" y2="29.577"/>
		<line fill="none" stroke="#AEB1DC" stroke-linecap="round" x1="47.805" y1="27.032" x2="47.805" y2="25.542"/>
		<line fill="none" stroke="#AEB1DC" x1="29.546" y1="12.636" x2="28.341" y2="11.938"/>
		<line fill="none" stroke="#AEB1DC" stroke-linecap="round" x1="30.519" y1="31" x2="14.93" y2="22"/>
	</g>
	<g>
		<polyline fill="none" stroke="#698EFF" stroke-linecap="round" stroke-linejoin="bevel" points="40.866,12.774 40.938,12.722 
			41.235,12.464 41.474,12.188 41.65,11.895 41.759,11.591 41.799,11.282 41.772,10.974 41.676,10.669 41.512,10.374 41.286,10.095 
			40.998,9.832 40.654,9.594 40.262,9.384 39.826,9.203 39.354,9.058 38.853,8.946 38.331,8.874 37.798,8.841 37.264,8.847 
			36.733,8.893 36.218,8.978 35.725,9.1 35.262,9.257 34.84,9.446 34.461,9.666 		"/>
		<polyline fill="none" stroke="#698EFF" stroke-linecap="round" stroke-linejoin="bevel" points="34.461,9.666 34.136,9.911 
			33.867,10.18 33.66,10.465 33.517,10.764 33.444,11.07 33.438,11.38 33.498,11.687 33.628,11.987 33.823,12.276 34.081,12.548 
			34.364,12.774 		"/>
		<polyline fill="none" stroke="#698EFF" stroke-linecap="round" stroke-linejoin="bevel" points="33.775,8.574 34.188,8.33 
			34.649,8.115 35.15,7.933 35.685,7.784 36.247,7.674 36.826,7.601 37.415,7.569 38.008,7.575 38.595,7.621 39.169,7.706 
			39.724,7.829 40.247,7.989 40.736,8.183 41.183,8.407 41.581,8.66 41.927,8.938 42.212,9.238 42.436,9.555 42.596,9.885 
			42.688,10.223 42.711,10.565 42.665,10.905 42.552,11.241 42.372,11.567 42.126,11.879 41.82,12.172 41.458,12.442 41.042,12.687 
			40.581,12.901 40.08,13.085 39.545,13.231 38.983,13.343 38.405,13.415 37.813,13.448 37.222,13.442 36.635,13.396 36.061,13.311 
			35.507,13.188 34.983,13.028 34.495,12.835 34.047,12.609 33.649,12.356 33.304,12.078 33.018,11.779 32.793,11.462 
			32.635,11.132 32.542,10.794 32.519,10.452 32.565,10.111 32.679,9.774 32.859,9.449 33.104,9.138 33.41,8.845 33.775,8.574 		"/>
		
			<line fill="none" stroke="#698EFF" stroke-linecap="round" stroke-linejoin="bevel" x1="29.361" y1="22.367" x2="29.361" y2="15.036"/>
		
			<line fill="none" stroke="#698EFF" stroke-linecap="round" stroke-linejoin="bevel" x1="31.163" y1="24.642" x2="31.163" y2="17.312"/>
		<polyline fill="none" stroke="#698EFF" stroke-linecap="round" stroke-linejoin="bevel" points="31.163,17.312 31.215,16.973 
			31.37,16.743 31.615,16.649 31.926,16.693 32.261,16.854 32.586,17.108 32.875,17.433 33.094,17.81 33.205,18.208 33.215,18.345 
					"/>
		
			<line fill="none" stroke="#698EFF" stroke-linecap="round" stroke-linejoin="bevel" x1="33.215" y1="18.345" x2="33.215" y2="25.675"/>
		
			<line fill="none" stroke="#698EFF" stroke-linecap="round" stroke-linejoin="bevel" x1="34.689" y1="26.093" x2="34.689" y2="18.762"/>
		<polyline fill="none" stroke="#698EFF" stroke-linecap="round" stroke-linejoin="bevel" points="34.689,18.762 34.767,18.403 
			34.991,18.115 35.337,17.929 35.756,17.861 36.192,17.903 36.604,18.042 36.958,18.268 37.22,18.571 37.352,18.93 37.363,19.063 
					"/>
		
			<line fill="none" stroke="#698EFF" stroke-linecap="round" stroke-linejoin="bevel" x1="37.363" y1="19.063" x2="37.363" y2="26.396"/>
		
			<line fill="none" stroke="#698EFF" stroke-linecap="round" stroke-linejoin="bevel" x1="39.002" y1="26.331" x2="39.002" y2="19"/>
		<polyline fill="none" stroke="#698EFF" stroke-linecap="round" stroke-linejoin="bevel" points="39.002,19 39.082,18.617 
			39.314,18.259 39.668,17.964 40.086,17.767 40.507,17.675 40.893,17.691 41.216,17.812 41.453,18.038 41.571,18.358 41.579,18.49 
					"/>
		
			<line fill="none" stroke="#698EFF" stroke-linecap="round" stroke-linejoin="bevel" x1="41.579" y1="18.49" x2="41.579" y2="25.821"/>
		
			<line fill="none" stroke="#698EFF" stroke-linecap="round" stroke-linejoin="bevel" x1="42.942" y1="25.293" x2="42.942" y2="17.961"/>
		<polyline fill="none" stroke="#698EFF" stroke-linecap="round" stroke-linejoin="bevel" points="42.942,17.961 43.004,17.556 
			43.185,17.134 43.449,16.745 43.751,16.435 44.046,16.233 44.305,16.15 44.511,16.188 44.656,16.356 44.728,16.646 44.732,16.776 
					"/>
		
			<line fill="none" stroke="#698EFF" stroke-linecap="round" stroke-linejoin="bevel" x1="44.732" y1="16.776" x2="44.732" y2="24.108"/>
		
			<line fill="none" stroke="#698EFF" stroke-linecap="round" stroke-linejoin="bevel" x1="45.98" y1="14.381" x2="45.98" y2="21.712"/>
		<polyline fill="none" stroke="#698EFF" stroke-linecap="round" stroke-linejoin="bevel" points="43.533,7.838 43.912,8.073 
			44.379,8.411 44.795,8.772 45.151,9.153 45.448,9.552 45.68,9.964 45.848,10.387 45.949,10.816 45.984,11.249 45.951,11.683 
			45.85,12.112 45.684,12.534 45.452,12.948 45.158,13.346 44.804,13.729 44.388,14.09 43.921,14.429 43.403,14.742 42.839,15.028 
			42.231,15.284 41.587,15.506 40.91,15.694 40.208,15.847 39.484,15.963 38.747,16.04 37.998,16.079 37.247,16.08 36.499,16.042 
			35.761,15.964 35.035,15.85 34.333,15.697 33.656,15.511 33.012,15.288 32.404,15.033 31.838,14.749 31.318,14.435 30.85,14.097 
			30.435,13.735 30.079,13.354 29.783,12.955 29.55,12.543 29.382,12.12 29.282,11.69 29.246,11.258 29.28,10.825 29.38,10.396 
			29.546,9.973 29.778,9.561 30.072,9.161 30.429,8.779 30.84,8.418 31.309,8.078 		"/>
		<polyline fill="none" stroke="#698EFF" stroke-linecap="round" stroke-linejoin="bevel" points="31.997,7.68 31.557,8.001 
			31.171,8.345 30.844,8.708 30.578,9.087 30.376,9.48 30.24,9.882 30.169,10.29 30.167,10.699 30.231,11.106 30.364,11.509 
			30.563,11.903 30.823,12.284 31.146,12.647 31.527,12.993 31.966,13.317 32.454,13.613 32.986,13.883 33.563,14.122 
			34.177,14.327 34.821,14.499 35.492,14.634 36.18,14.731 36.882,14.792 37.591,14.812 38.3,14.794 39.002,14.737 39.692,14.642 
			40.363,14.509 41.011,14.34 41.625,14.137 42.206,13.899 42.742,13.632 43.233,13.337 43.674,13.017 44.059,12.672 44.386,12.31 
			44.652,11.929 44.854,11.536 44.991,11.134 45.061,10.728 45.063,10.317 45,9.909 44.866,9.507 44.669,9.114 44.408,8.733 
			44.085,8.368 43.703,8.022 43.264,7.7 42.778,7.403 42.243,7.134 41.665,6.896 41.052,6.688 40.409,6.519 39.738,6.383 
			39.05,6.285 38.348,6.226 37.639,6.204 36.931,6.222 36.228,6.279 35.539,6.375 34.868,6.508 34.22,6.677 33.605,6.88 
			33.024,7.116 32.487,7.384 31.997,7.68 		"/>
		
			<line fill="none" stroke="#698EFF" stroke-linecap="round" stroke-linejoin="bevel" x1="29.246" y1="11.254" x2="29.246" y2="21.728"/>
		
			<line fill="none" stroke="#698EFF" stroke-linecap="round" stroke-linejoin="bevel" x1="45.984" y1="11.09" x2="45.984" y2="22.09"/>
		<polyline fill="none" stroke="#698EFF" stroke-linecap="round" stroke-linejoin="bevel" points="45.962,22.238 45.861,22.668 
			45.695,23.09 45.463,23.504 45.169,23.901 44.815,24.284 44.399,24.646 43.932,24.984 43.414,25.298 42.85,25.584 42.242,25.84 
			41.598,26.062 40.921,26.25 40.219,26.402 39.496,26.519 38.758,26.596 38.009,26.635 37.258,26.636 36.51,26.598 35.772,26.52 
			35.046,26.405 34.344,26.253 33.667,26.066 33.023,25.844 32.415,25.589 31.849,25.305 31.329,24.99 30.861,24.652 30.446,24.291 
			30.09,23.909 29.794,23.511 29.561,23.099 29.394,22.676 29.293,22.246 29.257,21.813 		"/>
	</g>
</g>
</svg>
