<?xml version="1.0" encoding="utf-8"?>
<!-- Generator: Adobe Illustrator 14.0.0, SVG Export Plug-In . SVG Version: 6.00 Build 43363)  -->
<!DOCTYPE svg PUBLIC "-//W3C//DTD SVG 1.1//EN" "http://www.w3.org/Graphics/SVG/1.1/DTD/svg11.dtd">
<svg version="1.1" id="Layer_1" xmlns="http://www.w3.org/2000/svg" xmlns:xlink="http://www.w3.org/1999/xlink" x="0px" y="0px"
	 width="320px" height="160px" viewBox="0 0 320 160" enable-background="new 0 0 320 160" xml:space="preserve">
<g id="static">
	<path fill="none" stroke="#293763" stroke-width="1.5" stroke-linecap="square" stroke-linejoin="bevel" d="M19.629,81.975
		c0-6.021,6.65-10.896,14.854-10.896c8.205,0,14.854,4.88,14.854,10.896"/>
	
		<line fill="none" stroke="#DFD9FF" stroke-width="1.5" stroke-linecap="square" x1="164.441" y1="109.656" x2="164.441" y2="128.082"/>
	
		<line fill="none" stroke="#00ED95" stroke-width="1.5" stroke-linecap="square" x1="105.16" y1="109.656" x2="105.16" y2="128.082"/>
	<polyline fill="none" stroke="#00ED95" stroke-width="1.5" stroke-linecap="square" points="88.577,128.082 88.577,109.656 
		89.499,109.656 93.642,120.712 94.565,120.712 98.71,109.656 99.632,109.656 99.632,128.082 	"/>
	<path fill="none" stroke="#00ED95" stroke-width="1.5" stroke-linecap="square" d="M115.162,128.082
		c2.545,0,4.607-2.062,4.607-4.605v-9.213c0-2.547-2.062-4.604-4.607-4.604h-4.606v18.426L115.162,128.082L115.162,128.082z"/>
	<g>
		<path fill="none" stroke="#DFD9FF" stroke-width="1.5" stroke-linecap="square" d="M178.113,123.477
			c0,2.545-2.065,4.605-4.606,4.605c-2.544,0-4.608-2.061-4.608-4.605v-9.213c0-2.547,2.064-4.604,4.608-4.604
			c2.541,0,4.606,2.061,4.606,4.604"/>
		<polyline fill="none" stroke="#DFD9FF" stroke-width="1.5" stroke-linecap="square" points="172.585,118.867 178.113,118.867 
			178.113,128.082 		"/>
	</g>
	<path fill="none" stroke="#698EFF" stroke-width="1.5" stroke-linecap="square" d="M27.098,114.723v8.293
		c0,2.797,2.269,5.066,5.067,5.066c2.797,0,5.067-2.27,5.067-5.066l0,0l0,0v-8.293c0-2.799-2.269-5.062-5.067-5.062
		S27.098,111.924,27.098,114.723z"/>
	<g>
		
			<line fill="none" stroke="#DFD9FF" stroke-width="1.5" stroke-linecap="square" x1="182.779" y1="109.656" x2="182.779" y2="128.082"/>
		
			<line fill="none" stroke="#DFD9FF" stroke-width="1.5" stroke-linecap="square" x1="191.992" y1="109.656" x2="191.992" y2="128.082"/>
		
			<line fill="none" stroke="#DFD9FF" stroke-width="1.5" stroke-linecap="square" x1="182.637" y1="118.869" x2="191.85" y2="118.869"/>
	</g>
	<g>
		
			<line fill="none" stroke="#DFD9FF" stroke-width="1.5" stroke-linecap="square" x1="150.212" y1="109.656" x2="150.212" y2="128.082"/>
		
			<line fill="none" stroke="#DFD9FF" stroke-width="1.5" stroke-linecap="square" x1="159.441" y1="109.656" x2="159.441" y2="128.082"/>
		
			<line fill="none" stroke="#DFD9FF" stroke-width="1.5" stroke-linecap="square" x1="150.212" y1="118.869" x2="159.441" y2="118.869"/>
	</g>
	<polyline fill="none" stroke="#698EFF" stroke-width="1.5" stroke-linecap="square" points="15.998,109.656 15.998,128.082 
		24.289,128.082 	"/>
	<polyline fill="none" stroke="#698EFF" stroke-width="1.5" stroke-linecap="square" points="40.257,109.656 40.257,110.578 
		43.943,128.082 44.864,128.082 48.549,109.656 52.236,128.082 53.157,128.082 56.841,110.578 56.841,109.656 	"/>
	
		<rect x="244.952" y="109.584" fill="none" stroke="#AEB1DC" stroke-width="1.5" stroke-linecap="square" width="59.812" height="18.425"/>
	<g>
		<g id="a_19_">
			<polyline fill="none" stroke="#AEB1DC" stroke-width="1.5" stroke-linecap="square" points="278.761,124.538 278.761,124.255 
				281.881,113.199 282.445,113.199 285.564,124.255 285.564,124.538 			"/>
			
				<line fill="none" stroke="#AEB1DC" stroke-width="1.5" stroke-linecap="square" x1="279.896" y1="120.57" x2="284.43" y2="120.57"/>
		</g>
		<g id="c_12_">
			<path fill="none" stroke="#AEB1DC" stroke-width="1.5" stroke-linecap="square" d="M261.834,121.703
				c0,1.564-1.27,2.835-2.835,2.835s-2.835-1.271-2.835-2.835v-5.67c0-1.564,1.27-2.834,2.835-2.834s2.835,1.27,2.835,2.834"/>
		</g>
		<g id="e_54_">
			<polyline fill="none" stroke="#AEB1DC" stroke-width="1.5" stroke-linecap="square" points="276.74,124.538 271.635,124.538 
				271.635,113.199 276.74,113.199 			"/>
			
				<line fill="none" stroke="#AEB1DC" stroke-width="1.5" stroke-linecap="square" x1="271.635" y1="118.868" x2="276.173" y2="118.868"/>
		</g>
		<polyline id="n_24_" fill="none" stroke="#AEB1DC" stroke-width="1.5" stroke-linecap="square" points="287.703,124.538 
			287.703,113.199 288.27,113.199 292.807,124.538 293.373,124.538 293.373,113.199 		"/>
		<polyline id="l_25_" fill="none" stroke="#AEB1DC" stroke-width="1.5" stroke-linecap="square" points="264.374,113.199 
			264.374,124.538 269.475,124.538 		"/>
	</g>
</g>
<g id="clean">
	<polyline fill="none" stroke="#FF3A5D" stroke-width="1.5" stroke-linecap="square" points="224.986,125.396 225.422,125.396 
		232.214,118.868 225.422,112.341 224.77,112.341 	"/>
	
		<line fill="none" stroke="#FF3A5D" stroke-width="1.5" stroke-linecap="square" x1="208.066" y1="118.868" x2="225.268" y2="118.868"/>
</g>
<g id="midbot">
	
		<line fill="none" stroke="#006E46" stroke-width="1.5" stroke-linecap="square" stroke-linejoin="bevel" x1="104.112" y1="73.682" x2="87.4" y2="82.965"/>
	
		<line fill="none" stroke="#006E46" stroke-width="1.5" stroke-linecap="square" stroke-linejoin="bevel" x1="120.823" y1="82.965" x2="104.112" y2="73.682"/>
	
		<polyline id="_x3C_path_x3E_" fill="none" stroke="#00ED95" stroke-width="1.5" stroke-linecap="square" stroke-linejoin="bevel" points="
		87.4,82.965 104.112,91.868 120.823,82.965 	"/>
</g>
<path id="lowbot" fill="none" stroke="#698EFF" stroke-width="1.5" stroke-linecap="square" stroke-linejoin="bevel" d="
	M49.444,81.445c0,6.021-6.697,10.902-14.961,10.902c-8.263,0-14.961-4.889-14.961-10.902"/>
<g id="highbot">
	
		<line fill="none" stroke="#656579" stroke-width="1.5" stroke-linecap="round" stroke-linejoin="round" x1="171.609" y1="73.682" x2="155.065" y2="82.965"/>
	
		<line fill="none" stroke="#656579" stroke-width="1.5" stroke-linecap="round" stroke-linejoin="round" x1="187.857" y1="82.965" x2="171.609" y2="73.682"/>
	
		<polyline id="_x3C_path_x3E__1_" fill="none" stroke="#FFFFFF" stroke-width="1.5" stroke-linecap="round" stroke-linejoin="round" points="
		155.065,82.965 171.609,91.868 188.001,82.965 	"/>
</g>
<polygon id="midtop" fill="none" stroke="#00ED95" stroke-width="1.5" stroke-linecap="round" stroke-linejoin="round" points="
	87.4,82.965 104.112,91.868 120.823,82.965 104.112,73.682 "/>
<g id="lowtop">
	<path fill="none" stroke="#698EFF" stroke-width="1.5" stroke-linecap="square" stroke-linejoin="bevel" d="M19.487,81
		c0-5.483,6.715-9.926,14.995-9.926c8.284,0,14.997,4.445,14.997,9.926"/>
	<path fill="none" stroke="#698EFF" stroke-width="1.5" stroke-linecap="square" stroke-linejoin="bevel" d="M49.444,82.075
		c0,5.481-6.697,9.93-14.961,9.93c-8.263,0-14.961-4.446-14.961-9.93"/>
</g>
<g id="max">
	<g>
		<polyline fill="none" stroke="#FF3A5D" stroke-width="1.5" stroke-linecap="square" points="261.766,29.445 261.764,29.162 
			264.883,18.106 265.45,18.106 268.566,29.162 268.566,29.445 		"/>
		
			<line fill="none" stroke="#FF3A5D" stroke-width="1.5" stroke-linecap="square" x1="262.896" y1="25.478" x2="267.432" y2="25.478"/>
	</g>
	<polyline id="m_11_" fill="none" stroke="#FF3A5D" stroke-width="1.5" stroke-linecap="square" points="251.9,29.445 251.9,18.106 
		252.469,18.106 255.02,24.911 255.587,24.911 258.139,18.106 258.706,18.106 258.706,29.445 	"/>
	<g>
		<polyline fill="none" stroke="#FF3A5D" stroke-width="1.5" stroke-linecap="square" points="288.782,29.445 283.68,29.445 
			283.68,18.106 288.782,18.106 		"/>
		
			<line fill="none" stroke="#FF3A5D" stroke-width="1.5" stroke-linecap="square" x1="283.68" y1="23.775" x2="288.215" y2="23.775"/>
		<g>
			<path fill="none" stroke="#FF3A5D" stroke-width="1.5" stroke-linecap="square" d="M291.255,21.225v5.102
				c0,1.723,1.396,3.118,3.117,3.118c1.724,0,3.117-1.396,3.117-3.118l0,0l0,0v-5.102c0-1.722-1.396-3.118-3.117-3.118
				C292.652,18.106,291.255,19.502,291.255,21.225L291.255,21.225L291.255,21.225L291.255,21.225z"/>
			<polyline fill="none" stroke="#FF3A5D" stroke-width="1.5" stroke-linecap="square" points="295.223,26.895 295.223,27.178 
				297.492,29.196 297.492,29.445 			"/>
		</g>
	</g>
	<g>
		<polyline fill="none" stroke="#FF3A5D" stroke-width="1.5" stroke-linecap="square" points="270.904,18.106 270.904,18.39 
			277.141,29.162 277.141,29.445 		"/>
		<polyline fill="none" stroke="#FF3A5D" stroke-width="1.5" stroke-linecap="square" points="270.904,29.445 270.904,29.162 
			277.141,18.39 277.141,18.106 		"/>
	</g>
	
		<rect x="244.952" y="14.562" fill="none" stroke="#FF3A5D" stroke-width="1.5" stroke-linecap="square" width="59.812" height="18.425"/>
</g>
</svg>
