<?xml version="1.0" encoding="utf-8"?>
<!-- Generator: Adobe Illustrator 14.0.0, SVG Export Plug-In . SVG Version: 6.00 Build 43363)  -->
<!DOCTYPE svg PUBLIC "-//W3C//DTD SVG 1.1//EN" "http://www.w3.org/Graphics/SVG/1.1/DTD/svg11.dtd">
<svg version="1.1" id="Layer_1" xmlns="http://www.w3.org/2000/svg" xmlns:xlink="http://www.w3.org/1999/xlink" x="0px" y="0px"
	 width="320px" height="160px" viewBox="0 0 320 160" enable-background="new 0 0 320 160" xml:space="preserve">
<g id="I">
	<g id="op83">
		
			<line fill="none" stroke="#1D2040" stroke-width="1.5" stroke-linecap="round" stroke-linejoin="round" x1="230.337" y1="40.229" x2="205.359" y2="52.717"/>
		
			<line fill="none" stroke="#1D2040" stroke-width="1.5" stroke-linecap="round" stroke-linejoin="round" x1="233.111" y1="4.148" x2="233.111" y2="29.127"/>
		
			<line fill="none" stroke="#698EFF" stroke-width="1.5" stroke-linecap="round" stroke-linejoin="round" x1="233.111" y1="66.593" x2="233.111" y2="31.901"/>
		
			<line fill="none" stroke="#1D2040" stroke-width="1.5" stroke-linecap="round" stroke-linejoin="round" x1="260.864" y1="52.717" x2="235.887" y2="40.229"/>
		<polygon fill="none" stroke="#698EFF" stroke-width="1.5" stroke-linecap="round" stroke-linejoin="round" points="
			205.359,18.025 233.111,31.901 260.864,18.025 233.111,4.148 		"/>
		<polyline fill="none" stroke="#698EFF" stroke-width="1.5" stroke-linecap="round" stroke-linejoin="round" points="
			205.359,18.025 205.359,52.717 233.111,66.593 260.864,52.717 260.864,18.025 		"/>
	</g>
	<g id="op82">
		
			<line fill="none" stroke="#1D2040" stroke-width="1.5" stroke-linecap="round" stroke-linejoin="round" x1="182.746" y1="64.026" x2="157.766" y2="76.518"/>
		
			<line fill="none" stroke="#1D2040" stroke-width="1.5" stroke-linecap="round" stroke-linejoin="round" x1="185.52" y1="27.946" x2="185.52" y2="52.924"/>
		
			<line fill="none" stroke="#698EFF" stroke-width="1.5" stroke-linecap="round" stroke-linejoin="round" x1="185.52" y1="90.4" x2="185.52" y2="55.699"/>
		
			<line fill="none" stroke="#1D2040" stroke-width="1.5" stroke-linecap="round" stroke-linejoin="round" x1="213.273" y1="76.518" x2="188.296" y2="64.026"/>
		<polygon fill="none" stroke="#698EFF" stroke-width="1.5" stroke-linecap="round" stroke-linejoin="round" points="
			157.766,41.823 185.52,55.699 213.273,41.823 185.52,27.946 		"/>
		<polyline fill="none" stroke="#698EFF" stroke-width="1.5" stroke-linecap="round" stroke-linejoin="round" points="
			157.766,41.823 157.766,76.518 185.52,90.4 213.273,76.518 213.273,41.823 		"/>
	</g>
	<g id="op81">
		
			<line fill="none" stroke="#1D2040" stroke-width="1.5" stroke-linecap="round" stroke-linejoin="round" x1="135.154" y1="87.834" x2="110.177" y2="100.322"/>
		
			<line fill="none" stroke="#1D2040" stroke-width="1.5" stroke-linecap="round" stroke-linejoin="round" x1="137.93" y1="51.744" x2="137.93" y2="76.727"/>
		
			<line fill="none" stroke="#698EFF" stroke-width="1.5" stroke-linecap="round" stroke-linejoin="round" x1="137.93" y1="114.199" x2="137.93" y2="79.505"/>
		
			<line fill="none" stroke="#1D2040" stroke-width="1.5" stroke-linecap="round" stroke-linejoin="round" x1="165.68" y1="100.322" x2="140.706" y2="87.834"/>
		<polygon fill="none" stroke="#698EFF" stroke-width="1.5" stroke-linecap="round" stroke-linejoin="round" points="
			110.177,65.621 137.93,79.505 165.68,65.621 137.93,51.744 		"/>
		<polyline fill="none" stroke="#698EFF" stroke-width="1.5" stroke-linecap="round" stroke-linejoin="round" points="
			110.177,65.621 110.177,100.322 137.93,114.199 165.68,100.322 165.68,65.621 		"/>
	</g>
	<g id="op80">
		
			<line fill="none" stroke="#1D2040" stroke-width="1.5" stroke-linecap="round" stroke-linejoin="round" x1="87.563" y1="111.631" x2="62.586" y2="124.119"/>
		
			<line fill="none" stroke="#1D2040" stroke-width="1.5" stroke-linecap="round" stroke-linejoin="round" x1="90.339" y1="75.543" x2="90.339" y2="100.529"/>
		
			<line fill="none" stroke="#698EFF" stroke-width="1.5" stroke-linecap="round" stroke-linejoin="round" x1="90.339" y1="137.998" x2="90.339" y2="103.303"/>
		
			<line fill="none" stroke="#1D2040" stroke-width="1.5" stroke-linecap="round" stroke-linejoin="round" x1="118.092" y1="124.119" x2="93.113" y2="111.631"/>
		<polygon fill="none" stroke="#698EFF" stroke-width="1.5" stroke-linecap="round" stroke-linejoin="round" points="62.586,89.428 
			90.339,103.303 118.092,89.428 90.339,75.543 		"/>
		<polyline fill="none" stroke="#698EFF" stroke-width="1.5" stroke-linecap="round" stroke-linejoin="round" points="
			62.586,89.428 62.586,124.119 90.339,137.998 118.092,124.119 118.092,89.428 		"/>
	</g>
</g>
<g id="H">
	<g id="op73">
		
			<line fill="none" stroke="#1D2040" stroke-width="1.5" stroke-linecap="round" stroke-linejoin="round" x1="116.462" y1="56.84" x2="91.484" y2="69.33"/>
		
			<line fill="none" stroke="#1D2040" stroke-width="1.5" stroke-linecap="round" stroke-linejoin="round" x1="119.238" y1="20.761" x2="119.238" y2="45.739"/>
		
			<line fill="none" stroke="#698EFF" stroke-width="1.5" stroke-linecap="round" stroke-linejoin="round" x1="119.238" y1="83.217" x2="119.238" y2="48.515"/>
		
			<line fill="none" stroke="#1D2040" stroke-width="1.5" stroke-linecap="round" stroke-linejoin="round" x1="146.991" y1="69.33" x2="122.013" y2="56.84"/>
		<polygon fill="none" stroke="#698EFF" stroke-width="1.5" stroke-linecap="round" stroke-linejoin="round" points="91.484,34.639 
			119.238,48.515 146.991,34.639 119.238,20.761 		"/>
		<polyline fill="none" stroke="#698EFF" stroke-width="1.5" stroke-linecap="round" stroke-linejoin="round" points="
			91.484,34.639 91.484,69.33 119.238,83.217 146.991,69.33 146.991,34.639 		"/>
	</g>
	<g id="op72">
		
			<line fill="none" stroke="#1D2040" stroke-width="1.5" stroke-linecap="round" stroke-linejoin="round" x1="211.648" y1="56.841" x2="186.67" y2="69.33"/>
		
			<line fill="none" stroke="#1D2040" stroke-width="1.5" stroke-linecap="round" stroke-linejoin="round" x1="214.422" y1="20.761" x2="214.422" y2="45.739"/>
		
			<line fill="none" stroke="#698EFF" stroke-width="1.5" stroke-linecap="round" stroke-linejoin="round" x1="214.422" y1="83.219" x2="214.422" y2="48.515"/>
		
			<line fill="none" stroke="#1D2040" stroke-width="1.5" stroke-linecap="round" stroke-linejoin="round" x1="242.175" y1="69.33" x2="217.2" y2="56.841"/>
		<polygon fill="none" stroke="#698EFF" stroke-width="1.5" stroke-linecap="round" stroke-linejoin="round" points="186.67,34.639 
			214.422,48.515 242.175,34.639 214.422,20.761 		"/>
		<polyline fill="none" stroke="#698EFF" stroke-width="1.5" stroke-linecap="round" stroke-linejoin="round" points="
			186.67,34.639 186.67,69.33 214.422,83.219 242.175,69.33 242.175,34.639 		"/>
	</g>
	<g id="op71">
		
			<line fill="none" stroke="#1D2040" stroke-width="1.5" stroke-linecap="round" stroke-linejoin="round" x1="164.055" y1="80.643" x2="139.077" y2="93.139"/>
		
			<line fill="none" stroke="#1D2040" stroke-width="1.5" stroke-linecap="round" stroke-linejoin="round" x1="166.832" y1="44.559" x2="166.832" y2="69.538"/>
		
			<line fill="none" stroke="#698EFF" stroke-width="1.5" stroke-linecap="round" stroke-linejoin="round" x1="166.832" y1="107.016" x2="166.832" y2="72.312"/>
		
			<line fill="none" stroke="#1D2040" stroke-width="1.5" stroke-linecap="round" stroke-linejoin="round" x1="194.584" y1="93.139" x2="169.607" y2="80.643"/>
		<polygon fill="none" stroke="#698EFF" stroke-width="1.5" stroke-linecap="round" stroke-linejoin="round" points="
			139.077,58.436 166.832,72.312 194.584,58.436 166.832,44.559 		"/>
		<polyline fill="none" stroke="#698EFF" stroke-width="1.5" stroke-linecap="round" stroke-linejoin="round" points="
			139.077,58.436 139.077,93.139 166.832,107.016 194.584,93.139 194.584,58.436 		"/>
	</g>
	<g id="op70">
		
			<line fill="none" stroke="#1D2040" stroke-width="1.5" stroke-linecap="round" stroke-linejoin="round" x1="116.462" y1="104.445" x2="91.484" y2="116.936"/>
		
			<line fill="none" stroke="#1D2040" stroke-width="1.5" stroke-linecap="round" stroke-linejoin="round" x1="119.238" y1="68.357" x2="119.238" y2="93.346"/>
		
			<line fill="none" stroke="#698EFF" stroke-width="1.5" stroke-linecap="round" stroke-linejoin="round" x1="119.238" y1="130.811" x2="119.238" y2="96.118"/>
		
			<line fill="none" stroke="#1D2040" stroke-width="1.5" stroke-linecap="round" stroke-linejoin="round" x1="146.991" y1="116.936" x2="122.013" y2="104.445"/>
		<polygon fill="none" stroke="#698EFF" stroke-width="1.5" stroke-linecap="round" stroke-linejoin="round" points="91.484,82.242 
			119.238,96.118 146.991,82.242 119.238,68.357 		"/>
		<polyline fill="none" stroke="#698EFF" stroke-width="1.5" stroke-linecap="round" stroke-linejoin="round" points="
			91.484,82.242 91.484,116.936 119.238,130.811 146.991,116.936 146.991,82.242 		"/>
	</g>
</g>
<g id="G">
	<g id="op63">
		
			<line fill="none" stroke="#1D2040" stroke-width="1.5" stroke-linecap="round" stroke-linejoin="round" x1="158.037" y1="54.202" x2="133.062" y2="66.692"/>
		
			<line fill="none" stroke="#1D2040" stroke-width="1.5" stroke-linecap="round" stroke-linejoin="round" x1="160.812" y1="18.122" x2="160.812" y2="43.1"/>
		
			<line fill="none" stroke="#698EFF" stroke-width="1.5" stroke-linecap="round" stroke-linejoin="round" x1="160.812" y1="80.581" x2="160.812" y2="45.875"/>
		
			<line fill="none" stroke="#1D2040" stroke-width="1.5" stroke-linecap="round" stroke-linejoin="round" x1="188.564" y1="66.692" x2="163.589" y2="54.202"/>
		<polygon fill="none" stroke="#698EFF" stroke-width="1.5" stroke-linecap="round" stroke-linejoin="round" points="
			133.062,31.999 160.812,45.875 188.564,31.999 160.812,18.122 		"/>
		<polyline fill="none" stroke="#698EFF" stroke-width="1.5" stroke-linecap="round" stroke-linejoin="round" points="
			133.062,31.999 133.062,66.692 160.812,80.581 188.564,66.692 188.564,31.999 		"/>
	</g>
	<g id="op62">
		
			<line fill="none" stroke="#1D2040" stroke-width="1.5" stroke-linecap="round" stroke-linejoin="round" x1="110.447" y1="78.011" x2="85.469" y2="90.501"/>
		
			<line fill="none" stroke="#1D2040" stroke-width="1.5" stroke-linecap="round" stroke-linejoin="round" x1="113.223" y1="41.92" x2="113.223" y2="66.899"/>
		
			<line fill="none" stroke="#698EFF" stroke-width="1.5" stroke-linecap="round" stroke-linejoin="round" x1="113.223" y1="104.378" x2="113.223" y2="69.674"/>
		
			<line fill="none" stroke="#1D2040" stroke-width="1.5" stroke-linecap="round" stroke-linejoin="round" x1="140.976" y1="90.501" x2="115.998" y2="78.011"/>
		<polygon fill="none" stroke="#698EFF" stroke-width="1.5" stroke-linecap="round" stroke-linejoin="round" points="85.469,55.797 
			113.223,69.674 140.976,55.797 113.223,41.92 		"/>
		<polyline fill="none" stroke="#698EFF" stroke-width="1.5" stroke-linecap="round" stroke-linejoin="round" points="
			85.469,55.797 85.469,90.501 113.223,104.378 140.976,90.501 140.976,55.797 		"/>
	</g>
	<g id="op61">
		
			<line fill="none" stroke="#1D2040" stroke-width="1.5" stroke-linecap="round" stroke-linejoin="round" x1="205.63" y1="78.011" x2="180.65" y2="90.501"/>
		
			<line fill="none" stroke="#1D2040" stroke-width="1.5" stroke-linecap="round" stroke-linejoin="round" x1="208.402" y1="41.92" x2="208.402" y2="66.899"/>
		
			<line fill="none" stroke="#698EFF" stroke-width="1.5" stroke-linecap="round" stroke-linejoin="round" x1="208.402" y1="104.378" x2="208.402" y2="69.674"/>
		
			<line fill="none" stroke="#1D2040" stroke-width="1.5" stroke-linecap="round" stroke-linejoin="round" x1="236.156" y1="90.501" x2="211.182" y2="78.011"/>
		<polygon fill="none" stroke="#698EFF" stroke-width="1.5" stroke-linecap="round" stroke-linejoin="round" points="180.65,55.797 
			208.402,69.674 236.156,55.797 208.402,41.92 		"/>
		<polyline fill="none" stroke="#698EFF" stroke-width="1.5" stroke-linecap="round" stroke-linejoin="round" points="
			180.65,55.797 180.65,90.501 208.402,104.378 236.156,90.501 236.156,55.797 		"/>
	</g>
	<g id="op60">
		
			<line fill="none" stroke="#1D2040" stroke-width="1.5" stroke-linecap="round" stroke-linejoin="round" x1="158.037" y1="101.811" x2="133.062" y2="114.298"/>
		
			<line fill="none" stroke="#1D2040" stroke-width="1.5" stroke-linecap="round" stroke-linejoin="round" x1="160.812" y1="65.719" x2="160.812" y2="90.708"/>
		
			<line fill="none" stroke="#698EFF" stroke-width="1.5" stroke-linecap="round" stroke-linejoin="round" x1="160.812" y1="128.176" x2="160.812" y2="93.482"/>
		
			<line fill="none" stroke="#1D2040" stroke-width="1.5" stroke-linecap="round" stroke-linejoin="round" x1="188.564" y1="114.298" x2="163.589" y2="101.811"/>
		<polygon fill="none" stroke="#698EFF" stroke-width="1.5" stroke-linecap="round" stroke-linejoin="round" points="
			133.062,79.605 160.812,93.482 188.564,79.605 160.812,65.719 		"/>
		<polyline fill="none" stroke="#698EFF" stroke-width="1.5" stroke-linecap="round" stroke-linejoin="round" points="
			133.062,79.605 133.062,114.298 160.812,128.176 188.564,114.298 188.564,79.605 		"/>
	</g>
</g>
<g id="F">
	<g id="op53">
		
			<line fill="none" stroke="#1D2040" stroke-width="1.5" stroke-linecap="round" stroke-linejoin="round" x1="200.51" y1="52.707" x2="175.531" y2="65.196"/>
		
			<line fill="none" stroke="#1D2040" stroke-width="1.5" stroke-linecap="round" stroke-linejoin="round" x1="203.285" y1="16.628" x2="203.285" y2="41.606"/>
		
			<line fill="none" stroke="#698EFF" stroke-width="1.5" stroke-linecap="round" stroke-linejoin="round" x1="203.285" y1="79.078" x2="203.285" y2="44.38"/>
		
			<line fill="none" stroke="#1D2040" stroke-width="1.5" stroke-linecap="round" stroke-linejoin="round" x1="231.037" y1="65.196" x2="206.059" y2="52.707"/>
		<polygon fill="none" stroke="#698EFF" stroke-width="1.5" stroke-linecap="round" stroke-linejoin="round" points="
			175.531,30.504 203.285,44.38 231.037,30.504 203.285,16.628 		"/>
		<polyline fill="none" stroke="#698EFF" stroke-width="1.5" stroke-linecap="round" stroke-linejoin="round" points="
			175.531,30.504 175.531,65.196 203.285,79.078 231.037,65.196 231.037,30.504 		"/>
	</g>
	<g id="op52">
		
			<line fill="none" stroke="#1D2040" stroke-width="1.5" stroke-linecap="round" stroke-linejoin="round" x1="152.917" y1="76.505" x2="127.94" y2="89.003"/>
		
			<line fill="none" stroke="#1D2040" stroke-width="1.5" stroke-linecap="round" stroke-linejoin="round" x1="155.691" y1="40.425" x2="155.691" y2="65.404"/>
		
			<line fill="none" stroke="#698EFF" stroke-width="1.5" stroke-linecap="round" stroke-linejoin="round" x1="155.691" y1="102.881" x2="155.691" y2="68.178"/>
		
			<line fill="none" stroke="#1D2040" stroke-width="1.5" stroke-linecap="round" stroke-linejoin="round" x1="183.445" y1="89.003" x2="158.469" y2="76.505"/>
		<polygon fill="none" stroke="#698EFF" stroke-width="1.5" stroke-linecap="round" stroke-linejoin="round" points="127.94,54.302 
			155.691,68.178 183.445,54.302 155.691,40.425 		"/>
		<polyline fill="none" stroke="#698EFF" stroke-width="1.5" stroke-linecap="round" stroke-linejoin="round" points="
			127.94,54.302 127.94,89.003 155.691,102.881 183.445,89.003 183.445,54.302 		"/>
	</g>
	<g id="op51">
		
			<line fill="none" stroke="#1D2040" stroke-width="1.5" stroke-linecap="round" stroke-linejoin="round" x1="200.509" y1="100.311" x2="175.529" y2="112.801"/>
		
			<line fill="none" stroke="#1D2040" stroke-width="1.5" stroke-linecap="round" stroke-linejoin="round" x1="203.283" y1="64.222" x2="203.283" y2="89.21"/>
		
			<line fill="none" stroke="#698EFF" stroke-width="1.5" stroke-linecap="round" stroke-linejoin="round" x1="203.283" y1="126.678" x2="203.283" y2="91.982"/>
		
			<line fill="none" stroke="#1D2040" stroke-width="1.5" stroke-linecap="round" stroke-linejoin="round" x1="231.037" y1="112.801" x2="206.059" y2="100.311"/>
		<polygon fill="none" stroke="#698EFF" stroke-width="1.5" stroke-linecap="round" stroke-linejoin="round" points="
			175.529,78.103 203.283,91.982 231.037,78.103 203.283,64.222 		"/>
		<polyline fill="none" stroke="#698EFF" stroke-width="1.5" stroke-linecap="round" stroke-linejoin="round" points="
			175.529,78.103 175.529,112.801 203.283,126.678 231.037,112.801 231.037,78.103 		"/>
	</g>
	<g id="op50">
		
			<line fill="none" stroke="#1D2040" stroke-width="1.5" stroke-linecap="round" stroke-linejoin="round" x1="105.325" y1="100.311" x2="80.348" y2="112.801"/>
		
			<line fill="none" stroke="#1D2040" stroke-width="1.5" stroke-linecap="round" stroke-linejoin="round" x1="108.101" y1="64.223" x2="108.101" y2="89.211"/>
		
			<line fill="none" stroke="#698EFF" stroke-width="1.5" stroke-linecap="round" stroke-linejoin="round" x1="108.101" y1="126.68" x2="108.101" y2="91.984"/>
		
			<line fill="none" stroke="#1D2040" stroke-width="1.5" stroke-linecap="round" stroke-linejoin="round" x1="135.854" y1="112.801" x2="110.875" y2="100.311"/>
		<polygon fill="none" stroke="#698EFF" stroke-width="1.5" stroke-linecap="round" stroke-linejoin="round" points="80.348,78.103 
			108.101,91.984 135.854,78.103 108.101,64.223 		"/>
		<polyline fill="none" stroke="#698EFF" stroke-width="1.5" stroke-linecap="round" stroke-linejoin="round" points="
			80.348,78.103 80.348,112.801 108.101,126.68 135.854,112.801 135.854,78.103 		"/>
	</g>
</g>
<g id="E">
	<g id="op43">
		
			<line fill="none" stroke="#1D2040" stroke-width="1.5" stroke-linecap="round" stroke-linejoin="round" x1="94.767" y1="47.016" x2="69.79" y2="59.503"/>
		
			<line fill="none" stroke="#1D2040" stroke-width="1.5" stroke-linecap="round" stroke-linejoin="round" x1="97.543" y1="10.934" x2="97.543" y2="35.913"/>
		
			<line fill="none" stroke="#698EFF" stroke-width="1.5" stroke-linecap="round" stroke-linejoin="round" x1="97.543" y1="73.38" x2="97.543" y2="38.687"/>
		
			<line fill="none" stroke="#1D2040" stroke-width="1.5" stroke-linecap="round" stroke-linejoin="round" x1="125.295" y1="59.503" x2="100.317" y2="47.016"/>
		<polygon fill="none" stroke="#698EFF" stroke-width="1.5" stroke-linecap="round" stroke-linejoin="round" points="69.79,24.811 
			97.543,38.687 125.295,24.811 97.543,10.934 		"/>
		<polyline fill="none" stroke="#698EFF" stroke-width="1.5" stroke-linecap="round" stroke-linejoin="round" points="69.79,24.811 
			69.79,59.503 97.543,73.38 125.295,59.503 125.295,24.811 		"/>
	</g>
	<g id="op42">
		
			<line fill="none" stroke="#1D2040" stroke-width="1.5" stroke-linecap="round" stroke-linejoin="round" x1="142.358" y1="70.812" x2="117.382" y2="83.305"/>
		
			<line fill="none" stroke="#1D2040" stroke-width="1.5" stroke-linecap="round" stroke-linejoin="round" x1="145.135" y1="34.732" x2="145.135" y2="59.71"/>
		
			<line fill="none" stroke="#698EFF" stroke-width="1.5" stroke-linecap="round" stroke-linejoin="round" x1="145.135" y1="97.186" x2="145.135" y2="62.485"/>
		
			<line fill="none" stroke="#1D2040" stroke-width="1.5" stroke-linecap="round" stroke-linejoin="round" x1="172.885" y1="83.305" x2="147.909" y2="70.812"/>
		<polygon fill="none" stroke="#698EFF" stroke-width="1.5" stroke-linecap="round" stroke-linejoin="round" points="
			117.382,48.609 145.135,62.485 172.885,48.609 145.135,34.732 		"/>
		<polyline fill="none" stroke="#698EFF" stroke-width="1.5" stroke-linecap="round" stroke-linejoin="round" points="
			117.382,48.609 117.382,83.305 145.135,97.186 172.885,83.305 172.885,48.609 		"/>
	</g>
	<g id="op41">
		
			<line fill="none" stroke="#1D2040" stroke-width="1.5" stroke-linecap="round" stroke-linejoin="round" x1="213.736" y1="86.678" x2="188.759" y2="99.166"/>
		
			<line fill="none" stroke="#1D2040" stroke-width="1.5" stroke-linecap="round" stroke-linejoin="round" x1="216.51" y1="50.591" x2="216.51" y2="75.568"/>
		
			<line fill="none" stroke="#698EFF" stroke-width="1.5" stroke-linecap="round" stroke-linejoin="round" x1="216.51" y1="113.045" x2="216.51" y2="78.343"/>
		
			<line fill="none" stroke="#1D2040" stroke-width="1.5" stroke-linecap="round" stroke-linejoin="round" x1="244.264" y1="99.166" x2="219.289" y2="86.678"/>
		<polygon fill="none" stroke="#698EFF" stroke-width="1.5" stroke-linecap="round" stroke-linejoin="round" points="
			188.759,64.467 216.51,78.343 244.264,64.467 216.51,50.591 		"/>
		<polyline fill="none" stroke="#698EFF" stroke-width="1.5" stroke-linecap="round" stroke-linejoin="round" points="
			188.759,64.467 188.759,99.166 216.51,113.045 244.264,99.166 244.264,64.467 		"/>
	</g>
	<g id="op40">
		
			<line fill="none" stroke="#1D2040" stroke-width="1.5" stroke-linecap="round" stroke-linejoin="round" x1="166.145" y1="110.475" x2="141.169" y2="122.965"/>
		
			<line fill="none" stroke="#1D2040" stroke-width="1.5" stroke-linecap="round" stroke-linejoin="round" x1="168.921" y1="74.389" x2="168.921" y2="99.375"/>
		
			<line fill="none" stroke="#698EFF" stroke-width="1.5" stroke-linecap="round" stroke-linejoin="round" x1="168.921" y1="136.842" x2="168.921" y2="102.148"/>
		
			<line fill="none" stroke="#1D2040" stroke-width="1.5" stroke-linecap="round" stroke-linejoin="round" x1="196.673" y1="122.965" x2="171.695" y2="110.475"/>
		<polygon fill="none" stroke="#698EFF" stroke-width="1.5" stroke-linecap="round" stroke-linejoin="round" points="
			141.169,88.273 168.921,102.148 196.673,88.273 168.921,74.389 		"/>
		<polyline fill="none" stroke="#698EFF" stroke-width="1.5" stroke-linecap="round" stroke-linejoin="round" points="
			141.169,88.273 141.169,122.965 168.921,136.842 196.673,122.965 196.673,88.273 		"/>
	</g>
</g>
<g id="D">
	<g id="op33">
		
			<line fill="none" stroke="#1D2040" stroke-width="1.5" stroke-linecap="round" stroke-linejoin="round" x1="107.966" y1="53.038" x2="82.989" y2="65.527"/>
		
			<line fill="none" stroke="#1D2040" stroke-width="1.5" stroke-linecap="round" stroke-linejoin="round" x1="110.742" y1="16.959" x2="110.742" y2="41.937"/>
		
			<line fill="none" stroke="#698EFF" stroke-width="1.5" stroke-linecap="round" stroke-linejoin="round" x1="110.742" y1="79.41" x2="110.742" y2="44.711"/>
		
			<line fill="none" stroke="#1D2040" stroke-width="1.5" stroke-linecap="round" stroke-linejoin="round" x1="138.495" y1="65.527" x2="113.515" y2="53.038"/>
		<polygon fill="none" stroke="#698EFF" stroke-width="1.5" stroke-linecap="round" stroke-linejoin="round" points="82.989,30.835 
			110.742,44.711 138.495,30.835 110.742,16.959 		"/>
		<polyline fill="none" stroke="#698EFF" stroke-width="1.5" stroke-linecap="round" stroke-linejoin="round" points="
			82.989,30.835 82.989,65.527 110.742,79.41 138.495,65.527 138.495,30.835 		"/>
	</g>
	<g id="op32">
		
			<line fill="none" stroke="#1D2040" stroke-width="1.5" stroke-linecap="round" stroke-linejoin="round" x1="183.311" y1="66.915" x2="158.332" y2="79.408"/>
		
			<line fill="none" stroke="#1D2040" stroke-width="1.5" stroke-linecap="round" stroke-linejoin="round" x1="186.086" y1="30.835" x2="186.086" y2="55.813"/>
		
			<line fill="none" stroke="#698EFF" stroke-width="1.5" stroke-linecap="round" stroke-linejoin="round" x1="186.086" y1="93.289" x2="186.086" y2="58.588"/>
		
			<line fill="none" stroke="#1D2040" stroke-width="1.5" stroke-linecap="round" stroke-linejoin="round" x1="213.838" y1="79.408" x2="188.861" y2="66.915"/>
		<polygon fill="none" stroke="#698EFF" stroke-width="1.5" stroke-linecap="round" stroke-linejoin="round" points="
			158.332,44.712 186.086,58.588 213.838,44.712 186.086,30.835 		"/>
		<polyline fill="none" stroke="#698EFF" stroke-width="1.5" stroke-linecap="round" stroke-linejoin="round" points="
			158.332,44.712 158.332,79.408 186.086,93.289 213.838,79.408 213.838,44.712 		"/>
	</g>
	<g id="op31">
		
			<line fill="none" stroke="#1D2040" stroke-width="1.5" stroke-linecap="round" stroke-linejoin="round" x1="135.719" y1="90.723" x2="110.742" y2="103.211"/>
		
			<line fill="none" stroke="#1D2040" stroke-width="1.5" stroke-linecap="round" stroke-linejoin="round" x1="138.495" y1="54.633" x2="138.495" y2="79.617"/>
		
			<line fill="none" stroke="#698EFF" stroke-width="1.5" stroke-linecap="round" stroke-linejoin="round" x1="138.495" y1="117.088" x2="138.495" y2="82.395"/>
		
			<line fill="none" stroke="#1D2040" stroke-width="1.5" stroke-linecap="round" stroke-linejoin="round" x1="166.246" y1="103.211" x2="141.269" y2="90.723"/>
		<polygon fill="none" stroke="#698EFF" stroke-width="1.5" stroke-linecap="round" stroke-linejoin="round" points="110.742,68.51 
			138.495,82.395 166.246,68.51 138.495,54.633 		"/>
		<polyline fill="none" stroke="#698EFF" stroke-width="1.5" stroke-linecap="round" stroke-linejoin="round" points="
			110.742,68.51 110.742,103.211 138.495,117.088 166.246,103.211 166.246,68.51 		"/>
	</g>
	<g id="op30">
		
			<line fill="none" stroke="#1D2040" stroke-width="1.5" stroke-linecap="round" stroke-linejoin="round" x1="203.15" y1="100.645" x2="178.172" y2="113.133"/>
		
			<line fill="none" stroke="#1D2040" stroke-width="1.5" stroke-linecap="round" stroke-linejoin="round" x1="205.926" y1="64.555" x2="205.926" y2="89.542"/>
		
			<line fill="none" stroke="#698EFF" stroke-width="1.5" stroke-linecap="round" stroke-linejoin="round" x1="205.926" y1="127.01" x2="205.926" y2="92.316"/>
		
			<line fill="none" stroke="#1D2040" stroke-width="1.5" stroke-linecap="round" stroke-linejoin="round" x1="233.677" y1="113.133" x2="208.699" y2="100.645"/>
		<polygon fill="none" stroke="#698EFF" stroke-width="1.5" stroke-linecap="round" stroke-linejoin="round" points="
			178.172,78.435 205.926,92.316 233.677,78.435 205.926,64.555 		"/>
		<polyline fill="none" stroke="#698EFF" stroke-width="1.5" stroke-linecap="round" stroke-linejoin="round" points="
			178.172,78.435 178.172,113.133 205.926,127.01 233.677,113.133 233.677,78.435 		"/>
	</g>
</g>
<g id="C">
	<g id="op23">
		
			<line fill="none" stroke="#1D2040" stroke-width="1.5" stroke-linecap="round" stroke-linejoin="round" x1="96.436" y1="63.714" x2="71.46" y2="76.203"/>
		
			<line fill="none" stroke="#1D2040" stroke-width="1.5" stroke-linecap="round" stroke-linejoin="round" x1="99.212" y1="27.635" x2="99.212" y2="52.613"/>
		
			<line fill="none" stroke="#698EFF" stroke-width="1.5" stroke-linecap="round" stroke-linejoin="round" x1="99.212" y1="90.09" x2="99.212" y2="55.388"/>
		
			<line fill="none" stroke="#1D2040" stroke-width="1.5" stroke-linecap="round" stroke-linejoin="round" x1="126.965" y1="76.203" x2="101.987" y2="63.714"/>
		<polygon fill="none" stroke="#698EFF" stroke-width="1.5" stroke-linecap="round" stroke-linejoin="round" points="71.46,41.512 
			99.212,55.388 126.965,41.512 99.212,27.635 		"/>
		<polyline fill="none" stroke="#698EFF" stroke-width="1.5" stroke-linecap="round" stroke-linejoin="round" points="71.46,41.512 
			71.46,76.203 99.212,90.09 126.965,76.203 126.965,41.512 		"/>
	</g>
	<g id="op22">
		
			<line fill="none" stroke="#1D2040" stroke-width="1.5" stroke-linecap="round" stroke-linejoin="round" x1="191.621" y1="63.714" x2="166.641" y2="76.203"/>
		
			<line fill="none" stroke="#1D2040" stroke-width="1.5" stroke-linecap="round" stroke-linejoin="round" x1="194.395" y1="27.635" x2="194.395" y2="52.613"/>
		
			<line fill="none" stroke="#698EFF" stroke-width="1.5" stroke-linecap="round" stroke-linejoin="round" x1="194.395" y1="90.09" x2="194.395" y2="55.388"/>
		
			<line fill="none" stroke="#1D2040" stroke-width="1.5" stroke-linecap="round" stroke-linejoin="round" x1="222.146" y1="76.203" x2="197.171" y2="63.714"/>
		<polygon fill="none" stroke="#698EFF" stroke-width="1.5" stroke-linecap="round" stroke-linejoin="round" points="
			166.641,41.512 194.395,55.388 222.146,41.512 194.395,27.635 		"/>
		<polyline fill="none" stroke="#698EFF" stroke-width="1.5" stroke-linecap="round" stroke-linejoin="round" points="
			166.641,41.512 166.641,76.203 194.395,90.09 222.146,76.203 222.146,41.512 		"/>
	</g>
	<g id="op21">
		
			<line fill="none" stroke="#1D2040" stroke-width="1.5" stroke-linecap="round" stroke-linejoin="round" x1="144.028" y1="87.521" x2="119.051" y2="100.01"/>
		
			<line fill="none" stroke="#1D2040" stroke-width="1.5" stroke-linecap="round" stroke-linejoin="round" x1="146.802" y1="51.433" x2="146.802" y2="76.413"/>
		
			<line fill="none" stroke="#698EFF" stroke-width="1.5" stroke-linecap="round" stroke-linejoin="round" x1="146.802" y1="113.889" x2="146.802" y2="79.187"/>
		
			<line fill="none" stroke="#1D2040" stroke-width="1.5" stroke-linecap="round" stroke-linejoin="round" x1="174.555" y1="100.01" x2="149.579" y2="87.521"/>
		<polygon fill="none" stroke="#698EFF" stroke-width="1.5" stroke-linecap="round" stroke-linejoin="round" points="119.051,65.31 
			146.802,79.187 174.555,65.31 146.802,51.433 		"/>
		<polyline fill="none" stroke="#698EFF" stroke-width="1.5" stroke-linecap="round" stroke-linejoin="round" points="
			119.051,65.31 119.051,100.01 146.802,113.889 174.555,100.01 174.555,65.31 		"/>
	</g>
	<g id="op20">
		
			<line fill="none" stroke="#1D2040" stroke-width="1.5" stroke-linecap="round" stroke-linejoin="round" x1="211.459" y1="101.4" x2="186.479" y2="113.889"/>
		
			<line fill="none" stroke="#1D2040" stroke-width="1.5" stroke-linecap="round" stroke-linejoin="round" x1="214.232" y1="65.311" x2="214.232" y2="90.299"/>
		
			<line fill="none" stroke="#698EFF" stroke-width="1.5" stroke-linecap="round" stroke-linejoin="round" x1="214.232" y1="127.766" x2="214.232" y2="93.072"/>
		
			<line fill="none" stroke="#1D2040" stroke-width="1.5" stroke-linecap="round" stroke-linejoin="round" x1="241.986" y1="113.889" x2="217.009" y2="101.4"/>
		<polygon fill="none" stroke="#698EFF" stroke-width="1.5" stroke-linecap="round" stroke-linejoin="round" points="
			186.479,79.191 214.232,93.072 241.986,79.191 214.232,65.311 		"/>
		<polyline fill="none" stroke="#698EFF" stroke-width="1.5" stroke-linecap="round" stroke-linejoin="round" points="
			186.479,79.191 186.479,113.889 214.232,127.766 241.986,113.889 241.986,79.191 		"/>
	</g>
</g>
<g id="B">
	<g id="op13">
		
			<line fill="none" stroke="#1D2040" stroke-width="1.5" stroke-linecap="round" stroke-linejoin="round" x1="149.313" y1="51.251" x2="124.337" y2="63.74"/>
		
			<line fill="none" stroke="#1D2040" stroke-width="1.5" stroke-linecap="round" stroke-linejoin="round" x1="152.088" y1="15.171" x2="152.088" y2="40.15"/>
		
			<line fill="none" stroke="#698EFF" stroke-width="1.5" stroke-linecap="round" stroke-linejoin="round" x1="152.088" y1="77.624" x2="152.088" y2="42.924"/>
		
			<line fill="none" stroke="#1D2040" stroke-width="1.5" stroke-linecap="round" stroke-linejoin="round" x1="179.841" y1="63.74" x2="154.864" y2="51.251"/>
		<polygon fill="none" stroke="#698EFF" stroke-width="1.5" stroke-linecap="round" stroke-linejoin="round" points="
			124.337,29.049 152.088,42.924 179.841,29.049 152.088,15.171 		"/>
		<polyline fill="none" stroke="#698EFF" stroke-width="1.5" stroke-linecap="round" stroke-linejoin="round" points="
			124.337,29.049 124.337,63.74 152.088,77.624 179.841,63.74 179.841,29.049 		"/>
	</g>
	<g id="op12">
		
			<line fill="none" stroke="#1D2040" stroke-width="1.5" stroke-linecap="round" stroke-linejoin="round" x1="101.722" y1="75.057" x2="76.746" y2="87.545"/>
		
			<line fill="none" stroke="#1D2040" stroke-width="1.5" stroke-linecap="round" stroke-linejoin="round" x1="104.498" y1="38.969" x2="104.498" y2="63.947"/>
		
			<line fill="none" stroke="#698EFF" stroke-width="1.5" stroke-linecap="round" stroke-linejoin="round" x1="104.498" y1="101.424" x2="104.498" y2="66.722"/>
		
			<line fill="none" stroke="#1D2040" stroke-width="1.5" stroke-linecap="round" stroke-linejoin="round" x1="132.251" y1="87.545" x2="107.273" y2="75.057"/>
		<polygon fill="none" stroke="#698EFF" stroke-width="1.5" stroke-linecap="round" stroke-linejoin="round" points="76.746,52.846 
			104.498,66.722 132.251,52.846 104.498,38.969 		"/>
		<polyline fill="none" stroke="#698EFF" stroke-width="1.5" stroke-linecap="round" stroke-linejoin="round" points="
			76.746,52.846 76.746,87.545 104.498,101.424 132.251,87.545 132.251,52.846 		"/>
	</g>
	<g id="op11">
		
			<line fill="none" stroke="#1D2040" stroke-width="1.5" stroke-linecap="round" stroke-linejoin="round" x1="169.152" y1="84.777" x2="144.174" y2="97.266"/>
		
			<line fill="none" stroke="#1D2040" stroke-width="1.5" stroke-linecap="round" stroke-linejoin="round" x1="171.927" y1="48.688" x2="171.927" y2="73.67"/>
		
			<line fill="none" stroke="#698EFF" stroke-width="1.5" stroke-linecap="round" stroke-linejoin="round" x1="171.927" y1="111.143" x2="171.927" y2="76.448"/>
		
			<line fill="none" stroke="#1D2040" stroke-width="1.5" stroke-linecap="round" stroke-linejoin="round" x1="199.68" y1="97.266" x2="174.703" y2="84.777"/>
		<polygon fill="none" stroke="#698EFF" stroke-width="1.5" stroke-linecap="round" stroke-linejoin="round" points="
			144.174,62.565 171.927,76.448 199.68,62.565 171.927,48.688 		"/>
		<polyline fill="none" stroke="#698EFF" stroke-width="1.5" stroke-linecap="round" stroke-linejoin="round" points="
			144.174,62.565 144.174,97.266 171.927,111.143 199.68,97.266 199.68,62.565 		"/>
	</g>
	<g id="op10">
		
			<line fill="none" stroke="#1D2040" stroke-width="1.5" stroke-linecap="round" stroke-linejoin="round" x1="216.744" y1="108.574" x2="191.768" y2="121.062"/>
		
			<line fill="none" stroke="#1D2040" stroke-width="1.5" stroke-linecap="round" stroke-linejoin="round" x1="219.52" y1="72.486" x2="219.52" y2="97.473"/>
		
			<line fill="none" stroke="#698EFF" stroke-width="1.5" stroke-linecap="round" stroke-linejoin="round" x1="219.52" y1="134.941" x2="219.52" y2="100.246"/>
		
			<line fill="none" stroke="#1D2040" stroke-width="1.5" stroke-linecap="round" stroke-linejoin="round" x1="247.271" y1="121.062" x2="222.295" y2="108.574"/>
		<polygon fill="none" stroke="#698EFF" stroke-width="1.5" stroke-linecap="round" stroke-linejoin="round" points="
			191.768,86.371 219.52,100.246 247.271,86.371 219.52,72.486 		"/>
		<polyline fill="none" stroke="#698EFF" stroke-width="1.5" stroke-linecap="round" stroke-linejoin="round" points="
			191.768,86.371 191.768,121.062 219.52,134.941 247.271,121.062 247.271,86.371 		"/>
	</g>
</g>
<g id="A">
	<g id="op03">
		
			<line fill="none" stroke="#1D2040" stroke-width="1.5" stroke-linecap="round" stroke-linejoin="round" x1="87.185" y1="41.324" x2="62.208" y2="53.812"/>
		
			<line fill="none" stroke="#1D2040" stroke-width="1.5" stroke-linecap="round" stroke-linejoin="round" x1="89.961" y1="5.243" x2="89.961" y2="30.222"/>
		
			<line fill="none" stroke="#698EFF" stroke-width="1.5" stroke-linecap="round" stroke-linejoin="round" x1="89.961" y1="67.688" x2="89.961" y2="32.996"/>
		
			<line fill="none" stroke="#1D2040" stroke-width="1.5" stroke-linecap="round" stroke-linejoin="round" x1="117.713" y1="53.812" x2="92.735" y2="41.324"/>
		<polygon fill="none" stroke="#698EFF" stroke-width="1.5" stroke-linecap="round" stroke-linejoin="round" points="62.208,19.12 
			89.961,32.996 117.713,19.12 89.961,5.243 		"/>
		<polyline fill="none" stroke="#698EFF" stroke-width="1.5" stroke-linecap="round" stroke-linejoin="round" points="62.208,19.12 
			62.208,53.812 89.961,67.688 117.713,53.812 117.713,19.12 		"/>
	</g>
	<g id="op02">
		
			<line fill="none" stroke="#1D2040" stroke-width="1.5" stroke-linecap="round" stroke-linejoin="round" x1="134.776" y1="65.121" x2="109.8" y2="77.612"/>
		
			<line fill="none" stroke="#1D2040" stroke-width="1.5" stroke-linecap="round" stroke-linejoin="round" x1="137.552" y1="29.041" x2="137.552" y2="54.02"/>
		
			<line fill="none" stroke="#698EFF" stroke-width="1.5" stroke-linecap="round" stroke-linejoin="round" x1="137.552" y1="91.497" x2="137.552" y2="56.794"/>
		
			<line fill="none" stroke="#1D2040" stroke-width="1.5" stroke-linecap="round" stroke-linejoin="round" x1="165.302" y1="77.612" x2="140.327" y2="65.121"/>
		<polygon fill="none" stroke="#698EFF" stroke-width="1.5" stroke-linecap="round" stroke-linejoin="round" points="109.8,42.918 
			137.552,56.794 165.302,42.918 137.552,29.041 		"/>
		<polyline fill="none" stroke="#698EFF" stroke-width="1.5" stroke-linecap="round" stroke-linejoin="round" points="109.8,42.918 
			109.8,77.612 137.552,91.497 165.302,77.612 165.302,42.918 		"/>
	</g>
	<g id="op01">
		
			<line fill="none" stroke="#1D2040" stroke-width="1.5" stroke-linecap="round" stroke-linejoin="round" x1="182.369" y1="88.93" x2="157.389" y2="101.417"/>
		
			<line fill="none" stroke="#1D2040" stroke-width="1.5" stroke-linecap="round" stroke-linejoin="round" x1="185.143" y1="52.84" x2="185.143" y2="77.824"/>
		
			<line fill="none" stroke="#698EFF" stroke-width="1.5" stroke-linecap="round" stroke-linejoin="round" x1="185.143" y1="115.296" x2="185.143" y2="80.604"/>
		
			<line fill="none" stroke="#1D2040" stroke-width="1.5" stroke-linecap="round" stroke-linejoin="round" x1="212.895" y1="101.417" x2="187.919" y2="88.93"/>
		<polygon fill="none" stroke="#698EFF" stroke-width="1.5" stroke-linecap="round" stroke-linejoin="round" points="
			157.389,66.717 185.143,80.604 212.895,66.717 185.143,52.84 		"/>
		<polyline fill="none" stroke="#698EFF" stroke-width="1.5" stroke-linecap="round" stroke-linejoin="round" points="
			157.389,66.717 157.389,101.417 185.143,115.296 212.895,101.417 212.895,66.717 		"/>
	</g>
	<g id="op00">
		
			<line fill="none" stroke="#1D2040" stroke-width="1.5" stroke-linecap="round" stroke-linejoin="round" x1="229.96" y1="112.729" x2="204.982" y2="125.216"/>
		
			<line fill="none" stroke="#1D2040" stroke-width="1.5" stroke-linecap="round" stroke-linejoin="round" x1="232.734" y1="76.641" x2="232.734" y2="101.626"/>
		
			<line fill="none" stroke="#698EFF" stroke-width="1.5" stroke-linecap="round" stroke-linejoin="round" x1="232.734" y1="139.094" x2="232.734" y2="104.398"/>
		
			<line fill="none" stroke="#1D2040" stroke-width="1.5" stroke-linecap="round" stroke-linejoin="round" x1="260.486" y1="125.216" x2="235.51" y2="112.729"/>
		<polygon fill="none" stroke="#698EFF" stroke-width="1.5" stroke-linecap="round" stroke-linejoin="round" points="
			204.982,90.523 232.734,104.398 260.486,90.523 232.734,76.641 		"/>
		<polyline fill="none" stroke="#698EFF" stroke-width="1.5" stroke-linecap="round" stroke-linejoin="round" points="
			204.982,90.523 204.982,125.216 232.734,139.094 260.486,125.216 260.486,90.523 		"/>
	</g>
</g>
<g id="box0_1_">
	
		<line fill="none" stroke="#1D2040" stroke-width="1.5" stroke-linecap="round" stroke-linejoin="round" x1="-0.071" y1="34.692" x2="-0.071" y2="0"/>
	
		<line fill="none" stroke="#1D2040" stroke-width="1.5" stroke-linecap="round" stroke-linejoin="round" x1="-0.071" y1="0" x2="27.681" y2="-13.876"/>
	
		<line fill="none" stroke="#1D2040" stroke-width="1.5" stroke-linecap="round" stroke-linejoin="round" x1="-27.823" y1="-13.876" x2="-0.071" y2="0"/>
	
		<line fill="none" stroke="#1D2040" stroke-width="1.5" stroke-linecap="round" stroke-linejoin="round" x1="-0.071" y1="-27.753" x2="-0.071" y2="-2.774"/>
	
		<line fill="none" stroke="#1D2040" stroke-width="1.5" stroke-linecap="round" stroke-linejoin="round" x1="27.681" y1="20.816" x2="2.704" y2="8.328"/>
	
		<line fill="none" stroke="#1D2040" stroke-width="1.5" stroke-linecap="round" stroke-linejoin="round" x1="-2.846" y1="8.328" x2="-27.823" y2="20.816"/>
</g>
<g id="box1">
	
		<line fill="none" stroke="#1D2040" stroke-width="1.5" stroke-linecap="round" stroke-linejoin="round" x1="-0.071" y1="34.692" x2="-0.071" y2="0"/>
	
		<line fill="none" stroke="#1D2040" stroke-width="1.5" stroke-linecap="round" stroke-linejoin="round" x1="-0.071" y1="0" x2="27.681" y2="-13.876"/>
	
		<line fill="none" stroke="#1D2040" stroke-width="1.5" stroke-linecap="round" stroke-linejoin="round" x1="-27.823" y1="-13.876" x2="-0.071" y2="0"/>
	
		<line fill="none" stroke="#1D2040" stroke-width="1.5" stroke-linecap="round" stroke-linejoin="round" x1="-0.071" y1="-27.753" x2="-0.071" y2="-2.774"/>
	
		<line fill="none" stroke="#1D2040" stroke-width="1.5" stroke-linecap="round" stroke-linejoin="round" x1="27.681" y1="20.816" x2="2.704" y2="8.328"/>
	
		<line fill="none" stroke="#1D2040" stroke-width="1.5" stroke-linecap="round" stroke-linejoin="round" x1="-2.846" y1="8.328" x2="-27.823" y2="20.816"/>
</g>
<g id="box2">
	
		<line fill="none" stroke="#1D2040" stroke-width="1.5" stroke-linecap="round" stroke-linejoin="round" x1="-0.071" y1="34.692" x2="-0.071" y2="0"/>
	
		<line fill="none" stroke="#1D2040" stroke-width="1.5" stroke-linecap="round" stroke-linejoin="round" x1="-0.071" y1="0" x2="27.681" y2="-13.876"/>
	
		<line fill="none" stroke="#1D2040" stroke-width="1.5" stroke-linecap="round" stroke-linejoin="round" x1="-27.823" y1="-13.876" x2="-0.071" y2="0"/>
	
		<line fill="none" stroke="#1D2040" stroke-width="1.5" stroke-linecap="round" stroke-linejoin="round" x1="-0.071" y1="-27.753" x2="-0.071" y2="-2.774"/>
	
		<line fill="none" stroke="#1D2040" stroke-width="1.5" stroke-linecap="round" stroke-linejoin="round" x1="27.681" y1="20.816" x2="2.704" y2="8.328"/>
	
		<line fill="none" stroke="#1D2040" stroke-width="1.5" stroke-linecap="round" stroke-linejoin="round" x1="-2.846" y1="8.328" x2="-27.823" y2="20.816"/>
</g>
<g id="box3">
	
		<line fill="none" stroke="#1D2040" stroke-width="1.5" stroke-linecap="round" stroke-linejoin="round" x1="-0.071" y1="34.692" x2="-0.071" y2="0"/>
	
		<line fill="none" stroke="#1D2040" stroke-width="1.5" stroke-linecap="round" stroke-linejoin="round" x1="-0.071" y1="0" x2="27.681" y2="-13.876"/>
	
		<line fill="none" stroke="#1D2040" stroke-width="1.5" stroke-linecap="round" stroke-linejoin="round" x1="-27.823" y1="-13.876" x2="-0.071" y2="0"/>
	
		<line fill="none" stroke="#1D2040" stroke-width="1.5" stroke-linecap="round" stroke-linejoin="round" x1="-0.071" y1="-27.753" x2="-0.071" y2="-2.774"/>
	
		<line fill="none" stroke="#1D2040" stroke-width="1.5" stroke-linecap="round" stroke-linejoin="round" x1="27.681" y1="20.816" x2="2.704" y2="8.328"/>
	
		<line fill="none" stroke="#1D2040" stroke-width="1.5" stroke-linecap="round" stroke-linejoin="round" x1="-2.846" y1="8.328" x2="-27.823" y2="20.816"/>
</g>
<g id="out">
	<g id="out0">
		<path fill="none" stroke="#698EFF" stroke-width="1.5" stroke-linecap="round" stroke-linejoin="round" d="M-0.071,0"/>
		<path fill="none" stroke="#698EFF" stroke-width="1.5" stroke-linecap="round" stroke-linejoin="round" d="M-0.071,34.692"/>
		<path fill="none" stroke="#698EFF" stroke-width="1.5" stroke-linecap="round" stroke-linejoin="round" d="M-0.071,0"/>
		<polyline fill="none" stroke="#3F5599" stroke-width="1.5" stroke-linecap="round" stroke-linejoin="round" points="
			-27.823,-13.876 -27.823,20.816 -0.071,34.692 27.681,20.816 27.681,-13.876 		"/>
		<polyline fill="none" stroke="#3F5599" stroke-width="1.5" stroke-linecap="round" stroke-linejoin="round" points="
			27.681,-13.876 -0.071,-27.753 -27.823,-13.876 		"/>
	</g>
	<g id="out1">
		<path fill="none" stroke="#698EFF" stroke-width="1.5" stroke-linecap="round" stroke-linejoin="round" d="M-0.071,0"/>
		<path fill="none" stroke="#698EFF" stroke-width="1.5" stroke-linecap="round" stroke-linejoin="round" d="M-0.071,34.692"/>
		<path fill="none" stroke="#698EFF" stroke-width="1.5" stroke-linecap="round" stroke-linejoin="round" d="M-0.071,0"/>
		<polyline fill="none" stroke="#3F5599" stroke-width="1.5" stroke-linecap="round" stroke-linejoin="round" points="
			-27.823,-13.876 -27.823,20.816 -0.071,34.692 27.681,20.816 27.681,-13.876 		"/>
		<polyline fill="none" stroke="#3F5599" stroke-width="1.5" stroke-linecap="round" stroke-linejoin="round" points="
			27.681,-13.876 -0.071,-27.753 -27.823,-13.876 		"/>
	</g>
	<g id="out2">
		<path fill="none" stroke="#698EFF" stroke-width="1.5" stroke-linecap="round" stroke-linejoin="round" d="M-0.071,0"/>
		<path fill="none" stroke="#698EFF" stroke-width="1.5" stroke-linecap="round" stroke-linejoin="round" d="M-0.071,34.692"/>
		<path fill="none" stroke="#698EFF" stroke-width="1.5" stroke-linecap="round" stroke-linejoin="round" d="M-0.071,0"/>
		<polyline fill="none" stroke="#3F5599" stroke-width="1.5" stroke-linecap="round" stroke-linejoin="round" points="
			-27.823,-13.876 -27.823,20.816 -0.071,34.692 27.681,20.816 27.681,-13.876 		"/>
		<polyline fill="none" stroke="#3F5599" stroke-width="1.5" stroke-linecap="round" stroke-linejoin="round" points="
			27.681,-13.876 -0.071,-27.753 -27.823,-13.876 		"/>
	</g>
	<g id="out3">
		<path fill="none" stroke="#698EFF" stroke-width="1.5" stroke-linecap="round" stroke-linejoin="round" d="M-0.071,0"/>
		<path fill="none" stroke="#698EFF" stroke-width="1.5" stroke-linecap="round" stroke-linejoin="round" d="M-0.071,34.692"/>
		<path fill="none" stroke="#698EFF" stroke-width="1.5" stroke-linecap="round" stroke-linejoin="round" d="M-0.071,0"/>
		<polyline fill="none" stroke="#3F5599" stroke-width="1.5" stroke-linecap="round" stroke-linejoin="round" points="
			-27.823,-13.876 -27.823,20.816 -0.071,34.692 27.681,20.816 27.681,-13.876 		"/>
		<polyline fill="none" stroke="#3F5599" stroke-width="1.5" stroke-linecap="round" stroke-linejoin="round" points="
			27.681,-13.876 -0.071,-27.753 -27.823,-13.876 		"/>
	</g>
</g>
<g id="opa">
	<path fill="none" stroke="#698EFF" stroke-width="1.5" stroke-linecap="square" d="M-1.759,10.796v-15h3
		c2.072,0,3.75,1.678,3.75,3.75c0,2.071-1.679,3.75-3.75,3.75h-3"/>
	<path fill="none" stroke="#698EFF" stroke-width="1.5" stroke-linecap="square" d="M-1.759,3.296h3c2.072,0,3.75,1.678,3.75,3.75
		c0,2.071-1.679,3.75-3.75,3.75h-3"/>
</g>
<g id="opb_2_">
	<path fill="none" stroke="#00ED95" stroke-width="1.5" stroke-linecap="square" d="M-0.019,10.676h-7.5l6.75-9
		c0.471-0.625,0.75-1.406,0.75-2.25c0-2.072-1.679-3.75-3.749-3.75c-2.071,0-3.751,1.679-3.751,3.75"/>
	<path fill="none" stroke="#00ED95" stroke-width="1.5" stroke-linecap="square" d="M1.406-4.324h7.5v0.751l-3.75,6.749
		c2.071,0,3.75,1.679,3.75,3.75c0,2.071-1.679,3.75-3.75,3.75c-2.078,0-3.75-1.68-3.75-3.75"/>
</g>
<g id="opc_1_">
	<path fill="none" stroke="#FFFFFF" stroke-width="1.5" stroke-linecap="square" d="M-0.019,10.676h-7.5l6.75-9
		c0.471-0.625,0.75-1.406,0.75-2.25c0-2.072-1.679-3.75-3.749-3.75c-2.071,0-3.751,1.679-3.751,3.75"/>
	<path fill="none" stroke="#FFFFFF" stroke-width="1.5" stroke-linecap="square" d="M1.406-4.324h7.5v0.751l-3.75,6.749
		c2.071,0,3.75,1.679,3.75,3.75c0,2.071-1.679,3.75-3.75,3.75c-2.078,0-3.75-1.68-3.75-3.75"/>
</g>
<g id="opd">
	<path fill="none" stroke="#FF3A5D" stroke-width="1.5" stroke-linecap="square" d="M-0.019,10.676h-7.5l6.75-9
		c0.471-0.625,0.75-1.406,0.75-2.25c0-2.072-1.679-3.75-3.749-3.75c-2.071,0-3.751,1.679-3.751,3.75"/>
	<path fill="none" stroke="#FF3A5D" stroke-width="1.5" stroke-linecap="square" d="M1.406-4.324h7.5v0.751l-3.75,6.749
		c2.071,0,3.75,1.679,3.75,3.75c0,2.071-1.679,3.75-3.75,3.75c-2.078,0-3.75-1.68-3.75-3.75"/>
</g>
<g id="ope">
	<path fill="none" stroke="#698EFF" stroke-width="1.5" stroke-linecap="square" d="M-2.884,13.296v-20h4c2.763,0,5,2.238,5,5
		c0,2.761-2.238,5-5,5h-4"/>
	<path fill="none" stroke="#698EFF" stroke-width="1.5" stroke-linecap="square" d="M-2.884,3.296h4c2.763,0,5,2.238,5,5
		c0,2.761-2.238,5-5,5h-4"/>
</g>
<g id="opf_1_">
	<path fill="none" stroke="#00ED95" stroke-width="1.5" stroke-linecap="square" d="M-0.256,13.176h-10.001l9.001-12
		c0.628-0.834,1-1.875,1-3c0-2.762-2.239-5-4.999-5c-2.762,0-5.002,2.238-5.002,5"/>
	<path fill="none" stroke="#00ED95" stroke-width="1.5" stroke-linecap="square" d="M1.644-6.824h10v1.002l-5,8.999
		c2.762,0,5,2.239,5,5c0,2.761-2.238,5-5,5c-2.77,0-5-2.24-5-5"/>
</g>
<g id="opg_1_">
	<path fill="none" stroke="#FFFFFF" stroke-width="1.5" stroke-linecap="square" d="M-0.256,13.176h-10.001l9.001-12
		c0.628-0.834,1-1.875,1-3c0-2.762-2.239-5-4.999-5c-2.762,0-5.002,2.238-5.002,5"/>
	<path fill="none" stroke="#FFFFFF" stroke-width="1.5" stroke-linecap="square" d="M1.644-6.824h10v1.002l-5,8.999
		c2.762,0,5,2.239,5,5c0,2.761-2.238,5-5,5c-2.77,0-5-2.24-5-5"/>
</g>
<g id="oph">
	<path fill="none" stroke="#FF3A5D" stroke-width="1.5" stroke-linecap="square" d="M-0.256,13.176h-10.001l9.001-12
		c0.628-0.834,1-1.875,1-3c0-2.762-2.239-5-4.999-5c-2.762,0-5.002,2.238-5.002,5"/>
	<path fill="none" stroke="#FF3A5D" stroke-width="1.5" stroke-linecap="square" d="M1.644-6.824h10v1.002l-5,8.999
		c2.762,0,5,2.239,5,5c0,2.761-2.238,5-5,5c-2.77,0-5-2.24-5-5"/>
</g>
</svg>
