<?xml version="1.0" encoding="utf-8"?>
<!-- Generator: Adobe Illustrator 14.0.0, SVG Export Plug-In . SVG Version: 6.00 Build 43363)  -->
<!DOCTYPE svg PUBLIC "-//W3C//DTD SVG 1.1//EN" "http://www.w3.org/Graphics/SVG/1.1/DTD/svg11.dtd">
<svg version="1.1" id="Layer_1" xmlns="http://www.w3.org/2000/svg" xmlns:xlink="http://www.w3.org/1999/xlink" x="0px" y="0px"
	 width="340.157px" height="170.078px" viewBox="0 0 340.157 170.078" enable-background="new 0 0 340.157 170.078"
	 xml:space="preserve">
<rect y="1.001" fill="#010101" width="320" height="159.999"/>
<g>
	<defs>
		<rect id="SVGID_1_" width="340.157" height="170.078"/>
	</defs>
	<clipPath id="SVGID_2_">
		<use xlink:href="#SVGID_1_"  overflow="visible"/>
	</clipPath>
	<path clip-path="url(#SVGID_2_)" fill="none" stroke="#7C7990" stroke-linecap="square" d="M226.401,130.076
		c0,1.103-0.898,1.9-1.898,1.9c-1.102,0-1.901-0.9-1.901-1.9v-3.899c0-1.102,0.901-1.9,1.901-1.9c1.099,0,1.898,0.9,1.898,1.9"/>
	<path clip-path="url(#SVGID_2_)" fill="none" stroke="#7C7990" stroke-linecap="square" d="M12.101,130.076
		c0,1.103-0.9,1.9-1.9,1.9c-1.1,0-1.9-0.9-1.9-1.9v-3.899c0-1.102,0.9-1.9,1.9-1.9c1.1,0,1.9,0.9,1.9,1.9"/>
	<path clip-path="url(#SVGID_2_)" fill="none" stroke="#7C7990" stroke-linecap="square" d="M154.501,124.276v5.8
		c0,1.102,0.9,1.9,1.9,1.9c1.1,0,1.9-0.9,1.9-1.9v-5.8"/>
	<path clip-path="url(#SVGID_2_)" fill="none" stroke="#7C7990" stroke-linecap="square" d="M307.1,124.276v5.8
		c0,1.102,0.9,1.9,1.9,1.9c1.1,0,1.899-0.9,1.899-1.9v-5.8"/>
	<polyline clip-path="url(#SVGID_2_)" fill="none" stroke="#7C7990" stroke-linecap="square" points="220.301,131.977 
		216.801,131.977 216.801,124.276 220.301,124.276 	"/>
	
		<line clip-path="url(#SVGID_2_)" fill="none" stroke="#7C7990" stroke-linecap="square" x1="216.801" y1="128.176" x2="219.901" y2="128.176"/>
	<polyline clip-path="url(#SVGID_2_)" fill="none" stroke="#7C7990" stroke-linecap="square" points="249.601,131.977 
		246.101,131.977 246.101,124.276 249.601,124.276 	"/>
	
		<line clip-path="url(#SVGID_2_)" fill="none" stroke="#7C7990" stroke-linecap="square" x1="246.101" y1="128.176" x2="249.202" y2="128.176"/>
	<polyline clip-path="url(#SVGID_2_)" fill="none" stroke="#7C7990" stroke-linecap="square" points="146.001,131.977 
		142.501,131.977 142.501,124.276 146.001,124.276 	"/>
	
		<line clip-path="url(#SVGID_2_)" fill="none" stroke="#7C7990" stroke-linecap="square" x1="142.501" y1="128.176" x2="145.601" y2="128.176"/>
	<path clip-path="url(#SVGID_2_)" fill="none" stroke="#7C7990" stroke-linecap="square" d="M14.201,126.376v3.5
		c0,1.2,1,2.103,2.1,2.103c1.2,0,2.1-1,2.1-2.103v-3.5c0-1.198-1-2.1-2.1-2.1C15.201,124.176,14.201,125.176,14.201,126.376z"/>
	<polyline clip-path="url(#SVGID_2_)" fill="none" stroke="#7C7990" stroke-linecap="square" points="305.502,131.977 
		302.002,131.977 302.002,124.276 305.502,124.276 	"/>
	
		<line clip-path="url(#SVGID_2_)" fill="none" stroke="#7C7990" stroke-linecap="square" x1="302.002" y1="128.176" x2="305.101" y2="128.176"/>
	<path clip-path="url(#SVGID_2_)" fill="none" stroke="#7C7990" stroke-linecap="square" d="M101.101,124.276v5.8
		c0,1.102,0.9,1.9,1.9,1.9c1.1,0,1.9-0.9,1.9-1.9v-5.8"/>
	<polyline clip-path="url(#SVGID_2_)" fill="none" stroke="#7C7990" stroke-linecap="square" points="99.101,131.977 
		95.601,131.977 95.601,124.276 99.101,124.276 	"/>
	
		<line clip-path="url(#SVGID_2_)" fill="none" stroke="#7C7990" stroke-linecap="square" x1="95.601" y1="128.176" x2="98.701" y2="128.176"/>
	<polyline clip-path="url(#SVGID_2_)" fill="none" stroke="#7C7990" stroke-linecap="square" points="32.801,124.276 
		32.801,131.977 36.701,131.977 	"/>
	<polyline clip-path="url(#SVGID_2_)" fill="none" stroke="#7C7990" stroke-linecap="square" points="181.202,131.977 
		177.702,131.977 177.702,124.276 181.202,124.276 	"/>
	
		<line clip-path="url(#SVGID_2_)" fill="none" stroke="#7C7990" stroke-linecap="square" x1="177.702" y1="128.176" x2="180.801" y2="128.176"/>
	<path clip-path="url(#SVGID_2_)" fill="none" stroke="#7C7990" stroke-linecap="square" d="M147.901,126.376v3.5
		c0,1.2,1,2.103,2.1,2.103c1.2,0,2.1-1,2.1-2.103v-3.5c0-1.198-1-2.1-2.1-2.1S147.901,125.176,147.901,126.376z"/>
	
		<line clip-path="url(#SVGID_2_)" fill="none" stroke="#7C7990" stroke-linecap="square" x1="150.601" y1="130.477" x2="152.201" y2="131.977"/>
	<polyline clip-path="url(#SVGID_2_)" fill="none" stroke="#7C7990" stroke-linecap="square" points="238.301,124.276 
		240.601,131.977 241.001,131.977 243.401,124.276 	"/>
	<path clip-path="url(#SVGID_2_)" fill="none" stroke="#7C7990" stroke-linecap="square" d="M27.401,131.977v-7.7h1.6
		c1.1,0,1.9,0.899,1.9,1.899c0,1.101-0.9,1.9-1.9,1.9h-1.6"/>
	<path clip-path="url(#SVGID_2_)" fill="none" stroke="#7C7990" stroke-linecap="square" d="M164.401,131.977v-7.7h1.601
		c1.1,0,1.899,0.899,1.899,1.899c0,1.101-0.899,1.9-1.899,1.9h-1.601"/>
	
		<line clip-path="url(#SVGID_2_)" fill="none" stroke="#7C7990" stroke-linecap="square" x1="161.301" y1="124.276" x2="161.301" y2="131.977"/>
	
		<line clip-path="url(#SVGID_2_)" fill="none" stroke="#7C7990" stroke-linecap="square" x1="74.001" y1="124.276" x2="74.001" y2="131.977"/>
	
		<line clip-path="url(#SVGID_2_)" fill="none" stroke="#7C7990" stroke-linecap="square" x1="235.502" y1="124.276" x2="235.502" y2="131.977"/>
	
		<line clip-path="url(#SVGID_2_)" fill="none" stroke="#7C7990" stroke-linecap="square" x1="44.901" y1="124.276" x2="44.901" y2="131.977"/>
	<polyline clip-path="url(#SVGID_2_)" fill="none" stroke="#7C7990" stroke-linecap="square" points="37.701,124.276 
		37.701,124.676 39.701,128.477 41.601,124.676 41.601,124.276 	"/>
	
		<line clip-path="url(#SVGID_2_)" fill="none" stroke="#7C7990" stroke-linecap="square" x1="39.701" y1="128.477" x2="39.701" y2="131.977"/>
	<path clip-path="url(#SVGID_2_)" fill="none" stroke="#7C7990" stroke-linecap="square" d="M267.301,130.076
		c0,1.103-0.899,1.9-1.899,1.9c-1.101,0-1.899-0.9-1.899-1.9v-3.899c0-1.102,0.899-1.9,1.899-1.9c1.101,0,1.899,0.9,1.899,1.9
		V130.076z"/>
	
		<line clip-path="url(#SVGID_2_)" fill="none" stroke="#7C7990" stroke-linecap="square" x1="270.202" y1="124.276" x2="270.202" y2="131.977"/>
	<path clip-path="url(#SVGID_2_)" fill="none" stroke="#7C7990" stroke-linecap="square" d="M261.1,131.977h-3.898l3.5-4.7
		c0.199-0.3,0.398-0.699,0.398-1.199c0-1.101-0.898-1.899-1.898-1.899c-1.102,0-1.901,0.899-1.901,1.899"/>
	<path clip-path="url(#SVGID_2_)" fill="none" stroke="#7C7990" stroke-linecap="square" d="M290.002,124.276h3.897v0.399
		l-1.897,3.5c1.1,0,1.897,0.899,1.897,1.899c0,1.101-0.897,1.9-1.897,1.9c-1.103,0-1.9-0.9-1.9-1.9"/>
	<polyline clip-path="url(#SVGID_2_)" fill="none" stroke="#7C7990" stroke-linecap="square" points="277.301,129.676 
		272.701,129.676 272.701,129.277 275.801,124.277 276.101,124.277 276.101,131.977 	"/>
	<path clip-path="url(#SVGID_2_)" fill="none" stroke="#7C7990" stroke-linecap="square" d="M288.702,124.276h-3.9v5.8
		c0-1.1,0.9-1.898,1.9-1.898c1.1,0,1.898,0.898,1.898,1.898c0,1.102-0.898,1.9-1.898,1.9h-1.9"/>
	<polyline clip-path="url(#SVGID_2_)" fill="none" stroke="#7C7990" stroke-linecap="square" points="278.801,131.977 
		278.801,131.676 282.701,124.676 282.701,124.276 	"/>
	<polyline clip-path="url(#SVGID_2_)" fill="none" stroke="#7C7990" stroke-linecap="square" points="296.202,131.977 
		296.202,131.676 300.002,124.676 300.002,124.276 	"/>
	<path clip-path="url(#SVGID_2_)" fill="none" stroke="#7C7990" stroke-linecap="square" d="M210.901,131.977v-7.7h1.602
		c1.099,0,1.898,0.899,1.898,1.899c0,1.101-0.898,1.9-1.898,1.9H211.3l2.702,3.899"/>
	
		<line clip-path="url(#SVGID_2_)" fill="none" stroke="#7C7990" stroke-linecap="square" x1="227.901" y1="124.276" x2="233.401" y2="124.276"/>
	
		<line clip-path="url(#SVGID_2_)" fill="none" stroke="#7C7990" stroke-linecap="square" x1="230.601" y1="124.276" x2="230.601" y2="131.977"/>
	
		<line clip-path="url(#SVGID_2_)" fill="none" stroke="#7C7990" stroke-linecap="square" x1="76.601" y1="124.276" x2="82.001" y2="124.276"/>
	
		<line clip-path="url(#SVGID_2_)" fill="none" stroke="#7C7990" stroke-linecap="square" x1="79.301" y1="124.276" x2="79.301" y2="131.977"/>
	
		<line clip-path="url(#SVGID_2_)" fill="none" stroke="#7C7990" stroke-linecap="square" x1="189.801" y1="124.276" x2="195.201" y2="124.276"/>
	
		<line clip-path="url(#SVGID_2_)" fill="none" stroke="#7C7990" stroke-linecap="square" x1="192.502" y1="124.276" x2="192.502" y2="131.977"/>
	
		<line clip-path="url(#SVGID_2_)" fill="none" stroke="#7C7990" stroke-linecap="square" x1="83.901" y1="124.276" x2="83.901" y2="131.977"/>
	
		<line clip-path="url(#SVGID_2_)" fill="none" stroke="#7C7990" stroke-linecap="square" x1="87.801" y1="124.276" x2="87.801" y2="131.977"/>
	
		<line clip-path="url(#SVGID_2_)" fill="none" stroke="#7C7990" stroke-linecap="square" x1="83.901" y1="128.176" x2="87.801" y2="128.176"/>
	<polyline clip-path="url(#SVGID_2_)" fill="none" stroke="#7C7990" stroke-linecap="square" points="116.001,131.977 
		118.401,124.276 118.701,124.276 121.101,131.977 	"/>
	
		<line clip-path="url(#SVGID_2_)" fill="none" stroke="#7C7990" stroke-linecap="square" x1="116.801" y1="129.276" x2="120.301" y2="129.276"/>
	
		<line clip-path="url(#SVGID_2_)" fill="none" stroke="#7C7990" stroke-linecap="square" x1="129.701" y1="124.276" x2="129.701" y2="131.977"/>
	<path clip-path="url(#SVGID_2_)" fill="none" stroke="#7C7990" stroke-linecap="square" d="M125.101,131.977
		c1.1,0,1.9-0.899,1.9-1.899v-3.901c0-1.1-0.9-1.899-1.9-1.899h-2v7.801h2V131.977z"/>
	<path clip-path="url(#SVGID_2_)" fill="none" stroke="#7C7990" stroke-linecap="square" d="M110.801,131.977v-7.7h1.6
		c1.1,0,1.9,0.899,1.9,1.899c0,1.101-0.9,1.9-1.9,1.9h-1.2l2.7,3.899"/>
	<path clip-path="url(#SVGID_2_)" fill="none" stroke="#7C7990" stroke-linecap="square" d="M132.401,126.376v3.5
		c0,1.2,1,2.103,2.1,2.103c1.2,0,2.1-1,2.1-2.103v-3.5c0-1.198-1-2.1-2.1-2.1S132.401,125.176,132.401,126.376z"/>
	
		<line clip-path="url(#SVGID_2_)" fill="none" stroke="#7C7990" stroke-linecap="square" x1="207.801" y1="124.276" x2="207.801" y2="131.977"/>
	<path clip-path="url(#SVGID_2_)" fill="none" stroke="#7C7990" stroke-linecap="square" d="M203.101,131.977
		c1.101,0,1.899-0.899,1.899-1.899v-3.901c0-1.1-0.899-1.899-1.899-1.899h-2v7.801h2V131.977z"/>
	<path clip-path="url(#SVGID_2_)" fill="none" stroke="#7C7990" stroke-linecap="square" d="M58.301,130.076
		c0,1.103-0.9,1.9-1.9,1.9c-1.1,0-1.9-0.9-1.9-1.9v-3.899c0-1.102,0.9-1.9,1.9-1.9c1.1,0,1.9,0.9,1.9,1.9"/>
	<polyline clip-path="url(#SVGID_2_)" fill="none" stroke="#7C7990" stroke-linecap="square" points="56.001,128.076 
		58.301,128.076 58.301,131.977 	"/>
	<polyline clip-path="url(#SVGID_2_)" fill="none" stroke="#7C7990" stroke-linecap="square" points="48.201,131.977 
		48.201,124.276 48.601,124.276 51.701,131.977 52.101,131.977 52.101,124.276 	"/>
	<polyline clip-path="url(#SVGID_2_)" fill="none" stroke="#7C7990" stroke-linecap="square" points="183.502,131.977 
		183.502,124.276 183.9,124.276 187.002,131.977 187.4,131.977 187.4,124.276 	"/>
	<polyline clip-path="url(#SVGID_2_)" fill="none" stroke="#7C7990" stroke-linecap="square" points="71.001,124.576 
		71.001,131.977 70.601,131.977 68.701,127.876 68.401,127.876 66.501,131.977 66.101,131.977 66.101,124.576 	"/>
	<polyline clip-path="url(#SVGID_2_)" fill="none" stroke="#7C7990" stroke-linecap="square" points="170.201,131.977 
		170.201,124.276 170.601,124.276 172.502,128.577 172.9,128.577 174.801,124.276 175.202,124.276 175.202,131.977 	"/>
	<polyline clip-path="url(#SVGID_2_)" fill="none" stroke="#7C7990" stroke-linecap="square" points="20.401,131.977 
		20.401,124.276 20.801,124.276 22.701,128.477 23.101,128.477 25.101,124.276 25.501,124.276 25.501,131.977 	"/>
</g>
<g id="arrow">
	<polyline fill="none" stroke="#FFFFFF" stroke-width="1.5" stroke-linecap="square" points="57.1,36.1 68.4,47.4 79.8,36.1 	"/>
	<line fill="none" stroke="#FFFFFF" stroke-width="1.5" stroke-linecap="square" x1="68.4" y1="47.4" x2="68.4" y2="19.1"/>
</g>
<g id="green">
	<defs>
		<rect id="SVGID_3_" width="340.157" height="170.078"/>
	</defs>
	<clipPath id="SVGID_4_">
		<use xlink:href="#SVGID_3_"  overflow="visible"/>
	</clipPath>
	<path clip-path="url(#SVGID_4_)" fill="none" stroke="#FFFFFF" stroke-width="1.5" stroke-linecap="square" d="M116.5,62v8.2
		c0,2.8,2.2,5,5,5s5-2.2,5-5V62c0-2.8-2.2-5-5-5S116.5,59.2,116.5,62z"/>
	
		<line clip-path="url(#SVGID_4_)" fill="none" stroke="#FFFFFF" stroke-width="1.5" stroke-linecap="square" x1="193.282" y1="57.3" x2="205.983" y2="57.3"/>
	
		<line clip-path="url(#SVGID_4_)" fill="none" stroke="#FFFFFF" stroke-width="1.5" x1="199.583" y1="57.3" x2="199.583" y2="75.5"/>
	<polyline clip-path="url(#SVGID_4_)" fill="none" stroke="#FFFFFF" stroke-width="1.5" stroke-linecap="square" points="
		230.772,75.5 222.571,75.5 222.571,57.3 230.772,57.3 	"/>
	
		<line clip-path="url(#SVGID_4_)" fill="none" stroke="#FFFFFF" stroke-width="1.5" stroke-linecap="square" x1="222.57" y1="66.4" x2="229.771" y2="66.4"/>
	
		<line clip-path="url(#SVGID_4_)" fill="none" stroke="#FFFFFF" stroke-width="1.5" stroke-linecap="square" x1="209.59" y1="57.3" x2="209.59" y2="75.5"/>
	
		<line clip-path="url(#SVGID_4_)" fill="none" stroke="#FFFFFF" stroke-width="1.5" stroke-linecap="square" x1="218.59" y1="57.3" x2="218.59" y2="75.5"/>
	<line clip-path="url(#SVGID_4_)" fill="none" stroke="#FFFFFF" stroke-width="1.5" x1="209.59" y1="66.4" x2="218.59" y2="66.4"/>
	<polyline clip-path="url(#SVGID_4_)" fill="none" stroke="#FFFFFF" stroke-width="1.5" stroke-linecap="square" points="
		120.6,103.4 126.1,85.201 127,85.201 132.4,103.4 	"/>
	<line clip-path="url(#SVGID_4_)" fill="none" stroke="#FFFFFF" stroke-width="1.5" x1="122.4" y1="97" x2="130.6" y2="97"/>
	
		<line clip-path="url(#SVGID_4_)" fill="none" stroke="#FFFFFF" stroke-width="1.5" stroke-linecap="square" x1="151.3" y1="85.2" x2="151.3" y2="103.4"/>
	<path clip-path="url(#SVGID_4_)" fill="none" stroke="#FFFFFF" stroke-width="1.5" stroke-linecap="square" d="M140.9,103.4
		c2.5,0,4.5-2,4.5-4.5V89.8c0-2.5-2-4.5-4.5-4.5h-4.5v18.202h4.5V103.4z"/>
	<path clip-path="url(#SVGID_4_)" fill="none" stroke="#FFFFFF" stroke-width="1.5" stroke-linecap="square" d="M107.9,103.4v-18.2
		h3.6c2.5,0,4.5,2,4.5,4.5s-2,4.5-4.5,4.5h-2.7l6.4,9.1"/>
	<polyline clip-path="url(#SVGID_4_)" fill="none" stroke="#FFFFFF" stroke-width="1.5" stroke-linecap="square" points="
		255.132,75.5 255.132,57.3 256.033,57.3 260.632,67.3 261.533,67.3 266.033,57.3 266.933,57.3 266.933,75.5 	"/>
	<polyline clip-path="url(#SVGID_4_)" fill="none" stroke="#FFFFFF" stroke-width="1.5" stroke-linecap="square" points="
		242.534,75.5 242.534,57.3 250.731,57.3 	"/>
	
		<line clip-path="url(#SVGID_4_)" fill="none" stroke="#FFFFFF" stroke-width="1.5" stroke-linecap="square" x1="242.534" y1="66.4" x2="249.834" y2="66.4"/>
	<path clip-path="url(#SVGID_4_)" fill="none" stroke="#FFFFFF" stroke-width="1.5" stroke-linecap="square" d="M157,90.2v8.2
		c0,2.8,2.2,5,5,5s5-2.2,5-5v-8.2c0-2.8-2.2-5-5-5C159.3,85.2,157,87.4,157,90.2z"/>
	<polyline clip-path="url(#SVGID_4_)" fill="none" stroke="#FFFFFF" stroke-width="1.5" stroke-linecap="square" points="
		213.401,103.5 218.901,85.4 219.8,85.4 225.2,103.5 	"/>
	<line clip-path="url(#SVGID_4_)" fill="none" stroke="#FFFFFF" stroke-width="1.5" x1="215.199" y1="97.2" x2="223.4" y2="97.2"/>
	<path clip-path="url(#SVGID_4_)" fill="none" stroke="#FFFFFF" stroke-width="1.5" stroke-linecap="square" d="M229.5,103.2h3.6
		c2.5,0,4.5-2,4.5-4.5s-2-4.5-4.5-4.5h-3.6h3.6c2.5,0,4.5-2,4.5-4.5s-2-4.5-4.5-4.5h-3.6V103.2z"/>
	<polyline clip-path="url(#SVGID_4_)" fill="none" stroke="#FFFFFF" stroke-width="1.5" stroke-linecap="square" points="
		264.699,103.2 256.5,103.2 256.5,85 264.699,85 	"/>
	
		<line clip-path="url(#SVGID_4_)" fill="none" stroke="#FFFFFF" stroke-width="1.5" stroke-linecap="square" x1="256.5" y1="94.1" x2="263.801" y2="94.1"/>
	<polyline clip-path="url(#SVGID_4_)" fill="none" stroke="#FFFFFF" stroke-width="1.5" stroke-linecap="square" points="
		242.901,85.1 242.901,103.3 252,103.3 	"/>
	
		<line clip-path="url(#SVGID_4_)" fill="none" stroke="#FFFFFF" stroke-width="1.5" stroke-linecap="square" x1="195.401" y1="85.1" x2="195.401" y2="103.3"/>
	<path clip-path="url(#SVGID_4_)" fill="none" stroke="#FFFFFF" stroke-width="1.5" stroke-linecap="square" d="M200.699,98.7
		c0,2.5,2,4.5,4.5,4.5s4.5-2,4.5-4.5c0-1-0.698-2.399-1.897-3.2c-1.103-0.699-4.202-2-5.301-2.699
		c-1.302-0.899-1.802-2.201-1.802-3.201c0-2.5,2-4.5,4.5-4.5s4.5,2,4.5,4.5"/>
	<polyline clip-path="url(#SVGID_4_)" fill="none" stroke="#FFFFFF" stroke-width="1.5" stroke-linecap="square" points="
		172.5,75.2 164.4,75.2 164.4,57 172.5,57 	"/>
	
		<line clip-path="url(#SVGID_4_)" fill="none" stroke="#FFFFFF" stroke-width="1.5" stroke-linecap="square" x1="164.4" y1="66.1" x2="171.6" y2="66.1"/>
	<polyline clip-path="url(#SVGID_4_)" fill="none" stroke="#FFFFFF" stroke-width="1.5" stroke-linecap="square" points="
		159.6,75.2 151.5,75.2 151.5,57 159.6,57 	"/>
	
		<line clip-path="url(#SVGID_4_)" fill="none" stroke="#FFFFFF" stroke-width="1.5" stroke-linecap="square" x1="151.5" y1="66.1" x2="158.7" y2="66.1"/>
	<path clip-path="url(#SVGID_4_)" fill="none" stroke="#FFFFFF" stroke-width="1.5" stroke-linecap="square" d="M177.2,75.3V57.2
		h3.601c2.5,0,4.5,2,4.5,4.5s-2,4.5-4.5,4.5H177.2"/>
	
		<line clip-path="url(#SVGID_4_)" fill="none" stroke="#FFFFFF" stroke-width="1.5" stroke-linecap="square" x1="138.5" y1="57" x2="138.5" y2="75.2"/>
	<line clip-path="url(#SVGID_4_)" fill="none" stroke="#FFFFFF" stroke-width="1.5" x1="147.6" y1="57" x2="138.5" y2="68.8"/>
	<line clip-path="url(#SVGID_4_)" fill="none" stroke="#FFFFFF" stroke-width="1.5" x1="141.3" y1="65.2" x2="148.5" y2="75.2"/>
	<path clip-path="url(#SVGID_4_)" fill="none" stroke="#FFFFFF" stroke-width="1.5" stroke-linecap="square" d="M184.199,103.3
		c2.5,0,4.5-2,4.5-4.5v-9.1c0-2.5-2-4.5-4.5-4.5h-4.5v18.202h4.5V103.3z"/>
	<path clip-path="url(#SVGID_4_)" fill="none" stroke="#FFFFFF" stroke-width="1.5" stroke-linecap="square" d="M273.676,103.4
		c2.5,0,4.5-2.101,4.5-4.601v-9.1c0-2.5-2-4.5-4.5-4.5h-4.5v18.2H273.676z"/>
	<path clip-path="url(#SVGID_4_)" fill="none" stroke="#7C7990" stroke-width="2" d="M55.4,66.2v10.6c0,2.8-2.6,5.101-5.8,5.101
		h-1.7"/>
	<path clip-path="url(#SVGID_4_)" fill="none" stroke="#7C7990" stroke-width="2" d="M80.4,66.2v10.6c0,2.8,2.6,5.101,5.8,5.101h1.7
		"/>
	<path clip-path="url(#SVGID_4_)" fill="none" stroke="#7C7990" stroke-width="2" d="M55.4,75.6v6.2c0,6.9,5.6,12.5,12.5,12.5
		s12.5-5.6,12.5-12.5v-6.2"/>
	<path clip-path="url(#SVGID_4_)" fill="none" stroke="#7C7990" stroke-width="2" d="M80.3,66.9c4.9,3.7,8.1,9.6,8.1,16.3
		c0,11.3-9.2,20.5-20.5,20.5c-11.3,0-20.5-9.2-20.5-20.5c0-6.5,3-12.3,7.8-16.1"/>
	
		<circle clip-path="url(#SVGID_4_)" fill="none" stroke="#37C560" stroke-width="2" stroke-linecap="round" cx="67.9" cy="64.9" r="12.5"/>
	
		<line clip-path="url(#SVGID_4_)" fill="none" stroke="#37C560" stroke-width="2" stroke-linecap="round" x1="62.9" y1="69.6" x2="72.9" y2="59.6"/>
	
		<line clip-path="url(#SVGID_4_)" fill="none" stroke="#FFFFFF" stroke-width="1.5" stroke-linecap="square" x1="107.9" y1="57.1" x2="107.9" y2="75.3"/>
	
		<line clip-path="url(#SVGID_4_)" fill="none" stroke="#FFFFFF" stroke-width="1.5" stroke-linecap="square" x1="101.5" y1="57.1" x2="114.2" y2="57.1"/>
</g>
<g id="blue">
	<defs>
		<rect id="SVGID_5_" width="340.157" height="170.078"/>
	</defs>
	<clipPath id="SVGID_6_">
		<use xlink:href="#SVGID_5_"  overflow="visible"/>
	</clipPath>
	<path clip-path="url(#SVGID_6_)" fill="none" stroke="#7C7990" stroke-width="2" d="M55.4,66.2v10.6c0,2.8-2.6,5.101-5.8,5.101
		h-1.7"/>
	<path clip-path="url(#SVGID_6_)" fill="none" stroke="#7C7990" stroke-width="2" d="M80.4,66.2v10.6c0,2.8,2.6,5.101,5.8,5.101h1.7
		"/>
	<path clip-path="url(#SVGID_6_)" fill="none" stroke="#7C7990" stroke-width="2" d="M55.4,75.6v6.2c0,6.9,5.6,12.5,12.5,12.5
		s12.5-5.6,12.5-12.5v-6.2"/>
	<path clip-path="url(#SVGID_6_)" fill="none" stroke="#7C7990" stroke-width="2" d="M80.3,66.9c4.9,3.7,8.1,9.6,8.1,16.3
		c0,11.3-9.2,20.5-20.5,20.5c-11.3,0-20.5-9.2-20.5-20.5c0-6.5,3-12.3,7.8-16.1"/>
	<circle clip-path="url(#SVGID_6_)" fill="none" stroke="#698EFF" stroke-width="2" cx="67.9" cy="64.9" r="12.5"/>
	
		<line clip-path="url(#SVGID_6_)" fill="none" stroke="#698EFF" stroke-width="2" stroke-linecap="round" x1="62.9" y1="69.6" x2="72.9" y2="59.6"/>
	<polyline clip-path="url(#SVGID_6_)" fill="none" stroke="#FFFFFF" stroke-width="1.5" stroke-linecap="square" points="
		163.949,75.3 169.449,56.9 170.349,56.9 175.848,75.3 	"/>
	
		<line clip-path="url(#SVGID_6_)" fill="none" stroke="#FFFFFF" stroke-width="1.5" x1="165.749" y1="68.9" x2="174.048" y2="68.9"/>
	
		<line clip-path="url(#SVGID_6_)" fill="none" stroke="#FFFFFF" stroke-width="1.5" stroke-linecap="square" x1="101.6" y1="57.1" x2="114.4" y2="57.1"/>
	
		<line clip-path="url(#SVGID_6_)" fill="none" stroke="#FFFFFF" stroke-width="1.5" stroke-linecap="square" x1="108" y1="57.1" x2="108" y2="75.4"/>
	<polyline clip-path="url(#SVGID_6_)" fill="none" stroke="#FFFFFF" stroke-width="1.5" points="146.049,75.3 137.749,75.3 
		137.749,56.9 146.049,56.9 	"/>
	
		<line clip-path="url(#SVGID_6_)" fill="none" stroke="#FFFFFF" stroke-width="1.5" x1="137.749" y1="66.1" x2="145.049" y2="66.1"/>
	<path clip-path="url(#SVGID_6_)" fill="none" stroke="#FFFFFF" stroke-width="1.5" d="M179.651,75.3h3.697
		c2.5,0,4.602-2.1,4.602-4.6s-2.102-4.6-4.602-4.6h-3.697h3.697c2.5,0,4.602-2.1,4.602-4.6s-2.102-4.6-4.602-4.6h-3.697V75.3z"/>
	<path clip-path="url(#SVGID_6_)" fill="none" stroke="#FFFFFF" stroke-width="1.5" stroke-linecap="square" d="M116.7,62v8.3
		c0,2.8,2.3,5,5,5c2.8,0,5-2.3,5-5V62c0-2.8-2.3-5-5-5S116.7,59.2,116.7,62z"/>
	
		<line clip-path="url(#SVGID_6_)" fill="none" stroke="#FFFFFF" stroke-width="1.5" stroke-linecap="square" x1="101.6" y1="85.2" x2="114.4" y2="85.2"/>
	
		<line clip-path="url(#SVGID_6_)" fill="none" stroke="#FFFFFF" stroke-width="1.5" stroke-linecap="square" x1="108" y1="85.2" x2="108" y2="103.6"/>
	<polyline clip-path="url(#SVGID_6_)" fill="none" stroke="#FFFFFF" stroke-width="1.5" stroke-linecap="square" points="
		139.388,103.6 131.188,103.6 131.188,85.201 139.388,85.201 	"/>
	
		<line clip-path="url(#SVGID_6_)" fill="none" stroke="#FFFFFF" stroke-width="1.5" stroke-linecap="square" x1="131.188" y1="94.4" x2="138.487" y2="94.4"/>
	
		<line clip-path="url(#SVGID_6_)" fill="none" stroke="#FFFFFF" stroke-width="1.5" stroke-linecap="square" x1="117.8" y1="85.2" x2="117.8" y2="103.6"/>
	
		<line clip-path="url(#SVGID_6_)" fill="none" stroke="#FFFFFF" stroke-width="1.5" stroke-linecap="square" x1="127" y1="85.2" x2="127" y2="103.6"/>
	
		<line clip-path="url(#SVGID_6_)" fill="none" stroke="#FFFFFF" stroke-width="1.5" stroke-linecap="square" x1="117.8" y1="94.4" x2="127" y2="94.4"/>
	<polyline clip-path="url(#SVGID_6_)" fill="none" stroke="#FFFFFF" stroke-width="1.5" stroke-linecap="square" points="
		213.848,75.3 205.547,75.3 205.547,56.9 213.848,56.9 	"/>
	
		<line clip-path="url(#SVGID_6_)" fill="none" stroke="#FFFFFF" stroke-width="1.5" stroke-linecap="square" x1="205.548" y1="66.1" x2="212.949" y2="66.1"/>
	<polyline clip-path="url(#SVGID_6_)" fill="none" stroke="#FFFFFF" stroke-width="1.5" stroke-linecap="square" points="
		192.449,56.9 192.449,75.3 201.548,75.3 	"/>
	<polyline clip-path="url(#SVGID_6_)" fill="none" stroke="#FFFFFF" stroke-width="1.5" stroke-linecap="square" points="
		200.914,103.6 206.414,85.201 207.311,85.201 212.811,103.6 	"/>
	
		<line clip-path="url(#SVGID_6_)" fill="none" stroke="#FFFFFF" stroke-width="1.5" x1="202.713" y1="97.1" x2="211.013" y2="97.1"/>
	
		<line clip-path="url(#SVGID_6_)" fill="none" stroke="#FFFFFF" stroke-width="1.5" stroke-linecap="square" x1="231.125" y1="85.2" x2="231.125" y2="103.6"/>
	<path clip-path="url(#SVGID_6_)" fill="none" stroke="#FFFFFF" stroke-width="1.5" stroke-linecap="square" d="M221.414,103.6
		c2.5,0,4.601-2.1,4.601-4.6v-9.2c0-2.5-2.101-4.599-4.601-4.599h-4.603V103.6H221.414z"/>
	<path clip-path="url(#SVGID_6_)" fill="none" stroke="#FFFFFF" stroke-width="1.5" stroke-linecap="square" d="M188.012,103.6
		V85.201h3.699c2.5,0,4.601,2.099,4.601,4.599s-2.101,4.602-4.601,4.602h-2.8l6.399,9.198"/>
	<polyline clip-path="url(#SVGID_6_)" fill="none" stroke="#FFFFFF" stroke-width="1.5" stroke-linecap="square" points="
		164.271,103.6 164.271,85.201 165.171,85.201 169.771,95.3 170.671,95.3 175.271,85.201 176.17,85.201 176.17,103.6 	"/>
	<polyline clip-path="url(#SVGID_6_)" fill="none" stroke="#FFFFFF" stroke-width="1.5" stroke-linecap="square" points="
		151.471,103.6 151.471,85.201 159.771,85.201 	"/>
	
		<line clip-path="url(#SVGID_6_)" fill="none" stroke="#FFFFFF" stroke-width="1.5" stroke-linecap="square" x1="151.471" y1="94.4" x2="158.871" y2="94.4"/>
	<path clip-path="url(#SVGID_6_)" fill="none" stroke="#FFFFFF" stroke-width="1.5" stroke-linecap="square" d="M236,90.3v8.3
		c0,2.803,2.301,5,5,5c2.801,0,5-2.3,5-5v-8.3c0-2.8-2.302-5-5-5C238.301,85.2,236,87.5,236,90.3z"/>
	<polyline clip-path="url(#SVGID_6_)" fill="none" stroke="#FFFFFF" stroke-width="1.5" stroke-linecap="square" points="
		150.949,75.3 150.949,56.9 151.849,56.9 159.149,75.3 160.149,75.3 160.149,56.9 	"/>
</g>
</svg>
