<?xml version="1.0" encoding="utf-8"?>
<!-- Generator: Adobe Illustrator 14.0.0, SVG Export Plug-In . SVG Version: 6.00 Build 43363)  -->
<!DOCTYPE svg PUBLIC "-//W3C//DTD SVG 1.1//EN" "http://www.w3.org/Graphics/SVG/1.1/DTD/svg11.dtd">
<svg version="1.1" id="Layer_1" xmlns="http://www.w3.org/2000/svg" xmlns:xlink="http://www.w3.org/1999/xlink" x="0px" y="0px"
	 width="320px" height="160px" viewBox="0 0 320 160" enable-background="new 0 0 320 160" xml:space="preserve">
<g id="static">
	<g>
		<line fill="none" stroke="#382649" stroke-width="1.5" x1="273.963" y1="131.531" x2="283.996" y2="131.531"/>
		<line fill="none" stroke="#382649" stroke-width="1.5" x1="273.963" y1="126.96" x2="283.996" y2="126.96"/>
		<line fill="none" stroke="#382649" stroke-width="1.5" x1="273.963" y1="122.391" x2="283.996" y2="122.391"/>
		<line fill="none" stroke="#382649" stroke-width="1.5" x1="273.963" y1="117.818" x2="283.996" y2="117.818"/>
		<line fill="none" stroke="#382649" stroke-width="1.5" x1="273.963" y1="113.249" x2="283.996" y2="113.249"/>
		<line fill="none" stroke="#382649" stroke-width="1.5" x1="273.963" y1="108.68" x2="283.996" y2="108.68"/>
		<line fill="none" stroke="#382649" stroke-width="1.5" x1="273.963" y1="104.107" x2="283.996" y2="104.107"/>
		<line fill="none" stroke="#382649" stroke-width="1.5" x1="273.963" y1="99.538" x2="283.996" y2="99.538"/>
		<line fill="none" stroke="#382649" stroke-width="1.5" x1="273.963" y1="94.969" x2="283.996" y2="94.969"/>
		<line fill="none" stroke="#382649" stroke-width="1.5" x1="273.963" y1="90.396" x2="283.996" y2="90.396"/>
		<line fill="none" stroke="#382649" stroke-width="1.5" x1="273.963" y1="85.826" x2="283.996" y2="85.826"/>
		<line fill="none" stroke="#382649" stroke-width="1.5" x1="273.963" y1="81.256" x2="283.996" y2="81.256"/>
		<line fill="none" stroke="#382649" stroke-width="1.5" x1="273.963" y1="76.686" x2="283.996" y2="76.686"/>
		<line fill="none" stroke="#382649" stroke-width="1.5" x1="273.963" y1="72.114" x2="283.996" y2="72.114"/>
		<line fill="none" stroke="#382649" stroke-width="1.5" x1="273.963" y1="67.544" x2="283.996" y2="67.544"/>
		<line fill="none" stroke="#382649" stroke-width="1.5" x1="273.963" y1="62.973" x2="283.996" y2="62.973"/>
		<line fill="none" stroke="#382649" stroke-width="1.5" x1="273.963" y1="58.403" x2="283.996" y2="58.403"/>
		<line fill="none" stroke="#382649" stroke-width="1.5" x1="273.963" y1="53.832" x2="283.996" y2="53.832"/>
		<line fill="none" stroke="#382649" stroke-width="1.5" x1="273.963" y1="49.262" x2="283.996" y2="49.262"/>
		<line fill="none" stroke="#382649" stroke-width="1.5" x1="290.152" y1="131.531" x2="295.17" y2="131.531"/>
		<line fill="none" stroke="#382649" stroke-width="1.5" x1="290.152" y1="122.391" x2="295.17" y2="122.391"/>
		<line fill="none" stroke="#382649" stroke-width="1.5" x1="290.152" y1="113.249" x2="295.17" y2="113.249"/>
		<line fill="none" stroke="#382649" stroke-width="1.5" x1="290.152" y1="104.107" x2="295.17" y2="104.107"/>
		<line fill="none" stroke="#382649" stroke-width="1.5" x1="290.152" y1="94.969" x2="295.17" y2="94.969"/>
		
			<line fill="none" stroke="#5F4270" stroke-width="1.5" stroke-linecap="square" x1="290.152" y1="85.826" x2="303.081" y2="85.826"/>
		<line fill="none" stroke="#382649" stroke-width="1.5" x1="290.152" y1="76.686" x2="295.17" y2="76.686"/>
		<line fill="none" stroke="#382649" stroke-width="1.5" x1="290.152" y1="67.544" x2="295.17" y2="67.544"/>
		<line fill="none" stroke="#382649" stroke-width="1.5" x1="290.152" y1="58.403" x2="295.17" y2="58.403"/>
		<line fill="none" stroke="#382649" stroke-width="1.5" x1="290.152" y1="49.262" x2="295.17" y2="49.262"/>
		<line fill="none" stroke="#382649" stroke-width="1.5" x1="273.963" y1="44.69" x2="283.996" y2="44.69"/>
		<line fill="none" stroke="#382649" stroke-width="1.5" x1="273.963" y1="40.12" x2="283.996" y2="40.12"/>
		<line fill="none" stroke="#382649" stroke-width="1.5" x1="290.152" y1="40.12" x2="295.17" y2="40.12"/>
	</g>
	<g>
		
			<line fill="none" stroke="#FF3A5D" stroke-width="1.5" stroke-linecap="square" x1="285.729" y1="9.793" x2="285.729" y2="23.966"/>
		<polyline fill="none" stroke="#FF3A5D" stroke-width="1.5" stroke-linecap="square" points="271.454,23.965 271.454,9.792 
			272.162,9.792 275.352,18.295 276.061,18.295 279.249,9.792 279.958,9.792 279.958,23.965 		"/>
		<polyline fill="none" stroke="#FF3A5D" stroke-width="1.5" stroke-linecap="square" points="290.236,9.792 290.236,10.146 
			298.033,23.611 298.033,23.966 		"/>
		<polyline fill="none" stroke="#FF3A5D" stroke-width="1.5" stroke-linecap="square" points="290.236,23.966 290.236,23.611 
			298.033,10.146 298.033,9.792 		"/>
	</g>
	<g>
		<path fill="none" stroke="#ADADFF" stroke-width="1.5" stroke-linecap="square" d="M243.77,21.415
			c1.174,0,2.127-0.952,2.127-2.126v-4.253c0-1.174-0.953-2.125-2.127-2.125h-2.127v8.504H243.77z"/>
		<polyline fill="none" stroke="#ADADFF" stroke-width="1.5" stroke-linecap="square" points="234.839,21.415 234.839,12.91 
			238.666,12.91 		"/>
		
			<line fill="none" stroke="#ADADFF" stroke-width="1.5" stroke-linecap="square" x1="234.839" y1="17.162" x2="238.24" y2="17.162"/>
		<path fill="none" stroke="#ADADFF" stroke-width="1.5" stroke-linecap="square" d="M249.411,21.415V12.91h1.7
			c1.174,0,2.127,0.952,2.127,2.126c0,1.175-0.953,2.126-2.127,2.126h-1.7"/>
		<path fill="none" stroke="#ADADFF" stroke-width="1.5" stroke-linecap="square" d="M249.411,17.162h1.7
			c1.174,0,2.127,0.952,2.127,2.127c0,1.174-0.953,2.126-2.127,2.126h-1.7"/>
		<polyline fill="none" stroke="#ADADFF" stroke-width="1.5" stroke-linecap="square" points="222.968,12.91 227.221,12.91 
			227.221,13.336 222.968,20.988 222.968,21.415 227.221,21.415 		"/>
		
			<rect x="217.214" y="8.783" fill="none" stroke="#ADADFF" stroke-width="1.5" stroke-linecap="square" width="41.106" height="16.601"/>
	</g>
	<g id="grid">
		<line fill="none" stroke="#382649" stroke-width="1.5" x1="128.792" y1="50.802" x2="30.578" y2="99.909"/>
		<line fill="none" stroke="#382649" stroke-width="1.5" x1="136.291" y1="54.552" x2="38.078" y2="103.659"/>
		<line fill="none" stroke="#382649" stroke-width="1.5" x1="143.791" y1="58.302" x2="45.579" y2="107.41"/>
		<line fill="none" stroke="#382649" stroke-width="1.5" x1="151.292" y1="62.052" x2="53.078" y2="111.159"/>
		<line fill="none" stroke="#382649" stroke-width="1.5" x1="158.792" y1="65.802" x2="60.579" y2="114.909"/>
		<line fill="none" stroke="#382649" stroke-width="1.5" x1="166.292" y1="69.552" x2="68.08" y2="118.659"/>
		<line fill="none" stroke="#382649" stroke-width="1.5" x1="173.792" y1="73.302" x2="75.579" y2="122.409"/>
		<line fill="none" stroke="#382649" stroke-width="1.5" x1="181.292" y1="77.053" x2="83.079" y2="126.159"/>
		<line fill="none" stroke="#382649" stroke-width="1.5" x1="188.792" y1="80.803" x2="90.58" y2="129.91"/>
		<line fill="none" stroke="#382649" stroke-width="1.5" x1="196.294" y1="84.553" x2="98.08" y2="133.66"/>
		<line fill="none" stroke="#382649" stroke-width="1.5" x1="203.795" y1="88.303" x2="105.582" y2="137.411"/>
		<line fill="none" stroke="#382649" stroke-width="1.5" x1="211.296" y1="92.055" x2="113.082" y2="141.161"/>
		<polyline fill="none" stroke="#382649" stroke-width="1.5" points="120.578,47.056 218.663,95.241 120.582,144.911 		"/>
		<line fill="none" stroke="#382649" stroke-width="1.5" x1="113.077" y1="50.806" x2="210.812" y2="99.675"/>
		<line fill="none" stroke="#382649" stroke-width="1.5" x1="105.577" y1="54.556" x2="203.312" y2="103.425"/>
		<line fill="none" stroke="#382649" stroke-width="1.5" x1="98.077" y1="58.307" x2="195.812" y2="107.174"/>
		<line fill="none" stroke="#382649" stroke-width="1.5" x1="90.576" y1="62.057" x2="188.312" y2="110.925"/>
		<line fill="none" stroke="#382649" stroke-width="1.5" x1="83.076" y1="65.807" x2="180.812" y2="114.675"/>
		<line fill="none" stroke="#382649" stroke-width="1.5" x1="75.575" y1="69.557" x2="173.311" y2="118.425"/>
		<line fill="none" stroke="#382649" stroke-width="1.5" x1="68.075" y1="73.307" x2="165.811" y2="122.176"/>
		<line fill="none" stroke="#382649" stroke-width="1.5" x1="60.575" y1="77.057" x2="158.311" y2="125.925"/>
		<line fill="none" stroke="#382649" stroke-width="1.5" x1="53.075" y1="80.807" x2="150.811" y2="129.675"/>
		<line fill="none" stroke="#382649" stroke-width="1.5" x1="45.574" y1="84.557" x2="143.309" y2="133.426"/>
		<line fill="none" stroke="#382649" stroke-width="1.5" x1="38.074" y1="88.307" x2="135.809" y2="137.176"/>
		<line fill="none" stroke="#382649" stroke-width="1.5" x1="30.574" y1="92.057" x2="128.312" y2="140.926"/>
		<polyline fill="none" stroke="#382649" stroke-width="1.5" points="121.293,47.052 23.075,95.807 120.812,144.678 		"/>
	</g>
</g>
<g id="x">
	<polyline fill="none" stroke="#698EFF" stroke-width="1.5" stroke-linecap="square" points="31.46,36.984 31.46,37.337 
		39.256,50.803 39.256,51.157 	"/>
	<polyline fill="none" stroke="#698EFF" stroke-width="1.5" stroke-linecap="square" points="31.46,51.158 31.46,50.803 
		39.256,37.338 39.256,36.984 	"/>
</g>
<g id="y">
	<polyline fill="none" stroke="#00ED95" stroke-width="1.5" stroke-linecap="square" points="71.025,5.824 71.025,6.532 
		74.568,13.62 78.111,6.532 78.111,5.824 	"/>
	<line fill="none" stroke="#00ED95" stroke-width="1.5" stroke-linecap="square" x1="74.569" y1="13.62" x2="74.569" y2="19.998"/>
</g>
<g>
	
		<line id="m0" fill="none" stroke="#FF3A5D" stroke-width="1.5" stroke-linecap="square" x1="274.568" y1="131.527" x2="284.602" y2="131.527"/>
	
		<line id="m1" fill="none" stroke="#FF3A5D" stroke-width="1.5" stroke-linecap="square" x1="274.568" y1="126.956" x2="284.602" y2="126.956"/>
	
		<line id="m2" fill="none" stroke="#FF3A5D" stroke-width="1.5" stroke-linecap="square" x1="274.568" y1="122.387" x2="284.602" y2="122.387"/>
	
		<line id="m3" fill="none" stroke="#FF3A5D" stroke-width="1.5" stroke-linecap="square" x1="274.568" y1="117.814" x2="284.602" y2="117.814"/>
	
		<line id="m4" fill="none" stroke="#FF3A5D" stroke-width="1.5" stroke-linecap="square" x1="274.568" y1="113.245" x2="284.602" y2="113.245"/>
	
		<line id="m5" fill="none" stroke="#FF3A5D" stroke-width="1.5" stroke-linecap="square" x1="274.568" y1="108.675" x2="284.602" y2="108.675"/>
	
		<line id="m6" fill="none" stroke="#FF3A5D" stroke-width="1.5" stroke-linecap="square" x1="274.568" y1="104.104" x2="284.602" y2="104.104"/>
	
		<line id="m7" fill="none" stroke="#FF3A5D" stroke-width="1.5" stroke-linecap="square" x1="274.568" y1="99.534" x2="284.602" y2="99.534"/>
	
		<line id="m8" fill="none" stroke="#FF3A5D" stroke-width="1.5" stroke-linecap="square" x1="274.568" y1="94.964" x2="284.602" y2="94.964"/>
	
		<line id="m9" fill="none" stroke="#FF3A5D" stroke-width="1.5" stroke-linecap="square" x1="274.568" y1="90.393" x2="284.602" y2="90.393"/>
	
		<line id="m10" fill="none" stroke="#FF3A5D" stroke-width="1.5" stroke-linecap="square" x1="274.568" y1="85.822" x2="284.602" y2="85.822"/>
	
		<line id="m11" fill="none" stroke="#FF3A5D" stroke-width="1.5" stroke-linecap="square" x1="274.568" y1="81.252" x2="284.602" y2="81.252"/>
	
		<line id="m12" fill="none" stroke="#FF3A5D" stroke-width="1.5" stroke-linecap="square" x1="274.568" y1="76.684" x2="284.602" y2="76.684"/>
	
		<line id="m13" fill="none" stroke="#FF3A5D" stroke-width="1.5" stroke-linecap="square" x1="274.568" y1="72.118" x2="284.602" y2="72.118"/>
	
		<line id="m14" fill="none" stroke="#FF3A5D" stroke-width="1.5" stroke-linecap="square" x1="274.568" y1="67.548" x2="284.602" y2="67.548"/>
	
		<line id="m15" fill="none" stroke="#FF3A5D" stroke-width="1.5" stroke-linecap="square" x1="274.568" y1="62.977" x2="284.602" y2="62.977"/>
	
		<line id="m16" fill="none" stroke="#FF3A5D" stroke-width="1.5" stroke-linecap="square" x1="274.568" y1="58.407" x2="284.602" y2="58.407"/>
	
		<line id="m17" fill="none" stroke="#FF3A5D" stroke-width="1.5" stroke-linecap="square" x1="274.568" y1="53.836" x2="284.602" y2="53.836"/>
	
		<line id="m18" fill="none" stroke="#FF3A5D" stroke-width="1.5" stroke-linecap="square" x1="274.568" y1="49.266" x2="284.602" y2="49.266"/>
	
		<line id="m19" fill="none" stroke="#FF3A5D" stroke-width="1.5" stroke-linecap="square" x1="274.568" y1="44.694" x2="284.602" y2="44.694"/>
	
		<line id="m20" fill="none" stroke="#FF3A5D" stroke-width="1.5" stroke-linecap="square" x1="274.568" y1="40.121" x2="284.602" y2="40.121"/>
</g>
<g id="blue">
	<polyline fill="none" stroke="#698EFF" stroke-width="1.5" stroke-linecap="square" points="33.82,47.428 25.316,47.428 
		25.316,46.72 30.985,37.507 31.694,37.507 31.694,51.681 	"/>
	<path fill="none" stroke="#698EFF" stroke-width="1.5" stroke-linecap="square" d="M43.601,37.507h-7.087v10.631
		c0-1.957,1.587-3.543,3.544-3.543s3.543,1.586,3.543,3.543c0,1.957-1.586,3.543-3.543,3.543h-3.544"/>
</g>
<g id="green">
	<polyline fill="none" stroke="#00ED95" stroke-width="1.5" stroke-linecap="square" points="74.105,15.823 65.601,15.823 
		65.601,15.115 71.27,5.901 71.979,5.901 71.979,20.075 	"/>
	<path fill="none" stroke="#00ED95" stroke-width="1.5" stroke-linecap="square" d="M83.885,5.902h-7.089v10.63
		c0-1.957,1.589-3.543,3.544-3.543c1.957,0,3.545,1.586,3.545,3.543s-1.588,3.543-3.545,3.543h-3.544"/>
</g>
<g id="white">
	<polyline fill="none" stroke="#ADADFF" stroke-width="1.5" stroke-linecap="square" points="237.887,126.874 229.382,126.874 
		229.382,126.166 235.051,116.953 235.76,116.953 235.76,131.127 	"/>
	<path fill="none" stroke="#ADADFF" stroke-width="1.5" stroke-linecap="square" d="M247.667,116.953h-7.088v10.631
		c0-1.957,1.588-3.543,3.545-3.543c1.956,0,3.543,1.586,3.543,3.543s-1.587,3.543-3.543,3.543h-3.545"/>
</g>
<polygon id="wbase" fill="none" stroke="#DFD9FF" stroke-width="1.5" stroke-linecap="round" stroke-linejoin="round" points="
	246.042,95.716 239.121,99.178 232.198,95.716 239.121,92.254 "/>
<polygon id="wtop" fill="none" stroke="#DFD9FF" stroke-width="1.5" stroke-linecap="round" stroke-linejoin="round" points="
	246.038,95.521 239.117,98.98 232.193,95.521 239.117,92.059 "/>
</svg>
