<?xml version="1.0" encoding="utf-8"?>
<!-- Generator: Adobe Illustrator 15.0.0, SVG Export Plug-In . SVG Version: 6.00 Build 0)  -->
<!DOCTYPE svg PUBLIC "-//W3C//DTD SVG 1.1//EN" "http://www.w3.org/Graphics/SVG/1.1/DTD/svg11.dtd">
<svg version="1.1" id="Layer_1" xmlns="http://www.w3.org/2000/svg" xmlns:xlink="http://www.w3.org/1999/xlink" x="0px" y="0px"
	 width="320px" height="160px" viewBox="0 0 320 160" enable-background="new 0 0 320 160" xml:space="preserve">
<g id="static">
	<g>
		<path fill="none" stroke="#534468" stroke-width="2" d="M75.693,45.028C75.693,26.788,60.906,12,42.667,12
			C24.426,12,9.639,26.788,9.639,45.028"/>
		<circle fill="#698EFF" cx="17.41" cy="44.502" r="2.494"/>
		<circle fill="#383572" cx="19.91" cy="33.545" r="2.494"/>
		<circle fill="#00ED95" cx="26.918" cy="24.756" r="2.494"/>
		<circle fill="#00475B" cx="37.045" cy="19.879" r="2.494"/>
		<circle fill="#FFFFFF" cx="48.286" cy="19.878" r="2.494"/>
		<circle fill="#656579" cx="58.413" cy="24.755" r="2.494"/>
		<circle fill="#FF3A5D" cx="65.422" cy="33.542" r="2.494"/>
		<circle fill="#512132" cx="67.924" cy="44.502" r="2.494"/>
	</g>
	<g>
		<path fill="none" stroke="#534468" stroke-width="2" d="M154.733,45.028c0-18.24-14.788-33.028-33.027-33.028
			c-18.24,0-33.027,14.788-33.027,33.028"/>
		<circle fill="#698EFF" cx="96.45" cy="44.502" r="2.494"/>
		<circle fill="#383572" cx="98.95" cy="33.545" r="2.494"/>
		<circle fill="#00ED95" cx="105.958" cy="24.756" r="2.494"/>
		<circle fill="#00475B" cx="116.085" cy="19.879" r="2.494"/>
		<circle fill="#FFFFFF" cx="127.325" cy="19.878" r="2.494"/>
		<circle fill="#656579" cx="137.453" cy="24.755" r="2.494"/>
		<circle fill="#FF3A5D" cx="144.462" cy="33.542" r="2.494"/>
		<circle fill="#512132" cx="146.964" cy="44.502" r="2.494"/>
	</g>
	<g>
		<path fill="none" stroke="#534468" stroke-width="2" d="M233.616,45.028c0-18.24-14.787-33.028-33.027-33.028
			c-18.237,0-33.024,14.788-33.024,33.028"/>
		<circle fill="#698EFF" cx="175.333" cy="44.502" r="2.495"/>
		<circle fill="#383572" cx="177.833" cy="33.545" r="2.494"/>
		<circle fill="#00ED95" cx="184.841" cy="24.756" r="2.494"/>
		<circle fill="#00475B" cx="194.968" cy="19.879" r="2.494"/>
		<circle fill="#FFFFFF" cx="206.208" cy="19.878" r="2.494"/>
		<circle fill="#656579" cx="216.336" cy="24.755" r="2.494"/>
		<circle fill="#FF3A5D" cx="223.346" cy="33.542" r="2.494"/>
		<circle fill="#512132" cx="225.848" cy="44.502" r="2.494"/>
	</g>
	<g>
		<path fill="none" stroke="#534468" stroke-width="2" d="M311.311,45.028c0-18.24-14.787-33.028-33.021-33.028
			c-18.24,0-33.024,14.788-33.024,33.028"/>
		<circle fill="#698EFF" cx="253.027" cy="44.502" r="2.494"/>
		<circle fill="#383572" cx="255.527" cy="33.545" r="2.494"/>
		<circle fill="#00ED95" cx="262.536" cy="24.756" r="2.494"/>
		<circle fill="#00475B" cx="272.663" cy="19.879" r="2.494"/>
		<circle fill="#FFFFFF" cx="283.902" cy="19.878" r="2.494"/>
		<circle fill="#656579" cx="294.031" cy="24.755" r="2.495"/>
		<circle fill="#FF3A5D" cx="301.04" cy="33.542" r="2.494"/>
		<circle fill="#512132" cx="303.542" cy="44.502" r="2.495"/>
	</g>
	<path fill="none" stroke="#698EFF" stroke-width="1.5" d="M54.01,104.691c0-3.34-2.707-6.047-6.047-6.047h-1.008
		c-3.34,0-6.047,2.707-6.047,6.047v8.062c0,3.34,2.708,6.048,6.047,6.048h1.008c3.34,0,6.047-2.708,6.047-6.048"/>
	<path fill="none" stroke="#698EFF" stroke-width="1.5" d="M36.697,104.691c0-3.34-2.708-6.047-6.048-6.047h-1.008
		c-3.339,0-6.047,2.707-6.047,6.047v8.062c0,3.34,2.708,6.048,6.047,6.048h1.008c3.34,0,6.048-2.708,6.048-6.048"/>
	<line fill="none" stroke="#698EFF" stroke-width="1.5" x1="60.431" y1="118.805" x2="60.431" y2="98.645"/>
	<path fill="none" stroke="#00ED95" stroke-width="1.5" d="M129.21,104.691c0-3.34-2.707-6.047-6.047-6.047h-1.007
		c-3.34,0-6.048,2.707-6.048,6.047v8.062c0,3.34,2.708,6.048,6.048,6.048h1.007c3.34,0,6.047-2.708,6.047-6.048"/>
	<path fill="none" stroke="#00ED95" stroke-width="1.5" d="M111.805,104.691c0-3.34-2.707-6.047-6.047-6.047h-1.007
		c-3.34,0-6.047,2.707-6.047,6.047v8.062c0,3.34,2.708,6.048,6.047,6.048h1.007c3.34,0,6.047-2.708,6.047-6.048"/>
	<path fill="none" stroke="#DFD9FF" stroke-width="1.5" d="M207.402,104.691c0-3.342-2.709-6.049-6.049-6.049h-1.008
		c-3.343,0-6.052,2.707-6.052,6.049v8.062c0,3.34,2.709,6.048,6.052,6.048h1.008c3.34,0,6.049-2.708,6.049-6.048"/>
	<path fill="none" stroke="#DFD9FF" stroke-width="1.5" d="M190.326,104.691c0-3.342-2.707-6.049-6.047-6.049h-1.008
		c-3.344,0-6.057,2.707-6.057,6.049v8.062c0,3.34,2.713,6.048,6.057,6.048h1.008c3.34,0,6.047-2.708,6.047-6.048"/>
	<path fill="none" stroke="#00ED95" stroke-width="1.5" d="M133.632,103.684c0-2.781,2.256-5.039,5.038-5.039h3.022
		c2.78,0,5.041,2.258,5.041,5.039c0,1.137,0,2.021-1.517,3.528l-11.59,10.583v1.01h13.104"/>
	<path fill="none" stroke="#DFD9FF" stroke-width="1.5" d="M210.938,113.764c0,2.782,2.256,5.039,5.039,5.039h3.021
		c2.783,0,5.04-2.257,5.04-5.039c0-2.783-2.257-5.041-5.04-5.041h-2.018v-0.504l7.058-8.566v-1.008h-13.104"/>
	<path fill="none" stroke="#FF3A5D" stroke-width="1.5" stroke-linecap="square" d="M286.312,104.691
		c0-3.34-2.707-6.047-6.049-6.047h-1.011c-3.34,0-6.047,2.707-6.047,6.047v8.062c0,3.34,2.707,6.048,6.047,6.048h1.011
		c3.342,0,6.049-2.708,6.049-6.048"/>
	<path fill="none" stroke="#FF3A5D" stroke-width="1.5" stroke-linecap="square" d="M268.671,104.691
		c0-3.34-2.705-6.047-6.047-6.047h-1.009c-3.34,0-6.047,2.707-6.047,6.047v8.062c0,3.34,2.707,6.048,6.047,6.048h1.009
		c3.342,0,6.047-2.708,6.047-6.048"/>
	<polyline fill="none" stroke="#FF3A5D" stroke-width="1.5" stroke-linecap="square" points="302.433,112.756 290.338,112.756 
		290.338,111.748 298.401,98.645 299.41,98.645 299.41,118.805 	"/>
</g>
<g id="fx0">
	<polyline fill="none" stroke="#698EFF" stroke-width="1.5" stroke-linecap="square" points="30.788,85.273 30.788,64 40.354,64 	
		"/>
	<line fill="none" stroke="#698EFF" stroke-width="1.5" stroke-linecap="square" x1="30.788" y1="74.632" x2="39.29" y2="74.632"/>
	<polyline fill="none" stroke="#698EFF" stroke-width="1.5" stroke-linecap="square" points="43.542,64 43.542,65.064 
		55.235,84.211 55.235,86.318 	"/>
	<polyline fill="none" stroke="#698EFF" stroke-width="1.5" stroke-linecap="square" points="43.542,85.273 43.542,84.211 
		55.235,65.064 55.235,64 	"/>
</g>
<path id="synth0" fill="none" stroke="#698EFF" stroke-width="1.5" d="M61.094,69.304c0-1.662-1.351-3.004-3.006-3.004
	c-1.659,0-3.013,1.344-3.013,3.004l0.023,11.711c0,1.652-1.353,3.004-3.011,3.004c-1.662,0-3.01-1.354-3.01-3.004V69.304
	c0-1.662-1.352-3.004-3.01-3.004c-1.66,0-3.01,1.344-3.01,3.004l-0.07,11.711c0,1.652-1.346,3.004-3.006,3.004
	c-1.662,0-3.01-1.354-3.01-3.004V69.304c0-1.662-1.35-3.004-3.012-3.004s-3.009,1.344-3.009,3.004l-0.021,11.711
	c0,1.652-1.353,3.004-3.007,3.004c-1.662,0-3.012-1.354-3.012-3.004"/>
<g id="drum0">
	<circle fill="none" stroke="#00ED95" stroke-width="1.5" cx="43.012" cy="74.374" r="8.861"/>
	<path fill="#00ED95" d="M44.768,76.041c0,0.968-0.784,1.752-1.756,1.752c-0.97,0-1.755-0.87-1.755-1.84
		c0-0.971,0.785-1.666,1.755-1.666C43.981,74.287,44.768,75.074,44.768,76.041"/>
	<path fill="none" stroke="#00ED95" stroke-width="1.5" d="M44.768,76.041c0,0.968-0.784,1.752-1.756,1.752
		c-0.97,0-1.755-0.87-1.755-1.84c0-0.971,0.785-1.666,1.755-1.666C43.981,74.287,44.768,75.074,44.768,76.041z"/>
	<line fill="none" stroke="#00ED95" stroke-width="1.5" x1="43.012" y1="87.355" x2="43.012" y2="76.127"/>
</g>
<g id="adsr0">
	<path fill="none" stroke="#DFD9FF" stroke-width="1.5" d="M42.907,73.287h8.594c0,0,0.871,6.511,6.74,6.511"/>
	<path fill="none" stroke="#DFD9FF" stroke-width="1.5" d="M28.241,79.798c0,0,0.33-9.839,8.146-14.334c0,0-0.326,7.823,6.521,7.823
		"/>
</g>
<g id="dynaenv0">
	<path fill="none" stroke="#00ED95" stroke-width="1.5" stroke-linecap="square" d="M41.907,74.287h8.594
		c0,0,0.871,6.511,6.74,6.511"/>
	<path fill="none" stroke="#00ED95" stroke-width="1.5" stroke-linecap="square" d="M27.241,80.798c0,0,0.33-9.839,8.146-14.334
		c0,0-0.326,7.823,6.521,7.823"/>
</g>
<g id="other0">
	<g id="_x3C_path_x3E__1_">
		<path fill="none" stroke="#DFD9FF" stroke-width="1.5" d="M32.618,77.176c1.41,0,2.553,1.143,2.553,2.553
			c0,1.414-1.143,2.562-2.553,2.562c-1.409,0-2.553-1.148-2.553-2.562C30.067,78.318,31.209,77.176,32.618,77.176z"/>
		<line fill="none" stroke="#DFD9FF" stroke-width="1.5" x1="35.169" y1="79.729" x2="35.169" y2="65.271"/>
	</g>
	<g id="_x3C_path_x3E_">
		<polygon fill="none" stroke="#DFD9FF" stroke-width="1.5" points="53.14,67.022 53.14,81.201 47.448,77.67 47.448,70.969 		"/>
		<rect x="41.716" y="70.969" fill="none" stroke="#DFD9FF" stroke-width="1.5" width="5.73" height="6.701"/>
	</g>
</g>
<g id="fx1_1_">
	<polyline fill="none" stroke="#698EFF" stroke-width="1.5" stroke-linecap="square" points="108.788,85.273 108.788,64 118.354,64 
			"/>
	
		<line fill="none" stroke="#698EFF" stroke-width="1.5" stroke-linecap="square" x1="108.788" y1="74.632" x2="117.29" y2="74.632"/>
	<polyline fill="none" stroke="#698EFF" stroke-width="1.5" stroke-linecap="square" points="121.542,64 121.542,65.064 
		133.235,84.211 133.235,86.318 	"/>
	<polyline fill="none" stroke="#698EFF" stroke-width="1.5" stroke-linecap="square" points="121.542,85.273 121.542,84.211 
		133.235,65.064 133.235,64 	"/>
</g>
<path id="synth1_1_" fill="none" stroke="#698EFF" stroke-width="1.5" d="M139.094,69.304c0-1.662-1.351-3.004-3.006-3.004
	c-1.66,0-3.013,1.344-3.013,3.004l0.023,11.711c0,1.652-1.353,3.004-3.011,3.004c-1.662,0-3.01-1.354-3.01-3.004V69.304
	c0-1.662-1.352-3.004-3.01-3.004c-1.66,0-3.01,1.344-3.01,3.004l-0.07,11.711c0,1.652-1.346,3.004-3.006,3.004
	c-1.662,0-3.01-1.354-3.01-3.004V69.304c0-1.662-1.35-3.004-3.012-3.004s-3.009,1.344-3.009,3.004l-0.021,11.711
	c0,1.652-1.353,3.004-3.007,3.004c-1.662,0-3.012-1.354-3.012-3.004"/>
<g id="drum1_1_">
	<circle fill="none" stroke="#00ED95" stroke-width="1.5" cx="121.012" cy="74.374" r="8.861"/>
	<path fill="#00ED95" d="M122.768,76.041c0,0.968-0.784,1.752-1.756,1.752c-0.97,0-1.755-0.87-1.755-1.84
		c0-0.971,0.785-1.666,1.755-1.666C121.981,74.287,122.768,75.074,122.768,76.041"/>
	<path fill="none" stroke="#00ED95" stroke-width="1.5" d="M122.768,76.041c0,0.968-0.784,1.752-1.756,1.752
		c-0.97,0-1.755-0.87-1.755-1.84c0-0.971,0.785-1.666,1.755-1.666C121.981,74.287,122.768,75.074,122.768,76.041z"/>
	<line fill="none" stroke="#00ED95" stroke-width="1.5" x1="121.012" y1="87.355" x2="121.012" y2="76.127"/>
</g>
<g id="adsr1_1_">
	<path fill="none" stroke="#DFD9FF" stroke-width="1.5" d="M120.907,73.287h8.594c0,0,0.871,6.511,6.74,6.511"/>
	<path fill="none" stroke="#DFD9FF" stroke-width="1.5" d="M106.241,79.798c0,0,0.33-9.839,8.146-14.334
		c0,0-0.326,7.823,6.521,7.823"/>
</g>
<g id="dynaenv1_1_">
	<path fill="none" stroke="#00ED95" stroke-width="1.5" stroke-linecap="square" d="M119.907,74.287h8.594
		c0,0,0.871,6.511,6.74,6.511"/>
	<path fill="none" stroke="#00ED95" stroke-width="1.5" stroke-linecap="square" d="M105.241,80.798c0,0,0.33-9.839,8.146-14.334
		c0,0-0.326,7.823,6.521,7.823"/>
</g>
<g id="other1_1_">
	<g id="_x3C_path_x3E__3_">
		<path fill="none" stroke="#DFD9FF" stroke-width="1.5" d="M110.618,77.176c1.41,0,2.553,1.143,2.553,2.553
			c0,1.414-1.143,2.562-2.553,2.562c-1.409,0-2.553-1.148-2.553-2.562C108.067,78.318,109.209,77.176,110.618,77.176z"/>
		<line fill="none" stroke="#DFD9FF" stroke-width="1.5" x1="113.169" y1="79.729" x2="113.169" y2="65.271"/>
	</g>
	<g id="_x3C_path_x3E__2_">
		<polygon fill="none" stroke="#DFD9FF" stroke-width="1.5" points="131.14,67.022 131.14,81.201 125.448,77.67 125.448,70.969 		
			"/>
		<rect x="119.716" y="70.969" fill="none" stroke="#DFD9FF" stroke-width="1.5" width="5.73" height="6.701"/>
	</g>
</g>
<g id="fx2_1_">
	<polyline fill="none" stroke="#698EFF" stroke-width="1.5" stroke-linecap="square" points="187.788,85.273 187.788,64 197.354,64 
			"/>
	
		<line fill="none" stroke="#698EFF" stroke-width="1.5" stroke-linecap="square" x1="187.788" y1="74.632" x2="196.29" y2="74.632"/>
	<polyline fill="none" stroke="#698EFF" stroke-width="1.5" stroke-linecap="square" points="200.542,64 200.542,65.064 
		212.234,84.211 212.234,86.318 	"/>
	<polyline fill="none" stroke="#698EFF" stroke-width="1.5" stroke-linecap="square" points="200.542,85.273 200.542,84.211 
		212.234,65.064 212.234,64 	"/>
</g>
<path id="synth2_1_" fill="none" stroke="#698EFF" stroke-width="1.5" d="M218.094,69.304c0-1.662-1.351-3.004-3.006-3.004
	c-1.66,0-3.013,1.344-3.013,3.004l0.022,11.711c0,1.652-1.354,3.004-3.019,3.004s-3.013-1.354-3.013-3.004V69.304
	c0-1.662-1.354-3.004-3.014-3.004c-1.656,0-3.012,1.344-3.012,3.004l-0.068,11.711c0,1.652-1.348,3.004-3.006,3.004
	c-1.662,0-3.012-1.354-3.012-3.004V69.304c0-1.662-1.35-3.004-3.012-3.004s-3.01,1.344-3.01,3.004l-0.021,11.711
	c0,1.652-1.354,3.004-3.01,3.004c-1.662,0-3.012-1.354-3.012-3.004"/>
<g id="drum2_1_">
	<circle fill="none" stroke="#00ED95" stroke-width="1.5" cx="200.012" cy="74.374" r="8.861"/>
	<path fill="#00ED95" d="M201.768,76.041c0,0.968-0.783,1.752-1.756,1.752c-0.97,0-1.755-0.87-1.755-1.84
		c0-0.971,0.785-1.666,1.755-1.666C200.98,74.287,201.768,75.074,201.768,76.041"/>
	<path fill="none" stroke="#00ED95" stroke-width="1.5" d="M201.768,76.041c0,0.968-0.783,1.752-1.756,1.752
		c-0.97,0-1.755-0.87-1.755-1.84c0-0.971,0.785-1.666,1.755-1.666C200.98,74.287,201.768,75.074,201.768,76.041z"/>
	<line fill="none" stroke="#00ED95" stroke-width="1.5" x1="200.012" y1="87.355" x2="200.012" y2="76.127"/>
</g>
<g id="adsr2_1_">
	<path fill="none" stroke="#DFD9FF" stroke-width="1.5" d="M199.907,73.287h8.594c0,0,0.871,6.511,6.74,6.511"/>
	<path fill="none" stroke="#DFD9FF" stroke-width="1.5" d="M185.241,79.798c0,0,0.329-9.839,8.146-14.334
		c0,0-0.326,7.823,6.521,7.823"/>
</g>
<g id="dynaenv2_1_">
	<path fill="none" stroke="#00ED95" stroke-width="1.5" stroke-linecap="square" d="M198.907,74.287h8.594
		c0,0,0.871,6.511,6.74,6.511"/>
	<path fill="none" stroke="#00ED95" stroke-width="1.5" stroke-linecap="square" d="M184.241,80.798c0,0,0.329-9.839,8.146-14.334
		c0,0-0.326,7.823,6.521,7.823"/>
</g>
<g id="other2_1_">
	<g id="_x3C_path_x3E__5_">
		<path fill="none" stroke="#DFD9FF" stroke-width="1.5" d="M189.618,77.176c1.409,0,2.553,1.143,2.553,2.553
			c0,1.414-1.144,2.562-2.553,2.562s-2.554-1.148-2.554-2.562C187.066,78.318,188.209,77.176,189.618,77.176z"/>
		<line fill="none" stroke="#DFD9FF" stroke-width="1.5" x1="192.169" y1="79.729" x2="192.169" y2="65.271"/>
	</g>
	<g id="_x3C_path_x3E__4_">
		<polygon fill="none" stroke="#DFD9FF" stroke-width="1.5" points="210.141,67.022 210.141,81.201 204.448,77.67 204.448,70.969 		
			"/>
		<rect x="198.716" y="70.969" fill="none" stroke="#DFD9FF" stroke-width="1.5" width="5.729" height="6.701"/>
	</g>
</g>
<g id="fx3_1_">
	<polyline fill="none" stroke="#698EFF" stroke-width="1.5" stroke-linecap="square" points="266.788,85.273 266.788,64 276.354,64 
			"/>
	
		<line fill="none" stroke="#698EFF" stroke-width="1.5" stroke-linecap="square" x1="266.788" y1="74.632" x2="275.29" y2="74.632"/>
	<polyline fill="none" stroke="#698EFF" stroke-width="1.5" stroke-linecap="square" points="279.542,64 279.542,65.064 
		291.234,84.211 291.234,86.318 	"/>
	<polyline fill="none" stroke="#698EFF" stroke-width="1.5" stroke-linecap="square" points="279.542,85.273 279.542,84.211 
		291.234,65.064 291.234,64 	"/>
</g>
<path id="synth3_1_" fill="none" stroke="#698EFF" stroke-width="1.5" d="M297.094,69.304c0-1.662-1.351-3.004-3.006-3.004
	c-1.66,0-3.013,1.344-3.013,3.004l0.022,11.711c0,1.652-1.354,3.004-3.019,3.004s-3.013-1.354-3.013-3.004V69.304
	c0-1.662-1.354-3.004-3.014-3.004s-3.012,1.344-3.012,3.004l-0.068,11.711c0,1.652-1.348,3.004-3.006,3.004
	c-1.662,0-3.013-1.354-3.013-3.004V69.304c0-1.662-1.349-3.004-3.011-3.004s-3.01,1.344-3.01,3.004l-0.021,11.711
	c0,1.652-1.354,3.004-3.008,3.004c-1.662,0-3.012-1.354-3.012-3.004"/>
<g id="drum3_1_">
	<circle fill="none" stroke="#00ED95" stroke-width="1.5" cx="279.012" cy="74.374" r="8.861"/>
	<path fill="#00ED95" d="M280.768,76.041c0,0.968-0.783,1.752-1.756,1.752c-0.97,0-1.755-0.87-1.755-1.84
		c0-0.971,0.785-1.666,1.755-1.666C279.98,74.287,280.768,75.074,280.768,76.041"/>
	<path fill="none" stroke="#00ED95" stroke-width="1.5" d="M280.768,76.041c0,0.968-0.783,1.752-1.756,1.752
		c-0.97,0-1.755-0.87-1.755-1.84c0-0.971,0.785-1.666,1.755-1.666C279.98,74.287,280.768,75.074,280.768,76.041z"/>
	<line fill="none" stroke="#00ED95" stroke-width="1.5" x1="279.012" y1="87.355" x2="279.012" y2="76.127"/>
</g>
<g id="adsr3_1_">
	<path fill="none" stroke="#DFD9FF" stroke-width="1.5" d="M278.907,73.287h8.594c0,0,0.871,6.511,6.74,6.511"/>
	<path fill="none" stroke="#DFD9FF" stroke-width="1.5" d="M264.241,79.798c0,0,0.329-9.839,8.146-14.334
		c0,0-0.326,7.823,6.521,7.823"/>
</g>
<g id="dynaenv3_1_">
	<path fill="none" stroke="#00ED95" stroke-width="1.5" stroke-linecap="square" d="M277.907,74.287h8.594
		c0,0,0.871,6.511,6.74,6.511"/>
	<path fill="none" stroke="#00ED95" stroke-width="1.5" stroke-linecap="square" d="M263.241,80.798c0,0,0.329-9.839,8.146-14.334
		c0,0-0.326,7.823,6.521,7.823"/>
</g>
<g id="other3_1_">
	<g id="_x3C_path_x3E__7_">
		<path fill="none" stroke="#DFD9FF" stroke-width="1.5" d="M268.618,77.176c1.409,0,2.553,1.143,2.553,2.553
			c0,1.414-1.144,2.562-2.553,2.562s-2.554-1.148-2.554-2.562C266.066,78.318,267.209,77.176,268.618,77.176z"/>
		<line fill="none" stroke="#DFD9FF" stroke-width="1.5" x1="271.169" y1="79.729" x2="271.169" y2="65.271"/>
	</g>
	<g id="_x3C_path_x3E__6_">
		<polygon fill="none" stroke="#DFD9FF" stroke-width="1.5" points="289.141,67.022 289.141,81.201 283.448,77.67 283.448,70.969 		
			"/>
		<rect x="277.716" y="70.969" fill="none" stroke="#DFD9FF" stroke-width="1.5" width="5.729" height="6.701"/>
	</g>
</g>
<circle id="base0" fill="#698EFF" stroke="#698EFF" stroke-width="2" cx="42.667" cy="44.503" r="2.667"/>
<line id="pin0" fill="none" stroke="#698EFF" stroke-width="2" x1="42.667" y1="44.503" x2="23.492" y2="44.604"/>
<circle id="base1" fill="#00ED95" stroke="#00ED95" cx="121.707" cy="44.503" r="2.667"/>
<line id="pin1" fill="none" stroke="#00ED95" stroke-width="1.5" x1="121.707" y1="44.503" x2="102.531" y2="44.604"/>
<circle id="base2" fill="#FFFFFF" stroke="#FFFFFF" cx="200.59" cy="44.503" r="2.667"/>
<line id="pin2" fill="none" stroke="#DFD9FF" stroke-width="1.5" x1="200.591" y1="44.503" x2="181.414" y2="44.604"/>
<circle id="base3" fill="#FF3A5D" stroke="#FF3A5D" cx="278.285" cy="44.503" r="2.667"/>
<line id="pin3" fill="none" stroke="#FF3A5D" stroke-width="1.5" stroke-linecap="square" x1="278.286" y1="44.503" x2="259.109" y2="44.604"/>
<rect id="squareanim0_1_" x="11.588" y="94.602" fill="none" stroke="#698EFF" stroke-width="1.5" width="64.037" height="28.229"/>
<rect id="squareanim1" x="89.687" y="94.602" fill="none" stroke="#00ED95" stroke-width="1.5" width="65.918" height="28.229"/>
<rect id="squareanim2" x="169.512" y="94.602" fill="none" stroke="#DFD9FF" stroke-width="1.5" width="63.098" height="28.229"/>
<rect id="squareanim3" x="247.205" y="94.602" fill="none" stroke="#FF3A5D" stroke-width="1.5" stroke-linecap="square" width="63.097" height="28.229"/>
<polyline fill="none" stroke="#534468" stroke-width="2" points="43.335,122.798 43.335,141.927 156.224,141.927 156.224,156.82 "/>
<polyline fill="none" stroke="#534468" stroke-width="2" points="122.671,122.798 122.671,138.007 160.3,138.007 160.3,156.82 "/>
<polyline fill="none" stroke="#534468" stroke-width="2" points="201.379,122.798 201.379,138.007 164.689,138.007 164.689,156.82 
	"/>
<polyline fill="none" stroke="#534468" stroke-width="2" points="278.833,122.798 278.833,141.927 168.768,141.927 168.768,156.82 
	"/>
<circle fill="#534468" cx="43.335" cy="122.797" r="2.438"/>
<circle fill="#534468" cx="122.671" cy="122.797" r="2.438"/>
<circle fill="#534468" cx="201.379" cy="122.797" r="2.438"/>
<circle fill="#534468" cx="278.833" cy="122.797" r="2.438"/>
<g>
	<rect id="squareshift0" x="27.295" y="67.657" fill="none" stroke="#010101" stroke-width="18" width="32.02" height="14.112"/>
	<rect id="squareshift1" x="105.865" y="67.657" fill="none" stroke="#010101" stroke-width="18" width="32.959" height="14.112"/>
	<rect id="squareshift2" x="184.984" y="67.657" fill="none" stroke="#010101" stroke-width="18" width="31.549" height="14.112"/>
	<rect id="squareshift3" x="262.678" y="67.657" fill="none" stroke="#010101" stroke-width="18" width="31.549" height="14.112"/>
</g>
<circle id="v0" fill="#698EFF" cx="43.335" cy="132.839" r="2.494"/>
<circle id="v1" fill="#00ED95" cx="122.581" cy="130.345" r="2.494"/>
<circle id="v2" fill="#FFFFFF" cx="201.38" cy="130.345" r="2.494"/>
<circle id="v3" fill="#FF3A5D" cx="278.753" cy="132.839" r="2.494"/>
</svg>
