<?xml version="1.0" encoding="utf-8"?>
<!-- Generator: Adobe Illustrator 14.0.0, SVG Export Plug-In . SVG Version: 6.00 Build 43363)  -->
<!DOCTYPE svg PUBLIC "-//W3C//DTD SVG 1.1//EN" "http://www.w3.org/Graphics/SVG/1.1/DTD/svg11.dtd">
<svg version="1.1" id="Layer_1" xmlns="http://www.w3.org/2000/svg" xmlns:xlink="http://www.w3.org/1999/xlink" x="0px" y="0px"
	 width="320px" height="160px" viewBox="0 0 320 160" enable-background="new 0 0 320 160" xml:space="preserve">
<g id="static">
	<path fill="none" stroke="#9256D7" stroke-width="1.5" stroke-linecap="square" d="M30.74,26.391V13.059h4.667
		c1.84,0,3.333,1.492,3.333,3.333c0,1.841-1.493,3.333-3.333,3.333H32.18l5.895,6.333v0.334"/>
	<polyline fill="none" stroke="#9256D7" stroke-width="1.5" stroke-linecap="square" points="48.74,26.392 42.074,26.392 
		42.074,13.06 48.74,13.06 	"/>
	<line fill="none" stroke="#9256D7" stroke-width="1.5" stroke-linecap="square" x1="42.074" y1="19.726" x2="48.074" y2="19.726"/>
	<polyline fill="none" stroke="#9256D7" stroke-width="1.5" stroke-linecap="square" points="19.756,26.392 19.756,13.06 
		27.407,13.06 	"/>
	<line fill="none" stroke="#9256D7" stroke-width="1.5" stroke-linecap="square" x1="19.756" y1="19.726" x2="26.74" y2="19.726"/>
	<path fill="none" stroke="#9256D7" stroke-width="1.5" stroke-linecap="square" d="M58.002,26.393c2.026,0,3.667-1.642,3.667-3.667
		v0.001v-0.001v-5.999c0-2.025-1.642-3.667-3.667-3.667H55.74c-2.024,0-3.667,1.642-3.667,3.667v5.999
		c0,2.025,1.643,3.667,3.667,3.667H58.002z"/>
	<path fill="none" stroke="#9256D7" stroke-width="1.5" stroke-linecap="square" d="M19.763,94.322V80.988h2.67
		c1.839,0,3.333,1.494,3.333,3.334c0,1.842-1.494,3.334-3.333,3.334h-2.67"/>
	<path fill="none" stroke="#9256D7" stroke-width="1.5" stroke-linecap="square" d="M55.834,90.988c0,1.843-1.492,3.334-3.332,3.334
		c-1.842,0-3.334-1.491-3.334-3.334v-6.666c0-1.84,1.492-3.334,3.334-3.334c1.84,0,3.332,1.494,3.332,3.334"/>
	<path fill="none" stroke="#9256D7" stroke-width="1.5" stroke-linecap="square" d="M28.784,80.988v10
		c0,1.842,1.492,3.334,3.333,3.334c1.841,0,3.333-1.492,3.333-3.334v-10"/>
	<polyline fill="none" stroke="#9256D7" stroke-width="1.5" stroke-linecap="square" points="39.09,94.322 39.09,80.988 
		39.757,80.988 45.091,94.322 45.757,94.322 45.757,80.988 	"/>
	<line fill="none" stroke="#9256D7" stroke-width="1.5" stroke-linecap="square" x1="58.838" y1="80.988" x2="58.838" y2="94.322"/>
	<line fill="none" stroke="#9256D7" stroke-width="1.5" stroke-linecap="square" x1="65.505" y1="80.988" x2="65.505" y2="94.322"/>
	<line fill="none" stroke="#9256D7" stroke-width="1.5" stroke-linecap="square" x1="58.838" y1="87.656" x2="65.505" y2="87.656"/>
	
		<line fill="none" stroke="#9256D7" stroke-width="1.5" stroke-linecap="square" x1="212.285" y1="13.233" x2="220.281" y2="13.233"/>
	
		<line fill="none" stroke="#9256D7" stroke-width="1.5" stroke-linecap="square" x1="212.285" y1="18.682" x2="220.281" y2="18.682"/>
	<line fill="none" stroke="#9256D7" stroke-width="1.5" stroke-linecap="square" x1="212.285" y1="24.13" x2="220.281" y2="24.13"/>
	<line fill="none" stroke="#9256D7" stroke-width="1.5" stroke-linecap="square" x1="212.285" y1="29.58" x2="220.281" y2="29.58"/>
	<line fill="none" stroke="#9256D7" stroke-width="1.5" stroke-linecap="square" x1="212.285" y1="35.03" x2="220.281" y2="35.03"/>
	
		<line fill="none" stroke="#9256D7" stroke-width="1.5" stroke-linecap="square" x1="212.285" y1="40.479" x2="220.281" y2="40.479"/>
	
		<line fill="none" stroke="#9256D7" stroke-width="1.5" stroke-linecap="square" x1="212.285" y1="45.928" x2="220.281" y2="45.928"/>
	
		<line fill="none" stroke="#9256D7" stroke-width="1.5" stroke-linecap="square" x1="212.285" y1="51.377" x2="220.281" y2="51.377"/>
	
		<line fill="none" stroke="#9256D7" stroke-width="1.5" stroke-linecap="square" x1="212.285" y1="56.827" x2="220.281" y2="56.827"/>
	
		<line fill="none" stroke="#9256D7" stroke-width="1.5" stroke-linecap="square" x1="212.285" y1="62.276" x2="220.281" y2="62.276"/>
	
		<line fill="none" stroke="#00ED95" stroke-width="1.652" stroke-linecap="square" x1="41.618" y1="39.191" x2="41.618" y2="44.952"/>
	
		<line fill="none" stroke="#00ED95" stroke-width="1.652" stroke-linecap="square" x1="65.618" y1="63.193" x2="59.858" y2="63.193"/>
	
		<line fill="none" stroke="#00ED95" stroke-width="1.652" stroke-linecap="square" x1="17.618" y1="63.191" x2="23.378" y2="63.191"/>
	
		<line fill="none" stroke="#00ED95" stroke-width="1.652" stroke-linecap="square" x1="58.588" y1="46.223" x2="54.516" y2="50.297"/>
	
		<line fill="none" stroke="#00ED95" stroke-width="1.652" stroke-linecap="square" x1="24.647" y1="46.222" x2="28.721" y2="50.295"/>
	<path fill="none" stroke="#00ED95" stroke-width="1.5" stroke-linecap="square" d="M296.124,23.06c0,1.841,1.493,3.333,3.333,3.333
		c1.841,0,3.334-1.492,3.334-3.333c0-0.751-0.511-1.771-1.432-2.339c-0.807-0.496-3.087-1.451-3.881-1.96
		c-0.98-0.626-1.354-1.617-1.354-2.366c0-1.841,1.493-3.335,3.334-3.335s3.333,1.494,3.333,3.335"/>
	<path fill="none" stroke="#00ED95" stroke-width="1.5" stroke-linecap="square" d="M289.885,26.393
		c1.844,0,3.333-1.493,3.333-3.333v-6.666c0-1.842-1.489-3.335-3.333-3.335h-3.333v13.334H289.885z"/>
	<path fill="none" stroke="#00ED95" stroke-width="1.5" stroke-linecap="square" d="M246.872,26.393V13.059h2.668
		c1.841,0,3.333,1.493,3.333,3.335c0,1.841-1.492,3.333-3.333,3.333h-2.001l4.667,6.333v0.333"/>
	<path fill="none" stroke="#00ED95" stroke-width="1.5" stroke-linecap="square" d="M266.393,13.059V23.06
		c0,1.84,1.49,3.333,3.334,3.333c1.84,0,3.332-1.493,3.332-3.333V13.059"/>
	<polyline fill="none" stroke="#00ED95" stroke-width="1.5" stroke-linecap="square" points="276.551,26.393 276.551,13.059 
		277.218,13.059 282.551,26.393 283.218,26.393 283.218,13.059 	"/>
	<path fill="none" stroke="#00ED95" stroke-width="1.5" stroke-linecap="square" d="M255.818,16.726v5.999
		c0,2.025,1.642,3.667,3.666,3.667c2.021,0,3.666-1.641,3.666-3.667v0.001v-0.001v-5.999c0-2.025-1.646-3.667-3.666-3.667
		C257.46,13.059,255.818,14.701,255.818,16.726z"/>
	<path fill="none" stroke="#00ED95" stroke-width="1.5" stroke-linecap="square" d="M248.021,94.322V80.988h4.002
		c1.838,0,3.334,1.494,3.334,3.334c0,1.842-1.496,3.334-3.334,3.334h-4.002"/>
	<path fill="none" stroke="#00ED95" stroke-width="1.5" stroke-linecap="square" d="M258.289,84.656v6
		c0,2.023,1.645,3.666,3.668,3.666c2.021,0,3.665-1.641,3.665-3.666l0,0l0,0v-6c0-2.025-1.642-3.668-3.665-3.668
		C259.932,80.988,258.289,82.631,258.289,84.656z"/>
	<path fill="none" stroke="#00ED95" stroke-width="1.5" stroke-linecap="square" d="M293.352,94.322V80.988h3.998
		c1.846,0,3.333,1.494,3.333,3.334c0,1.842-1.487,3.334-3.333,3.334h-3.332l5.999,6.334v0.332"/>
	<polyline fill="none" stroke="#00ED95" stroke-width="1.5" stroke-linecap="square" points="290.15,94.322 283.618,94.322 
		283.618,80.988 290.15,80.988 	"/>
	
		<line fill="none" stroke="#00ED95" stroke-width="1.5" stroke-linecap="square" x1="283.618" y1="87.656" x2="289.484" y2="87.656"/>
	<polyline fill="none" stroke="#00ED95" stroke-width="1.5" stroke-linecap="square" points="268.288,80.988 268.288,81.656 
		270.954,94.322 271.621,94.322 274.288,80.988 276.955,94.322 277.622,94.322 280.287,81.656 280.287,80.988 	"/>
</g>
<g id="ubody">
	<path fill="none" stroke="#00ED95" stroke-width="1.5" d="M148.767,49.378c0,0-7.49,2.552-15.486,10.705
		c0,0-13.328,3.372-16.307,15.758"/>
	<path fill="none" stroke="#00ED95" stroke-width="1.5" d="M117.757,73.803c0,0-3.685,1.881-5.879,6.429
		c-2.193,4.547-8.857,12.855-9.643,13.72c-0.784,0.862-1.489,1.176-1.254,2.354c0.233,1.176,0.706,2.737,0.938,3.521
		c0.235,0.782,3.06,1.332,4.312,1.483"/>
	<path fill="none" stroke="#00ED95" stroke-width="1.5" d="M104.744,99.596c0,0,5.723,6.192,16.071,6.114"/>
	<path fill="none" stroke="#00ED95" stroke-width="1.5" d="M109.526,90.266c0,0,4.938-1.332,7.761-0.705
		c2.823,0.627,4.977,3.15,5.566,4.155c0.784,1.333,2.038,2.509,2.82,2.899"/>
	<path fill="none" stroke="#00ED95" stroke-width="1.5" d="M119.795,90.658c0,0,7.058-0.236,9.956-2.979
		c2.901-2.744,3.138-6.354,3.138-6.354"/>
	<path fill="none" stroke="#00ED95" stroke-width="1.5" d="M127.4,81.799c0,0,5.958,0.314,11.522-3.136"/>
	<path fill="none" stroke="#00ED95" stroke-width="1.5" d="M135.004,80.779c0,0,5.646,4.548,8.624,6.351
		c2.979,1.804,6.352,1.332,9.723,0.55c3.371-0.785,8.073-2.896,9.094-3.92c1.019-1.021,2.979-3.293,3.604-8.232"/>
	<path fill="none" stroke="#00ED95" stroke-width="1.5" d="M178.044,63.061c0,0,0.94,7.37,0.784,9.486
		c-0.156,2.117-0.784,6.115-3.842,7.997c-3.057,1.882-8.312,3.449-9.407,3.685"/>
	<path fill="none" stroke="#00ED95" stroke-width="1.5" d="M168.95,83.287c0,0-0.472,2.587-0.862,3.92
		c-0.39,1.333-1.02,2.509-2.354,3.842c-1.332,1.333-3.291,3.371-3.291,3.371"/>
	<path fill="none" stroke="#00ED95" stroke-width="1.5" d="M164.796,92.538c0,0,9.172-0.392,12.621-0.078"/>
	<path fill="none" stroke="#00ED95" stroke-width="1.5" d="M174.203,81.094c0,0,4.074,2.43,5.801,3.84"/>
	<path fill="none" stroke="#00ED95" stroke-width="1.5" d="M178.674,68.193c5.176-4.939,3.996-10.071,3.408-12.54
		c-0.588-2.469-4.586-5.998-4.586-5.998"/>
	<path fill="none" stroke="#00ED95" stroke-width="1.5" d="M139.591,63.649c0,0,4.821,1.646,6.585,2.352
		c1.766,0.706,8.938,3.058,11.289,3.292c2.354,0.235,5.526-0.706,6.82,0.706"/>
	<path fill="none" stroke="#00ED95" stroke-width="1.5" d="M166.911,69.646c0,0,0.94-1.411,0.94-1.882
		c0-0.47,0.816-1.293,1.881-2.117c1.059-0.823,5.291-5.292,5.645-11.054"/>
</g>
<g id="lbody">
	<path fill="none" stroke="#DFD9FF" stroke-width="1.5" d="M125.519,115.352c0,0-3.137,3.77-2.665,6.664
		c0.47,2.901,1.487,4.705,0.312,5.959s-2.352,4.346-1.804,5.444c0.549,1.097,0.549,1.724-0.078,2.272
		c-0.627,0.547-0.939,0.881-0.862,2.998"/>
	<path fill="none" stroke="#DFD9FF" stroke-width="1.5" d="M170.203,114.334c0,0,2.195,2.979,2.98,3.292
		c0.776,0.312,1.096,1.882,2.037,2.353c0.938,0.477,13.399,15.026,15.359,18.713"/>
	<path fill="none" stroke="#DFD9FF" stroke-width="1.5" d="M147.861,138.689c0,0,3.292-4.176,8.858-7.232"/>
	<path fill="none" stroke="#DFD9FF" stroke-width="1.5" d="M152.8,134.045c0,0,3.292,2.607,4.548,4.646"/>
	<path fill="none" stroke="#698EFF" stroke-width="1.5" d="M129.044,116.447c0,0-3.057,2.822-2.705,5.058
		c0.354,2.233,0.941,3.763,0.941,4.821c0,1.058-1.059,2.501-1.764,3.441c-0.705,0.938-1.265,2.787-0.677,4.191
		c0.59,1.411,0.269,1.529-0.438,2.229c-0.706,0.705-0.706,2.49-0.706,2.49"/>
	<path fill="none" stroke="#698EFF" stroke-width="1.5" d="M138.689,121.74c0,0,0.706,2.703-0.235,4.351
		c-0.938,1.646-4.231,6.464-5.174,7.052c-0.943,0.588-0.823,2.117-0.823,2.94s-0.823,2.606-0.823,2.606"/>
</g>
<g id="lglove">
	<path fill="none" stroke="#DFD9FF" stroke-width="1.5" d="M130.693,108.688c0,0-5.88-2.705-6.703-2.938
		c-0.823-0.232,0.588-4.586,3.528-7.408c2.938-2.82,4.845-2.906,4.845-2.906s3.41,1.41,5.057,2.938"/>
	<path fill="none" stroke="#FF3A5D" stroke-width="1.5" d="M133.593,115.744c0,0-1.565,0.939-2.43,0.939
		c-0.865,0-4.312-0.861-4.783-0.939c-0.471-0.078-2.586-0.939-3.684-2.9c-1.098-1.961-3.685-6.508-0.079-12.621
		c3.607-6.115,7.448-6.896,8.624-7.214c1.176-0.313,2.43-0.313,4.076,0.706s2.899,2.352,3.998,3.449"/>
	<path fill="none" stroke="#FF3A5D" stroke-width="1.5" d="M143.863,124.521c0,0-4.783-1.646-8.389-6.191
		c-3.606-4.548-6.509-9.33-2.822-14.189c3.685-4.854,9.251-9.879,14.188-10.188c4.939-0.312,9.174-0.396,11.839-0.234
		c2.667,0.156,5.958,1.41,7.604,4.076s4.93,6.814,4.312,14.35c-0.477,5.727-2.727,7.316-5.103,9.252
		c-1.255,1.021-5.932,4.832-7.105,5.611c-1.178,0.784-4.496,2.537-7.866,1.831C147.156,128.129,144.961,126.641,143.863,124.521z"/>
</g>
<g id="rglove">
	<path fill="none" stroke="#FF3A5D" stroke-width="1.5" d="M189.411,101.477c0,0-3.604,0.782-6.193,0.705
		c-2.587-0.078-4.151-3.058-4.702-4.548c-0.55-1.489-0.55-1.489,0-1.803c0.549-0.313,1.883-1.099,1.883-1.099
		s-1.881-1.176-2.432-1.567c-0.55-0.392-0.232-3.449,0.626-5.33c0.862-1.882,3.14-5.253,3.998-6.037
		c0.863-0.782,2.666-0.782,5.177-0.313"/>
	<path fill="none" stroke="#DFD9FF" stroke-width="1.5" d="M181.346,91.833c0,0,3.764,3.998,4.859,5.095"/>
	<path fill="none" stroke="#DFD9FF" stroke-width="1.5" d="M185.736,92.225c0,0-3.449,3.688-4.233,4.703"/>
	<path fill="none" stroke="#FF3A5D" stroke-width="1.5" d="M196.311,83.209c0,0-2.666,2.118-3.215,2.744
		c-0.551,0.627-1.021,1.097-1.021,2.979c0,1.883-0.427,14.371,4.153,18.109c3.845,3.137,7.213,2.666,9.408,2.509
		c2.19-0.157,7.521-1.331,8.696-1.959c1.181-0.628,2.515-2.274,3.372-4.548s2.852-10.667,1.104-18.346
		c-1.412-6.191-7.688-6.19-7.996-6.271"/>
	<path fill="none" stroke="#FF3A5D" stroke-width="1.5" d="M194.586,105.787c0,0-4.975-1.633-6.113-6.898
		c-1.021-4.703-0.938-5.724-1.1-8.152c0,0-1.098-11.05,3.92-14.812c5.02-3.762,10.035-3.919,12.779-2.9
		c2.742,1.019,5.801,2.978,6.113,3.449c0.312,0.47,0.707,4.467,0.627,5.409c-0.078,0.938-2.664,2.514-4.076,2.979
		c-1.41,0.474-9.485,3.062-11.995-4.938"/>
</g>
<g id="white">
	<polyline fill="none" stroke="#DFD9FF" stroke-width="1.5" stroke-linecap="square" points="270.809,61.056 246.809,61.056 
		246.809,59.056 262.809,33.057 264.809,33.057 264.809,73.057 	"/>
	<path fill="none" stroke="#DFD9FF" stroke-width="1.5" stroke-linecap="square" d="M296.01,33.057h-20.002v30
		c0-5.523,4.479-10,10.003-10c5.521,0,9.999,4.477,9.999,10c0,5.522-4.478,10-9.999,10h-10.003"/>
</g>
<g id="red">
	<polyline fill="none" stroke="#FF3A5D" stroke-width="1.5" stroke-linecap="square" points="270.809,129.865 246.809,129.865 
		246.809,127.866 262.809,101.865 264.809,101.865 264.809,141.866 	"/>
	<path fill="none" stroke="#FF3A5D" stroke-width="1.5" stroke-linecap="square" d="M296.01,101.865h-20.002v30.001
		c0-5.522,4.479-10.001,10.003-10.001c5.521,0,9.999,4.479,9.999,10.001s-4.478,10.001-9.999,10.001h-10.003"/>
</g>
<g id="green">
	<polyline fill="none" stroke="#00ED95" stroke-width="1.5" stroke-linecap="square" points="40.357,129.865 16.356,129.865 
		16.356,127.866 32.356,101.865 34.356,101.865 34.356,141.866 	"/>
	<path fill="none" stroke="#00ED95" stroke-width="1.5" stroke-linecap="square" d="M65.24,101.865H45.239v30.001
		c0-5.522,4.477-10.001,10.002-10.001c5.522,0,9.999,4.479,9.999,10.001s-4.477,10.001-9.999,10.001H45.239"/>
</g>
<g id="head">
	<path fill="none" stroke="#00ED95" stroke-width="1.5" d="M158.637,51.423c0,0-0.085,0.744,0.462,1.022
		c0.545,0.279,1.557,0.996,2.293,0.882c1.188-0.184,1.733-0.732,2.172-0.885c0.435-0.153,0.791-0.659,0.715-0.973"/>
	<path fill="none" stroke="#00ED95" stroke-width="1.5" d="M157.075,57.758c0,0,1.817-0.583,2.053-0.737
		c0.237-0.154,1.063,0.215,2.556,0.23c1.486,0.013,2.291-0.289,2.291-0.289l1.594,0.882"/>
	<path fill="none" stroke="#00ED95" stroke-width="1.5" d="M151.995,42.817c0,0,0.815-0.595,1.13-0.67
		c0.315-0.075,1.173,0.402,2.109,0.881s3.474,1.718,3.474,1.718"/>
	<path fill="none" stroke="#00ED95" stroke-width="1.5" d="M163.514,44.654c0,0,4.771-1.743,5.176-1.996
		c0.867-0.542,1.11,0.093,2.205,0.809"/>
	<path fill="none" stroke="#698EFF" stroke-width="1.5" d="M152.828,46.405c0,0,2.929,0.515,5.072,0.785"/>
	<path fill="none" stroke="#698EFF" stroke-width="1.5" d="M164.643,47.214c0,0,2.354-0.541,4.877-0.943"/>
	<path fill="none" stroke="#00ED95" stroke-width="1.5" d="M173.077,42.457c0,0,0.424-1.408,1.718-1.396
		c1.294,0.013,1.344,1.129,1.277,1.776c0,0-0.612,2.641-0.912,3.343c-0.301,0.703-1.031,3.519-1.271,3.87
		c-0.238,0.35-1.537,0.985-2.062,1.097c0,0-1.995,5.863-2.3,6.624c-0.301,0.762-4.275,5.078-5.104,5.599
		c-0.825,0.521-5.295,0.481-6,0.415c-0.706-0.064-4.192-4.448-5.299-5.633c-1.104-1.186-2.19-4.665-2.524-6.55
		c-0.25-1.395-1.922-2.253-2.206-3.254c-0.285-1.002-1.021-4.301-0.78-4.77c0.239-0.469,0.658-1.052,0.832-0.875
		c0.175,0.179,0.935,0.538,0.935,0.538s-1.339-8.009-0.842-10.708c0.495-2.701,4.771-7.249,4.771-7.249s7.836-1.409,14.461-0.103
		c1.879,0.369,3.854,3.092,4.781,4.277c0.932,1.184,1.979,2.487,1.844,4.484c-0.139,1.998-0.305,7.29-0.305,7.29"/>
	<path fill="none" stroke="#00ED95" stroke-width="1.5" d="M159.887,59.651c0,0,1.486-0.128,3.212,0.028"/>
</g>
<polyline fill="none" stroke="#9256D7" stroke-width="1.5" stroke-linecap="square" points="75.585,129.859 94.048,129.859 
	149.12,110.135 "/>
<polyline fill="none" stroke="#9256D7" stroke-width="1.5" stroke-linecap="square" points="75.585,19.892 94.048,19.945 
	137.617,44.525 "/>
<path fill="#9256D7" d="M151.786,110.135c0,1.473-1.194,2.666-2.667,2.666c-1.472,0-2.667-1.193-2.667-2.666
	c0-1.474,1.195-2.666,2.667-2.666C150.592,107.469,151.786,108.661,151.786,110.135"/>
<path fill="#9256D7" d="M140.285,44.525c0,1.473-1.195,2.666-2.667,2.666c-1.472,0-2.667-1.193-2.667-2.666
	c0-1.474,1.195-2.667,2.667-2.667C139.09,41.858,140.285,43.052,140.285,44.525"/>
<line id="blue" fill="none" stroke="#698EFF" stroke-width="1.652" stroke-linecap="square" x1="17.782" y1="63.519" x2="40.752" y2="63.441"/>
<path id="bluebase" fill="#698EFF" d="M39.385,66.038c-1.436-0.753-1.984-2.53-1.229-3.967c0.756-1.433,2.531-1.986,3.966-1.231
	c1.438,0.753,1.987,2.532,1.231,3.966C42.598,66.242,40.822,66.793,39.385,66.038"/>
<polyline fill="none" stroke="#9256D7" stroke-width="1.5" stroke-linecap="square" points="59.004,23.392 59.004,23.727 
	61.67,26.099 61.67,26.392 "/>
<g id="pow">
	
		<line id="p0" fill="none" stroke="#9256D7" stroke-width="1.5" stroke-linecap="square" x1="137.329" y1="21.657" x2="141.641" y2="24.715"/>
	
		<line id="p1" fill="none" stroke="#9256D7" stroke-width="1.5" stroke-linecap="square" x1="150.28" y1="10.149" x2="153.007" y2="17.189"/>
	
		<line id="p2" fill="none" stroke="#9256D7" stroke-width="1.5" stroke-linecap="square" x1="167.834" y1="8.722" x2="166.58" y2="15.982"/>
	
		<line id="p3" fill="none" stroke="#9256D7" stroke-width="1.5" stroke-linecap="square" x1="182.673" y1="17.847" x2="177.656" y2="22.159"/>
</g>
<line id="g9" fill="none" stroke="#00ED95" stroke-width="1.5" stroke-linecap="square" x1="212.285" y1="13.233" x2="220.281" y2="13.233"/>
<line id="g8" fill="none" stroke="#00ED95" stroke-width="1.5" stroke-linecap="square" x1="212.285" y1="18.682" x2="220.281" y2="18.682"/>
<line id="g7" fill="none" stroke="#00ED95" stroke-width="1.5" stroke-linecap="square" x1="212.285" y1="24.13" x2="220.281" y2="24.13"/>
<line id="g6" fill="none" stroke="#00ED95" stroke-width="1.5" stroke-linecap="square" x1="212.285" y1="29.58" x2="220.281" y2="29.58"/>
<line id="g5" fill="none" stroke="#00ED95" stroke-width="1.5" stroke-linecap="square" x1="212.285" y1="35.03" x2="220.281" y2="35.03"/>
<line id="g4" fill="none" stroke="#00ED95" stroke-width="1.5" stroke-linecap="square" x1="212.285" y1="40.479" x2="220.281" y2="40.479"/>
<line id="g3" fill="none" stroke="#00ED95" stroke-width="1.5" stroke-linecap="square" x1="212.285" y1="45.928" x2="220.281" y2="45.928"/>
<line id="g2" fill="none" stroke="#00ED95" stroke-width="1.5" stroke-linecap="square" x1="212.285" y1="51.377" x2="220.281" y2="51.377"/>
<line id="g1" fill="none" stroke="#00ED95" stroke-width="1.5" stroke-linecap="square" x1="212.285" y1="56.827" x2="220.281" y2="56.827"/>
<line id="g0" fill="none" stroke="#00ED95" stroke-width="1.5" stroke-linecap="square" x1="212.285" y1="62.276" x2="220.281" y2="62.276"/>
</svg>
