<?xml version="1.0" encoding="utf-8"?>
<!-- Generator: Adobe Illustrator 14.0.0, SVG Export Plug-In . SVG Version: 6.00 Build 43363)  -->
<!DOCTYPE svg PUBLIC "-//W3C//DTD SVG 1.1//EN" "http://www.w3.org/Graphics/SVG/1.1/DTD/svg11.dtd">
<svg version="1.1" id="Layer_1" xmlns="http://www.w3.org/2000/svg" xmlns:xlink="http://www.w3.org/1999/xlink" x="0px" y="0px"
	 width="320px" height="160px" viewBox="0 0 320 160" enable-background="new 0 0 320 160" xml:space="preserve">
<g id="static">
	<path fill="none" stroke="#9256D7" stroke-width="1.5" stroke-linecap="square" d="M30.74,26.391V13.059h4.667
		c1.84,0,3.333,1.492,3.333,3.333c0,1.841-1.493,3.333-3.333,3.333H32.18l5.895,6.333v0.334"/>
	<polyline fill="none" stroke="#9256D7" stroke-width="1.5" stroke-linecap="square" points="48.74,26.392 42.074,26.392 
		42.074,13.06 48.74,13.06 	"/>
	<line fill="none" stroke="#9256D7" stroke-width="1.5" stroke-linecap="square" x1="42.074" y1="19.726" x2="48.074" y2="19.726"/>
	<polyline fill="none" stroke="#9256D7" stroke-width="1.5" stroke-linecap="square" points="19.756,26.392 19.756,13.06 
		27.407,13.06 	"/>
	<line fill="none" stroke="#9256D7" stroke-width="1.5" stroke-linecap="square" x1="19.756" y1="19.726" x2="26.74" y2="19.726"/>
	<path fill="none" stroke="#9256D7" stroke-width="1.5" stroke-linecap="square" d="M58.002,26.393c2.026,0,3.667-1.642,3.667-3.667
		v0.001v-0.001v-5.999c0-2.025-1.642-3.667-3.667-3.667H55.74c-2.024,0-3.667,1.642-3.667,3.667v5.999
		c0,2.025,1.643,3.667,3.667,3.667H58.002z"/>
	
		<line fill="none" stroke="#9256D7" stroke-width="1.5" stroke-linecap="square" x1="111.889" y1="54.233" x2="145.885" y2="54.233"/>
	
		<line fill="none" stroke="#9256D7" stroke-width="1.5" stroke-linecap="square" x1="111.889" y1="59.682" x2="145.885" y2="59.682"/>
	<line fill="none" stroke="#9256D7" stroke-width="1.5" stroke-linecap="square" x1="111.889" y1="65.13" x2="145.885" y2="65.13"/>
	<line fill="none" stroke="#9256D7" stroke-width="1.5" stroke-linecap="square" x1="111.889" y1="70.58" x2="145.885" y2="70.58"/>
	<line fill="none" stroke="#9256D7" stroke-width="1.5" stroke-linecap="square" x1="111.889" y1="76.03" x2="145.885" y2="76.03"/>
	
		<line fill="none" stroke="#9256D7" stroke-width="1.5" stroke-linecap="square" x1="111.889" y1="81.479" x2="145.885" y2="81.479"/>
	
		<line fill="none" stroke="#9256D7" stroke-width="1.5" stroke-linecap="square" x1="111.889" y1="86.928" x2="145.885" y2="86.928"/>
	
		<line fill="none" stroke="#9256D7" stroke-width="1.5" stroke-linecap="square" x1="111.889" y1="92.377" x2="145.885" y2="92.377"/>
	
		<line fill="none" stroke="#9256D7" stroke-width="1.5" stroke-linecap="square" x1="111.889" y1="97.827" x2="145.885" y2="97.827"/>
	
		<line fill="none" stroke="#9256D7" stroke-width="1.5" stroke-linecap="square" x1="111.889" y1="103.275" x2="145.885" y2="103.275"/>
	
		<line fill="none" stroke="#00ED95" stroke-width="1.652" stroke-linecap="square" x1="41.618" y1="39.191" x2="41.618" y2="44.952"/>
	
		<line fill="none" stroke="#00ED95" stroke-width="1.652" stroke-linecap="square" x1="65.618" y1="63.193" x2="59.858" y2="63.193"/>
	
		<line fill="none" stroke="#00ED95" stroke-width="1.652" stroke-linecap="square" x1="17.618" y1="63.191" x2="23.378" y2="63.191"/>
	
		<line fill="none" stroke="#00ED95" stroke-width="1.652" stroke-linecap="square" x1="58.588" y1="46.223" x2="54.516" y2="50.297"/>
	
		<line fill="none" stroke="#00ED95" stroke-width="1.652" stroke-linecap="square" x1="24.647" y1="46.222" x2="28.721" y2="50.295"/>
	<polyline fill="none" stroke="#9256D7" stroke-width="1.5" stroke-linecap="square" points="59.004,23.392 59.004,23.727 
		61.67,26.099 61.67,26.392 	"/>
	<path fill="none" stroke="#00ED95" stroke-width="1.5" stroke-linecap="square" d="M25.872,94.393V81.059h2.668
		c1.841,0,3.333,1.494,3.333,3.336c0,1.84-1.492,3.332-3.333,3.332h-2.001l4.667,6.334v0.332"/>
	<polyline fill="none" stroke="#00ED95" stroke-width="1.5" stroke-linecap="square" points="45.15,94.322 38.618,94.322 
		38.618,80.988 45.15,80.988 	"/>
	<path fill="none" stroke="#00ED95" stroke-width="1.5" stroke-linecap="square" d="M51.124,91.061c0,1.84,1.493,3.332,3.333,3.332
		c1.841,0,3.334-1.492,3.334-3.332c0-0.752-0.511-1.771-1.432-2.34c-0.803-0.496-3.088-1.451-3.881-1.959
		c-0.98-0.627-1.354-1.617-1.354-2.367c0-1.84,1.493-3.334,3.334-3.334s3.333,1.494,3.333,3.334"/>
	<line fill="none" stroke="#00ED95" stroke-width="1.5" stroke-linecap="square" x1="38.618" y1="87.656" x2="44.484" y2="87.656"/>
	
		<line fill="none" stroke="#9256D7" stroke-width="1.5" stroke-linecap="square" x1="175.872" y1="54.332" x2="209.884" y2="54.332"/>
	
		<line fill="none" stroke="#9256D7" stroke-width="1.5" stroke-linecap="square" x1="175.872" y1="59.781" x2="209.884" y2="59.781"/>
	
		<line fill="none" stroke="#9256D7" stroke-width="1.5" stroke-linecap="square" x1="175.872" y1="65.229" x2="209.884" y2="65.229"/>
	
		<line fill="none" stroke="#9256D7" stroke-width="1.5" stroke-linecap="square" x1="175.872" y1="70.679" x2="209.884" y2="70.679"/>
	
		<line fill="none" stroke="#9256D7" stroke-width="1.5" stroke-linecap="square" x1="175.872" y1="76.129" x2="209.884" y2="76.129"/>
	
		<line fill="none" stroke="#9256D7" stroke-width="1.5" stroke-linecap="square" x1="175.872" y1="81.582" x2="209.884" y2="81.582"/>
	
		<line fill="none" stroke="#9256D7" stroke-width="1.5" stroke-linecap="square" x1="175.872" y1="87.031" x2="209.884" y2="87.031"/>
	<line fill="none" stroke="#9256D7" stroke-width="1.5" stroke-linecap="square" x1="175.872" y1="92.48" x2="209.884" y2="92.48"/>
	
		<line fill="none" stroke="#9256D7" stroke-width="1.5" stroke-linecap="square" x1="175.872" y1="97.932" x2="209.884" y2="97.932"/>
	
		<line fill="none" stroke="#9256D7" stroke-width="1.5" stroke-linecap="square" x1="175.872" y1="103.379" x2="209.884" y2="103.379"/>
	<g id="drive">
		
			<line id="i_4_" fill="none" stroke="#656579" stroke-width="1.5" stroke-linecap="square" x1="272.678" y1="80.501" x2="272.678" y2="94.673"/>
		<path id="d_5_" fill="none" stroke="#656579" stroke-width="1.5" stroke-linecap="square" d="M255.105,94.673
			c1.957,0,3.545-1.586,3.545-3.543v-7.087c0-1.957-1.588-3.543-3.545-3.543h-3.543v14.173H255.105L255.105,94.673z"/>
		<path id="r_9_" fill="none" stroke="#656579" stroke-width="1.5" stroke-linecap="square" d="M262.475,94.673V80.501h2.834
			c1.957,0,3.545,1.586,3.545,3.543l0,0c0,1.957-1.588,3.543-3.545,3.543h-2.125l4.961,6.731v0.354"/>
		<g id="e_19_">
			<polyline fill="none" stroke="#656579" stroke-width="1.5" stroke-linecap="square" points="295.215,94.673 288.836,94.673 
				288.836,80.501 295.215,80.501 			"/>
			
				<line fill="none" stroke="#656579" stroke-width="1.5" stroke-linecap="square" x1="288.836" y1="87.587" x2="294.506" y2="87.587"/>
		</g>
		<polyline id="v_6_" fill="none" stroke="#656579" stroke-width="1.5" stroke-linecap="square" points="276.079,80.5 
			276.078,80.855 280.331,94.673 281.039,94.673 285.293,80.855 285.293,80.5 		"/>
	</g>
</g>
<g id="white">
	<polyline fill="none" stroke="#DFD9FF" stroke-width="1.5" stroke-linecap="square" points="270.809,57.057 246.809,57.057 
		246.809,56.057 262.809,43.057 264.809,43.057 264.809,63.057 	"/>
	<path fill="none" stroke="#DFD9FF" stroke-width="1.5" stroke-linecap="square" d="M296.01,43.057h-20.002v15
		c0-2.761,4.479-5,10.003-5c5.521,0,9.999,2.239,9.999,5c0,2.761-4.478,5-9.999,5h-10.003"/>
</g>
<g id="red">
	<polyline fill="none" stroke="#FF3A5D" stroke-width="1.5" stroke-linecap="square" points="270.809,129.865 246.809,129.865 
		246.809,127.865 262.809,101.865 264.809,101.865 264.809,141.865 	"/>
	<path fill="none" stroke="#FF3A5D" stroke-width="1.5" stroke-linecap="square" d="M296.01,101.865h-20.002v30
		c0-5.521,4.479-10,10.003-10c5.521,0,9.999,4.479,9.999,10c0,5.523-4.478,10.002-9.999,10.002h-10.003"/>
</g>
<g id="green">
	<polyline fill="none" stroke="#00ED95" stroke-width="1.5" stroke-linecap="square" points="40.357,129.865 16.356,129.865 
		16.356,127.865 32.356,101.865 34.356,101.865 34.356,141.865 	"/>
	<path fill="none" stroke="#00ED95" stroke-width="1.5" stroke-linecap="square" d="M65.24,101.865H45.239v30
		c0-5.521,4.477-10,10.002-10c5.522,0,9.999,4.479,9.999,10c0,5.523-4.477,10.002-9.999,10.002H45.239"/>
</g>
<line id="blue" fill="none" stroke="#698EFF" stroke-width="1.652" stroke-linecap="square" x1="17.782" y1="63.519" x2="40.752" y2="63.441"/>
<path id="bluebase" fill="#698EFF" d="M39.385,66.038c-1.436-0.753-1.984-2.53-1.229-3.967c0.756-1.433,2.531-1.986,3.966-1.231
	c1.438,0.753,1.987,2.532,1.231,3.966C42.598,66.242,40.822,66.793,39.385,66.038"/>
<line id="g9" fill="none" stroke="#00ED95" stroke-width="1.5" stroke-linecap="square" x1="111.889" y1="54.233" x2="145.885" y2="54.233"/>
<line id="g8" fill="none" stroke="#00ED95" stroke-width="1.5" stroke-linecap="square" x1="111.889" y1="59.682" x2="145.885" y2="59.682"/>
<line id="g7" fill="none" stroke="#00ED95" stroke-width="1.5" stroke-linecap="square" x1="111.889" y1="65.13" x2="145.885" y2="65.13"/>
<line id="g6" fill="none" stroke="#00ED95" stroke-width="1.5" stroke-linecap="square" x1="111.889" y1="70.58" x2="145.885" y2="70.58"/>
<line id="g5" fill="none" stroke="#00ED95" stroke-width="1.5" stroke-linecap="square" x1="111.889" y1="76.03" x2="145.885" y2="76.03"/>
<line id="g4" fill="none" stroke="#00ED95" stroke-width="1.5" stroke-linecap="square" x1="111.889" y1="81.479" x2="145.885" y2="81.479"/>
<line id="g3" fill="none" stroke="#00ED95" stroke-width="1.5" stroke-linecap="square" x1="111.889" y1="86.928" x2="145.885" y2="86.928"/>
<line id="g2" fill="none" stroke="#00ED95" stroke-width="1.5" stroke-linecap="square" x1="111.889" y1="92.377" x2="145.885" y2="92.377"/>
<line id="g1" fill="none" stroke="#00ED95" stroke-width="1.5" stroke-linecap="square" x1="111.889" y1="97.827" x2="145.885" y2="97.827"/>
<line id="g0" fill="none" stroke="#00ED95" stroke-width="1.5" stroke-linecap="square" x1="111.889" y1="103.275" x2="145.885" y2="103.275"/>
<line id="r9" fill="none" stroke="#FF3A5D" stroke-width="1.5" stroke-linecap="square" x1="175.872" y1="54.332" x2="209.884" y2="54.332"/>
<line id="r8" fill="none" stroke="#FF3A5D" stroke-width="1.5" stroke-linecap="square" x1="175.872" y1="59.781" x2="209.884" y2="59.781"/>
<line id="r7" fill="none" stroke="#FF3A5D" stroke-width="1.5" stroke-linecap="square" x1="175.872" y1="65.229" x2="209.884" y2="65.229"/>
<line id="r6" fill="none" stroke="#FF3A5D" stroke-width="1.5" stroke-linecap="square" x1="175.872" y1="70.679" x2="209.884" y2="70.679"/>
<line id="r5" fill="none" stroke="#FF3A5D" stroke-width="1.5" stroke-linecap="square" x1="175.872" y1="76.129" x2="209.884" y2="76.129"/>
<line id="r4" fill="none" stroke="#FF3A5D" stroke-width="1.5" stroke-linecap="square" x1="175.872" y1="81.582" x2="209.884" y2="81.582"/>
<line id="r3" fill="none" stroke="#FF3A5D" stroke-width="1.5" stroke-linecap="square" x1="175.872" y1="87.031" x2="209.884" y2="87.031"/>
<line id="r2" fill="none" stroke="#FF3A5D" stroke-width="1.5" stroke-linecap="square" x1="175.872" y1="92.48" x2="209.884" y2="92.48"/>
<line id="r1" fill="none" stroke="#FF3A5D" stroke-width="1.5" stroke-linecap="square" x1="175.872" y1="97.932" x2="209.884" y2="97.932"/>
<line id="r0" fill="none" stroke="#FF3A5D" stroke-width="1.5" stroke-linecap="square" x1="175.872" y1="103.379" x2="209.884" y2="103.379"/>
</svg>
