<?xml version="1.0" encoding="utf-8"?>
<!-- Generator: Adobe Illustrator 14.0.0, SVG Export Plug-In . SVG Version: 6.00 Build 43363)  -->
<!DOCTYPE svg PUBLIC "-//W3C//DTD SVG 1.1//EN" "http://www.w3.org/Graphics/SVG/1.1/DTD/svg11.dtd">
<svg version="1.1" id="Layer_1" xmlns="http://www.w3.org/2000/svg" xmlns:xlink="http://www.w3.org/1999/xlink" x="0px" y="0px"
	 width="320px" height="160px" viewBox="0 0 320 160" enable-background="new 0 0 320 160" xml:space="preserve">
<g id="static">
	<g>
		<polyline fill="none" stroke="#698EFF" stroke-width="1.5" stroke-linecap="square" points="49.874,125.917 49.874,125.584 
			53.541,112.583 54.207,112.583 57.874,125.584 57.874,125.917 		"/>
		<line fill="none" stroke="#698EFF" stroke-width="1.5" stroke-linecap="square" x1="51.207" y1="121.25" x2="56.54" y2="121.25"/>
	</g>
	<g id="new">
		<path fill="none" stroke="#00ED95" stroke-width="1.5" stroke-linecap="square" d="M108.841,45.433V32.1h2.667
			c1.842,0,3.334,1.492,3.334,3.333c0,1.841-1.492,3.334-3.334,3.334h-2.667"/>
		<path fill="none" stroke="#00ED95" stroke-width="1.5" stroke-linecap="square" d="M108.841,38.766h2.667
			c1.842,0,3.334,1.493,3.334,3.334c0,1.841-1.492,3.333-3.334,3.333h-2.667"/>
	</g>
	<line fill="none" x1="28.415" y1="134.118" x2="28.415" y2="22.311"/>
	<line fill="none" stroke="#656579" stroke-width="1.5" x1="28.415" y1="134.118" x2="28.415" y2="22.311"/>
	<polygon fill="#7C7990" points="25.333,25.939 28.415,20.606 31.495,25.939 	"/>
	<line fill="none" x1="28.543" y1="79.498" x2="144.143" y2="79.498"/>
	<line fill="none" stroke="#656579" stroke-width="1.5" x1="28.543" y1="79.498" x2="144.143" y2="79.498"/>
	<polygon fill="#7C7990" points="144.275,76.831 148.894,79.498 144.275,82.173 	"/>
	<path fill="#7C7990" d="M28.415,132.602c1.476,0,2.668,1.194,2.668,2.668c0,1.479-1.192,2.668-2.668,2.668
		c-1.472,0-2.665-1.188-2.665-2.668C25.75,133.796,26.942,132.602,28.415,132.602"/>
	<path fill="#7C7990" d="M28.415,76.767c1.476,0,2.668,1.195,2.668,2.668c0,1.477-1.192,2.676-2.668,2.676
		c-1.472,0-2.665-1.199-2.665-2.676C25.75,77.962,26.942,76.767,28.415,76.767"/>
	<path fill="#00475B" d="M119.03,56.805c1.474,0,2.667,1.194,2.667,2.667c0,1.472-1.193,2.666-2.667,2.666
		c-1.471,0-2.665-1.194-2.665-2.666C116.365,57.999,117.559,56.805,119.03,56.805"/>
	<path fill="#00475B" d="M28.174,96.369c1.475,0,2.667,1.193,2.667,2.667c0,1.472-1.192,2.666-2.667,2.666
		c-1.472,0-2.665-1.194-2.665-2.666C25.509,97.562,26.702,96.369,28.174,96.369"/>
	<line fill="none" stroke="#00475B" stroke-width="1.5" stroke-linecap="square" x1="58.309" y1="59.472" x2="61.866" y2="59.472"/>
	<line fill="none" stroke="#00475B" stroke-width="1.5" stroke-linecap="square" x1="64.661" y1="59.472" x2="68.218" y2="59.472"/>
	<line fill="none" stroke="#00475B" stroke-width="1.5" stroke-linecap="square" x1="71.012" y1="59.472" x2="74.569" y2="59.472"/>
	<line fill="none" stroke="#00475B" stroke-width="1.5" stroke-linecap="square" x1="77.364" y1="59.472" x2="80.921" y2="59.472"/>
	<line fill="none" stroke="#00475B" stroke-width="1.5" stroke-linecap="square" x1="83.716" y1="59.472" x2="87.272" y2="59.472"/>
	<line fill="none" stroke="#00475B" stroke-width="1.5" stroke-linecap="square" x1="90.067" y1="59.472" x2="93.624" y2="59.472"/>
	<line fill="none" stroke="#00475B" stroke-width="1.5" stroke-linecap="square" x1="96.419" y1="59.472" x2="99.976" y2="59.472"/>
	
		<line fill="none" stroke="#00475B" stroke-width="1.5" stroke-linecap="square" x1="102.771" y1="59.472" x2="106.328" y2="59.472"/>
	
		<line fill="none" stroke="#00475B" stroke-width="1.5" stroke-linecap="square" x1="109.122" y1="59.472" x2="112.68" y2="59.472"/>
	
		<line fill="none" stroke="#00475B" stroke-width="1.5" stroke-linecap="square" x1="115.474" y1="59.472" x2="119.031" y2="59.472"/>
	<line fill="none" stroke="#00475B" stroke-width="1.5" stroke-linecap="square" x1="50.158" y1="99.036" x2="53.715" y2="99.036"/>
	<line fill="none" stroke="#00475B" stroke-width="1.5" stroke-linecap="square" x1="56.509" y1="99.036" x2="60.066" y2="99.036"/>
	<line fill="none" stroke="#00475B" stroke-width="1.5" stroke-linecap="square" x1="62.861" y1="99.036" x2="66.418" y2="99.036"/>
	<line fill="none" stroke="#00475B" stroke-width="1.5" stroke-linecap="square" x1="69.212" y1="99.036" x2="72.77" y2="99.036"/>
	<line fill="none" stroke="#00475B" stroke-width="1.5" stroke-linecap="square" x1="75.564" y1="99.036" x2="79.122" y2="99.036"/>
	<line fill="none" stroke="#00475B" stroke-width="1.5" stroke-linecap="square" x1="81.916" y1="99.036" x2="85.474" y2="99.036"/>
	<line fill="none" stroke="#00475B" stroke-width="1.5" stroke-linecap="square" x1="88.268" y1="99.036" x2="91.825" y2="99.036"/>
	<line fill="none" stroke="#00475B" stroke-width="1.5" stroke-linecap="square" x1="94.62" y1="99.036" x2="98.177" y2="99.036"/>
	
		<line fill="none" stroke="#00475B" stroke-width="1.5" stroke-linecap="square" x1="100.972" y1="99.036" x2="104.528" y2="99.036"/>
	<line fill="none" stroke="#00475B" stroke-width="1.5" stroke-linecap="square" x1="31.103" y1="99.036" x2="34.66" y2="99.036"/>
	<line fill="none" x1="176.109" y1="134.118" x2="176.109" y2="22.311"/>
	<line fill="none" stroke="#656579" stroke-width="1.5" x1="176.109" y1="134.118" x2="176.109" y2="22.311"/>
	<polygon fill="#7C7990" points="173.029,25.939 176.109,20.606 179.189,25.939 	"/>
	<line fill="none" x1="176.238" y1="79.498" x2="291.838" y2="79.498"/>
	<line fill="none" stroke="#656579" stroke-width="1.5" x1="185.038" y1="79.498" x2="283.038" y2="79.498"/>
	<path fill="#7C7990" d="M176.109,132.602c1.477,0,2.668,1.194,2.668,2.668c0,1.479-1.191,2.668-2.668,2.668
		c-1.471,0-2.664-1.188-2.664-2.668C173.445,133.796,174.639,132.602,176.109,132.602"/>
	<path fill="#7C7990" d="M176.109,76.701c1.477,0,2.668,1.195,2.668,2.668c0,1.477-1.191,2.676-2.668,2.676
		c-1.471,0-2.664-1.199-2.664-2.676C173.445,77.896,174.639,76.701,176.109,76.701"/>
	<line fill="none" stroke="#00475B" stroke-width="1.5" stroke-linecap="square" x1="37.455" y1="99.036" x2="41.012" y2="99.036"/>
	<line fill="none" stroke="#00475B" stroke-width="1.5" stroke-linecap="square" x1="43.806" y1="99.036" x2="47.363" y2="99.036"/>
	<path fill="#FF3A5D" d="M187.973,77.016c1.479,0,2.668,1.194,2.668,2.667c0,1.476-1.188,2.676-2.668,2.676
		c-1.473,0-2.664-1.2-2.664-2.676C185.309,78.21,186.501,77.016,187.973,77.016"/>
	<path fill="none" stroke="#DFD9FF" stroke-width="1.5" stroke-linecap="square" d="M298.748,45.433V32.1h2.667
		c1.841,0,3.334,1.493,3.334,3.333c0,1.841-1.493,3.333-3.334,3.333h-1.999l4.666,6.334v0.334"/>
	<polyline fill="none" stroke="#512132" stroke-width="1.5" stroke-linecap="square" points="189.984,112.596 189.984,113.928 
		192.471,125.904 193.318,125.904 195.984,112.596 198.652,125.904 199.575,125.904 201.988,113.773 201.984,112.596 	"/>
</g>
<path id="red2" fill="none" stroke="#512132" stroke-width="1.5" d="M187.975,79.684c0,0,6.271-48.604,12.855-48.604
	c11.915,0,15.052,100.049,27.595,100.049c12.856,0,8.972-100.049,16.185-100.049c7.211,0,5.146,100.049,12.979,100.049
	c6.271,0,4.394-100.049,9.724-100.049c6.896,0,5.021,100.049,10.354,100.049s4.703-51.441,4.703-51.441"/>
<g id="red1">
	<path id="_x3C_path_x3E__2_" fill="none" stroke="#FF3A5D" stroke-width="1.5" d="M187.866,79.777c0,0,6.264-48.598,12.85-48.598
		c11.915,0,15.054,100.04,27.597,100.04c12.854,0,8.977-100.04,16.188-100.04c7.211,0,5.146,100.04,12.979,100.04
		c6.271,0,4.393-100.04,9.723-100.04c6.896,0,5.021,100.04,10.35,100.04c5.331,0,4.703-51.438,4.703-51.438"/>
</g>
<g id="blue">
	<path id="_x3C_path_x3E_" fill="none" stroke="#698EFF" stroke-width="1.5" d="M28.648,79.4c0,0,6.85-51.38,21.175-51.38
		c16.816,0,23.355,71.016,39.548,71.016c8.408,0,12.146-19.946,12.146-19.946"/>
	<path fill="#698EFF" d="M28.646,76.835c1.474,0,2.667,1.194,2.667,2.667c0,1.475-1.193,2.674-2.667,2.674
		c-1.473,0-2.665-1.199-2.665-2.674C25.981,78.029,27.174,76.835,28.646,76.835"/>
	<path fill="#698EFF" d="M101.446,76.435c1.474,0,2.667,1.194,2.667,2.668c0,1.476-1.193,2.674-2.667,2.674
		c-1.472,0-2.665-1.198-2.665-2.674S99.974,76.435,101.446,76.435"/>
</g>
<g id="green">
	<path id="_x3C_path_x3E__1_" fill="none" stroke="#00ED95" stroke-width="1.5" d="M101.481,79.189c0,0-6.85,51.396-21.175,51.396
		c-16.816,0-23.354-71.017-39.547-71.017c-8.408,0-12.146,19.929-12.146,19.929"/>
	<path fill="#00ED95" d="M28.612,76.835c1.475,0,2.667,1.194,2.667,2.667c0,1.475-1.192,2.674-2.667,2.674
		c-1.471,0-2.665-1.199-2.665-2.674C25.947,78.029,27.141,76.835,28.612,76.835"/>
	<path fill="#00ED95" d="M101.479,76.523c1.475,0,2.667,1.194,2.667,2.667c0,1.477-1.192,2.676-2.667,2.676
		c-1.471,0-2.665-1.199-2.665-2.676C98.814,77.717,100.009,76.523,101.479,76.523"/>
</g>
<rect x="282.359" y="29.416" display="none" fill="#010101" stroke="#000000" width="36.736" height="104.209"/>
<g id="white">
	
		<line fill="none" stroke="#DFD9FF" stroke-width="1.5" stroke-linecap="square" x1="182.527" y1="30.582" x2="186.086" y2="30.582"/>
	
		<line fill="none" stroke="#DFD9FF" stroke-width="1.5" stroke-linecap="square" x1="188.88" y1="30.582" x2="192.438" y2="30.582"/>
	
		<line fill="none" stroke="#DFD9FF" stroke-width="1.5" stroke-linecap="square" x1="195.232" y1="30.582" x2="198.789" y2="30.582"/>
	
		<line fill="none" stroke="#DFD9FF" stroke-width="1.5" stroke-linecap="square" x1="201.584" y1="30.582" x2="205.141" y2="30.582"/>
	
		<line fill="none" stroke="#DFD9FF" stroke-width="1.5" stroke-linecap="square" x1="207.936" y1="30.582" x2="211.493" y2="30.582"/>
	
		<line fill="none" stroke="#DFD9FF" stroke-width="1.5" stroke-linecap="square" x1="214.287" y1="30.582" x2="217.844" y2="30.582"/>
	
		<line fill="none" stroke="#DFD9FF" stroke-width="1.5" stroke-linecap="square" x1="220.641" y1="30.582" x2="224.195" y2="30.582"/>
	
		<line fill="none" stroke="#DFD9FF" stroke-width="1.5" stroke-linecap="square" x1="226.99" y1="30.582" x2="230.548" y2="30.582"/>
	
		<line fill="none" stroke="#DFD9FF" stroke-width="1.5" stroke-linecap="square" x1="233.342" y1="30.582" x2="236.898" y2="30.582"/>
	
		<line fill="none" stroke="#DFD9FF" stroke-width="1.5" stroke-linecap="square" x1="163.475" y1="30.582" x2="167.029" y2="30.582"/>
	
		<line fill="none" stroke="#DFD9FF" stroke-width="1.5" stroke-linecap="square" x1="169.825" y1="30.582" x2="173.382" y2="30.582"/>
	
		<line fill="none" stroke="#DFD9FF" stroke-width="1.5" stroke-linecap="square" x1="176.177" y1="30.582" x2="179.732" y2="30.582"/>
	
		<line fill="none" stroke="#DFD9FF" stroke-width="1.5" stroke-linecap="square" x1="252.396" y1="30.582" x2="255.954" y2="30.582"/>
	
		<line fill="none" stroke="#DFD9FF" stroke-width="1.5" stroke-linecap="square" x1="258.748" y1="30.582" x2="262.307" y2="30.582"/>
	
		<line fill="none" stroke="#DFD9FF" stroke-width="1.5" stroke-linecap="square" x1="265.102" y1="30.582" x2="268.657" y2="30.582"/>
	
		<line fill="none" stroke="#DFD9FF" stroke-width="1.5" stroke-linecap="square" x1="271.452" y1="30.582" x2="275.01" y2="30.582"/>
	
		<line fill="none" stroke="#DFD9FF" stroke-width="1.5" stroke-linecap="square" x1="277.805" y1="30.582" x2="281.361" y2="30.582"/>
	
		<line fill="none" stroke="#DFD9FF" stroke-width="1.5" stroke-linecap="square" x1="284.156" y1="30.582" x2="287.713" y2="30.582"/>
	
		<line fill="none" stroke="#DFD9FF" stroke-width="1.5" stroke-linecap="square" x1="290.508" y1="30.582" x2="294.064" y2="30.582"/>
	
		<line fill="none" stroke="#DFD9FF" stroke-width="1.5" stroke-linecap="square" x1="239.693" y1="30.582" x2="243.251" y2="30.582"/>
	
		<line fill="none" stroke="#DFD9FF" stroke-width="1.5" stroke-linecap="square" x1="246.046" y1="30.582" x2="249.604" y2="30.582"/>
	<path fill="#DFD9FF" d="M161.518,27.915c1.479,0,2.668,1.194,2.668,2.667c0,1.472-1.188,2.666-2.668,2.666
		c-1.473,0-2.664-1.194-2.664-2.666C158.854,29.109,160.046,27.915,161.518,27.915"/>
</g>
<polygon fill="#7C7990" points="288.469,76.831 293.086,79.498 288.469,82.173 "/>
<line fill="none" stroke="#656579" stroke-width="1.5" x1="281.372" y1="79.473" x2="288.372" y2="79.473"/>
</svg>
