<?xml version="1.0" encoding="utf-8"?>
<!-- Generator: Adobe Illustrator 14.0.0, SVG Export Plug-In . SVG Version: 6.00 Build 43363)  -->
<!DOCTYPE svg PUBLIC "-//W3C//DTD SVG 1.1//EN" "http://www.w3.org/Graphics/SVG/1.1/DTD/svg11.dtd">
<svg version="1.1" id="Layer_1" xmlns="http://www.w3.org/2000/svg" xmlns:xlink="http://www.w3.org/1999/xlink" x="0px" y="0px"
	 width="320px" height="160px" viewBox="0 0 320 160" enable-background="new 0 0 320 160" xml:space="preserve">
<g id="static">
	<g>
		<g id="t_131_">
			
				<line fill="none" stroke="#00ED95" stroke-width="1.5" stroke-linecap="square" x1="164.811" y1="49.935" x2="177.212" y2="49.935"/>
			
				<line fill="none" stroke="#00ED95" stroke-width="1.5" stroke-linecap="square" x1="171.26" y1="49.935" x2="171.26" y2="69.776"/>
		</g>
		<polyline id="m_68_" fill="none" stroke="#00ED95" stroke-width="1.5" stroke-linecap="square" points="122.65,69.775 
			122.65,49.935 123.641,49.935 128.105,61.839 129.096,61.839 133.561,49.935 134.553,49.935 134.553,69.775 		"/>
		<g id="e_189_">
			<polyline fill="none" stroke="#00ED95" stroke-width="1.5" stroke-linecap="square" points="147.946,69.775 139.016,69.775 
				139.016,49.935 147.946,49.935 			"/>
			
				<line fill="none" stroke="#00ED95" stroke-width="1.5" stroke-linecap="square" x1="139.016" y1="59.855" x2="146.954" y2="59.855"/>
		</g>
		<polyline id="n_91_" fill="none" stroke="#00ED95" stroke-width="1.5" stroke-linecap="square" points="151.914,69.775 
			151.914,49.935 152.906,49.935 160.844,69.775 161.836,69.775 161.836,49.935 		"/>
		<path id="p_82_" fill="none" stroke="#00ED95" stroke-width="1.5" stroke-linecap="square" d="M55.684,69.775v-19.84h3.973
			c2.735,0,4.96,2.221,4.96,4.96l0,0c0,2.74-2.225,4.961-4.96,4.961h-3.973"/>
		<g id="a_104_">
			<polyline fill="none" stroke="#00ED95" stroke-width="1.5" stroke-linecap="square" points="107.275,69.775 107.275,69.28 
				112.731,49.935 113.723,49.935 119.179,69.28 119.179,69.775 			"/>
			
				<line fill="none" stroke="#00ED95" stroke-width="1.5" stroke-linecap="square" x1="109.26" y1="62.831" x2="117.196" y2="62.831"/>
		</g>
		<g id="t_130_">
			
				<line fill="none" stroke="#00ED95" stroke-width="1.5" stroke-linecap="square" x1="94.873" y1="49.935" x2="107.274" y2="49.935"/>
			
				<line fill="none" stroke="#00ED95" stroke-width="1.5" stroke-linecap="square" x1="101.322" y1="49.935" x2="101.322" y2="69.776"/>
		</g>
		<path id="r_91_" fill="none" stroke="#00ED95" stroke-width="1.5" stroke-linecap="square" d="M83.961,69.775V49.934h3.968
			c2.739,0,4.961,2.222,4.961,4.961l0,0c0,2.74-2.222,4.961-4.961,4.961h-2.975l6.944,9.424v0.497"/>
		<path id="o_117_" fill="none" stroke="#00ED95" stroke-width="1.5" stroke-linecap="square" d="M68.586,55.39v8.93
			c0,3.014,2.441,5.457,5.456,5.457c3.013,0,5.456-2.443,5.456-5.457l0,0l0,0v-8.929c0-3.014-2.441-5.457-5.456-5.457
			C71.028,49.935,68.586,52.377,68.586,55.39L68.586,55.39L68.586,55.39L68.586,55.39z"/>
		<path id="o_118_" fill="none" stroke="#00ED95" stroke-width="1.5" stroke-linecap="square" d="M178.206,55.39v8.93
			c0,3.014,2.44,5.457,5.456,5.457c3.013,0,5.456-2.443,5.456-5.457l0,0l0,0v-8.929c0-3.014-2.442-5.457-5.456-5.457
			S178.206,52.377,178.206,55.39L178.206,55.39L178.206,55.39L178.206,55.39z"/>
	</g>
	<g>
		<path id="p_81_" fill="none" stroke="#698EFF" stroke-width="1.5" stroke-linecap="square" d="M56,37.342V17.5h3.973
			c2.736,0,4.961,2.221,4.961,4.96l0,0c0,2.74-2.225,4.961-4.961,4.961H56"/>
		<g id="a_103_">
			<polyline fill="none" stroke="#698EFF" stroke-width="1.5" stroke-linecap="square" points="77.83,37.342 77.83,36.846 
				83.287,17.5 84.278,17.5 89.734,36.846 89.734,37.342 			"/>
			
				<line fill="none" stroke="#698EFF" stroke-width="1.5" stroke-linecap="square" x1="79.814" y1="30.397" x2="87.75" y2="30.397"/>
		</g>
		<polyline id="m_67_" fill="none" stroke="#698EFF" stroke-width="1.5" stroke-linecap="square" points="105.609,37.342 
			105.609,17.5 106.601,17.5 111.064,29.405 112.056,29.405 116.522,17.5 117.513,17.5 117.513,37.342 		"/>
		<path id="d_94_" fill="none" stroke="#698EFF" stroke-width="1.5" stroke-linecap="square" d="M143.307,37.342
			c2.74,0,4.961-2.222,4.961-4.961v-9.92c0-2.74-2.221-4.961-4.961-4.961h-4.961v19.843L143.307,37.342L143.307,37.342z"/>
		<g id="y_21_">
			<polyline fill="none" stroke="#698EFF" stroke-width="1.5" stroke-linecap="square" points="90.727,17.5 90.727,18.492 
				95.688,28.413 100.649,18.492 100.649,17.5 			"/>
			
				<line fill="none" stroke="#698EFF" stroke-width="1.5" stroke-linecap="square" x1="95.688" y1="28.413" x2="95.688" y2="37.342"/>
		</g>
		<g id="e_188_">
			<polyline fill="none" stroke="#698EFF" stroke-width="1.5" stroke-linecap="square" points="162.16,37.342 153.229,37.342 
				153.229,17.5 162.16,17.5 			"/>
			
				<line fill="none" stroke="#698EFF" stroke-width="1.5" stroke-linecap="square" x1="153.229" y1="27.421" x2="161.168" y2="27.421"/>
		</g>
		<path id="o_119_" fill="none" stroke="#698EFF" stroke-width="1.5" stroke-linecap="square" d="M122.475,22.956v8.93
			c0,3.014,2.442,5.457,5.457,5.457c3.013,0,5.456-2.443,5.456-5.457l0,0l0,0v-8.93c0-3.013-2.443-5.457-5.456-5.457
			C124.918,17.5,122.475,19.943,122.475,22.956L122.475,22.956L122.475,22.956L122.475,22.956z"/>
		<polyline id="l_71_" fill="none" stroke="#698EFF" stroke-width="1.5" stroke-linecap="square" points="68.902,17.5 
			68.902,37.342 77.83,37.342 		"/>
	</g>
</g>
<g id="g">
	<path id="d_96_" fill="none" stroke="#DFD9FF" stroke-width="1.5" stroke-linecap="square" d="M141.994,102.295
		c2.74,0,4.961-2.221,4.961-4.961v-9.92c0-2.738-2.221-4.959-4.961-4.959h-4.961v19.84H141.994L141.994,102.295z"/>
	<g id="g_26_">
		<path fill="none" stroke="#DFD9FF" stroke-width="1.5" stroke-linecap="square" d="M65.6,97.334c0,2.74-2.224,4.961-4.961,4.961
			c-2.738,0-4.964-2.221-4.964-4.961v-9.922c0-2.738,2.225-4.959,4.965-4.959c2.736,0,4.96,2.221,4.96,4.959"/>
		<polyline fill="none" stroke="#DFD9FF" stroke-width="1.5" stroke-linecap="square" points="59.647,92.375 65.6,92.375 
			65.6,102.295 		"/>
	</g>
	<g id="e_190_">
		<polyline fill="none" stroke="#DFD9FF" stroke-width="1.5" stroke-linecap="square" points="117.193,102.295 108.262,102.295 
			108.262,82.455 117.193,82.455 		"/>
		
			<line fill="none" stroke="#DFD9FF" stroke-width="1.5" stroke-linecap="square" x1="108.262" y1="92.375" x2="116.201" y2="92.375"/>
	</g>
	<g id="b_28_">
		<path fill="none" stroke="#DFD9FF" stroke-width="1.5" stroke-linecap="square" d="M94.373,102.295v-19.84h3.969
			c2.739,0,4.961,2.221,4.961,4.959l0,0c0,2.74-2.222,4.961-4.961,4.961h-3.969"/>
		<path fill="none" stroke="#DFD9FF" stroke-width="1.5" stroke-linecap="square" d="M94.373,92.375h3.969
			c2.739,0,4.961,2.221,4.961,4.959l0,0c0,2.74-2.222,4.961-4.961,4.961h-3.969"/>
	</g>
	<polyline id="n_92_" fill="none" stroke="#DFD9FF" stroke-width="1.5" stroke-linecap="square" points="121.161,102.295 
		121.161,82.455 122.153,82.455 130.091,102.295 131.083,102.295 131.083,82.455 	"/>
	<g id="_x2D__3_">
		
			<line fill="none" stroke="#DFD9FF" stroke-width="1.5" stroke-linecap="square" x1="75.521" y1="91.381" x2="85.443" y2="91.381"/>
	</g>
</g>
<g id="dt">
	<g id="t_129_">
		
			<line fill="none" stroke="#FF3A5D" stroke-width="1.5" stroke-linecap="square" x1="82.672" y1="114.971" x2="95.073" y2="114.971"/>
		
			<line fill="none" stroke="#FF3A5D" stroke-width="1.5" stroke-linecap="square" x1="89.121" y1="114.971" x2="89.121" y2="134.812"/>
	</g>
	<path id="d_95_" fill="none" stroke="#FF3A5D" stroke-width="1.5" stroke-linecap="square" d="M60.847,134.812
		c2.74,0,4.961-2.226,4.961-4.959v-9.922c0-2.738-2.221-4.959-4.961-4.959h-4.961v19.84H60.847L60.847,134.812z"/>
	<g id="u_38_">
		<path fill="none" stroke="#FF3A5D" stroke-width="1.5" stroke-linecap="square" d="M98.146,114.971v14.881
			c0,2.738,2.221,4.961,4.961,4.961c2.739,0,4.96-2.223,4.96-4.961v-14.881"/>
	</g>
	<g id="e_187_">
		<polyline fill="none" stroke="#FF3A5D" stroke-width="1.5" stroke-linecap="square" points="136.932,134.811 128.003,134.811 
			128.003,114.973 136.932,114.973 		"/>
		
			<line fill="none" stroke="#FF3A5D" stroke-width="1.5" stroke-linecap="square" x1="128.003" y1="124.893" x2="135.941" y2="124.893"/>
	</g>
	<g id="e_191_">
		<polyline fill="none" stroke="#FF3A5D" stroke-width="1.5" stroke-linecap="square" points="79.696,134.811 70.766,134.811 
			70.766,114.973 79.696,114.973 		"/>
		
			<line fill="none" stroke="#FF3A5D" stroke-width="1.5" stroke-linecap="square" x1="70.766" y1="124.893" x2="78.705" y2="124.893"/>
	</g>
	<polyline id="n_90_" fill="none" stroke="#FF3A5D" stroke-width="1.5" stroke-linecap="square" points="113.026,134.811 
		113.026,114.973 114.019,114.973 121.956,134.811 122.948,134.811 122.948,114.973 	"/>
</g>
<g id="playmode">
	<path id="p_83_" fill="none" stroke="#698EFF" stroke-width="1.5" stroke-linecap="square" d="M214.741,37.342V17.5h3.973
		c2.737,0,4.961,2.221,4.961,4.96l0,0c0,2.74-2.224,4.961-4.961,4.961h-3.973"/>
	<g id="y_22_">
		<polyline fill="none" stroke="#698EFF" stroke-width="1.5" stroke-linecap="square" points="251.45,17.5 251.45,18.492 
			256.411,28.413 261.371,18.492 261.371,17.5 		"/>
		
			<line fill="none" stroke="#698EFF" stroke-width="1.5" stroke-linecap="square" x1="256.411" y1="28.413" x2="256.411" y2="37.342"/>
	</g>
	<path id="o_120_" fill="none" stroke="#698EFF" stroke-width="1.5" stroke-linecap="square" d="M227.639,22.956v8.93
		c0,3.014,2.442,5.457,5.457,5.457c3.014,0,5.456-2.443,5.456-5.457l0,0l0,0v-8.929c0-3.013-2.442-5.457-5.456-5.457
		S227.639,19.942,227.639,22.956L227.639,22.956L227.639,22.956L227.639,22.956z"/>
	<polyline id="l_72_" fill="none" stroke="#698EFF" stroke-width="1.5" stroke-linecap="square" points="243.512,17.5 
		243.512,37.342 252.439,37.342 	"/>
</g>
<g id="portamento">
	<path fill="none" stroke="#00ED95" stroke-width="1.5" stroke-linecap="square" d="M224.331,64.813c0,2.738-2.22,4.959-4.958,4.959
		s-4.959-2.221-4.959-4.959v-9.916c0-2.739,2.221-4.959,4.959-4.959s4.958,2.22,4.958,4.959V64.813z"/>
	
		<line id="_x31__89_" fill="none" stroke="#00ED95" stroke-width="1.5" stroke-linecap="square" x1="230.288" y1="49.935" x2="230.288" y2="69.775"/>
</g>
<g id="gval">
	<path fill="none" stroke="#DFD9FF" stroke-width="1.5" stroke-linecap="square" d="M224.335,97.332c0,2.74-2.219,4.959-4.958,4.959
		c-2.738,0-4.959-2.219-4.959-4.959v-9.916c0-2.736,2.221-4.957,4.959-4.957c2.739,0,4.958,2.221,4.958,4.957V97.332L224.335,97.332
		z"/>
	
		<line id="_x31__90_" fill="none" stroke="#DFD9FF" stroke-width="1.5" stroke-linecap="square" x1="230.292" y1="82.455" x2="230.292" y2="102.295"/>
</g>
<g id="dtval">
	<path fill="none" stroke="#FF3A5D" stroke-width="1.5" stroke-linecap="square" d="M243.375,129.85c0,2.74-2.221,4.959-4.957,4.959
		c-2.738,0-4.959-2.219-4.959-4.959v-9.916c0-2.738,2.221-4.957,4.959-4.957c2.736,0,4.957,2.219,4.957,4.957V129.85z"/>
	
		<line id="_x31__88_" fill="none" stroke="#FF3A5D" stroke-width="1.5" stroke-linecap="square" x1="249.331" y1="114.973" x2="249.331" y2="134.811"/>
	<g id="_x2B__4_">
		
			<line fill="none" stroke="#FF3A5D" stroke-width="1.5" stroke-linecap="square" x1="219.568" y1="119.932" x2="219.568" y2="129.852"/>
		
			<line fill="none" stroke="#FF3A5D" stroke-width="1.5" stroke-linecap="square" x1="214.609" y1="124.893" x2="224.529" y2="124.893"/>
	</g>
</g>
</svg>
