<?xml version="1.0" encoding="utf-8"?>
<!-- Generator: Adobe Illustrator 14.0.0, SVG Export Plug-In . SVG Version: 6.00 Build 43363)  -->
<!DOCTYPE svg PUBLIC "-//W3C//DTD SVG 1.1//EN" "http://www.w3.org/Graphics/SVG/1.1/DTD/svg11.dtd">
<svg version="1.1" id="Layer_1" xmlns="http://www.w3.org/2000/svg" xmlns:xlink="http://www.w3.org/1999/xlink" x="0px" y="0px"
	 width="320px" height="160px" viewBox="0 0 320 160" enable-background="new 0 0 320 160" xml:space="preserve">
<g>
	<path id="s_96_" fill="none" stroke="#00ED95" stroke-width="1.5" stroke-linecap="square" d="M184.5,28.422
		c0,1.957,1.586,3.544,3.543,3.544s3.543-1.587,3.543-3.544c0-0.797-0.541-1.882-1.521-2.486c-0.854-0.526-3.277-1.543-4.125-2.083
		c-1.041-0.667-1.438-1.72-1.438-2.517c0-1.957,1.586-3.544,3.543-3.544s3.543,1.587,3.543,3.544"/>
	<g id="t_124_">
		
			<line fill="none" stroke="#00ED95" stroke-width="1.5" stroke-linecap="square" x1="139.214" y1="17.792" x2="148.073" y2="17.792"/>
		
			<line fill="none" stroke="#00ED95" stroke-width="1.5" stroke-linecap="square" x1="143.822" y1="17.792" x2="143.822" y2="31.966"/>
	</g>
	<g id="t_1_">
		
			<line fill="none" stroke="#698EFF" stroke-width="1.5" stroke-linecap="square" x1="16.768" y1="65.186" x2="34.484" y2="65.186"/>
		
			<line fill="none" stroke="#698EFF" stroke-width="1.5" stroke-linecap="square" x1="25.982" y1="65.186" x2="25.982" y2="93.531"/>
	</g>
	<g id="u_35_">
		<path fill="none" stroke="#00ED95" stroke-width="1.5" stroke-linecap="square" d="M151.492,17.792v10.63
			c0,1.957,1.587,3.544,3.544,3.544c1.956,0,3.543-1.587,3.543-3.544v-10.63"/>
	</g>
	<polyline id="n_89_" fill="none" stroke="#00ED95" stroke-width="1.5" stroke-linecap="square" points="173.314,31.965 
		173.314,17.793 174.023,17.793 179.693,31.965 180.402,31.965 180.402,17.793 	"/>
	<path id="r_86_" fill="none" stroke="#00ED95" stroke-width="1.5" stroke-linecap="square" d="M163.105,31.965V17.792h2.836
		c1.955,0,3.543,1.587,3.543,3.544l0,0c0,1.957-1.588,3.543-3.543,3.543h-1.125l3.959,6.732v0.354"/>
</g>
<path id="p_15_" fill="none" stroke="#DFD9FF" stroke-width="1.5" stroke-linecap="square" d="M180.316,135.631v-14.173h2.838
	c1.955,0,3.544,1.586,3.544,3.543l0,0c0,1.957-1.589,3.544-3.544,3.544h-2.838"/>
<g id="a_18_">
	<polyline fill="none" stroke="#DFD9FF" stroke-width="1.5" stroke-linecap="square" points="155.374,135.631 155.374,135.277 
		159.271,121.459 159.98,121.459 163.878,135.277 163.878,135.631 	"/>
	
		<line fill="none" stroke="#DFD9FF" stroke-width="1.5" stroke-linecap="square" x1="156.792" y1="130.671" x2="162.462" y2="130.671"/>
</g>
<polyline id="m_7_" fill="none" stroke="#DFD9FF" stroke-width="1.5" stroke-linecap="square" points="167.421,135.631 
	167.421,121.458 168.13,121.458 171.316,129.962 172.025,129.962 175.216,121.458 175.924,121.458 175.924,135.631 "/>
<path id="d_10_" fill="none" stroke="#DFD9FF" stroke-width="1.5" stroke-linecap="square" d="M148.288,135.631
	c1.957,0,3.544-1.586,3.544-3.543v-7.087c0-1.957-1.587-3.543-3.544-3.543h-3.544v14.173H148.288L148.288,135.631z"/>
<line fill="none" stroke="#FF3A5D" stroke-width="1.5" stroke-dasharray="3,2" x1="291.618" y1="101.5" x2="291.618" y2="98.5"/>
<line fill="none" stroke="#FF3A5D" stroke-width="1.5" stroke-dasharray="3,2" x1="291.618" y1="96.5" x2="291.618" y2="93.5"/>
<line fill="none" stroke="#FF3A5D" stroke-width="1.5" stroke-dasharray="3,2" x1="291.618" y1="91.5" x2="291.618" y2="88.5"/>
<line fill="none" stroke="#FF3A5D" stroke-width="1.5" stroke-dasharray="3,2" x1="291.618" y1="86.5" x2="291.618" y2="83.5"/>
<line fill="none" stroke="#FF3A5D" stroke-width="1.5" stroke-dasharray="3,2" x1="291.618" y1="81.5" x2="291.618" y2="78.5"/>
<line fill="none" stroke="#FF3A5D" stroke-width="1.5" stroke-dasharray="3,2" x1="291.618" y1="76.5" x2="291.618" y2="73.5"/>
<line fill="none" stroke="#FF3A5D" stroke-width="1.5" stroke-dasharray="3,2" x1="291.618" y1="71.5" x2="291.618" y2="68.5"/>
<line fill="none" stroke="#FF3A5D" stroke-width="1.5" stroke-dasharray="3,2" x1="291.618" y1="66.5" x2="291.618" y2="63.5"/>
<line fill="none" stroke="#FF3A5D" stroke-width="1.5" stroke-dasharray="3,2" x1="291.618" y1="61.5" x2="291.618" y2="58.5"/>
<line fill="none" stroke="#FF3A5D" stroke-width="1.5" stroke-dasharray="3,2" x1="291.618" y1="56.5" x2="291.618" y2="53.5"/>
<line fill="none" stroke="#FF3A5D" stroke-width="1.5" stroke-dasharray="3,2" x1="291.618" y1="106.5" x2="291.618" y2="103.5"/>
<g id="up">
	<rect x="286.594" y="20.346" fill="#020201" width="8.518" height="30"/>
	<circle fill="#FF3A5D" cx="291.6" cy="50" r="2.834"/>
</g>
<g id="down">
	<rect x="287.243" y="110.562" fill="#010101" width="8.514" height="30"/>
	<circle fill="#FF3A5D" cx="291.6" cy="110" r="2.834"/>
</g>
</svg>
