<?xml version="1.0" encoding="utf-8"?>
<!-- Generator: Adobe Illustrator 14.0.0, SVG Export Plug-In . SVG Version: 6.00 Build 43363)  -->
<!DOCTYPE svg PUBLIC "-//W3C//DTD SVG 1.1//EN" "http://www.w3.org/Graphics/SVG/1.1/DTD/svg11.dtd">
<svg version="1.1" id="Layer_1" xmlns="http://www.w3.org/2000/svg" xmlns:xlink="http://www.w3.org/1999/xlink" x="0px" y="0px"
	 width="320px" height="160px" viewBox="0 0 320 160" enable-background="new 0 0 320 160" xml:space="preserve">
<g id="static">
	<polygon fill="none" stroke="#FF3A5D" stroke-width="1.5" points="290.449,74.949 290.449,88.281 298.45,88.281 310.719,96.281 
		311.782,96.281 311.782,66.949 310.719,66.949 298.45,74.949 	"/>
	<line fill="none" stroke="#FF3A5D" stroke-width="1.5" x1="298.45" y1="74.949" x2="298.45" y2="88.281"/>
	<circle fill="none" stroke="#AEB1DC" stroke-width="1.5" cx="146.271" cy="97.284" r="1.835"/>
	<circle fill="none" stroke="#AEB1DC" stroke-width="1.5" cx="119.027" cy="97.284" r="1.922"/>
	<line fill="none" stroke="#AEB1DC" stroke-width="1.5" x1="119.586" y1="107.939" x2="147.335" y2="107.939"/>
	<path fill="#FFFFFF" d="M174.45,62.086c0,0.294-0.239,0.532-0.534,0.532c-0.294,0-0.532-0.238-0.532-0.532s0.238-0.533,0.532-0.533
		C174.211,61.553,174.45,61.792,174.45,62.086"/>
	<path fill="none" stroke="#534468" stroke-width="1.5" d="M180.729,62.086c0-3.648-2.959-6.606-6.604-6.606
		s-6.604,2.958-6.604,6.606"/>
	<path fill="none" stroke="#534468" stroke-width="1.5" d="M203.006,62.086c0-3.648-2.957-6.606-6.605-6.606
		c-3.646,0-6.604,2.958-6.604,6.606"/>
	<path fill="none" stroke="#534468" stroke-width="1.5" d="M224.338,62.086c0-3.648-2.957-6.606-6.604-6.606
		c-3.649,0-6.606,2.958-6.606,6.606"/>
	<path fill="none" stroke="#534468" stroke-width="1.5" d="M245.672,62.086c0-3.648-2.957-6.606-6.605-6.606
		c-3.646,0-6.604,2.958-6.604,6.606"/>
	<path fill="#FFFFFF" d="M197.262,62.086c0,0.294-0.238,0.532-0.533,0.532s-0.533-0.238-0.533-0.532s0.238-0.533,0.533-0.533
		S197.262,61.792,197.262,62.086"/>
	<path fill="#FFFFFF" d="M218.594,62.086c0,0.294-0.238,0.532-0.531,0.532c-0.297,0-0.535-0.238-0.535-0.532
		s0.238-0.533,0.535-0.533C218.355,61.553,218.594,61.792,218.594,62.086"/>
	<path fill="none" stroke="#FFFFFF" d="M239.927,62.086c0,0.294-0.237,0.532-0.53,0.532c-0.297,0-0.535-0.238-0.535-0.532
		s0.238-0.533,0.535-0.533C239.689,61.553,239.927,61.792,239.927,62.086"/>
	
		<line fill="none" stroke="#AEB1DC" stroke-width="1.5" stroke-linecap="square" x1="204.85" y1="102.619" x2="204.85" y2="113.285"/>
	
		<line fill="none" stroke="#AEB1DC" stroke-width="1.5" stroke-linecap="square" x1="207.516" y1="102.619" x2="207.516" y2="113.285"/>
	<path fill="none" stroke="#698EFF" stroke-width="1.5" stroke-linecap="square" d="M204.343,96.646
		c-0.743,1.412-2.225,2.377-3.931,2.377c-2.45,0-4.438-1.986-4.438-4.438s1.979-4.438,4.438-4.438s4.438,1.985,4.438,4.438"/>
	<circle fill="none" stroke="#698EFF" stroke-width="1.5" stroke-linecap="square" cx="211.952" cy="94.587" r="4.437"/>
	
		<line fill="none" stroke="#698EFF" stroke-width="1.5" stroke-linecap="square" x1="195.977" y1="94.587" x2="204.553" y2="94.587"/>
	
		<line fill="none" stroke="#698EFF" stroke-width="1.5" stroke-linecap="square" x1="211.656" y1="94.587" x2="216.299" y2="99.038"/>
	<rect x="109.722" y="58.242" fill="none" stroke="#FF3A5D" stroke-width="1.5" width="19.929" height="19.928"/>
	<line fill="none" stroke="#AEB1DC" stroke-width="1.5" x1="220.316" y1="119.952" x2="231.783" y2="119.952"/>
	<line fill="none" stroke="#AEB1DC" stroke-width="1.5" x1="220.316" y1="122.619" x2="231.783" y2="122.619"/>
	
		<line fill="none" stroke="#742323" stroke-width="1.5" stroke-linecap="square" x1="163.055" y1="87.88" x2="163.055" y2="107.809"/>
</g>
<polyline id="out_x5F_l" fill="none" stroke="#FFFFFF" stroke-width="1.5" stroke-linecap="square" points="290.449,80.282 
	277.648,80.282 277.648,119.951 266.854,119.951 "/>
<polyline id="out_x5F_r" fill="none" stroke="#FFFFFF" stroke-width="1.5" stroke-linecap="square" points="290.449,82.949 
	280.316,82.949 280.316,122.619 266.854,122.619 "/>
<path id="synth" fill="none" stroke="#698EFF" stroke-width="1.5" d="M41.256,62.889c0-1.25-1.015-2.26-2.263-2.26
	c-1.249,0-2.265,1.011-2.265,2.26l0.021,8.812c0,1.25-1.014,2.262-2.263,2.262c-1.251,0-2.264-1.013-2.264-2.262v-8.812
	c0-1.25-1.014-2.26-2.261-2.26c-1.251,0-2.265,1.011-2.265,2.26l-0.053,8.812c0,1.25-1.012,2.262-2.262,2.262
	s-2.264-1.013-2.264-2.262v-8.812c0-1.25-1.013-2.26-2.264-2.26s-2.264,1.011-2.264,2.26l-0.017,8.812
	c0,1.25-1.013,2.262-2.26,2.262c-1.251,0-2.264-1.013-2.264-2.262"/>
<g id="drum">
	<circle fill="none" stroke="#00ED95" stroke-width="1.5" cx="27.653" cy="68.919" r="6.667"/>
	<path fill="#00ED95" d="M28.973,70.174c0,0.729-0.591,1.319-1.32,1.319s-1.32-0.655-1.32-1.385c0-0.729,0.591-1.254,1.32-1.254
		S28.973,69.446,28.973,70.174"/>
	<path fill="none" stroke="#00ED95" stroke-width="1.5" d="M28.973,70.174c0,0.729-0.591,1.319-1.32,1.319s-1.32-0.655-1.32-1.385
		c0-0.729,0.591-1.254,1.32-1.254S28.973,69.446,28.973,70.174z"/>
	<line fill="none" stroke="#00ED95" stroke-width="1.5" x1="27.653" y1="78.687" x2="27.653" y2="70.239"/>
</g>
<g id="reelright">
	<line fill="none" stroke="#AEB1DC" stroke-width="1.5" x1="146.204" y1="92.777" x2="146.204" y2="88.327"/>
	<line fill="none" stroke="#AEB1DC" stroke-width="1.5" x1="142.265" y1="99.604" x2="138.408" y2="101.829"/>
	<line fill="none" stroke="#AEB1DC" stroke-width="1.5" x1="150.144" y1="99.604" x2="154.001" y2="101.829"/>
	<circle fill="none" stroke="#AEB1DC" stroke-width="1.5" cx="146.229" cy="97.284" r="10.667"/>
</g>
<g id="reelleft">
	<line fill="none" stroke="#AEB1DC" stroke-width="1.5" x1="118.958" y1="92.777" x2="118.958" y2="88.327"/>
	<line fill="none" stroke="#AEB1DC" stroke-width="1.5" x1="115.02" y1="99.604" x2="111.162" y2="101.829"/>
	<line fill="none" stroke="#AEB1DC" stroke-width="1.5" x1="122.9" y1="99.604" x2="126.757" y2="101.829"/>
	<circle fill="none" stroke="#AEB1DC" stroke-width="1.5" cx="118.984" cy="97.284" r="10.668"/>
</g>
<circle id="tapevubase4" fill="#FFFFFF" stroke="#FFFFFF" stroke-width="1.5" cx="239.395" cy="62.086" r="0.533"/>
<circle id="tapevubase3" fill="none" stroke="#FFFFFF" stroke-width="1.5" cx="218.061" cy="62.086" r="0.534"/>
<circle id="tapevubase2" fill="none" stroke="#FFFFFF" stroke-width="1.5" cx="196.729" cy="62.086" r="0.534"/>
<circle id="tapevubase1" fill="none" stroke="#FFFFFF" stroke-width="1.5" cx="173.917" cy="62.086" r="0.533"/>
<polyline id="tape0" fill="none" stroke="#FFFFFF" stroke-width="1.5" stroke-linecap="square" points="172.85,67.952 
	172.85,75.952 202.211,75.952 202.211,86.619 "/>
<polyline id="tape1" fill="none" stroke="#FFFFFF" stroke-width="1.5" stroke-linecap="square" points="196.85,67.952 
	196.85,73.285 204.85,73.285 204.85,86.619 "/>
<polyline id="tape2" fill="none" stroke="#FFFFFF" stroke-width="1.5" stroke-linecap="square" points="218.184,67.952 
	218.184,73.285 207.635,73.285 207.635,86.619 "/>
<polyline id="tape3" fill="none" stroke="#FFFFFF" stroke-width="1.5" stroke-linecap="square" points="239.518,67.952 
	239.518,75.952 210.184,75.952 210.184,86.619 "/>
<rect x="191.516" y="86.619" fill="none" stroke="#AEB1DC" stroke-width="1.5" width="29.334" height="16"/>
<rect x="231.781" y="113.285" fill="none" stroke="#AEB1DC" stroke-width="1.5" width="35.072" height="16"/>
<line id="tapetrack" fill="none" stroke="#FF3A5D" stroke-width="1.5" x1="119.686" y1="62.772" x2="119.686" y2="73.64"/>
<g id="drive">
	
		<line fill="none" stroke="#FF3A5D" stroke-width="1.5" stroke-linecap="square" x1="249.143" y1="116.602" x2="249.143" y2="125.934"/>
	<path fill="none" stroke="#FF3A5D" stroke-width="1.5" stroke-linecap="square" d="M237.541,125.934
		c1.288,0,2.332-1.043,2.332-2.332v-4.666c0-1.289-1.044-2.334-2.332-2.334h-2.333v9.332H237.541z"/>
	<polyline fill="none" stroke="#FF3A5D" stroke-width="1.5" stroke-linecap="square" points="263.693,125.934 259.494,125.934 
		259.494,116.602 263.693,116.602 	"/>
	
		<line fill="none" stroke="#FF3A5D" stroke-width="1.5" stroke-linecap="square" x1="259.494" y1="121.268" x2="263.229" y2="121.268"/>
	<polyline fill="none" stroke="#FF3A5D" stroke-width="1.5" stroke-linecap="square" points="251.382,116.602 251.381,116.835 
		254.184,125.934 254.648,125.934 257.448,116.835 257.448,116.602 	"/>
	<path fill="none" stroke="#FF3A5D" stroke-width="1.5" stroke-linecap="square" d="M242.475,125.934v-9.332h1.866
		c1.288,0,2.334,1.045,2.334,2.334c0,1.287-1.046,2.334-2.334,2.334h-1.399l3.271,4.438v0.229"/>
</g>
<g id="mixerwarn">
	<line fill="none" stroke="#FF3A5D" stroke-width="1.5" x1="261.009" y1="55.625" x2="261.009" y2="60.875"/>
	<line fill="none" stroke="#FF3A5D" stroke-width="1.5" x1="261.009" y1="63.514" x2="261.009" y2="63.12"/>
	<path fill="none" stroke="#FF3A5D" stroke-width="1.5" d="M254.62,65.626c-0.925,0-1.302-0.654-0.838-1.453l6.511-11.282
		c0.458-0.797,1.215-0.797,1.675,0l6.515,11.282c0.461,0.799,0.082,1.453-0.838,1.453H254.62z"/>
</g>
<g id="reclevelwarn">
	<line fill="none" stroke="#FF3A5D" stroke-width="1.5" x1="146.096" y1="65.029" x2="146.096" y2="70.28"/>
	<line fill="none" stroke="#FF3A5D" stroke-width="1.5" x1="146.096" y1="72.918" x2="146.096" y2="72.524"/>
	<path fill="none" stroke="#FF3A5D" stroke-width="1.5" d="M139.708,75.03c-0.924,0-1.302-0.654-0.838-1.453l6.511-11.282
		c0.458-0.797,1.215-0.797,1.675,0l6.515,11.282c0.46,0.799,0.082,1.453-0.838,1.453H139.708z"/>
</g>
<g id="eqwarn">
	<line fill="none" stroke="#FF3A5D" stroke-width="1.5" x1="233.432" y1="90.477" x2="233.432" y2="95.727"/>
	<line fill="none" stroke="#FF3A5D" stroke-width="1.5" x1="233.432" y1="98.363" x2="233.432" y2="97.971"/>
	<path fill="none" stroke="#FF3A5D" stroke-width="1.5" d="M227.042,100.477c-0.923,0-1.302-0.646-0.838-1.453l6.511-11.272
		c0.459-0.806,1.217-0.806,1.676,0l6.521,11.272c0.461,0.807,0.082,1.453-0.844,1.453H227.042z"/>
</g>
<g id="drivewarn">
	<line fill="none" stroke="#FF3A5D" stroke-width="1.5" x1="249.086" y1="135.857" x2="249.086" y2="141.107"/>
	<line fill="none" stroke="#FF3A5D" stroke-width="1.5" x1="249.086" y1="143.746" x2="249.086" y2="143.354"/>
	<path fill="none" stroke="#FF3A5D" stroke-width="1.5" d="M242.697,145.857c-0.926,0-1.303-0.653-0.84-1.453l6.512-11.281
		c0.458-0.797,1.216-0.797,1.676,0l6.516,11.281c0.459,0.8,0.08,1.453-0.838,1.453H242.697z"/>
</g>
<g id="instr">
	
		<line fill="none" stroke="#FFFFFF" stroke-width="1.5" stroke-linecap="square" x1="101.306" y1="68.212" x2="83.633" y2="68.212"/>
	<polygon fill="none" stroke="#FFFFFF" stroke-width="1.5" stroke-linecap="square" points="98.505,65.622 98.505,70.955 
		103.139,68.328 	"/>
</g>
<g id="keytoseq">
	
		<line fill="none" stroke="#534468" stroke-width="1.5" stroke-linecap="square" x1="48.435" y1="112.111" x2="65.531" y2="112.111"/>
	<polygon fill="#534468" points="51.235,114.7 51.235,109.368 46.601,111.995 	"/>
</g>
<g id="lfotofx">
	<line fill="none" stroke="#534468" stroke-width="1.5" stroke-linecap="square" x1="62.943" y1="38.705" x2="62.943" y2="54.031"/>
	<polygon fill="#534468" points="65.533,51.231 60.2,51.231 62.828,55.865 	"/>
</g>
<g id="seqtoinstr">
	<line fill="none" stroke="#534468" stroke-width="1.5" stroke-linecap="square" x1="23.476" y1="85.45" x2="23.476" y2="99.443"/>
	<polygon fill="#534468" points="20.886,88.251 26.219,88.251 23.591,83.617 	"/>
</g>
<g id="keytoinstr">
	<polyline fill="none" stroke="#AEB1DC" stroke-width="1.5" points="31.275,85.45 31.275,94.477 79.527,94.477 79.527,99.443 	"/>
	<polygon fill="#AEB1DC" points="28.685,88.251 34.018,88.251 31.391,83.617 	"/>
</g>
<g id="lfotoinstr">
	<polyline fill="none" stroke="#534468" stroke-width="1.5" stroke-linecap="square" points="27.313,54.032 27.313,26.711 
		44.129,26.711 	"/>
	<polygon fill="#534468" points="29.903,51.231 24.57,51.231 27.197,55.865 	"/>
</g>
<line id="tapeinput" fill="none" stroke="#FF3A5D" stroke-width="1.5" stroke-linecap="square" x1="163.055" y1="87.88" x2="163.055" y2="107.809"/>
<g id="tapein4">
	<line fill="none" stroke="#AEB1DC" stroke-width="1.5" x1="239.09" y1="48.32" x2="239.09" y2="35.822"/>
	<polygon fill="#AEB1DC" points="241.68,45.52 236.346,45.52 238.975,50.153 	"/>
</g>
<g id="tapein3">
	<line fill="none" stroke="#AEB1DC" stroke-width="1.5" x1="218.09" y1="49.32" x2="218.09" y2="36.822"/>
	<polygon fill="#AEB1DC" points="220.68,46.52 215.346,46.52 217.975,51.153 	"/>
</g>
<g id="tapein2">
	<line fill="none" stroke="#AEB1DC" stroke-width="1.5" x1="197.09" y1="49.32" x2="197.09" y2="36.822"/>
	<polygon fill="#AEB1DC" points="199.68,46.52 194.346,46.52 196.975,51.153 	"/>
</g>
<g id="tapein1">
	<line fill="none" stroke="#AEB1DC" stroke-width="1.5" x1="173.09" y1="49.32" x2="173.09" y2="36.822"/>
	<polygon fill="#AEB1DC" points="175.68,46.52 170.346,46.52 172.975,51.153 	"/>
</g>
<line id="tapevu4" fill="none" stroke="#FFFFFF" stroke-width="1.5" stroke-linecap="square" x1="239.393" y1="53.626" x2="239.404" y2="62.099"/>
<line id="tapevu3" fill="none" stroke="#FFFFFF" stroke-width="1.5" stroke-linecap="square" x1="218.006" y1="53.813" x2="218.02" y2="62.287"/>
<line id="tapevu2" fill="none" stroke="#FFFFFF" stroke-width="1.5" stroke-linecap="square" x1="196.688" y1="53.75" x2="196.7" y2="62.224"/>
<line id="tapevu1" fill="none" stroke="#FFFFFF" stroke-width="1.5" stroke-linecap="square" x1="173.922" y1="53.793" x2="173.936" y2="62.268"/>
<g id="instrfxon">
	<polyline fill="none" stroke="#00ED95" stroke-width="1.5" stroke-linecap="square" points="52.157,72.4 52.157,63.304 
		61.651,63.304 	"/>
	<line fill="none" stroke="#00ED95" stroke-width="1.5" stroke-linecap="square" x1="52.157" y1="67.944" x2="61.651" y2="67.944"/>
	<polyline fill="none" stroke="#00ED95" stroke-width="1.5" stroke-linecap="square" points="64.138,63.282 64.138,63.681 
		74.131,72 74.131,72.4 	"/>
	<polyline fill="none" stroke="#00ED95" stroke-width="1.5" stroke-linecap="square" points="64.138,72.4 64.138,72.001 
		74.131,63.682 74.131,63.282 	"/>
	<rect x="48.318" y="59.761" fill="none" stroke="#AEB1DC" stroke-width="1.5" width="29.333" height="16"/>
</g>
<g id="instrfxoff">
	<polyline fill="none" stroke="#534468" stroke-width="1.5" stroke-linecap="square" points="51.986,72.343 51.986,63.247 
		61.479,63.247 	"/>
	<line fill="none" stroke="#534468" stroke-width="1.5" stroke-linecap="square" x1="51.986" y1="67.886" x2="61.479" y2="67.886"/>
	<polyline fill="none" stroke="#534468" stroke-width="1.5" stroke-linecap="square" points="63.968,63.224 63.968,63.624 
		73.96,71.942 73.96,72.343 	"/>
	<polyline fill="none" stroke="#534468" stroke-width="1.5" stroke-linecap="square" points="63.968,72.343 63.968,71.943 
		73.96,63.624 73.96,63.224 	"/>
	
		<rect x="48.147" y="59.704" fill="none" stroke="#534468" stroke-width="1.5" stroke-linecap="square" width="29.332" height="16"/>
</g>
<g id="lfoon">
	<polyline fill="none" stroke="#00ED95" stroke-width="1.5" stroke-linecap="square" points="60.182,31.922 60.182,21.255 
		65.514,21.255 	"/>
	<line fill="none" stroke="#00ED95" stroke-width="1.5" stroke-linecap="square" x1="60.182" y1="26.589" x2="64.166" y2="26.589"/>
	<polyline fill="none" stroke="#00ED95" stroke-width="1.5" stroke-linecap="square" points="51.651,21.255 51.651,31.922 
		57.683,31.922 	"/>
	<path fill="none" stroke="#00ED95" stroke-width="1.5" stroke-linecap="square" d="M74.227,24.456c0-1.767-1.432-3.199-3.2-3.199
		h-0.535c-1.766,0-3.2,1.433-3.2,3.199v4.267c0,1.767,1.434,3.2,3.2,3.2h0.535c1.768,0,3.2-1.434,3.2-3.2V24.456z"/>
	<rect x="48.318" y="18.589" fill="none" stroke="#AEB1DC" stroke-width="1.5" width="29.333" height="16"/>
</g>
<g id="lfooff">
	<polyline fill="none" stroke="#534468" stroke-width="1.5" stroke-linecap="square" points="60.471,31.44 60.471,20.773 
		65.803,20.773 	"/>
	<line fill="none" stroke="#534468" stroke-width="1.5" stroke-linecap="square" x1="60.471" y1="26.107" x2="64.455" y2="26.107"/>
	<polyline fill="none" stroke="#534468" stroke-width="1.5" stroke-linecap="square" points="51.939,20.773 51.939,31.44 
		57.973,31.44 	"/>
	<path fill="none" stroke="#534468" stroke-width="1.5" stroke-linecap="square" d="M74.516,23.974c0-1.767-1.432-3.199-3.199-3.199
		h-0.535c-1.766,0-3.2,1.433-3.2,3.199v4.267c0,1.768,1.435,3.2,3.2,3.2h0.535c1.768,0,3.199-1.435,3.199-3.2V23.974z"/>
	
		<rect x="48.607" y="18.107" fill="none" stroke="#534468" stroke-width="1.5" stroke-linecap="square" width="29.332" height="16"/>
</g>
<g id="seqon">
	<path fill="none" stroke="#698EFF" stroke-width="1.5" stroke-linecap="square" d="M21.601,114.189
		c0,0.938-0.767,1.715-1.711,1.715c-0.946,0-1.715-0.771-1.715-1.715c0-0.946,0.768-1.711,1.715-1.711
		C20.833,112.479,21.601,113.248,21.601,114.189"/>
	<path fill="none" stroke="#698EFF" stroke-width="1.5" stroke-linecap="square" d="M26.76,108.814c0,0.94-0.768,1.715-1.711,1.715
		c-0.947,0-1.714-0.771-1.714-1.715c0-0.944,0.767-1.709,1.714-1.709C25.992,107.105,26.76,107.87,26.76,108.814"/>
	<path fill="none" stroke="#698EFF" stroke-width="1.5" stroke-linecap="square" d="M31.921,114.189
		c0,0.938-0.767,1.715-1.713,1.715c-0.945,0-1.713-0.771-1.713-1.715c0-0.946,0.768-1.711,1.713-1.711
		C31.154,112.479,31.921,113.248,31.921,114.189"/>
	<path fill="none" stroke="#698EFF" stroke-width="1.5" stroke-linecap="square" d="M37.082,114.189
		c0,0.938-0.767,1.715-1.711,1.715c-0.946,0-1.715-0.771-1.715-1.715c0-0.946,0.768-1.711,1.715-1.711
		C36.315,112.479,37.082,113.248,37.082,114.189"/>
	<rect x="12.979" y="103.738" fill="none" stroke="#AEB1DC" stroke-width="1.5" width="29.334" height="16"/>
</g>
<g id="seqoff">
	<path fill="none" stroke="#534468" stroke-width="1.5" stroke-linecap="square" d="M21.348,114.416
		c0,0.941-0.768,1.715-1.711,1.715c-0.947,0-1.716-0.77-1.716-1.715s0.769-1.711,1.716-1.711
		C20.579,112.705,21.348,113.475,21.348,114.416"/>
	<path fill="none" stroke="#534468" stroke-width="1.5" stroke-linecap="square" d="M26.506,109.041
		c0,0.945-0.768,1.715-1.711,1.715c-0.947,0-1.714-0.77-1.714-1.715c0-0.943,0.767-1.709,1.714-1.709
		C25.738,107.332,26.506,108.098,26.506,109.041"/>
	<path fill="none" stroke="#534468" stroke-width="1.5" stroke-linecap="square" d="M31.667,114.416
		c0,0.941-0.767,1.715-1.713,1.715c-0.944,0-1.713-0.77-1.713-1.715s0.769-1.711,1.713-1.711
		C30.9,112.705,31.667,113.475,31.667,114.416"/>
	<path fill="none" stroke="#534468" stroke-width="1.5" stroke-linecap="square" d="M36.828,114.416
		c0,0.941-0.768,1.715-1.711,1.715c-0.946,0-1.715-0.77-1.715-1.715s0.768-1.711,1.715-1.711
		C36.061,112.705,36.828,113.475,36.828,114.416"/>
	
		<rect x="12.725" y="103.965" fill="none" stroke="#534468" stroke-width="1.5" stroke-linecap="square" width="29.334" height="16"/>
</g>
<g id="masterfxon">
	<polyline fill="none" stroke="#00ED95" stroke-width="1.5" stroke-linecap="square" points="195.354,125.926 195.354,116.828 
		204.85,116.828 	"/>
	
		<line fill="none" stroke="#00ED95" stroke-width="1.5" stroke-linecap="square" x1="195.354" y1="121.469" x2="204.85" y2="121.469"/>
	<polyline fill="none" stroke="#00ED95" stroke-width="1.5" stroke-linecap="square" points="207.336,116.807 207.336,117.206 
		217.33,125.525 217.33,125.925 	"/>
	<polyline fill="none" stroke="#00ED95" stroke-width="1.5" stroke-linecap="square" points="207.336,125.926 207.336,125.525 
		217.33,117.206 217.33,116.809 	"/>
	<rect x="191.516" y="113.285" fill="none" stroke="#AEB1DC" stroke-width="1.5" width="29.334" height="16"/>
</g>
<g id="masterfxoff">
	<polyline fill="none" stroke="#534468" stroke-width="1.5" stroke-linecap="square" points="195.204,125.665 195.204,116.566 
		204.7,116.566 	"/>
	
		<line fill="none" stroke="#534468" stroke-width="1.5" stroke-linecap="square" x1="195.204" y1="121.208" x2="204.7" y2="121.208"/>
	<polyline fill="none" stroke="#534468" stroke-width="1.5" stroke-linecap="square" points="207.188,116.546 207.188,116.945 
		217.182,125.266 217.182,125.664 	"/>
	<polyline fill="none" stroke="#534468" stroke-width="1.5" stroke-linecap="square" points="207.188,125.665 207.188,125.266 
		217.182,116.945 217.182,116.548 	"/>
	
		<rect x="191.366" y="113.023" fill="none" stroke="#534468" stroke-width="1.5" stroke-linecap="square" width="29.334" height="16"/>
</g>
<g id="keyson">
	<rect x="69.97" y="103.863" fill="none" stroke="#AEB1DC" stroke-width="1.5" width="5.174" height="16"/>
	<rect x="75.144" y="103.863" fill="none" stroke="#AEB1DC" stroke-width="1.5" width="5.174" height="16"/>
	<rect x="80.318" y="103.863" fill="none" stroke="#AEB1DC" stroke-width="1.5" width="5.173" height="16"/>
	<rect x="85.491" y="103.863" fill="none" stroke="#AEB1DC" stroke-width="1.5" width="5.174" height="16"/>
	<rect x="73.418" y="103.865" fill="#AEB1DC" width="3.449" height="9.6"/>
	<rect x="78.593" y="103.865" fill="#AEB1DC" width="3.45" height="9.6"/>
	<rect x="83.766" y="103.865" fill="#AEB1DC" width="3.45" height="9.6"/>
</g>
<g id="keysoff">
	
		<rect x="69.858" y="104.074" fill="none" stroke="#534468" stroke-width="1.5" stroke-linecap="square" width="5.174" height="16"/>
	
		<rect x="75.032" y="104.074" fill="none" stroke="#534468" stroke-width="1.5" stroke-linecap="square" width="5.174" height="16"/>
	
		<rect x="80.206" y="104.074" fill="none" stroke="#534468" stroke-width="1.5" stroke-linecap="square" width="5.173" height="16"/>
	
		<rect x="85.379" y="104.074" fill="none" stroke="#534468" stroke-width="1.5" stroke-linecap="square" width="5.174" height="16"/>
	
		<rect x="73.306" y="104.076" fill="none" stroke="#534468" stroke-width="1.5" stroke-linecap="square" width="3.449" height="9.6"/>
	<rect x="78.48" y="104.076" fill="none" stroke="#534468" stroke-width="1.5" stroke-linecap="square" width="3.45" height="9.6"/>
	
		<rect x="83.653" y="104.076" fill="none" stroke="#534468" stroke-width="1.5" stroke-linecap="square" width="3.45" height="9.6"/>
</g>
<g id="instrrouting">
	<line fill="none" stroke="#AEB1DC" stroke-width="1.5" x1="185.881" y1="97.596" x2="168.238" y2="97.596"/>
	<polygon fill="#AEB1DC" points="183.079,95.02 183.079,100.338 187.713,97.712 	"/>
</g>
<circle id="midiin" fill="none" stroke="#FF3A5D" stroke-width="3" cx="278.76" cy="11" r="1.5"/>
<circle id="midiout" fill="none" stroke="#FF3A5D" stroke-width="3" cx="288.76" cy="11" r="1.5"/>
<circle id="midisyncin" fill="none" stroke="#FF3A5D" stroke-width="3" cx="298.76" cy="11" r="1.5"/>
<circle id="midisyncout" fill="none" stroke="#FF3A5D" stroke-width="3" cx="308.76" cy="11" r="1.5"/>
</svg>
