<?xml version="1.0" encoding="utf-8"?>
<!-- Generator: Adobe Illustrator 14.0.0, SVG Export Plug-In . SVG Version: 6.00 Build 43363)  -->
<!DOCTYPE svg PUBLIC "-//W3C//DTD SVG 1.1//EN" "http://www.w3.org/Graphics/SVG/1.1/DTD/svg11.dtd">
<svg version="1.1" id="Layer_1" xmlns="http://www.w3.org/2000/svg" xmlns:xlink="http://www.w3.org/1999/xlink" x="0px" y="0px"
	 width="320px" height="160px" viewBox="0 0 320 160" enable-background="new 0 0 320 160" xml:space="preserve">
<g id="static">
	
		<line fill="none" stroke="#00475B" stroke-width="1.417" stroke-linecap="square" x1="7.862" y1="58.667" x2="306.404" y2="58.667"/>
	
		<line fill="none" stroke="#00475B" stroke-width="1.417" stroke-linecap="square" x1="7.862" y1="69.333" x2="306.404" y2="69.333"/>
	<line fill="none" stroke="#00475B" stroke-width="1.417" stroke-linecap="square" x1="7.862" y1="80" x2="306.404" y2="80"/>
	
		<line fill="none" stroke="#00475B" stroke-width="1.417" stroke-linecap="square" x1="7.862" y1="90.667" x2="306.404" y2="90.667"/>
	
		<line fill="none" stroke="#00475B" stroke-width="1.417" stroke-linecap="square" x1="7.862" y1="101.333" x2="306.404" y2="101.333"/>
</g>
<g id="length_1_">
	<path fill="none" stroke="#383572" stroke-width="1.417" stroke-linecap="square" d="M54.716,128.855
		c0-1.955-1.587-3.543-3.541-3.543c-1.956,0-3.546,1.588-3.546,3.543l0.003,7.088"/>
	<circle fill="none" stroke="#383572" stroke-width="1.417" stroke-linecap="square" cx="51.173" cy="135.941" r="3.543"/>
	<polyline fill="none" stroke="#383572" stroke-width="1.417" stroke-linecap="square" points="31.942,125.229 31.942,139.4 
		39.519,139.4 	"/>
</g>
<g id="timing">
	<path fill="none" stroke="#698EFF" stroke-width="1.5" stroke-linecap="square" d="M61.942,25.919c0-1.956-1.587-3.543-3.541-3.543
		c-1.956,0-3.546,1.586-3.546,3.542l0.003,7.087"/>
	<circle fill="none" stroke="#698EFF" stroke-width="1.5" stroke-linecap="square" cx="58.399" cy="33.004" r="3.543"/>
	<line fill="none" stroke="#698EFF" stroke-width="1.5" stroke-linecap="square" x1="49.942" y1="22.375" x2="49.942" y2="36.548"/>
	<line fill="none" stroke="#698EFF" stroke-width="1.5" stroke-linecap="square" x1="31.942" y1="22.375" x2="31.942" y2="36.548"/>
	<polyline fill="none" stroke="#698EFF" stroke-width="1.5" stroke-linecap="square" points="38.035,36.546 38.035,35.856 
		44.767,23.083 44.767,22.375 	"/>
</g>
<g id="hold">
	<path fill="none" stroke="#FF3A5D" stroke-width="1.5" stroke-linecap="square" d="M292.055,34.974c1.53,0,2.771-1.241,2.771-2.771
		V26.66c0-1.531-1.24-2.771-2.771-2.771h-2.771v11.085H292.055z"/>
	<path fill="none" stroke="#FF3A5D" stroke-width="1.5" stroke-linecap="square" d="M273.21,26.938v4.988
		c0,1.684,1.364,3.049,3.049,3.049c1.688,0,3.052-1.365,3.052-3.049v-4.988c0-1.684-1.354-3.049-3.052-3.049
		C274.574,23.889,273.21,25.253,273.21,26.938z"/>
	
		<line fill="none" stroke="#FF3A5D" stroke-width="1.5" stroke-linecap="square" x1="264.896" y1="23.889" x2="264.896" y2="34.975"/>
	
		<line fill="none" stroke="#FF3A5D" stroke-width="1.5" stroke-linecap="square" x1="270.438" y1="23.889" x2="270.438" y2="34.975"/>
	
		<line fill="none" stroke="#FF3A5D" stroke-width="1.5" stroke-linecap="square" x1="264.896" y1="29.432" x2="270.438" y2="29.432"/>
	<polyline fill="none" stroke="#FF3A5D" stroke-width="1.5" stroke-linecap="square" points="282.077,23.889 282.077,34.974 
		287.064,34.974 	"/>
	
		<rect x="260.463" y="20.563" fill="none" stroke="#FF3A5D" stroke-width="1.5" stroke-linecap="square" width="38.796" height="17.735"/>
</g>
<g id="octave">
	<path fill="none" stroke="#00ED95" stroke-width="1.417" stroke-linecap="square" d="M133.856,33.002
		c0,1.95-1.583,3.531-3.53,3.531c-1.95,0-3.531-1.581-3.531-3.531V25.94c0.001-1.95,1.581-3.53,3.531-3.53
		c1.947,0,3.53,1.58,3.53,3.53"/>
	<polyline fill="none" stroke="#00ED95" stroke-width="1.417" stroke-linecap="square" points="143.82,36.533 137.464,36.533 
		137.464,22.41 143.82,22.41 	"/>
	
		<line fill="none" stroke="#00ED95" stroke-width="1.417" stroke-linecap="square" x1="137.464" y1="29.47" x2="143.114" y2="29.471"/>
	<polyline fill="none" stroke="#00ED95" stroke-width="1.417" stroke-linecap="square" points="115.946,36.481 115.946,22.359 
		116.651,22.36 122.3,36.482 123.007,36.482 123.007,22.36 	"/>
	<path fill="none" stroke="#00ED95" stroke-width="1.417" stroke-linecap="square" d="M104.158,26.293v6.355
		c0,2.144,1.735,3.884,3.884,3.884c2.143,0,3.884-1.739,3.884-3.884v-6.355c0-2.144-1.739-3.884-3.884-3.884
		C105.894,22.41,104.158,24.148,104.158,26.293z"/>
</g>
<g id="swing">
	<path fill="none" stroke="#512132" stroke-width="1.417" stroke-linecap="square" d="M283.98,135.941
		c0,1.957-1.588,3.543-3.545,3.543c-1.955,0-3.547-1.586-3.547-3.543v-7.086c0-1.957,1.59-3.543,3.547-3.543
		c1.953,0,3.545,1.586,3.545,3.543V135.941z"/>
	<path fill="none" stroke="#512132" stroke-width="1.417" stroke-linecap="square" d="M274.027,125.312h-7.088v10.629
		c0-1.957,1.588-3.543,3.543-3.543c1.957,0,3.545,1.586,3.545,3.543c0,1.955-1.588,3.543-3.545,3.543h-3.541"/>
	<polyline fill="none" stroke="#512132" stroke-width="1.417" stroke-linecap="square" points="289.873,139.555 289.873,138.863 
		296.605,126.09 296.652,125.383 	"/>
	<path fill="none" stroke="#512132" stroke-width="1.417" stroke-linecap="square" d="M298.314,137.727
		c0,0.979-0.793,1.771-1.771,1.771s-1.773-0.792-1.773-1.771v-2.479c0-0.979,0.791-1.771,1.773-1.771
		c0.979,0,1.771,0.793,1.771,1.771V137.727z"/>
	<path fill="none" stroke="#512132" stroke-width="1.417" stroke-linecap="square" d="M291.809,129.498
		c0,0.979-0.795,1.771-1.771,1.771c-0.979,0-1.772-0.793-1.772-1.771v-2.48c0-0.979,0.791-1.771,1.772-1.771
		c0.979,0,1.771,0.793,1.771,1.771V129.498z"/>
</g>
<g id="octavepattern">
	<path fill="none" stroke="#00475B" stroke-width="1.417" stroke-linecap="square" d="M120.532,136.717v-8.503h1.7
		c1.174,0,2.126,0.952,2.126,2.126s-0.949,2.127-2.125,2.127h-1.701"/>
	
		<line fill="none" stroke="#00475B" stroke-width="1.417" stroke-linecap="square" x1="109.248" y1="128.215" x2="109.248" y2="136.719"/>
	
		<line fill="none" stroke="#00475B" stroke-width="1.417" stroke-linecap="square" x1="106.698" y1="128.215" x2="111.799" y2="128.215"/>
	
		<line fill="none" stroke="#00475B" stroke-width="1.417" stroke-linecap="square" x1="126.498" y1="132.465" x2="129.9" y2="132.467"/>
	<polyline fill="none" stroke="#00475B" stroke-width="1.417" stroke-linecap="square" points="114.059,128.215 114.059,128.639 
		116.185,132.891 118.311,128.639 118.311,128.215 	"/>
	<polyline fill="none" stroke="#00475B" stroke-width="1.417" stroke-linecap="square" points="130.325,136.719 126.498,136.719 
		126.498,128.215 130.325,128.215 	"/>
	
		<line fill="none" stroke="#00475B" stroke-width="1.417" stroke-linecap="square" x1="116.185" y1="132.891" x2="116.185" y2="136.717"/>
	<path fill="none" stroke="#00475B" stroke-width="1.417" stroke-linecap="square" d="M134.766,128.215h4.252v0.426l-2.126,3.612
		v0.214c1.173,0,2.126,0.951,2.126,2.125s-0.953,2.127-2.126,2.127c-1.174,0-2.126-0.953-2.126-2.127v-0.213"/>
</g>
<g id="op">
	
		<rect x="101.014" y="122.633" fill="none" stroke="#00475B" stroke-width="1.417" stroke-linecap="square" width="45.799" height="18.734"/>
</g>
<g id="pause">
	
		<line fill="none" stroke="#AEB1DC" stroke-width="2" stroke-linecap="square" x1="201.048" y1="139.486" x2="201.048" y2="125.312"/>
	
		<line fill="none" stroke="#AEB1DC" stroke-width="2" stroke-linecap="square" x1="206.227" y1="139.486" x2="206.227" y2="125.312"/>
</g>
<g id="skip">
	
		<line fill="none" stroke="#AEB1DC" stroke-width="2" stroke-linecap="square" x1="210.082" y1="132.398" x2="195.909" y2="132.398"/>
	
		<line fill="none" stroke="#AEB1DC" stroke-width="2" stroke-linecap="square" x1="205.795" y1="137.35" x2="210.744" y2="132.398"/>
	
		<line fill="none" stroke="#AEB1DC" stroke-width="2" stroke-linecap="square" x1="210.745" y1="132.23" x2="205.795" y2="127.281"/>
</g>
<path id="p3" fill="#FFFFFF" d="M227.745,29.472c0,1.957-1.587,3.543-3.545,3.543c-1.956,0-3.545-1.586-3.545-3.543
	s1.589-3.543,3.545-3.543C226.158,25.929,227.745,27.515,227.745,29.472"/>
<path id="p2" fill="#FFFFFF" d="M214.745,29.472c0,1.957-1.588,3.543-3.545,3.543c-1.955,0-3.545-1.586-3.545-3.543
	s1.59-3.543,3.545-3.543C213.157,25.929,214.745,27.515,214.745,29.472"/>
<path id="p1" fill="#373672" d="M201.745,29.472c0,1.957-1.587,3.543-3.544,3.543c-1.955,0-3.547-1.586-3.547-3.543
	s1.592-3.543,3.547-3.543C200.158,25.929,201.745,27.515,201.745,29.472"/>
<path id="p0" fill="#FFFFFF" d="M188.745,29.472c0,1.957-1.588,3.543-3.545,3.543c-1.955,0-3.545-1.586-3.545-3.543
	s1.59-3.543,3.545-3.543C187.159,25.929,188.745,27.515,188.745,29.472"/>
<line id="a3" fill="none" stroke="#373672" stroke-width="2" stroke-linecap="square" x1="219.7" y1="29.472" x2="228.7" y2="29.472"/>
<line id="a2" fill="none" stroke="#373672" stroke-width="2" stroke-linecap="square" x1="206.7" y1="29.472" x2="215.7" y2="29.472"/>
<line id="a1" fill="none" stroke="#373672" stroke-width="2" stroke-linecap="square" x1="193.7" y1="29.472" x2="202.7" y2="29.472"/>
<line id="a0" fill="none" stroke="#373672" stroke-width="2" stroke-linecap="square" x1="180.7" y1="29.472" x2="189.7" y2="29.472"/>
<g id="n31">
	
		<line fill="none" stroke="#FFFFFF" stroke-width="1.5" stroke-linecap="square" x1="304.577" y1="95.54" x2="304.577" y2="84.628"/>
	<path fill="#FFFFFF" d="M304.577,96.041c0,1.381-1.119,2.5-2.5,2.5s-2.5-1.119-2.5-2.5s1.119-2.5,2.5-2.5
		S304.577,94.66,304.577,96.041"/>
	<circle fill="none" stroke="#FFFFFF" stroke-width="1.5" stroke-linecap="square" cx="302.077" cy="96.041" r="2.5"/>
</g>
<g id="n30">
	
		<line fill="none" stroke="#FFFFFF" stroke-width="1.5" stroke-linecap="square" x1="304.577" y1="95.54" x2="304.577" y2="84.628"/>
	<path fill="#FFFFFF" d="M304.577,96.041c0,1.381-1.119,2.5-2.5,2.5s-2.5-1.119-2.5-2.5s1.119-2.5,2.5-2.5
		S304.577,94.66,304.577,96.041"/>
	<circle fill="none" stroke="#FFFFFF" stroke-width="1.5" stroke-linecap="square" cx="302.077" cy="96.041" r="2.5"/>
</g>
<g id="n29">
	
		<line fill="none" stroke="#FFFFFF" stroke-width="1.5" stroke-linecap="square" x1="304.577" y1="95.54" x2="304.577" y2="84.628"/>
	<path fill="#FFFFFF" d="M304.577,96.041c0,1.381-1.119,2.5-2.5,2.5s-2.5-1.119-2.5-2.5s1.119-2.5,2.5-2.5
		S304.577,94.66,304.577,96.041"/>
	<circle fill="none" stroke="#FFFFFF" stroke-width="1.5" stroke-linecap="square" cx="302.077" cy="96.041" r="2.5"/>
</g>
<g id="n28">
	
		<line fill="none" stroke="#FFFFFF" stroke-width="1.5" stroke-linecap="square" x1="304.577" y1="95.54" x2="304.577" y2="84.628"/>
	<path fill="#FFFFFF" d="M304.577,96.041c0,1.381-1.119,2.5-2.5,2.5s-2.5-1.119-2.5-2.5s1.119-2.5,2.5-2.5
		S304.577,94.66,304.577,96.041"/>
	<circle fill="none" stroke="#FFFFFF" stroke-width="1.5" stroke-linecap="square" cx="302.077" cy="96.041" r="2.5"/>
</g>
<g id="n27">
	
		<line fill="none" stroke="#FFFFFF" stroke-width="1.5" stroke-linecap="square" x1="304.577" y1="95.54" x2="304.577" y2="84.628"/>
	<path fill="#FFFFFF" d="M304.577,96.041c0,1.381-1.119,2.5-2.5,2.5s-2.5-1.119-2.5-2.5s1.119-2.5,2.5-2.5
		S304.577,94.66,304.577,96.041"/>
	<circle fill="none" stroke="#FFFFFF" stroke-width="1.5" stroke-linecap="square" cx="302.077" cy="96.041" r="2.5"/>
</g>
<g id="n26">
	
		<line fill="none" stroke="#FFFFFF" stroke-width="1.5" stroke-linecap="square" x1="304.577" y1="95.54" x2="304.577" y2="84.628"/>
	<path fill="#FFFFFF" d="M304.577,96.041c0,1.381-1.119,2.5-2.5,2.5s-2.5-1.119-2.5-2.5s1.119-2.5,2.5-2.5
		S304.577,94.66,304.577,96.041"/>
	<circle fill="none" stroke="#FFFFFF" stroke-width="1.5" stroke-linecap="square" cx="302.077" cy="96.041" r="2.5"/>
</g>
<g id="n25">
	
		<line fill="none" stroke="#FFFFFF" stroke-width="1.5" stroke-linecap="square" x1="304.577" y1="95.54" x2="304.577" y2="84.628"/>
	<path fill="#FFFFFF" d="M304.577,96.041c0,1.381-1.119,2.5-2.5,2.5s-2.5-1.119-2.5-2.5s1.119-2.5,2.5-2.5
		S304.577,94.66,304.577,96.041"/>
	<circle fill="none" stroke="#FFFFFF" stroke-width="1.5" stroke-linecap="square" cx="302.077" cy="96.041" r="2.5"/>
</g>
<g id="n24">
	
		<line fill="none" stroke="#FFFFFF" stroke-width="1.5" stroke-linecap="square" x1="304.577" y1="95.54" x2="304.577" y2="84.628"/>
	<path fill="#FFFFFF" d="M304.577,96.041c0,1.381-1.119,2.5-2.5,2.5s-2.5-1.119-2.5-2.5s1.119-2.5,2.5-2.5
		S304.577,94.66,304.577,96.041"/>
	<circle fill="none" stroke="#FFFFFF" stroke-width="1.5" stroke-linecap="square" cx="302.077" cy="96.041" r="2.5"/>
</g>
<g id="n23">
	
		<line fill="none" stroke="#FFFFFF" stroke-width="1.5" stroke-linecap="square" x1="304.577" y1="95.54" x2="304.577" y2="84.628"/>
	<path fill="#FFFFFF" d="M304.577,96.041c0,1.381-1.119,2.5-2.5,2.5s-2.5-1.119-2.5-2.5s1.119-2.5,2.5-2.5
		S304.577,94.66,304.577,96.041"/>
	<circle fill="none" stroke="#FFFFFF" stroke-width="1.5" stroke-linecap="square" cx="302.077" cy="96.041" r="2.5"/>
</g>
<g id="n22">
	
		<line fill="none" stroke="#FFFFFF" stroke-width="1.5" stroke-linecap="square" x1="304.577" y1="95.54" x2="304.577" y2="84.628"/>
	<path fill="#FFFFFF" d="M304.577,96.041c0,1.381-1.119,2.5-2.5,2.5s-2.5-1.119-2.5-2.5s1.119-2.5,2.5-2.5
		S304.577,94.66,304.577,96.041"/>
	<circle fill="none" stroke="#FFFFFF" stroke-width="1.5" stroke-linecap="square" cx="302.077" cy="96.041" r="2.5"/>
</g>
<g id="n21">
	
		<line fill="none" stroke="#FFFFFF" stroke-width="1.5" stroke-linecap="square" x1="304.577" y1="95.54" x2="304.577" y2="84.628"/>
	<path fill="#FFFFFF" d="M304.577,96.041c0,1.381-1.119,2.5-2.5,2.5s-2.5-1.119-2.5-2.5s1.119-2.5,2.5-2.5
		S304.577,94.66,304.577,96.041"/>
	<circle fill="none" stroke="#FFFFFF" stroke-width="1.5" stroke-linecap="square" cx="302.077" cy="96.041" r="2.5"/>
</g>
<g id="n20">
	
		<line fill="none" stroke="#FFFFFF" stroke-width="1.5" stroke-linecap="square" x1="304.577" y1="95.54" x2="304.577" y2="84.628"/>
	<path fill="#FFFFFF" d="M304.577,96.041c0,1.381-1.119,2.5-2.5,2.5s-2.5-1.119-2.5-2.5s1.119-2.5,2.5-2.5
		S304.577,94.66,304.577,96.041"/>
	<circle fill="none" stroke="#FFFFFF" stroke-width="1.5" stroke-linecap="square" cx="302.077" cy="96.041" r="2.5"/>
</g>
<g id="n19">
	
		<line fill="none" stroke="#FFFFFF" stroke-width="1.5" stroke-linecap="square" x1="304.577" y1="95.54" x2="304.577" y2="84.628"/>
	<path fill="#FFFFFF" d="M304.577,96.041c0,1.381-1.119,2.5-2.5,2.5s-2.5-1.119-2.5-2.5s1.119-2.5,2.5-2.5
		S304.577,94.66,304.577,96.041"/>
	<circle fill="none" stroke="#FFFFFF" stroke-width="1.5" stroke-linecap="square" cx="302.077" cy="96.041" r="2.5"/>
</g>
<g id="n18">
	
		<line fill="none" stroke="#FFFFFF" stroke-width="1.5" stroke-linecap="square" x1="304.577" y1="95.54" x2="304.577" y2="84.628"/>
	<path fill="#FFFFFF" d="M304.577,96.041c0,1.381-1.119,2.5-2.5,2.5s-2.5-1.119-2.5-2.5s1.119-2.5,2.5-2.5
		S304.577,94.66,304.577,96.041"/>
	<circle fill="none" stroke="#FFFFFF" stroke-width="1.5" stroke-linecap="square" cx="302.077" cy="96.041" r="2.5"/>
</g>
<g id="n17">
	
		<line fill="none" stroke="#FFFFFF" stroke-width="1.5" stroke-linecap="square" x1="304.577" y1="95.54" x2="304.577" y2="84.628"/>
	<path fill="#FFFFFF" d="M304.577,96.041c0,1.381-1.119,2.5-2.5,2.5s-2.5-1.119-2.5-2.5s1.119-2.5,2.5-2.5
		S304.577,94.66,304.577,96.041"/>
	<circle fill="none" stroke="#FFFFFF" stroke-width="1.5" stroke-linecap="square" cx="302.077" cy="96.041" r="2.5"/>
</g>
<g id="n16">
	
		<line fill="none" stroke="#FFFFFF" stroke-width="1.5" stroke-linecap="square" x1="304.577" y1="95.54" x2="304.577" y2="84.628"/>
	<path fill="#FFFFFF" d="M304.577,96.041c0,1.381-1.119,2.5-2.5,2.5s-2.5-1.119-2.5-2.5s1.119-2.5,2.5-2.5
		S304.577,94.66,304.577,96.041"/>
	<circle fill="none" stroke="#FFFFFF" stroke-width="1.5" stroke-linecap="square" cx="302.077" cy="96.041" r="2.5"/>
</g>
<g id="n15">
	
		<line fill="none" stroke="#FFFFFF" stroke-width="1.5" stroke-linecap="square" x1="304.577" y1="95.54" x2="304.577" y2="84.628"/>
	<path fill="#FFFFFF" d="M304.577,96.041c0,1.381-1.119,2.5-2.5,2.5s-2.5-1.119-2.5-2.5s1.119-2.5,2.5-2.5
		S304.577,94.66,304.577,96.041"/>
	<circle fill="none" stroke="#FFFFFF" stroke-width="1.5" stroke-linecap="square" cx="302.077" cy="96.041" r="2.5"/>
</g>
<g id="n14_1_">
	
		<line fill="none" stroke="#FFFFFF" stroke-width="1.5" stroke-linecap="square" x1="304.577" y1="95.54" x2="304.577" y2="84.628"/>
	<path fill="#FFFFFF" d="M304.577,96.041c0,1.381-1.119,2.5-2.5,2.5s-2.5-1.119-2.5-2.5s1.119-2.5,2.5-2.5
		S304.577,94.66,304.577,96.041"/>
	<circle fill="none" stroke="#FFFFFF" stroke-width="1.5" stroke-linecap="square" cx="302.077" cy="96.041" r="2.5"/>
</g>
<g id="n13_1_">
	
		<line fill="none" stroke="#FFFFFF" stroke-width="1.5" stroke-linecap="square" x1="304.577" y1="95.54" x2="304.577" y2="84.628"/>
	<path fill="#FFFFFF" d="M304.577,96.041c0,1.381-1.119,2.5-2.5,2.5s-2.5-1.119-2.5-2.5s1.119-2.5,2.5-2.5
		S304.577,94.66,304.577,96.041"/>
	<circle fill="none" stroke="#FFFFFF" stroke-width="1.5" stroke-linecap="square" cx="302.077" cy="96.041" r="2.5"/>
</g>
<g id="n12_1_">
	
		<line fill="none" stroke="#FFFFFF" stroke-width="1.5" stroke-linecap="square" x1="304.577" y1="95.54" x2="304.577" y2="84.628"/>
	<path fill="#FFFFFF" d="M304.577,96.041c0,1.381-1.119,2.5-2.5,2.5s-2.5-1.119-2.5-2.5s1.119-2.5,2.5-2.5
		S304.577,94.66,304.577,96.041"/>
	<circle fill="none" stroke="#FFFFFF" stroke-width="1.5" stroke-linecap="square" cx="302.077" cy="96.041" r="2.5"/>
</g>
<g id="n11_1_">
	
		<line fill="none" stroke="#FFFFFF" stroke-width="1.5" stroke-linecap="square" x1="304.577" y1="95.54" x2="304.577" y2="84.628"/>
	<path fill="#FFFFFF" d="M304.577,96.041c0,1.381-1.119,2.5-2.5,2.5s-2.5-1.119-2.5-2.5s1.119-2.5,2.5-2.5
		S304.577,94.66,304.577,96.041"/>
	<circle fill="none" stroke="#FFFFFF" stroke-width="1.5" stroke-linecap="square" cx="302.077" cy="96.041" r="2.5"/>
</g>
<g id="n10">
	
		<line fill="none" stroke="#FFFFFF" stroke-width="1.5" stroke-linecap="square" x1="304.577" y1="95.54" x2="304.577" y2="84.628"/>
	<path fill="#FFFFFF" d="M304.577,96.041c0,1.381-1.119,2.5-2.5,2.5s-2.5-1.119-2.5-2.5s1.119-2.5,2.5-2.5
		S304.577,94.66,304.577,96.041"/>
	<circle fill="none" stroke="#FFFFFF" stroke-width="1.5" stroke-linecap="square" cx="302.077" cy="96.041" r="2.5"/>
</g>
<g id="n9_1_">
	
		<line fill="none" stroke="#FFFFFF" stroke-width="1.5" stroke-linecap="square" x1="304.577" y1="95.54" x2="304.577" y2="84.628"/>
	<path fill="#FFFFFF" d="M304.577,96.041c0,1.381-1.119,2.5-2.5,2.5s-2.5-1.119-2.5-2.5s1.119-2.5,2.5-2.5
		S304.577,94.66,304.577,96.041"/>
	<circle fill="none" stroke="#FFFFFF" stroke-width="1.5" stroke-linecap="square" cx="302.077" cy="96.041" r="2.5"/>
</g>
<g id="n8_1_">
	
		<line fill="none" stroke="#FFFFFF" stroke-width="1.5" stroke-linecap="square" x1="304.577" y1="95.54" x2="304.577" y2="84.628"/>
	<path fill="#FFFFFF" d="M304.577,96.041c0,1.381-1.119,2.5-2.5,2.5s-2.5-1.119-2.5-2.5s1.119-2.5,2.5-2.5
		S304.577,94.66,304.577,96.041"/>
	<circle fill="none" stroke="#FFFFFF" stroke-width="1.5" stroke-linecap="square" cx="302.077" cy="96.041" r="2.5"/>
</g>
<g id="n7_1_">
	
		<line fill="none" stroke="#FFFFFF" stroke-width="1.5" stroke-linecap="square" x1="304.577" y1="95.54" x2="304.577" y2="84.628"/>
	<path fill="#FFFFFF" d="M304.577,96.041c0,1.381-1.119,2.5-2.5,2.5s-2.5-1.119-2.5-2.5s1.119-2.5,2.5-2.5
		S304.577,94.66,304.577,96.041"/>
	<circle fill="none" stroke="#FFFFFF" stroke-width="1.5" stroke-linecap="square" cx="302.077" cy="96.041" r="2.5"/>
</g>
<g id="n6_1_">
	
		<line fill="none" stroke="#FFFFFF" stroke-width="1.5" stroke-linecap="square" x1="304.577" y1="95.54" x2="304.577" y2="84.628"/>
	<path fill="#FFFFFF" d="M304.577,96.041c0,1.381-1.119,2.5-2.5,2.5s-2.5-1.119-2.5-2.5s1.119-2.5,2.5-2.5
		S304.577,94.66,304.577,96.041"/>
	<circle fill="none" stroke="#FFFFFF" stroke-width="1.5" stroke-linecap="square" cx="302.077" cy="96.041" r="2.5"/>
</g>
<g id="n5_1_">
	
		<line fill="none" stroke="#FFFFFF" stroke-width="1.5" stroke-linecap="square" x1="304.577" y1="95.54" x2="304.577" y2="84.628"/>
	<path fill="#FFFFFF" d="M304.577,96.041c0,1.381-1.119,2.5-2.5,2.5s-2.5-1.119-2.5-2.5s1.119-2.5,2.5-2.5
		S304.577,94.66,304.577,96.041"/>
	<circle fill="none" stroke="#FFFFFF" stroke-width="1.5" stroke-linecap="square" cx="302.077" cy="96.041" r="2.5"/>
</g>
<g id="n4_1_">
	
		<line fill="none" stroke="#FFFFFF" stroke-width="1.5" stroke-linecap="square" x1="304.577" y1="95.54" x2="304.577" y2="84.628"/>
	<path fill="#FFFFFF" d="M304.577,96.041c0,1.381-1.119,2.5-2.5,2.5s-2.5-1.119-2.5-2.5s1.119-2.5,2.5-2.5
		S304.577,94.66,304.577,96.041"/>
	<circle fill="none" stroke="#FFFFFF" stroke-width="1.5" stroke-linecap="square" cx="302.077" cy="96.041" r="2.5"/>
</g>
<g id="n3_1_">
	
		<line fill="none" stroke="#FFFFFF" stroke-width="1.5" stroke-linecap="square" x1="304.577" y1="95.54" x2="304.577" y2="84.628"/>
	<path fill="#FFFFFF" d="M304.577,96.041c0,1.381-1.119,2.5-2.5,2.5s-2.5-1.119-2.5-2.5s1.119-2.5,2.5-2.5
		S304.577,94.66,304.577,96.041"/>
	<circle fill="none" stroke="#FFFFFF" stroke-width="1.5" stroke-linecap="square" cx="302.077" cy="96.041" r="2.5"/>
</g>
<g id="n2_1_">
	
		<line fill="none" stroke="#FFFFFF" stroke-width="1.5" stroke-linecap="square" x1="304.577" y1="95.54" x2="304.577" y2="84.628"/>
	<path fill="#FFFFFF" d="M304.577,96.041c0,1.381-1.119,2.5-2.5,2.5s-2.5-1.119-2.5-2.5s1.119-2.5,2.5-2.5
		S304.577,94.66,304.577,96.041"/>
	<circle fill="none" stroke="#FFFFFF" stroke-width="1.5" stroke-linecap="square" cx="302.077" cy="96.041" r="2.5"/>
</g>
<g id="n1">
	
		<line fill="none" stroke="#FFFFFF" stroke-width="1.5" stroke-linecap="square" x1="304.577" y1="95.54" x2="304.577" y2="84.628"/>
	<path fill="#FFFFFF" d="M304.577,96.041c0,1.381-1.119,2.5-2.5,2.5s-2.5-1.119-2.5-2.5s1.119-2.5,2.5-2.5
		S304.577,94.66,304.577,96.041"/>
	<circle fill="none" stroke="#FFFFFF" stroke-width="1.5" stroke-linecap="square" cx="302.077" cy="96.041" r="2.5"/>
</g>
<g id="n0_1_">
	
		<line fill="none" stroke="#FFFFFF" stroke-width="1.5" stroke-linecap="square" x1="304.577" y1="95.54" x2="304.577" y2="84.628"/>
	<path fill="#FFFFFF" d="M304.577,96.041c0,1.381-1.119,2.5-2.5,2.5s-2.5-1.119-2.5-2.5s1.119-2.5,2.5-2.5
		S304.577,94.66,304.577,96.041"/>
	<circle fill="none" stroke="#FFFFFF" stroke-width="1.5" stroke-linecap="square" cx="302.077" cy="96.041" r="2.5"/>
</g>
<g id="s31">
	
		<line fill="none" stroke="#FFFFFF" stroke-width="1.5" stroke-linecap="square" x1="287.615" y1="97.947" x2="295.213" y2="97.947"/>
	
		<line fill="none" stroke="#FFFFFF" stroke-width="1.5" stroke-linecap="square" x1="287.615" y1="94.135" x2="295.213" y2="94.135"/>
	
		<line fill="none" stroke="#FFFFFF" stroke-width="1.5" stroke-linecap="square" x1="289.508" y1="92.242" x2="289.508" y2="99.84"/>
	<line fill="none" stroke="#FFFFFF" stroke-width="1.5" stroke-linecap="square" x1="293.32" y1="92.242" x2="293.32" y2="99.84"/>
</g>
<g id="s30">
	
		<line fill="none" stroke="#FFFFFF" stroke-width="1.5" stroke-linecap="square" x1="287.615" y1="97.947" x2="295.213" y2="97.947"/>
	
		<line fill="none" stroke="#FFFFFF" stroke-width="1.5" stroke-linecap="square" x1="287.615" y1="94.135" x2="295.213" y2="94.135"/>
	
		<line fill="none" stroke="#FFFFFF" stroke-width="1.5" stroke-linecap="square" x1="289.508" y1="92.242" x2="289.508" y2="99.84"/>
	<line fill="none" stroke="#FFFFFF" stroke-width="1.5" stroke-linecap="square" x1="293.32" y1="92.242" x2="293.32" y2="99.84"/>
</g>
<g id="s29">
	
		<line fill="none" stroke="#FFFFFF" stroke-width="1.5" stroke-linecap="square" x1="287.615" y1="97.947" x2="295.213" y2="97.947"/>
	
		<line fill="none" stroke="#FFFFFF" stroke-width="1.5" stroke-linecap="square" x1="287.615" y1="94.135" x2="295.213" y2="94.135"/>
	
		<line fill="none" stroke="#FFFFFF" stroke-width="1.5" stroke-linecap="square" x1="289.508" y1="92.242" x2="289.508" y2="99.84"/>
	<line fill="none" stroke="#FFFFFF" stroke-width="1.5" stroke-linecap="square" x1="293.32" y1="92.242" x2="293.32" y2="99.84"/>
</g>
<g id="s28">
	
		<line fill="none" stroke="#FFFFFF" stroke-width="1.5" stroke-linecap="square" x1="287.615" y1="97.947" x2="295.213" y2="97.947"/>
	
		<line fill="none" stroke="#FFFFFF" stroke-width="1.5" stroke-linecap="square" x1="287.615" y1="94.135" x2="295.213" y2="94.135"/>
	
		<line fill="none" stroke="#FFFFFF" stroke-width="1.5" stroke-linecap="square" x1="289.508" y1="92.242" x2="289.508" y2="99.84"/>
	<line fill="none" stroke="#FFFFFF" stroke-width="1.5" stroke-linecap="square" x1="293.32" y1="92.242" x2="293.32" y2="99.84"/>
</g>
<g id="s27">
	
		<line fill="none" stroke="#FFFFFF" stroke-width="1.5" stroke-linecap="square" x1="287.615" y1="97.947" x2="295.213" y2="97.947"/>
	
		<line fill="none" stroke="#FFFFFF" stroke-width="1.5" stroke-linecap="square" x1="287.615" y1="94.135" x2="295.213" y2="94.135"/>
	
		<line fill="none" stroke="#FFFFFF" stroke-width="1.5" stroke-linecap="square" x1="289.508" y1="92.242" x2="289.508" y2="99.84"/>
	<line fill="none" stroke="#FFFFFF" stroke-width="1.5" stroke-linecap="square" x1="293.32" y1="92.242" x2="293.32" y2="99.84"/>
</g>
<g id="s26">
	
		<line fill="none" stroke="#FFFFFF" stroke-width="1.5" stroke-linecap="square" x1="287.615" y1="97.947" x2="295.213" y2="97.947"/>
	
		<line fill="none" stroke="#FFFFFF" stroke-width="1.5" stroke-linecap="square" x1="287.615" y1="94.135" x2="295.213" y2="94.135"/>
	
		<line fill="none" stroke="#FFFFFF" stroke-width="1.5" stroke-linecap="square" x1="289.508" y1="92.242" x2="289.508" y2="99.84"/>
	<line fill="none" stroke="#FFFFFF" stroke-width="1.5" stroke-linecap="square" x1="293.32" y1="92.242" x2="293.32" y2="99.84"/>
</g>
<g id="s25">
	
		<line fill="none" stroke="#FFFFFF" stroke-width="1.5" stroke-linecap="square" x1="287.615" y1="97.947" x2="295.213" y2="97.947"/>
	
		<line fill="none" stroke="#FFFFFF" stroke-width="1.5" stroke-linecap="square" x1="287.615" y1="94.135" x2="295.213" y2="94.135"/>
	
		<line fill="none" stroke="#FFFFFF" stroke-width="1.5" stroke-linecap="square" x1="289.508" y1="92.242" x2="289.508" y2="99.84"/>
	<line fill="none" stroke="#FFFFFF" stroke-width="1.5" stroke-linecap="square" x1="293.32" y1="92.242" x2="293.32" y2="99.84"/>
</g>
<g id="s24">
	
		<line fill="none" stroke="#FFFFFF" stroke-width="1.5" stroke-linecap="square" x1="287.615" y1="97.947" x2="295.213" y2="97.947"/>
	
		<line fill="none" stroke="#FFFFFF" stroke-width="1.5" stroke-linecap="square" x1="287.615" y1="94.135" x2="295.213" y2="94.135"/>
	
		<line fill="none" stroke="#FFFFFF" stroke-width="1.5" stroke-linecap="square" x1="289.508" y1="92.242" x2="289.508" y2="99.84"/>
	<line fill="none" stroke="#FFFFFF" stroke-width="1.5" stroke-linecap="square" x1="293.32" y1="92.242" x2="293.32" y2="99.84"/>
</g>
<g id="s23">
	
		<line fill="none" stroke="#FFFFFF" stroke-width="1.5" stroke-linecap="square" x1="287.615" y1="97.947" x2="295.213" y2="97.947"/>
	
		<line fill="none" stroke="#FFFFFF" stroke-width="1.5" stroke-linecap="square" x1="287.615" y1="94.135" x2="295.213" y2="94.135"/>
	
		<line fill="none" stroke="#FFFFFF" stroke-width="1.5" stroke-linecap="square" x1="289.508" y1="92.242" x2="289.508" y2="99.84"/>
	<line fill="none" stroke="#FFFFFF" stroke-width="1.5" stroke-linecap="square" x1="293.32" y1="92.242" x2="293.32" y2="99.84"/>
</g>
<g id="s22">
	
		<line fill="none" stroke="#FFFFFF" stroke-width="1.5" stroke-linecap="square" x1="287.615" y1="97.947" x2="295.213" y2="97.947"/>
	
		<line fill="none" stroke="#FFFFFF" stroke-width="1.5" stroke-linecap="square" x1="287.615" y1="94.135" x2="295.213" y2="94.135"/>
	
		<line fill="none" stroke="#FFFFFF" stroke-width="1.5" stroke-linecap="square" x1="289.508" y1="92.242" x2="289.508" y2="99.84"/>
	<line fill="none" stroke="#FFFFFF" stroke-width="1.5" stroke-linecap="square" x1="293.32" y1="92.242" x2="293.32" y2="99.84"/>
</g>
<g id="s21">
	
		<line fill="none" stroke="#FFFFFF" stroke-width="1.5" stroke-linecap="square" x1="287.615" y1="97.947" x2="295.213" y2="97.947"/>
	
		<line fill="none" stroke="#FFFFFF" stroke-width="1.5" stroke-linecap="square" x1="287.615" y1="94.135" x2="295.213" y2="94.135"/>
	
		<line fill="none" stroke="#FFFFFF" stroke-width="1.5" stroke-linecap="square" x1="289.508" y1="92.242" x2="289.508" y2="99.84"/>
	<line fill="none" stroke="#FFFFFF" stroke-width="1.5" stroke-linecap="square" x1="293.32" y1="92.242" x2="293.32" y2="99.84"/>
</g>
<g id="s20">
	
		<line fill="none" stroke="#FFFFFF" stroke-width="1.5" stroke-linecap="square" x1="287.615" y1="97.947" x2="295.213" y2="97.947"/>
	
		<line fill="none" stroke="#FFFFFF" stroke-width="1.5" stroke-linecap="square" x1="287.615" y1="94.135" x2="295.213" y2="94.135"/>
	
		<line fill="none" stroke="#FFFFFF" stroke-width="1.5" stroke-linecap="square" x1="289.508" y1="92.242" x2="289.508" y2="99.84"/>
	<line fill="none" stroke="#FFFFFF" stroke-width="1.5" stroke-linecap="square" x1="293.32" y1="92.242" x2="293.32" y2="99.84"/>
</g>
<g id="s19">
	
		<line fill="none" stroke="#FFFFFF" stroke-width="1.5" stroke-linecap="square" x1="287.615" y1="97.947" x2="295.213" y2="97.947"/>
	
		<line fill="none" stroke="#FFFFFF" stroke-width="1.5" stroke-linecap="square" x1="287.615" y1="94.135" x2="295.213" y2="94.135"/>
	
		<line fill="none" stroke="#FFFFFF" stroke-width="1.5" stroke-linecap="square" x1="289.508" y1="92.242" x2="289.508" y2="99.84"/>
	<line fill="none" stroke="#FFFFFF" stroke-width="1.5" stroke-linecap="square" x1="293.32" y1="92.242" x2="293.32" y2="99.84"/>
</g>
<g id="s18">
	
		<line fill="none" stroke="#FFFFFF" stroke-width="1.5" stroke-linecap="square" x1="287.615" y1="97.947" x2="295.213" y2="97.947"/>
	
		<line fill="none" stroke="#FFFFFF" stroke-width="1.5" stroke-linecap="square" x1="287.615" y1="94.135" x2="295.213" y2="94.135"/>
	
		<line fill="none" stroke="#FFFFFF" stroke-width="1.5" stroke-linecap="square" x1="289.508" y1="92.242" x2="289.508" y2="99.84"/>
	<line fill="none" stroke="#FFFFFF" stroke-width="1.5" stroke-linecap="square" x1="293.32" y1="92.242" x2="293.32" y2="99.84"/>
</g>
<g id="s17">
	
		<line fill="none" stroke="#FFFFFF" stroke-width="1.5" stroke-linecap="square" x1="287.615" y1="97.947" x2="295.213" y2="97.947"/>
	
		<line fill="none" stroke="#FFFFFF" stroke-width="1.5" stroke-linecap="square" x1="287.615" y1="94.135" x2="295.213" y2="94.135"/>
	
		<line fill="none" stroke="#FFFFFF" stroke-width="1.5" stroke-linecap="square" x1="289.508" y1="92.242" x2="289.508" y2="99.84"/>
	<line fill="none" stroke="#FFFFFF" stroke-width="1.5" stroke-linecap="square" x1="293.32" y1="92.242" x2="293.32" y2="99.84"/>
</g>
<g id="s16">
	
		<line fill="none" stroke="#FFFFFF" stroke-width="1.5" stroke-linecap="square" x1="287.615" y1="97.947" x2="295.213" y2="97.947"/>
	
		<line fill="none" stroke="#FFFFFF" stroke-width="1.5" stroke-linecap="square" x1="287.615" y1="94.135" x2="295.213" y2="94.135"/>
	
		<line fill="none" stroke="#FFFFFF" stroke-width="1.5" stroke-linecap="square" x1="289.508" y1="92.242" x2="289.508" y2="99.84"/>
	<line fill="none" stroke="#FFFFFF" stroke-width="1.5" stroke-linecap="square" x1="293.32" y1="92.242" x2="293.32" y2="99.84"/>
</g>
<g id="s15">
	
		<line fill="none" stroke="#FFFFFF" stroke-width="1.5" stroke-linecap="square" x1="287.615" y1="97.947" x2="295.213" y2="97.947"/>
	
		<line fill="none" stroke="#FFFFFF" stroke-width="1.5" stroke-linecap="square" x1="287.615" y1="94.135" x2="295.213" y2="94.135"/>
	
		<line fill="none" stroke="#FFFFFF" stroke-width="1.5" stroke-linecap="square" x1="289.508" y1="92.242" x2="289.508" y2="99.84"/>
	<line fill="none" stroke="#FFFFFF" stroke-width="1.5" stroke-linecap="square" x1="293.32" y1="92.242" x2="293.32" y2="99.84"/>
</g>
<g id="s14_1_">
	
		<line fill="none" stroke="#FFFFFF" stroke-width="1.5" stroke-linecap="square" x1="287.615" y1="97.947" x2="295.213" y2="97.947"/>
	
		<line fill="none" stroke="#FFFFFF" stroke-width="1.5" stroke-linecap="square" x1="287.615" y1="94.135" x2="295.213" y2="94.135"/>
	
		<line fill="none" stroke="#FFFFFF" stroke-width="1.5" stroke-linecap="square" x1="289.508" y1="92.242" x2="289.508" y2="99.84"/>
	<line fill="none" stroke="#FFFFFF" stroke-width="1.5" stroke-linecap="square" x1="293.32" y1="92.242" x2="293.32" y2="99.84"/>
</g>
<g id="s13_1_">
	
		<line fill="none" stroke="#FFFFFF" stroke-width="1.5" stroke-linecap="square" x1="287.615" y1="97.947" x2="295.213" y2="97.947"/>
	
		<line fill="none" stroke="#FFFFFF" stroke-width="1.5" stroke-linecap="square" x1="287.615" y1="94.135" x2="295.213" y2="94.135"/>
	
		<line fill="none" stroke="#FFFFFF" stroke-width="1.5" stroke-linecap="square" x1="289.508" y1="92.242" x2="289.508" y2="99.84"/>
	<line fill="none" stroke="#FFFFFF" stroke-width="1.5" stroke-linecap="square" x1="293.32" y1="92.242" x2="293.32" y2="99.84"/>
</g>
<g id="s12_1_">
	
		<line fill="none" stroke="#FFFFFF" stroke-width="1.5" stroke-linecap="square" x1="287.615" y1="97.947" x2="295.213" y2="97.947"/>
	
		<line fill="none" stroke="#FFFFFF" stroke-width="1.5" stroke-linecap="square" x1="287.615" y1="94.135" x2="295.213" y2="94.135"/>
	
		<line fill="none" stroke="#FFFFFF" stroke-width="1.5" stroke-linecap="square" x1="289.508" y1="92.242" x2="289.508" y2="99.84"/>
	<line fill="none" stroke="#FFFFFF" stroke-width="1.5" stroke-linecap="square" x1="293.32" y1="92.242" x2="293.32" y2="99.84"/>
</g>
<g id="s11_1_">
	
		<line fill="none" stroke="#FFFFFF" stroke-width="1.5" stroke-linecap="square" x1="287.615" y1="97.947" x2="295.213" y2="97.947"/>
	
		<line fill="none" stroke="#FFFFFF" stroke-width="1.5" stroke-linecap="square" x1="287.615" y1="94.135" x2="295.213" y2="94.135"/>
	
		<line fill="none" stroke="#FFFFFF" stroke-width="1.5" stroke-linecap="square" x1="289.508" y1="92.242" x2="289.508" y2="99.84"/>
	<line fill="none" stroke="#FFFFFF" stroke-width="1.5" stroke-linecap="square" x1="293.32" y1="92.242" x2="293.32" y2="99.84"/>
</g>
<g id="s10_1_">
	
		<line fill="none" stroke="#FFFFFF" stroke-width="1.5" stroke-linecap="square" x1="287.615" y1="97.947" x2="295.213" y2="97.947"/>
	
		<line fill="none" stroke="#FFFFFF" stroke-width="1.5" stroke-linecap="square" x1="287.615" y1="94.135" x2="295.213" y2="94.135"/>
	
		<line fill="none" stroke="#FFFFFF" stroke-width="1.5" stroke-linecap="square" x1="289.508" y1="92.242" x2="289.508" y2="99.84"/>
	<line fill="none" stroke="#FFFFFF" stroke-width="1.5" stroke-linecap="square" x1="293.32" y1="92.242" x2="293.32" y2="99.84"/>
</g>
<g id="s9_1_">
	
		<line fill="none" stroke="#FFFFFF" stroke-width="1.5" stroke-linecap="square" x1="287.615" y1="97.947" x2="295.213" y2="97.947"/>
	
		<line fill="none" stroke="#FFFFFF" stroke-width="1.5" stroke-linecap="square" x1="287.615" y1="94.135" x2="295.213" y2="94.135"/>
	
		<line fill="none" stroke="#FFFFFF" stroke-width="1.5" stroke-linecap="square" x1="289.508" y1="92.242" x2="289.508" y2="99.84"/>
	<line fill="none" stroke="#FFFFFF" stroke-width="1.5" stroke-linecap="square" x1="293.32" y1="92.242" x2="293.32" y2="99.84"/>
</g>
<g id="s8_1_">
	
		<line fill="none" stroke="#FFFFFF" stroke-width="1.5" stroke-linecap="square" x1="287.615" y1="97.947" x2="295.213" y2="97.947"/>
	
		<line fill="none" stroke="#FFFFFF" stroke-width="1.5" stroke-linecap="square" x1="287.615" y1="94.135" x2="295.213" y2="94.135"/>
	
		<line fill="none" stroke="#FFFFFF" stroke-width="1.5" stroke-linecap="square" x1="289.508" y1="92.242" x2="289.508" y2="99.84"/>
	<line fill="none" stroke="#FFFFFF" stroke-width="1.5" stroke-linecap="square" x1="293.32" y1="92.242" x2="293.32" y2="99.84"/>
</g>
<g id="s7_1_">
	
		<line fill="none" stroke="#FFFFFF" stroke-width="1.5" stroke-linecap="square" x1="287.615" y1="97.947" x2="295.213" y2="97.947"/>
	
		<line fill="none" stroke="#FFFFFF" stroke-width="1.5" stroke-linecap="square" x1="287.615" y1="94.135" x2="295.213" y2="94.135"/>
	
		<line fill="none" stroke="#FFFFFF" stroke-width="1.5" stroke-linecap="square" x1="289.508" y1="92.242" x2="289.508" y2="99.84"/>
	<line fill="none" stroke="#FFFFFF" stroke-width="1.5" stroke-linecap="square" x1="293.32" y1="92.242" x2="293.32" y2="99.84"/>
</g>
<g id="s6_1_">
	
		<line fill="none" stroke="#FFFFFF" stroke-width="1.5" stroke-linecap="square" x1="287.615" y1="97.947" x2="295.213" y2="97.947"/>
	
		<line fill="none" stroke="#FFFFFF" stroke-width="1.5" stroke-linecap="square" x1="287.615" y1="94.135" x2="295.213" y2="94.135"/>
	
		<line fill="none" stroke="#FFFFFF" stroke-width="1.5" stroke-linecap="square" x1="289.508" y1="92.242" x2="289.508" y2="99.84"/>
	<line fill="none" stroke="#FFFFFF" stroke-width="1.5" stroke-linecap="square" x1="293.32" y1="92.242" x2="293.32" y2="99.84"/>
</g>
<g id="s5_1_">
	
		<line fill="none" stroke="#FFFFFF" stroke-width="1.5" stroke-linecap="square" x1="287.615" y1="97.947" x2="295.213" y2="97.947"/>
	
		<line fill="none" stroke="#FFFFFF" stroke-width="1.5" stroke-linecap="square" x1="287.615" y1="94.135" x2="295.213" y2="94.135"/>
	
		<line fill="none" stroke="#FFFFFF" stroke-width="1.5" stroke-linecap="square" x1="289.508" y1="92.242" x2="289.508" y2="99.84"/>
	<line fill="none" stroke="#FFFFFF" stroke-width="1.5" stroke-linecap="square" x1="293.32" y1="92.242" x2="293.32" y2="99.84"/>
</g>
<g id="s4_1_">
	
		<line fill="none" stroke="#FFFFFF" stroke-width="1.5" stroke-linecap="square" x1="287.615" y1="97.947" x2="295.213" y2="97.947"/>
	
		<line fill="none" stroke="#FFFFFF" stroke-width="1.5" stroke-linecap="square" x1="287.615" y1="94.135" x2="295.213" y2="94.135"/>
	
		<line fill="none" stroke="#FFFFFF" stroke-width="1.5" stroke-linecap="square" x1="289.508" y1="92.242" x2="289.508" y2="99.84"/>
	<line fill="none" stroke="#FFFFFF" stroke-width="1.5" stroke-linecap="square" x1="293.32" y1="92.242" x2="293.32" y2="99.84"/>
</g>
<g id="s3_1_">
	
		<line fill="none" stroke="#FFFFFF" stroke-width="1.5" stroke-linecap="square" x1="287.615" y1="97.947" x2="295.213" y2="97.947"/>
	
		<line fill="none" stroke="#FFFFFF" stroke-width="1.5" stroke-linecap="square" x1="287.615" y1="94.135" x2="295.213" y2="94.135"/>
	
		<line fill="none" stroke="#FFFFFF" stroke-width="1.5" stroke-linecap="square" x1="289.508" y1="92.242" x2="289.508" y2="99.84"/>
	<line fill="none" stroke="#FFFFFF" stroke-width="1.5" stroke-linecap="square" x1="293.32" y1="92.242" x2="293.32" y2="99.84"/>
</g>
<g id="s2_1_">
	
		<line fill="none" stroke="#FFFFFF" stroke-width="1.5" stroke-linecap="square" x1="287.615" y1="97.947" x2="295.213" y2="97.947"/>
	
		<line fill="none" stroke="#FFFFFF" stroke-width="1.5" stroke-linecap="square" x1="287.615" y1="94.135" x2="295.213" y2="94.135"/>
	
		<line fill="none" stroke="#FFFFFF" stroke-width="1.5" stroke-linecap="square" x1="289.508" y1="92.242" x2="289.508" y2="99.84"/>
	<line fill="none" stroke="#FFFFFF" stroke-width="1.5" stroke-linecap="square" x1="293.32" y1="92.242" x2="293.32" y2="99.84"/>
</g>
<g id="s1_1_">
	
		<line fill="none" stroke="#FFFFFF" stroke-width="1.5" stroke-linecap="square" x1="287.615" y1="97.947" x2="295.213" y2="97.947"/>
	
		<line fill="none" stroke="#FFFFFF" stroke-width="1.5" stroke-linecap="square" x1="287.615" y1="94.135" x2="295.213" y2="94.135"/>
	
		<line fill="none" stroke="#FFFFFF" stroke-width="1.5" stroke-linecap="square" x1="289.508" y1="92.242" x2="289.508" y2="99.84"/>
	<line fill="none" stroke="#FFFFFF" stroke-width="1.5" stroke-linecap="square" x1="293.32" y1="92.242" x2="293.32" y2="99.84"/>
</g>
<g id="s0_1_">
	
		<line fill="none" stroke="#FFFFFF" stroke-width="1.5" stroke-linecap="square" x1="287.615" y1="97.947" x2="295.213" y2="97.947"/>
	
		<line fill="none" stroke="#FFFFFF" stroke-width="1.5" stroke-linecap="square" x1="287.615" y1="94.135" x2="295.213" y2="94.135"/>
	
		<line fill="none" stroke="#FFFFFF" stroke-width="1.5" stroke-linecap="square" x1="289.508" y1="92.242" x2="289.508" y2="99.84"/>
	<line fill="none" stroke="#FFFFFF" stroke-width="1.5" stroke-linecap="square" x1="293.32" y1="92.242" x2="293.32" y2="99.84"/>
</g>
</svg>
