<?xml version="1.0" encoding="utf-8"?>
<!-- Generator: Adobe Illustrator 15.0.0, SVG Export Plug-In . SVG Version: 6.00 Build 0)  -->
<!DOCTYPE svg PUBLIC "-//W3C//DTD SVG 1.1//EN" "http://www.w3.org/Graphics/SVG/1.1/DTD/svg11.dtd">
<svg version="1.1" id="Layer_1" xmlns="http://www.w3.org/2000/svg" xmlns:xlink="http://www.w3.org/1999/xlink" x="0px" y="0px"
	 width="320px" height="160px" viewBox="0 0 320 160" enable-background="new 0 0 320 160" xml:space="preserve">
<g id="static">
	<g>
		<path id="s_75_" fill="none" stroke="#383572" stroke-width="1.5" stroke-linecap="square" d="M198.177,130.291
			c0,1.174,0.952,2.125,2.128,2.125c1.174,0,2.125-0.951,2.125-2.125c0-0.479-0.324-1.131-0.912-1.492
			c-0.514-0.314-1.971-0.926-2.477-1.25c-0.625-0.398-0.864-1.029-0.864-1.51c0-1.174,0.952-2.127,2.128-2.127
			c1.174,0,2.125,0.953,2.125,2.127"/>
		<g id="t_106_">
			
				<line fill="none" stroke="#383572" stroke-width="1.5" stroke-linecap="square" x1="204.148" y1="123.912" x2="209.465" y2="123.912"/>
			
				<line fill="none" stroke="#383572" stroke-width="1.5" stroke-linecap="square" x1="206.914" y1="123.912" x2="206.914" y2="132.416"/>
		</g>
		<path id="d_59_" fill="none" stroke="#383572" stroke-width="1.5" stroke-linecap="square" d="M187.203,132.416
			c1.174,0,2.125-0.951,2.125-2.125v-4.252c0-1.174-0.951-2.127-2.125-2.127h-2.127v8.504H187.203L187.203,132.416z"/>
		<g id="e_151_">
			<polyline fill="none" stroke="#383572" stroke-width="1.5" stroke-linecap="square" points="195.984,132.416 192.156,132.416 
				192.156,123.912 195.984,123.912 			"/>
			
				<line fill="none" stroke="#383572" stroke-width="1.5" stroke-linecap="square" x1="192.156" y1="128.164" x2="195.559" y2="128.164"/>
		</g>
	</g>
	<circle fill="none" stroke="#ADADFF" stroke-width="1.5" stroke-linecap="square" cx="259.617" cy="74.534" r="6.289"/>
	<path fill="none" stroke="#698EFF" stroke-width="1.5" stroke-linecap="square" d="M88.802,79.812"/>
	
		<line fill="none" stroke="#ADADFF" stroke-width="1.5" stroke-linecap="square" x1="145.695" y1="74.537" x2="162.162" y2="74.537"/>
	<line fill="none" stroke="#ADADFF" stroke-width="1.5" stroke-linecap="square" x1="66.318" y1="74.537" x2="90.823" y2="74.537"/>
	<circle fill="#ADADFF" cx="145.696" cy="74.533" r="2.591"/>
	<circle fill="#ADADFF" cx="92.044" cy="74.533" r="2.591"/>
	<circle fill="#ADADFF" cx="165.598" cy="74.533" r="2.59"/>
	<circle fill="#ADADFF" cx="218.559" cy="74.533" r="2.591"/>
	<circle fill="#ADADFF" cx="66.599" cy="74.533" r="2.591"/>
</g>
<circle id="redbase" fill="#FF3A5D" cx="278.951" cy="74.871" r="2.835"/>
<g id="reda">
	<circle fill="#698EFF" cx="259.617" cy="74.535" r="2.836"/>
	<circle fill="#FFFFFF" cx="298.284" cy="74.534" r="2.835"/>
	<circle fill="#FF3A5D" cx="278.951" cy="55.201" r="2.835"/>
	<circle fill="#00ED95" cx="278.951" cy="93.87" r="2.835"/>
</g>
<g id="redb">
	<circle fill="#00475B" cx="292.622" cy="88.207" r="2.836"/>
	<circle fill="#512132" cx="265.277" cy="60.867" r="2.835"/>
	<circle fill="#383572" cx="265.277" cy="88.206" r="2.835"/>
	<circle fill="#656579" cx="292.622" cy="60.865" r="2.836"/>
</g>
<g id="whiteanim">
	<polyline fill="none" stroke="#383572" stroke-width="1.5" stroke-linecap="square" points="218.848,52.332 223.365,52.332 
		223.365,105.334 170.365,105.334 170.365,101.271 	"/>
	<polyline fill="none" stroke="#383572" stroke-width="1.5" stroke-linecap="square" points="223.598,56.457 227.49,56.457 
		227.49,109.459 174.49,109.459 174.49,105.521 	"/>
	
		<rect x="166.033" y="48.037" fill="none" stroke="#383572" stroke-width="1.5" stroke-linecap="square" width="53" height="53.002"/>
</g>
<g id="speedb">
	<path fill="none" stroke="#383572" stroke-width="1.5" stroke-linecap="square" d="M41.191,95.373c0,0.73-0.595,1.324-1.326,1.324
		c-0.732,0-1.325-0.594-1.325-1.324v-2.646c0-0.729,0.593-1.326,1.325-1.326c0.731,0,1.326,0.604,1.326,1.326V95.373z"/>
	<path fill="none" stroke="#383572" stroke-width="1.5" stroke-linecap="square" d="M41.191,56.329c0,0.732-0.594,1.324-1.324,1.324
		c-0.732,0-1.325-0.592-1.325-1.324v-2.651c0-0.732,0.593-1.325,1.325-1.325c0.73,0,1.324,0.593,1.324,1.325V56.329z"/>
	<line fill="none" stroke="#383572" stroke-width="1.5" stroke-linecap="square" x1="62.048" y1="74.535" x2="56.724" y2="74.535"/>
	<line fill="none" stroke="#383572" stroke-width="1.5" stroke-linecap="square" x1="17.682" y1="74.535" x2="23.006" y2="74.535"/>
	<line fill="none" stroke="#383572" stroke-width="1.5" stroke-linecap="square" x1="55.551" y1="58.849" x2="51.786" y2="62.611"/>
	<line fill="none" stroke="#383572" stroke-width="1.5" stroke-linecap="square" x1="24.179" y1="90.223" x2="27.943" y2="86.457"/>
	<line fill="none" stroke="#383572" stroke-width="1.5" stroke-linecap="square" x1="24.18" y1="58.849" x2="27.944" y2="62.613"/>
	<line fill="none" stroke="#383572" stroke-width="1.5" stroke-linecap="square" x1="55.551" y1="90.223" x2="51.786" y2="86.457"/>
	<circle id="bluebase" fill="#698EFF" cx="39.865" cy="74.535" r="3.377"/>
	
		<line id="blue" fill="none" stroke="#698EFF" stroke-width="1.5" stroke-linecap="square" stroke-linejoin="bevel" x1="39.865" y1="74.535" x2="39.833" y2="95.52"/>
</g>
<rect id="blueanim" x="13.365" y="48.037" fill="none" stroke="#383572" stroke-width="1.5" stroke-linecap="square" width="52.999" height="53.002"/>
<polygon id="greenanim" fill="none" stroke="#00ED95" stroke-width="1.5" stroke-linecap="square" points="92.156,43.624 
	145.698,74.537 92.156,105.451 "/>
<g>
	<path id="s_74_" fill="none" stroke="#383572" stroke-width="1.5" stroke-linecap="square" d="M25.487,130.291
		c0,1.174,0.952,2.125,2.125,2.125c1.175,0,2.126-0.951,2.126-2.125c0-0.479-0.324-1.131-0.912-1.492
		c-0.513-0.314-1.969-0.926-2.476-1.25c-0.625-0.398-0.864-1.029-0.864-1.51c0-1.174,0.952-2.127,2.126-2.127
		c1.175,0,2.126,0.953,2.126,2.127"/>
	<path id="p_42_" fill="none" stroke="#383572" stroke-width="1.5" stroke-linecap="square" d="M32.15,132.416v-8.504h1.703
		c1.173,0,2.126,0.953,2.126,2.127l0,0c0,1.174-0.953,2.125-2.126,2.125H32.15"/>
	<path id="d_58_" fill="none" stroke="#383572" stroke-width="1.5" stroke-linecap="square" d="M52.389,132.416
		c1.174,0,2.126-0.951,2.126-2.125v-4.252c0-1.174-0.952-2.127-2.126-2.127h-2.126v8.504H52.389L52.389,132.416z"/>
	<g id="e_149_">
		<polyline fill="none" stroke="#383572" stroke-width="1.5" stroke-linecap="square" points="41.887,132.416 38.06,132.416 
			38.06,123.912 41.887,123.912 		"/>
		
			<line fill="none" stroke="#383572" stroke-width="1.5" stroke-linecap="square" x1="38.06" y1="128.164" x2="41.463" y2="128.164"/>
	</g>
	<g id="e_148_">
		<polyline fill="none" stroke="#383572" stroke-width="1.5" stroke-linecap="square" points="48.012,132.416 44.185,132.416 
			44.185,123.912 48.012,123.912 		"/>
		
			<line fill="none" stroke="#383572" stroke-width="1.5" stroke-linecap="square" x1="44.185" y1="128.164" x2="47.587" y2="128.164"/>
	</g>
</g>
<g>
	<g id="a_88_">
		<polyline fill="none" stroke="#383572" stroke-width="1.5" stroke-linecap="square" points="97.949,132.416 97.949,132.205 
			100.288,123.912 100.713,123.912 103.051,132.205 103.051,132.416 		"/>
		
			<line fill="none" stroke="#383572" stroke-width="1.5" stroke-linecap="square" x1="98.8" y1="129.439" x2="102.201" y2="129.439"/>
	</g>
	<g id="t_105_">
		
			<line fill="none" stroke="#383572" stroke-width="1.5" stroke-linecap="square" x1="132.598" y1="123.912" x2="137.913" y2="123.912"/>
		
			<line fill="none" stroke="#383572" stroke-width="1.5" stroke-linecap="square" x1="135.362" y1="123.912" x2="135.362" y2="132.416"/>
	</g>
	<polyline id="m_39_" fill="none" stroke="#383572" stroke-width="1.5" stroke-linecap="square" points="105.319,132.416 
		105.319,123.912 105.744,123.912 107.657,129.016 108.082,129.016 109.996,123.912 110.421,123.912 110.421,132.416 	"/>
	<g id="u_28_">
		<path fill="none" stroke="#383572" stroke-width="1.5" stroke-linecap="square" d="M119.915,123.912v6.379
			c0,1.176,0.952,2.125,2.126,2.125s2.125-0.949,2.125-2.125v-6.379"/>
	</g>
	<polyline id="n_79_" fill="none" stroke="#383572" stroke-width="1.5" stroke-linecap="square" points="126.717,132.416 
		126.717,123.912 127.142,123.912 130.544,132.416 130.969,132.416 130.969,123.912 	"/>
	<path id="o_89_" fill="none" stroke="#383572" stroke-width="1.5" stroke-linecap="square" d="M112.971,126.252v3.826
		c0,1.291,1.047,2.338,2.338,2.338s2.338-1.047,2.338-2.338l0,0l0,0v-3.826c0-1.293-1.046-2.34-2.338-2.34
		C114.018,123.912,112.971,124.959,112.971,126.252L112.971,126.252L112.971,126.252L112.971,126.252z"/>
</g>
<g>
	<path id="p_57_" fill="none" stroke="#383572" stroke-width="1.5" stroke-linecap="square" d="M263.602,132.416v-8.504h1.703
		c1.172,0,2.125,0.953,2.125,2.127l0,0c0,1.174-0.953,2.125-2.125,2.125h-1.703"/>
	<path id="s_73_" fill="none" stroke="#383572" stroke-width="1.5" stroke-linecap="square" d="M285.703,130.291
		c0,1.174,0.949,2.125,2.126,2.125c1.174,0,2.126-0.951,2.126-2.125c0-0.479-0.325-1.131-0.913-1.492
		c-0.512-0.314-1.968-0.926-2.478-1.25c-0.625-0.398-0.861-1.029-0.861-1.51c0-1.174,0.949-2.127,2.126-2.127
		c1.175,0,2.126,0.953,2.126,2.127"/>
	<g id="t_85_">
		
			<line fill="none" stroke="#383572" stroke-width="1.5" stroke-linecap="square" x1="291.532" y1="123.912" x2="296.848" y2="123.912"/>
		
			<line fill="none" stroke="#383572" stroke-width="1.5" stroke-linecap="square" x1="294.297" y1="123.912" x2="294.297" y2="132.416"/>
	</g>
	<path id="d_57_" fill="none" stroke="#383572" stroke-width="1.5" stroke-linecap="square" d="M274.727,132.416
		c1.174,0,2.127-0.951,2.127-2.125v-4.252c0-1.174-0.953-2.127-2.127-2.127h-2.125v8.504H274.727L274.727,132.416z"/>
	<g id="e_150_">
		<polyline fill="none" stroke="#383572" stroke-width="1.5" stroke-linecap="square" points="283.508,132.416 279.682,132.416 
			279.682,123.912 283.508,123.912 		"/>
		
			<line fill="none" stroke="#383572" stroke-width="1.5" stroke-linecap="square" x1="279.682" y1="128.164" x2="283.084" y2="128.164"/>
	</g>
	
		<line fill="none" stroke="#383572" stroke-width="1.5" stroke-linecap="square" x1="268.795" y1="131.812" x2="268.795" y2="132.379"/>
</g>
<path id="graphstart" fill="#383572" d="M26.071,21.717c1.433,0,2.592,1.16,2.592,2.591c0,1.435-1.159,2.601-2.592,2.601
	c-1.431,0-2.591-1.166-2.591-2.601C23.48,22.877,24.64,21.717,26.071,21.717z"/>
<path id="graphend" fill="#383572" d="M53.963,21.719c1.432,0,2.591,1.159,2.591,2.59c0,1.435-1.159,2.599-2.591,2.599
	c-1.43,0-2.59-1.164-2.59-2.599C51.374,22.878,52.534,21.719,53.963,21.719z"/>
<path fill="#010101" d="M53.963,24.312c0,7.702-6.244,13.946-13.946,13.946S26.07,32.015,26.07,24.312s6.244-13.946,13.946-13.946
	C47.718,10.366,53.963,16.61,53.963,24.312z M40.016,4.178c-11.12,0-20.135,9.015-20.135,20.135s9.015,20.136,20.135,20.136
	c11.121,0,20.136-9.016,20.136-20.136S51.137,4.178,40.016,4.178z"/>
<circle fill="none" stroke="#383572" stroke-width="1.5" stroke-linecap="square" cx="40.017" cy="24.313" r="13.946"/>
<line fill="none" stroke="#383572" stroke-width="1.5" stroke-linecap="square" x1="40.017" y1="38.259" x2="40.017" y2="47.987"/>
<circle fill="#383572" cx="40.017" cy="38.259" r="2.591"/>
<line fill="none" stroke="#ADADFF" stroke-width="1.5" stroke-linecap="square" x1="219.693" y1="74.537" x2="247.411" y2="74.537"/>
<circle id="redanim" fill="none" stroke="#383572" stroke-width="1.5" stroke-linecap="square" cx="278.95" cy="74.535" r="28.348"/>
<line fill="none" stroke="#000000" stroke-width="1.5" stroke-linecap="square" x1="221.752" y1="72.894" x2="229.814" y2="72.894"/>
<line fill="none" stroke="#000000" stroke-width="1.5" stroke-linecap="square" x1="222.035" y1="76.25" x2="230.098" y2="76.25"/>
<line id="speeda" fill="none" stroke="#698EFF" stroke-width="1.5" stroke-linecap="square" stroke-linejoin="bevel" x1="39" y1="65.498" x2="39" y2="82.505"/>
<path id="synth_1_" fill="none" stroke="#698EFF" stroke-width="1.5" d="M211.208,69.122c0-1.662-1.353-3.004-3.006-3.004
	c-1.66,0-3.015,1.344-3.015,3.004l0.021,11.711c0,1.661-1.354,3.005-3.01,3.005c-1.662,0-3.015-1.346-3.015-3.005V69.122
	c0-1.662-1.352-3.004-3.01-3.004c-1.66,0-3.01,1.344-3.01,3.004l-0.07,11.711c0,1.661-1.346,3.005-3.006,3.005
	c-1.662,0-3.01-1.346-3.01-3.005V69.122c0-1.662-1.35-3.004-3.012-3.004s-3.008,1.344-3.008,3.004l-0.021,11.711
	c0,1.661-1.352,3.005-3.006,3.005c-1.663,0-3.012-1.346-3.012-3.005"/>
<g id="drum">
	<circle fill="none" stroke="#00ED95" stroke-width="1.5" cx="193.126" cy="74.192" r="8.861"/>
	<path fill="#00ED95" d="M194.882,75.859c0,0.968-0.784,1.753-1.756,1.753c-0.969,0-1.754-0.871-1.754-1.841
		c0-0.969,0.785-1.666,1.754-1.666C194.096,74.105,194.882,74.892,194.882,75.859"/>
	<path fill="none" stroke="#00ED95" stroke-width="1.5" d="M194.882,75.859c0,0.968-0.784,1.753-1.756,1.753
		c-0.969,0-1.754-0.871-1.754-1.841c0-0.969,0.785-1.666,1.754-1.666C194.096,74.105,194.882,74.892,194.882,75.859z"/>
	<line fill="none" stroke="#00ED95" stroke-width="1.5" x1="193.126" y1="87.174" x2="193.126" y2="75.946"/>
</g>
<g id="fx">
	<polyline fill="none" stroke="#698EFF" stroke-width="1.5" stroke-linecap="square" points="180.902,85.092 180.902,63.819 
		190.469,63.819 	"/>
	<line fill="none" stroke="#698EFF" stroke-width="1.5" stroke-linecap="square" x1="180.902" y1="74.45" x2="189.404" y2="74.45"/>
	<polyline fill="none" stroke="#698EFF" stroke-width="1.5" stroke-linecap="square" points="193.656,63.819 193.656,64.883 
		205.35,84.029 205.35,86.137 	"/>
	<polyline fill="none" stroke="#698EFF" stroke-width="1.5" stroke-linecap="square" points="193.656,85.092 193.656,84.029 
		205.35,64.883 205.35,63.819 	"/>
</g>
<g id="adsr">
	<path fill="none" stroke="#DFD9FF" stroke-width="1.5" d="M193.07,75.11h8.596c0,0,0.87,6.51,6.738,6.51"/>
	<path fill="none" stroke="#DFD9FF" stroke-width="1.5" d="M178.404,81.62c0,0,0.33-9.839,8.146-14.333c0,0-0.325,7.824,6.521,7.824
		"/>
</g>
<g id="dynaenv">
	<path fill="none" stroke="#00ED95" stroke-width="1.5" stroke-linecap="square" d="M192.021,74.106h8.595c0,0,0.87,6.51,6.739,6.51
		"/>
	<path fill="none" stroke="#00ED95" stroke-width="1.5" stroke-linecap="square" d="M177.355,80.616c0,0,0.33-9.839,8.146-14.334
		c0,0-0.326,7.824,6.521,7.824"/>
</g>
<g id="synthf">
	<path id="_x3C_path_x3E_" fill="none" stroke="#698EFF" stroke-width="1.5" d="M200.906,70.031c0-1.33-1.061-2.403-2.355-2.403
		c-1.299,0-2.361,1.075-2.361,2.403l0.021,9.367c0,1.329-1.059,2.404-2.357,2.404c-1.304,0-2.354-1.075-2.354-2.404v-9.367
		c0-1.33-1.062-2.403-2.355-2.403c-1.304,0-2.357,1.075-2.357,2.403l-0.057,9.367c0,1.329-1.058,2.404-2.354,2.404
		c-1.302,0-2.357-1.075-2.357-2.404v-9.367c0-1.33-1.059-2.403-2.356-2.403c-1.304,0-2.354,1.075-2.354,2.403l-0.02,9.367
		c0,1.329-1.062,2.404-2.354,2.404c-1.305,0-2.358-1.075-2.358-2.404"/>
	<polyline fill="none" stroke="#ADADFF" stroke-width="1.5" stroke-linecap="square" points="205.327,81.622 205.327,67.449 
		212.137,67.449 	"/>
	<line fill="none" stroke="#ADADFF" stroke-width="1.5" stroke-linecap="square" x1="205.66" y1="74.533" x2="211.71" y2="74.533"/>
</g>
<g id="drumf">
	<circle fill="none" stroke="#00ED95" stroke-width="1.5" cx="186.27" cy="73.798" r="8.861"/>
	<path fill="#00ED95" d="M188.025,75.465c0,0.968-0.783,1.753-1.756,1.753c-0.975,0-1.754-0.871-1.754-1.841
		c0-0.969,0.779-1.666,1.754-1.666C187.24,73.711,188.025,74.498,188.025,75.465"/>
	<path fill="none" stroke="#00ED95" stroke-width="1.5" d="M188.025,75.465c0,0.968-0.783,1.753-1.756,1.753
		c-0.975,0-1.754-0.871-1.754-1.841c0-0.969,0.779-1.666,1.754-1.666C187.24,73.711,188.025,74.498,188.025,75.465z"/>
	<line fill="none" stroke="#00ED95" stroke-width="1.5" x1="186.27" y1="86.779" x2="186.27" y2="75.552"/>
	
		<line fill="none" stroke="#ADADFF" stroke-width="1.5" stroke-linecap="square" x1="201.275" y1="74.459" x2="207.668" y2="74.459"/>
	<polyline fill="none" stroke="#ADADFF" stroke-width="1.5" stroke-linecap="square" points="201.275,82.463 201.275,66.462 
		208.471,66.462 	"/>
</g>
<g id="adsrf">
	<path fill="none" stroke="#DFD9FF" stroke-width="1.5" d="M187.031,74.938h7.191c0,0,0.729,5.767,5.641,5.767"/>
	<path fill="none" stroke="#DFD9FF" stroke-width="1.5" d="M174.753,80.705c0,0,0.276-8.716,6.819-12.698
		c0,0-0.275,6.931,5.457,6.931"/>
	<line fill="none" stroke="#DFD9FF" stroke-width="1.5" x1="204.203" y1="74.534" x2="209.867" y2="74.534"/>
	<polyline fill="none" stroke="#DFD9FF" stroke-width="1.5" points="204.203,81.624 204.203,67.45 210.577,67.45 	"/>
</g>
<g id="dynaenvf">
	<path fill="none" stroke="#00ED95" stroke-width="1.5" stroke-linecap="square" d="M187.257,75.118h7.192
		c0,0,0.729,5.767,5.641,5.767"/>
	<path fill="none" stroke="#00ED95" stroke-width="1.5" stroke-linecap="square" d="M174.982,80.885c0,0,0.271-8.715,6.812-12.697
		c0,0-0.271,6.93,5.458,6.93"/>
	<line fill="none" stroke="#00ED95" stroke-width="1.5" x1="204.449" y1="74.534" x2="210.115" y2="74.534"/>
	<polyline fill="none" stroke="#00ED95" stroke-width="1.5" points="204.449,81.623 204.449,67.45 210.823,67.45 	"/>
</g>
<g id="fxf">
	<polyline fill="none" stroke="#698EFF" stroke-width="1.5" stroke-linecap="square" points="179.083,81.628 179.083,67.455 
		185.74,67.455 	"/>
	
		<line fill="none" stroke="#698EFF" stroke-width="1.5" stroke-linecap="square" x1="179.083" y1="74.538" x2="184.998" y2="74.538"/>
	<polyline fill="none" stroke="#698EFF" stroke-width="1.5" stroke-linecap="square" points="187.955,67.455 187.955,68.164 
		196.091,80.92 196.091,81.628 	"/>
	<polyline fill="none" stroke="#698EFF" stroke-width="1.5" stroke-linecap="square" points="187.955,81.628 187.955,80.92 
		196.091,68.164 196.091,67.455 	"/>
	<polyline fill="none" stroke="#ADADFF" stroke-width="1.5" stroke-linecap="square" points="202.493,81.62 202.493,67.452 
		209.688,67.452 	"/>
	
		<line fill="none" stroke="#ADADFF" stroke-width="1.5" stroke-linecap="square" x1="202.493" y1="74.533" x2="208.889" y2="74.533"/>
</g>
<g id="neggreen">
	<g id="negg">
		<path fill="none" stroke="#00ED95" stroke-width="1.2857" stroke-linecap="square" d="M102.637,67.794h6.803v0.682l-3.402,6.122
			c1.879,0,3.402,1.523,3.402,3.401c0,1.88-1.523,3.401-3.402,3.401s-3.402-1.521-3.402-3.401"/>
		<polyline fill="none" stroke="#00ED95" stroke-width="1.2857" stroke-linecap="square" points="120.179,77.318 112.015,77.318 
			112.015,76.637 117.458,67.794 118.138,67.794 118.138,81.4 		"/>
	</g>
</g>
<g id="green_1_">
	<g id="g">
		<path fill="none" stroke="#00ED95" stroke-width="1.2857" stroke-linecap="square" d="M99.96,66.094h8.504v0.852l-4.253,7.652
			c2.349,0,4.253,1.904,4.253,4.252s-1.904,4.25-4.253,4.25s-4.252-1.898-4.252-4.25"/>
		<polyline fill="none" stroke="#00ED95" stroke-width="1.2857" stroke-linecap="square" points="121.888,77.998 111.683,77.998 
			111.683,77.147 118.485,66.094 119.337,66.094 119.337,83.102 		"/>
	</g>
</g>
</svg>
