<?xml version="1.0" encoding="utf-8"?>
<!-- Generator: Adobe Illustrator 14.0.0, SVG Export Plug-In . SVG Version: 6.00 Build 43363)  -->
<!DOCTYPE svg PUBLIC "-//W3C//DTD SVG 1.1//EN" "http://www.w3.org/Graphics/SVG/1.1/DTD/svg11.dtd">
<svg version="1.1" id="Layer_1" xmlns="http://www.w3.org/2000/svg" xmlns:xlink="http://www.w3.org/1999/xlink" x="0px" y="0px"
	 width="320px" height="160px" viewBox="0 0 320 160" enable-background="new 0 0 320 160" xml:space="preserve">
<g id="static">
	<line fill="none" stroke="#382649" stroke-width="1.5" x1="64.495" y1="102.208" x2="163.162" y2="136.875"/>
	<line fill="none" stroke="#382649" stroke-width="1.5" x1="179.162" y1="132.208" x2="80.162" y2="98.541"/>
	<line fill="none" stroke="#382649" stroke-width="1.5" x1="195.162" y1="127.541" x2="95.828" y2="94.875"/>
	<line fill="none" stroke="#382649" stroke-width="1.5" x1="211.162" y1="122.874" x2="111.496" y2="91.207"/>
	<line fill="none" stroke="#382649" stroke-width="1.5" x1="227.162" y1="118.209" x2="127.162" y2="87.542"/>
	<line fill="none" stroke="#382649" stroke-width="1.5" x1="243.162" y1="113.542" x2="142.828" y2="83.875"/>
	<line fill="none" stroke="#382649" stroke-width="1.5" x1="259.162" y1="108.875" x2="158.495" y2="80.208"/>
	<line fill="none" stroke="#382649" stroke-width="1.5" x1="275.162" y1="104.208" x2="174.163" y2="76.53"/>
	<line fill="none" stroke="#382649" stroke-width="1.5" x1="291.162" y1="99.541" x2="189.828" y2="72.864"/>
	<line fill="none" stroke="#382649" stroke-width="1.5" x1="189.828" y1="72.864" x2="64.495" y2="102.208"/>
	<line fill="none" stroke="#382649" stroke-width="1.5" x1="80.94" y1="107.986" x2="206.718" y2="77.309"/>
	<line fill="none" stroke="#382649" stroke-width="1.5" x1="97.384" y1="113.764" x2="223.605" y2="81.764"/>
	<line fill="none" stroke="#382649" stroke-width="1.5" x1="113.828" y1="119.541" x2="240.495" y2="86.208"/>
	<line fill="none" stroke="#382649" stroke-width="1.5" x1="130.273" y1="125.32" x2="257.385" y2="90.652"/>
	<line fill="none" stroke="#382649" stroke-width="1.5" x1="146.717" y1="131.096" x2="274.273" y2="95.098"/>
	<line fill="none" stroke="#382649" stroke-width="1.5" x1="163.162" y1="136.875" x2="291.162" y2="99.541"/>
	<polyline fill="none" stroke="#8080BD" stroke-width="1.5" stroke-linecap="square" points="18.888,19.424 21.439,10.92 
		21.865,10.92 24.415,19.424 	"/>
	<line fill="none" stroke="#8080BD" stroke-width="1.5" stroke-linecap="square" x1="19.737" y1="16.449" x2="23.564" y2="16.449"/>
	<polyline fill="none" stroke="#8080BD" stroke-width="1.5" stroke-linecap="square" points="11.079,19.424 11.079,10.92 
		11.504,10.92 13.63,15.599 14.055,15.599 16.181,10.92 16.606,10.92 16.606,19.424 	"/>
	<polyline fill="none" stroke="#8080BD" stroke-width="1.5" stroke-linecap="square" points="26.541,10.92 26.541,11.345 31.217,19 
		31.217,19.424 	"/>
	<polyline fill="none" stroke="#8080BD" stroke-width="1.5" stroke-linecap="square" points="26.541,19.424 26.541,19.001 
		31.217,11.347 31.217,10.92 	"/>
	<polyline fill="none" stroke="#8080BD" stroke-width="1.5" stroke-linecap="square" points="25.354,114.482 25.354,105.979 
		25.779,105.979 29.182,114.482 29.606,114.482 29.606,105.979 	"/>
	
		<line fill="none" stroke="#8080BD" stroke-width="1.5" stroke-linecap="square" x1="21.728" y1="105.979" x2="21.728" y2="114.482"/>
	<polyline fill="none" stroke="#8080BD" stroke-width="1.5" stroke-linecap="square" points="12.528,114.482 12.528,105.979 
		12.953,105.979 15.08,110.656 15.504,110.656 17.631,105.979 18.056,105.979 18.056,114.482 	"/>
	<line fill="none" stroke="#382649" stroke-width="1.5" x1="168.807" y1="139.068" x2="179.782" y2="143.146"/>
	<line fill="none" stroke="#382649" stroke-width="1.5" x1="184.682" y1="134.365" x2="195.689" y2="138.309"/>
	<line fill="none" stroke="#382649" stroke-width="1.5" x1="200.557" y1="129.662" x2="211.6" y2="133.473"/>
	<line fill="none" stroke="#382649" stroke-width="1.5" x1="216.432" y1="124.958" x2="227.508" y2="128.635"/>
	<line fill="none" stroke="#382649" stroke-width="1.5" x1="232.307" y1="120.254" x2="243.416" y2="123.797"/>
	<line fill="none" stroke="#382649" stroke-width="1.5" x1="248.182" y1="115.551" x2="259.323" y2="118.959"/>
	<line fill="none" stroke="#382649" stroke-width="1.5" x1="264.057" y1="110.846" x2="275.23" y2="114.123"/>
	<line fill="none" stroke="#382649" stroke-width="1.5" x1="279.932" y1="106.143" x2="291.141" y2="109.287"/>
	<line fill="none" stroke="#382649" stroke-width="1.5" x1="295.807" y1="101.439" x2="307.049" y2="104.449"/>
	<g>
		<line fill="none" stroke="#382649" stroke-width="1.5" x1="59.389" y1="103.75" x2="40.14" y2="108.785"/>
		<line fill="none" stroke="#382649" stroke-width="1.5" x1="59.389" y1="99.49" x2="48.308" y2="102.252"/>
		<line fill="none" stroke="#382649" stroke-width="1.5" x1="59.389" y1="95.23" x2="48.308" y2="97.852"/>
		<line fill="none" stroke="#382649" stroke-width="1.5" x1="59.389" y1="90.971" x2="48.308" y2="93.453"/>
		<line fill="none" stroke="#382649" stroke-width="1.5" x1="59.389" y1="86.713" x2="48.308" y2="89.055"/>
		<line fill="none" stroke="#382649" stroke-width="1.5" x1="59.389" y1="82.453" x2="48.308" y2="84.654"/>
		<line fill="none" stroke="#382649" stroke-width="1.5" x1="59.389" y1="78.189" x2="48.308" y2="80.255"/>
		<line fill="none" stroke="#382649" stroke-width="1.5" x1="59.389" y1="73.924" x2="48.308" y2="75.845"/>
		<line fill="none" stroke="#382649" stroke-width="1.5" x1="59.389" y1="69.664" x2="48.308" y2="71.447"/>
		<line fill="none" stroke="#382649" stroke-width="1.5" x1="59.389" y1="65.405" x2="48.308" y2="67.047"/>
		<line fill="none" stroke="#382649" stroke-width="1.5" x1="59.389" y1="61.146" x2="48.308" y2="62.648"/>
		<line fill="none" stroke="#382649" stroke-width="1.5" x1="59.389" y1="56.886" x2="40.14" y2="59.049"/>
		<line fill="none" stroke="#382649" stroke-width="1.5" x1="59.389" y1="52.626" x2="48.308" y2="53.849"/>
		<line fill="none" stroke="#382649" stroke-width="1.5" x1="59.389" y1="48.367" x2="48.308" y2="49.45"/>
		<line fill="none" stroke="#382649" stroke-width="1.5" x1="59.389" y1="44.107" x2="48.308" y2="45.051"/>
		<line fill="none" stroke="#382649" stroke-width="1.5" x1="59.389" y1="39.848" x2="48.308" y2="40.651"/>
		<line fill="none" stroke="#382649" stroke-width="1.5" x1="59.389" y1="35.589" x2="48.308" y2="36.253"/>
		<line fill="none" stroke="#382649" stroke-width="1.5" x1="59.389" y1="31.33" x2="48.308" y2="31.854"/>
		<line fill="none" stroke="#382649" stroke-width="1.5" x1="59.389" y1="27.071" x2="48.308" y2="27.454"/>
		<line fill="none" stroke="#382649" stroke-width="1.5" x1="59.389" y1="22.812" x2="48.308" y2="23.054"/>
		<line fill="none" stroke="#382649" stroke-width="1.5" x1="59.389" y1="18.552" x2="48.308" y2="18.656"/>
		<line fill="none" stroke="#382649" stroke-width="1.5" x1="59.389" y1="14.292" x2="40.14" y2="14.524"/>
	</g>
</g>
<g>
	<line id="g0" fill="none" stroke="#00ED6D" stroke-width="1.5" x1="59.889" y1="103.85" x2="40.64" y2="108.885"/>
	<line id="g1" fill="none" stroke="#00ED6D" stroke-width="1.5" x1="59.889" y1="99.59" x2="48.809" y2="102.352"/>
	<line id="g2" fill="none" stroke="#00ED6D" stroke-width="1.5" x1="59.889" y1="95.331" x2="48.809" y2="97.951"/>
	<line id="g3" fill="none" stroke="#00ED6D" stroke-width="1.5" x1="59.889" y1="91.07" x2="48.809" y2="93.553"/>
	<line id="g4" fill="none" stroke="#00ED6D" stroke-width="1.5" x1="59.889" y1="86.812" x2="48.809" y2="89.154"/>
	<line id="g5" fill="none" stroke="#00ED6D" stroke-width="1.5" x1="59.889" y1="82.553" x2="48.809" y2="84.754"/>
	<line id="g6" fill="none" stroke="#00ED6D" stroke-width="1.5" x1="59.889" y1="78.289" x2="48.809" y2="80.355"/>
	<line id="g7" fill="none" stroke="#00ED6D" stroke-width="1.5" x1="59.889" y1="74.025" x2="48.809" y2="75.945"/>
	<line id="g8" fill="none" stroke="#00ED6D" stroke-width="1.5" x1="59.889" y1="69.764" x2="48.809" y2="71.547"/>
	<line id="g9" fill="none" stroke="#00ED6D" stroke-width="1.5" x1="59.889" y1="65.505" x2="48.809" y2="67.148"/>
	<line id="g10" fill="none" stroke="#00ED6D" stroke-width="1.5" x1="59.889" y1="61.245" x2="48.809" y2="62.748"/>
	<line id="g11" fill="none" stroke="#00ED6D" stroke-width="1.5" x1="59.889" y1="56.986" x2="40.64" y2="59.15"/>
	<line id="g12" fill="none" stroke="#00ED6D" stroke-width="1.5" x1="59.889" y1="52.726" x2="48.809" y2="53.948"/>
	<line id="g13" fill="none" stroke="#00ED6D" stroke-width="1.5" x1="59.889" y1="48.467" x2="48.809" y2="49.55"/>
	<line id="g14" fill="none" stroke="#00ED6D" stroke-width="1.5" x1="59.889" y1="44.207" x2="48.809" y2="45.151"/>
	<line id="g15" fill="none" stroke="#00ED6D" stroke-width="1.5" x1="59.889" y1="39.948" x2="48.809" y2="40.751"/>
	<line id="g16" fill="none" stroke="#00ED6D" stroke-width="1.5" x1="59.889" y1="35.689" x2="48.809" y2="36.354"/>
	<line id="g17" fill="none" stroke="#00ED6D" stroke-width="1.5" x1="59.889" y1="31.43" x2="48.809" y2="31.954"/>
	<line id="g18" fill="none" stroke="#00ED6D" stroke-width="1.5" x1="59.889" y1="27.171" x2="48.809" y2="27.554"/>
	<line id="g19" fill="none" stroke="#00ED6D" stroke-width="1.5" x1="59.889" y1="22.911" x2="48.809" y2="23.154"/>
	<line id="g20" fill="none" stroke="#00ED6D" stroke-width="1.5" x1="59.889" y1="18.652" x2="48.809" y2="18.756"/>
	<line id="g21" fill="none" stroke="#00ED6D" stroke-width="1.5" x1="59.889" y1="14.392" x2="40.64" y2="14.624"/>
</g>
<g id="w1">
	<circle fill="#FFFFFF" stroke="#FFFFFF" stroke-width="1.5" cx="290.062" cy="99.01" r="2.666"/>
	<line fill="none" stroke="#FFFFFF" stroke-width="1.5" x1="306.062" y1="104.342" x2="290.062" y2="99.01"/>
</g>
<g id="w0">
	<circle fill="#FFFFFF" stroke="#FFFFFF" stroke-width="1.5" cx="163.376" cy="137.01" r="2.666"/>
	<line fill="none" stroke="#FFFFFF" stroke-width="1.5" x1="179.292" y1="142.705" x2="163.376" y2="137.01"/>
</g>
<line id="red_1_" fill="none" stroke="#4E2832" stroke-width="1.5" x1="290.312" y1="12.473" x2="290.312" y2="77.54"/>
<polyline id="line2" fill="none" stroke="#00ACFA" stroke-width="1.5" points="86.324,11.637 91.803,44.864 95.912,48.329 
	101.393,54.104 105.502,62.186 109.611,66.805 113.72,70.271 120.57,78.36 124.679,86.449 131.528,92.223 137.008,101.459 
	143.856,109.547 145.227,113.01 150.707,116.475 169.691,124.509 "/>
<polyline id="line1" fill="none" stroke="#516DE8" stroke-width="1.5" points="78.701,11.637 84.179,46.99 88.288,50.453 
	93.768,56.229 97.878,64.312 101.986,68.93 106.094,72.396 112.945,80.49 117.056,88.574 123.904,94.348 129.383,103.588 
	136.233,111.672 137.602,115.135 143.082,118.6 162.066,126.634 "/>
<polyline id="line0" fill="none" stroke="#698CFF" stroke-width="1.5" stroke-dasharray="4,2" points="71.273,11.637 73.454,46.58 
	75.796,51.264 80.48,62.971 85.854,102.707 109.271,112.072 115.91,96.182 121.39,105.422 128.239,113.504 129.608,116.969 
	135.089,120.432 154.073,128.467 "/>
<polyline id="line3" fill="none" stroke="#00A7A7" stroke-width="1.5" points="93.949,11.637 99.428,42.738 103.537,46.203 
	109.017,51.978 113.127,60.061 117.236,64.68 121.345,68.145 128.194,76.229 132.304,84.324 139.153,90.098 144.634,99.336 
	151.481,107.42 152.85,110.883 158.331,114.348 177.314,122.382 "/>
<polyline id="line4" fill="none" stroke="#00ED95" stroke-width="1.5" points="101.574,11.637 107.053,40.613 111.162,44.078 
	116.643,49.851 120.752,57.934 124.861,62.553 128.97,66.02 135.819,74.104 139.929,82.197 146.778,87.973 152.258,97.209 
	159.107,105.294 160.478,108.758 165.957,112.223 184.939,120.256 "/>
<polyline id="line5" fill="none" stroke="#00ED6D" stroke-width="1.5" points="109.2,11.637 114.678,38.488 118.788,41.952 
	124.268,47.726 128.377,55.809 132.486,60.429 136.595,63.893 143.444,71.978 147.555,80.072 154.403,85.846 159.882,95.084 
	166.73,103.168 168.102,106.633 173.581,110.098 192.564,118.13 "/>
<polyline id="line6" fill="none" stroke="#00ED95" stroke-width="1.5" points="116.825,11.637 122.303,36.362 126.412,39.826 
	131.892,45.601 136.002,53.684 140.11,58.303 144.22,61.767 151.069,69.851 155.18,77.939 162.025,83.721 167.508,92.959 
	174.355,101.043 175.727,104.508 181.205,107.973 200.189,116.004 "/>
<polyline id="line7" fill="none" stroke="#B1B9C3" stroke-width="1.5" points="124.449,11.637 129.928,34.235 134.036,37.699 
	139.517,43.474 143.626,51.558 147.735,56.177 151.844,59.641 158.694,67.725 162.805,75.809 169.65,81.594 175.133,90.832 
	181.98,98.916 183.352,102.381 188.83,105.846 207.814,113.879 "/>
<polyline id="line8" fill="none" stroke="#B1B9C3" stroke-width="1.5" points="132.073,11.637 137.552,32.109 141.661,35.574 
	147.142,41.348 151.251,49.432 155.36,54.05 159.469,57.516 166.316,65.6 170.428,73.684 177.275,79.468 182.758,88.707 
	189.604,96.791 190.975,100.256 196.455,103.719 215.439,111.753 "/>
<polyline id="line9" fill="none" stroke="#CCD5E0" stroke-width="1.5" points="139.698,11.637 145.177,29.984 149.286,33.448 
	154.767,39.222 158.876,47.307 162.982,51.926 167.094,55.39 173.941,63.475 178.055,71.558 184.9,77.333 190.381,86.582 
	197.23,94.666 198.6,98.131 204.08,101.594 223.062,109.627 "/>
<polyline id="line10" fill="none" stroke="#FFFFFF" stroke-width="1.5" points="147.323,11.637 152.802,27.858 156.912,31.323 
	162.395,37.096 166.501,45.18 170.609,49.8 174.719,53.265 181.568,61.348 185.68,69.432 192.525,75.207 198.006,84.456 
	204.855,92.54 206.227,96.004 211.705,99.469 230.688,107.501 "/>
<polyline id="line11" fill="none" stroke="#FF3A5D" stroke-width="1.5" points="154.949,11.637 160.427,25.732 164.536,29.197 
	170.018,34.972 174.126,43.054 178.232,47.675 182.346,51.139 189.191,59.223 193.303,67.307 200.15,73.08 205.632,82.33 
	212.48,90.414 213.852,93.879 219.329,97.344 238.312,105.376 "/>
<polyline id="line12" fill="none" stroke="#FF3A5D" stroke-width="1.5" points="162.57,11.637 168.052,23.606 172.162,27.071 
	177.643,32.846 181.749,40.928 185.857,45.548 189.968,49.013 196.816,57.096 200.928,65.181 207.775,70.954 213.256,80.205 
	220.105,88.289 221.477,91.752 226.954,95.219 245.938,103.247 "/>
<polyline id="line13" fill="none" stroke="#A93A5D" stroke-width="1.5" points="170.195,11.637 175.676,21.481 179.784,24.945 
	185.266,30.72 189.374,38.803 193.482,43.422 197.593,46.885 204.441,54.97 208.551,63.054 215.4,68.829 220.882,78.072 
	227.729,86.163 229.1,89.627 234.578,93.092 253.564,101.124 "/>
<polyline id="line14" fill="none" stroke="#A93A88" stroke-width="1.5" points="177.82,11.637 183.301,19.355 187.409,22.819 
	192.893,28.595 197,36.677 201.107,41.297 205.218,44.762 212.066,52.846 216.177,60.929 223.025,66.703 228.507,75.942 
	235.354,84.036 236.727,87.502 242.205,90.967 261.189,98.997 "/>
<polyline id="line15" fill="none" stroke="#62358E" stroke-width="1.5" points="186.146,11.637 208.495,39.887 240.495,45.22 
	240.493,85.23 267.268,96.859 "/>
</svg>
