<?xml version="1.0" encoding="utf-8"?>
<!-- Generator: Adobe Illustrator 13.0.0, SVG Export Plug-In . SVG Version: 6.00 Build 14948)  -->
<!DOCTYPE svg PUBLIC "-//W3C//DTD SVG 1.1//EN" "http://www.w3.org/Graphics/SVG/1.1/DTD/svg11.dtd">
<svg version="1.1" id="Layer_1" xmlns="http://www.w3.org/2000/svg" xmlns:xlink="http://www.w3.org/1999/xlink" x="0px" y="0px"
	 width="320px" height="160px" viewBox="0 0 320 160" enable-background="new 0 0 320 160" xml:space="preserve">
<rect id="bg" width="320" height="160"/>
<g id="_x33_">
	<path fill="none" stroke="#DFD9FF" stroke-width="1.5" d="M198.211,128.368v5.478c0,0.942,0.768,1.709,1.705,1.709
		c0.941,0,1.707-0.766,1.707-1.709v-5.478"/>
	<path fill="none" stroke="#DFD9FF" stroke-width="1.5" d="M194.793,128.368v5.478c0.002,0.943,0.764,1.709,1.707,1.709
		s1.711-0.767,1.711-1.709v-5.478"/>
	<path fill="none" stroke="#DFD9FF" stroke-width="1.5" d="M191.377,121.579v10.985c0,0.942,0.77,1.707,1.709,1.707
		c0.943,0,1.707-0.765,1.707-1.707v-4.196"/>
	<path fill="none" stroke="#DFD9FF" stroke-width="1.5" d="M201.623,132.564v8.968c0,1.179,0.956,2.134,2.135,2.134
		c1.186,0,2.076-0.955,2.076-2.134v-16.257l4.527,4.529c0.832,0.831,2.186,0.831,3.02-0.003c0.834-0.832,0.834-2.188,0-3.021
		l-7.484-7.455"/>
</g>
<g id="_x34_">
	<path fill="none" stroke="#DFD9FF" stroke-width="1.5" d="M277.878,129.339v5.478c0,0.942,0.769,1.709,1.705,1.709
		c0.942,0,1.707-0.766,1.707-1.709v-5.478"/>
	<path fill="none" stroke="#DFD9FF" stroke-width="1.5" d="M274.46,129.339v5.478c0.002,0.943,0.765,1.709,1.707,1.709
		s1.711-0.767,1.711-1.709v-5.478"/>
	<path fill="none" stroke="#DFD9FF" stroke-width="1.5" d="M271.044,122.55v10.985c0,0.943,0.771,1.707,1.709,1.707
		c0.942,0,1.707-0.764,1.707-1.707v-4.196"/>
	<path fill="none" stroke="#DFD9FF" stroke-width="1.5" d="M281.29,133.535v8.968c0,1.179,0.956,2.134,2.135,2.134
		c1.185,0,2.076-0.955,2.076-2.134v-16.257l4.526,4.529c0.832,0.832,2.187,0.832,3.021-0.002c0.834-0.832,0.834-2.188,0-3.021
		l-7.485-7.455"/>
</g>
<g id="_x31_">
	<path fill="none" stroke="#DFD9FF" stroke-width="1.5" d="M38.918,131.358v5.478c0,0.942,0.768,1.709,1.705,1.709
		c0.941,0,1.707-0.766,1.707-1.709v-5.478"/>
	<path fill="none" stroke="#DFD9FF" stroke-width="1.5" d="M35.5,131.358v5.478c0.002,0.943,0.764,1.709,1.707,1.709
		s1.711-0.767,1.711-1.709v-5.478"/>
	<path fill="none" stroke="#DFD9FF" stroke-width="1.5" d="M32.084,124.569v10.985c0,0.942,0.77,1.707,1.709,1.707
		c0.943,0,1.707-0.765,1.707-1.707v-4.196"/>
	<path fill="none" stroke="#DFD9FF" stroke-width="1.5" d="M42.33,135.555v8.968c0,1.179,0.956,2.134,2.135,2.134
		c1.186,0,2.076-0.955,2.076-2.134v-16.257l4.527,4.529c0.832,0.831,2.186,0.831,3.02-0.003c0.834-0.832,0.834-2.188,0-3.021
		l-7.484-7.455"/>
</g>
</svg>
