<?xml version="1.0" encoding="utf-8"?>
<!-- Generator: Adobe Illustrator 14.0.0, SVG Export Plug-In . SVG Version: 6.00 Build 43363)  -->
<!DOCTYPE svg PUBLIC "-//W3C//DTD SVG 1.1//EN" "http://www.w3.org/Graphics/SVG/1.1/DTD/svg11.dtd">
<svg version="1.1" id="Layer_1" xmlns="http://www.w3.org/2000/svg" xmlns:xlink="http://www.w3.org/1999/xlink" x="0px" y="0px"
	 width="320px" height="160px" viewBox="0 0 320 160" enable-background="new 0 0 320 160" xml:space="preserve">
<path id="white" fill="#FFFFFF" d="M163.047,80.87c0,1.771-1.541,3.206-3.443,3.206s-3.444-1.436-3.444-3.206
	c0-1.772,1.542-3.208,3.444-3.208S163.047,79.098,163.047,80.87"/>
<path id="red" fill="#FF3A5D" d="M162.641,80.598c0,1.762-1.541,3.193-3.439,3.193c-1.9,0-3.443-1.434-3.443-3.193
	c0-1.773,1.543-3.208,3.443-3.208C161.1,77.388,162.641,78.824,162.641,80.598"/>
<path id="green" fill="#00ED95" d="M162.921,80.825c0,1.771-1.541,3.205-3.442,3.205c-1.902,0-3.445-1.437-3.445-3.205
	c0-1.774,1.543-3.21,3.445-3.21C161.38,77.615,162.921,79.051,162.921,80.825"/>
<path id="blue2" fill="#4D9EFF" d="M162.921,80.93c0,1.764-1.541,3.189-3.442,3.189c-1.902,0-3.445-1.428-3.445-3.189
	c0-1.771,1.543-3.208,3.445-3.208C161.38,77.722,162.921,79.158,162.921,80.93"/>
<path id="blue1" fill="#4D9EFF" d="M162.921,80.83c0,1.763-1.541,3.189-3.442,3.189c-1.902,0-3.445-1.43-3.445-3.189
	c0-1.772,1.543-3.208,3.445-3.208C161.38,77.622,162.921,79.058,162.921,80.83"/>
<path id="blue0_2_" fill="#4D9EFF" d="M162.921,80.73c0,1.763-1.541,3.188-3.442,3.188c-1.902,0-3.445-1.427-3.445-3.188
	c0-1.773,1.543-3.208,3.445-3.208C161.38,77.522,162.921,78.958,162.921,80.73"/>
<line id="line" fill="none" stroke="#9256D7" stroke-width="1.5" x1="249.134" y1="50.807" x2="77.857" y2="75.973"/>
</svg>
