<?xml version="1.0" encoding="utf-8"?>
<!-- Generator: Adobe Illustrator 14.0.0, SVG Export Plug-In . SVG Version: 6.00 Build 43363)  -->
<!DOCTYPE svg PUBLIC "-//W3C//DTD SVG 1.1//EN" "http://www.w3.org/Graphics/SVG/1.1/DTD/svg11.dtd">
<svg version="1.1" id="Layer_1" xmlns="http://www.w3.org/2000/svg" xmlns:xlink="http://www.w3.org/1999/xlink" x="0px" y="0px"
	 width="320px" height="160px" viewBox="0 0 320 160" enable-background="new 0 0 320 160" xml:space="preserve">
<rect id="bg" width="320" height="160"/>
<g id="txt">
	<g>
		<g id="_x34_">
			<polyline fill="none" stroke="#87839C" stroke-width="1.5" stroke-linecap="square" points="221.869,73.083 206.471,73.083 
				206.471,72.312 217.25,62.299 218.018,62.299 218.018,77.698 			"/>
			
				<rect x="200.049" y="55.88" fill="none" stroke="#87839C" stroke-width="1.5" stroke-linecap="square" width="28.236" height="28.241"/>
		</g>
		<g id="_x33_">
			
				<rect x="161.867" y="55.88" fill="none" stroke="#87839C" stroke-width="1.5" stroke-linecap="square" width="28.223" height="28.241"/>
			<path fill="none" stroke="#87839C" stroke-width="1.5" stroke-linecap="square" d="M168.277,66.267
				c0-2.189,1.771-3.968,3.965-3.968h7.514c2.164,0,3.92,1.722,3.92,3.886c0,2.168-1.758,3.814-3.92,3.814h-6.859h6.859
				c2.164,0,3.92,1.646,3.92,3.812s-1.758,3.889-3.92,3.889h-7.514c-2.188,0-3.965-1.775-3.965-3.969"/>
		</g>
		<g id="_x31_">
			
				<rect x="85.478" y="55.88" fill="none" stroke="#87839C" stroke-width="1.5" stroke-linecap="square" width="28.235" height="28.241"/>
			
				<line fill="none" stroke="#87839C" stroke-width="1.5" stroke-linecap="square" x1="99.595" y1="62.301" x2="99.595" y2="77.701"/>
		</g>
		<g id="_x32_">
			
				<rect x="123.665" y="55.88" fill="none" stroke="#87839C" stroke-width="1.5" stroke-linecap="square" width="28.24" height="28.241"/>
			<path fill="none" stroke="#87839C" stroke-width="1.5" stroke-linecap="square" d="M130.469,67.504
				c0-2.875,2.33-5.204,5.203-5.204h4.035c2.842,0,5.145,2.259,5.145,5.101c0,2.304-1.295,4.095-3.604,4.91l-10.777,4.619v0.771
				H145.1"/>
		</g>
	</g>
	<g>
		
			<line id="_x31__89_" fill="none" stroke="#B4AECF" stroke-width="1.5" stroke-linecap="square" x1="167.248" y1="113.82" x2="167.248" y2="125.156"/>
		<path id="s_108_" fill="none" stroke="#B4AECF" stroke-width="1.5" stroke-linecap="square" d="M231.025,122.324
			c0,1.564,1.271,2.834,2.834,2.834s2.836-1.27,2.836-2.834c0-0.639-0.434-1.506-1.217-1.99c-0.686-0.418-2.625-1.23-3.299-1.666
			c-0.834-0.533-1.152-1.375-1.152-2.014c0-1.564,1.271-2.834,2.836-2.834c1.564,0,2.834,1.27,2.834,2.834"/>
		<path id="s_109_" fill="none" stroke="#B4AECF" stroke-width="1.5" stroke-linecap="square" d="M238.977,122.324
			c0,1.564,1.271,2.834,2.834,2.834c1.562,0,2.834-1.27,2.834-2.834c0-0.639-0.436-1.506-1.215-1.99
			c-0.687-0.418-2.623-1.23-3.304-1.666c-0.829-0.533-1.147-1.375-1.147-2.014c0-1.564,1.271-2.834,2.834-2.834
			c1.562,0,2.836,1.27,2.836,2.834"/>
		<path id="p_83_" fill="none" stroke="#B4AECF" stroke-width="1.5" stroke-linecap="square" d="M192.668,125.156V113.82h2.271
			c1.562,0,2.832,1.27,2.832,2.834l0,0c0,1.565-1.271,2.836-2.832,2.836h-2.271"/>
		<g id="t_132_">
			
				<line fill="none" stroke="#B4AECF" stroke-width="1.5" stroke-linecap="square" x1="69.116" y1="113.82" x2="76.201" y2="113.82"/>
			
				<line fill="none" stroke="#B4AECF" stroke-width="1.5" stroke-linecap="square" x1="72.801" y1="113.82" x2="72.801" y2="125.156"/>
		</g>
		<g id="t_134_">
			
				<line fill="none" stroke="#B4AECF" stroke-width="1.5" stroke-linecap="square" x1="122.299" y1="113.82" x2="129.386" y2="113.82"/>
			
				<line fill="none" stroke="#B4AECF" stroke-width="1.5" stroke-linecap="square" x1="125.985" y1="113.82" x2="125.985" y2="125.156"/>
		</g>
		<g id="a_108_">
			<polyline fill="none" stroke="#B4AECF" stroke-width="1.5" stroke-linecap="square" points="105.577,125.156 105.577,124.873 
				108.694,113.82 109.26,113.82 112.38,124.873 112.38,125.156 			"/>
			
				<line fill="none" stroke="#B4AECF" stroke-width="1.5" stroke-linecap="square" x1="106.712" y1="121.189" x2="111.245" y2="121.189"/>
		</g>
		<path id="r_96_" fill="none" stroke="#B4AECF" stroke-width="1.5" stroke-linecap="square" d="M200.094,125.156V113.82h2.271
			c1.562,0,2.835,1.27,2.835,2.834l0,0c0,1.565-1.271,2.834-2.835,2.834h-1.699l3.969,5.385v0.283"/>
		<path id="r_94_" fill="none" stroke="#B4AECF" stroke-width="1.5" stroke-linecap="square" d="M115.412,125.156V113.82h2.268
			c1.564,0,2.835,1.27,2.835,2.834l0,0c0,1.565-1.271,2.834-2.835,2.834h-1.7l3.968,5.385v0.283"/>
		<g id="g_26_">
			<path fill="none" stroke="#B4AECF" stroke-width="1.5" stroke-linecap="square" d="M184.967,122.324
				c0,1.564-1.271,2.834-2.834,2.834c-1.566,0-2.838-1.27-2.838-2.834v-5.67c0-1.564,1.271-2.834,2.838-2.834
				c1.562,0,2.834,1.27,2.834,2.834"/>
			<polyline fill="none" stroke="#B4AECF" stroke-width="1.5" stroke-linecap="square" points="181.564,119.488 184.967,119.488 
				184.967,125.156 			"/>
		</g>
		<g id="c_59_">
			<path fill="none" stroke="#B4AECF" stroke-width="1.5" stroke-linecap="square" d="M221.648,122.322
				c0,1.566-1.269,2.836-2.832,2.836c-1.565,0-2.834-1.27-2.834-2.836v-5.668c0-1.564,1.269-2.834,2.834-2.834
				c1.563,0,2.832,1.27,2.832,2.834"/>
		</g>
		<g id="e_192_">
			<polyline fill="none" stroke="#B4AECF" stroke-width="1.5" stroke-linecap="square" points="229.213,125.156 224.109,125.156 
				224.109,113.82 229.213,113.82 			"/>
			
				<line fill="none" stroke="#B4AECF" stroke-width="1.5" stroke-linecap="square" x1="224.109" y1="119.488" x2="228.648" y2="119.488"/>
		</g>
		<path id="s_106_" fill="none" stroke="#B4AECF" stroke-width="1.5" stroke-linecap="square" d="M90.854,122.324
			c0,1.564,1.268,2.834,2.834,2.834c1.564,0,2.833-1.27,2.833-2.834c0-0.639-0.434-1.506-1.217-1.988
			c-0.683-0.42-2.624-1.232-3.3-1.668c-0.832-0.533-1.15-1.375-1.15-2.012c0-1.566,1.269-2.836,2.834-2.836s2.834,1.27,2.834,2.836"
			/>
		<g id="t_133_">
			
				<line fill="none" stroke="#B4AECF" stroke-width="1.5" stroke-linecap="square" x1="98.108" y1="113.82" x2="105.194" y2="113.82"/>
			
				<line fill="none" stroke="#B4AECF" stroke-width="1.5" stroke-linecap="square" x1="101.794" y1="113.82" x2="101.794" y2="125.156"/>
		</g>
		<polyline id="n_91_" fill="none" stroke="#B4AECF" stroke-width="1.5" stroke-linecap="square" points="170.717,125.156 
			170.717,113.82 171.283,113.82 175.818,125.156 176.385,125.156 176.385,113.82 		"/>
		<path id="o_118_" fill="none" stroke="#B4AECF" stroke-width="1.5" stroke-linecap="square" d="M207.102,116.938v5.103
			c0,1.728,1.396,3.117,3.115,3.117c1.723,0,3.115-1.396,3.115-3.117l0,0l0,0v-5.103c0-1.721-1.396-3.117-3.115-3.117
			C208.495,113.82,207.102,115.217,207.102,116.938L207.102,116.938L207.102,116.938L207.102,116.938z"/>
		<path id="o_117_" fill="none" stroke="#B4AECF" stroke-width="1.5" stroke-linecap="square" d="M77.6,116.938v5.103
			c0,1.721,1.396,3.117,3.117,3.117c1.721,0,3.118-1.396,3.118-3.117l0,0l0,0v-5.103c0-1.721-1.396-3.117-3.118-3.117
			C78.995,113.82,77.6,115.217,77.6,116.938L77.6,116.938L77.6,116.938L77.6,116.938z"/>
		<g id="e_193_">
			<polyline fill="none" stroke="#B4AECF" stroke-width="1.5" stroke-linecap="square" points="139.96,125.156 134.858,125.156 
				134.858,113.82 139.96,113.82 			"/>
			
				<line fill="none" stroke="#B4AECF" stroke-width="1.5" stroke-linecap="square" x1="134.858" y1="119.488" x2="139.393" y2="119.488"/>
		</g>
		<path id="s_107_" fill="none" stroke="#B4AECF" stroke-width="1.5" stroke-linecap="square" d="M158.419,122.324
			c0,1.564,1.27,2.834,2.839,2.834c1.565,0,2.834-1.27,2.834-2.834c0-0.639-0.438-1.506-1.22-1.99
			c-0.687-0.418-2.627-1.23-3.302-1.666c-0.835-0.533-1.154-1.375-1.154-2.014c0-1.564,1.271-2.834,2.84-2.834
			c1.566,0,2.832,1.27,2.832,2.834"/>
		<g id="a_109_">
			<polyline fill="none" stroke="#B4AECF" stroke-width="1.5" stroke-linecap="square" points="149.348,125.156 149.346,124.873 
				152.465,113.82 153.032,113.82 156.153,124.873 156.153,125.156 			"/>
			
				<line fill="none" stroke="#B4AECF" stroke-width="1.5" stroke-linecap="square" x1="150.481" y1="121.189" x2="155.018" y2="121.189"/>
		</g>
		<path id="r_95_" fill="none" stroke="#B4AECF" stroke-width="1.5" stroke-linecap="square" d="M142.722,125.156V113.82h2.267
			c1.565,0,2.835,1.27,2.835,2.834l0,0c0,1.565-1.27,2.834-2.835,2.834h-1.699l3.968,5.385v0.283"/>
	</g>
	<g>
		
			<line id="_x31__88_" fill="none" stroke="#B4AECF" stroke-width="1.5" stroke-linecap="square" x1="224.93" y1="96.896" x2="224.93" y2="108.232"/>
		<polyline id="_x34__12_" fill="none" stroke="#B4AECF" stroke-width="1.5" stroke-linecap="square" points="242.945,104.832 
			236.145,104.832 236.145,104.264 240.68,96.896 241.246,96.896 241.246,108.232 		"/>
		<path id="s_105_" fill="none" stroke="#B4AECF" stroke-width="1.5" stroke-linecap="square" d="M211.662,105.398
			c0,1.565,1.27,2.834,2.834,2.834s2.834-1.269,2.834-2.834c0-0.64-0.434-1.506-1.217-1.988c-0.682-0.42-2.622-1.234-3.299-1.666
			c-0.834-0.535-1.151-1.377-1.151-2.016c0-1.564,1.269-2.834,2.835-2.834c1.564,0,2.835,1.27,2.835,2.834"/>
		<path id="s_102_" fill="none" stroke="#B4AECF" stroke-width="1.5" stroke-linecap="square" d="M96.049,105.398
			c0,1.565,1.269,2.834,2.834,2.834c1.565,0,2.834-1.269,2.834-2.834c0-0.638-0.434-1.506-1.217-1.988
			c-0.682-0.42-2.624-1.234-3.3-1.666c-0.833-0.533-1.151-1.377-1.151-2.014c0-1.566,1.269-2.836,2.834-2.836
			c1.565,0,2.834,1.27,2.834,2.836"/>
		<path id="s_103_" fill="none" stroke="#B4AECF" stroke-width="1.5" stroke-linecap="square" d="M104.148,105.398
			c0,1.565,1.269,2.834,2.834,2.834s2.834-1.269,2.834-2.834c0-0.638-0.434-1.506-1.217-1.988c-0.682-0.42-2.625-1.234-3.3-1.666
			c-0.833-0.533-1.151-1.377-1.151-2.014c0-1.566,1.269-2.836,2.834-2.836s2.834,1.27,2.834,2.836"/>
		<path id="p_82_" fill="none" stroke="#B4AECF" stroke-width="1.5" stroke-linecap="square" d="M73.818,108.232V96.896h2.27
			c1.564,0,2.834,1.268,2.834,2.834l0,0c0,1.565-1.271,2.834-2.834,2.834h-2.27"/>
		<g id="a_107_">
			<polyline fill="none" stroke="#B4AECF" stroke-width="1.5" stroke-linecap="square" points="158.457,108.232 158.455,107.951 
				161.574,96.896 162.143,96.896 165.258,107.951 165.258,108.232 			"/>
			
				<line fill="none" stroke="#B4AECF" stroke-width="1.5" stroke-linecap="square" x1="159.59" y1="104.266" x2="164.126" y2="104.266"/>
		</g>
		<g id="a_106_">
			<polyline fill="none" stroke="#B4AECF" stroke-width="1.5" stroke-linecap="square" points="115.946,108.232 115.946,107.951 
				119.063,96.896 119.63,96.896 122.749,107.951 122.749,108.232 			"/>
			
				<line fill="none" stroke="#B4AECF" stroke-width="1.5" stroke-linecap="square" x1="117.08" y1="104.264" x2="121.615" y2="104.264"/>
		</g>
		<g id="t_131_">
			
				<line fill="none" stroke="#B4AECF" stroke-width="1.5" stroke-linecap="square" x1="142.303" y1="96.896" x2="149.389" y2="96.896"/>
			
				<line fill="none" stroke="#B4AECF" stroke-width="1.5" stroke-linecap="square" x1="145.986" y1="96.896" x2="145.986" y2="108.232"/>
		</g>
		<g id="y_21_">
			<polyline fill="none" stroke="#B4AECF" stroke-width="1.5" stroke-linecap="square" points="204.199,96.896 204.199,97.463 
				207.035,103.133 209.87,97.463 209.87,96.896 			"/>
			
				<line fill="none" stroke="#B4AECF" stroke-width="1.5" stroke-linecap="square" x1="207.035" y1="103.133" x2="207.035" y2="108.232"/>
		</g>
		<path id="r_93_" fill="none" stroke="#B4AECF" stroke-width="1.5" stroke-linecap="square" d="M151.499,108.232V96.895h2.269
			c1.563,0,2.834,1.271,2.834,2.834l0,0c0,1.566-1.271,2.836-2.834,2.836h-1.701l3.973,5.386v0.282"/>
		<path id="r_92_" fill="none" stroke="#B4AECF" stroke-width="1.5" stroke-linecap="square" d="M81.244,108.232V96.895h2.268
			c1.566,0,2.834,1.271,2.834,2.836l0,0c0,1.566-1.27,2.834-2.834,2.834h-1.7l3.968,5.386v0.282"/>
		<g id="c_58_">
			<path fill="none" stroke="#B4AECF" stroke-width="1.5" stroke-linecap="square" d="M172.701,105.398
				c0,1.565-1.27,2.834-2.834,2.834c-1.566,0-2.835-1.269-2.835-2.834V99.73c0-1.566,1.269-2.834,2.835-2.834
				c1.564,0,2.834,1.268,2.834,2.834"/>
		</g>
		<g id="e_191_">
			<polyline fill="none" stroke="#B4AECF" stroke-width="1.5" stroke-linecap="square" points="201.932,108.232 196.829,108.232 
				196.829,96.896 201.932,96.896 			"/>
			
				<line fill="none" stroke="#B4AECF" stroke-width="1.5" stroke-linecap="square" x1="196.829" y1="102.564" x2="201.363" y2="102.564"/>
		</g>
		<g id="e_190_">
			<polyline fill="none" stroke="#B4AECF" stroke-width="1.5" stroke-linecap="square" points="93.826,108.232 88.723,108.232 
				88.723,96.896 93.826,96.896 			"/>
			
				<line fill="none" stroke="#B4AECF" stroke-width="1.5" stroke-linecap="square" x1="88.723" y1="102.564" x2="93.259" y2="102.564"/>
		</g>
		<g id="k_16_">
			
				<line fill="none" stroke="#B4AECF" stroke-width="1.5" stroke-linecap="square" x1="188.385" y1="96.896" x2="188.385" y2="108.232"/>
			<polyline fill="none" stroke="#B4AECF" stroke-width="1.5" stroke-linecap="square" points="194.053,96.896 194.053,97.18 
				188.471,104.148 			"/>
			<polyline fill="none" stroke="#B4AECF" stroke-width="1.5" stroke-linecap="square" points="190.084,102.281 194.619,107.951 
				194.619,108.232 			"/>
		</g>
		<g id="k_13_">
			
				<line fill="none" stroke="#B4AECF" stroke-width="1.5" stroke-linecap="square" x1="175.117" y1="96.896" x2="175.117" y2="108.232"/>
			<polyline fill="none" stroke="#B4AECF" stroke-width="1.5" stroke-linecap="square" points="180.787,96.896 180.787,97.18 
				175.204,104.148 			"/>
			<polyline fill="none" stroke="#B4AECF" stroke-width="1.5" stroke-linecap="square" points="176.818,102.281 181.354,107.951 
				181.355,108.232 			"/>
		</g>
		<polyline id="l_71_" fill="none" stroke="#B4AECF" stroke-width="1.5" stroke-linecap="square" points="125.417,96.896 
			125.417,108.232 130.524,108.232 		"/>
		<polyline id="l_72_" fill="none" stroke="#B4AECF" stroke-width="1.5" stroke-linecap="square" points="133.53,96.896 
			133.53,108.232 138.635,108.232 		"/>
		<g id="_x2D__3_">
			
				<line fill="none" stroke="#B4AECF" stroke-width="1.5" stroke-linecap="square" x1="227.902" y1="102.564" x2="233.574" y2="102.564"/>
		</g>
	</g>
	<g>
		<g>
			<path id="p_81_" fill="none" stroke="#B4AECF" stroke-width="1.5" stroke-linecap="square" d="M230.169,40.004V17.33h4.539
				c3.128,0,5.669,2.538,5.669,5.668l0,0c0,3.131-2.541,5.669-5.669,5.669h-4.539"/>
			<g id="a_104_">
				<polyline fill="none" stroke="#B4AECF" stroke-width="1.5" stroke-linecap="square" points="212.389,40.004 212.387,39.439 
					218.623,17.331 219.756,17.331 225.991,39.439 225.991,40.004 				"/>
				
					<line fill="none" stroke="#B4AECF" stroke-width="1.5" stroke-linecap="square" x1="214.654" y1="32.068" x2="223.725" y2="32.068"/>
			</g>
			<g id="t_129_">
				
					<line fill="none" stroke="#B4AECF" stroke-width="1.5" stroke-linecap="square" x1="198.288" y1="17.33" x2="212.46" y2="17.33"/>
				
					<line fill="none" stroke="#B4AECF" stroke-width="1.5" stroke-linecap="square" x1="205.658" y1="17.33" x2="205.658" y2="40.005"/>
			</g>
			<g id="e_187_">
				<polyline fill="none" stroke="#B4AECF" stroke-width="1.5" stroke-linecap="square" points="127.588,40.005 117.382,40.005 
					117.382,17.33 127.588,17.33 				"/>
				
					<line fill="none" stroke="#B4AECF" stroke-width="1.5" stroke-linecap="square" x1="117.382" y1="28.667" x2="126.454" y2="28.667"/>
			</g>
			<path id="s_101_" fill="none" stroke="#B4AECF" stroke-width="1.5" stroke-linecap="square" d="M161.941,34.336
				c0,3.13,2.537,5.669,5.668,5.669c3.132,0,5.668-2.539,5.668-5.669c0-1.275-0.866-3.012-2.435-3.979
				c-1.362-0.842-5.247-2.469-6.604-3.332c-1.666-1.068-2.307-2.751-2.307-4.026c0-3.132,2.537-5.67,5.668-5.67
				c3.137,0,5.672,2.538,5.672,5.67"/>
			<g id="a_103_">
				<polyline fill="none" stroke="#B4AECF" stroke-width="1.5" stroke-linecap="square" points="145.175,40.004 145.175,39.439 
					151.41,17.331 152.544,17.331 158.779,39.439 158.779,40.004 				"/>
				
					<line fill="none" stroke="#B4AECF" stroke-width="1.5" stroke-linecap="square" x1="147.442" y1="32.069" x2="156.513" y2="32.069"/>
			</g>
			<path id="r_91_" fill="none" stroke="#B4AECF" stroke-width="1.5" stroke-linecap="square" d="M132.32,40.004V17.33h4.535
				c3.131,0,5.669,2.538,5.669,5.669l0,0c0,3.131-2.539,5.668-5.669,5.668h-3.4l7.936,10.772v0.566"/>
			<g id="e_188_">
				<polyline fill="none" stroke="#B4AECF" stroke-width="1.5" stroke-linecap="square" points="187.721,40.005 177.512,40.005 
					177.512,17.33 187.721,17.33 				"/>
				
					<line fill="none" stroke="#B4AECF" stroke-width="1.5" stroke-linecap="square" x1="177.512" y1="28.667" x2="186.586" y2="28.667"/>
			</g>
			<g id="e_189_">
				<polyline fill="none" stroke="#B4AECF" stroke-width="1.5" stroke-linecap="square" points="255.092,40.005 244.887,40.005 
					244.887,17.33 255.092,17.33 				"/>
				
					<line fill="none" stroke="#B4AECF" stroke-width="1.5" stroke-linecap="square" x1="244.887" y1="28.667" x2="253.959" y2="28.667"/>
			</g>
			<g id="_x3F_">
				<path fill="none" stroke="#B4AECF" stroke-width="1.5" stroke-linecap="square" d="M263.654,34.335
					c0-0.881-0.045-3.15,2.27-5.669l1.926-2.267c1.623-1.882,1.479-3.101,1.479-3.627c0-3.132-2.539-5.443-5.671-5.443
					c-3.135,0-5.672,2.539-5.672,5.67"/>
				
					<line fill="none" stroke="#B4AECF" stroke-width="1.5" stroke-linecap="square" x1="263.652" y1="40.006" x2="263.652" y2="38.873"/>
			</g>
		</g>
		<g>
			<circle fill="none" stroke="#FF3A5D" stroke-width="1.5" stroke-linecap="square" cx="91.862" cy="28.666" r="1.951"/>
			<circle fill="none" stroke="#FF3A5D" stroke-width="1.5" stroke-linecap="square" cx="91.817" cy="28.666" r="11.34"/>
			
				<line fill="none" stroke="#FF3A5D" stroke-width="1.5" stroke-linecap="square" x1="91.791" y1="23.876" x2="91.791" y2="19.145"/>
			
				<line fill="none" stroke="#FF3A5D" stroke-width="1.5" stroke-linecap="square" x1="87.603" y1="31.129" x2="83.503" y2="33.497"/>
			
				<line fill="none" stroke="#FF3A5D" stroke-width="1.5" stroke-linecap="square" x1="95.978" y1="31.13" x2="100.079" y2="33.497"/>
			<circle fill="none" stroke="#FF3A5D" stroke-width="1.5" stroke-linecap="square" cx="62.901" cy="28.666" r="2.043"/>
			<circle fill="none" stroke="#FF3A5D" stroke-width="1.5" stroke-linecap="square" cx="62.856" cy="28.666" r="11.339"/>
			
				<line fill="none" stroke="#FF3A5D" stroke-width="1.5" stroke-linecap="square" x1="62.829" y1="23.876" x2="62.829" y2="19.145"/>
			
				<line fill="none" stroke="#FF3A5D" stroke-width="1.5" stroke-linecap="square" x1="58.642" y1="31.129" x2="54.542" y2="33.497"/>
			
				<line fill="none" stroke="#FF3A5D" stroke-width="1.5" stroke-linecap="square" x1="67.018" y1="31.13" x2="71.118" y2="33.497"/>
			
				<line fill="none" stroke="#FF3A5D" stroke-width="1.5" stroke-linecap="square" x1="63.497" y1="39.994" x2="92.992" y2="39.994"/>
		</g>
	</g>
</g>
<g id="tape">
	<g id="grid">
		
			<line fill="none" stroke="#FF3A5D" stroke-width="1.5" stroke-linecap="square" x1="73.393" y1="125.586" x2="73.393" y2="119.686"/>
		
			<line fill="none" stroke="#FF3A5D" stroke-width="1.5" stroke-linecap="square" x1="128.757" y1="125.586" x2="128.757" y2="119.686"/>
		
			<line fill="none" stroke="#FF3A5D" stroke-width="1.5" stroke-linecap="square" x1="18.031" y1="125.586" x2="18.031" y2="119.686"/>
		
			<line fill="none" stroke="#FF3A5D" stroke-width="1.5" stroke-linecap="square" x1="239.482" y1="125.586" x2="239.482" y2="119.686"/>
		
			<line fill="none" stroke="#FF3A5D" stroke-width="1.5" stroke-linecap="square" x1="294.846" y1="125.586" x2="294.846" y2="119.686"/>
		
			<line fill="none" stroke="#FF3A5D" stroke-width="1.5" stroke-linecap="square" x1="184.119" y1="125.586" x2="184.119" y2="119.686"/>
	</g>
	<path id="frame_x5F_lsd" fill="none" stroke="#FF3A5D" stroke-width="1.5" stroke-linecap="square" d="M198.346,14.749
		c0,2.227-1.809,4.034-4.033,4.034c-2.229,0-4.027-1.807-4.027-4.034V6.68c0-2.229,1.812-4.035,4.027-4.035
		c2.229,0,4.033,1.807,4.033,4.035V14.749z"/>
	<path id="second_x5F_lsd" fill="none" stroke="#FF3A5D" stroke-width="1.5" stroke-linecap="square" d="M169.84,14.749
		c0,2.227-1.809,4.034-4.035,4.034c-2.226,0-4.033-1.807-4.033-4.034V6.68c0-2.229,1.812-4.035,4.033-4.035
		c2.229,0,4.035,1.807,4.035,4.035V14.749z"/>
	<path id="minute_x5F_lsd" fill="none" stroke="#FF3A5D" stroke-width="1.5" stroke-linecap="square" d="M140.02,18.784h-8.068
		l7.263-9.682c0.507-0.676,0.806-1.513,0.806-2.42c0-2.229-1.804-4.035-4.032-4.035c-2.228,0-4.034,1.807-4.034,4.035"/>
	<path id="frame_x5F_msd" fill="none" stroke="#FF3A5D" stroke-width="1.5" stroke-linecap="square" d="M186.648,18.784h-8.07
		l7.271-9.682c0.508-0.676,0.812-1.513,0.812-2.42c0-2.229-1.812-4.035-4.033-4.035c-2.229,0-4.03,1.807-4.03,4.035"/>
	<path id="minute_x5F_msd" fill="none" stroke="#FF3A5D" stroke-width="1.5" stroke-linecap="square" d="M128.621,14.749
		c0,2.227-1.808,4.033-4.035,4.033c-2.226,0-4.033-1.807-4.033-4.033V6.68c0-2.229,1.811-4.035,4.033-4.035
		c2.229,0,4.035,1.807,4.035,4.035V14.749z"/>
	<path id="second_x5F_msd" fill="none" stroke="#FF3A5D" stroke-width="1.5" stroke-linecap="square" d="M158.014,2.645h-8.068
		v12.103c0-2.228,1.807-4.034,4.029-4.034c2.229,0,4.037,1.807,4.037,4.034c0,2.229-1.809,4.035-4.037,4.035h-4.029"/>
	<g>
		<circle fill="none" stroke="#FF3A5D" stroke-width="1.5" stroke-linecap="square" cx="144.569" cy="7.925" r="0.678"/>
		<circle fill="none" stroke="#FF3A5D" stroke-width="1.5" stroke-linecap="square" cx="144.569" cy="15.504" r="0.678"/>
	</g>
	<g>
		<circle fill="none" stroke="#FF3A5D" stroke-width="1.5" stroke-linecap="square" cx="174.014" cy="7.925" r="0.678"/>
		<circle fill="none" stroke="#FF3A5D" stroke-width="1.5" stroke-linecap="square" cx="174.014" cy="15.504" r="0.678"/>
	</g>
	<path fill="none" stroke="#FF3A5D" stroke-width="1.5" stroke-linecap="square" d="M86.413,105.323
		c0.098-2.271,0.708-4.423,1.719-6.312"/>
	<path fill="none" stroke="#FF3A5D" stroke-width="1.5" stroke-linecap="square" d="M89.459,115.178
		c-0.32-0.441-0.616-0.906-0.887-1.389"/>
	<path fill="none" stroke="#FF3A5D" stroke-width="1.5" stroke-linecap="square" d="M234.283,100.088
		c-0.16-0.369-0.334-0.73-0.521-1.086"/>
	<path fill="none" stroke="#FF3A5D" stroke-width="1.5" stroke-linecap="square" d="M232.971,114.912
		c1.24-1.729,2.119-3.717,2.529-5.879"/>
	<circle fill="none" stroke="#FF3A5D" stroke-width="1.5" stroke-linecap="square" cx="233.609" cy="52.662" r="22.774"/>
	<g>
		
			<line fill="none" stroke="#FF3A5D" stroke-width="1.5" stroke-linecap="square" x1="213.912" y1="103.004" x2="232.52" y2="106.77"/>
		
			<line fill="none" stroke="#FF3A5D" stroke-width="1.5" stroke-linecap="square" x1="168.24" y1="111.637" x2="204.297" y2="103.004"/>
		
			<line fill="none" stroke="#FF3A5D" stroke-width="1.5" stroke-linecap="square" x1="120.207" y1="104.475" x2="154.242" y2="111.783"/>
		
			<line fill="none" stroke="#FF3A5D" stroke-width="1.5" stroke-linecap="square" x1="90.515" y1="111.166" x2="108.174" y2="104.287"/>
		
			<line fill="none" stroke="#FF3A5D" stroke-width="1.5" stroke-linecap="square" x1="62.251" y1="87.646" x2="82.897" y2="109.213"/>
	</g>
	
		<line fill="none" stroke="#FF3A5D" stroke-width="1.5" stroke-linecap="square" x1="243.809" y1="94.305" x2="239.412" y2="104.371"/>
	
		<line fill="none" stroke="#FF3A5D" stroke-width="1.5" stroke-linecap="square" x1="244.031" y1="93.441" x2="255.635" y2="58.517"/>
	<g id="whitetapeparts">
		<circle fill="none" stroke="#FF3A5D" stroke-width="1.5" stroke-linecap="square" cx="86.194" cy="53.663" r="42.499"/>
		<circle fill="none" stroke="#FF3A5D" stroke-width="1.5" stroke-linecap="square" cx="233.607" cy="53.663" r="42.499"/>
		
			<line fill="none" stroke="#FF3A5D" stroke-width="1.5" stroke-linecap="square" x1="206.723" y1="111.195" x2="211.488" y2="106.428"/>
		<circle fill="none" stroke="#FF3A5D" stroke-width="1.5" stroke-linecap="square" cx="235.492" cy="105.371" r="3.92"/>
		<path id="tapehead_14_" fill="none" stroke="#FF3A5D" stroke-width="1.5" stroke-linecap="square" d="M168.24,100.977v11.658
			c0,0-3.396,0.531-7.271,0.531c-3.875,0-7.19-0.531-7.19-0.531v-11.658H168.24z"/>
		<circle fill="none" stroke="#FF3A5D" stroke-width="1.5" stroke-linecap="square" cx="114.167" cy="108.505" r="6.8"/>
		<circle fill="none" stroke="#FF3A5D" stroke-width="1.5" stroke-linecap="square" cx="114.167" cy="108.506" r="1.406"/>
		<g id="reelright">
			<path fill="none" stroke="#FF3A5D" stroke-width="1.5" stroke-linecap="square" d="M244.842,45.86l-1.096,0.636
				c-0.4-0.569-0.842-1.116-1.348-1.624c-4.814-4.833-12.646-4.845-17.479-0.03c-0.425,0.423-0.797,0.876-1.146,1.341l-1.174-0.638
				c-0.613-0.344-1.396-0.127-1.729,0.484c-0.351,0.612-0.13,1.387,0.479,1.732l1.103,0.63c-2.116,4.562-1.312,10.146,2.438,13.913
				c2.03,2.043,4.604,3.216,7.271,3.534l0.026,1.331c0.014,0.704,0.582,1.266,1.285,1.259c0.701-0.009,1.271-0.582,1.258-1.286
				l-0.002-1.256c2.775-0.247,5.488-1.426,7.621-3.551c3.688-3.671,4.562-9.085,2.643-13.594l1.133-0.692
				c0.604-0.358,0.812-1.138,0.443-1.741C246.225,45.703,245.447,45.502,244.842,45.86z"/>
			
				<line fill="none" stroke="#FF3A5D" stroke-width="1.5" stroke-linecap="square" x1="233.51" y1="35.71" x2="233.51" y2="17.968"/>
			
				<line fill="none" stroke="#FF3A5D" stroke-width="1.5" stroke-linecap="square" x1="217.814" y1="62.896" x2="202.447" y2="71.769"/>
			
				<line fill="none" stroke="#FF3A5D" stroke-width="1.5" stroke-linecap="square" x1="249.203" y1="62.897" x2="264.57" y2="71.768"/>
		</g>
		<g id="reelleft">
			
				<line fill="none" stroke="#FF3A5D" stroke-width="1.5" stroke-linecap="square" x1="98.529" y1="40.386" x2="110.606" y2="27.388"/>
			
				<line fill="none" stroke="#FF3A5D" stroke-width="1.5" stroke-linecap="square" x1="91.524" y1="70.985" x2="96.743" y2="87.941"/>
			
				<line fill="none" stroke="#FF3A5D" stroke-width="1.5" stroke-linecap="square" x1="68.528" y1="49.62" x2="51.231" y2="45.661"/>
			<path fill="none" stroke="#FF3A5D" stroke-width="1.5" stroke-linecap="square" d="M99.574,56.09l-1.225-0.323
				c0.118-0.686,0.192-1.385,0.192-2.104c0-6.82-5.528-12.35-12.349-12.35c-0.601,0-1.187,0.058-1.762,0.141l-0.379-1.281
				c-0.19-0.675-0.893-1.07-1.568-0.879c-0.677,0.191-1.069,0.892-0.881,1.568l0.333,1.221c-4.719,1.736-8.092,6.258-8.092,11.58
				c0,2.883,0.997,5.532,2.654,7.633l-0.916,0.968c-0.49,0.503-0.481,1.306,0.021,1.798c0.504,0.49,1.309,0.479,1.8-0.023
				l0.885-0.892c2.143,1.788,4.896,2.865,7.906,2.865c5.199,0,9.641-3.218,11.46-7.768l1.292,0.31
				c0.681,0.173,1.373-0.237,1.546-0.918C100.667,56.957,100.255,56.263,99.574,56.09z"/>
		</g>
		<circle fill="none" stroke="#FF3A5D" stroke-width="1.5" stroke-linecap="square" cx="86.856" cy="110.702" r="3.919"/>
		
			<circle id="reelleftmid" fill="none" stroke="#FF3A5D" stroke-width="1.5" stroke-linecap="square" cx="86.194" cy="53.663" r="1.868"/>
		<circle fill="none" stroke="#FF3A5D" stroke-width="1.5" stroke-linecap="square" cx="86.194" cy="53.663" r="8.323"/>
		<circle fill="none" stroke="#FF3A5D" stroke-width="1.5" stroke-linecap="square" cx="233.762" cy="53.663" r="8.37"/>
		
			<circle id="reelrightmid" fill="none" stroke="#FF3A5D" stroke-width="1.5" stroke-linecap="square" cx="233.607" cy="53.664" r="1.869"/>
		<circle fill="none" stroke="#FF3A5D" stroke-width="1.5" stroke-linecap="square" cx="209.105" cy="108.814" r="6.8"/>
		
			<line fill="none" stroke="#FF3A5D" stroke-width="1.5" stroke-linecap="square" x1="160.969" y1="113.168" x2="160.969" y2="107.148"/>
	</g>
	<rect x="132.539" y="73.391" stroke="#FF3A5D" stroke-width="1.5" stroke-linecap="square" width="54.994" height="17.005"/>
	<g id="a_105_">
		<polyline fill="none" stroke="#FF3A5D" stroke-width="1.5" stroke-linecap="square" points="151.154,86.617 151.154,86.379 
			153.753,77.168 154.225,77.168 156.824,86.379 156.824,86.617 		"/>
		
			<line fill="none" stroke="#FF3A5D" stroke-width="1.5" stroke-linecap="square" x1="152.099" y1="83.311" x2="155.879" y2="83.311"/>
	</g>
	<g id="g_27_">
		<path fill="none" stroke="#FF3A5D" stroke-width="1.5" stroke-linecap="square" d="M182.43,84.252
			c0,1.307-1.061,2.363-2.357,2.363c-1.309,0-2.365-1.061-2.365-2.363v-4.721c0-1.306,1.062-2.363,2.365-2.363
			s2.357,1.058,2.357,2.361"/>
		<polyline fill="none" stroke="#FF3A5D" stroke-width="1.5" stroke-linecap="square" points="179.596,81.893 182.43,81.893 
			182.43,86.617 		"/>
	</g>
	
		<line id="_x31__91_" fill="none" stroke="#FF3A5D" stroke-width="1.5" stroke-linecap="square" x1="166.367" y1="77.168" x2="166.367" y2="86.617"/>
	<g id="e_1_">
		<polyline fill="none" stroke="#FF3A5D" stroke-width="1.5" stroke-linecap="square" points="141.838,86.617 137.586,86.617 
			137.586,77.168 141.838,77.168 		"/>
		
			<line fill="none" stroke="#FF3A5D" stroke-width="1.5" stroke-linecap="square" x1="137.586" y1="81.893" x2="141.366" y2="81.893"/>
	</g>
	<path id="s_1_" fill="none" stroke="#FF3A5D" stroke-width="1.5" stroke-linecap="square" d="M158.807,84.252
		c0,1.307,1.058,2.363,2.363,2.363s2.362-1.061,2.362-2.363c0-0.527-0.36-1.254-1.015-1.656c-0.567-0.352-2.188-1.025-2.75-1.389
		c-0.694-0.445-0.96-1.146-0.96-1.676c0-1.306,1.059-2.363,2.363-2.363c1.305,0,2.363,1.058,2.363,2.363"/>
	<path id="r_1_" fill="none" stroke="#FF3A5D" stroke-width="1.5" stroke-linecap="square" d="M145.201,86.617v-9.448h1.89
		c1.304,0,2.362,1.059,2.362,2.363l0,0c0,1.303-1.058,2.358-2.362,2.358h-1.417l3.307,4.485v0.235"/>
	<polyline id="n_93_" fill="none" stroke="#FF3A5D" stroke-width="1.5" stroke-linecap="square" points="169.58,86.617 
		169.58,77.168 170.053,77.168 173.832,86.617 174.307,86.617 174.307,77.168 	"/>
	<g id="erase">
		
			<line fill="none" stroke="#FF3A5D" stroke-width="1.5" stroke-linecap="square" x1="160.027" y1="138.953" x2="156.743" y2="141.664"/>
		
			<line fill="none" stroke="#FF3A5D" stroke-width="1.5" stroke-linecap="square" x1="160.443" y1="134.405" x2="151.648" y2="141.664"/>
		
			<line fill="none" stroke="#FF3A5D" stroke-width="1.5" stroke-linecap="square" x1="160.966" y1="129.768" x2="146.554" y2="141.664"/>
		
			<line fill="none" stroke="#FF3A5D" stroke-width="1.5" stroke-linecap="square" x1="158.628" y1="127.492" x2="141.46" y2="141.664"/>
		
			<line fill="none" stroke="#FF3A5D" stroke-width="1.5" stroke-linecap="square" x1="153.535" y1="127.492" x2="136.365" y2="141.664"/>
		
			<line fill="none" stroke="#FF3A5D" stroke-width="1.5" stroke-linecap="square" x1="148.44" y1="127.492" x2="131.27" y2="141.664"/>
		
			<line fill="none" stroke="#FF3A5D" stroke-width="1.5" stroke-linecap="square" x1="143.345" y1="127.492" x2="126.174" y2="141.664"/>
		
			<line fill="none" stroke="#FF3A5D" stroke-width="1.5" stroke-linecap="square" x1="138.251" y1="127.492" x2="121.081" y2="141.664"/>
		
			<line fill="none" stroke="#FF3A5D" stroke-width="1.5" stroke-linecap="square" x1="133.157" y1="127.492" x2="115.985" y2="141.664"/>
		
			<line fill="none" stroke="#FF3A5D" stroke-width="1.5" stroke-linecap="square" x1="128.062" y1="127.492" x2="110.891" y2="141.664"/>
		
			<line fill="none" stroke="#FF3A5D" stroke-width="1.5" stroke-linecap="square" x1="122.967" y1="127.492" x2="105.797" y2="141.664"/>
		
			<line fill="none" stroke="#FF3A5D" stroke-width="1.5" stroke-linecap="square" x1="117.872" y1="127.492" x2="100.701" y2="141.664"/>
		
			<line fill="none" stroke="#FF3A5D" stroke-width="1.5" stroke-linecap="square" x1="112.776" y1="127.492" x2="95.606" y2="141.664"/>
		
			<line fill="none" stroke="#FF3A5D" stroke-width="1.5" stroke-linecap="square" x1="107.682" y1="127.492" x2="90.512" y2="141.664"/>
		
			<line fill="none" stroke="#FF3A5D" stroke-width="1.5" stroke-linecap="square" x1="102.588" y1="127.492" x2="85.418" y2="141.664"/>
		
			<line fill="none" stroke="#FF3A5D" stroke-width="1.5" stroke-linecap="square" x1="97.494" y1="127.492" x2="80.324" y2="141.664"/>
		
			<line fill="none" stroke="#FF3A5D" stroke-width="1.5" stroke-linecap="square" x1="92.398" y1="127.492" x2="75.228" y2="141.664"/>
		
			<line fill="none" stroke="#FF3A5D" stroke-width="1.5" stroke-linecap="square" x1="87.304" y1="127.492" x2="70.132" y2="141.664"/>
		
			<line fill="none" stroke="#FF3A5D" stroke-width="1.5" stroke-linecap="square" x1="82.21" y1="127.492" x2="65.039" y2="141.664"/>
		
			<line fill="none" stroke="#FF3A5D" stroke-width="1.5" stroke-linecap="square" x1="77.115" y1="127.492" x2="59.943" y2="141.664"/>
		
			<line fill="none" stroke="#FF3A5D" stroke-width="1.5" stroke-linecap="square" x1="72.02" y1="127.492" x2="54.849" y2="141.664"/>
		
			<line fill="none" stroke="#FF3A5D" stroke-width="1.5" stroke-linecap="square" x1="66.924" y1="127.492" x2="49.755" y2="141.664"/>
		
			<line fill="none" stroke="#FF3A5D" stroke-width="1.5" stroke-linecap="square" x1="61.83" y1="127.492" x2="44.66" y2="141.664"/>
		
			<line fill="none" stroke="#FF3A5D" stroke-width="1.5" stroke-linecap="square" x1="56.735" y1="127.492" x2="39.565" y2="141.664"/>
		
			<line fill="none" stroke="#FF3A5D" stroke-width="1.5" stroke-linecap="square" x1="51.641" y1="127.492" x2="34.471" y2="141.664"/>
		
			<line fill="none" stroke="#FF3A5D" stroke-width="1.5" stroke-linecap="square" x1="46.546" y1="127.492" x2="29.377" y2="141.664"/>
		
			<line fill="none" stroke="#FF3A5D" stroke-width="1.5" stroke-linecap="square" x1="41.453" y1="127.492" x2="24.282" y2="141.664"/>
		
			<line fill="none" stroke="#FF3A5D" stroke-width="1.5" stroke-linecap="square" x1="36.356" y1="127.492" x2="19.186" y2="141.664"/>
		
			<line fill="none" stroke="#FF3A5D" stroke-width="1.5" stroke-linecap="square" x1="31.262" y1="127.492" x2="14.092" y2="141.664"/>
		
			<line fill="none" stroke="#FF3A5D" stroke-width="1.5" stroke-linecap="square" x1="26.146" y1="127.492" x2="8.978" y2="141.664"/>
		
			<line fill="none" stroke="#FF3A5D" stroke-width="1.5" stroke-linecap="square" x1="21.052" y1="127.492" x2="3.882" y2="141.664"/>
		
			<line fill="none" stroke="#FF3A5D" stroke-width="1.5" stroke-linecap="square" x1="15.958" y1="127.492" x2="-1.212" y2="141.664"/>
		
			<line fill="none" stroke="#FF3A5D" stroke-width="1.5" stroke-linecap="square" x1="10.864" y1="127.492" x2="-6.307" y2="141.664"/>
		
			<line fill="none" stroke="#FF3A5D" stroke-width="1.5" stroke-linecap="square" x1="5.769" y1="127.492" x2="-11.401" y2="141.664"/>
		
			<line fill="none" stroke="#FF3A5D" stroke-width="1.5" stroke-linecap="square" x1="0.675" y1="127.492" x2="-16.496" y2="141.664"/>
	</g>
	<g id="_x21__4_">
		
			<line fill="none" stroke="#FF3A5D" stroke-width="1.5" stroke-linecap="square" x1="161.01" y1="44.954" x2="161.01" y2="54.981"/>
		<line fill="none" stroke="#FF3A5D" stroke-width="1.5" stroke-linecap="square" x1="161.01" y1="60.591" x2="161.01" y2="59.47"/>
	</g>
	<path fill="none" stroke="#FF3A5D" stroke-width="1.5" stroke-linecap="square" d="M147.167,64.797
		c-1.965,0.002-2.768-1.393-1.781-3.09l13.84-23.984c0.976-1.695,2.584-1.695,3.562,0l13.851,23.983
		c0.979,1.697,0.172,3.092-1.781,3.092L147.167,64.797z"/>
	<rect x="162.027" y="126.262" fill="#010101" width="5.635" height="16.5"/>
	
		<line id="centerline_23_" fill="none" stroke="#FF3A5D" stroke-width="1.5" stroke-linecap="square" x1="160.879" y1="145.346" x2="160.879" y2="115.98"/>
</g>
<line id="track_x5F_active" fill="none" stroke="#3B2D49" stroke-width="2" x1="82.541" y1="128.359" x2="187.361" y2="128.359"/>
<line id="track_x5F_inactive" fill="none" stroke="#3B2D49" stroke-width="2" x1="22.332" y1="132.396" x2="127.152" y2="132.396"/>
</svg>
