<?xml version="1.0" encoding="utf-8"?>
<!-- Generator: Adobe Illustrator 14.0.0, SVG Export Plug-In . SVG Version: 6.00 Build 43363)  -->
<!DOCTYPE svg PUBLIC "-//W3C//DTD SVG 1.1//EN" "http://www.w3.org/Graphics/SVG/1.1/DTD/svg11.dtd">
<svg version="1.1" id="Layer_1" xmlns="http://www.w3.org/2000/svg" xmlns:xlink="http://www.w3.org/1999/xlink" x="0px" y="0px"
	 width="320px" height="160px" viewBox="0 0 320 160" enable-background="new 0 0 320 160" xml:space="preserve">
<g id="static">
	<polyline fill="none" stroke="#FF3A5D" stroke-width="2" stroke-linecap="square" points="266.158,136.02 266.158,116.02 
		267.159,116.02 272.158,127.02 273.158,127.02 278.159,116.02 279.159,116.02 279.159,136.02 	"/>
	<path fill="none" stroke="#00ED95" stroke-width="2" stroke-linecap="square" d="M276.158,20.352c0,2.762-2.237,5-4.999,5
		c-2.763,0-5-2.239-5-5v-9.999c0-2.762,2.237-5.001,5-5.001c2.762,0,4.999,2.24,4.999,5.001"/>
	<polyline fill="none" stroke="#00ED95" stroke-width="2" stroke-linecap="square" points="270.159,15.353 276.158,15.353 
		276.158,25.352 	"/>
	<circle fill="none" stroke="#00475B" stroke-width="2" stroke-linecap="square" cx="297.826" cy="14.686" r="10.667"/>
</g>
<g id="speed">
	<path fill="none" stroke="#FFFFFF" stroke-width="2" d="M32.384,5.353h10v1l-5,9c2.762,0,5,2.238,5,5s-2.239,5-5,5
		c-2.76,0-5-2.238-5-5"/>
	<polyline fill="none" stroke="#FFFFFF" stroke-width="2" points="58.185,19.353 46.184,19.353 46.184,18.352 54.186,5.353 
		55.186,5.353 55.186,25.352 	"/>
</g>
<polygon id="tombola" fill="none" stroke="#FFFFFF" stroke-width="2" points="129.446,124.02 98.099,69.723 129.446,15.426 
	192.145,15.426 223.491,69.723 192.145,124.02 "/>
<circle id="gravity" fill="none" stroke="#00ED95" stroke-width="2" stroke-linecap="square" cx="297.783" cy="14.643" r="10.664"/>
<line id="bounceline" fill="none" stroke="#383572" stroke-width="2" stroke-linecap="square" x1="297.492" y1="134.688" x2="297.492" y2="116.02"/>
<g id="bouncebar">
	<path fill="#698EFF" d="M292.158,135.02c0,1.479-1.193,2.668-2.666,2.668s-2.668-1.188-2.668-2.668
		c0-1.472,1.195-2.666,2.668-2.666S292.158,133.548,292.158,135.02"/>
	<path fill="#698EFF" d="M308.158,135.021c0,1.473-1.195,2.666-2.668,2.666c-1.479,0-2.666-1.193-2.666-2.666
		c0-1.479,1.188-2.668,2.666-2.668C306.963,132.354,308.158,133.548,308.158,135.021"/>
	<line fill="none" stroke="#698EFF" stroke-width="2" x1="289.492" y1="135.02" x2="305.491" y2="135.02"/>
</g>
<path id="ball15" fill="#698EFF" d="M-2.764,0.322c0,1.473,1.194,2.668,2.667,2.668c1.473,0,2.667-1.195,2.667-2.668
	c0-1.473-1.194-2.666-2.667-2.666C-1.57-2.344-2.764-1.15-2.764,0.322"/>
<path id="ball14" fill="#698EFF" d="M-2.758-0.02c0,1.473,1.193,2.668,2.667,2.668c1.473,0,2.667-1.195,2.667-2.668
	S1.382-2.686-0.091-2.686C-1.565-2.686-2.758-1.492-2.758-0.02"/>
<path id="ball13" fill="#698EFF" d="M-2.899,0.191c0,1.473,1.192,2.666,2.667,2.666c1.474,0,2.667-1.193,2.667-2.666
	S1.241-2.477-0.232-2.477S-2.899-1.281-2.899,0.191"/>
<path id="ball12" fill="#698EFF" d="M-2.747,0.086c0,1.473,1.193,2.667,2.667,2.667c1.475,0,2.667-1.194,2.667-2.667
	S1.394-2.581-0.08-2.581S-2.747-1.387-2.747,0.086"/>
<path id="ball11" fill="#698EFF" d="M-2.656-0.209c0,1.473,1.193,2.668,2.668,2.668c1.474,0,2.667-1.195,2.667-2.668
	S1.485-2.875,0.011-2.875C-1.463-2.875-2.656-1.682-2.656-0.209"/>
<path id="ball10" fill="#698EFF" d="M-2.545,0.156c0,1.473,1.193,2.666,2.666,2.666c1.476,0,2.668-1.193,2.668-2.666
	c0-1.473-1.192-2.668-2.668-2.668C-1.352-2.512-2.545-1.316-2.545,0.156"/>
<path id="ball9" fill="#698EFF" d="M-2.802-0.093c0,1.473,1.193,2.668,2.667,2.668c1.474,0,2.667-1.195,2.667-2.668
	c0-1.473-1.193-2.666-2.667-2.666C-1.609-2.759-2.802-1.565-2.802-0.093"/>
<path id="ball8" fill="#698EFF" d="M-2.955,0.012c0,1.473,1.193,2.668,2.667,2.668c1.475,0,2.668-1.196,2.668-2.668
	c0-1.472-1.193-2.666-2.668-2.666C-1.762-2.654-2.955-1.461-2.955,0.012"/>
<path id="ball7" fill="#698EFF" d="M-2.834,0.112c0,1.473,1.193,2.667,2.666,2.667c1.476,0,2.668-1.194,2.668-2.667
	c0-1.473-1.192-2.667-2.668-2.667C-1.641-2.555-2.834-1.36-2.834,0.112"/>
<path id="ball6" fill="#698EFF" d="M-2.933-0.02c0,1.473,1.192,2.668,2.666,2.668c1.475,0,2.668-1.195,2.668-2.668
	S1.208-2.686-0.267-2.686C-1.739-2.686-2.933-1.492-2.933-0.02"/>
<path id="ball5" fill="#698EFF" d="M-2.876-0.125c0,1.473,1.193,2.668,2.666,2.668c1.476,0,2.668-1.195,2.668-2.668
	S1.265-2.791-0.21-2.791C-1.683-2.791-2.876-1.598-2.876-0.125"/>
<path id="ball4" fill="#698EFF" d="M-2.555,0.032c0,1.473,1.193,2.668,2.666,2.668c1.475,0,2.668-1.195,2.668-2.668
	c0-1.473-1.193-2.666-2.668-2.666C-1.361-2.634-2.555-1.44-2.555,0.032"/>
<path id="ball3" fill="#698EFF" d="M-2.637,0.172c0,1.473,1.193,2.667,2.666,2.667c1.475,0,2.668-1.194,2.668-2.667
	c0-1.473-1.193-2.667-2.668-2.667C-1.443-2.495-2.637-1.301-2.637,0.172"/>
<path id="ball2" fill="#698EFF" d="M-2.852,0.288c0,1.473,1.192,2.667,2.666,2.667c1.475,0,2.668-1.194,2.668-2.667
	c0-1.473-1.193-2.667-2.668-2.667C-1.658-2.379-2.852-1.185-2.852,0.288"/>
<path id="ball1" fill="#698EFF" d="M-2.688,0.182c0,1.473,1.192,2.668,2.666,2.668c1.475,0,2.668-1.195,2.668-2.668
	S1.452-2.484-0.022-2.484S-2.688-1.291-2.688,0.182"/>
<path id="ball0" fill="#698EFF" d="M-2.706,0.068c0,1.473,1.193,2.668,2.666,2.668c1.476,0,2.668-1.195,2.668-2.668
	S1.435-2.598-0.04-2.598C-1.513-2.598-2.706-1.404-2.706,0.068"/>
<g id="rotation">
	<polyline fill="none" stroke="#698EFF" stroke-width="2" stroke-linecap="square" stroke-linejoin="bevel" points="17.455,16.674 
		18.304,16.674 24.851,11.005 18.304,5.335 17.455,5.335 	"/>
	<path fill="none" stroke="#698EFF" stroke-width="2" stroke-linecap="square" stroke-linejoin="bevel" d="M17.245,11.005
		c-3.97,0-7.188,3.218-7.188,7.188c0,3.97,3.218,7.188,7.188,7.188c3.97,0,7.188-3.218,7.188-7.188"/>
</g>
<g id="crank">
	<g>
		<polyline fill="none" stroke="#AEB1DC" stroke-linecap="round" points="14.784,20.264 14.229,19.916 13.729,19.542 13.282,19.147 
			12.892,18.733 12.564,18.3 12.298,17.854 12.098,17.396 11.962,16.932 11.896,16.461 11.896,15.99 11.962,15.52 12.098,15.055 
			12.298,14.597 12.564,14.149 12.892,13.718 13.282,13.302 13.729,12.908 14.229,12.535 14.784,12.188 		"/>
		<line fill="none" stroke="#AEB1DC" stroke-linecap="round" x1="14.784" y1="21.759" x2="14.784" y2="20.264"/>
		<line fill="none" stroke="#AEB1DC" stroke-linecap="round" x1="30.921" y1="29.578" x2="14.784" y2="20.264"/>
		<line fill="none" stroke="#AEB1DC" stroke-linecap="round" x1="15.215" y1="19.518" x2="31.351" y2="28.833"/>
		<polyline fill="none" stroke="#AEB1DC" stroke-linecap="round" points="28.34,11.938 27.743,11.625 27.102,11.339 26.417,11.088 
			25.699,10.873 24.953,10.692 24.179,10.553 23.388,10.453 22.584,10.391 21.777,10.371 20.969,10.391 20.166,10.453 
			19.375,10.553 18.604,10.692 17.854,10.873 17.136,11.088 16.455,11.339 15.811,11.625 15.215,11.938 14.667,12.285 
			14.174,12.654 13.74,13.048 13.367,13.464 13.056,13.896 12.812,14.341 12.637,14.797 12.532,15.261 12.496,15.729 12.532,16.194 
			12.637,16.659 12.812,17.115 13.056,17.562 13.367,17.993 13.74,18.408 14.174,18.801 14.667,19.172 15.215,19.518 		"/>
		<line fill="none" stroke="#AEB1DC" stroke-linecap="round" x1="25.582" y1="16.783" x2="17.975" y2="16.783"/>
		<polyline fill="none" stroke="#AEB1DC" stroke-linecap="round" points="17.975,16.783 17.619,16.761 17.273,16.703 16.959,16.604 
			16.683,16.475 16.455,16.313 16.287,16.131 16.182,15.934 16.147,15.729 16.182,15.522 16.287,15.325 16.455,15.143 
			16.683,14.982 16.959,14.853 17.273,14.754 17.619,14.694 17.975,14.675 		"/>
		<line fill="none" stroke="#AEB1DC" stroke-linecap="round" x1="17.975" y1="14.675" x2="25.582" y2="14.675"/>
		<polyline fill="none" stroke="#AEB1DC" stroke-linecap="round" points="25.582,14.675 25.938,14.694 26.279,14.754 26.596,14.853 
			26.873,14.982 27.1,15.143 27.267,15.325 27.372,15.522 27.405,15.729 27.372,15.934 27.267,16.131 27.1,16.313 26.873,16.475 
			26.596,16.604 26.279,16.703 25.938,16.761 25.582,16.783 		"/>
		<polyline fill="none" stroke="#AEB1DC" stroke-linecap="round" points="30.921,31.069 31.523,31.389 32.168,31.68 32.853,31.938 
			33.572,32.161 34.32,32.352 35.093,32.503 35.886,32.621 36.691,32.696 37.506,32.737 38.325,32.737 39.138,32.696 39.943,32.621 
			40.738,32.503 41.509,32.352 42.258,32.161 42.978,31.938 43.662,31.68 44.306,31.389 44.908,31.069 45.461,30.723 45.962,30.35 
			46.41,29.954 46.799,29.54 47.127,29.106 47.394,28.662 47.595,28.205 47.728,27.737 47.795,27.268 47.804,27.033 		"/>
		<polyline fill="none" stroke="#AEB1DC" stroke-linecap="round" points="46.077,22.317 46.41,22.619 46.799,23.034 47.127,23.466 
			47.394,23.914 47.595,24.371 47.728,24.835 47.795,25.305 47.795,25.776 47.728,26.248 47.595,26.713 47.394,27.171 
			47.127,27.617 46.799,28.05 46.41,28.463 45.962,28.858 45.461,29.229 44.908,29.578 44.306,29.899 43.662,30.188 42.978,30.446 
			42.258,30.67 41.509,30.858 40.738,31.014 39.943,31.13 39.138,31.207 38.325,31.246 37.506,31.246 36.691,31.207 35.886,31.13 
			35.093,31.014 34.32,30.858 33.572,30.67 32.853,30.446 32.168,30.188 31.523,29.899 30.921,29.578 		"/>
		<polyline fill="none" stroke="#AEB1DC" stroke-linecap="round" points="31.351,28.833 31.949,29.149 32.59,29.434 33.273,29.686 
			33.994,29.901 34.74,30.08 35.513,30.22 36.304,30.321 37.107,30.382 37.915,30.401 38.724,30.382 39.525,30.321 40.316,30.22 
			41.088,30.08 41.836,29.901 42.556,29.686 43.238,29.434 43.881,29.149 44.478,28.833 45.025,28.489 45.519,28.119 45.953,27.725 
			46.326,27.309 46.636,26.876 46.879,26.432 47.056,25.975 47.161,25.511 47.197,25.044 47.161,24.577 47.056,24.114 
			46.879,23.658 46.636,23.212 46.326,22.781 46.011,22.424 		"/>
		<polyline fill="none" stroke="#AEB1DC" stroke-linecap="round" points="11.894,27.83 11.902,28.175 11.976,28.634 12.109,29.089 
			12.3,29.537 12.55,29.971 12.858,30.397 13.221,30.802 13.639,31.192 14.104,31.563 14.62,31.906 14.862,32.053 15.163,32.219 
			15.761,32.511 16.394,32.776 17.061,33.008 17.756,33.209 18.476,33.378 19.213,33.514 19.969,33.614 20.733,33.68 21.504,33.709 
			22.278,33.705 23.048,33.664 23.812,33.587 24.561,33.479 25.293,33.333 26.006,33.153 26.694,32.942 27.352,32.699 
			27.976,32.427 28.561,32.126 29.107,31.798 29.608,31.442 30.062,31.063 30.375,30.753 		"/>
		<line fill="none" stroke="#AEB1DC" stroke-linecap="round" x1="11.888" y1="16.227" x2="11.888" y2="27.841"/>
		<line fill="none" stroke="#AEB1DC" stroke-linecap="round" x1="30.921" y1="31.069" x2="30.921" y2="29.578"/>
		<line fill="none" stroke="#AEB1DC" stroke-linecap="round" x1="47.804" y1="27.033" x2="47.804" y2="25.542"/>
		<line fill="none" stroke="#AEB1DC" x1="29.545" y1="12.636" x2="28.34" y2="11.938"/>
		<line fill="none" stroke="#AEB1DC" stroke-linecap="round" x1="30.519" y1="31" x2="14.93" y2="22"/>
	</g>
	<g>
		<polyline fill="none" stroke="#698EFF" stroke-linecap="round" stroke-linejoin="bevel" points="40.866,12.774 40.937,12.723 
			41.234,12.464 41.474,12.188 41.65,11.896 41.758,11.591 41.798,11.283 41.771,10.975 41.675,10.669 41.511,10.375 41.286,10.095 
			40.998,9.833 40.654,9.594 40.261,9.384 39.826,9.204 39.353,9.059 38.853,8.946 38.331,8.875 37.797,8.841 37.263,8.848 
			36.732,8.894 36.217,8.979 35.724,9.101 35.261,9.257 34.839,9.446 34.46,9.667 		"/>
		<polyline fill="none" stroke="#698EFF" stroke-linecap="round" stroke-linejoin="bevel" points="34.46,9.667 34.136,9.912 
			33.867,10.181 33.66,10.465 33.517,10.765 33.443,11.07 33.437,11.38 33.498,11.688 33.627,11.987 33.823,12.276 34.081,12.548 
			34.363,12.774 		"/>
		<polyline fill="none" stroke="#698EFF" stroke-linecap="round" stroke-linejoin="bevel" points="33.775,8.575 34.187,8.331 
			34.648,8.116 35.15,7.934 35.685,7.785 36.247,7.674 36.826,7.602 37.415,7.569 38.007,7.576 38.595,7.622 39.168,7.707 
			39.724,7.83 40.247,7.99 40.736,8.184 41.183,8.408 41.581,8.661 41.926,8.938 42.211,9.238 42.435,9.556 42.595,9.885 
			42.687,10.224 42.71,10.565 42.665,10.906 42.551,11.242 42.372,11.567 42.125,11.879 41.82,12.172 41.458,12.442 41.042,12.688 
			40.581,12.901 40.08,13.085 39.544,13.231 38.982,13.343 38.404,13.416 37.812,13.449 37.222,13.442 36.634,13.396 36.06,13.312 
			35.506,13.188 34.982,13.028 34.495,12.835 34.046,12.609 33.648,12.356 33.304,12.079 33.017,11.779 32.792,11.462 
			32.634,11.132 32.542,10.794 32.519,10.453 32.564,10.111 32.679,9.774 32.859,9.45 33.103,9.139 33.41,8.845 33.775,8.575 		"/>
		
			<line fill="none" stroke="#698EFF" stroke-linecap="round" stroke-linejoin="bevel" x1="29.36" y1="22.368" x2="29.36" y2="15.037"/>
		
			<line fill="none" stroke="#698EFF" stroke-linecap="round" stroke-linejoin="bevel" x1="31.163" y1="24.643" x2="31.163" y2="17.312"/>
		<polyline fill="none" stroke="#698EFF" stroke-linecap="round" stroke-linejoin="bevel" points="31.163,17.312 31.214,16.974 
			31.37,16.744 31.615,16.649 31.925,16.693 32.261,16.854 32.585,17.108 32.875,17.434 33.093,17.811 33.205,18.208 33.214,18.345 
					"/>
		
			<line fill="none" stroke="#698EFF" stroke-linecap="round" stroke-linejoin="bevel" x1="33.214" y1="18.345" x2="33.214" y2="25.675"/>
		
			<line fill="none" stroke="#698EFF" stroke-linecap="round" stroke-linejoin="bevel" x1="34.689" y1="26.093" x2="34.689" y2="18.763"/>
		<polyline fill="none" stroke="#698EFF" stroke-linecap="round" stroke-linejoin="bevel" points="34.689,18.763 34.767,18.403 
			34.991,18.116 35.336,17.93 35.755,17.861 36.191,17.903 36.603,18.042 36.958,18.269 37.22,18.571 37.351,18.931 37.363,19.063 
					"/>
		
			<line fill="none" stroke="#698EFF" stroke-linecap="round" stroke-linejoin="bevel" x1="37.363" y1="19.063" x2="37.363" y2="26.397"/>
		
			<line fill="none" stroke="#698EFF" stroke-linecap="round" stroke-linejoin="bevel" x1="39.001" y1="26.332" x2="39.001" y2="19"/>
		<polyline fill="none" stroke="#698EFF" stroke-linecap="round" stroke-linejoin="bevel" points="39.001,19 39.082,18.618 
			39.314,18.259 39.667,17.964 40.085,17.768 40.506,17.675 40.892,17.691 41.215,17.812 41.453,18.039 41.57,18.358 41.579,18.491 
					"/>
		
			<line fill="none" stroke="#698EFF" stroke-linecap="round" stroke-linejoin="bevel" x1="41.579" y1="18.491" x2="41.579" y2="25.821"/>
		
			<line fill="none" stroke="#698EFF" stroke-linecap="round" stroke-linejoin="bevel" x1="42.941" y1="25.293" x2="42.941" y2="17.961"/>
		<polyline fill="none" stroke="#698EFF" stroke-linecap="round" stroke-linejoin="bevel" points="42.941,17.961 43.003,17.557 
			43.185,17.134 43.449,16.746 43.75,16.436 44.045,16.233 44.304,16.15 44.511,16.188 44.656,16.356 44.728,16.646 44.732,16.776 
					"/>
		
			<line fill="none" stroke="#698EFF" stroke-linecap="round" stroke-linejoin="bevel" x1="44.732" y1="16.776" x2="44.732" y2="24.108"/>
		
			<line fill="none" stroke="#698EFF" stroke-linecap="round" stroke-linejoin="bevel" x1="45.98" y1="14.381" x2="45.98" y2="21.712"/>
		<polyline fill="none" stroke="#698EFF" stroke-linecap="round" stroke-linejoin="bevel" points="43.533,7.838 43.912,8.074 
			44.378,8.412 44.794,8.772 45.15,9.153 45.448,9.552 45.679,9.964 45.847,10.388 45.949,10.816 45.984,11.25 45.951,11.684 
			45.849,12.112 45.683,12.535 45.452,12.949 45.158,13.347 44.804,13.729 44.388,14.09 43.92,14.43 43.402,14.743 42.838,15.028 
			42.23,15.285 41.586,15.506 40.91,15.694 40.208,15.848 39.484,15.963 38.747,16.041 37.998,16.08 37.247,16.081 36.499,16.042 
			35.761,15.964 35.035,15.851 34.333,15.698 33.656,15.511 33.011,15.289 32.404,15.034 31.837,14.75 31.318,14.436 30.849,14.098 
			30.435,13.735 30.079,13.354 29.783,12.956 29.549,12.543 29.381,12.121 29.282,11.69 29.246,11.258 29.279,10.826 29.379,10.396 
			29.545,9.974 29.777,9.562 30.071,9.162 30.429,8.779 30.839,8.418 31.308,8.079 		"/>
		<polyline fill="none" stroke="#698EFF" stroke-linecap="round" stroke-linejoin="bevel" points="31.997,7.681 31.556,8.001 
			31.17,8.345 30.843,8.708 30.578,9.087 30.375,9.48 30.24,9.882 30.168,10.291 30.167,10.7 30.23,11.106 30.363,11.509 
			30.562,11.903 30.823,12.285 31.146,12.647 31.527,12.994 31.965,13.317 32.454,13.613 32.986,13.883 33.562,14.123 
			34.176,14.328 34.82,14.5 35.492,14.634 36.179,14.731 36.881,14.792 37.59,14.812 38.299,14.794 39.001,14.737 39.691,14.643 
			40.363,14.509 41.011,14.34 41.625,14.138 42.206,13.899 42.742,13.632 43.232,13.337 43.673,13.018 44.058,12.672 44.386,12.311 
			44.652,11.93 44.853,11.537 44.991,11.134 45.06,10.729 45.062,10.317 45,9.91 44.866,9.507 44.668,9.115 44.408,8.733 
			44.084,8.369 43.703,8.022 43.263,7.701 42.777,7.403 42.243,7.134 41.665,6.896 41.051,6.688 40.409,6.52 39.738,6.383 
			39.049,6.286 38.347,6.227 37.638,6.205 36.931,6.223 36.228,6.279 35.539,6.375 34.868,6.508 34.22,6.677 33.605,6.88 
			33.023,7.117 32.486,7.384 31.997,7.681 		"/>
		
			<line fill="none" stroke="#698EFF" stroke-linecap="round" stroke-linejoin="bevel" x1="29.246" y1="11.254" x2="29.246" y2="21.729"/>
		
			<line fill="none" stroke="#698EFF" stroke-linecap="round" stroke-linejoin="bevel" x1="45.984" y1="11.09" x2="45.984" y2="22.09"/>
		<polyline fill="none" stroke="#698EFF" stroke-linecap="round" stroke-linejoin="bevel" points="45.961,22.239 45.861,22.668 
			45.695,23.09 45.462,23.504 45.168,23.901 44.814,24.285 44.398,24.647 43.931,24.985 43.414,25.298 42.849,25.584 42.242,25.84 
			41.597,26.063 40.92,26.25 40.218,26.403 39.496,26.52 38.757,26.596 38.008,26.635 37.257,26.636 36.509,26.598 35.771,26.52 
			35.045,26.406 34.343,26.253 33.667,26.067 33.023,25.844 32.415,25.589 31.849,25.305 31.329,24.991 30.861,24.653 
			30.445,24.292 30.089,23.91 29.793,23.511 29.561,23.1 29.394,22.676 29.292,22.247 29.256,21.813 		"/>
	</g>
</g>
</svg>
