<?xml version="1.0" encoding="utf-8"?>
<!-- Generator: Adobe Illustrator 14.0.0, SVG Export Plug-In . SVG Version: 6.00 Build 43363)  -->
<!DOCTYPE svg PUBLIC "-//W3C//DTD SVG 1.1//EN" "http://www.w3.org/Graphics/SVG/1.1/DTD/svg11.dtd">
<svg version="1.1" id="Layer_1" xmlns="http://www.w3.org/2000/svg" xmlns:xlink="http://www.w3.org/1999/xlink" x="0px" y="0px"
	 width="320px" height="160px" viewBox="0 0 320 160" enable-background="new 0 0 320 160" xml:space="preserve">
<g id="static">
	<g id="port">
		<g id="t_131_">
			<line fill="none" stroke="#00ED95" stroke-width="1.5" stroke-linecap="square" x1="164.8" y1="49.9" x2="177.2" y2="49.9"/>
			<line fill="none" stroke="#00ED95" stroke-width="1.5" stroke-linecap="square" x1="171.3" y1="49.9" x2="171.3" y2="69.8"/>
		</g>
		<polyline id="m_68_" fill="none" stroke="#00ED95" stroke-width="1.5" stroke-linecap="square" points="122.7,69.8 122.7,49.9 
			123.6,49.9 128.1,61.8 129.1,61.8 133.6,49.9 134.6,49.9 134.6,69.8 		"/>
		<g id="e_189_">
			<polyline fill="none" stroke="#00ED95" stroke-width="1.5" stroke-linecap="square" points="147.9,69.8 139,69.8 139,49.9 
				147.9,49.9 			"/>
			<line fill="none" stroke="#00ED95" stroke-width="1.5" stroke-linecap="square" x1="139" y1="59.9" x2="147" y2="59.9"/>
		</g>
		<polyline id="n_91_" fill="none" stroke="#00ED95" stroke-width="1.5" stroke-linecap="square" points="151.9,69.8 151.9,49.9 
			152.9,49.9 160.8,69.8 161.8,69.8 161.8,49.9 		"/>
		<path id="p_82_" fill="none" stroke="#00ED95" stroke-width="1.5" stroke-linecap="square" d="M55.7,69.8V49.9h4c2.7,0,5,2.2,5,5
			l0,0c0,2.7-2.2,5-5,5h-4"/>
		<g id="a_104_">
			<polyline fill="none" stroke="#00ED95" stroke-width="1.5" stroke-linecap="square" points="107.3,69.8 107.3,69.3 112.7,49.9 
				113.7,49.9 119.2,69.3 119.2,69.8 			"/>
			<line fill="none" stroke="#00ED95" stroke-width="1.5" stroke-linecap="square" x1="109.3" y1="62.8" x2="117.2" y2="62.8"/>
		</g>
		<g id="t_130_">
			<line fill="none" stroke="#00ED95" stroke-width="1.5" stroke-linecap="square" x1="94.9" y1="49.9" x2="107.3" y2="49.9"/>
			<line fill="none" stroke="#00ED95" stroke-width="1.5" stroke-linecap="square" x1="101.3" y1="49.9" x2="101.3" y2="69.8"/>
		</g>
		<path id="r_91_" fill="none" stroke="#00ED95" stroke-width="1.5" stroke-linecap="square" d="M84,69.8V49.9h4c2.7,0,5,2.2,5,5
			l0,0c0,2.7-2.2,5-5,5h-3l6.9,9.4v0.5"/>
		<path id="o_117_" fill="none" stroke="#00ED95" stroke-width="1.5" stroke-linecap="square" d="M68.6,55.4v8.9
			c0,3,2.4,5.5,5.5,5.5c3,0,5.5-2.4,5.5-5.5l0,0l0,0v-8.9c0-3-2.4-5.5-5.5-5.5S68.6,52.4,68.6,55.4L68.6,55.4L68.6,55.4L68.6,55.4z"
			/>
		<path id="o_118_" fill="none" stroke="#00ED95" stroke-width="1.5" stroke-linecap="square" d="M178.2,55.4v8.9
			c0,3,2.399,5.5,5.5,5.5c3,0,5.5-2.4,5.5-5.5l0,0l0,0v-8.9c0-3-2.4-5.5-5.5-5.5C180.6,49.9,178.2,52.4,178.2,55.4L178.2,55.4
			L178.2,55.4L178.2,55.4z"/>
	</g>
	<g id="pm">
		<path id="p_81_" fill="none" stroke="#698EFF" stroke-width="1.5" stroke-linecap="square" d="M56,37.3V17.5h4c2.7,0,5,2.2,5,5
			l0,0c0,2.7-2.2,5-5,5h-4"/>
		<g id="a_103_">
			<polyline fill="none" stroke="#698EFF" stroke-width="1.5" stroke-linecap="square" points="77.8,37.3 77.8,36.8 83.3,17.5 
				84.3,17.5 89.7,36.8 89.7,37.3 			"/>
			<line fill="none" stroke="#698EFF" stroke-width="1.5" stroke-linecap="square" x1="79.8" y1="30.4" x2="87.8" y2="30.4"/>
		</g>
		<polyline id="m_67_" fill="none" stroke="#698EFF" stroke-width="1.5" stroke-linecap="square" points="105.6,37.3 105.6,17.5 
			106.6,17.5 111.1,29.4 112.1,29.4 116.5,17.5 117.5,17.5 117.5,37.3 		"/>
		<path id="d_94_" fill="none" stroke="#698EFF" stroke-width="1.5" stroke-linecap="square" d="M143.3,37.3c2.7,0,5-2.2,5-5v-9.9
			c0-2.7-2.2-5-5-5h-5v19.8L143.3,37.3L143.3,37.3z"/>
		<g id="y_21_">
			<polyline fill="none" stroke="#698EFF" stroke-width="1.5" stroke-linecap="square" points="90.7,17.5 90.7,18.5 95.7,28.4 
				100.6,18.5 100.6,17.5 			"/>
			<line fill="none" stroke="#698EFF" stroke-width="1.5" stroke-linecap="square" x1="95.7" y1="28.4" x2="95.7" y2="37.3"/>
		</g>
		<g id="e_188_">
			<polyline fill="none" stroke="#698EFF" stroke-width="1.5" stroke-linecap="square" points="162.2,37.3 153.2,37.3 153.2,17.5 
				162.2,17.5 			"/>
			<line fill="none" stroke="#698EFF" stroke-width="1.5" stroke-linecap="square" x1="153.2" y1="27.4" x2="161.2" y2="27.4"/>
		</g>
		<path id="o_119_" fill="none" stroke="#698EFF" stroke-width="1.5" stroke-linecap="square" d="M122.5,23v8.9c0,3,2.4,5.5,5.5,5.5
			c3,0,5.5-2.4,5.5-5.5l0,0l0,0V23c0-3-2.4-5.5-5.5-5.5S122.5,19.9,122.5,23L122.5,23L122.5,23L122.5,23z"/>
		<polyline id="l_71_" fill="none" stroke="#698EFF" stroke-width="1.5" stroke-linecap="square" points="68.9,17.5 68.9,37.3 
			77.8,37.3 		"/>
	</g>
</g>
<g id="g">
	<path id="d_96_" fill="none" stroke="#DFD9FF" stroke-width="1.5" stroke-linecap="square" d="M142,102.3c2.7,0,5-2.2,5-5V87.4
		c0-2.7-2.2-5-5-5h-5v19.8h5V102.3z"/>
	<g id="g_26_">
		<path fill="none" stroke="#DFD9FF" stroke-width="1.5" stroke-linecap="square" d="M65.6,97.3c0,2.7-2.2,5-5,5c-2.7,0-5-2.2-5-5
			V87.4c0-2.7,2.2-5,5-5c2.7,0,5,2.199,5,5"/>
		<polyline fill="none" stroke="#DFD9FF" stroke-width="1.5" stroke-linecap="square" points="59.6,92.4 65.6,92.4 65.6,102.3 		"/>
	</g>
	<g id="e_190_">
		<polyline fill="none" stroke="#DFD9FF" stroke-width="1.5" stroke-linecap="square" points="117.2,102.3 108.3,102.3 108.3,82.5 
			117.2,82.5 		"/>
		<line fill="none" stroke="#DFD9FF" stroke-width="1.5" stroke-linecap="square" x1="108.3" y1="92.4" x2="116.2" y2="92.4"/>
	</g>
	<g id="b_28_">
		<path fill="none" stroke="#DFD9FF" stroke-width="1.5" stroke-linecap="square" d="M94.4,102.3V82.5h4c2.7,0,5,2.2,5,5l0,0
			c0,2.7-2.2,5-5,5h-4"/>
		<path fill="none" stroke="#DFD9FF" stroke-width="1.5" stroke-linecap="square" d="M94.4,92.4h4c2.7,0,5,2.199,5,5l0,0
			c0,2.699-2.2,5-5,5h-4"/>
	</g>
	<polyline id="n_92_" fill="none" stroke="#DFD9FF" stroke-width="1.5" stroke-linecap="square" points="121.2,102.3 121.2,82.5 
		122.2,82.5 130.1,102.3 131.1,102.3 131.1,82.5 	"/>
	<g id="_x2D__3_">
		<line fill="none" stroke="#DFD9FF" stroke-width="1.5" stroke-linecap="square" x1="75.5" y1="91.4" x2="85.4" y2="91.4"/>
	</g>
</g>
<g id="dt">
	<g id="t_129_">
		<line fill="none" stroke="#FF3A5D" stroke-width="1.5" stroke-linecap="square" x1="82.7" y1="115" x2="95.1" y2="115"/>
		<line fill="none" stroke="#FF3A5D" stroke-width="1.5" stroke-linecap="square" x1="89.1" y1="115" x2="89.1" y2="134.8"/>
	</g>
	<path id="d_95_" fill="none" stroke="#FF3A5D" stroke-width="1.5" stroke-linecap="square" d="M60.8,134.8c2.7,0,5-2.2,5-5V119.9
		c0-2.7-2.2-5-5-5h-5v19.8h5V134.8z"/>
	<g id="u_38_">
		<path fill="none" stroke="#FF3A5D" stroke-width="1.5" stroke-linecap="square" d="M98.1,115v14.9c0,2.699,2.2,5,5,5
			c2.7,0,5-2.2,5-5V115"/>
	</g>
	<g id="e_187_">
		<polyline fill="none" stroke="#FF3A5D" stroke-width="1.5" stroke-linecap="square" points="136.9,134.8 128,134.8 128,115 
			136.9,115 		"/>
		<line fill="none" stroke="#FF3A5D" stroke-width="1.5" stroke-linecap="square" x1="128" y1="124.9" x2="135.9" y2="124.9"/>
	</g>
	<g id="e_191_">
		<polyline fill="none" stroke="#FF3A5D" stroke-width="1.5" stroke-linecap="square" points="79.7,134.8 70.8,134.8 70.8,115 
			79.7,115 		"/>
		<line fill="none" stroke="#FF3A5D" stroke-width="1.5" stroke-linecap="square" x1="70.8" y1="124.9" x2="78.7" y2="124.9"/>
	</g>
	<polyline id="n_90_" fill="none" stroke="#FF3A5D" stroke-width="1.5" stroke-linecap="square" points="113,134.8 113,115 114,115 
		122,134.8 122.9,134.8 122.9,115 	"/>
</g>
<g id="portval">
	<path fill="none" stroke="#00ED95" stroke-width="1.5" stroke-linecap="square" d="M254.7,64.8c0,2.7-2.5,5-5.5,5s-5.5-2.2-5.5-5
		v-9.9c0-2.7,2.5-5,5.5-5s5.5,2.2,5.5,5V64.8z"/>
	
		<line id="_x31__89_" fill="none" stroke="#00ED95" stroke-width="1.5" stroke-linecap="square" x1="261.2" y1="49.9" x2="261.2" y2="69.8"/>
</g>
<g id="gval">
	<path fill="none" stroke="#DFD9FF" stroke-width="1.5" stroke-linecap="square" d="M224.3,97.3c0,2.7-2.2,5-5,5c-2.7,0-5-2.2-5-5
		V87.4c0-2.7,2.2-5,5-5c2.7,0,5,2.199,5,5V97.3L224.3,97.3z"/>
	
		<line id="_x31__90_" fill="none" stroke="#DFD9FF" stroke-width="1.5" stroke-linecap="square" x1="230.3" y1="82.5" x2="230.3" y2="102.3"/>
</g>
<g id="pmval">
	<path id="p_83_" fill="none" stroke="#698EFF" stroke-width="1.5" stroke-linecap="square" d="M214.7,37.3V17.5h4c2.7,0,5,2.2,5,5
		l0,0c0,2.7-2.2,5-5,5h-4"/>
	<g id="y_22_">
		<polyline fill="none" stroke="#698EFF" stroke-width="1.5" stroke-linecap="square" points="251.4,17.5 251.4,18.5 256.4,28.4 
			261.4,18.5 261.4,17.5 		"/>
		<line fill="none" stroke="#698EFF" stroke-width="1.5" stroke-linecap="square" x1="256.4" y1="28.4" x2="256.4" y2="37.3"/>
	</g>
	<path id="o_120_" fill="none" stroke="#698EFF" stroke-width="1.5" stroke-linecap="square" d="M227.6,23v8.9c0,3,2.4,5.5,5.5,5.5
		c3,0,5.5-2.4,5.5-5.5l0,0l0,0V23c0-3-2.397-5.5-5.5-5.5C230,17.5,227.6,19.9,227.6,23L227.6,23L227.6,23L227.6,23z"/>
	<polyline id="l_72_" fill="none" stroke="#698EFF" stroke-width="1.5" stroke-linecap="square" points="243.5,17.5 243.5,37.3 
		252.4,37.3 	"/>
</g>
<g id="dtval">
	<path fill="none" stroke="#FF3A5D" stroke-width="1.5" stroke-linecap="square" d="M243.4,129.9c0,2.699-2.2,5-5,5
		c-2.7,0-5-2.2-5-5V120c0-2.7,2.199-5,5-5c2.699,0,5,2.2,5,5V129.9z"/>
	
		<line id="_x31__88_" fill="none" stroke="#FF3A5D" stroke-width="1.5" stroke-linecap="square" x1="249.3" y1="115" x2="249.3" y2="134.8"/>
	<g id="_x2B__4_">
		<line fill="none" stroke="#FF3A5D" stroke-width="1.5" stroke-linecap="square" x1="219.6" y1="119.9" x2="219.6" y2="129.9"/>
		<line fill="none" stroke="#FF3A5D" stroke-width="1.5" stroke-linecap="square" x1="214.6" y1="124.9" x2="224.5" y2="124.9"/>
	</g>
</g>
</svg>
